<?xml version="1.0" standalone="no"?>
<!DOCTYPE svg PUBLIC "-//W3C//DTD SVG 20010904//EN"
 "http://www.w3.org/TR/2001/REC-SVG-20010904/DTD/svg10.dtd">
<svg version="1.0" xmlns="http://www.w3.org/2000/svg"
 width="240.000000pt" height="240.000000pt" viewBox="0 0 240.000000 240.000000"
 preserveAspectRatio="xMidYMid meet">
<metadata>
Created by potrace 1.12, written by Peter Selinger 2001-2015
</metadata>
<g transform="translate(0.000000,240.000000) scale(0.100000,-0.100000)"
fill="#d50f25" stroke="none">
<path d="M1135 2370 c-9 -10 -20 -34 -24 -52 l-7 -33 -414 -6 c-420 -6 -464
-9 -557 -35 -97 -27 -115 -93 -34 -128 74 -33 139 -38 569 -43 l432 -5 0 -118
0 -117 -372 -6 c-400 -6 -447 -11 -547 -61 -68 -35 -123 -102 -149 -181 -20
-58 -22 -88 -22 -260 0 -107 5 -218 11 -247 14 -63 55 -110 88 -101 58 15 77
89 87 338 9 221 22 245 148 272 79 16 1595 19 1696 2 79 -12 118 -34 144 -79
17 -29 21 -60 27 -221 6 -155 10 -194 27 -232 26 -58 54 -75 89 -52 52 34 58
69 58 320 l0 230 -28 60 c-34 73 -77 119 -139 151 -90 46 -149 52 -550 60
l-378 7 0 117 0 117 433 6 c454 5 532 12 590 51 41 28 44 70 7 97 -51 38 -156
48 -602 55 l-426 7 -6 35 c-8 53 -31 72 -86 72 -34 0 -52 -5 -65 -20z"/>
<path d="M597 1416 c-26 -40 -36 -101 -43 -277 -9 -239 -21 -259 -244 -386
-137 -79 -216 -148 -226 -200 -5 -26 -1 -37 21 -59 23 -23 32 -26 71 -21 52 5
226 87 311 145 200 136 271 319 245 629 -13 143 -31 187 -83 191 -29 2 -39 -2
-52 -22z"/>
<path d="M1713 1406 c-45 -38 -58 -97 -58 -266 0 -121 4 -157 22 -215 27 -86
85 -178 144 -229 117 -101 321 -213 406 -223 46 -5 54 -3 77 20 66 66 8 142
-206 268 -145 86 -201 135 -222 192 -9 26 -17 98 -20 187 -8 200 -29 265 -92
284 -15 5 -31 -1 -51 -18z"/>
<path d="M1167 1402 c-48 -53 -57 -133 -66 -602 -9 -413 -9 -414 -86 -503 -80
-93 -141 -106 -505 -107 -311 0 -448 -24 -463 -79 -8 -32 20 -60 81 -78 50
-16 100 -18 407 -18 437 1 490 10 595 110 67 63 73 63 139 0 31 -30 74 -61 95
-70 76 -32 221 -45 506 -45 289 1 403 12 454 45 31 21 34 55 6 80 -42 38 -113
47 -445 55 -307 8 -378 15 -432 44 -45 23 -131 134 -143 185 -6 26 -15 221
-19 451 -8 335 -12 415 -26 460 -27 86 -62 112 -98 72z"/>
</g>
</svg>
