<svg id="Layer_1" data-name="Layer 1" xmlns="http://www.w3.org/2000/svg" xmlns:xlink="http://www.w3.org/1999/xlink" viewBox="0 0 308 300"><defs><style>.cls-1{fill:url(#linear-gradient);}.cls-2{fill:url(#linear-gradient-2);}.cls-3{fill:url(#linear-gradient-3);}.cls-4{fill:url(#linear-gradient-4);}.cls-5{fill:url(#linear-gradient-5);}.cls-6{fill:url(#linear-gradient-6);}.cls-7{fill:url(#linear-gradient-7);}.cls-8{fill:url(#linear-gradient-8);}.cls-9{fill:url(#linear-gradient-9);}.cls-10{fill:url(#linear-gradient-10);}.cls-11{fill:#d30202;}.cls-12{fill:url(#linear-gradient-11);}.cls-13{fill:url(#linear-gradient-12);}</style><linearGradient id="linear-gradient" x1="-0.37" y1="196.21" x2="108.61" y2="196.21" gradientUnits="userSpaceOnUse"><stop offset="0" stop-color="#980008"/><stop offset="1" stop-color="#b8000a"/></linearGradient><linearGradient id="linear-gradient-2" x1="50.82" y1="210.61" x2="85.29" y2="176.14" gradientUnits="userSpaceOnUse"><stop offset="0" stop-color="#b40009"/><stop offset="1" stop-color="red"/></linearGradient><linearGradient id="linear-gradient-3" x1="14.55" y1="193.53" x2="52.32" y2="193.53" gradientUnits="userSpaceOnUse"><stop offset="0" stop-color="#cf000a"/><stop offset="1" stop-color="#b40009"/></linearGradient><linearGradient id="linear-gradient-4" x1="39.46" y1="199.6" x2="68.98" y2="170.08" xlink:href="#linear-gradient-2"/><linearGradient id="linear-gradient-5" x1="5.91" y1="164.82" x2="33.41" y2="164.82" xlink:href="#linear-gradient-3"/><linearGradient id="linear-gradient-6" x1="74.83" y1="164.82" x2="102.33" y2="164.82" xlink:href="#linear-gradient-3"/><linearGradient id="linear-gradient-7" x1="55.28" y1="234.08" x2="65.75" y2="234.08" xlink:href="#linear-gradient-3"/><linearGradient id="linear-gradient-8" x1="43.31" y1="234.08" x2="53.77" y2="234.08" gradientUnits="userSpaceOnUse"><stop offset="0" stop-color="#b8000a"/><stop offset="1" stop-color="#980008"/></linearGradient><linearGradient id="linear-gradient-9" x1="16.5" y1="212.92" x2="52.52" y2="212.92" xlink:href="#linear-gradient-8"/><linearGradient id="linear-gradient-10" x1="60.21" y1="228.9" x2="95.19" y2="193.92" xlink:href="#linear-gradient-2"/><linearGradient id="linear-gradient-11" x1="69.96" y1="211.63" x2="98.29" y2="211.63" xlink:href="#linear-gradient-3"/><linearGradient id="linear-gradient-12" x1="149.21" y1="262.66" x2="282.23" y2="129.64" gradientUnits="userSpaceOnUse"><stop offset="0.33" stop-color="#b40009"/><stop offset="1" stop-color="red"/></linearGradient></defs><title>cats-game</title><path class="cls-1" d="M54.47,252.42h-.95a5.57,5.57,0,0,1-3.12-.95l0,0-44-31.79a5.55,5.55,0,0,1-2.27-5c.6-7.8,2.12-27.83,2.24-29.66L-.28,146.63A5.64,5.64,0,0,1,1,142a5.58,5.58,0,0,1,7.65-.82l29.52,23h32l29.46-23a5.6,5.6,0,0,1,4.7-1h0a5.64,5.64,0,0,1,4.27,6.41L102,184.61c.11,1.19.54,6.35,2.44,30.08a5.56,5.56,0,0,1-2.26,4.95L57.6,251.47A5.62,5.62,0,0,1,54.47,252.42Zm-2.59-3.13a3,3,0,0,0,1.64.49h.95a3,3,0,0,0,1.64-.49l44.54-31.78a3,3,0,0,0,1.18-2.61c-.64-8-2.3-28.7-2.44-30.13l0-.18,0-.27,6.54-38.2a3,3,0,0,0-2.28-3.41h0a3,3,0,0,0-2.48.58L71,166.79H37.23L7,143.24a3,3,0,0,0-4,.47,3,3,0,0,0-.63,2.48l6.6,38.55C9,185,9,185,6.68,214.9a2.94,2.94,0,0,0,1.19,2.62Z"/><path class="cls-2" d="M93.84,185.19a1.65,1.65,0,0,0-.82-1.25L73.76,171.42a1.94,1.94,0,0,0-1-.34,1.37,1.37,0,0,0-.49.09,1.74,1.74,0,0,0-1,1.16L56.11,215.56c-.14.35.11.54.41.31l36.62-29.36A1.62,1.62,0,0,0,93.84,185.19Z"/><path class="cls-3" d="M14.56,185.19a1.6,1.6,0,0,1,.82-1.25l19.25-12.52a1.94,1.94,0,0,1,1-.34,1.43,1.43,0,0,1,.5.09,1.75,1.75,0,0,1,1,1.16l15.08,43.23c.15.35-.11.54-.41.31L15.25,186.51A1.61,1.61,0,0,1,14.56,185.19Z"/><path class="cls-4" d="M53.79,213.87a.48.48,0,0,0,.91,0l14.84-42.23a.94.94,0,0,0-1-1.4H39.84a1.09,1.09,0,0,0-.94.38,1.11,1.11,0,0,0,0,1C39,172,51.24,206.75,53.79,213.87Z"/><path class="cls-5" d="M6,148.51l5.54,32.41a1.57,1.57,0,0,0,.83,1.25,1.55,1.55,0,0,0,1.46-.24l18.78-12.2a1.62,1.62,0,0,0,.84-1.3,1.65,1.65,0,0,0-.75-1.35L7.16,147.77a1.66,1.66,0,0,0-.88-.4.34.34,0,0,0-.16,0C6,147.5,5.84,147.84,6,148.51Z"/><path class="cls-6" d="M102.29,148.51l-5.55,32.41a1.59,1.59,0,0,1-.82,1.25,1.57,1.57,0,0,1-1.47-.24l-18.78-12.2a1.5,1.5,0,0,1-.09-2.65l25.5-19.31a1.66,1.66,0,0,1,.88-.4.39.39,0,0,1,.17,0C102.28,147.5,102.4,147.84,102.29,148.51Z"/><path class="cls-7" d="M56.25,223.41l9.06,12.88a2.35,2.35,0,0,1-.61,3.32L57,244.75a1.3,1.3,0,0,1-1.26.26,1.28,1.28,0,0,1-.5-1.2V223.72C55.28,223,55.86,222.85,56.25,223.41Z"/><path class="cls-8" d="M52.8,223.41l-9.06,12.88a2.37,2.37,0,0,0,.61,3.32L52,244.75a1,1,0,0,0,1.76-.94V223.72C53.77,223,53.2,222.85,52.8,223.41Z"/><path class="cls-9" d="M17,190.25a.33.33,0,0,0-.5.42v0l23.6,44a1.56,1.56,0,0,0,1.2.94,1.53,1.53,0,0,0,1.32-.79L52,221.57a2.76,2.76,0,0,0-.53-3.69L17.06,190.27Z"/><path class="cls-10" d="M91.36,190.5a.33.33,0,0,1,.49.41v0L68.5,234.49a1.54,1.54,0,0,1-1.19.93,1.52,1.52,0,0,1-1.3-.78l-9.26-13.16a2.73,2.73,0,0,1,.52-3.66l34.07-27.31Z"/><path class="cls-11" d="M38.23,235.29,13.14,188.45l-.46-.85a.4.4,0,0,0-.76.15c0,.25-.05.52-.07.81L10,212.47a5.53,5.53,0,0,0,2,4.33l25.69,19h0a.4.4,0,0,0,.6-.51Z"/><path class="cls-12" d="M70,235.29,95.1,188.45c.17-.31.32-.59.47-.85a.4.4,0,0,1,.75.15c0,.25.05.52.07.81l1.89,23.91a5.55,5.55,0,0,1-2,4.33l-25.7,19h0a.4.4,0,0,1-.59-.51Z"/><path class="cls-13" d="M157.11,156.3v8.31a1,1,0,0,1-1,.95H128.63c-1.67,0-2.36.59-2.36,2v13.07c0,1.44.69,2,2.36,2h27.53a1,1,0,0,1,1,1v8.31a1,1,0,0,1-1,.95H128.63a12.38,12.38,0,0,1-8.86-3.47,11.63,11.63,0,0,1-3.7-8.76V167.58a11.65,11.65,0,0,1,3.7-8.72,12.37,12.37,0,0,1,8.86-3.51h27.53A1,1,0,0,1,157.11,156.3ZM205.69,159a12.2,12.2,0,0,1,3,8.33v24.62a1,1,0,0,1-.95.95h-8.27a.94.94,0,0,1-.95-.95V181.54H173.41v10.39a1,1,0,0,1-.95.95h-8.31a.94.94,0,0,1-1-.95V167.31a12.27,12.27,0,0,1,3-8.32,10.16,10.16,0,0,1,8-3.64h23.5A10.24,10.24,0,0,1,205.69,159Zm-32.28,12.35h25.15v-4c0-1.75-.57-1.75-.88-1.75h-23.5c-.21,0-.77,0-.77,1.75Zm57.88-5.77v26.37a1,1,0,0,0,1,.95h9a1,1,0,0,0,1-.95V165.56h16.45a1,1,0,0,0,.95-.95V156.3a1,1,0,0,0-.95-1H214.83a1,1,0,0,0-1,1v8.31a1,1,0,0,0,1,.95Zm26.17,27.32h40.59a10.27,10.27,0,0,0,7.88-3.5h0l0,0a13.16,13.16,0,0,0,0-16.8,10.26,10.26,0,0,0-7.9-3.53H275.7c-.25,0-.77,0-.77-1.68s.56-1.75.77-1.75h31.85a1,1,0,0,0,.95-.95V156.3a1,1,0,0,0-.95-1H275.7a10.31,10.31,0,0,0-8,3.63,12.2,12.2,0,0,0-3,8.33,11.94,11.94,0,0,0,3.15,8.38,10.33,10.33,0,0,0,7.9,3.48h22.35c.21,0,.77,0,.77,1.75s-.56,1.75-.77,1.75H263.83a2.23,2.23,0,0,0-1.53,1l-5.79,8.31A1,1,0,0,0,257.46,192.88Zm-101.3,6.27H128.63a12.37,12.37,0,0,0-8.86,3.51,11.67,11.67,0,0,0-3.7,8.73v13.07a11.61,11.61,0,0,0,3.7,8.75,12.34,12.34,0,0,0,8.86,3.48h27.53a1,1,0,0,0,1-1v-22a1,1,0,0,0-1-.95H136.6a1,1,0,0,0-.95.95V222a1,1,0,0,0,.95.95h10.3v3.51H128.63c-1.67,0-2.36-.59-2.36-2V211.39c0-1.44.69-2,2.36-2h27.53a1,1,0,0,0,1-1v-8.3A1,1,0,0,0,156.16,199.15Zm49.53,3.64a12.17,12.17,0,0,1,3,8.33v24.61a1,1,0,0,1-.95,1h-8.27a1,1,0,0,1-.95-1V225.34H173.41v10.39a1,1,0,0,1-.95,1h-8.31a1,1,0,0,1-1-1V211.12a12.3,12.3,0,0,1,3-8.33,10.16,10.16,0,0,1,8-3.64h23.5A10.25,10.25,0,0,1,205.69,202.79Zm-32.28,12.34h25.15v-4c0-1.76-.57-1.76-.88-1.76h-23.5c-.21,0-.77,0-.77,1.76Zm88.74-16H253.5a1,1,0,0,0-.78.41L239.05,219l-13.61-19.46a1,1,0,0,0-.78-.41H216a1,1,0,0,0-.95,1v35.62a1,1,0,0,0,.95,1h8.3a1,1,0,0,0,1-1V217l13.06,18.64a1,1,0,0,0,1.55,0L252.89,217v18.7a1,1,0,0,0,1,1h8.31a1,1,0,0,0,1-1V200.11A1,1,0,0,0,262.15,199.15Zm45.9,0h-38a1,1,0,0,0-.95,1v35.62a1,1,0,0,0,.95,1h38a1,1,0,0,0,.95-1v-8.3a1,1,0,0,0-.95-1h-28.7V223h23.3a1,1,0,0,0,1-.95v-8.27a1,1,0,0,0-1-.95h-23.3v-3.44h28.7a1,1,0,0,0,.95-1v-8.3A1,1,0,0,0,308.05,199.15Z"/></svg>