<svg id="Layer_1" data-name="Layer 1" xmlns="http://www.w3.org/2000/svg" xmlns:xlink="http://www.w3.org/1999/xlink" viewBox="0 0 464 300"><defs><style>.cls-1,.cls-2{fill:#ec1c24;}.cls-2,.cls-3,.cls-4,.cls-5{fill-rule:evenodd;}.cls-3{fill:#231f20;}.cls-4{fill:url(#CTS_Gr);}.cls-5{fill:url(#CTS_Gr-2);}</style><linearGradient id="CTS_Gr" x1="152.29" y1="216.33" x2="-74.25" y2="216.33" gradientUnits="userSpaceOnUse"><stop offset="0" stop-color="#fddc85"/><stop offset="0.3" stop-color="#fddc85"/><stop offset="0.51" stop-color="#e1a352"/><stop offset="0.72" stop-color="#804a1e"/><stop offset="0.94" stop-color="#82411d"/></linearGradient><linearGradient id="CTS_Gr-2" x1="152.29" y1="155.41" x2="-74.25" y2="155.41" xlink:href="#CTS_Gr"/></defs><title>cts-productions</title><path class="cls-1" d="M452.7,216.76,443.27,163l-3.72,3.4-2.3,2.49-9.18,47.87,7.35,1.27,1.1-6.72,3,4,.53.46h1.16L444.7,211l1.21,7Zm-15.53-9.39,3.36-20.58,3.54,20.58Z"/><path class="cls-1" d="M158,168.89l-9.19,47.89,7.35,1.27,1.14-6.74,4,5.23,4.11-5.53,1.22,7.06,6.81-1.31L164,162.9Zm0,38.48,3.39-20.13,3.47,20.13Z"/><polygon class="cls-1" points="231.51 172.9 236.7 172.9 236.7 216.99 243.71 216.99 243.71 172.9 246.84 172.9 249.66 165.71 234.08 165.71 231.51 172.9"/><path class="cls-1" d="M117.29,175.58c.71-2.27,2-3.38,4-3.38a3.15,3.15,0,0,1,3.2,1.89l1.8,2.94,2.93-8.36-1.24-1.28a8.85,8.85,0,0,0-6.69-2.38c-5.37,0-9,3.22-10.7,9.55-1.07,3.58-1.61,9.32-1.61,17.05,0,7.43.54,13.11,1.61,16.91,1.89,6.2,5.48,9.35,10.78,9.35h0a10.73,10.73,0,0,0,6.47-2.43l1.37-1.38-3-8.79-1.8,3.42a3.17,3.17,0,0,1-3.14,2c-1.23,0-5,0-5-11.92V184.81A33.07,33.07,0,0,1,117.29,175.58Z"/><polygon class="cls-1" points="193.17 172.9 198.35 172.9 198.35 216.99 205.37 216.99 205.37 172.9 208.48 172.9 211.32 165.71 195.74 165.71 193.17 172.9"/><path class="cls-1" d="M402.82,172.64l5.59-2.16-2.55-6.69L400.22,166a13.77,13.77,0,0,0-6.44,4.95,13.4,13.4,0,0,0-2.48,7.55,20.3,20.3,0,0,0,1.15,5.23l7.87,18a5.77,5.77,0,0,1,.57,2.79c0,2.78-1.43,4.64-4.29,5.54l-5.51,2,2.85,6.67,5.18-1.95a14.41,14.41,0,0,0,6.47-4.58,12.3,12.3,0,0,0,2.49-7.66,15.94,15.94,0,0,0-1-5.35L399.3,181.1a16.15,16.15,0,0,1-.8-2.62A6.4,6.4,0,0,1,402.82,172.64Z"/><rect class="cls-1" x="272.78" y="165.71" width="7" height="51.29"/><polygon class="cls-1" points="362.2 194.22 351.82 162.93 346.17 168.82 346.17 216.99 353.18 216.99 353.18 187.49 364.08 219 369.21 216.57 369.21 165.71 362.2 165.71 362.2 194.22"/><polygon class="cls-1" points="324.34 172.9 322.01 165.71 306.07 165.71 306.07 190.12 304.32 190.12 301.77 197.48 306.07 197.48 306.07 216.99 323.37 216.99 323.37 209.82 313.44 209.82 313.44 197.48 323.37 197.48 323.37 190.12 313.44 190.12 313.44 172.9 324.34 172.9"/><path class="cls-2" d="M449.15,169.39a7.41,7.41,0,1,0,7.4-7.39A7.4,7.4,0,0,0,449.15,169.39Zm1.46,0a6,6,0,1,1,5.94,5.93A5.95,5.95,0,0,1,450.61,169.39Z"/><path class="cls-1" d="M458.63,165.71a1.84,1.84,0,0,1,.74.55,2.25,2.25,0,0,1,.39.66,1.89,1.89,0,0,1,.16.83,2.3,2.3,0,0,1-.29,1.08,1.54,1.54,0,0,1-.94.77,1.33,1.33,0,0,1,.77.62,2.26,2.26,0,0,1,.24,1.21V172a5.72,5.72,0,0,0,0,.73.72.72,0,0,0,.32.44v.19h-1.82a1.81,1.81,0,0,0-.11-.42c0-.21,0-.43,0-.67l0-.72a1.54,1.54,0,0,0-.26-1,1.41,1.41,0,0,0-.94-.25h-1.59v3.06h-1.6v-7.8h3.74A3.78,3.78,0,0,1,458.63,165.71Zm-3.36,1.16V169H457a1.78,1.78,0,0,0,.78-.15.89.89,0,0,0,.46-.87,1.06,1.06,0,0,0-.42-1,1.72,1.72,0,0,0-.78-.14Z"/><path class="cls-3" d="M79,219.51A80.54,80.54,0,0,0,60.71,207c-4.18-2.09-3.12-3.19-2-5.8a.75.75,0,0,0-.23-.92c-.64-.58-.92-1-.7-1.45.64-.87-.17-1-.11-1.8.34-1.33,1.39-1.33,1.74-2,.52-1.22-.65-2.83-1.68-4.06-.59-.69-.41-.69.28-1.15,2.39-1.51,5.63-3.25,7.71-6.08,3.25-3.49,4.4-9,6.73-13.74a19,19,0,0,1,5.39-6.72c.4-.29.8-.59,1.15-.88,8.17-6.25,10.9-8.52,12.87-13.79,2-5.51-1.39-14.95-6.43-20.23,3.24,7.71,3,19.13-5.16,27.07L79,156.68c-6,6.09-8.34,10.15-11.07,18.55-.58,1.91-.4,3-2,6.09a15,15,0,0,1-8.27,7l-1.05.41c-.81.23-1.16.93-.58,1.51a27.54,27.54,0,0,0,2.32,2.2c.75.64.7.69.06,1.28l-1.8,1.51a1.05,1.05,0,0,0-.4,1.33l.81,1.39-1,.52c-.46.41-.69,1.1.23,1.86.41.52.53.86,0,1.8-1.67,2.42-1.15,3.71.93,4.92,8.47,3.94,15.13,9,21.79,14.43,1.92,1.56,3.88,3.19,5.86,4.76A37.53,37.53,0,0,0,79,219.51ZM97.51,146c-1.1,12.63-7.24,13.51-17.09,20.34-.47.35-.93.71-1.4,1.11a34.91,34.91,0,0,0-7.65,10.37,19.84,19.84,0,0,1-5.1,7.13c-2.43,1.73,2.2,2.72,3.3,2.72a7.18,7.18,0,0,0,3.6-1.1A15.53,15.53,0,0,1,79,185.26c.59,0,1.22-.06,1.8-.06a4.71,4.71,0,0,0-1.8-.58,64.37,64.37,0,0,0-8.52-1.22c3-3.76,5.22-8.52,8.52-11.71a15,15,0,0,1,3.25-2.32C96.23,162.42,103.77,158.65,97.51,146Z"/><path class="cls-4" d="M58.62,214.81c-5.51-2.72-11.13-5.33-16.92-7.7a138.67,138.67,0,0,0-25.84-8.06c-6.09-1.22-13.92-2.21-15.77.81-.06.11,4.23-.76,16.69,3,6.15,1.86,15.24,5.74,24.92,10.26S61.81,222.75,70.33,227c7.3,3.71,16.41,7.76,18.67,7.76v-.45C87.13,232,70.74,220.78,58.62,214.81Z"/><path class="cls-5" d="M4.84,196.67a37.39,37.39,0,0,1,11.41.35c3.89.81,7.78,1.8,11.78,1.8a28,28,0,0,0,13.67-3.65c16.4-8.76,29-31.3,32.63-41.61,5.16-14.44,8.57-31.48-5.86-41.56,0,0,4.06,8.53-.11,29.38-2.43,12.23-8.52,28.86-16.81,39a46.43,46.43,0,0,1-9.85,9.33,43.33,43.33,0,0,1-5.8,3.36c-4.57,2.26-9.9,2.55-16.4,1.86-4.75-.76-8.68-2.09-13.33.57C6.12,195.57,4,196.79,4.84,196.67Z"/></svg>