<svg id="Layer_1" data-name="Layer 1" xmlns="http://www.w3.org/2000/svg" viewBox="0 0 365.02 300"><defs><style>.cls-1{fill:#ed1c24;}.cls-2{fill:#808285;}</style></defs><title>saostar</title><g id="Layer_2" data-name="Layer 2"><g id="Layer_1-2" data-name="Layer 1-2"><g id="_Group_" data-name=" Group "><g id="_Group_2" data-name=" Group 2"><path id="_Compound_Path_" data-name=" Compound Path " class="cls-1" d="M128.92,176.41H111.68a3.59,3.59,0,0,0-1.81-3.57,9.47,9.47,0,0,0-4.67-1.05c-3.85,0-6,1-6.31,3.06s1.86,3.62,6.63,4.9a120.79,120.79,0,0,1,13.78,4.18c5,2.51,7.53,6,7.53,10.63a13.63,13.63,0,0,1-.3,2.84,19.74,19.74,0,0,1-9.7,14A37.55,37.55,0,0,1,97.36,216a25.09,25.09,0,0,1-15.86-4.63,13.56,13.56,0,0,1-5.63-11.15A15.72,15.72,0,0,1,76,198H93.44a4.86,4.86,0,0,0,2.06,4,8.75,8.75,0,0,0,5,1.41q7.55,0,8.22-3.95c.38-2-1.83-3.59-6.61-4.82a106.57,106.57,0,0,1-13.77-4.18,11.63,11.63,0,0,1-7.54-10.93,15.55,15.55,0,0,1,.33-3,17.94,17.94,0,0,1,9.32-12.89,34.09,34.09,0,0,1,17.94-4.32q10.94,0,16.24,5A14.75,14.75,0,0,1,128.92,176.41Z"/><path id="_Compound_Path_2" data-name=" Compound Path 2" class="cls-1" d="M138.92,214.41H121.13l29.65-53.55h18.48l10.05,53.55h-18.1l-.85-7.06h-18Zm20.31-18.22L156.94,177l-9.17,19.2Z"/><path id="_Compound_Path_3" data-name=" Compound Path 3" class="cls-1" d="M213.21,159.45q12.16,0,18.7,6.61a21.53,21.53,0,0,1,5.85,15.63,30.54,30.54,0,0,1-.53,5.65A33.38,33.38,0,0,1,225,208.4a34.33,34.33,0,0,1-22,7.54,26.31,26.31,0,0,1-18-5.73A20.41,20.41,0,0,1,178.43,194a35.71,35.71,0,0,1,.68-6.76,32.11,32.11,0,0,1,11.66-20.1A34.62,34.62,0,0,1,213.21,159.45Zm-2.51,13.09a11.53,11.53,0,0,0-9.33,4.9,23,23,0,0,0-4.07,9.9,30.25,30.25,0,0,0-.45,5q0,10.38,8.54,10.35c7.27,0,11.84-5.15,13.7-15.4a20.91,20.91,0,0,0,.45-4.32q0-10.6-8.87-10.46Z"/></g><g id="_Group_3" data-name=" Group 3"><path id="_Compound_Path_4" data-name=" Compound Path 4" class="cls-2" d="M270.61,184.91c0-6.11-3.62-9-9.43-9-3.61,0-8.77,1.46-8.77,6.11,0,3.32,3.62,4.72,6.31,5.93l8.45,3.39a10.92,10.92,0,0,1,7.53,9.7c0,10.06-8.44,14.08-17.18,14.08-11.21,0-17.6-4.7-17.6-16.19h6.86c0,7.24,2.52,10.33,11.36,10.33,4.8,0,9.35-2.18,9.35-6.43,0-3.17-2-4.55-4.55-5.71L255,193.83c-5.41-2.37-9.68-4.9-9.68-11.56,0-4.33,4.12-12.32,15.48-12.32,10.63,0,16.87,4.73,16.87,14.91Z"/><path id="_Compound_Path_5" data-name=" Compound Path 5" class="cls-2" d="M284,177.34h-6l1.25-5.85h6.08l2.84-11.41h7.09l-2.51,11.41h8l-1,5.85h-8.34l-5.3,24.5a30.86,30.86,0,0,0-.65,4.15c0,1.81,1.33,2.51,3.36,2.51a27.68,27.68,0,0,0,4.55-.4L292,213.88a26.53,26.53,0,0,1-5,.55c-5.58,0-9.19-2.11-9.19-6.91a17.36,17.36,0,0,1,.25-2.69Z"/><path id="_Compound_Path_6" data-name=" Compound Path 6" class="cls-2" d="M329,202.67a21.54,21.54,0,0,0-.68,3.82c0,1.46,1.11,2.52,3.12,2.52a17.16,17.16,0,0,0,1.76-.15l-1.08,5.2a33.46,33.46,0,0,1-4.12.32,6,6,0,0,1-6.71-5.1l0-.27h-.17c-.61,1.55-5,6.1-13.58,6.1-10.05,0-13.82-6.83-13.82-12.36,0-9.53,6.91-13.6,15.08-14.18l10.28-.65c5.81-.4,7.06-2.69,7.06-6.18,0-4.4-3.37-5.93-9.52-5.93s-10.06,2.51-10.68,7.71h-7.34c1.43-9.67,9.6-13.59,19-13.59,7.08,0,16,1.71,16,10.18a36.69,36.69,0,0,1-1.44,8.24Zm-5-10.17a58.11,58.11,0,0,1-12.72,1.7c-6.23.56-10.05,3.65-10.05,8.3s3.44,6.83,7.74,6.83c9.42,0,13.47-6.83,15.08-16.84Z"/><path id="_Compound_Path_7" data-name=" Compound Path 7" class="cls-2" d="M344.14,171.39H351L349.32,180s2.94-3.74,3.54-4.39a13.82,13.82,0,0,1,10.05-5l2.11.15-1.53,7.84c-.75,0-1.58-.17-2.51-.17-8.42,0-13.14,9-14.07,14l-4.8,21.59h-7.34Z"/></g><g id="_Group_4" data-name=" Group 4"><polygon id="_Path_" data-name=" Path " class="cls-1" points="7.36 158.32 22.52 167.92 22.77 167.92 22.77 167.92 45.23 167.92 45.23 166.56 45.23 166.56 45.23 165.66 58 172.79 45.23 179.9 45.23 178.87 45.23 178.87 45.23 177.52 45.23 177.52 45.23 177.49 36.01 177.49 35.99 177.52 16.86 177.52 16.86 178.87 35.26 178.87 18.82 209.68 50.39 185.63 68.86 197.55 65.82 173.92 86.58 158.27 63.88 158.29 60.54 131 46.14 158.29 7.36 158.32"/><rect id="_Path_2" data-name=" Path 2" class="cls-1" x="30.21" y="174.7" width="15.03" height="1.36"/><rect id="_Path_3" data-name=" Path 3" class="cls-1" x="5.53" y="166.56" width="1.94" height="1.36"/><rect id="_Path_4" data-name=" Path 4" class="cls-1" x="13.24" y="166.56" width="1.94" height="1.36"/><rect id="_Path_5" data-name=" Path 5" class="cls-1" x="17.26" y="166.56" width="1.94" height="1.36"/><rect id="_Path_6" data-name=" Path 6" class="cls-1" x="9.8" y="169.27" width="2.84" height="1.36"/><rect id="_Path_7" data-name=" Path 7" class="cls-1" x="14.7" y="169.27" width="1.94" height="1.36"/><rect id="_Path_8" data-name=" Path 8" class="cls-1" x="18.8" y="169.27" width="26.44" height="1.36"/><rect id="_Path_9" data-name=" Path 9" class="cls-1" y="171.99" width="1.94" height="1.36"/><rect id="_Path_10" data-name=" Path 10" class="cls-1" x="4.15" y="171.99" width="3.32" height="1.36"/><rect id="_Path_11" data-name=" Path 11" class="cls-1" x="9.8" y="171.99" width="35.43" height="1.36"/><rect id="_Path_12" data-name=" Path 12" class="cls-1" x="23.72" y="174.7" width="1.94" height="1.36"/><rect id="_Path_13" data-name=" Path 13" class="cls-1" x="19.5" y="174.7" width="1.94" height="1.36"/><rect id="_Path_14" data-name=" Path 14" class="cls-1" x="14.7" y="174.7" width="1.94" height="1.36"/><rect id="_Path_15" data-name=" Path 15" class="cls-1" x="12.77" y="177.52" width="1.94" height="1.36"/><rect id="_Path_16" data-name=" Path 16" class="cls-1" x="7.14" y="177.52" width="1.94" height="1.36"/><rect id="_Path_17" data-name=" Path 17" class="cls-1" x="3.74" y="177.52" width="1.94" height="1.36"/></g></g></g></g></svg>