<?xml version="1.0" encoding="utf-8"?>
<!-- Generator: Adobe Illustrator 22.1.0, SVG Export Plug-In . SVG Version: 6.00 Build 0)  -->
<svg version="1.1" id="Layer_1" xmlns="http://www.w3.org/2000/svg" xmlns:xlink="http://www.w3.org/1999/xlink" x="0px" y="0px"
	 viewBox="0 0 274.5 300" style="enable-background:new 0 0 274.5 300;" xml:space="preserve">
<style type="text/css">
	.st0{fill:#ED1C24;}
</style>
<title>viva-tv</title>
<g id="Layer_2_1_">
	<g id="Layer_1-2">
		<g id="_Group_">
			<g id="_Group_2">
				<path id="_Path_2" class="st0" d="M77.1,159.1c-10.3,0-12.2,6-15.3,10.4l-11.5,17.3l-6.8-27.7H25.1l11.6,46.5
					c2.5,8.3,9.2,7.8,9.2,7.8c4.7,0,8.2-2.5,11.3-7.1l31.2-47.2H77.1z"/>
				<path id="_Path_3" class="st0" d="M172.6,159.1c-10.3,0-12.3,6-15.3,10.4l-11.5,17.3l-6.8-27.7h-18.4l11.6,46.5
					c2.5,8.3,9.2,7.8,9.2,7.8c4.7,0,8.2-2.5,11.3-7.1l31.2-47.2L172.6,159.1z"/>
				<path id="_Path_4" class="st0" d="M238,159.1c-8.4,0-9.7,6.1-11,10.4c-1.3,4.3-10.2,36.1-10.2,36.1c5.8,8.3,12.3,7.8,12.3,7.8
					c4.7,0,7.2-2.5,8.4-7.1l11.8-47.2L238,159.1z"/>
				<path id="_Path_5" class="st0" d="M105.5,159.1c-10.3,0-12.3,6-15.3,10.4l-25.1,36.1c2.5,8.3,9.2,7.8,9.2,7.8
					c4.7,0,8.2-2.5,11.3-7.1l31.2-47.2L105.5,159.1z"/>
				<g id="_Group_3">
					<path id="_Compound_Path_" class="st0" d="M174.6,189.1c1-17.4,15.3-31,32.7-31.1c16.5,0,26.1,10.8,25.6,24.9
						c-1,17.4-15.3,31.1-32.8,31.2C183.7,214,174.1,203.2,174.6,189.1z M220.3,183.4c0.2-6.3-4.3-10.3-11.1-10.3
						c-8.5,0.2-15.4,6.8-16.1,15.2c-0.2,6.4,4.3,10.4,11.1,10.4C212.7,198.5,219.6,191.9,220.3,183.4z"/>
				</g>
			</g>
		</g>
	</g>
</g>
</svg>
