<?xml version="1.0" encoding="utf-8"?>
<!-- Generator: Adobe Illustrator 22.1.0, SVG Export Plug-In . SVG Version: 6.00 Build 0)  -->
<svg version="1.1" id="Layer_1" xmlns="http://www.w3.org/2000/svg" xmlns:xlink="http://www.w3.org/1999/xlink" x="0px" y="0px"
	 viewBox="0 0 446 300" style="enable-background:new 0 0 446 300;" xml:space="preserve">
<style type="text/css">
	.st0{fill:#F15B40;}
</style>
<title>vmelody</title>
<g id="Layer_2_1_">
	<g id="Layer_1-2">
		<polygon class="st0" points="446,196.2 316.4,279.2 316.4,269.4 430.6,196.2 316.4,123 316.4,113.2 		"/>
		<polygon class="st0" points="341.7,160.1 322.8,148.1 322.8,138.2 341.7,150.3 		"/>
		<polygon class="st0" points="350.8,226.4 356.6,222.7 356.6,232.6 350.8,236.2 		"/>
		<polygon class="st0" points="413.3,196.2 361.5,229.4 361.5,219.6 398,196.2 350.8,166 350.8,156.1 		"/>
		<polygon class="st0" points="380.7,196.2 373,201.1 372.9,201.2 326,171 326,161.2 		"/>
		<path class="st0" d="M317.3,176.7v50.7l-3.1-2.4l-17.9,11.5l12.9,8.5l16.8-10.8v-42l23.1,14.7l-14.4,9.2v9.8l29.8-19.1
			L317.3,176.7z"/>
		<path class="st0" d="M47,171.7l-20.9,44.6h-5.3L0,171.7h11.8l11.8,25.5l11.8-25.4L47,171.7z"/>
		<path class="st0" d="M71.6,188.3l18.1-16.5h5.3v44.5H83.2v-22.9l-11.6,10.6l-11.7-10.6v22.8H48.1v-44.5h5.3L71.6,188.3z"/>
		<path class="st0" d="M100.1,171.8h27.6v9.7h-15.9v7.2h14.2v9.9h-14.2v8.2h15.9v9.5h-27.6V171.8z"/>
		<path class="st0" d="M132.2,171.8h11.7v32.8H160v11.8h-27.8V171.8z"/>
		<path class="st0" d="M184,171.8c12.3,0,22.3,9.9,22.4,22.2c0,12.3-9.9,22.3-22.2,22.4s-22.3-9.9-22.4-22.2c0,0,0,0,0,0
			C161.8,181.8,171.7,171.8,184,171.8z M184,183.4c-5.9,0-10.7,4.7-10.7,10.6c0,5.9,4.7,10.7,10.6,10.7c5.9,0,10.7-4.7,10.7-10.6
			V194C194.6,188.2,189.9,183.4,184,183.4C184.1,183.4,184.1,183.4,184,183.4L184,183.4z"/>
		<path class="st0" d="M210.6,171.8h16.5c12.3-0.3,22.5,9.5,22.8,21.8c0.3,12-9,22.1-21,22.7c-0.6,0-1.2,0-1.7,0h-16.5V171.8z
			 M222.2,204.8h4.9c5.8,0.2,10.7-4.4,10.9-10.2c0.2-5.6-4.1-10.4-9.7-10.9c-0.4,0-0.8,0-1.2,0h-4.9V204.8z"/>
		<path class="st0" d="M275.7,199.9v16.4h-11.6v-16.4l-16.3-28.1h13.4l8.5,14.9l8.6-14.9h13.4L275.7,199.9z"/>
		<polygon class="st0" points="13.4,234.2 17,234.2 17,231.8 13.4,231.8 13.4,230.4 17.3,230.4 17.3,227.9 10.9,227.9 10.9,238.1 
			17.4,238.1 17.4,235.6 13.4,235.6 		"/>
		<polygon class="st0" points="37.6,233 34,227.9 32.1,227.9 32.1,238.1 34.6,238.1 34.6,233.1 38.2,238.1 40.1,238.1 40.1,227.9 
			37.6,227.9 		"/>
		<polygon class="st0" points="54.5,230.4 57.1,230.4 57.1,238.1 59.7,238.1 59.7,230.4 62.2,230.4 62.2,227.9 54.5,227.9 		"/>
		<polygon class="st0" points="79.2,234.2 82.8,234.2 82.8,231.8 79.2,231.8 79.2,230.4 83.1,230.4 83.1,227.9 76.6,227.9 
			76.6,238.1 83.2,238.1 83.2,235.6 79.2,235.6 		"/>
		<path class="st0" d="M105,233.3c1-1.6,0.5-3.8-1.1-4.8c-0.6-0.4-1.2-0.5-1.9-0.5h-4.1V238h2.6v-3.4h0.9l1.9,3.4h2.8l-2.2-3.8
			C104.3,234,104.7,233.7,105,233.3z M103,231.4c0,0.3-0.1,0.6-0.3,0.8c-0.2,0.2-0.4,0.3-0.6,0.3h-1.6v-2.1h1.5
			c0.3,0,0.5,0.1,0.6,0.3C102.8,230.9,102.9,231.1,103,231.4L103,231.4z"/>
		<polygon class="st0" points="119.3,230.4 121.8,230.4 121.8,238.1 124.4,238.1 124.4,230.4 127,230.4 127,227.9 119.3,227.9 		"/>
		<path class="st0" d="M143.3,227.9l-3.6,10.1h2.8l0.6-1.7h3.4l0.5,1.7h2.8l-3.6-10.1H143.3z M145.5,234h-1.6l0.8-2.4L145.5,234z"/>
		<rect x="163.8" y="227.9" class="st0" width="2.6" height="10.2"/>
		<polygon class="st0" points="187,233 183.4,227.9 181.5,227.9 181.5,238.1 184.1,238.1 184.1,233.1 187.6,238.1 189.6,238.1 
			189.6,227.9 187,227.9 		"/>
		<polygon class="st0" points="209.7,232.1 207.2,227.9 204.7,227.9 204.7,238.1 207.3,238.1 207.3,232.9 209.4,236.4 210,236.4 
			212.1,232.9 212.1,238.1 214.6,238.1 214.6,227.9 212.2,227.9 		"/>
		<polygon class="st0" points="232.4,234.2 235.9,234.2 235.9,231.8 232.4,231.8 232.4,230.4 236.2,230.4 236.2,227.9 229.8,227.9 
			229.8,238.1 236.3,238.1 236.3,235.6 232.4,235.6 		"/>
		<polygon class="st0" points="256.5,233 252.9,227.9 251,227.9 251,238.1 253.6,238.1 253.6,233.1 257.1,238.1 259.1,238.1 
			259.1,227.9 256.5,227.9 		"/>
		<polygon class="st0" points="273.5,227.9 273.5,230.4 276,230.4 276,238.1 278.6,238.1 278.6,230.4 281.1,230.4 281.1,227.9 		"/>
	</g>
</g>
</svg>
