<svg id="Layer_1" data-name="Layer 1" xmlns="http://www.w3.org/2000/svg" viewBox="0 0 228 300"><defs><style>.cls-1{fill:#faa61a;}.cls-2{fill:#ed1c24;}</style></defs><title>vvs</title><g id="Layer_2" data-name="Layer 2"><g id="Layer_1-2" data-name="Layer 1-2"><g id="_Group_" data-name=" Group "><path id="_Path_" data-name=" Path " class="cls-1" d="M207.29,170.37a5.14,5.14,0,0,1-5.15-5.15V135.28a5.15,5.15,0,0,1,10.3,0v29.94A5.18,5.18,0,0,1,207.29,170.37Z"/><path id="_Path_2" data-name=" Path 2" class="cls-1" d="M220.5,180.42a4.58,4.58,0,0,1-4.66-4.49h0v-27a4.66,4.66,0,0,1,9.32,0v27a4.58,4.58,0,0,1-4.66,4.49Z"/><path id="_Path_3" data-name=" Path 3" class="cls-1" d="M163.41,169.07a2.26,2.26,0,0,1-1.56-.49l-18.51-14.51a3.15,3.15,0,0,1-1-2.87,8.29,8.29,0,0,1,1.81-4.26,7.14,7.14,0,0,1,5.15-3,2.39,2.39,0,0,1,1.57.49l18.5,14.51a3,3,0,0,1,1,2.75,8.3,8.3,0,0,1-1.8,4.38A7.14,7.14,0,0,1,163.41,169.07Z"/><path id="_Path_4" data-name=" Path 4" class="cls-1" d="M179.83,164.73a5.15,5.15,0,0,1-5.21-5.08v-30a5.15,5.15,0,0,1,10.3,0v29.94A5.15,5.15,0,0,1,179.83,164.73Z"/><path id="_Path_5" data-name=" Path 5" class="cls-1" d="M188.13,212.87a5.83,5.83,0,1,0-5.83,5.83h0A5.83,5.83,0,0,0,188.13,212.87Z"/><path id="_Path_6" data-name=" Path 6" class="cls-1" d="M182.3,171.07a41.8,41.8,0,0,0-5.7.41V181a31.16,31.16,0,0,1,5.7-.53,32.41,32.41,0,0,1,32.41,32.41v0a32.58,32.58,0,0,1-.53,5.83h9.49V207A41.79,41.79,0,0,0,182.3,171.07Z"/><path id="_Path_7" data-name=" Path 7" class="cls-1" d="M182.3,189.59a22.84,22.84,0,0,0-5.7.72v8.17a15.47,15.47,0,0,1,20,20.22h8.22a23.93,23.93,0,0,0,.72-5.83A23.28,23.28,0,0,0,182.3,189.59Z"/><path class="cls-2" d="M169.56,193.78A17.58,17.58,0,0,0,157.45,190H137.21a2.88,2.88,0,0,1-2.13-.64,2.3,2.3,0,0,1-.61-1.87,2.54,2.54,0,0,1,.61-2,3.44,3.44,0,0,1,2.13-.6h34.6V171.71H137.27a19.67,19.67,0,0,0-6.76,1.09,15.29,15.29,0,0,0-5.26,3.13,13.76,13.76,0,0,0-3.3,4.78,16.62,16.62,0,0,0-1.06,5.92,15.54,15.54,0,0,0,1.15,6,13.91,13.91,0,0,0,3.32,5.09,15,15,0,0,0,5.21,3.17,19.27,19.27,0,0,0,6.6,1.11H157.6a5,5,0,0,1,3,.74c.17.13.68.55.68,2.13a2.55,2.55,0,0,1-.81,2.13,4.17,4.17,0,0,1-2.87.83h-36V221H157.6a20.34,20.34,0,0,0,7-1.13,14.46,14.46,0,0,0,5.28-3.32,14,14,0,0,0,3.17-5.06,18.33,18.33,0,0,0,1-6.05A14.77,14.77,0,0,0,169.56,193.78Z"/><path class="cls-2" d="M52.84,170.48,21.51,201.85,14.83,172.2H.13l10.34,43.6A6.06,6.06,0,0,0,12.08,219a5.24,5.24,0,0,0,3.81,1.45,7.45,7.45,0,0,0,3.66-1,12.74,12.74,0,0,0,2.71-2.13l33.38-34.05-1.49-6.09Z"/><path class="cls-2" d="M107.82,172.2,79.69,201.7l-6.64-29.5H58.35l10.34,43.63A6,6,0,0,0,70.35,219a5.22,5.22,0,0,0,3.81,1.45,7.48,7.48,0,0,0,3.66-1,12.8,12.8,0,0,0,2.72-2.13L124,172.2Z"/><path id="_Path_8" data-name=" Path 8" class="cls-1" d="M193.56,162.73a5.43,5.43,0,0,1-5.15-5.68V124.68a5.17,5.17,0,0,1,10.3-.93,4.82,4.82,0,0,1,0,.93v32.37A5.45,5.45,0,0,1,193.56,162.73Z"/></g></g></g></svg>