<svg id="Layer_1" data-name="Layer 1" xmlns="http://www.w3.org/2000/svg" viewBox="0 0 1774 300"><defs><style>.cls-1{fill:#333;}</style></defs><title>logo</title><path class="cls-1" d="M144.78,52.34a11.63,11.63,0,0,0-2,4.34l-0.58,2.75-34.56.5c-35.06.5-38.73,0.75-46.49,2.92-8.1,2.25-9.6,7.76-2.84,10.68,6.18,2.75,11.6,3.17,47.49,3.59l36.06,0.42V97.16l-31.05.5c-33.39.5-37.31,0.92-45.66,5.09a26.25,26.25,0,0,0-12.44,15.11c-1.67,4.84-1.84,7.35-1.84,21.7,0,8.93.42,18.2,0.92,20.62,1.17,5.26,4.59,9.18,7.35,8.43,4.84-1.25,6.43-7.43,7.26-28.21C67.16,122,68.24,120,78.76,117.7c6.59-1.34,133.13-1.59,141.56-.17,6.59,1,9.85,2.84,12,6.59,1.42,2.42,1.75,5,2.25,18.45,0.5,12.94.83,16.19,2.25,19.36,2.17,4.84,4.51,6.26,7.43,4.34,4.34-2.84,4.84-5.76,4.84-26.71v-19.2l-2.34-5c-2.84-6.09-6.43-9.93-11.6-12.6-7.51-3.84-12.44-4.34-45.91-5l-31.55-.58V77.63l36.14-.5c37.89-.42,44.41-1,49.25-4.26,3.42-2.34,3.67-5.84.58-8.1-4.26-3.17-13-4-50.25-4.59l-35.56-.58-0.5-2.92c-0.67-4.42-2.59-6-7.18-6C147.37,50.67,145.87,51.09,144.78,52.34Z"/><path class="cls-1" d="M99.88,132c-2.17,3.34-3,8.43-3.59,23.12-0.75,19.95-1.75,21.62-20.37,32.22-11.44,6.59-18,12.35-18.86,16.69-0.42,2.17-.08,3.09,1.75,4.92s2.67,2.17,5.93,1.75c4.34-.42,18.86-7.26,26-12.1,16.69-11.35,22.62-26.63,20.45-52.5-1.09-11.94-2.59-15.61-6.93-15.94C101.8,130,101,130.3,99.88,132Z"/><path class="cls-1" d="M193,132.81c-3.76,3.17-4.84,8.1-4.84,22.2,0,10.1.33,13.1,1.84,17.95,2.25,7.18,7.09,14.86,12,19.11,9.77,8.43,26.79,17.78,33.89,18.61,3.84,0.42,4.51.25,6.43-1.67,5.51-5.51.67-11.85-17.19-22.37-12.1-7.18-16.78-11.27-18.53-16-0.75-2.17-1.42-8.18-1.67-15.61-0.67-16.69-2.42-22.12-7.68-23.71C196,130.89,194.7,131.39,193,132.81Z"/><path class="cls-1" d="M147.45,133.14c-4,4.42-4.76,11.1-5.51,50.25-0.75,34.47-.75,34.56-7.18,42-6.68,7.76-11.77,8.85-42.15,8.93-26,0-37.39,2-38.65,6.59-0.67,2.67,1.67,5,6.76,6.51,4.17,1.34,8.35,1.5,34,1.5,36.48-.08,40.9-0.83,49.66-9.18,5.59-5.26,6.09-5.26,11.6,0a34.88,34.88,0,0,0,7.93,5.84c6.34,2.67,18.45,3.76,42.24,3.76,24.12-.08,33.64-1,37.89-3.76,2.59-1.75,2.84-4.59.5-6.68-3.51-3.17-9.43-3.92-37.14-4.59-25.62-.67-31.55-1.25-36.06-3.67-3.76-1.92-10.93-11.18-11.94-15.44-0.5-2.17-1.25-18.45-1.59-37.64-0.67-28-1-34.64-2.17-38.4C153.38,132,150.46,129.8,147.45,133.14Z"/><path class="cls-1" d="M285,15V285H15V15H285M300,0H0V300H300V0h0Z"/><path class="cls-1" d="M374.82,89.64V72.21H499.23V89.64H447.37V227.79h-20.7V89.64H374.82Z"/><path class="cls-1" d="M558.93,72.21v66.89h81.93V72.21h20.7V227.79h-20.7V156.54H558.93v71.25h-20.7V72.21h20.7Z"/><path class="cls-1" d="M782.49,72.21l60.79,155.58H820.4l-17-46.85H737.6l-17.43,46.85H699L759.61,72.21h22.88Zm14.38,91.3L770.94,91h-0.43l-26.37,72.56h52.73Z"/><path class="cls-1" d="M902.11,72.21L984,198.37h0.44V72.21h19.61V227.79H981.42L900.15,102.94h-0.44V227.79H880.1V72.21h22Z"/><path class="cls-1" d="M1080.13,72.21v66.89h81.93V72.21h20.7V227.79h-20.7V156.54h-81.93v71.25h-20.7V72.21h20.7Z"/><path class="cls-1" d="M1341.59,72.21v66.89h81.93V72.21h20.7V227.79h-20.7V156.54h-81.93v71.25h-20.7V72.21h20.7Z"/><path class="cls-1" d="M1565.15,72.21l60.79,155.58h-22.88l-17-46.85h-65.8l-17.43,46.85H1481.7l60.57-155.58h22.88Zm14.38,91.3L1553.6,91h-0.44l-26.37,72.56h52.73Z"/><path class="cls-1" d="M1684.55,72.21V227.79h-20.7V72.21h20.7Z"/><path class="cls-1" d="M1759,15V285H300.65V15H1759m15-15H285.65V300H1774V0h0Z"/></svg>