<svg id="Layer_1" data-name="Layer 1" xmlns="http://www.w3.org/2000/svg" viewBox="0 0 1600 400"><defs><style>.cls-1{fill:#454546;}</style></defs><title>logo-thanhhai</title><path class="cls-1" d="M147.33,279.28V154.52H105v-33.8H231.19v33.8H188.91V279.28H147.33Z"/><path class="cls-1" d="M367.08,279.28V216H312.72v63.31H271V120.72h41.7v61.8h54.36v-61.8h41.59V279.28H367.08Z"/><path class="cls-1" d="M447.9,279.28l50.18-158.56h51.46l49.83,158.56H555l-9.18-34.38H498.55l-9.29,34.38H447.9ZM521.43,157L506,215h32.64L523.41,157h-2Z"/><path class="cls-1" d="M638.62,279.28V120.72h32.29l60.52,88.51h1.63V120.72h38.45V279.28H739.45l-60.75-89.56h-1.51v89.56H638.62Z"/><path class="cls-1" d="M920.87,279.28V216H866.5v63.31H824.8V120.72h41.7v61.8h54.36v-61.8h41.59V279.28H920.87Z"/><path class="cls-1" d="M1181.72,279.28V216h-54.36v63.31h-41.7V120.72h41.7v61.8h54.36v-61.8h41.59V279.28h-41.59Z"/><path class="cls-1" d="M1262.54,279.28l50.18-158.56h51.46L1414,279.28h-44.37l-9.18-34.38h-47.28l-9.29,34.38h-41.35ZM1336.07,157L1320.62,215h32.64L1338,157h-2Z"/><path class="cls-1" d="M1453.25,279.28V120.72H1495V279.28h-41.7Z"/><path class="cls-1" d="M1555,45V355H45V45H1555m45-45H0V400H1600V0h0Z"/></svg>