<?xml version="1.0" standalone="no"?>
<!DOCTYPE svg PUBLIC "-//W3C//DTD SVG 1.1//EN" "http://www.w3.org/Graphics/SVG/1.1/DTD/svg11.dtd" >
<svg>
<metadata>
Created by FontForge 20120731 at Mon Apr 18 06:26:46 2016
 By www
Copyright (c) 2012 by Hannes von Doehren. All rights reserved.
</metadata>
<defs>
<font id="PlutoSansW01-CondMedium" horiz-adv-x="626" >
  <font-face 
    font-family="PlutoSansW01-CondMedium"
    font-weight="500"
    font-stretch="normal"
    units-per-em="1000"
    panose-1="2 0 0 0 0 0 0 0 0 0"
    ascent="750"
    descent="-250"
    x-height="523"
    cap-height="680"
    bbox="-42 -198 1087 898"
    underline-thickness="50"
    underline-position="-100"
    unicode-range="U+0002-2122"
  />
<missing-glyph horiz-adv-x="205" 
 />
    <glyph glyph-name=".notdef" horiz-adv-x="205" 
 />
    <glyph glyph-name=".null" horiz-adv-x="0" 
 />
    <glyph glyph-name="uni000D" unicode="&#xd;" horiz-adv-x="205" 
 />
    <glyph glyph-name="glyph223" horiz-adv-x="0" 
 />
    <glyph glyph-name="glyph223" horiz-adv-x="0" 
 />
    <glyph glyph-name="uni0002" horiz-adv-x="0" 
 />
    <glyph glyph-name="uni0009" unicode="&#x9;" horiz-adv-x="205" 
 />
    <glyph glyph-name="uni000A" unicode="&#xa;" horiz-adv-x="0" 
 />
    <glyph glyph-name="space" unicode=" " horiz-adv-x="205" 
 />
    <glyph glyph-name="exclam" unicode="!" horiz-adv-x="261" 
d="M67 680h126l-19 -461h-89zM54 67q0 38 19.5 59t56.5 21t57.5 -21t20.5 -59q0 -39 -20.5 -59.5t-57.5 -20.5q-76 0 -76 80z" />
    <glyph glyph-name="quotedbl" unicode="&#x22;" horiz-adv-x="408" 
d="M153 428h-87l-5 252h99zM341 428h-88l-4 252h98z" />
    <glyph glyph-name="numbersign" unicode="#" horiz-adv-x="601" 
d="M313 154h-110l-33 -154h-93v10l31 144h-71v96h91l38 177h-70v96h91l34 157h92v-9l-32 -148h111l34 157h92v-9l-32 -148h79v-96h-99l-38 -177h78v-96h-98l-33 -154h-92v10zM223 250h111l38 177h-111z" />
    <glyph glyph-name="dollar" unicode="$" horiz-adv-x="527" 
d="M223 -8q-55 5 -102 20.5t-73 31.5l29 119q28 -20 65.5 -35.5t80.5 -19.5v187l-51 16q-66 21 -99.5 63.5t-33.5 111.5q0 36 12 69t35 59.5t57.5 45t79.5 25.5v84h75v-81q53 -2 101.5 -16.5t79.5 -31.5l-36 -113q-29 19 -68 31t-77 14v-178l36 -12q78 -26 116.5 -68
t38.5 -111q0 -41 -13.5 -76t-38 -63t-60 -46.5t-79.5 -24.5v-122h-75v121zM357 195q0 27 -14.5 44.5t-44.5 30.5v-156q26 9 42.5 28.5t16.5 52.5zM165 494q0 -29 15 -46.5t43 -28.5v146q-29 -9 -43.5 -27.5t-14.5 -43.5z" />
    <glyph glyph-name="percent" unicode="%" horiz-adv-x="778" 
d="M483 680h107v-9l-295 -671h-108v10zM32 509q0 43 11.5 76.5t32.5 57t50 35.5t64 12q34 0 63.5 -12t50.5 -35.5t33 -57t12 -76.5q0 -87 -45 -133.5t-114 -46.5t-113.5 46t-44.5 134zM124 509q0 -44 18.5 -65t47.5 -21q30 0 48 21t18 65t-18 65t-48 21q-29 0 -47.5 -21
t-18.5 -65zM428 169q0 87 44.5 134.5t113.5 47.5t114 -47.5t45 -134.5q0 -43 -12 -76.5t-33 -56t-50.5 -34.5t-63.5 -12q-69 0 -113.5 46t-44.5 133zM520 169q0 -44 18.5 -64.5t47.5 -20.5q30 0 48.5 20.5t18.5 64.5q0 45 -18.5 66t-48.5 21q-29 0 -47.5 -21t-18.5 -66z" />
    <glyph glyph-name="ampersand" unicode="&#x26;" horiz-adv-x="665" 
d="M641 -1h-147l-46 52q-41 -28 -89.5 -44.5t-105.5 -16.5q-47 0 -84 13.5t-63.5 37.5t-40.5 57.5t-14 74.5q0 64 37.5 106t92.5 72q-32 38 -50 74t-18 89q0 34 12.5 66t36.5 56.5t60 39t84 14.5q91 0 141.5 -46.5t50.5 -130.5q0 -36 -12.5 -65t-32.5 -52t-45.5 -40.5
t-51.5 -29.5l-2 -1l104 -112q28 37 51 81t40 93l93 -66q-18 -48 -45 -96.5t-63 -92.5l107 -115v-18zM279 101q24 0 48.5 8.5t47.5 23.5l-125 141q-32 -17 -51 -35.5t-19 -48.5q0 -40 27 -64.5t72 -24.5zM236 504q0 -29 14.5 -55t34.5 -49l25 12q34 16 49.5 39.5t15.5 52.5
q0 32 -19 54t-50 22q-32 0 -51 -22t-19 -54z" />
    <glyph glyph-name="quotesingle" unicode="'" horiz-adv-x="220" 
d="M153 428h-87l-5 252h99z" />
    <glyph glyph-name="parenleft" unicode="(" horiz-adv-x="281" 
d="M152 261q0 -73 9.5 -136.5t23.5 -115.5t31.5 -92.5t33.5 -67.5l-71 -42q-19 21 -43 61.5t-45 98.5t-35 132.5t-14 162.5t14 162t35 131.5t45 98.5t43 62l71 -42q-16 -27 -33.5 -67t-31.5 -92.5t-23.5 -116t-9.5 -137.5z" />
    <glyph glyph-name="parenright" unicode=")" horiz-adv-x="281" 
d="M129 261q0 74 -9.5 137.5t-23.5 116t-31.5 92.5t-33.5 67l71 42q19 -21 43 -62t45 -98.5t35 -131.5t14 -162t-14 -162.5t-35 -132.5t-45 -98.5t-43 -61.5l-71 42q16 27 33.5 67.5t31.5 92.5t23.5 115.5t9.5 136.5z" />
    <glyph glyph-name="asterisk" unicode="*" horiz-adv-x="440" 
d="M149 480l-108 28l26 86l111 -41l-8 127h100l-8 -127l111 41l26 -86l-110 -30l68 -101l-74 -47l-63 108l-63 -108l-74 46z" />
    <glyph glyph-name="plus" unicode="+" horiz-adv-x="492" 
d="M295 353h155v-101h-155v-186h-98v186h-156v101h156v187h98v-187z" />
    <glyph glyph-name="comma" unicode="," horiz-adv-x="257" 
d="M101 -11q-24 6 -36.5 25.5t-12.5 48.5q0 40 19.5 61.5t55.5 21.5t56.5 -22.5t20.5 -60.5q0 -27 -7 -60t-17.5 -65.5t-22.5 -61.5t-23 -48l-70 29z" />
    <glyph glyph-name="hyphen" unicode="-" horiz-adv-x="467" 
d="M405 353v-101h-343v101h343z" />
    <glyph glyph-name="period" unicode="." horiz-adv-x="259" 
d="M52 67q0 38 20 59t57 21t57.5 -21t20.5 -59q0 -39 -20.5 -59.5t-57.5 -20.5t-57 20.5t-20 59.5z" />
    <glyph glyph-name="slash" unicode="/" horiz-adv-x="456" 
d="M322 680h107v-9l-295 -671h-108v10z" />
    <glyph glyph-name="zero" unicode="0" horiz-adv-x="610" 
d="M51 339q0 79 16 144t47.5 111t79 71t110.5 25q64 0 112 -25t79.5 -71t47.5 -111t16 -144t-16 -143.5t-47.5 -110t-79.5 -70.5t-112 -25q-63 0 -110.5 25t-79 70.5t-47.5 110t-16 143.5zM172 339q0 -52 7.5 -94.5t23.5 -73t41 -47t60 -16.5q36 0 61.5 16.5t41.5 47t23 73
t7 94.5q0 53 -7 96t-23 74t-41.5 47.5t-61.5 16.5q-35 0 -60 -16.5t-41 -47.5t-23.5 -74t-7.5 -96z" />
    <glyph glyph-name="one" unicode="1" horiz-adv-x="439" 
d="M263 680h93v-680h-127v529l-168 -101l-49 97z" />
    <glyph glyph-name="two" unicode="2" horiz-adv-x="556" 
d="M61 96l219 207q44 40 64 77t20 82q0 49 -24 80t-75 31q-54 0 -79.5 -41t-26.5 -105l-114 22q1 54 16.5 98.5t44 76t70.5 49t96 17.5q56 0 97.5 -17t69 -46.5t41 -69.5t13.5 -86q0 -65 -28 -117t-89 -111l-138 -131h270v-112h-447v96z" />
    <glyph glyph-name="three" unicode="3" horiz-adv-x="542" 
d="M250 405q47 0 70.5 24t23.5 58q0 48 -33 71.5t-82 23.5q-24 0 -48 -5t-45 -12t-37.5 -14.5t-25.5 -12.5l-29 109q13 6 34.5 13.5t47.5 14t55 11t57 4.5q115 0 174 -47.5t59 -138.5q0 -53 -26 -94t-69 -55q54 -20 85 -59t31 -110q0 -91 -64 -143.5t-190 -52.5
q-32 0 -61.5 5t-55 11.5t-45.5 14t-31 12.5l31 107q11 -6 27.5 -13t36.5 -13t43.5 -10.5t49.5 -4.5q56 0 93 28t37 78q0 88 -113 88h-135v112h135z" />
    <glyph glyph-name="four" unicode="4" horiz-adv-x="604" 
d="M470 132v-132h-127v132h-317v84l276 464h168v-450h101v-98h-101zM343 230v322l-190 -322h190z" />
    <glyph glyph-name="five" unicode="5" horiz-adv-x="536" 
d="M69 325l27 355h374v-112h-268l-10 -154h56q56 0 101 -11t76 -34.5t47.5 -59.5t16.5 -87q0 -60 -18.5 -104t-52 -72.5t-79.5 -42t-101 -13.5q-36 0 -67.5 5t-57 12.5t-45 15t-30.5 13.5l31 106q22 -12 62 -27.5t94 -15.5q27 0 51.5 7t43 21.5t29.5 37t11 54.5
q0 55 -35.5 77.5t-92.5 22.5h-157z" />
    <glyph glyph-name="six" unicode="6" horiz-adv-x="589" 
d="M333 581q-40 0 -68.5 -15t-47.5 -42.5t-28.5 -65.5t-11.5 -84q10 13 24.5 27t34 25.5t44 19t54.5 7.5q103 0 157.5 -58.5t54.5 -162.5q0 -55 -17.5 -100t-48 -76.5t-73 -48.5t-92.5 -17q-64 0 -113.5 25t-83 71t-51 111t-17.5 144q0 78 17.5 142.5t51.5 110t83.5 71
t114.5 25.5q34 0 66 -5.5t58 -14t46 -18t32 -17.5l-35 -104q-22 17 -63 33.5t-88 16.5zM312 348q-26 0 -46.5 -9.5t-36.5 -23t-27.5 -29t-18.5 -27.5q11 -69 42 -110.5t85 -41.5q24 0 44.5 9.5t35 26.5t22.5 40t8 49q0 59 -30 87.5t-78 28.5z" />
    <glyph glyph-name="seven" unicode="7" horiz-adv-x="485" 
d="M322 568h-292v112h433v-90l-233 -590h-139v12z" />
    <glyph glyph-name="eight" unicode="8" horiz-adv-x="595" 
d="M298 -10q-122 0 -185 52.5t-63 143.5q0 71 29 111.5t91 57.5q-51 14 -75.5 55t-24.5 94q0 91 58 138.5t170 47.5q111 0 169 -47.5t58 -138.5q0 -53 -25 -94t-76 -55q63 -17 92.5 -57.5t29.5 -111.5q0 -91 -63.5 -143.5t-184.5 -52.5zM297 309q-62 0 -90.5 -30t-28.5 -74
q0 -49 32.5 -80t87.5 -31q54 0 87 31t33 80q0 44 -28.5 74t-92.5 30zM298 588q-48 0 -75.5 -25t-27.5 -71q0 -18 5.5 -35.5t18 -31t32 -21.5t46.5 -8q28 0 47.5 8t31.5 21.5t17.5 31t5.5 35.5q0 46 -26.5 71t-74.5 25z" />
    <glyph glyph-name="nine" unicode="9" horiz-adv-x="589" 
d="M257 99q40 0 68 15t47 42.5t28.5 65.5t11.5 84q-10 -13 -24 -27t-33.5 -25.5t-44 -19t-54.5 -7.5q-103 0 -157.5 58.5t-54.5 162.5q0 55 17 100t47.5 76.5t73 48.5t92.5 17q64 0 113.5 -25t83.5 -71t51.5 -111t17.5 -144q0 -78 -17.5 -142.5t-52 -110t-84.5 -71
t-114 -25.5q-35 0 -66 5.5t-57.5 14t-46.5 18t-32 17.5l35 104q23 -17 63.5 -33.5t88.5 -16.5zM278 331q25 0 46 9t37 22.5t27.5 29t18.5 28.5q-11 69 -42 111t-85 42q-25 0 -45.5 -9.5t-35 -26.5t-22.5 -40t-8 -49q0 -59 30 -88t79 -29z" />
    <glyph glyph-name="colon" unicode=":" horiz-adv-x="275" 
d="M61 460q0 38 19.5 58t55.5 20t56.5 -20t20.5 -58t-20.5 -58.5t-56.5 -20.5t-55.5 20.5t-19.5 58.5zM61 65q0 38 19.5 58t55.5 20t56.5 -20t20.5 -58t-20.5 -58.5t-56.5 -20.5t-55.5 20.5t-19.5 58.5z" />
    <glyph glyph-name="semicolon" unicode=";" horiz-adv-x="275" 
d="M111 -12q-24 6 -36 25t-12 47q0 39 19 60t54 21t55 -22t20 -59q0 -26 -6.5 -58t-17 -64t-22.5 -60t-22 -47l-68 29zM60 460q0 38 19.5 58t55.5 20t56.5 -20t20.5 -58t-20.5 -58.5t-56.5 -20.5t-55.5 20.5t-19.5 58.5z" />
    <glyph glyph-name="less" unicode="&#x3c;" horiz-adv-x="508" 
d="M38 350l400 193h8v-98l-308 -143l308 -141v-99h-8l-400 189v99z" />
    <glyph glyph-name="equal" unicode="=" horiz-adv-x="542" 
d="M475 493v-101h-408v101h408zM475 213v-101h-408v101h408z" />
    <glyph glyph-name="greater" unicode="&#x3e;" horiz-adv-x="508" 
d="M470 251l-399 -189h-10v99l309 141l-309 143v98h10l399 -193v-99z" />
    <glyph glyph-name="question" unicode="?" horiz-adv-x="417" 
d="M126 219q-4 12 -7 25t-3 33q0 26 13.5 46t36.5 46l49 55q19 21 28 39t9 50q0 31 -19.5 51t-54.5 20q-38 0 -65 -20t-47 -46l-34 99q27 27 70 50t107 23q40 0 72 -13t53.5 -36t33 -55t11.5 -70q0 -50 -19 -86t-51 -71l-55 -60q-16 -17 -22 -26.5t-6 -26.5q0 -12 3 -27
h-103zM103 67q0 38 19 59t57 21q36 0 56.5 -21t20.5 -59q0 -39 -20.5 -59.5t-56.5 -20.5q-76 0 -76 80z" />
    <glyph glyph-name="at" unicode="@" horiz-adv-x="849" 
d="M620 160q0 -35 5 -48.5t25 -13.5q14 0 27.5 13t24.5 40t17.5 67.5t6.5 95.5q0 75 -20 134t-57.5 100t-92 62.5t-123.5 21.5q-66 0 -121 -23.5t-94.5 -70t-62 -115.5t-22.5 -160q0 -90 21 -159.5t60 -116t94.5 -70.5t124.5 -24q82 0 147 38l29 -79q-80 -46 -176 -46
q-91 0 -163.5 31t-122.5 89.5t-77 143.5t-27 193q0 103 28.5 187.5t80.5 144t123.5 92t157.5 32.5t157 -28.5t121.5 -80.5t78 -125.5t27.5 -163.5q0 -83 -16 -142t-44 -96.5t-66 -54.5t-83 -17q-43 0 -64.5 13t-35.5 41q-20 -29 -51.5 -41t-72.5 -12q-42 0 -76 18t-58 50
t-37.5 76.5t-13.5 97.5q0 54 13.5 99t37.5 77.5t58 50.5t76 18q39 0 67.5 -8.5t48.5 -34.5v35h120v-331zM322 254q0 -61 28 -98.5t73 -37.5q25 0 44.5 11t32.5 27v200q-12 15 -32 25.5t-45 10.5q-46 0 -73.5 -38t-27.5 -100z" />
    <glyph glyph-name="A" unicode="A" 
d="M241 680h147l222 -680h-127l-43 141h-257l-44 -141h-127zM216 236h193l-95 317z" />
    <glyph glyph-name="B" unicode="B" horiz-adv-x="618" 
d="M81 680h248q95 0 148 -43.5t53 -136.5q0 -54 -23 -91t-64 -55q63 -14 98 -55t35 -111q0 -89 -53 -138.5t-155 -49.5h-287v680zM209 111h142q50 0 71.5 22.5t21.5 62.5q0 91 -104 91h-131v-176zM209 406h100q48 0 70 21.5t22 61.5q0 42 -21 61t-67 19h-104v-163z" />
    <glyph glyph-name="C" unicode="C" horiz-adv-x="606" 
d="M46 340q0 82 22.5 147t62.5 110t95 69t119 24q72 0 129.5 -31t96.5 -78l-66 -87q-29 32 -64 54.5t-85 22.5q-84 0 -131.5 -58.5t-47.5 -172.5t47.5 -172.5t131.5 -58.5q50 0 85 22.5t64 54.5l66 -87q-39 -47 -96.5 -78t-129.5 -31q-64 0 -119 24t-95 69t-62.5 110
t-22.5 147z" />
    <glyph glyph-name="D" unicode="D" horiz-adv-x="681" 
d="M81 680h254q64 0 119 -22.5t95 -65.5t62.5 -107t22.5 -146t-22.5 -145.5t-62.5 -106.5t-95 -65t-119 -22h-254v680zM319 112q85 0 134.5 58t49.5 169q0 112 -49.5 170.5t-134.5 58.5h-110v-456h110z" />
    <glyph glyph-name="E" unicode="E" horiz-adv-x="590" 
d="M81 0v680h461v-113h-338v-162h276v-111h-276v-182h338v-112h-461z" />
    <glyph glyph-name="F" unicode="F" horiz-adv-x="558" 
d="M204 246v-246h-123v680h444v-113h-321v-208h276v-113h-276z" />
    <glyph glyph-name="G" unicode="G" horiz-adv-x="656" 
d="M526 506q-37 32 -75.5 48.5t-81.5 16.5q-89 0 -140.5 -60t-51.5 -172q0 -58 14 -101t38.5 -71.5t58.5 -43t75 -14.5q35 0 65 9t53 26v140h-152v111h272v-324q-21 -17 -49.5 -31.5t-61.5 -25.5t-68 -17.5t-68 -6.5q-64 0 -120 23.5t-98 68.5t-66 110t-24 147q0 83 24 148
t66 110t98 69t120 24q71 0 125.5 -20t99.5 -62z" />
    <glyph glyph-name="H" unicode="H" horiz-adv-x="718" 
d="M509 287h-300v-287h-128v680h128v-281h300v281h128v-680h-128v287z" />
    <glyph glyph-name="I" unicode="I" horiz-adv-x="291" 
d="M81 680h128v-680h-128v680z" />
    <glyph glyph-name="J" unicode="J" horiz-adv-x="556" 
d="M140 240q4 -71 29 -103.5t77 -32.5t79.5 33.5t27.5 108.5v434h128v-432q0 -57 -14.5 -105t-43.5 -82t-74 -53t-105 -19q-110 0 -167 64.5t-60 174.5z" />
    <glyph glyph-name="K" unicode="K" horiz-adv-x="615" 
d="M81 680h128v-288h43l198 288h130v-19l-226 -322l250 -321v-18h-146l-209 280h-40v-280h-128v680z" />
    <glyph glyph-name="L" unicode="L" horiz-adv-x="522" 
d="M81 0v680h128v-568h297v-112h-425z" />
    <glyph glyph-name="M" unicode="M" horiz-adv-x="816" 
d="M607 467l-188 -275h-22l-188 275v-467h-128v680h125l202 -298l202 298h125v-680h-128v467z" />
    <glyph glyph-name="N" unicode="N" horiz-adv-x="717" 
d="M208 465v-465h-127v680h111l315 -466v466h129v-680h-113z" />
    <glyph glyph-name="O" unicode="O" horiz-adv-x="687" 
d="M46 339q0 78 21 142.5t59.5 111t93 72t122.5 25.5t123.5 -25.5t94.5 -72t60 -111t21 -142.5q0 -77 -21 -141t-60 -110.5t-94.5 -72t-123.5 -25.5t-122.5 25.5t-93 72t-59.5 110.5t-21 141zM172 339q0 -116 47 -172t123 -56q38 0 70 14t55 42.5t35.5 71t12.5 100.5
t-12.5 101.5t-35.5 72t-55 42.5t-70 14q-76 0 -123 -56.5t-47 -173.5z" />
    <glyph glyph-name="P" unicode="P" horiz-adv-x="605" 
d="M81 680h280q42 0 81 -15t68 -45t46.5 -76.5t17.5 -109.5q0 -57 -17.5 -102t-46.5 -76.5t-68 -48t-81 -16.5h-152v-191h-128v680zM209 568v-265h125q45 0 77 35t32 96q0 66 -32 100t-77 34h-125z" />
    <glyph glyph-name="Q" unicode="Q" horiz-adv-x="687" 
d="M46 339q0 78 21 142.5t59.5 111t93 72t122.5 25.5t123.5 -25.5t94.5 -72t60 -111t21 -142.5q0 -115 -46 -200t-128 -123q14 -15 29 -31t31.5 -28.5t35 -20.5t40.5 -8q25 0 48 4.5t36 10.5l13 -104q-17 -7 -45 -13t-61 -6q-51 0 -92 23t-72.5 52.5t-54.5 57.5t-38 37
q-66 1 -120 27t-92 72.5t-58.5 110t-20.5 139.5zM169 339q0 -58 13 -100.5t36 -71t54.5 -42.5t69.5 -14t70 14t55 42.5t35.5 71t12.5 100.5t-12.5 101.5t-35.5 71.5t-55 42t-70 14t-69.5 -14t-54.5 -42t-36 -71.5t-13 -101.5z" />
    <glyph glyph-name="R" unicode="R" horiz-adv-x="615" 
d="M81 680h284q45 0 83 -16t65.5 -45t42.5 -70t15 -91q0 -41 -11.5 -75t-32.5 -60.5t-49.5 -44.5t-62.5 -26l178 -231v-21h-139l-182 247h-63v-247h-128v680zM209 568v-220h123q48 0 78 28.5t30 80.5q0 56 -30 83.5t-78 27.5h-123z" />
    <glyph glyph-name="S" unicode="S" horiz-adv-x="538" 
d="M69 165q16 -11 37 -21.5t45 -18.5t49.5 -13t49.5 -5q23 0 44 5.5t37 16.5t25.5 27.5t9.5 38.5q0 29 -17.5 50t-60.5 34l-95 29q-73 22 -109 65.5t-36 116.5q0 38 14.5 74t43.5 63.5t72.5 44.5t100.5 17q60 0 114.5 -14.5t89.5 -34.5l-36 -112q-32 20 -77 32.5t-86 12.5
q-54 0 -82 -22t-28 -57q0 -31 17.5 -48t52.5 -28l94 -29q83 -26 121 -72t38 -115q0 -45 -17.5 -84t-49.5 -67.5t-77 -44.5t-99 -16q-32 0 -63.5 5t-60 12.5t-52 17.5t-38.5 19z" />
    <glyph glyph-name="T" unicode="T" horiz-adv-x="536" 
d="M335 567v-567h-128v567h-185v113h493v-113h-180z" />
    <glyph glyph-name="U" unicode="U" horiz-adv-x="678" 
d="M202 282q0 -85 32 -129.5t104 -44.5q73 0 105.5 47t32.5 128v397h128v-406q0 -60 -15.5 -112t-48 -90.5t-83 -60.5t-119.5 -22q-68 0 -117.5 20.5t-82 57.5t-48.5 89.5t-16 117.5v406h128v-398z" />
    <glyph glyph-name="V" unicode="V" horiz-adv-x="635" 
d="M15 680h137l164 -542l168 542h138l-227 -680h-159z" />
    <glyph glyph-name="W" unicode="W" horiz-adv-x="946" 
d="M474 304l-101 -304h-137l-221 680h135l166 -536l103 311l-70 225h137l149 -516l161 516h138l-228 -680h-138z" />
    <glyph glyph-name="X" unicode="X" horiz-adv-x="629" 
d="M606 671l-203 -332l203 -329v-10h-147l-145 255l-146 -255h-145v10l202 329l-202 332v9h144l147 -256l147 256h145v-9z" />
    <glyph glyph-name="Y" unicode="Y" horiz-adv-x="596" 
d="M235 272l-224 399v9h140l148 -290l147 290h140v-9l-225 -398v-273h-126v272z" />
    <glyph glyph-name="Z" unicode="Z" horiz-adv-x="547" 
d="M337 568h-290v112h453v-90l-290 -478h290v-112h-453v90z" />
    <glyph glyph-name="bracketleft" unicode="[" horiz-adv-x="310" 
d="M71 -188v898h203v-101h-103v-696h103v-101h-203z" />
    <glyph glyph-name="backslash" unicode="\" horiz-adv-x="456" 
d="M429 10v-10h-108l-295 671v9h107z" />
    <glyph glyph-name="bracketright" unicode="]" horiz-adv-x="310" 
d="M239 710v-898h-203v101h103v696h-103v101h203z" />
    <glyph glyph-name="asciicircum" unicode="^" horiz-adv-x="506" 
d="M299 680l160 -281v-11h-115l-92 191l-92 -191h-113v11l158 281h94z" />
    <glyph glyph-name="underscore" unicode="_" horiz-adv-x="549" 
d="M487 -33v-101h-425v101h425z" />
    <glyph glyph-name="grave" unicode="`" horiz-adv-x="510" 
d="M158 741h124l69 -150h-104z" />
    <glyph glyph-name="a" unicode="a" horiz-adv-x="519" 
d="M328 0v38q-23 -20 -55.5 -34t-77.5 -14q-78 0 -118.5 42t-40.5 114q0 46 17.5 80.5t48.5 57t74 34t93 11.5q15 0 30 -1.5t29 -3.5v10q0 50 -25.5 69.5t-70.5 19.5q-34 0 -69 -8.5t-63 -21.5l-23 103q40 17 86 26.5t88 9.5q97 0 149 -52.5t52 -148.5v-331h-124zM165 160
q0 -35 20 -52t51 -17q33 0 56 11.5t36 26.5v105q-23 5 -51 5q-48 0 -80 -20t-32 -59z" />
    <glyph glyph-name="b" unicode="b" horiz-adv-x="583" 
d="M537 262q0 -65 -14.5 -115.5t-41.5 -85.5t-64.5 -53t-83.5 -18t-79.5 16.5t-56.5 43.5v-50h-125v710h125v-237q23 26 57.5 42.5t78.5 16.5q46 0 83.5 -18t64.5 -52.5t41.5 -84.5t14.5 -115zM409 260q0 75 -31.5 117.5t-87.5 42.5q-29 0 -54 -14t-39 -32v-227
q15 -17 39.5 -31t53.5 -14q56 0 87.5 42t31.5 116z" />
    <glyph glyph-name="c" unicode="c" horiz-adv-x="507" 
d="M173 262q0 -78 35.5 -119t89.5 -41q40 0 66.5 15.5t49.5 38.5l57 -96q-32 -31 -74 -52.5t-102 -21.5q-54 0 -99.5 19t-79 54.5t-52.5 86.5t-19 116q0 64 19 115.5t52.5 86.5t79 54t99.5 19q60 0 102 -21.5t74 -52.5l-57 -96q-23 23 -50 38.5t-69 15.5q-52 0 -87 -40.5
t-35 -118.5z" />
    <glyph glyph-name="d" unicode="d" horiz-adv-x="583" 
d="M511 0h-125v50q-23 -27 -56 -43.5t-77 -16.5q-47 0 -85 18t-65 53t-41.5 85.5t-14.5 115.5t14.5 115t41.5 84.5t65 52.5t85 18q42 0 76 -16t57 -41v235h125v-710zM175 260q0 -74 31.5 -116t85.5 -42q29 0 54 13.5t40 30.5v229q-14 17 -39 31t-55 14q-55 0 -86 -42.5
t-31 -117.5z" />
    <glyph glyph-name="e" unicode="e" horiz-adv-x="525" 
d="M169 221q4 -57 33.5 -92t96.5 -35q41 0 72.5 15.5t55.5 35.5l48 -95q-35 -30 -84 -47t-112 -17q-60 0 -104 20.5t-73 57t-43 87t-14 109.5q0 60 16.5 111t47 87.5t73.5 57.5t97 21q53 0 91 -16.5t62 -45t35.5 -67t11.5 -81.5q0 -55 -14 -106h-296zM361 319q3 12 3 26
q0 42 -22.5 63t-62.5 21q-48 0 -73.5 -30.5t-29.5 -79.5h185z" />
    <glyph glyph-name="f" unicode="f" horiz-adv-x="398" 
d="M34 497h80v47q0 85 36.5 130.5t120.5 45.5q33 0 63 -8t50 -19l-28 -111q-11 8 -28 16.5t-36 8.5q-26 0 -39 -13.5t-13 -44.5v-52h130v-100h-130v-397h-126v397h-80v100z" />
    <glyph glyph-name="g" unicode="g" horiz-adv-x="584" 
d="M48 280q0 58 14.5 104.5t41.5 79.5t64.5 50.5t84.5 17.5q87 0 133 -48v39h126v-487q0 -62 -17.5 -106t-48 -72.5t-72.5 -42t-90 -13.5q-72 0 -116 16t-68 29l28 111q11 -7 26 -15t33 -15.5t39 -12.5t44 -5t44 5t37 17.5t25.5 33.5t9.5 53v64q-23 -23 -57 -38t-76 -15
q-47 0 -84.5 17.5t-64.5 50.5t-41.5 79t-14.5 103zM176 280q0 -63 31 -101t87 -38q30 0 53.5 15t38.5 31v186q-14 17 -37 32t-55 15q-55 0 -86.5 -37.5t-31.5 -102.5z" />
    <glyph glyph-name="h" unicode="h" horiz-adv-x="589" 
d="M395 0v303q0 56 -21.5 83.5t-69.5 27.5q-21 0 -38 -7.5t-30.5 -20t-23 -28t-15.5 -31.5v-327h-125v710h125v-248q24 31 64.5 50.5t91.5 19.5q87 0 127 -53.5t40 -150.5v-328h-125z" />
    <glyph glyph-name="i" unicode="i" horiz-adv-x="271" 
d="M60 671q0 36 21.5 50.5t54.5 14.5q32 0 52.5 -14.5t20.5 -50.5t-20.5 -50.5t-52.5 -14.5q-33 0 -54.5 14.5t-21.5 50.5zM72 0v523h126v-523h-126z" />
    <glyph glyph-name="j" unicode="j" horiz-adv-x="271" 
d="M4 -113q31 23 49.5 54t18.5 87v495h126v-489q0 -48 -9.5 -84t-25.5 -63.5t-37.5 -48t-46.5 -35.5zM61 671q0 36 21 50.5t53 14.5q34 0 54 -14.5t20 -50.5t-20 -50.5t-54 -14.5q-32 0 -53 14.5t-21 50.5z" />
    <glyph glyph-name="k" unicode="k" horiz-adv-x="535" 
d="M498 502l-184 -225l198 -256v-21h-147l-168 227v-227h-125v710h125v-402l163 215h138v-21z" />
    <glyph glyph-name="l" unicode="l" horiz-adv-x="305" 
d="M200 710v-561q0 -29 9.5 -40t27.5 -11q14 0 26 5t22 11l5 -101q-17 -8 -42.5 -15.5t-58.5 -7.5q-57 0 -86 28t-29 97v595h126z" />
    <glyph glyph-name="m" unicode="m" horiz-adv-x="884" 
d="M691 0v307q0 57 -20.5 82t-66.5 25q-38 0 -59 -20t-33 -52v-10v-332h-125v307q0 57 -22 82t-66 25q-41 0 -66 -23t-36 -55v-336h-125v523h125v-60q24 32 62 50.5t89 18.5q104 0 142 -83q23 40 60.5 61.5t92.5 21.5q93 0 133 -51.5t40 -148.5v-332h-125z" />
    <glyph glyph-name="n" unicode="n" horiz-adv-x="589" 
d="M394 0v303q0 56 -21 83.5t-68 27.5q-21 0 -38.5 -7.5t-31 -20t-23 -28t-15.5 -31.5v-327h-125v523h125v-61q24 31 64.5 50.5t91.5 19.5q87 0 127 -53.5t40 -150.5v-328h-126z" />
    <glyph glyph-name="o" unicode="o" horiz-adv-x="568" 
d="M45 260q0 65 17 116.5t48.5 87t75 54.5t97.5 19t98.5 -19t76 -54.5t48.5 -87t17 -116.5t-17 -115.5t-48.5 -86t-76 -54t-98.5 -18.5t-97.5 18.5t-75 54t-48.5 86t-17 115.5zM169 260q0 -78 31 -118t83 -40q54 0 84.5 40t30.5 118q0 80 -30.5 120t-84.5 40q-52 0 -83 -40
t-31 -120z" />
    <glyph glyph-name="p" unicode="p" horiz-adv-x="583" 
d="M72 523h125v-51q23 27 55.5 44t77.5 17q46 0 84 -18t65.5 -53t42.5 -85.5t15 -115.5t-15 -115t-42.5 -84.5t-65.5 -52.5t-84 -18q-43 0 -76.5 16t-56.5 41v-236h-125v711zM409 263q0 74 -31.5 116t-87.5 42q-29 0 -54 -13.5t-39 -31.5v-229q14 -17 39 -30.5t54 -13.5
q56 0 87.5 42.5t31.5 117.5z" />
    <glyph glyph-name="q" unicode="q" horiz-adv-x="583" 
d="M47 260q0 65 14.5 115.5t41.5 85.5t64.5 53t83.5 18q45 0 78.5 -17t56.5 -44v52h125v-711h-125v235q-24 -25 -58 -41t-77 -16q-46 0 -83.5 17.5t-64.5 52t-41.5 85t-14.5 115.5zM175 263q0 -75 31.5 -118t86.5 -43q29 0 54 14.5t39 31.5v226q-14 18 -39 32t-54 14
q-55 0 -86.5 -41.5t-31.5 -115.5z" />
    <glyph glyph-name="r" unicode="r" horiz-adv-x="411" 
d="M72 0v523h127v-67q18 39 45 57.5t70 18.5q23 0 44 -6t35 -16l-18 -117q-15 9 -35 15t-38 6q-38 0 -63.5 -25t-39.5 -70v-319h-127z" />
    <glyph glyph-name="s" unicode="s" horiz-adv-x="454" 
d="M372 390q-29 14 -62 24t-68 10q-34 0 -49.5 -13.5t-15.5 -35.5q0 -18 14.5 -29t43.5 -21l53 -18q68 -22 95.5 -58.5t27.5 -89.5q0 -34 -14 -64.5t-39.5 -54t-61.5 -37t-81 -13.5q-54 0 -100 12.5t-72 26.5l25 111q25 -14 63.5 -29t77.5 -15q35 0 55 14t20 39
q0 24 -14.5 36.5t-44.5 22.5l-53 18q-62 20 -93 55t-31 90q0 34 12 63t35.5 51t58.5 34.5t81 12.5q22 0 45.5 -3t46 -7.5t42 -11t33.5 -12.5z" />
    <glyph glyph-name="t" unicode="t" horiz-adv-x="437" 
d="M233 172q0 -38 15.5 -54.5t44.5 -16.5q22 0 47 9.5t43 23.5l31 -101q-32 -19 -66.5 -31t-85.5 -12q-33 0 -61.5 9.5t-49 29.5t-32 51.5t-11.5 75.5v267h-78v100h86l14 133h103v-133h160v-100h-160v-251z" />
    <glyph glyph-name="u" unicode="u" horiz-adv-x="588" 
d="M194 523v-303q0 -56 21 -83.5t68 -27.5q21 0 38.5 7.5t31 20t23 28t15.5 31.5v327h125v-523h-125v61q-23 -31 -63.5 -50.5t-91.5 -19.5q-87 0 -127.5 54t-40.5 150v328h126z" />
    <glyph glyph-name="v" unicode="v" horiz-adv-x="561" 
d="M540 523l-179 -523h-161l-179 523h137l123 -405l123 405h136z" />
    <glyph glyph-name="w" unicode="w" horiz-adv-x="870" 
d="M847 523l-158 -523h-159l-94 359l-102 -359h-158l-149 523h136l97 -404l100 404h154l91 -404l106 404h136z" />
    <glyph glyph-name="x" unicode="x" horiz-adv-x="525" 
d="M496 514l-147 -254l147 -250v-10h-137l-97 192l-96 -192h-137v10l145 250l-145 254v9h135l98 -195l99 195h135v-9z" />
    <glyph glyph-name="y" unicode="y" horiz-adv-x="536" 
d="M52 -73q16 -8 35 -14t39 -6q32 0 49.5 18.5t30.5 57.5l8 29l-201 511h139l118 -383l113 382q32 0 63.5 0.5t63.5 0.5l-195 -565q-13 -37 -28.5 -66t-36.5 -49t-49 -30.5t-66 -10.5q-30 0 -57 9t-45 20z" />
    <glyph glyph-name="z" unicode="z" horiz-adv-x="462" 
d="M256 422h-207v101h365v-90l-206 -332h206v-101h-365v90z" />
    <glyph glyph-name="braceleft" unicode="{" horiz-adv-x="305" 
d="M261 -105v-90h-44q-72 0 -104.5 33.5t-32.5 91.5q0 28 6.5 55.5t15 55.5t15 56.5t6.5 57.5q0 35 -21 50t-69 15v77q48 0 69 17.5t21 53.5q0 28 -6.5 56t-15 55.5t-15 55t-6.5 55.5q0 54 32.5 87t104.5 33h44v-90h-23q-34 0 -46.5 -18t-12.5 -41q0 -21 6.5 -46t15 -52
t15 -55.5t6.5 -56.5q0 -77 -72 -93q72 -16 72 -95q0 -27 -6.5 -55t-15 -55t-15 -52t-6.5 -46q0 -24 12.5 -42t46.5 -18h23z" />
    <glyph glyph-name="bar" unicode="|" horiz-adv-x="241" 
d="M71 710h99v-898h-99v898z" />
    <glyph glyph-name="braceright" unicode="}" horiz-adv-x="305" 
d="M43 -195v90h26q32 0 45 18t13 42q0 21 -7 46t-15 52t-15 55t-7 55q0 41 17.5 64t55.5 31q-38 8 -55.5 31t-17.5 62q0 28 7 56.5t15 55.5t15 52t7 46q0 23 -13 41t-45 18h-26v90h46q70 0 103 -33t33 -87q0 -28 -6.5 -55.5t-15 -55t-15 -55.5t-6.5 -56q0 -36 21 -53.5
t69 -17.5v-77q-48 0 -69 -15t-21 -50q0 -29 6.5 -57.5t15 -56.5t15 -55.5t6.5 -55.5q0 -58 -33 -91.5t-103 -33.5h-46z" />
    <glyph glyph-name="asciitilde" unicode="~" horiz-adv-x="460" 
d="M411 309q-12 -43 -40.5 -69t-63.5 -26q-24 0 -43 11.5t-36.5 26t-34.5 26t-37 11.5t-38 -15.5t-27 -44.5l-41 63q9 36 36 63.5t65 27.5q26 0 46.5 -11.5t38 -26t34 -26t33.5 -11.5q23 0 38.5 16.5t26.5 44.5z" />
    <glyph glyph-name="uni00A0" unicode="&#xa0;" horiz-adv-x="205" 
 />
    <glyph glyph-name="exclamdown" unicode="&#xa1;" horiz-adv-x="250" 
d="M188 -156h-126l19 461h89zM201 458q0 -38 -19.5 -59.5t-56.5 -21.5t-57.5 21.5t-20.5 59.5t20.5 58.5t57.5 20.5q76 0 76 -79z" />
    <glyph glyph-name="cent" unicode="&#xa2;" horiz-adv-x="526" 
d="M393 517q23 -11 42 -24.5t36 -29.5l-57 -96q-11 11 -22.5 20t-25.5 17l-71 -302h3q40 0 66.5 15.5t49.5 38.5l57 -96q-32 -31 -74 -52.5t-102 -21.5h-13.5t-13.5 1l-29 -124l-72 21l28 121q-68 28 -109 94t-41 163q0 64 19 115.5t52.5 86.5t79 54t99.5 19h12.5t12.5 -1
l26 111l73 -21zM173 262q0 -48 13.5 -81.5t37.5 -53.5l69 294q-51 -1 -85.5 -41t-34.5 -118z" />
    <glyph glyph-name="sterling" unicode="&#xa3;" horiz-adv-x="558" 
d="M265 307q5 -39 8 -78t0 -74q9 -6 19 -16t21.5 -19t23 -15.5t22.5 -6.5q32 0 41.5 32.5t7.5 93.5h106q4 -52 -0.5 -95t-19 -74t-40 -48t-63.5 -17q-22 0 -42 9.5t-38.5 23t-34.5 28.5t-29 25q-18 -39 -43.5 -62.5t-70.5 -23.5t-69 30.5t-24 75.5t25.5 73.5t64.5 28.5
q11 0 22 -3t17 -7q0 27 -5 57t-13 62h-81v79h64q-5 25 -7.5 51.5t-2.5 55.5q0 41 11 77t33.5 62.5t57 42t81.5 15.5q28 0 55 -5.5t50.5 -14.5t42.5 -20t31 -21l-37 -111q-18 19 -48.5 37t-70.5 18q-41 0 -60.5 -31t-19.5 -79q0 -18 1.5 -37.5t3.5 -39.5h158v-79h-148z
M139 127q-14 0 -22.5 -9.5t-8.5 -25.5q0 -14 5 -23t17 -9q17 0 24.5 18.5t9.5 39.5q-11 9 -25 9z" />
    <glyph glyph-name="currency" unicode="&#xa4;" horiz-adv-x="536" 
d="M80 302q0 26 7 48.5t19 40.5l-52 53l73 72l54 -56q18 11 38.5 16.5t44.5 5.5q53 0 88 -25l57 59l73 -72l-58 -57q24 -38 24 -85q0 -24 -6 -45.5t-17 -39.5l57 -56l-73 -72l-57 57q-37 -23 -88 -23q-48 0 -83 20l-54 -54l-73 72l52 51q-12 19 -19 41.5t-7 48.5zM171 302
q0 -40 25.5 -67.5t67.5 -27.5t67.5 27.5t25.5 67.5q0 39 -25.5 67t-67.5 28t-67.5 -28t-25.5 -67z" />
    <glyph glyph-name="yen" unicode="&#xa5;" horiz-adv-x="533" 
d="M328 122v-122h-127v122h-125v78h125v55h-125v78h99l-142 338v9h130l102 -305l106 305h130v-9l-147 -338h100v-78h-126v-55h126v-78h-126z" />
    <glyph glyph-name="brokenbar" unicode="&#xa6;" horiz-adv-x="246" 
d="M73 -188v347h100v-347h-100zM173 710v-335h-100v335h100z" />
    <glyph glyph-name="section" unicode="&#xa7;" horiz-adv-x="546" 
d="M91 53q32 -14 80 -29.5t102 -15.5q45 0 69.5 14t24.5 39q0 28 -28 40t-74 23l-82 19q-69 17 -99 51t-30 92q0 39 17 73t52 58q-33 17 -50.5 43t-17.5 69q0 34 15 63.5t43.5 51t70 34t95.5 12.5q30 0 59.5 -4t56 -10t49 -13.5t38.5 -15.5l-34 -104q-16 7 -37 15
t-44.5 14.5t-48.5 10.5t-49 4q-46 0 -69 -14.5t-23 -39.5q0 -13 6.5 -21.5t17.5 -13.5t24.5 -8.5t28.5 -6.5l87 -19q77 -18 114.5 -59t37.5 -99q0 -85 -71 -131q71 -38 71 -109q0 -37 -16 -67t-46 -51t-72 -32.5t-93 -11.5q-32 0 -62.5 4.5t-57.5 11t-48.5 14.5t-34.5 16z
M246 381q-43 -7 -62.5 -31.5t-19.5 -50.5q0 -27 14.5 -42t49.5 -24l64 -16q38 4 61.5 23.5t23.5 52.5q0 32 -21.5 51t-59.5 26z" />
    <glyph glyph-name="dieresis" unicode="&#xa8;" horiz-adv-x="510" 
d="M77 669q0 34 19.5 48t49.5 14t50.5 -14t20.5 -48q0 -33 -20.5 -47.5t-50.5 -14.5t-49.5 14.5t-19.5 47.5zM294 669q0 34 20 48t51 14q29 0 48.5 -14t19.5 -48q0 -33 -19.5 -47.5t-48.5 -14.5q-31 0 -51 14.5t-20 47.5z" />
    <glyph glyph-name="copyright" unicode="&#xa9;" horiz-adv-x="792" 
d="M46 339q0 75 26.5 139.5t73.5 111.5t110.5 73.5t138.5 26.5t139.5 -26.5t111.5 -73.5t73.5 -111.5t26.5 -139.5t-26.5 -138.5t-73.5 -110.5t-111.5 -73.5t-139.5 -26.5t-138.5 26.5t-110.5 73.5t-73.5 110.5t-26.5 138.5zM118 339q0 -60 21 -111.5t57.5 -89t87.5 -58.5
t111 -21t111 21t88 58.5t58 89t21 111.5t-21 111.5t-58 89t-88 59t-111 21.5t-111 -21.5t-87.5 -59t-57.5 -89t-21 -111.5zM320 339q0 -37 24.5 -61t66.5 -24q26 0 47.5 8.5t36.5 22.5l41 -74q-26 -21 -58 -34t-78 -13q-38 0 -70.5 12.5t-56.5 36t-37.5 55.5t-13.5 71
t13.5 71t37.5 55.5t56.5 36t70.5 12.5q46 0 78 -12.5t58 -34.5l-41 -73q-15 14 -36.5 22.5t-47.5 8.5q-42 0 -66.5 -24.5t-24.5 -61.5z" />
    <glyph glyph-name="ordfeminine" unicode="&#xaa;" horiz-adv-x="424" 
d="M300 329q-41 0 -57 38q-14 -15 -35 -26.5t-50 -11.5q-46 0 -73 28.5t-27 73.5q0 60 42.5 90t114.5 30h10t10 -1v12q0 30 -12.5 41t-35.5 11t-47 -7.5t-39 -18.5l-15 76q11 5 26.5 9t33 7t34 5t28.5 2q33 0 54 -8t33.5 -23t17.5 -36.5t5 -49.5v-140q0 -14 4 -21t16 -7
q6 0 13 4t15 9l3 -70q-11 -5 -29 -10.5t-40 -5.5zM350 251v-70h-269v70h269zM180 401q19 0 32 5.5t23 12.5v72q-6 2 -14.5 3t-16.5 1q-29 0 -51 -12.5t-22 -40.5q0 -20 13 -30.5t36 -10.5z" />
    <glyph glyph-name="guillemotleft" unicode="&#xab;" horiz-adv-x="482" 
d="M41 314l138 204h9l46 -26l-88 -190l88 -190l-46 -26h-9l-138 203v25zM241 314l138 204h10l45 -26l-87 -190l88 -190l-46 -26h-10l-138 203v25z" />
    <glyph glyph-name="logicalnot" unicode="&#xac;" horiz-adv-x="539" 
d="M370 312h-310v101h409l-1 -287h-98v186z" />
    <glyph glyph-name="uni00AD" unicode="&#xad;" horiz-adv-x="467" 
d="M405 353v-101h-343v101h343z" />
    <glyph glyph-name="registered" unicode="&#xae;" horiz-adv-x="792" 
d="M46 339q0 75 26.5 139.5t73.5 111.5t110.5 73.5t138.5 26.5t139.5 -26.5t111.5 -73.5t73.5 -111.5t26.5 -139.5t-26.5 -138.5t-73.5 -110.5t-111.5 -73.5t-139.5 -26.5t-138.5 26.5t-110.5 73.5t-73.5 110.5t-26.5 138.5zM118 339q0 -60 21 -111.5t57.5 -89t87.5 -58.5
t111 -21t111 21t88 58.5t58 89t21 111.5t-21 111.5t-58 89t-88 59t-111 21.5t-111 -21.5t-87.5 -59t-57.5 -89t-21 -111.5zM253 509h160q27 0 50.5 -7t41 -21.5t27.5 -36.5t10 -51q0 -37 -21 -64t-53 -38l84 -103v-19h-101l-86 115h-16v-115h-96v340zM349 431v-79h60
q18 0 29 11t11 28q0 20 -11 30t-29 10h-60z" />
    <glyph glyph-name="macron" unicode="&#xaf;" horiz-adv-x="510" 
d="M145 614v89h219v-89h-219z" />
    <glyph glyph-name="degree" unicode="&#xb0;" horiz-adv-x="407" 
d="M44 509q0 43 12 76.5t33 57t50 35.5t63 12q70 0 114.5 -47t44.5 -134q0 -88 -44.5 -134t-114.5 -46q-34 0 -63 12t-50 34.5t-33 56t-12 77.5zM130 509q0 -49 20 -72t52 -23q34 0 54 23.5t20 71.5q0 49 -20 72t-54 23q-32 0 -52 -23t-20 -72z" />
    <glyph glyph-name="plusminus" unicode="&#xb1;" horiz-adv-x="543" 
d="M321 465h155v-101h-155v-127h-98v127h-156v101h156v187h98v-187zM476 158v-101h-409v101h409z" />
    <glyph glyph-name="uni00B2" unicode="&#xb2;" horiz-adv-x="300" 
d="M41 503l109 98q21 18 30 35.5t9 37.5q0 21 -11 35.5t-34 14.5q-26 0 -37.5 -19t-11.5 -48l-64 12q2 55 32 88t85 33q57 0 84 -31.5t27 -78.5q0 -32 -12.5 -59.5t-46.5 -56.5l-61 -52h128v-63h-226v54z" />
    <glyph glyph-name="uni00B3" unicode="&#xb3;" horiz-adv-x="290" 
d="M132 651q23 0 33 11t10 27q0 40 -49 40q-22 0 -40 -4.5t-41 -15.5l-14 61q13 6 41.5 13t60.5 7q55 0 84.5 -24.5t29.5 -69.5q0 -25 -13 -44t-36 -27q28 -8 43.5 -28.5t15.5 -55.5q0 -44 -31.5 -70.5t-92.5 -26.5q-35 0 -63 7.5t-40 12.5l18 60q11 -5 33.5 -11.5
t46.5 -6.5q26 0 41 12t15 34q0 38 -52 38h-65v61h65z" />
    <glyph glyph-name="acute" unicode="&#xb4;" horiz-adv-x="510" 
d="M263 591h-105l70 150h123z" />
    <glyph glyph-name="mu" unicode="&#xb5;" horiz-adv-x="561" 
d="M199 260q0 -77 18 -115t68 -38q35 0 57.5 20t35.5 47v349h126v-523h-126v40q-25 -26 -60.5 -38t-79.5 -12q-11 0 -20.5 1t-18.5 3v-182h-126v711h126v-263z" />
    <glyph glyph-name="paragraph" unicode="&#xb6;" horiz-adv-x="531" 
d="M204 253h-50q-54 0 -90 34.5t-36 100.5q0 65 36 100t90 35h148v-711h-98v441zM356 523h97v-711h-97v711z" />
    <glyph glyph-name="periodcentered" unicode="&#xb7;" horiz-adv-x="267" 
d="M56 296q0 38 20 59t57 21t57.5 -21t20.5 -59q0 -39 -20.5 -59.5t-57.5 -20.5t-57 20.5t-20 59.5z" />
    <glyph glyph-name="cedilla" unicode="&#xb8;" horiz-adv-x="510" 
d="M206 2h50l-15 -61q9 3 22 3q36 0 55 -18.5t19 -47.5q0 -37 -27.5 -56.5t-69.5 -19.5q-17 0 -34 2.5t-34 8.5l11 43q13 -5 26 -8t27 -3q20 0 32 7.5t12 23.5q0 29 -43 29q-13 0 -28.5 -2t-24.5 -5l-3 5z" />
    <glyph glyph-name="uni00B9" unicode="&#xb9;" horiz-adv-x="240" 
d="M139 784h50v-335h-69v254l-80 -51l-28 53z" />
    <glyph glyph-name="ordmasculine" unicode="&#xba;" horiz-adv-x="438" 
d="M60 509q0 89 45 135t114 46t114 -46t45 -135q0 -90 -45 -135t-114 -45t-114 45t-45 135zM139 509q0 -54 22.5 -79t57.5 -25t57 25t22 79t-22 79t-57 25t-57.5 -25t-22.5 -79zM354 251v-70h-269v70h269z" />
    <glyph glyph-name="guillemotright" unicode="&#xbb;" horiz-adv-x="482" 
d="M240 289l-138 -203h-9l-46 25l88 191l-88 189l46 27h9l138 -204v-25zM440 289l-136 -203h-10l-46 25l88 191l-88 189l46 27h10l136 -204v-25z" />
    <glyph glyph-name="onequarter" unicode="&#xbc;" horiz-adv-x="716" 
d="M459 680h71v-9l-313 -671h-72v10zM633 62v-62h-70v62h-155v47l132 226h93v-219h47v-54h-47zM563 116v147l-85 -147h85zM153 684h50v-335h-69v254l-80 -51l-28 53z" />
    <glyph glyph-name="onehalf" unicode="&#xbd;" horiz-adv-x="708" 
d="M459 680h71v-9l-313 -671h-72v10zM443 54l109 97q21 19 30 36.5t9 37.5t-11 35t-34 15q-26 0 -37.5 -19t-11.5 -48l-64 12q2 55 32 88t85 33q57 0 84.5 -31.5t27.5 -79.5q0 -32 -13 -59t-47 -56l-61 -52h128v-63h-226v54zM153 684h50v-335h-69v254l-80 -51l-28 53z" />
    <glyph glyph-name="threequarters" unicode="&#xbe;" horiz-adv-x="756" 
d="M502 680h71v-9l-313 -671h-72v10zM677 62v-62h-70v62h-155v47l132 226h93v-219h47v-54h-47zM607 116v147l-85 -147h85zM140 551q23 0 33 11t10 27q0 40 -49 40q-22 0 -40 -4.5t-41 -15.5l-14 61q13 6 41.5 13t60.5 7q55 0 84.5 -24.5t29.5 -69.5q0 -25 -13 -44t-36 -27
q28 -8 43.5 -28.5t15.5 -55.5q0 -44 -31.5 -70.5t-92.5 -26.5q-35 0 -63 7.5t-40 12.5l18 60q11 -5 33.5 -11.5t46.5 -6.5q26 0 41 12t15 34q0 38 -52 38h-65v61h65z" />
    <glyph glyph-name="questiondown" unicode="&#xbf;" horiz-adv-x="410" 
d="M287 305q4 -12 7 -25t3 -33q0 -26 -13.5 -46t-36.5 -46l-49 -54q-19 -21 -28.5 -39.5t-9.5 -50.5q0 -31 20 -50.5t55 -19.5q38 0 65 20t47 46l34 -100q-27 -27 -70 -50t-107 -23q-41 0 -72.5 13t-53.5 36t-33.5 55t-11.5 70q0 50 19.5 86.5t51.5 70.5l55 60
q16 17 22 26.5t6 26.5q0 12 -3 27h103zM310 458q0 -38 -19 -59.5t-57 -21.5q-37 0 -57.5 21.5t-20.5 59.5t20.5 58.5t57.5 20.5q76 0 76 -79z" />
    <glyph glyph-name="Agrave" unicode="&#xc0;" 
d="M241 680h147l222 -680h-127l-43 141h-257l-44 -141h-127zM216 236h193l-95 317zM179 898h124l69 -150h-104z" />
    <glyph glyph-name="Aacute" unicode="&#xc1;" 
d="M241 680h147l222 -680h-127l-43 141h-257l-44 -141h-127zM216 236h193l-95 317zM351 748h-105l70 150h123z" />
    <glyph glyph-name="Acircumflex" unicode="&#xc2;" 
d="M241 680h147l222 -680h-127l-43 141h-257l-44 -141h-127zM216 236h193l-95 317zM314 835l-55 -87h-94l87 150h123l87 -150h-94z" />
    <glyph glyph-name="Atilde" unicode="&#xc3;" 
d="M241 680h147l222 -680h-127l-43 141h-257l-44 -141h-127zM216 236h193l-95 317zM152 812q13 32 39 57t58 25q23 0 40 -9.5t31.5 -21t28.5 -21t30 -9.5q21 0 35.5 13t22.5 32l38 -50q-17 -37 -41 -59.5t-56 -22.5q-21 0 -38.5 9.5t-33 20.5t-29.5 20.5t-28 9.5
q-21 0 -35 -12.5t-25 -32.5z" />
    <glyph glyph-name="Adieresis" unicode="&#xc4;" 
d="M241 680h147l222 -680h-127l-43 141h-257l-44 -141h-127zM216 236h193l-95 317zM136 826q0 34 19.5 48t49.5 14t50.5 -14t20.5 -48q0 -33 -20.5 -47.5t-50.5 -14.5t-49.5 14.5t-19.5 47.5zM353 826q0 34 20 48t51 14q29 0 48.5 -14t19.5 -48q0 -33 -19.5 -47.5
t-48.5 -14.5q-31 0 -51 14.5t-20 47.5z" />
    <glyph glyph-name="Aring" unicode="&#xc5;" 
d="M216 736q0 41 28.5 69.5t69.5 28.5t69.5 -28.5t28.5 -69.5q0 -35 -22 -62l220 -674h-127l-43 141h-257l-44 -141h-127l226 673q-22 27 -22 63zM216 236h193l-95 317zM269 736q0 -19 13 -32t32 -13q18 0 31 13t13 32q0 18 -13 31t-31 13q-19 0 -32 -13t-13 -31z" />
    <glyph glyph-name="AE" unicode="&#xc6;" horiz-adv-x="909" 
d="M403 141h-210l-65 -141h-133l330 680h537v-113h-339v-166h277v-103h-277v-186h339v-112h-459v141zM403 236v333l-163 -333h163z" />
    <glyph glyph-name="Ccedilla" unicode="&#xc7;" horiz-adv-x="606" 
d="M290 -5q-53 9 -98 37t-77 72t-50 103.5t-18 132.5q0 82 22.5 147t62.5 110t95 69t119 24q72 0 129.5 -31t96.5 -78l-66 -87q-29 32 -64 54.5t-85 22.5q-84 0 -131.5 -58.5t-47.5 -172.5t47.5 -172.5t131.5 -58.5q50 0 85 22.5t64 54.5l66 -87q-39 -47 -96.5 -78
t-129.5 -31h-7l-12 -49q9 3 22 3q36 0 55 -18.5t19 -47.5q0 -37 -27.5 -56.5t-69.5 -19.5q-17 0 -34 2.5t-34 8.5l11 43q13 -5 26 -8t27 -3q20 0 32 7.5t12 23.5q0 29 -43 29q-13 0 -28.5 -2t-24.5 -5l-3 5z" />
    <glyph glyph-name="Egrave" unicode="&#xc8;" horiz-adv-x="590" 
d="M81 0v680h461v-113h-338v-162h276v-111h-276v-182h338v-112h-461zM182 898h124l69 -150h-104z" />
    <glyph glyph-name="Eacute" unicode="&#xc9;" horiz-adv-x="590" 
d="M81 0v680h461v-113h-338v-162h276v-111h-276v-182h338v-112h-461zM354 748h-105l70 150h123z" />
    <glyph glyph-name="Ecircumflex" unicode="&#xca;" horiz-adv-x="590" 
d="M81 0v680h461v-113h-338v-162h276v-111h-276v-182h338v-112h-461zM314 835l-55 -87h-94l87 150h123l87 -150h-94z" />
    <glyph glyph-name="Edieresis" unicode="&#xcb;" horiz-adv-x="590" 
d="M81 0v680h461v-113h-338v-162h276v-111h-276v-182h338v-112h-461zM136 826q0 34 19.5 48t49.5 14t50.5 -14t20.5 -48q0 -33 -20.5 -47.5t-50.5 -14.5t-49.5 14.5t-19.5 47.5zM353 826q0 34 20 48t51 14q29 0 48.5 -14t19.5 -48q0 -33 -19.5 -47.5t-48.5 -14.5
q-31 0 -51 14.5t-20 47.5z" />
    <glyph glyph-name="Igrave" unicode="&#xcc;" horiz-adv-x="291" 
d="M81 680h128v-680h-128v680zM11 898h124l69 -150h-104z" />
    <glyph glyph-name="Iacute" unicode="&#xcd;" horiz-adv-x="291" 
d="M81 680h128v-680h-128v680zM195 748h-105l70 150h123z" />
    <glyph glyph-name="Icircumflex" unicode="&#xce;" horiz-adv-x="291" 
d="M81 680h128v-680h-128v680zM146 835l-55 -87h-94l87 150h123l87 -150h-94z" />
    <glyph glyph-name="Idieresis" unicode="&#xcf;" horiz-adv-x="291" 
d="M81 680h128v-680h-128v680zM-34 826q0 34 19.5 48t49.5 14t50.5 -14t20.5 -48q0 -33 -20.5 -47.5t-50.5 -14.5t-49.5 14.5t-19.5 47.5zM183 826q0 34 20 48t51 14q29 0 48.5 -14t19.5 -48q0 -33 -19.5 -47.5t-48.5 -14.5q-31 0 -51 14.5t-20 47.5z" />
    <glyph glyph-name="Eth" unicode="&#xd0;" horiz-adv-x="686" 
d="M85 680h254q64 0 119 -22.5t95 -65.5t62.5 -107t22.5 -146t-22.5 -145.5t-62.5 -106.5t-95 -65t-119 -22h-254v307h-51v65h51v308zM323 112q85 0 135.5 58t50.5 169q0 112 -50.5 170.5t-135.5 58.5h-110v-196h110v-65h-110v-195h110z" />
    <glyph glyph-name="Ntilde" unicode="&#xd1;" horiz-adv-x="717" 
d="M208 465v-465h-127v680h111l315 -466v466h129v-680h-113zM199 812q13 32 39 57t58 25q23 0 40 -9.5t31.5 -21t28.5 -21t30 -9.5q21 0 35.5 13t22.5 32l38 -50q-17 -37 -41 -59.5t-56 -22.5q-21 0 -38.5 9.5t-33 20.5t-29.5 20.5t-28 9.5q-21 0 -35 -12.5t-25 -32.5z" />
    <glyph glyph-name="Ograve" unicode="&#xd2;" horiz-adv-x="687" 
d="M46 339q0 78 21 142.5t59.5 111t93 72t122.5 25.5t123.5 -25.5t94.5 -72t60 -111t21 -142.5q0 -77 -21 -141t-60 -110.5t-94.5 -72t-123.5 -25.5t-122.5 25.5t-93 72t-59.5 110.5t-21 141zM172 339q0 -116 47 -172t123 -56q38 0 70 14t55 42.5t35.5 71t12.5 100.5
t-12.5 101.5t-35.5 72t-55 42.5t-70 14q-76 0 -123 -56.5t-47 -173.5zM206 898h124l69 -150h-104z" />
    <glyph glyph-name="Oacute" unicode="&#xd3;" horiz-adv-x="687" 
d="M46 339q0 78 21 142.5t59.5 111t93 72t122.5 25.5t123.5 -25.5t94.5 -72t60 -111t21 -142.5q0 -77 -21 -141t-60 -110.5t-94.5 -72t-123.5 -25.5t-122.5 25.5t-93 72t-59.5 110.5t-21 141zM172 339q0 -116 47 -172t123 -56q38 0 70 14t55 42.5t35.5 71t12.5 100.5
t-12.5 101.5t-35.5 72t-55 42.5t-70 14q-76 0 -123 -56.5t-47 -173.5zM390 748h-105l70 150h123z" />
    <glyph glyph-name="Ocircumflex" unicode="&#xd4;" horiz-adv-x="687" 
d="M46 339q0 78 21 142.5t59.5 111t93 72t122.5 25.5t123.5 -25.5t94.5 -72t60 -111t21 -142.5q0 -77 -21 -141t-60 -110.5t-94.5 -72t-123.5 -25.5t-122.5 25.5t-93 72t-59.5 110.5t-21 141zM172 339q0 -116 47 -172t123 -56q38 0 70 14t55 42.5t35.5 71t12.5 100.5
t-12.5 101.5t-35.5 72t-55 42.5t-70 14q-76 0 -123 -56.5t-47 -173.5zM343 835l-55 -87h-94l87 150h123l87 -150h-94z" />
    <glyph glyph-name="Otilde" unicode="&#xd5;" horiz-adv-x="687" 
d="M46 339q0 78 21 142.5t59.5 111t93 72t122.5 25.5t123.5 -25.5t94.5 -72t60 -111t21 -142.5q0 -77 -21 -141t-60 -110.5t-94.5 -72t-123.5 -25.5t-122.5 25.5t-93 72t-59.5 110.5t-21 141zM172 339q0 -116 47 -172t123 -56q38 0 70 14t55 42.5t35.5 71t12.5 100.5
t-12.5 101.5t-35.5 72t-55 42.5t-70 14q-76 0 -123 -56.5t-47 -173.5zM181 812q13 32 39 57t58 25q23 0 40 -9.5t31.5 -21t28.5 -21t30 -9.5q21 0 35.5 13t22.5 32l38 -50q-17 -37 -41 -59.5t-56 -22.5q-21 0 -38.5 9.5t-33 20.5t-29.5 20.5t-28 9.5q-21 0 -35 -12.5
t-25 -32.5z" />
    <glyph glyph-name="Odieresis" unicode="&#xd6;" horiz-adv-x="687" 
d="M46 339q0 78 21 142.5t59.5 111t93 72t122.5 25.5t123.5 -25.5t94.5 -72t60 -111t21 -142.5q0 -77 -21 -141t-60 -110.5t-94.5 -72t-123.5 -25.5t-122.5 25.5t-93 72t-59.5 110.5t-21 141zM172 339q0 -116 47 -172t123 -56q38 0 70 14t55 42.5t35.5 71t12.5 100.5
t-12.5 101.5t-35.5 72t-55 42.5t-70 14q-76 0 -123 -56.5t-47 -173.5zM166 826q0 34 19.5 48t49.5 14t50.5 -14t20.5 -48q0 -33 -20.5 -47.5t-50.5 -14.5t-49.5 14.5t-19.5 47.5zM383 826q0 34 20 48t51 14q29 0 48.5 -14t19.5 -48q0 -33 -19.5 -47.5t-48.5 -14.5
q-31 0 -51 14.5t-20 47.5z" />
    <glyph glyph-name="multiply" unicode="&#xd7;" horiz-adv-x="471" 
d="M306 303l110 -132l-71 -72l-109 132l-110 -132l-70 72l110 132l-110 131l70 72l110 -132l109 132l71 -72z" />
    <glyph glyph-name="Oslash" unicode="&#xd8;" horiz-adv-x="686" 
d="M46 339q0 78 21 142.5t59.5 111t93 72t122.5 25.5q95 0 166 -51l28 41h89v-9l-60 -87q37 -46 56.5 -108t19.5 -137q0 -77 -21 -141t-60 -110.5t-94.5 -72t-123.5 -25.5q-45 0 -84 11.5t-71 32.5l-23 -34h-91v10l53 77q-38 47 -59 110.5t-21 141.5zM172 339q0 -89 29 -144
l238 344q-41 30 -97 30q-76 0 -123 -56.5t-47 -173.5zM515 339q0 80 -25 135l-234 -340q34 -23 86 -23q38 0 70 14t55 42.5t35.5 71t12.5 100.5z" />
    <glyph glyph-name="Ugrave" unicode="&#xd9;" horiz-adv-x="678" 
d="M202 282q0 -85 32 -129.5t104 -44.5q73 0 105.5 47t32.5 128v397h128v-406q0 -60 -15.5 -112t-48 -90.5t-83 -60.5t-119.5 -22q-68 0 -117.5 20.5t-82 57.5t-48.5 89.5t-16 117.5v406h128v-398zM204 898h124l69 -150h-104z" />
    <glyph glyph-name="Uacute" unicode="&#xda;" horiz-adv-x="678" 
d="M202 282q0 -85 32 -129.5t104 -44.5q73 0 105.5 47t32.5 128v397h128v-406q0 -60 -15.5 -112t-48 -90.5t-83 -60.5t-119.5 -22q-68 0 -117.5 20.5t-82 57.5t-48.5 89.5t-16 117.5v406h128v-398zM387 748h-105l70 150h123z" />
    <glyph glyph-name="Ucircumflex" unicode="&#xdb;" horiz-adv-x="678" 
d="M202 282q0 -85 32 -129.5t104 -44.5q73 0 105.5 47t32.5 128v397h128v-406q0 -60 -15.5 -112t-48 -90.5t-83 -60.5t-119.5 -22q-68 0 -117.5 20.5t-82 57.5t-48.5 89.5t-16 117.5v406h128v-398zM339 835l-55 -87h-94l87 150h123l87 -150h-94z" />
    <glyph glyph-name="Udieresis" unicode="&#xdc;" horiz-adv-x="678" 
d="M202 282q0 -85 32 -129.5t104 -44.5q73 0 105.5 47t32.5 128v397h128v-406q0 -60 -15.5 -112t-48 -90.5t-83 -60.5t-119.5 -22q-68 0 -117.5 20.5t-82 57.5t-48.5 89.5t-16 117.5v406h128v-398zM162 826q0 34 19.5 48t49.5 14t50.5 -14t20.5 -48q0 -33 -20.5 -47.5
t-50.5 -14.5t-49.5 14.5t-19.5 47.5zM379 826q0 34 20 48t51 14q29 0 48.5 -14t19.5 -48q0 -33 -19.5 -47.5t-48.5 -14.5q-31 0 -51 14.5t-20 47.5z" />
    <glyph glyph-name="Yacute" unicode="&#xdd;" horiz-adv-x="596" 
d="M235 272l-224 399v9h140l148 -290l147 290h140v-9l-225 -398v-273h-126v272zM346 748h-105l70 150h123z" />
    <glyph glyph-name="Thorn" unicode="&#xde;" horiz-adv-x="604" 
d="M81 680h126v-97h152q43 0 81.5 -13.5t67.5 -42t46 -73.5t17 -108q0 -57 -17 -101t-46 -73.5t-67.5 -44.5t-81.5 -15h-152v-112h-126v680zM207 472v-248h124q47 0 79.5 30.5t32.5 92.5q0 33 -9 56.5t-24 38.5t-35.5 22.5t-43.5 7.5h-124z" />
    <glyph glyph-name="germandbls" unicode="&#xdf;" horiz-adv-x="599" 
d="M308 720q51 0 89.5 -18t63.5 -46t37.5 -62.5t12.5 -68.5t-9.5 -61.5t-20.5 -48.5t-20.5 -36t-9.5 -24t16.5 -25t37 -40t37 -57.5t16.5 -76.5q0 -36 -12 -66t-34 -52.5t-53.5 -35t-70.5 -12.5q-45 0 -78 8.5t-51 17.5l14 102q13 -8 30.5 -14t37.5 -6q34 0 57 21t23 56
q0 28 -16 52t-35.5 44t-35.5 38t-16 35q0 15 10 32.5t22.5 37.5t22.5 43.5t10 49.5q0 45 -24.5 73t-62.5 28q-48 0 -73 -44.5t-25 -117.5v-446h-126v446q0 75 19.5 127t52.5 84.5t75.5 47.5t88.5 15z" />
    <glyph glyph-name="agrave" unicode="&#xe0;" horiz-adv-x="519" 
d="M328 0v38q-23 -20 -55.5 -34t-77.5 -14q-78 0 -118.5 42t-40.5 114q0 46 17.5 80.5t48.5 57t74 34t93 11.5q15 0 30 -1.5t29 -3.5v10q0 50 -25.5 69.5t-70.5 19.5q-34 0 -69 -8.5t-63 -21.5l-23 103q40 17 86 26.5t88 9.5q97 0 149 -52.5t52 -148.5v-331h-124zM165 160
q0 -35 20 -52t51 -17q33 0 56 11.5t36 26.5v105q-23 5 -51 5q-48 0 -80 -20t-32 -59zM140 741h124l69 -150h-104z" />
    <glyph glyph-name="aacute" unicode="&#xe1;" horiz-adv-x="519" 
d="M328 0v38q-23 -20 -55.5 -34t-77.5 -14q-78 0 -118.5 42t-40.5 114q0 46 17.5 80.5t48.5 57t74 34t93 11.5q15 0 30 -1.5t29 -3.5v10q0 50 -25.5 69.5t-70.5 19.5q-34 0 -69 -8.5t-63 -21.5l-23 103q40 17 86 26.5t88 9.5q97 0 149 -52.5t52 -148.5v-331h-124zM165 160
q0 -35 20 -52t51 -17q33 0 56 11.5t36 26.5v105q-23 5 -51 5q-48 0 -80 -20t-32 -59zM307 591h-105l70 150h123z" />
    <glyph glyph-name="acircumflex" unicode="&#xe2;" horiz-adv-x="519" 
d="M328 0v38q-23 -20 -55.5 -34t-77.5 -14q-78 0 -118.5 42t-40.5 114q0 46 17.5 80.5t48.5 57t74 34t93 11.5q15 0 30 -1.5t29 -3.5v10q0 50 -25.5 69.5t-70.5 19.5q-34 0 -69 -8.5t-63 -21.5l-23 103q40 17 86 26.5t88 9.5q97 0 149 -52.5t52 -148.5v-331h-124zM165 160
q0 -35 20 -52t51 -17q33 0 56 11.5t36 26.5v105q-23 5 -51 5q-48 0 -80 -20t-32 -59zM267 678l-55 -87h-94l87 150h123l87 -150h-94z" />
    <glyph glyph-name="atilde" unicode="&#xe3;" horiz-adv-x="519" 
d="M328 0v38q-23 -20 -55.5 -34t-77.5 -14q-78 0 -118.5 42t-40.5 114q0 46 17.5 80.5t48.5 57t74 34t93 11.5q15 0 30 -1.5t29 -3.5v10q0 50 -25.5 69.5t-70.5 19.5q-34 0 -69 -8.5t-63 -21.5l-23 103q40 17 86 26.5t88 9.5q97 0 149 -52.5t52 -148.5v-331h-124zM165 160
q0 -35 20 -52t51 -17q33 0 56 11.5t36 26.5v105q-23 5 -51 5q-48 0 -80 -20t-32 -59zM104 655q13 32 39 57t58 25q23 0 40 -9.5t31.5 -21t28.5 -21t30 -9.5q21 0 35.5 13t22.5 32l38 -50q-17 -37 -41 -59.5t-56 -22.5q-21 0 -38.5 9.5t-33 20.5t-29.5 20.5t-28 9.5
q-21 0 -35 -12.5t-25 -32.5z" />
    <glyph glyph-name="adieresis" unicode="&#xe4;" horiz-adv-x="519" 
d="M328 0v38q-23 -20 -55.5 -34t-77.5 -14q-78 0 -118.5 42t-40.5 114q0 46 17.5 80.5t48.5 57t74 34t93 11.5q15 0 30 -1.5t29 -3.5v10q0 50 -25.5 69.5t-70.5 19.5q-34 0 -69 -8.5t-63 -21.5l-23 103q40 17 86 26.5t88 9.5q97 0 149 -52.5t52 -148.5v-331h-124zM165 160
q0 -35 20 -52t51 -17q33 0 56 11.5t36 26.5v105q-23 5 -51 5q-48 0 -80 -20t-32 -59zM90 669q0 34 19.5 48t49.5 14t50.5 -14t20.5 -48q0 -33 -20.5 -47.5t-50.5 -14.5t-49.5 14.5t-19.5 47.5zM307 669q0 34 20 48t51 14q29 0 48.5 -14t19.5 -48q0 -33 -19.5 -47.5
t-48.5 -14.5q-31 0 -51 14.5t-20 47.5z" />
    <glyph glyph-name="aring" unicode="&#xe5;" horiz-adv-x="519" 
d="M160 670q0 41 28.5 69.5t69.5 28.5t69.5 -28.5t28.5 -69.5t-28.5 -69.5t-69.5 -28.5t-69.5 28.5t-28.5 69.5zM213 670q0 -19 13 -32t32 -13q18 0 31 13t13 32q0 18 -13 31t-31 13q-19 0 -32 -13t-13 -31zM328 0v38q-23 -20 -55.5 -34t-77.5 -14q-78 0 -118.5 42
t-40.5 114q0 46 17.5 80.5t48.5 57t74 34t93 11.5q15 0 30 -1.5t29 -3.5v10q0 50 -25.5 69.5t-70.5 19.5q-34 0 -69 -8.5t-63 -21.5l-23 103q40 17 86 26.5t88 9.5q97 0 149 -52.5t52 -148.5v-331h-124zM165 160q0 -35 20 -52t51 -17q33 0 56 11.5t36 26.5v105q-23 5 -51 5
q-48 0 -80 -20t-32 -59z" />
    <glyph glyph-name="ae" unicode="&#xe6;" horiz-adv-x="799" 
d="M444 226q1 -32 8.5 -58t22.5 -44.5t38.5 -29t57.5 -10.5q43 0 76 17t56 38l43 -81q-35 -32 -81.5 -52t-103.5 -20q-66 0 -107.5 26t-63.5 69q-14 -16 -32 -32t-41.5 -29t-51.5 -21.5t-61 -8.5q-75 0 -121.5 39.5t-46.5 120.5q0 44 18 77.5t49.5 56t73.5 33.5t90 11
q34 0 62 -5q1 58 -24 79t-73 21q-33 0 -69 -9t-63 -20l-22 103q39 16 89 25.5t96 9.5q60 0 92 -21.5t52 -57.5q20 33 57.5 58.5t99.5 25.5q52 0 88.5 -16.5t58.5 -45t32 -66t10 -79.5q0 -39 -4.5 -64.5t-9.5 -39.5h-295zM563 443q-28 0 -48.5 -10.5t-34 -28t-20 -41
t-6.5 -49.5h194q3 15 3 32q0 40 -23 68.5t-65 28.5zM165 158q0 -35 22 -51t49 -16q35 0 58 13t35 29v102q-8 2 -20 3t-25 1q-20 0 -41 -3.5t-38.5 -12.5t-28.5 -24.5t-11 -40.5z" />
    <glyph glyph-name="ccedilla" unicode="&#xe7;" horiz-adv-x="507" 
d="M244 -9q-44 8 -80.5 30.5t-63 57t-41 80.5t-14.5 103q0 64 19 115.5t52.5 86.5t79 54t99.5 19q60 0 102 -21.5t74 -52.5l-57 -96q-23 23 -50 38.5t-69 15.5q-52 0 -87 -40.5t-35 -118.5t35.5 -119t89.5 -41q40 0 66.5 15.5t49.5 38.5l57 -96q-32 -31 -74 -52.5
t-102 -21.5h-2l-11 -45q9 3 22 3q36 0 55 -18.5t19 -47.5q0 -37 -27.5 -56.5t-69.5 -19.5q-17 0 -34 2.5t-34 8.5l11 43q13 -5 26 -8t27 -3q20 0 32 7.5t12 23.5q0 29 -43 29q-13 0 -28.5 -2t-24.5 -5l-3 5z" />
    <glyph glyph-name="egrave" unicode="&#xe8;" horiz-adv-x="525" 
d="M169 221q4 -57 33.5 -92t96.5 -35q41 0 72.5 15.5t55.5 35.5l48 -95q-35 -30 -84 -47t-112 -17q-60 0 -104 20.5t-73 57t-43 87t-14 109.5q0 60 16.5 111t47 87.5t73.5 57.5t97 21q53 0 91 -16.5t62 -45t35.5 -67t11.5 -81.5q0 -55 -14 -106h-296zM361 319q3 12 3 26
q0 42 -22.5 63t-62.5 21q-48 0 -73.5 -30.5t-29.5 -79.5h185zM159 741h124l69 -150h-104z" />
    <glyph glyph-name="eacute" unicode="&#xe9;" horiz-adv-x="525" 
d="M169 221q4 -57 33.5 -92t96.5 -35q41 0 72.5 15.5t55.5 35.5l48 -95q-35 -30 -84 -47t-112 -17q-60 0 -104 20.5t-73 57t-43 87t-14 109.5q0 60 16.5 111t47 87.5t73.5 57.5t97 21q53 0 91 -16.5t62 -45t35.5 -67t11.5 -81.5q0 -55 -14 -106h-296zM361 319q3 12 3 26
q0 42 -22.5 63t-62.5 21q-48 0 -73.5 -30.5t-29.5 -79.5h185zM325 591h-105l70 150h123z" />
    <glyph glyph-name="ecircumflex" unicode="&#xea;" horiz-adv-x="525" 
d="M169 221q4 -57 33.5 -92t96.5 -35q41 0 72.5 15.5t55.5 35.5l48 -95q-35 -30 -84 -47t-112 -17q-60 0 -104 20.5t-73 57t-43 87t-14 109.5q0 60 16.5 111t47 87.5t73.5 57.5t97 21q53 0 91 -16.5t62 -45t35.5 -67t11.5 -81.5q0 -55 -14 -106h-296zM361 319q3 12 3 26
q0 42 -22.5 63t-62.5 21q-48 0 -73.5 -30.5t-29.5 -79.5h185zM284 678l-55 -87h-94l87 150h123l87 -150h-94z" />
    <glyph glyph-name="edieresis" unicode="&#xeb;" horiz-adv-x="525" 
d="M169 221q4 -57 33.5 -92t96.5 -35q41 0 72.5 15.5t55.5 35.5l48 -95q-35 -30 -84 -47t-112 -17q-60 0 -104 20.5t-73 57t-43 87t-14 109.5q0 60 16.5 111t47 87.5t73.5 57.5t97 21q53 0 91 -16.5t62 -45t35.5 -67t11.5 -81.5q0 -55 -14 -106h-296zM361 319q3 12 3 26
q0 42 -22.5 63t-62.5 21q-48 0 -73.5 -30.5t-29.5 -79.5h185zM105 669q0 34 19.5 48t49.5 14t50.5 -14t20.5 -48q0 -33 -20.5 -47.5t-50.5 -14.5t-49.5 14.5t-19.5 47.5zM322 669q0 34 20 48t51 14q29 0 48.5 -14t19.5 -48q0 -33 -19.5 -47.5t-48.5 -14.5q-31 0 -51 14.5
t-20 47.5z" />
    <glyph glyph-name="igrave" unicode="&#xec;" horiz-adv-x="271" 
d="M11 741h124l69 -150h-104zM72 0v523h126v-523h-126z" />
    <glyph glyph-name="iacute" unicode="&#xed;" horiz-adv-x="271" 
d="M179 591h-105l70 150h123zM72 0v523h126v-523h-126z" />
    <glyph glyph-name="icircumflex" unicode="&#xee;" horiz-adv-x="271" 
d="M72 0v523h126v-523h-126zM136 678l-55 -87h-94l87 150h123l87 -150h-94z" />
    <glyph glyph-name="idieresis" unicode="&#xef;" horiz-adv-x="271" 
d="M-42 669q0 34 19.5 48t49.5 14t50.5 -14t20.5 -48q0 -33 -20.5 -47.5t-50.5 -14.5t-49.5 14.5t-19.5 47.5zM175 669q0 34 20 48t51 14q29 0 48.5 -14t19.5 -48q0 -33 -19.5 -47.5t-48.5 -14.5q-31 0 -51 14.5t-20 47.5zM72 0v523h126v-523h-126z" />
    <glyph glyph-name="eth" unicode="&#xf0;" horiz-adv-x="546" 
d="M365 653q56 -50 92.5 -129.5t36.5 -182.5q0 -83 -15.5 -148.5t-46 -110.5t-75 -68.5t-102.5 -23.5q-45 0 -83 17t-65 48.5t-42.5 76.5t-15.5 100q0 48 12 89t35 70t56 45.5t76 16.5q46 0 80 -21t56 -44q-6 55 -26 99t-47 76l-44 -54l-33 30l46 56q-17 15 -34 25.5
t-34 18.5l50 81q23 -6 45 -16t43 -24l41 50l33 -29zM260 107q46 0 71.5 44t32.5 126q-8 12 -19 24.5t-23.5 23t-27.5 17t-31 6.5q-40 0 -64.5 -28.5t-24.5 -88.5q0 -55 23.5 -89.5t62.5 -34.5z" />
    <glyph glyph-name="ntilde" unicode="&#xf1;" horiz-adv-x="589" 
d="M394 0v303q0 56 -21 83.5t-68 27.5q-21 0 -38.5 -7.5t-31 -20t-23 -28t-15.5 -31.5v-327h-125v523h125v-61q24 31 64.5 50.5t91.5 19.5q87 0 127 -53.5t40 -150.5v-328h-126zM140 655q13 32 39 57t58 25q23 0 40 -9.5t31.5 -21t28.5 -21t30 -9.5q21 0 35.5 13t22.5 32
l38 -50q-17 -37 -41 -59.5t-56 -22.5q-21 0 -38.5 9.5t-33 20.5t-29.5 20.5t-28 9.5q-21 0 -35 -12.5t-25 -32.5z" />
    <glyph glyph-name="ograve" unicode="&#xf2;" horiz-adv-x="568" 
d="M45 260q0 65 17 116.5t48.5 87t75 54.5t97.5 19t98.5 -19t76 -54.5t48.5 -87t17 -116.5t-17 -115.5t-48.5 -86t-76 -54t-98.5 -18.5t-97.5 18.5t-75 54t-48.5 86t-17 115.5zM169 260q0 -78 31 -118t83 -40q54 0 84.5 40t30.5 118q0 80 -30.5 120t-84.5 40q-52 0 -83 -40
t-31 -120zM148 741h124l69 -150h-104z" />
    <glyph glyph-name="oacute" unicode="&#xf3;" horiz-adv-x="568" 
d="M45 260q0 65 17 116.5t48.5 87t75 54.5t97.5 19t98.5 -19t76 -54.5t48.5 -87t17 -116.5t-17 -115.5t-48.5 -86t-76 -54t-98.5 -18.5t-97.5 18.5t-75 54t-48.5 86t-17 115.5zM169 260q0 -78 31 -118t83 -40q54 0 84.5 40t30.5 118q0 80 -30.5 120t-84.5 40q-52 0 -83 -40
t-31 -120zM332 591h-105l70 150h123z" />
    <glyph glyph-name="ocircumflex" unicode="&#xf4;" horiz-adv-x="568" 
d="M45 260q0 65 17 116.5t48.5 87t75 54.5t97.5 19t98.5 -19t76 -54.5t48.5 -87t17 -116.5t-17 -115.5t-48.5 -86t-76 -54t-98.5 -18.5t-97.5 18.5t-75 54t-48.5 86t-17 115.5zM169 260q0 -78 31 -118t83 -40q54 0 84.5 40t30.5 118q0 80 -30.5 120t-84.5 40q-52 0 -83 -40
t-31 -120zM284 678l-55 -87h-94l87 150h123l87 -150h-94z" />
    <glyph glyph-name="otilde" unicode="&#xf5;" horiz-adv-x="568" 
d="M45 260q0 65 17 116.5t48.5 87t75 54.5t97.5 19t98.5 -19t76 -54.5t48.5 -87t17 -116.5t-17 -115.5t-48.5 -86t-76 -54t-98.5 -18.5t-97.5 18.5t-75 54t-48.5 86t-17 115.5zM169 260q0 -78 31 -118t83 -40q54 0 84.5 40t30.5 118q0 80 -30.5 120t-84.5 40q-52 0 -83 -40
t-31 -120zM121 655q13 32 39 57t58 25q23 0 40 -9.5t31.5 -21t28.5 -21t30 -9.5q21 0 35.5 13t22.5 32l38 -50q-17 -37 -41 -59.5t-56 -22.5q-21 0 -38.5 9.5t-33 20.5t-29.5 20.5t-28 9.5q-21 0 -35 -12.5t-25 -32.5z" />
    <glyph glyph-name="odieresis" unicode="&#xf6;" horiz-adv-x="568" 
d="M45 260q0 65 17 116.5t48.5 87t75 54.5t97.5 19t98.5 -19t76 -54.5t48.5 -87t17 -116.5t-17 -115.5t-48.5 -86t-76 -54t-98.5 -18.5t-97.5 18.5t-75 54t-48.5 86t-17 115.5zM169 260q0 -78 31 -118t83 -40q54 0 84.5 40t30.5 118q0 80 -30.5 120t-84.5 40q-52 0 -83 -40
t-31 -120zM105 669q0 34 19.5 48t49.5 14t50.5 -14t20.5 -48q0 -33 -20.5 -47.5t-50.5 -14.5t-49.5 14.5t-19.5 47.5zM322 669q0 34 20 48t51 14q29 0 48.5 -14t19.5 -48q0 -33 -19.5 -47.5t-48.5 -14.5q-31 0 -51 14.5t-20 47.5z" />
    <glyph glyph-name="divide" unicode="&#xf7;" horiz-adv-x="504" 
d="M456 353v-101h-408v101h408zM183 493q0 35 17.5 53.5t50.5 18.5q32 0 50 -18.5t18 -53.5t-18 -53.5t-50 -18.5q-68 0 -68 72zM183 111q0 35 17.5 53.5t50.5 18.5q32 0 50 -18.5t18 -53.5t-18 -53.5t-50 -18.5q-68 0 -68 72z" />
    <glyph glyph-name="oslash" unicode="&#xf8;" horiz-adv-x="568" 
d="M45 260q0 65 17 116.5t48.5 87t75 54.5t97.5 19q81 0 137 -41l19 27h63v-10l-39 -56q29 -35 44.5 -84.5t15.5 -112.5q0 -65 -17 -115.5t-48.5 -86t-76 -54t-98.5 -18.5q-73 0 -127 34l-14 -20h-63v10l33 47q-32 35 -49.5 86t-17.5 117zM169 260q0 -59 18 -96l163 233
q-28 23 -67 23q-52 0 -83 -40t-31 -120zM398 260q0 49 -13 86l-160 -228q23 -16 58 -16q54 0 84.5 40t30.5 118z" />
    <glyph glyph-name="ugrave" unicode="&#xf9;" horiz-adv-x="588" 
d="M194 523v-303q0 -56 21 -83.5t68 -27.5q21 0 38.5 7.5t31 20t23 28t15.5 31.5v327h125v-523h-125v61q-23 -31 -63.5 -50.5t-91.5 -19.5q-87 0 -127.5 54t-40.5 150v328h126zM154 741h124l69 -150h-104z" />
    <glyph glyph-name="uacute" unicode="&#xfa;" horiz-adv-x="588" 
d="M194 523v-303q0 -56 21 -83.5t68 -27.5q21 0 38.5 7.5t31 20t23 28t15.5 31.5v327h125v-523h-125v61q-23 -31 -63.5 -50.5t-91.5 -19.5q-87 0 -127.5 54t-40.5 150v328h126zM346 591h-105l70 150h123z" />
    <glyph glyph-name="ucircumflex" unicode="&#xfb;" horiz-adv-x="588" 
d="M194 523v-303q0 -56 21 -83.5t68 -27.5q21 0 38.5 7.5t31 20t23 28t15.5 31.5v327h125v-523h-125v61q-23 -31 -63.5 -50.5t-91.5 -19.5q-87 0 -127.5 54t-40.5 150v328h126zM292 678l-55 -87h-94l87 150h123l87 -150h-94z" />
    <glyph glyph-name="udieresis" unicode="&#xfc;" horiz-adv-x="588" 
d="M194 523v-303q0 -56 21 -83.5t68 -27.5q21 0 38.5 7.5t31 20t23 28t15.5 31.5v327h125v-523h-125v61q-23 -31 -63.5 -50.5t-91.5 -19.5q-87 0 -127.5 54t-40.5 150v328h126zM115 669q0 34 19.5 48t49.5 14t50.5 -14t20.5 -48q0 -33 -20.5 -47.5t-50.5 -14.5t-49.5 14.5
t-19.5 47.5zM332 669q0 34 20 48t51 14q29 0 48.5 -14t19.5 -48q0 -33 -19.5 -47.5t-48.5 -14.5q-31 0 -51 14.5t-20 47.5z" />
    <glyph glyph-name="yacute" unicode="&#xfd;" horiz-adv-x="536" 
d="M52 -73q16 -8 35 -14t39 -6q32 0 49.5 18.5t30.5 57.5l8 29l-201 511h139l118 -383l113 382q32 0 63.5 0.5t63.5 0.5l-195 -565q-13 -37 -28.5 -66t-36.5 -49t-49 -30.5t-66 -10.5q-30 0 -57 9t-45 20zM315 591h-105l70 150h123z" />
    <glyph glyph-name="thorn" unicode="&#xfe;" horiz-adv-x="583" 
d="M537 261q0 -65 -15 -115t-42.5 -84.5t-65.5 -52.5t-84 -18q-43 0 -76.5 16t-56.5 41v-236h-125v898h125v-238q23 27 55.5 44t77.5 17q46 0 84 -18t65.5 -53t42.5 -85.5t15 -115.5zM409 263q0 74 -31.5 116t-87.5 42q-29 0 -54 -13.5t-39 -31.5v-229q14 -17 39 -30.5
t54 -13.5q56 0 87.5 42.5t31.5 117.5z" />
    <glyph glyph-name="ydieresis" unicode="&#xff;" horiz-adv-x="536" 
d="M52 -73q16 -8 35 -14t39 -6q32 0 49.5 18.5t30.5 57.5l8 29l-201 511h139l118 -383l113 382q32 0 63.5 0.5t63.5 0.5l-195 -565q-13 -37 -28.5 -66t-36.5 -49t-49 -30.5t-66 -10.5q-30 0 -57 9t-45 20zM91 669q0 34 19.5 48t49.5 14t50.5 -14t20.5 -48q0 -33 -20.5 -47.5
t-50.5 -14.5t-49.5 14.5t-19.5 47.5zM308 669q0 34 20 48t51 14q29 0 48.5 -14t19.5 -48q0 -33 -19.5 -47.5t-48.5 -14.5q-31 0 -51 14.5t-20 47.5z" />
    <glyph glyph-name="OE" unicode="&#x152;" horiz-adv-x="989" 
d="M481 0v34q-65 -45 -142 -45q-63 0 -117 26.5t-93 73.5t-61 110.5t-22 138.5t22 139.5t61 111.5t93 73.5t117 26.5q42 0 77 -11.5t65 -32.5v35h461v-113h-339v-166h276v-103h-276v-186h338v-112h-460zM167 338q0 -49 13 -91t37 -72.5t57 -48t73 -17.5q42 0 76.5 16.5
t57.5 45.5v336q-50 62 -135 62q-39 0 -72 -17.5t-57 -48.5t-37 -73.5t-13 -91.5z" />
    <glyph glyph-name="oe" unicode="&#x153;" horiz-adv-x="919" 
d="M557 226q0 -25 8 -49.5t23.5 -44.5t40.5 -32.5t60 -12.5q41 0 75 16.5t61 38.5l43 -89q-36 -31 -83 -49t-104 -18q-78 0 -127.5 32.5t-73.5 88.5q-26 -58 -78 -89.5t-121 -31.5q-54 0 -97.5 18.5t-74 53.5t-47.5 86t-17 116t17 116.5t47.5 87t74 54.5t97.5 19
q70 0 122.5 -33t78.5 -93q26 57 75 91.5t117 34.5q52 0 89.5 -16.5t62 -46t36 -69.5t11.5 -86q0 -24 -4 -51.5t-7 -41.5h-305zM166 260q0 -78 32.5 -118t84.5 -40q54 0 86 40t32 118q0 80 -32 120t-86 40q-52 0 -84.5 -40t-32.5 -120zM765 314q3 16 3 28q0 42 -23.5 71
t-67.5 29q-52 0 -81 -34.5t-31 -93.5h200z" />
    <glyph glyph-name="Scaron" unicode="&#x160;" horiz-adv-x="538" 
d="M69 165q16 -11 37 -21.5t45 -18.5t49.5 -13t49.5 -5q23 0 44 5.5t37 16.5t25.5 27.5t9.5 38.5q0 29 -17.5 50t-60.5 34l-95 29q-73 22 -109 65.5t-36 116.5q0 38 14.5 74t43.5 63.5t72.5 44.5t100.5 17q60 0 114.5 -14.5t89.5 -34.5l-36 -112q-32 20 -77 32.5t-86 12.5
q-54 0 -82 -22t-28 -57q0 -31 17.5 -48t52.5 -28l94 -29q83 -26 121 -72t38 -115q0 -45 -17.5 -84t-49.5 -67.5t-77 -44.5t-99 -16q-32 0 -63.5 5t-60 12.5t-52 17.5t-38.5 19zM265 812l54 86h94l-87 -150h-123l-87 150h94z" />
    <glyph glyph-name="scaron" unicode="&#x161;" horiz-adv-x="454" 
d="M372 390q-29 14 -62 24t-68 10q-34 0 -49.5 -13.5t-15.5 -35.5q0 -18 14.5 -29t43.5 -21l53 -18q68 -22 95.5 -58.5t27.5 -89.5q0 -34 -14 -64.5t-39.5 -54t-61.5 -37t-81 -13.5q-54 0 -100 12.5t-72 26.5l25 111q25 -14 63.5 -29t77.5 -15q35 0 55 14t20 39
q0 24 -14.5 36.5t-44.5 22.5l-53 18q-62 20 -93 55t-31 90q0 34 12 63t35.5 51t58.5 34.5t81 12.5q22 0 45.5 -3t46 -7.5t42 -11t33.5 -12.5zM229 655l54 86h94l-87 -150h-123l-87 150h94z" />
    <glyph glyph-name="Ydieresis" unicode="&#x178;" horiz-adv-x="596" 
d="M235 272l-224 399v9h140l148 -290l147 290h140v-9l-225 -398v-273h-126v272zM121 826q0 34 19.5 48t49.5 14t50.5 -14t20.5 -48q0 -33 -20.5 -47.5t-50.5 -14.5t-49.5 14.5t-19.5 47.5zM338 826q0 34 20 48t51 14q29 0 48.5 -14t19.5 -48q0 -33 -19.5 -47.5t-48.5 -14.5
q-31 0 -51 14.5t-20 47.5z" />
    <glyph glyph-name="Zcaron" unicode="&#x17d;" horiz-adv-x="547" 
d="M337 568h-290v112h453v-90l-290 -478h290v-112h-453v90zM277 812l54 86h94l-87 -150h-123l-87 150h94z" />
    <glyph glyph-name="zcaron" unicode="&#x17e;" horiz-adv-x="462" 
d="M256 422h-207v101h365v-90l-206 -332h206v-101h-365v90zM234 655l54 86h94l-87 -150h-123l-87 150h94z" />
    <glyph glyph-name="florin" unicode="&#x192;" horiz-adv-x="445" 
d="M286 307v-332q0 -80 -34.5 -126.5t-107.5 -46.5q-29 0 -62 11t-50 22l18 109q10 -10 26.5 -19t35.5 -9q22 0 35 13t13 42v336h-106v79h106v162q0 80 34.5 126t106.5 46q14 0 30.5 -3t32 -8t28.5 -10.5t22 -11.5l-18 -109q-10 10 -27 19t-36 9q-22 0 -34.5 -13.5
t-12.5 -39.5v-167h111v-79h-111z" />
    <glyph glyph-name="circumflex" unicode="&#x2c6;" horiz-adv-x="510" 
d="M255 678l-55 -87h-94l87 150h123l87 -150h-94z" />
    <glyph glyph-name="tilde" unicode="&#x2dc;" horiz-adv-x="510" 
d="M93 655q13 32 39 57t58 25q23 0 40 -9.5t31.5 -21t28.5 -21t30 -9.5q21 0 35.5 13t22.5 32l38 -50q-17 -37 -41 -59.5t-56 -22.5q-21 0 -38.5 9.5t-33 20.5t-29.5 20.5t-28 9.5q-21 0 -35 -12.5t-25 -32.5z" />
    <glyph glyph-name="endash" unicode="&#x2013;" horiz-adv-x="550" 
d="M488 353v-101h-426v101h426z" />
    <glyph glyph-name="emdash" unicode="&#x2014;" horiz-adv-x="762" 
d="M700 353v-101h-638v101h638z" />
    <glyph glyph-name="quoteleft" unicode="&#x2018;" horiz-adv-x="250" 
d="M151 530q25 -7 37 -27t12 -49q0 -39 -19.5 -60.5t-56.5 -21.5q-36 0 -56 22t-20 60q0 27 6.5 60t17 66t22.5 62t23 48l70 -30z" />
    <glyph glyph-name="quoteright" unicode="&#x2019;" horiz-adv-x="248" 
d="M101 531q-24 6 -36.5 25.5t-12.5 48.5q0 40 19.5 61.5t55.5 21.5t56.5 -22.5t20.5 -60.5q0 -27 -7 -60t-17.5 -65.5t-22.5 -61.5t-23 -48l-70 29z" />
    <glyph glyph-name="quotesinglbase" unicode="&#x201a;" horiz-adv-x="257" 
d="M101 -11q-24 6 -36.5 25.5t-12.5 48.5q0 40 19.5 61.5t55.5 21.5t56.5 -22.5t20.5 -60.5q0 -27 -7 -60t-17.5 -65.5t-22.5 -61.5t-23 -48l-70 29z" />
    <glyph glyph-name="quotedblleft" unicode="&#x201c;" horiz-adv-x="421" 
d="M326 541q23 -5 34 -22.5t11 -43.5q0 -35 -17 -54.5t-49 -19.5q-33 0 -50.5 20.5t-17.5 53.5q0 24 6 54.5t15.5 60.5t20.5 56.5t20 43.5l61 -25zM138 541q23 -5 33.5 -22.5t10.5 -43.5q0 -35 -17 -54.5t-49 -19.5t-50 20.5t-18 53.5q0 24 6 54.5t15.5 60.5t20.5 56.5
t21 43.5l61 -25z" />
    <glyph glyph-name="quotedblright" unicode="&#x201d;" horiz-adv-x="419" 
d="M95 548q-22 6 -33 24t-11 44q0 35 17.5 54t49.5 19t49.5 -20.5t17.5 -52.5q0 -25 -6 -55.5t-15 -60.5t-20 -56.5t-21 -43.5l-61 26zM284 548q-23 6 -34 24t-11 44q0 35 17.5 54t48.5 19q32 0 50.5 -20.5t18.5 -52.5q0 -25 -6 -55.5t-15.5 -60.5t-20.5 -56.5t-20 -43.5
l-61 26z" />
    <glyph glyph-name="quotedblbase" unicode="&#x201e;" horiz-adv-x="429" 
d="M98 -23q-22 5 -33 22.5t-11 43.5q0 35 17 55t50 20q32 0 49.5 -20.5t17.5 -54.5q0 -25 -6 -55t-15 -60t-20 -56.5t-21 -43.5l-61 25zM287 -23q-23 5 -34 22.5t-11 43.5q0 35 17 55t49 20t50 -20.5t18 -54.5q0 -25 -6 -55t-15 -60t-20 -56.5t-21 -43.5l-61 25z" />
    <glyph glyph-name="dagger" unicode="&#x2020;" horiz-adv-x="514" 
d="M307 353v-541h-99v541h-180v101h180v256h99v-256h178v-101h-178z" />
    <glyph glyph-name="daggerdbl" unicode="&#x2021;" horiz-adv-x="547" 
d="M323 53v-241h-99v241h-179v101h179v199h-179v101h179v256h99v-256h179v-101h-179v-199h179v-101h-179z" />
    <glyph glyph-name="bullet" unicode="&#x2022;" horiz-adv-x="373" 
d="M79 302q0 57 28 87.5t79 30.5t79 -30.5t28 -87.5t-28 -87.5t-79 -30.5t-79 30.5t-28 87.5z" />
    <glyph glyph-name="ellipsis" unicode="&#x2026;" horiz-adv-x="697" 
d="M53 59q0 36 18.5 55.5t52.5 19.5t53 -19.5t19 -55.5t-19 -55t-53 -19t-52.5 19t-18.5 55zM278 59q0 36 18 55.5t53 19.5q33 0 52 -19.5t19 -55.5t-19 -55t-52 -19q-71 0 -71 74zM503 59q0 36 18.5 55.5t52.5 19.5q33 0 51.5 -19.5t18.5 -55.5t-18.5 -55t-51.5 -19
q-34 0 -52.5 19t-18.5 55z" />
    <glyph glyph-name="perthousand" unicode="&#x2030;" horiz-adv-x="1119" 
d="M769 168q0 88 44.5 135t114.5 47q69 0 114 -47t45 -135q0 -43 -12 -76.5t-33 -56t-50.5 -34t-63.5 -11.5q-70 0 -114.5 45.5t-44.5 132.5zM862 168q0 -43 18.5 -63.5t47.5 -20.5t47.5 20.5t18.5 63.5q0 45 -18.5 66.5t-47.5 21.5t-47.5 -21.5t-18.5 -66.5zM484 680h107
v-9l-295 -671h-108v10zM33 509q0 43 11.5 76.5t32.5 57t50 35.5t64 12q34 0 63.5 -12t50.5 -35.5t33 -57t12 -76.5q0 -87 -45 -133.5t-114 -46.5t-113.5 46t-44.5 134zM125 509q0 -44 18.5 -65t47.5 -21q30 0 48 21t18 65t-18 65t-48 21q-29 0 -47.5 -21t-18.5 -65zM429 169
q0 87 44.5 134.5t113.5 47.5t114 -47.5t45 -134.5q0 -43 -12 -76.5t-33 -56t-50.5 -34.5t-63.5 -12q-69 0 -113.5 46t-44.5 133zM521 169q0 -44 18.5 -64.5t47.5 -20.5q30 0 48 20.5t18 64.5q0 45 -18 66t-48 21q-29 0 -47.5 -21t-18.5 -66z" />
    <glyph glyph-name="guilsinglleft" unicode="&#x2039;" horiz-adv-x="281" 
d="M41 314l138 204h9l46 -26l-88 -190l88 -190l-46 -26h-9l-138 203v25z" />
    <glyph glyph-name="guilsinglright" unicode="&#x203a;" horiz-adv-x="281" 
d="M240 289l-138 -203h-9l-46 25l88 191l-88 189l46 27h9l138 -204v-25z" />
    <glyph glyph-name="Euro" unicode="&#x20ac;" horiz-adv-x="543" 
d="M215 359v-16v-19t1 -18h158l-25 -77h-123q27 -122 119 -122q35 0 59 10t48 30l46 -101q-37 -27 -79 -41.5t-90 -14.5q-91 0 -152 62t-82 177h-48v77h40q-1 9 -1 18v19v16h-39v78h45q18 125 80.5 189t158.5 64q57 0 99.5 -18t73.5 -48l-43 -101q-26 28 -55.5 39t-59.5 11
q-47 0 -79 -32.5t-45 -103.5h196l-28 -78h-175z" />
    <glyph glyph-name="trademark" unicode="&#x2122;" horiz-adv-x="720" 
d="M580 540l-76 -105h-13l-75 105v-183h-68v306h60l90 -128l90 128h59v-306h-67v183zM208 593v-236h-66v236h-78v70h222v-70h-78z" />
    </font>
</defs>
</svg>
