<?xml version="1.0" encoding="utf-8"?>
<!-- Generator: Adobe Illustrator 20.1.0, SVG Export Plug-In . SVG Version: 6.00 Build 0)  -->
<svg version="1.1" id="Layer_1" xmlns="http://www.w3.org/2000/svg" xmlns:xlink="http://www.w3.org/1999/xlink" x="0px" y="0px"
	 viewBox="0 0 711 247" style="enable-background:new 0 0 711 247;" xml:space="preserve">
<style type="text/css">
	.st0{fill:#FFFFFF;}
</style>
<g>
	<polyline class="st0" points="565.1,14.8 583.9,14.8 583.9,7.9 518.6,7.9 518.6,14.8 537.4,14.8 537.4,146.1 518.6,146.1 
		518.6,153 583.9,153 583.9,146.1 565.1,146.1 565.1,14.8 	"/>
	<path class="st0" d="M683.9,153v-6.8h-20V13.4c30.6-1.5,35.8,5,39.7,32.8h6.7l-2.4-38.2H591.8l-2.4,38.2h6.9
		c4-27.7,9.1-34.3,39.7-32.8v132.8h-20v6.8H683.9"/>
	<path class="st0" d="M506.2,14.8V7.9h-53.5l-31.4,99.2L390.9,7.9h-53.3v6.8h18.7v131.4l-20.2,0c-18.8,0.5-19.1-15.6-19-18.9
		c0.3-35.3-7.6-48.2-41.5-53.5v-0.5c20.2-2.1,46-7.9,46-32.4c0-30.2-28.2-33-51.9-33h-69.9v6.8h18.7v131.3h-18.7v6.8H265v-6.8h-18.7
		V76.9c12-0.5,25.6,2.6,31.7,7.9c5.7,4.8,8.7,19.7,8.7,37.6c0,22.2,11.4,30.6,33.4,30.6c6.3,0,62.9,0,62.9,0v-6.8h-18.3V17h0.4
		L408.3,153h7.3L459,17h0.7v129.1H441v6.8h65.1v-6.8h-18.7V14.8H506.2 M246.3,70.1V14.8h18.9c19.3,0,26.5,4.9,26.5,29.2
		c0,19.4-8,26.1-27.6,26.1H246.3z"/>
	<path class="st0" d="M84.4-0.7H62.7v17.6h-36v36.7H-0.4v53.9h27.1v36.7h36v17.5h19.1c44.6,0,83.9-36,83.9-81
		C165.8,36.1,129.1-0.7,84.4-0.7"/>
	<path class="st0" d="M218.5,196.8c0-1.2-0.6-1.8-1.8-1.8h-3.5v-6.9h8.1c3.6,0,5.2,1.5,5.2,5.2v31.5c0,8.5,5.4,13.6,13.6,13.6
		c8.2,0,13.6-5.1,13.6-13.7v-31.4c0-3.6,1.6-5.2,5.2-5.2h8.1v6.9h-3.5c-1.1,0-1.8,0.6-1.8,1.8v28.3c0,12.4-8.6,20.9-21.6,20.9
		c-13,0-21.7-8.5-21.7-20.9V196.8"/>
	<path class="st0" d="M272.5,238h3.5c1.1,0,1.8-0.6,1.8-1.8v-48.1h7.3l25.3,36c2.1,3.1,4.8,7.7,4.8,7.7h0.2c0,0-0.6-4.5-0.6-7.7
		v-30.8c0-3.6,1.5-5.2,5.2-5.2h8.1v6.9h-3.5c-1.1,0-1.8,0.6-1.8,1.8V245h-7.2l-25.4-36c-2.1-3.1-4.7-7.7-4.7-7.7h-0.2
		c0,0,0.5,4.6,0.5,7.7v30.8c0,3.6-1.5,5.2-5.2,5.2h-8.1V238"/>
	<polyline class="st0" points="336.7,238 342.3,238 342.3,195 336.7,195 336.7,188.1 355.5,188.1 355.5,195 349.9,195 349.9,238 
		355.5,238 355.5,245 336.7,245 336.7,238 	"/>
	<path class="st0" d="M364.3,196.8c-0.5-1.5-1.3-1.8-2.6-1.8h-1.1v-6.9h4.5c4,0,5.4,0.9,6.7,4.7l12.5,35c1,3.1,2.2,7.8,2.2,7.8h0.2
		c0,0,1-4.8,2.2-7.8l12.5-35c1.4-3.8,2.7-4.7,6.7-4.7h4.5v6.9h-1.1c-1.5,0-2.2,0.3-2.7,1.8L390.7,245h-8.5L364.3,196.8"/>
	<path class="st0" d="M422.3,195H417v-6.9h33.4c3.6,0,5.1,1.5,5.1,5.2v7.2h-7.3v-3.6c0-1.2-0.6-1.8-1.8-1.8h-16.2v17.8h19.9v6.9
		h-19.9v16.5c0,1.1,0.6,1.8,1.8,1.8h16.6c1.1,0,1.8-0.6,1.8-1.8v-3.6h7.4v7.2c0,3.6-1.5,5.2-5.2,5.2h-25.3c-3.6,0-5.2-1.5-5.2-5.2
		V195"/>
	<path class="st0" d="M487.7,215.4c6.1,0,9.7-3.9,9.7-10.3c0-6.4-3.6-10.1-9.6-10.1h-10.6v20.4H487.7 M469.1,195h-5.2v-6.9h24.8
		c10,0,17,6.3,17,16.7c0,9.5-6.2,14.2-10.2,15.1v0.2c0,0,1.5,0.7,2.4,2.6l6.9,13.6c0.8,1.7,2.1,1.9,4,1.9h1.1v6.9h-4
		c-4.4,0-6-0.6-7.9-4.3l-7.7-15.3c-1.5-2.7-2.5-3.1-5.6-3.1h-7.4V245h-8.1V195z"/>
	<path class="st0" d="M520.1,231.8c0,0,5.8,6.8,14.2,6.8c5.3,0,9.8-3.2,9.8-8.5c0-11.9-27.5-10.1-27.5-27.8
		c0-8.5,7.5-15.2,18.2-15.2c6,0,16.2,2.7,16.2,10.5v4.7h-7.4v-2.7c0-3-4.3-5.2-8.8-5.2c-6.1,0-10,3.4-10,7.7
		c0,11.5,27.4,8.9,27.4,27.6c0,8.7-6.8,16.2-18,16.2c-12.1,0-18.8-8.5-18.8-8.5L520.1,231.8"/>
	<polyline class="st0" points="560.7,238 566.2,238 566.2,195 560.7,195 560.7,188.1 579.4,188.1 579.4,195 573.9,195 573.9,238 
		579.4,238 579.4,245 560.7,245 560.7,238 	"/>
	<path class="st0" d="M605.1,195h-11.4c-1.1,0-1.8,0.6-1.8,1.8v3.6h-7.2V193c0-3.6,1.2-4.8,4.8-4.8h39.1c3.6,0,4.8,1.2,4.8,4.8v7.5
		h-7.2v-3.6c0-1.2-0.6-1.8-1.8-1.8h-11.4V245h-8V195"/>
	<path class="st0" d="M656.4,220.2L642,197.1c-1-1.7-1.8-2-3.5-2h-1.6v-6.9h3.7c3.9,0,5.4,0.6,7.7,4.3l8.6,14.3
		c1.9,3.1,3.5,6.4,3.5,6.4h0.2c0,0,1.5-3.2,3.5-6.4l8.5-14.3c2.2-3.8,3.9-4.3,7.6-4.3h3.7v6.9h-1.5c-1.7,0-2.5,0.3-3.5,2l-14.3,23.1
		V245h-8V220.2"/>
</g>
</svg>
