<?xml version="1.0" encoding="utf-8"?>
<!-- Generator: Adobe Illustrator 22.1.0, SVG Export Plug-In . SVG Version: 6.00 Build 0)  -->
<svg version="1.1" id="Layer_1" xmlns="http://www.w3.org/2000/svg" xmlns:xlink="http://www.w3.org/1999/xlink" x="0px" y="0px"
	 viewBox="0 0 2094.2 506.7" style="enable-background:new 0 0 2094.2 506.7;" xml:space="preserve">
<style type="text/css">
	.st0{fill:#EC2227;}
	.st1{clip-path:url(#SVGID_2_);}
</style>
<g>
	<path class="st0" d="M635.7,315.9v-95h-30.2V179h30.2v-49.8H684V179h36.9v41.8H684V303c0,11.3,6,20,16.6,20
		c7.2,0,13.9-2.6,16.6-5.3l10.2,36.2c-7.2,6.4-20,11.7-40,11.7C653.8,365.6,635.7,348.3,635.7,315.9z"/>
	<path class="st0" d="M876.9,361.1V250.3c0-25.3-13.2-33.2-33.9-33.2c-18.5,0-33.2,10.6-41.5,21.5v122.5h-47.9V109.7h47.9v93.1
		c11.7-13.9,34.3-28.3,64.1-28.3c40,0,59.2,21.9,59.2,57.3v129.3H876.9z"/>
	<path class="st0" d="M1081.6,361.1v-18.8c-12.4,14.7-33.9,23.4-57.7,23.4c-29,0-63.3-19.6-63.3-60.3c0-42.6,34.3-58.8,63.3-58.8
		c24.1,0,45.6,7.9,57.7,22.2v-24.5c0-18.5-15.8-30.5-40-30.5c-19.6,0-37.7,7.2-53.1,21.5l-18.1-32c22.2-19.6,50.9-28.6,79.5-28.6
		c41.5,0,79.5,16.6,79.5,69v117.6H1081.6z M1081.6,317.4v-22.6c-7.9-10.6-23-15.8-38.4-15.8c-18.8,0-34.3,9.8-34.3,27.5
		c0,17,15.5,26.8,34.3,26.8C1058.6,333.2,1073.7,327.9,1081.6,317.4z"/>
	<path class="st0" d="M1299.8,361.1V251c0-25.3-13.2-33.9-33.5-33.9c-18.8,0-33.5,10.6-41.5,21.5v122.5H1177V179h47.9v23.7
		c11.7-13.9,33.9-28.3,63.7-28.3c40,0,59.2,22.6,59.2,58v128.5H1299.8z"/>
	<path class="st0" d="M1518.4,361.1V250.3c0-25.3-13.2-33.2-33.9-33.2c-18.5,0-33.2,10.6-41.5,21.5v122.5h-47.9V109.7h47.9v93.1
		c11.7-13.9,34.3-28.3,64.1-28.3c40,0,59.2,21.9,59.2,57.3v129.3H1518.4z"/>
	<path class="st0" d="M1737,361.1V250.3c0-25.3-13.2-33.2-33.9-33.2c-18.5,0-33.2,10.6-41.5,21.5v122.5h-47.9V109.7h47.9v93.1
		c11.7-13.9,34.3-28.3,64.1-28.3c40,0,59.2,21.9,59.2,57.3v129.3H1737z"/>
	<path class="st0" d="M1941.7,361.1v-18.8c-12.4,14.7-33.9,23.4-57.7,23.4c-29,0-63.3-19.6-63.3-60.3c0-42.6,34.3-58.8,63.3-58.8
		c24.1,0,45.6,7.9,57.7,22.2v-24.5c0-18.5-15.8-30.5-40-30.5c-19.6,0-37.7,7.2-53.1,21.5l-18.1-32c22.2-19.6,50.9-28.6,79.5-28.6
		c41.5,0,79.5,16.6,79.5,69v117.6H1941.7z M1941.7,317.4v-22.6c-7.9-10.6-23-15.8-38.4-15.8c-18.8,0-34.3,9.8-34.3,27.5
		c0,17,15.5,26.8,34.3,26.8C1918.7,333.2,1933.8,327.9,1941.7,317.4z"/>
	<path class="st0" d="M2032.2,130.8c0-15.8,13.2-28.3,28.6-28.3c15.8,0,28.6,12.4,28.6,28.3s-12.8,28.6-28.6,28.6
		C2045.4,159.4,2032.2,146.6,2032.2,130.8z M2037.1,361.1V179h47.9v182H2037.1z"/>
</g>
<g>
	<defs>
		<circle id="SVGID_1_" cx="252.8" cy="250.6" r="250"/>
	</defs>
	<clipPath id="SVGID_2_">
		<use xlink:href="#SVGID_1_"  style="overflow:visible;"/>
	</clipPath>
	<g class="st1">
		<circle class="st0" cx="252.8" cy="30.1" r="62.5"/>
		<path class="st0" d="M861.1,325.6c34.2-60,13.4-136.3-46.6-170.6s-136.3-13.4-170.6,46.6l0,0c-10.7-1.4-21.6-1.4-32.3,0l0,0
			c-33.9-60.1-110.2-81.4-170.3-47.4c-19.8,11.2-36.2,27.6-47.4,47.4l0,0c-10.7-1.4-21.6-1.4-32.3,0l0,0
			c-33.9-60.1-110.2-81.4-170.3-47.4c-19.8,11.2-36.2,27.6-47.4,47.4l0,0c-10.7-1.4-21.6-1.4-32.3,0l0,0
			c-22.2-39.2-63.7-63.5-108.8-63.5c-45.1,0-86.7,24.3-108.9,63.5l0,0c-5.4-0.7-10.7-1-16.1-1c-5.4,0-10.8,0.3-16.2,1l0,0
			c-22.2-39.3-63.8-63.5-108.9-63.5c-69,0-125,56-125,125c0,22,5.7,43.5,16.7,62.5c-11,19-16.8,40.5-16.7,62.5
			c0,22,5.7,43.5,16.7,62.5c-11,19-16.8,40.5-16.7,62.5c0,22,5.7,43.5,16.7,62.5c-11,19-16.8,40.5-16.7,62.5
			c0,22,5.7,43.5,16.7,62.5c2.4-4.1,5-8.1,7.8-11.9c-7.9-15.7-12-33-12-50.6c0.1-62.1,50.4-112.4,112.5-112.5
			c39,0,75.2,20.2,95.7,53.5c-2.1,0.5-4.2,1.1-6.3,1.7c-19.5-30.5-53.2-48.9-89.4-48.9c-58.7,0-106.2,47.6-106.2,106.2l0,0
			c0,15.6,3.4,31,10.1,45.2c2.9-3.5,6-6.8,9.3-10c-4.5-11.2-6.9-23.1-6.9-35.2c0.1-51.8,42-93.7,93.7-93.8
			c30.9,0,59.8,15.2,77.2,40.7l0,0c-2,0.8-3.9,1.7-5.8,2.6l0,0c-16.4-23.2-43-37-71.4-37c-48.3,0-87.5,39.2-87.5,87.5
			c0,10.5,1.8,20.8,5.5,30.6c3.3-2.9,6.8-5.6,10.5-8.1c-2.3-7.3-3.5-14.9-3.5-22.5c0-41.4,33.6-75,75-75c23.8,0,46.2,11.3,60.3,30.5
			c-1.8,1.1-3.5,2.2-5.2,3.4c-13-17.4-33.4-27.7-55.1-27.6c-38,0-68.7,30.8-68.7,68.8c0,6.4,0.9,12.8,2.6,18.9
			c3.7-2.3,7.4-4.4,11.3-6.3c-1-4.1-1.4-8.4-1.5-12.6c0-31.1,25.2-56.2,56.3-56.2c17.8,0,34.5,8.4,45.1,22.6l0,0
			c-1.6,1.3-3.2,2.7-4.7,4.1l0,0c-9.4-12.9-24.4-20.5-40.4-20.5c-27.6,0-50,22.4-50,50c0,3.4,0.3,6.7,1,10c3.9-1.7,7.9-3.1,11.9-4.4
			c-0.3-1.9-0.4-3.7-0.4-5.6c0-20.7,16.8-37.5,37.5-37.5c12.7,0,24.5,6.4,31.4,17.1c-1.5,1.6-2.9,3.3-4.2,5l0,0
			c-5.5-9.8-15.9-15.9-27.2-15.9c-17.3,0-31.2,14-31.2,31.2l0,0c0,1.3,0.1,2.6,0.2,3.9c4.1-1,8.2-1.9,12.3-2.5
			c0-0.5-0.1-0.9-0.1-1.4c0-10.4,8.4-18.7,18.7-18.8c9.2,0,17,6.7,18.5,15.8l0,0c-0.8,1.3-1.6,2.7-2.4,4c4.4,0.6,8.8,1.4,13.1,2.4
			c20.5-33.2,56.7-53.5,95.7-53.5c39,0,75.2,20.2,95.7,53.5c4.3-1,8.7-1.9,13.1-2.4c-0.8-1.3-1.5-2.7-2.4-4l0,0
			c1.5-9.1,9.3-15.8,18.5-15.8c9.2,0,17,6.7,18.5,15.8l0,0c-0.8,1.3-1.6,2.7-2.4,4c4.4,0.6,8.8,1.4,13.1,2.4
			c32.6-52.9,101.8-69.3,154.7-36.8c15,9.2,27.5,21.8,36.8,36.8c4.3-1,8.7-1.9,13.1-2.4c-0.8-1.3-1.6-2.7-2.4-4l0,0
			c1.6-10.2,11.1-17.2,21.4-15.6c8.1,1.2,14.4,7.6,15.6,15.6l0,0c-0.8,1.3-1.6,2.7-2.4,4c4.4,0.6,8.8,1.4,13.1,2.4
			c32.6-52.9,101.8-69.3,154.7-36.8c15,9.2,27.5,21.8,36.8,36.8c4.3-1,8.7-1.9,13.1-2.4c-0.8-1.3-1.5-2.7-2.4-4l0,0
			c1.6-10.2,11.1-17.2,21.4-15.6c8.1,1.2,14.4,7.6,15.6,15.6l0,0c-0.8,1.3-1.6,2.7-2.4,4c4.4,0.6,8.8,1.4,13.1,2.4
			c32.6-52.9,101.8-69.3,154.7-36.8c15,9.2,27.5,21.8,36.8,36.8c4.3-1,8.7-1.9,13.1-2.4c-0.8-1.3-1.5-2.7-2.3-4l0,0
			c1.7-10.2,11.3-17.2,21.5-15.5c9.1,1.5,15.8,9.3,15.8,18.5c0,0.5,0,0.9-0.1,1.4c4.1,0.6,8.3,1.4,12.3,2.4
			c2.2-17.1-10-32.7-27.1-34.9c-12.6-1.6-24.9,4.6-31.1,15.7l0,0c-1.4-1.7-2.8-3.4-4.2-5c11.2-17.4,34.4-22.4,51.8-11.2
			c10.7,6.9,17.2,18.8,17.2,31.6c0,1.9-0.1,3.7-0.4,5.6c4,1.2,8,2.7,11.9,4.4c5.5-27.1-12-53.5-39.1-58.9
			c-19.1-3.9-38.8,3.7-50.3,19.5c-1.5-1.4-3.1-2.8-4.7-4.1c18.5-24.9,53.8-30.1,78.7-11.6c17.9,13.3,26.3,36,21.2,57.8
			c3.9,1.9,7.6,4,11.3,6.3c10.4-36.5-10.8-74.6-47.3-85c-27.4-7.8-56.8,2.1-73.9,25c-1.7-1.2-3.5-2.3-5.2-3.4l0,0
			c24.6-33.3,71.6-40.3,104.9-15.7c25.7,19,36.5,52.2,27,82.7c3.6,2.5,7.1,5.2,10.5,8.1c17-45.2-5.9-95.7-51.2-112.7
			c-37.3-14-79.4-1-102.3,31.5l0,0c-1.9-0.9-3.8-1.8-5.8-2.6c29.3-42.7,87.6-53.5,130.3-24.3c36.3,24.9,50.4,71.7,33.8,112.4
			c3.3,3.2,6.4,6.5,9.3,10c25-53.1,2.1-116.4-51-141.3c-48.3-22.7-105.9-6.1-134.6,38.8c-2.1-0.6-4.2-1.2-6.3-1.7
			c32.5-52.9,101.8-69.5,154.7-36.9c49.9,30.6,67.9,94.4,41.5,146.6c2.8,3.8,5.4,7.8,7.8,11.9c22.3-38.7,22.3-86.3,0-125
			c22.3-38.7,22.3-86.3,0-125C883.4,411.9,883.4,364.3,861.1,325.6z M752.8,375.6c-6.9,0-12.5,5.6-12.5,12.5c0,0.2,0,0.4,0,0.6
			c1.1-0.1,2.3-0.2,3.4-0.3c-2.5,0.2-5.1,0.5-7.6,0.8l0.5-0.1c-0.8-1.4-1.5-2.7-2.3-4l0,0c1.7-10.2,11.3-17.2,21.5-15.5
			c9.1,1.5,15.8,9.3,15.8,18.5c0,0.5,0,0.9-0.1,1.4c-2.1-0.3-4.1-0.6-6.2-0.8l0,0c0-0.2,0-0.4,0-0.6
			C765.3,381.2,759.7,375.6,752.8,375.6z M759.1,388.3L759.1,388.3z M756,388.1c-1,0-2.1,0-3.2,0c-1.3,0-2.6,0-3.9,0.1
			c1.3,0,2.6-0.1,3.9-0.1C753.9,388.1,754.9,388.1,756,388.1L756,388.1z M747.7,388.2l-2.7,0.1L747.7,388.2z M839.7,548.2
			c-1.6-1.5-3.2-3-4.9-4.5l0,0c17-45.2-6-95.7-51.2-112.6c-37.3-14-79.3-1-102.2,31.5l0,0c-1.9-0.9-3.8-1.8-5.8-2.6
			c29.3-42.7,87.6-53.5,130.3-24.3C842.1,460.7,856.2,507.4,839.7,548.2L839.7,548.2z M844.6,553.2l-0.3-0.3L844.6,553.2z
			 M842.2,550.7l-0.2-0.2L842.2,550.7z M752.8,500.6c-6.9,0-12.5,5.6-12.5,12.5c0,0.2,0,0.4,0,0.6c1.1-0.1,2.3-0.2,3.4-0.3
			c-2.5,0.2-5.1,0.5-7.6,0.8l0.5-0.1c-0.8-1.3-1.5-2.7-2.3-4l0,0c1.7-10.2,11.3-17.2,21.5-15.5c9.1,1.5,15.8,9.3,15.8,18.5
			c0,0.5,0,0.9-0.1,1.4c-2.1-0.3-4.1-0.6-6.2-0.8l0,0c0-0.2,0-0.4,0-0.6C765.3,506.2,759.7,500.6,752.8,500.6z M734.6,514.4
			c-0.7,0.1-1.5,0.2-2.2,0.3C733.1,514.6,733.8,514.5,734.6,514.4L734.6,514.4z M752.8,481.8c-11.3,0-21.7,6.1-27.2,15.9l0,0
			c-1.4-1.7-2.8-3.4-4.2-5c11.2-17.4,34.4-22.4,51.8-11.2c10.7,6.9,17.2,18.8,17.2,31.6c0,1.9-0.1,3.7-0.4,5.6l0,0
			c-2-0.6-4-1.2-6.1-1.7l0,0c2.2-17.1-9.9-32.7-27-34.9C755.5,481.9,754.2,481.8,752.8,481.8L752.8,481.8z M780.8,516.2L780.8,516.2
			z M730.6,515l-1.8,0.3L730.6,515z M726.8,515.8l-0.3,0.1L726.8,515.8z M752.8,463.1c-16,0-31,7.6-40.4,20.5
			c-1.5-1.4-3.1-2.8-4.7-4.1c18.5-24.9,53.8-30.1,78.7-11.6c17.9,13.3,26.3,36,21.2,57.8l0,0c-1.9-0.9-3.8-1.8-5.8-2.7
			c5.5-27.1-11.9-53.5-39-59C759.5,463.4,756.2,463,752.8,463.1L752.8,463.1z M752.8,444.3c-21.7,0-42.1,10.2-55.1,27.6
			c-1.7-1.2-3.5-2.3-5.2-3.4l0,0c24.6-33.3,71.6-40.3,104.9-15.7c25.7,19,36.5,52.2,27,82.7c-1.8-1.2-3.6-2.4-5.5-3.6
			c10.4-36.5-10.7-74.6-47.2-85C765.6,445.2,759.2,444.3,752.8,444.3z M816.2,530.3L816.2,530.3z M813.4,528.7L813.4,528.7
			L813.4,528.7z M810.6,527.2l-0.1-0.1L810.6,527.2z M723.5,516.5c-2.4,0.6-4.7,1.2-7,1.9l0.7-0.2c-31.7-49.4-97.3-63.8-146.7-32.1
			c-12.9,8.3-23.8,19.2-32.1,32.1l0.7,0.2c-2.3-0.7-4.6-1.3-7-1.9c32.6-52.9,101.8-69.3,154.7-36.8
			C701.7,489,714.3,501.6,723.5,516.5z M627.8,506.8c-21.7,0-42.1,10.2-55.1,27.6l0.4,0.3c-2-1.3-3.9-2.6-6-3.8l0.3,0.2
			c24.5-33.3,71.4-40.5,104.7-15.9c6.1,4.5,11.5,9.9,15.9,15.9l0.3-0.2c-2,1.2-4,2.5-6,3.8l0.4-0.3
			C669.9,517.1,649.5,506.8,627.8,506.8z M678.2,537.8l-1,0.8L678.2,537.8z M578.5,538.6l-1-0.8L578.5,538.6z M627.8,488.1
			c-28.4,0-55.1,13.8-71.5,37l0.2,0.1c-2.3-1.1-4.6-2.1-7-3.1l1,0.4c29.2-42.7,87.5-53.5,130.2-24.3c9.5,6.5,17.8,14.8,24.3,24.3
			l1-0.4c-2.4,1-4.7,2-7,3.1l0.2-0.1C682.9,501.8,656.2,488,627.8,488.1z M694.2,527.7c-0.3,0.2-0.7,0.3-1,0.5
			C693.5,528,693.9,527.8,694.2,527.7z M562.4,528.2c-0.3-0.2-0.7-0.3-1-0.5C561.7,527.8,562,528,562.4,528.2z M714.4,519.1
			l-1.2,0.4L714.4,519.1z M709.4,520.9l-1.4,0.5L709.4,520.9z M547.8,521.4l-1.4-0.5L547.8,521.4z M542.6,519.5l-1.2-0.4
			L542.6,519.5z M502.8,500.6c-6.9,0-12.5,5.6-12.5,12.5c0,0.2,0,0.4,0,0.6c1.1-0.1,2.3-0.2,3.4-0.3c-2.5,0.2-5.1,0.5-7.6,0.8
			l0.5-0.1c-0.8-1.3-1.5-2.7-2.4-4l0,0c1.6-10.2,11.1-17.2,21.4-15.6c8.1,1.2,14.4,7.6,15.6,15.6l0,0c-0.8,1.3-1.6,2.7-2.4,4
			l0.5,0.1c-2.5-0.3-5-0.6-7.6-0.8c1.1,0.1,2.3,0.2,3.4,0.3c0-0.2,0-0.4,0-0.6C515.2,506.2,509.7,500.6,502.8,500.6z M510.6,513.3
			l-2.7-0.1L510.6,513.3z M506.7,513.2c-1.3,0-2.6-0.1-3.9-0.1s-2.6,0-3.9,0.1c1.3,0,2.6-0.1,3.9-0.1S505.4,513.1,506.7,513.2
			L506.7,513.2z M497.7,513.2l-2.7,0.1L497.7,513.2z M377.8,544.3c-11.3,0-21.7,6.1-27.2,15.9c0.5,0.6,0.9,1.2,1.4,1.8
			c-1.9-2.5-3.9-4.9-6-7.2c0.1,0.1,0.3,0.3,0.4,0.4c11.2-17.4,34.4-22.3,51.8-11.1c4.4,2.9,8.2,6.7,11.1,11.1
			c0.1-0.1,0.3-0.3,0.4-0.4c-2.1,2.3-4.1,4.8-6,7.2c0.5-0.6,0.9-1.2,1.4-1.8C399.5,550.4,389.1,544.3,377.8,544.3z M402.8,563.1
			c-1.6,2.1-3.1,4.2-4.5,6.5C399.7,567.3,401.2,565.2,402.8,563.1z M357.3,569.6c-1.4-2.2-3-4.3-4.5-6.5
			C354.4,565.2,355.9,567.3,357.3,569.6z M377.8,525.6c-16,0-31,7.6-40.4,20.5c0.2,0.1,0.3,0.3,0.5,0.5c-1.8-1.7-3.7-3.4-5.7-5
			c0.2,0.1,0.3,0.3,0.5,0.4c18.5-24.9,53.7-30.1,78.6-11.5c4.4,3.3,8.3,7.1,11.5,11.5c0.2-0.1,0.3-0.3,0.5-0.4
			c-1.9,1.6-3.8,3.3-5.7,5c0.2-0.2,0.3-0.3,0.5-0.5C408.8,533.2,393.8,525.6,377.8,525.6z M413.7,550.4l-0.1,0.1L413.7,550.4z
			 M342,550.6l-0.1-0.1L342,550.6z M377.8,506.8c-21.7,0-42.1,10.2-55.1,27.6l0.4,0.3c-2-1.3-3.9-2.6-6-3.8l0.3,0.2
			c24.5-33.3,71.4-40.5,104.7-15.9c6.1,4.5,11.5,9.9,15.9,15.9l0.3-0.2c-2,1.2-4,2.5-6,3.8l0.4-0.3
			C419.9,517.1,399.5,506.8,377.8,506.8z M428.2,537.8l-1,0.8L428.2,537.8z M328.5,538.6l-1-0.8L328.5,538.6z M377.8,488.1
			c-28.4,0-55.1,13.8-71.5,37l0.2,0.1c-2.3-1.1-4.6-2.1-7-3.1l1,0.4c29.2-42.7,87.5-53.5,130.2-24.3c9.5,6.5,17.8,14.8,24.3,24.3
			l1-0.4c-2.4,1-4.7,2-7,3.1l0.2-0.1C432.8,501.9,406.2,488.1,377.8,488.1z M444.2,527.7c-0.3,0.2-0.6,0.3-1,0.5
			C443.5,528,443.9,527.8,444.2,527.7z M312.4,528.2c-0.3-0.2-0.6-0.3-1-0.5C311.7,527.8,312,528,312.4,528.2z M377.8,469.3
			c-36.2,0-69.9,18.4-89.4,48.9l0.7,0.2c-2.3-0.7-4.6-1.3-7-1.9c32.6-52.9,101.8-69.3,154.7-36.8c15,9.2,27.5,21.8,36.8,36.8
			c-2.4,0.6-4.7,1.2-7,1.9l0.7-0.2C447.7,487.7,414,469.3,377.8,469.3z M464.3,519.1l-1.2,0.4L464.3,519.1z M459.3,520.9l-1.4,0.5
			L459.3,520.9z M297.7,521.4l-1.4-0.5L297.7,521.4z M292.5,519.5l-1.2-0.4L292.5,519.5z M252.8,500.6c-6.9,0-12.5,5.6-12.5,12.5
			c0,0.2,0,0.4,0,0.6c1.1-0.1,2.3-0.2,3.4-0.3c-2.5,0.2-5.1,0.5-7.6,0.8l0.5-0.1c-0.8-1.3-1.6-2.7-2.4-4l0,0
			c1.6-10.2,11.1-17.2,21.4-15.6c8.1,1.2,14.4,7.6,15.6,15.6l0,0c-0.8,1.3-1.6,2.7-2.4,4l0.5,0.1c-2.5-0.3-5-0.6-7.6-0.8
			c1.1,0.1,2.3,0.2,3.4,0.3c0-0.2,0-0.4,0-0.6C265.2,506.2,259.7,500.6,252.8,500.6z M260.6,513.3l-2.7-0.1L260.6,513.3z
			 M256.7,513.2c-1.3,0-2.6-0.1-3.9-0.1s-2.6,0-3.9,0.1c1.3,0,2.6-0.1,3.9-0.1S255.4,513.1,256.7,513.2L256.7,513.2z M247.7,513.2
			l-2.7,0.1L247.7,513.2z M127.8,544.3c-11.3,0-21.7,6.1-27.2,15.9c0.5,0.6,0.9,1.2,1.4,1.8c-1.9-2.5-3.9-4.9-6-7.2
			c0.1,0.1,0.3,0.3,0.4,0.4c11.2-17.4,34.4-22.3,51.8-11.1c4.4,2.9,8.2,6.7,11.1,11.1c0.1-0.1,0.3-0.3,0.4-0.4
			c-2.1,2.3-4.1,4.8-6,7.2c0.5-0.6,0.9-1.2,1.4-1.8C149.5,550.4,139.1,544.3,127.8,544.3z M152.8,563.1c-1.6,2.1-3.1,4.2-4.5,6.5
			C149.7,567.3,151.2,565.2,152.8,563.1z M107.3,569.6c-1.4-2.2-3-4.3-4.5-6.5C104.4,565.2,105.9,567.3,107.3,569.6z M127.8,525.6
			c-16,0-31,7.6-40.4,20.5c0.2,0.1,0.3,0.3,0.5,0.5c-1.8-1.7-3.7-3.4-5.7-5c0.2,0.1,0.3,0.3,0.5,0.4c18.5-24.9,53.7-30.1,78.6-11.5
			c4.4,3.3,8.3,7.1,11.5,11.5c0.2-0.1,0.3-0.3,0.5-0.4c-1.9,1.6-3.8,3.3-5.7,5c0.2-0.2,0.3-0.3,0.5-0.5
			C158.8,533.2,143.8,525.6,127.8,525.6z M163.7,550.4l-0.1,0.1L163.7,550.4z M92,550.6l-0.1-0.1L92,550.6z M127.8,506.8
			c-21.7,0-42.1,10.2-55.1,27.6l0.4,0.3c-2-1.3-3.9-2.6-6-3.8l0.3,0.2c24.5-33.3,71.4-40.5,104.7-15.9c6.1,4.5,11.5,9.9,15.9,15.9
			l0.3-0.2c-2,1.2-4,2.5-6,3.8l0.4-0.3C169.9,517.1,149.5,506.8,127.8,506.8z M178.2,537.8l-1,0.8L178.2,537.8z M78.5,538.6l-1-0.8
			L78.5,538.6z M127.8,488.1c-28.4,0-55.1,13.8-71.4,37l0.2,0.1c-2.3-1.1-4.6-2.1-7-3.1l1,0.4c29.2-42.7,87.5-53.5,130.2-24.3
			c9.5,6.5,17.8,14.8,24.3,24.3l0.9-0.4c-2.4,1-4.7,2-7,3.1l0.2-0.1C182.8,501.9,156.2,488.1,127.8,488.1z M194.2,527.7
			c-0.3,0.2-0.6,0.3-1,0.5C193.5,528,193.9,527.8,194.2,527.7z M62.4,528.2c-0.3-0.2-0.7-0.3-1-0.5C61.7,527.8,62,528,62.4,528.2z
			 M127.8,469.3c-36.2,0-69.9,18.4-89.4,48.9l0.7,0.2c-2.3-0.7-4.6-1.3-7-1.9c32.6-52.9,101.8-69.3,154.7-36.8
			c15,9.2,27.5,21.8,36.8,36.8c-2.4,0.6-4.7,1.2-7,1.9l0.7-0.2C197.7,487.7,164,469.3,127.8,469.3z M214.3,519.1l-1.2,0.4
			L214.3,519.1z M209.3,520.9l-1.4,0.5L209.3,520.9z M47.8,521.4l-1.4-0.5L47.8,521.4z M42.6,519.5l-1.2-0.4L42.6,519.5z M2.8,500.6
			c-6.9,0-12.5,5.6-12.5,12.5c0,0.2,0,0.4,0,0.6c1.1-0.1,2.3-0.2,3.4-0.3c-2.5,0.2-5.1,0.5-7.6,0.8l0.5-0.1c-0.8-1.3-1.5-2.7-2.4-4
			l0,0c1.4-9.1,9.3-15.8,18.5-15.8c9.2,0,17,6.7,18.5,15.8l0,0c-0.8,1.3-1.6,2.7-2.4,4l0.5,0.1c-2.5-0.3-5-0.6-7.6-0.8
			c1.1,0.1,2.3,0.2,3.4,0.3c0-0.2,0-0.4,0-0.6C15.2,506.2,9.7,500.6,2.8,500.6z M10.6,513.3l-2.7-0.1L10.6,513.3z M6.7,513.2
			c-1.3,0-2.6-0.1-3.9-0.1s-2.6,0-3.9,0.1c1.3,0,2.6-0.1,3.9-0.1S5.4,513.1,6.7,513.2L6.7,513.2z M-2.3,513.2l-2.7,0.1L-2.3,513.2z
			 M-122.2,506.8c-21.7,0-42.1,10.2-55.1,27.6l0.4,0.3c-2-1.3-3.9-2.6-6-3.8l0.3,0.2c14.1-19.2,36.5-30.5,60.4-30.5
			c23.8,0,46.2,11.3,60.3,30.5l0.3-0.2c-2,1.2-4,2.5-6,3.8l0.4-0.3C-80.1,517.1-100.5,506.8-122.2,506.8z M-71.8,537.8l-1,0.8
			L-71.8,537.8z M-171.5,538.6l-1-0.8L-171.5,538.6z M-122.2,488.1c-28.4,0-55.1,13.8-71.5,37l0.2,0.1c-2.3-1.1-4.6-2.1-7-3.1
			l0.9,0.4c17.5-25.5,46.4-40.7,77.3-40.7c30.9,0,59.8,15.2,77.2,40.7l1-0.4c-2.4,1-4.7,2-7,3.1l0.2-0.1
			C-67.1,501.9-93.8,488.1-122.2,488.1z M-55.8,527.7c-0.3,0.2-0.7,0.3-1,0.5C-56.5,528-56.1,527.8-55.8,527.7z M-187.6,528.2
			c-0.3-0.2-0.6-0.3-1-0.5C-188.3,527.8-188,528-187.6,528.2z M-122.2,469.3c-36.2,0-69.9,18.4-89.4,48.9l0.7,0.2
			c-2.3-0.7-4.6-1.3-7-1.9c20.5-33.2,56.7-53.4,95.7-53.5c39,0,75.2,20.3,95.7,53.5c-2.4,0.6-4.7,1.2-7,1.9l0.7-0.2
			C-52.3,487.7-86,469.3-122.2,469.3z M-35.7,519.1l-1.2,0.4L-35.7,519.1z M-40.7,520.9l-1.4,0.5L-40.7,520.9z M-202.2,521.4
			l-1.4-0.5L-202.2,521.4z M-207.4,519.5l-1.2-0.4L-207.4,519.5z M-247.2,500.6c-6.9,0-12.5,5.6-12.5,12.5c0,0.2,0,0.4,0,0.6l0,0
			c-2.1,0.2-4.2,0.5-6.2,0.8c0-0.5-0.1-0.9-0.1-1.4c0-10.4,8.4-18.8,18.8-18.8c0,0,0,0,0,0c9.2,0,17,6.7,18.5,15.8l0,0
			c-0.8,1.3-1.6,2.7-2.4,4l0.5,0.1c-2.5-0.3-5-0.6-7.6-0.8c1.1,0.1,2.3,0.2,3.4,0.3c0-0.2,0-0.4,0-0.6
			C-234.8,506.2-240.3,500.6-247.2,500.6z M-341,513.1c0-51.8,42-93.7,93.7-93.8c30.9,0,59.8,15.2,77.2,40.7l0,0
			c-2,0.8-3.9,1.7-5.8,2.6l0,0c-16.4-23.2-43-37-71.4-37c-48.3,0-87.5,39.2-87.5,87.5c0,10.5,1.8,20.8,5.5,30.6
			c-1.7,1.5-3.3,3-4.9,4.5C-338.6,537.1-341,525.1-341,513.1L-341,513.1z M-336.4,550.6l-0.2,0.2L-336.4,550.6z M-338.7,553
			c-0.1,0.1-0.2,0.2-0.3,0.3C-338.9,553.1-338.8,553-338.7,553L-338.7,553z M-322.2,513.1c0-41.4,33.6-75,75-75
			c23.8,0,46.2,11.3,60.3,30.5c-1.8,1.1-3.5,2.2-5.2,3.4c-13-17.4-33.4-27.7-55.1-27.6c-38,0-68.7,30.8-68.7,68.7
			c0,6.4,0.9,12.8,2.6,18.9c-1.8,1.2-3.7,2.4-5.5,3.6l0,0C-321,528.3-322.2,520.7-322.2,513.1z M-303.5,513.1
			c0-31,25.2-56.2,56.2-56.2c17.8,0,34.5,8.4,45.1,22.6l0,0c-1.6,1.3-3.2,2.7-4.7,4.1l0,0c-9.4-12.9-24.4-20.5-40.4-20.5
			c-27.6,0-50,22.4-50,50c0,3.4,0.3,6.7,1,10l0,0c-2,0.8-3.9,1.7-5.8,2.7l0,0C-303,521.6-303.5,517.3-303.5,513.1z M-304.9,527.1
			l-0.1,0.1L-304.9,527.1z M-307.7,528.7l-0.1,0.1L-307.7,528.7z M-310.5,530.3L-310.5,530.3z M-284.7,513.1
			c0-20.7,16.8-37.4,37.5-37.5c12.7,0,24.5,6.4,31.4,17.1c-1.5,1.6-2.9,3.3-4.2,5l0,0c-5.5-9.8-15.9-15.9-27.2-15.9
			c-17.3,0-31.2,14-31.2,31.2c0,1.3,0.1,2.6,0.2,3.9l0,0c-2.1,0.5-4.1,1.1-6.1,1.7l0,0C-284.6,516.8-284.7,514.9-284.7,513.1
			L-284.7,513.1z M-275.1,516.2L-275.1,516.2z M-226.8,514.7c-0.7-0.1-1.4-0.2-2.2-0.3C-228.2,514.5-227.5,514.6-226.8,514.7
			L-226.8,514.7z M-220.9,515.9l-0.3-0.1L-220.9,515.9z M-223.2,515.4l-1.8-0.3L-223.2,515.4z M-247.2,375.6
			c-6.9,0-12.5,5.6-12.5,12.5c0,0.2,0,0.4,0,0.6l0,0c-2.1,0.2-4.2,0.5-6.2,0.8c0-0.5-0.1-0.9-0.1-1.4c0-10.4,8.4-18.8,18.8-18.8
			c0,0,0,0,0,0c9.2,0,17,6.7,18.5,15.8l0,0c-0.8,1.3-1.6,2.7-2.4,4l0.5,0.1c-2.5-0.3-5-0.6-7.6-0.8c1.1,0.1,2.3,0.2,3.4,0.3
			c0-0.2,0-0.4,0-0.6C-234.8,381.2-240.3,375.6-247.2,375.6z M-239.4,388.3l-2.7-0.1L-239.4,388.3z M-243.3,388.2
			c-1.3,0-2.6-0.1-3.9-0.1c-1.1,0-2.1,0-3.2,0c1,0,2.1,0,3.2,0C-245.9,388.1-244.6,388.1-243.3,388.2L-243.3,388.2z M-253.2,388.2
			L-253.2,388.2z M-334.1,423.2c-4.5-11.2-6.9-23.1-6.9-35.1c0-51.8,42-93.7,93.7-93.8c30.9,0,59.8,15.2,77.2,40.7l0,0
			c-2,0.8-3.9,1.7-5.8,2.6l0,0c-16.4-23.2-43-37-71.4-37c-48.3,0-87.5,39.2-87.5,87.5c0,10.5,1.8,20.8,5.5,30.6
			C-330.9,420.2-332.5,421.7-334.1,423.2L-334.1,423.2z M-336.4,425.6l-0.2,0.2L-336.4,425.6z M-338.7,428c-0.1,0.1-0.2,0.2-0.3,0.3
			C-338.9,428.1-338.8,428-338.7,428L-338.7,428z M-322.2,388.1c0-41.4,33.6-75,75-75c23.8,0,46.2,11.3,60.3,30.5
			c-1.8,1.1-3.5,2.2-5.2,3.4c-13-17.4-33.4-27.7-55.1-27.6c-38,0-68.7,30.8-68.7,68.8c0,6.4,0.9,12.8,2.6,18.9
			c-1.8,1.1-3.7,2.3-5.5,3.6l0,0C-321,403.3-322.2,395.7-322.2,388.1z M-303.5,388.1c0-31.1,25.2-56.2,56.2-56.2
			c17.8,0,34.5,8.4,45.1,22.6l0,0c-1.6,1.3-3.2,2.7-4.7,4.1l0,0c-9.4-12.9-24.4-20.5-40.4-20.5c-27.6,0-50,22.4-50,50
			c0,3.4,0.3,6.7,1,10l0,0c-2,0.8-3.9,1.7-5.8,2.6l0,0C-303,396.6-303.5,392.3-303.5,388.1z M-304.9,402.1l-0.1,0.1L-304.9,402.1z
			 M-307.7,403.7l-0.1,0.1L-307.7,403.7z M-310.5,405.3L-310.5,405.3z M-284.7,388.1c0-20.7,16.8-37.4,37.5-37.5
			c12.7,0,24.5,6.4,31.4,17.1c-1.5,1.6-2.9,3.3-4.2,5l0,0c-5.5-9.8-15.9-15.9-27.2-15.9c-17.3,0-31.2,14-31.2,31.2l0,0
			c0,1.3,0.1,2.6,0.2,3.9l0,0c-2.1,0.5-4.1,1.1-6.1,1.7l0,0C-284.6,391.8-284.7,389.9-284.7,388.1z M-275.1,391.2L-275.1,391.2z
			 M-226.8,389.7c-0.7-0.1-1.4-0.2-2.2-0.3C-228.2,389.5-227.5,389.6-226.8,389.7z M-220.9,390.9l-0.3-0.1L-220.9,390.9z
			 M-223.2,390.4l-1.8-0.4L-223.2,390.4z M-122.2,338.1c39,0,75.2,20.3,95.7,53.5c-2.4,0.6-4.7,1.2-7,1.9l0.7-0.2
			c-19.5-30.5-53.2-48.9-89.4-48.9c-36.2,0-69.9,18.4-89.4,48.9l0.7,0.2c-2.3-0.7-4.6-1.4-7-1.9
			C-197.4,358.3-161.2,338.1-122.2,338.1L-122.2,338.1z M-122.2,238.1c-28.4,0-55.1,13.8-71.5,37l0.2,0.1c-2.3-1.1-4.6-2.1-7-3.1
			l0.9,0.4c17.5-25.5,46.4-40.7,77.2-40.7c30.9,0,59.8,15.2,77.2,40.7l1-0.4c-2.4,1-4.7,2-7,3.1l0.2-0.1
			C-67.1,251.9-93.8,238.1-122.2,238.1L-122.2,238.1z M-55.8,277.7c-0.3,0.2-0.7,0.3-1,0.5C-56.5,278-56.1,277.8-55.8,277.7
			L-55.8,277.7z M-187.6,278.2c-0.3-0.2-0.6-0.3-1-0.5C-188.3,277.8-188,278-187.6,278.2L-187.6,278.2z M-182.5,281.1
			c14.1-19.2,36.5-30.5,60.3-30.5c23.8,0,46.2,11.3,60.3,30.5l0.3-0.2c-2,1.2-4,2.5-6,3.8l0.4-0.3c-12.9-17.4-33.4-27.6-55-27.7
			c-21.7,0-42.1,10.2-55.1,27.6l0.4,0.3c-2-1.3-3.9-2.6-6-3.8L-182.5,281.1z M-71.8,287.8l-1,0.8L-71.8,287.8z M-171.5,288.6l-1-0.8
			L-171.5,288.6z M-167.3,292c10.6-14.2,27.3-22.6,45.1-22.6c17.8,0,34.5,8.4,45.1,22.6c0.2-0.1,0.3-0.3,0.5-0.4
			c-1.9,1.6-3.8,3.3-5.7,5c0.2-0.1,0.3-0.3,0.5-0.5c-9.4-12.9-24.4-20.5-40.4-20.5c-16,0-31,7.6-40.4,20.5c0.2,0.1,0.3,0.3,0.5,0.5
			c-1.8-1.7-3.7-3.4-5.7-5C-167.6,291.7-167.4,291.8-167.3,292L-167.3,292z M2.8,175.6c-28.4,0-55.1,13.8-71.4,37l0,0
			c-1.9-0.9-3.8-1.8-5.8-2.6c17.5-25.5,46.4-40.7,77.2-40.7c30.9,0,59.8,15.2,77.2,40.7l0,0c-1.9,0.8-3.9,1.7-5.8,2.6l0,0
			C57.9,189.4,31.2,175.6,2.8,175.6z M-57.5,218.6c14.1-19.2,36.5-30.5,60.3-30.5c23.8,0,46.2,11.3,60.3,30.5
			c-1.8,1.1-3.5,2.2-5.2,3.4c-13-17.4-33.4-27.7-55.1-27.6c-21.7,0-42.1,10.2-55.1,27.6C-54,220.8-55.8,219.7-57.5,218.6
			L-57.5,218.6z M2.8,206.8c17.8,0,34.5,8.4,45.1,22.6l0,0c-1.6,1.3-3.2,2.7-4.7,4.1l0,0c-9.4-12.9-24.4-20.5-40.4-20.5
			c-16,0-31,7.6-40.4,20.5c-1.5-1.4-3.1-2.8-4.7-4.1C-31.7,215.2-15,206.8,2.8,206.8z M2.8,225.6c12.7,0,24.5,6.4,31.4,17.1
			c-1.5,1.6-2.9,3.3-4.2,5l0,0c-5.5-9.8-15.9-15.9-27.2-15.9c-11.3,0-21.7,6.1-27.2,15.9l0,0c-1.4-1.7-2.8-3.4-4.2-5
			C-21.7,232-9.9,225.6,2.8,225.6z M2.8,250.6c-6.9,0-12.5,5.6-12.5,12.5l0,0c0,0.2,0,0.4,0,0.6c1.1-0.1,2.3-0.2,3.4-0.3
			c-2.5,0.2-5.1,0.5-7.6,0.8l0.5-0.1c-0.8-1.4-1.5-2.7-2.4-4l0,0c1.4-9.1,9.3-15.8,18.5-15.8c9.2,0,17,6.7,18.5,15.8l0,0
			c-0.8,1.3-1.6,2.7-2.4,4l0.5,0.1c-2.5-0.3-5-0.6-7.6-0.8c1.1,0.1,2.3,0.2,3.4,0.3c0-0.2,0-0.4,0-0.6
			C15.2,256.2,9.7,250.6,2.8,250.6z M10.6,263.3l-2.7-0.1L10.6,263.3z M6.7,263.2c-1.3,0-2.6-0.1-3.9-0.1s-2.6,0-3.9,0.1
			c1.3,0,2.6-0.1,3.9-0.1S5.4,263.1,6.7,263.2L6.7,263.2z M-2.3,263.2l-2.7,0.1L-2.3,263.2z M-15.4,264.4c-0.7,0.1-1.4,0.2-2.2,0.3
			C-16.9,264.6-16.2,264.5-15.4,264.4L-15.4,264.4z M23.2,264.7c-0.7-0.1-1.4-0.2-2.2-0.3C21.8,264.5,22.5,264.6,23.2,264.7
			L23.2,264.7z M29.1,265.8l-0.3-0.1L29.1,265.8z M26.8,265.4L25,265L26.8,265.4z M-23.3,265.8l-0.3,0.1L-23.3,265.8z M-19.4,265
			l-1.8,0.4L-19.4,265z M2.8,275.6c39,0,75.2,20.2,95.7,53.5c-2.1,0.5-4.2,1.1-6.3,1.7C72.7,300.3,39,281.8,2.8,281.8
			c-36.2,0-69.9,18.4-89.4,48.9c-2.1-0.6-4.2-1.2-6.3-1.7C-72.4,295.8-36.2,275.6,2.8,275.6z M127.8,238.1
			c-28.4,0-55.1,13.8-71.4,37l0.2,0.1c-2.3-1.1-4.6-2.1-7-3.1l1,0.4c29.2-42.7,87.5-53.5,130.2-24.3c9.5,6.5,17.8,14.8,24.3,24.3
			l0.9-0.4c-2.4,1-4.7,2-7,3.1l0.2-0.1C182.8,251.9,156.2,238.1,127.8,238.1L127.8,238.1z M194.2,277.7c-0.3,0.2-0.6,0.3-1,0.5
			C193.5,278,193.9,277.8,194.2,277.7L194.2,277.7z M62.4,278.2c-0.3-0.2-0.7-0.3-1-0.5C61.7,277.8,62,278,62.4,278.2L62.4,278.2z
			 M67.5,281.1c24.5-33.3,71.4-40.5,104.7-15.9c6.1,4.5,11.5,9.9,15.9,15.9l0.3-0.2c-2,1.2-4,2.5-6,3.8l0.4-0.3
			c-22.7-30.4-65.8-36.7-96.2-14c-5.3,4-10,8.7-14,14l0.4,0.3c-2-1.3-3.9-2.6-6-3.8L67.5,281.1z M178.2,287.8l-1,0.8L178.2,287.8z
			 M78.5,288.6l-1-0.8L78.5,288.6z M82.7,292c18.5-24.9,53.7-30.1,78.6-11.5c4.4,3.3,8.3,7.1,11.5,11.5c0.2-0.1,0.3-0.3,0.5-0.4
			c-1.9,1.6-3.8,3.3-5.7,5c0.2-0.1,0.3-0.3,0.5-0.5c-16.3-22.3-47.6-27.2-69.9-10.9c-4.2,3-7.8,6.7-10.9,10.9
			c0.2,0.1,0.3,0.3,0.5,0.5c-1.8-1.7-3.7-3.4-5.7-5C82.4,291.7,82.6,291.8,82.7,292L82.7,292z M252.8,175.6
			c-28.4,0-55.1,13.8-71.4,37l0,0c-1.9-0.9-3.8-1.8-5.8-2.6c29.2-42.7,87.5-53.5,130.2-24.3c9.5,6.5,17.8,14.8,24.3,24.3l0,0
			c-2,0.8-3.9,1.7-5.8,2.6l0,0C307.9,189.4,281.2,175.6,252.8,175.6z M192.5,218.6c24.5-33.3,71.4-40.5,104.7-15.9
			c6.1,4.5,11.5,9.9,15.9,15.9c-1.8,1.1-3.5,2.2-5.2,3.4c-22.7-30.4-65.8-36.7-96.2-14c-5.3,4-10,8.7-14,14
			C196,220.8,194.2,219.7,192.5,218.6L192.5,218.6z M252.8,206.8c17.8,0,34.5,8.4,45.1,22.6l0,0c-1.6,1.3-3.2,2.7-4.7,4.1l0,0
			c-16.3-22.3-47.6-27.2-69.9-10.9c-4.2,3-7.8,6.7-10.9,10.9c-1.5-1.4-3.1-2.8-4.7-4.1C218.3,215.2,235,206.8,252.8,206.8z
			 M252.8,225.6c12.7,0,24.5,6.4,31.5,17.1c-1.5,1.6-2.9,3.3-4.2,5l0,0c-8.5-15-27.5-20.3-42.6-11.9c-5,2.8-9.1,6.9-11.9,11.9l0,0
			c-1.4-1.7-2.8-3.4-4.2-5C228.3,232,240.1,225.6,252.8,225.6z M252.8,250.6c-6.9,0-12.5,5.6-12.5,12.5l0,0c0,0.2,0,0.4,0,0.6
			c1.1-0.1,2.3-0.2,3.4-0.3c-2.5,0.2-5.1,0.5-7.6,0.8l0.5-0.1c-0.8-1.4-1.6-2.7-2.4-4l0,0c1.6-10.2,11.1-17.2,21.4-15.6
			c8.1,1.2,14.4,7.6,15.6,15.6l0,0c-0.8,1.3-1.6,2.7-2.4,4l0.5,0.1c-2.5-0.3-5-0.6-7.6-0.8c1.1,0.1,2.3,0.2,3.4,0.3
			c0-0.2,0-0.4,0-0.6C265.2,256.2,259.7,250.6,252.8,250.6z M260.6,263.3l-2.7-0.1L260.6,263.3z M256.7,263.2
			c-1.3,0-2.6-0.1-3.9-0.1s-2.6,0-3.9,0.1c1.3,0,2.6-0.1,3.9-0.1S255.4,263.1,256.7,263.2L256.7,263.2z M247.7,263.2l-2.7,0.1
			L247.7,263.2z M234.5,264.4c-0.7,0.1-1.4,0.2-2.2,0.3C233.1,264.6,233.8,264.5,234.5,264.4L234.5,264.4z M273.2,264.7
			c-0.7-0.1-1.4-0.2-2.2-0.3C271.8,264.5,272.5,264.6,273.2,264.7L273.2,264.7z M279.1,265.8l-0.3-0.1L279.1,265.8z M276.8,265.4
			L275,265L276.8,265.4z M226.7,265.8l-0.3,0.1L226.7,265.8z M230.5,265l-1.8,0.4L230.5,265z M252.8,275.6c39,0,75.2,20.2,95.7,53.5
			c-2.1,0.5-4.2,1.1-6.3,1.7c-31.7-49.4-97.3-63.8-146.7-32.1c-12.9,8.3-23.8,19.2-32.1,32.1c-2.1-0.6-4.2-1.2-6.3-1.7
			C177.6,295.8,213.8,275.6,252.8,275.6z M377.8,238.1c-28.4,0-55.1,13.8-71.5,37l0.2,0.1c-2.3-1.1-4.6-2.1-7-3.1l1,0.4
			c29.2-42.7,87.5-53.5,130.2-24.3c9.5,6.5,17.8,14.8,24.3,24.3l1-0.4c-2.4,1-4.7,2-7,3.1l0.2-0.1
			C432.8,251.9,406.2,238.1,377.8,238.1L377.8,238.1z M444.2,277.7c-0.3,0.2-0.6,0.3-1,0.5C443.5,278,443.9,277.8,444.2,277.7
			L444.2,277.7z M312.4,278.2c-0.3-0.2-0.6-0.3-1-0.5C311.7,277.8,312,278,312.4,278.2L312.4,278.2z M317.5,281.1
			c24.5-33.3,71.4-40.5,104.7-15.9c6.1,4.5,11.5,9.9,15.9,15.9l0.3-0.2c-2,1.2-4,2.5-6,3.8l0.4-0.3c-22.7-30.4-65.8-36.7-96.2-14
			c-5.3,4-10,8.7-14,14l0.4,0.3c-2-1.3-3.9-2.6-6-3.8L317.5,281.1z M428.2,287.8l-1,0.8L428.2,287.8z M328.5,288.6l-1-0.8
			L328.5,288.6z M332.7,292c18.5-24.9,53.7-30.1,78.6-11.5c4.4,3.3,8.3,7.1,11.5,11.5c0.2-0.1,0.3-0.3,0.5-0.4
			c-1.9,1.6-3.8,3.3-5.7,5c0.2-0.1,0.3-0.3,0.5-0.5c-16.3-22.3-47.6-27.2-69.9-10.9c-4.2,3-7.8,6.7-10.9,10.9
			c0.2,0.1,0.3,0.3,0.5,0.5c-1.8-1.7-3.7-3.4-5.7-5C332.4,291.7,332.6,291.8,332.7,292L332.7,292z M502.8,175.6
			c-28.4,0-55.1,13.8-71.5,37l0,0c-1.9-0.9-3.8-1.8-5.8-2.6c29.2-42.7,87.5-53.5,130.2-24.3c9.5,6.5,17.8,14.8,24.3,24.3l0,0
			c-2,0.8-3.9,1.7-5.8,2.6l0,0C557.9,189.4,531.2,175.6,502.8,175.6z M442.5,218.6c24.5-33.3,71.4-40.5,104.7-15.9
			c6.1,4.5,11.5,9.9,15.9,15.9c-1.8,1.1-3.5,2.2-5.2,3.4c-22.7-30.4-65.8-36.7-96.2-14c-5.3,4-10,8.7-14,14
			C446,220.8,444.2,219.7,442.5,218.6z M502.8,206.8c17.8,0,34.5,8.4,45.1,22.6l0,0c-1.6,1.3-3.2,2.7-4.7,4.1l0,0
			c-16.3-22.3-47.6-27.2-69.9-10.9c-4.2,3-7.8,6.7-10.9,10.9c-1.5-1.4-3.1-2.8-4.7-4.1C468.3,215.2,485,206.8,502.8,206.8z
			 M502.8,225.6c12.7,0,24.5,6.4,31.4,17.1c-1.5,1.6-2.9,3.3-4.2,5l0,0c-8.5-15-27.5-20.3-42.6-11.9c-5,2.8-9.1,6.9-11.9,11.9l0,0
			c-1.4-1.7-2.8-3.4-4.2-5C478.3,232,490.1,225.6,502.8,225.6z M502.8,250.6c-6.9,0-12.5,5.6-12.5,12.5l0,0c0,0.2,0,0.4,0,0.6
			c1.1-0.1,2.3-0.2,3.4-0.3c-2.5,0.2-5.1,0.5-7.6,0.8l0.5-0.1c-0.8-1.4-1.5-2.7-2.4-4l0,0c1.6-10.2,11.1-17.2,21.4-15.6
			c8.1,1.2,14.4,7.6,15.6,15.6l0,0c-0.8,1.3-1.6,2.7-2.4,4l0.5,0.1c-2.5-0.3-5-0.6-7.6-0.8c1.1,0.1,2.3,0.2,3.4,0.3
			c0-0.2,0-0.4,0-0.6C515.2,256.2,509.7,250.6,502.8,250.6z M510.6,263.3l-2.7-0.1L510.6,263.3z M506.7,263.2
			c-1.3,0-2.6-0.1-3.9-0.1s-2.6,0-3.9,0.1c1.3,0,2.6-0.1,3.9-0.1S505.4,263.1,506.7,263.2L506.7,263.2z M497.7,263.2l-2.7,0.1
			L497.7,263.2z M484.6,264.4c-0.7,0.1-1.5,0.2-2.2,0.3C483.1,264.6,483.8,264.5,484.6,264.4L484.6,264.4z M523.2,264.7
			c-0.7-0.1-1.4-0.2-2.2-0.3C521.8,264.5,522.5,264.6,523.2,264.7L523.2,264.7z M529.1,265.8l-0.3-0.1L529.1,265.8z M526.8,265.4
			L525,265L526.8,265.4z M476.8,265.8l-0.3,0.1L476.8,265.8z M480.6,265l-1.8,0.4L480.6,265z M502.8,275.6c39,0,75.2,20.2,95.7,53.5
			c-2.1,0.5-4.2,1.1-6.3,1.7c-31.7-49.4-97.3-63.8-146.7-32.1c-12.9,8.3-23.8,19.2-32.1,32.1c-2.1-0.6-4.2-1.2-6.3-1.7
			C427.6,295.8,463.8,275.6,502.8,275.6z M627.8,238.1c-28.4,0-55.1,13.8-71.5,37l0.2,0.1c-2.3-1.1-4.6-2.1-7-3.1l1,0.4
			c29.2-42.7,87.5-53.5,130.2-24.3c9.5,6.5,17.8,14.8,24.3,24.3l1-0.4c-2.4,1-4.7,2-7,3.1l0.2-0.1
			C682.9,251.8,656.2,238,627.8,238.1L627.8,238.1z M694.2,277.7c-0.3,0.2-0.7,0.3-1,0.5C693.5,278,693.9,277.8,694.2,277.7
			L694.2,277.7z M562.4,278.2c-0.3-0.2-0.7-0.3-1-0.5C561.7,277.8,562,278,562.4,278.2L562.4,278.2z M567.5,281.1
			c24.5-33.3,71.4-40.5,104.7-15.9c6.1,4.5,11.5,9.9,15.9,15.9l0.3-0.2c-2,1.2-4,2.5-6,3.8l0.4-0.3c-22.7-30.4-65.8-36.7-96.2-14
			c-5.3,4-10,8.7-14,14l0.4,0.3c-2-1.3-3.9-2.6-6-3.8L567.5,281.1z M678.2,287.8l-1,0.8L678.2,287.8z M578.5,288.6l-1-0.8
			L578.5,288.6z M582.7,292c18.5-24.9,53.7-30.1,78.6-11.5c4.4,3.3,8.3,7.1,11.5,11.5c0.2-0.1,0.3-0.3,0.5-0.4
			c-1.9,1.6-3.8,3.3-5.7,5c0.2-0.1,0.3-0.3,0.5-0.5c-16.3-22.3-47.6-27.2-69.9-10.9c-4.2,3-7.8,6.7-10.9,10.9
			c0.2,0.1,0.3,0.3,0.5,0.5c-1.8-1.7-3.7-3.4-5.7-5C582.4,291.7,582.6,291.8,582.7,292L582.7,292z M627.8,313.1
			c-6.9,0-12.5,5.6-12.5,12.5c0,0,0,0,0,0c0,0.2,0,0.4,0,0.6h0.1c-1.3,0.1-2.5,0.3-3.8,0.4l0,0c-1.2-2.1-2.4-4.1-3.7-6.1
			c0.5,0.7,0.9,1.4,1.4,2.1c1.6-10.2,11.1-17.2,21.4-15.6c8.1,1.2,14.4,7.6,15.6,15.6c0.5-0.7,0.9-1.4,1.4-2.1c-1.3,2-2.5,4-3.7,6.1
			l0,0c-1.3-0.2-2.5-0.3-3.8-0.4h0.1c0-0.2,0-0.4,0-0.6C640.3,318.7,634.7,313.1,627.8,313.1z M639.2,326.1
			c-0.9-0.1-1.8-0.2-2.7-0.2C637.4,325.9,638.3,326,639.2,326.1L639.2,326.1z M635.2,325.8c-0.8,0-1.7-0.1-2.5-0.1
			C633.5,325.7,634.3,325.7,635.2,325.8L635.2,325.8z M631.5,325.6c-1.2,0-2.5-0.1-3.7-0.1s-2.5,0-3.7,0.1c1.2,0,2.5-0.1,3.7-0.1
			S630.3,325.6,631.5,325.6L631.5,325.6z M622.9,325.6c-0.8,0-1.7,0.1-2.5,0.1C621.2,325.7,622.1,325.7,622.9,325.6L622.9,325.6z
			 M619.1,325.8c-0.9,0.1-1.8,0.1-2.7,0.2C617.3,326,618.2,325.9,619.1,325.8L619.1,325.8z M602.8,313.1c1.6,2.1,3.1,4.2,4.5,6.5
			C605.9,317.3,604.4,315.2,602.8,313.1z M648.2,319.6c1.4-2.2,3-4.4,4.5-6.5C651.2,315.2,649.7,317.3,648.2,319.6z M653.6,312
			c0.5-0.6,0.9-1.2,1.4-1.8c-8.5-15-27.5-20.3-42.6-11.9c-5,2.8-9.1,6.9-11.9,11.9c0.5,0.6,0.9,1.2,1.4,1.8c-1.9-2.5-3.9-4.9-6-7.2
			c0.1,0.1,0.3,0.3,0.4,0.4c11.2-17.4,34.4-22.3,51.8-11.1c4.4,2.9,8.2,6.7,11.1,11.1c0.1-0.1,0.3-0.3,0.4-0.4
			C657.5,307.1,655.5,309.5,653.6,312L653.6,312z M663.7,300.5l-0.1,0.1L663.7,300.5z M592,300.6l-0.1-0.1L592,300.6z M648.2,444.6
			c1.4-2.2,3-4.4,4.5-6.5C651.2,440.2,649.7,442.3,648.2,444.6L648.2,444.6z M643.9,451.6L643.9,451.6c-1.3-0.2-2.5-0.3-3.8-0.4h0.1
			c0-0.2,0-0.4,0-0.6c0-6.9-5.6-12.5-12.5-12.5s-12.5,5.6-12.5,12.5c0,0.2,0,0.4,0,0.6h0.1c-1.3,0.1-2.5,0.3-3.8,0.4l0,0
			c-1.2-2.1-2.4-4.1-3.7-6.1c0.5,0.7,0.9,1.4,1.4,2.1c1.6-10.2,11.1-17.2,21.4-15.6c8.1,1.2,14.4,7.6,15.6,15.6
			c0.5-0.7,0.9-1.4,1.4-2.1C646.3,447.5,645.1,449.5,643.9,451.6z M639.2,451.1c-0.9-0.1-1.8-0.2-2.7-0.2
			C637.4,450.9,638.3,451,639.2,451.1L639.2,451.1z M635.2,450.8c-0.8,0-1.7-0.1-2.5-0.1C633.5,450.7,634.3,450.7,635.2,450.8
			L635.2,450.8z M631.5,450.6c-1.2,0-2.5-0.1-3.7-0.1s-2.5,0-3.7,0.1c1.2,0,2.5-0.1,3.7-0.1S630.3,450.6,631.5,450.6L631.5,450.6z
			 M622.9,450.7c-0.8,0-1.7,0.1-2.5,0.1C621.2,450.7,622.1,450.7,622.9,450.7L622.9,450.7z M619.1,450.9c-0.9,0.1-1.8,0.1-2.7,0.2
			C617.3,451,618.2,450.9,619.1,450.9L619.1,450.9z M602.8,438.1c1.6,2.1,3.1,4.2,4.5,6.5C605.9,442.3,604.4,440.2,602.8,438.1z
			 M502.8,481.8c-11.3,0-21.7,6.1-27.2,15.9l0,0c-1.4-1.7-2.8-3.4-4.2-5c11.2-17.4,34.4-22.3,51.8-11.1c4.4,2.9,8.2,6.7,11.1,11.1
			c-1.5,1.6-2.9,3.3-4.2,5l0,0C524.5,487.9,514.1,481.8,502.8,481.8z M502.8,463.1c-16,0-31,7.6-40.4,20.5c-1.5-1.4-3.1-2.8-4.7-4.1
			c18.5-24.9,53.7-30.1,78.6-11.5c4.4,3.3,8.3,7.1,11.5,11.5l0,0c-1.6,1.3-3.2,2.7-4.7,4.1l0,0C533.8,470.7,518.8,463.1,502.8,463.1
			z M502.8,444.3c-21.7,0-42.1,10.2-55.1,27.6c-1.7-1.2-3.5-2.3-5.2-3.4l0,0c24.5-33.3,71.4-40.5,104.7-15.9
			c6.1,4.5,11.5,9.9,15.9,15.9c-1.8,1.1-3.5,2.2-5.2,3.4C544.9,454.5,524.5,444.3,502.8,444.3z M502.8,425.6
			c-28.4,0-55.1,13.8-71.5,37l0,0c-1.9-0.9-3.8-1.8-5.8-2.6c29.2-42.7,87.5-53.5,130.2-24.3c9.5,6.5,17.8,14.8,24.3,24.3l0,0
			c-2,0.8-3.9,1.7-5.8,2.6l0,0C557.9,439.4,531.2,425.6,502.8,425.6z M502.8,406.8c-36.2,0-69.9,18.4-89.4,48.9
			c-2.1-0.6-4.2-1.2-6.3-1.7c32.6-52.9,101.8-69.3,154.7-36.8c15,9.2,27.5,21.8,36.8,36.8c-2.1,0.5-4.2,1.1-6.3,1.7
			C572.7,425.3,539,406.8,502.8,406.8L502.8,406.8z M377.8,438.1c-6.9,0-12.5,5.6-12.5,12.5c0,0,0,0,0,0c0,0.2,0,0.4,0,0.6h0.1
			c-1.3,0.1-2.5,0.3-3.8,0.4l0,0c-1.2-2.1-2.4-4.1-3.7-6.1c0.5,0.7,0.9,1.4,1.4,2.1c1.6-10.2,11.1-17.2,21.4-15.6
			c8.1,1.2,14.4,7.6,15.6,15.6c0.5-0.7,0.9-1.4,1.4-2.1c-1.3,2-2.5,4-3.7,6.1l0,0c-1.3-0.2-2.5-0.3-3.8-0.4h0.1c0-0.2,0-0.4,0-0.6
			C390.3,443.7,384.7,438.1,377.8,438.1z M389.2,451.1c-0.9-0.1-1.8-0.2-2.7-0.2C387.4,450.9,388.3,451,389.2,451.1L389.2,451.1z
			 M385.2,450.8c-0.8,0-1.7-0.1-2.5-0.1C383.5,450.7,384.3,450.7,385.2,450.8L385.2,450.8z M381.5,450.6c-1.2,0-2.5-0.1-3.7-0.1
			s-2.5,0-3.7,0.1c1.2,0,2.5-0.1,3.7-0.1S380.3,450.6,381.5,450.6L381.5,450.6z M372.9,450.6c-0.8,0-1.7,0.1-2.5,0.1
			C371.2,450.7,372.1,450.7,372.9,450.6L372.9,450.6z M369.1,450.8c-0.9,0.1-1.8,0.1-2.7,0.2C367.3,451,368.2,450.9,369.1,450.8
			L369.1,450.8z M252.8,481.8c-11.3,0-21.7,6.1-27.2,15.9l0,0c-1.4-1.7-2.8-3.4-4.2-5c11.2-17.4,34.4-22.3,51.8-11.1
			c4.4,2.9,8.2,6.7,11.1,11.1c-1.5,1.6-2.9,3.3-4.2,5l0,0C274.5,487.9,264.1,481.8,252.8,481.8z M252.8,463.1
			c-16,0-31,7.6-40.4,20.5c-1.5-1.4-3.1-2.8-4.7-4.1c18.5-24.9,53.7-30.1,78.6-11.5c4.4,3.3,8.3,7.1,11.5,11.5l0,0
			c-1.6,1.3-3.2,2.7-4.7,4.1l0,0C283.8,470.7,268.8,463.1,252.8,463.1z M252.8,444.3c-21.7,0-42.1,10.2-55.1,27.6
			c-1.7-1.2-3.5-2.3-5.2-3.4l0,0c24.5-33.3,71.4-40.5,104.7-15.9c6.1,4.5,11.5,9.9,15.9,15.9c-1.8,1.1-3.5,2.2-5.2,3.4
			C294.9,454.5,274.5,444.3,252.8,444.3z M252.8,425.6c-28.4,0-55.1,13.8-71.4,37l0,0c-1.9-0.9-3.8-1.8-5.8-2.6
			c29.2-42.7,87.5-53.5,130.2-24.3c9.5,6.5,17.8,14.8,24.3,24.3l0,0c-2,0.8-3.9,1.7-5.8,2.6l0,0
			C307.9,439.4,281.2,425.6,252.8,425.6z M252.8,406.8c-36.2,0-69.9,18.4-89.4,48.9c-2.1-0.6-4.2-1.2-6.3-1.7
			c32.6-52.9,101.8-69.3,154.7-36.8c15,9.2,27.5,21.8,36.8,36.8c-2.1,0.5-4.2,1.1-6.3,1.7C322.7,425.3,289,406.8,252.8,406.8
			L252.8,406.8z M127.8,438.1c-6.9,0-12.5,5.6-12.5,12.5c0,0,0,0,0,0c0,0.2,0,0.4,0,0.6h0.1c-1.3,0.1-2.6,0.3-3.8,0.4l0,0
			c-1.2-2.1-2.4-4.1-3.7-6.1c0.4,0.7,0.9,1.4,1.4,2.1c1.6-10.2,11.1-17.2,21.4-15.6c8.1,1.2,14.4,7.6,15.6,15.6
			c0.4-0.7,0.9-1.4,1.4-2.1c-1.3,2-2.5,4-3.7,6.1l0,0c-1.3-0.2-2.5-0.3-3.8-0.4h0.1c0-0.2,0-0.4,0-0.6
			C140.3,443.7,134.7,438.1,127.8,438.1z M139.2,451.1c-0.9-0.1-1.8-0.2-2.7-0.2C137.4,450.9,138.3,451,139.2,451.1L139.2,451.1z
			 M135.2,450.8c-0.8,0-1.7-0.1-2.5-0.1C133.5,450.7,134.3,450.7,135.2,450.8L135.2,450.8z M131.5,450.6c-1.2,0-2.4-0.1-3.7-0.1
			c-1.2,0-2.5,0-3.7,0.1c1.2,0,2.4-0.1,3.7-0.1C129,450.5,130.3,450.6,131.5,450.6L131.5,450.6z M122.9,450.6
			c-0.8,0-1.7,0.1-2.5,0.1C121.2,450.7,122.1,450.7,122.9,450.6L122.9,450.6z M119.1,450.8c-0.9,0.1-1.8,0.1-2.7,0.2
			C117.3,451,118.2,450.9,119.1,450.8L119.1,450.8z M2.8,481.8c-11.3,0-21.7,6.1-27.2,15.9l0,0c-1.4-1.7-2.8-3.4-4.2-5
			c6.9-10.7,18.7-17.1,31.4-17.1c12.7,0,24.5,6.4,31.4,17.1c-1.5,1.6-2.9,3.3-4.2,5l0,0C24.5,487.9,14.1,481.8,2.8,481.8z
			 M2.8,463.1c-16,0-31,7.6-40.4,20.5c-1.5-1.4-3.1-2.8-4.7-4.1c10.6-14.2,27.3-22.6,45.1-22.6c17.8,0,34.5,8.4,45.1,22.6l0,0
			c-1.6,1.3-3.2,2.7-4.7,4.1l0,0C33.8,470.7,18.8,463.1,2.8,463.1z M2.8,444.3c-21.7,0-42.1,10.2-55.1,27.6
			c-1.7-1.2-3.5-2.3-5.2-3.4l0,0c14.1-19.2,36.5-30.5,60.3-30.5c23.8,0,46.2,11.3,60.3,30.5c-1.8,1.1-3.5,2.2-5.2,3.4
			C44.9,454.6,24.5,444.3,2.8,444.3z M2.8,425.6c-28.4,0-55.1,13.8-71.4,37l0,0c-1.9-0.9-3.8-1.8-5.8-2.6
			c17.5-25.5,46.4-40.7,77.2-40.7c30.9,0,59.8,15.2,77.2,40.7l0,0c-1.9,0.8-3.9,1.7-5.8,2.6l0,0C57.9,439.4,31.2,425.6,2.8,425.6z
			 M2.8,406.8c-36.2,0-69.9,18.4-89.4,48.9c-2.1-0.6-4.2-1.2-6.3-1.7c20.5-33.2,56.7-53.4,95.7-53.5c39,0,75.2,20.2,95.7,53.5
			c-2.1,0.5-4.2,1.1-6.3,1.7C72.7,425.3,39,406.8,2.8,406.8L2.8,406.8z M-122.2,438.1c-6.9,0-12.5,5.6-12.5,12.5c0,0.2,0,0.4,0,0.6
			h0.1c-1.3,0.1-2.6,0.3-3.8,0.4l0,0c-1.2-2.1-2.4-4.1-3.7-6.1c0.4,0.7,0.9,1.4,1.4,2.1c1.4-9.1,9.3-15.8,18.5-15.8
			c9.2,0,17,6.7,18.5,15.8c0.4-0.7,0.9-1.4,1.4-2.1c-1.3,2-2.5,4-3.7,6.1l0,0c-1.3-0.2-2.5-0.3-3.8-0.4h0.1c0-0.2,0-0.4,0-0.6
			C-109.8,443.7-115.3,438.1-122.2,438.1L-122.2,438.1z M-110.8,451.1c-0.9-0.1-1.8-0.2-2.7-0.2C-112.6,450.9-111.7,451-110.8,451.1
			z M-114.8,450.8c-0.8,0-1.7-0.1-2.5-0.1C-116.5,450.7-115.7,450.7-114.8,450.8L-114.8,450.8z M-118.5,450.6
			c-1.2,0-2.4-0.1-3.7-0.1s-2.5,0-3.7,0.1c1.2,0,2.4-0.1,3.7-0.1S-119.7,450.6-118.5,450.6L-118.5,450.6z M-127.1,450.7
			c-0.8,0-1.7,0.1-2.5,0.1C-128.8,450.7-127.9,450.7-127.1,450.7L-127.1,450.7z M-130.9,450.9c-0.9,0.1-1.8,0.1-2.7,0.2
			C-132.7,451-131.8,450.9-130.9,450.9L-130.9,450.9z M-147.2,438.1c1.6,2.1,3.1,4.2,4.5,6.5C-144.1,442.3-145.6,440.2-147.2,438.1z
			 M-101.8,444.5c1.4-2.2,3-4.4,4.5-6.5C-98.8,440.2-100.3,442.3-101.8,444.5L-101.8,444.5z M127.8,313.1c-6.9,0-12.5,5.6-12.5,12.5
			c0,0,0,0,0,0c0,0.2,0,0.4,0,0.6h0.1c-1.3,0.1-2.6,0.3-3.8,0.4l0,0c-1.2-2.1-2.4-4.1-3.7-6.1c0.4,0.7,0.9,1.4,1.4,2.1
			c1.6-10.2,11.1-17.2,21.4-15.6c8.1,1.2,14.4,7.6,15.6,15.6c0.4-0.7,0.9-1.4,1.4-2.1c-1.3,2-2.5,4-3.7,6.1l0,0
			c-1.3-0.2-2.5-0.3-3.8-0.4h0.1c0-0.2,0-0.4,0-0.6C140.3,318.7,134.7,313.1,127.8,313.1z M139.2,326.1c-0.9-0.1-1.8-0.2-2.7-0.2
			C137.4,325.9,138.3,326,139.2,326.1L139.2,326.1z M135.2,325.8c-0.8,0-1.7-0.1-2.5-0.1C133.5,325.7,134.3,325.7,135.2,325.8
			L135.2,325.8z M131.5,325.6c-1.2,0-2.4-0.1-3.7-0.1c-1.2,0-2.5,0-3.7,0.1c1.2,0,2.4-0.1,3.7-0.1
			C129,325.5,130.3,325.6,131.5,325.6L131.5,325.6z M122.9,325.6c-0.8,0-1.7,0.1-2.5,0.1C121.2,325.7,122.1,325.7,122.9,325.6
			L122.9,325.6z M119.1,325.8c-0.9,0.1-1.8,0.1-2.7,0.2C117.3,326,118.2,325.9,119.1,325.8L119.1,325.8z M102.8,313.1
			c1.6,2.1,3.1,4.2,4.5,6.5C105.9,317.3,104.4,315.2,102.8,313.1z M148.2,319.6c1.4-2.2,3-4.4,4.5-6.5
			C151.2,315.2,149.7,317.3,148.2,319.6z M153.6,312c0.5-0.6,0.9-1.2,1.4-1.8c-8.5-15-27.5-20.3-42.6-11.9c-5,2.8-9.1,6.9-11.9,11.9
			c0.5,0.6,0.9,1.2,1.4,1.8c-1.9-2.5-3.9-4.9-6-7.2c0.1,0.1,0.3,0.3,0.4,0.4c11.2-17.4,34.4-22.3,51.8-11.1
			c4.4,2.9,8.2,6.7,11.1,11.1c0.1-0.1,0.3-0.3,0.4-0.4C157.5,307.1,155.5,309.5,153.6,312L153.6,312z M127.8,338.1
			c39,0,75.2,20.3,95.7,53.5c-2.4,0.6-4.7,1.2-7,1.9l0.7-0.2c-31.7-49.4-97.3-63.8-146.7-32.1c-12.9,8.3-23.8,19.2-32.1,32.1
			l0.7,0.2c-2.3-0.7-4.6-1.4-7-1.9C52.6,358.3,88.8,338.1,127.8,338.1z M377.8,313.1c-6.9,0-12.5,5.6-12.5,12.5c0,0,0,0,0,0
			c0,0.2,0,0.4,0,0.6h0.1c-1.3,0.1-2.5,0.3-3.8,0.4l0,0c-1.2-2.1-2.4-4.1-3.7-6.1c0.5,0.7,0.9,1.4,1.4,2.1
			c1.6-10.2,11.1-17.2,21.4-15.6c8.1,1.2,14.4,7.6,15.6,15.6c0.5-0.7,0.9-1.4,1.4-2.1c-1.3,2-2.5,4-3.7,6.1l0,0
			c-1.3-0.2-2.5-0.3-3.8-0.4h0.1c0-0.2,0-0.4,0-0.6C390.3,318.7,384.7,313.1,377.8,313.1z M389.2,326.1c-0.9-0.1-1.8-0.2-2.7-0.2
			C387.4,325.9,388.3,326,389.2,326.1L389.2,326.1z M385.2,325.8c-0.8,0-1.7-0.1-2.5-0.1C383.5,325.7,384.3,325.7,385.2,325.8
			L385.2,325.8z M381.5,325.6c-1.2,0-2.5-0.1-3.7-0.1s-2.5,0-3.7,0.1c1.2,0,2.5-0.1,3.7-0.1S380.3,325.6,381.5,325.6L381.5,325.6z
			 M372.9,325.6c-0.8,0-1.7,0.1-2.5,0.1C371.2,325.7,372.1,325.7,372.9,325.6L372.9,325.6z M369.1,325.8c-0.9,0.1-1.8,0.1-2.7,0.2
			C367.3,326,368.2,325.9,369.1,325.8L369.1,325.8z M352.8,313.1c1.6,2.1,3.1,4.2,4.5,6.5C355.9,317.3,354.4,315.2,352.8,313.1z
			 M398.2,319.6c1.4-2.2,3-4.4,4.5-6.5C401.2,315.2,399.7,317.3,398.2,319.6z M403.6,312c0.5-0.6,0.9-1.2,1.4-1.8
			c-8.5-15-27.5-20.3-42.6-11.9c-5,2.8-9.1,6.9-11.9,11.9c0.5,0.6,0.9,1.2,1.4,1.8c-1.9-2.5-3.9-4.9-6-7.2c0.1,0.1,0.3,0.3,0.4,0.4
			c11.2-17.4,34.4-22.3,51.8-11.1c4.4,2.9,8.2,6.7,11.1,11.1c0.1-0.1,0.3-0.3,0.4-0.4C407.5,307.1,405.5,309.5,403.6,312L403.6,312z
			 M377.8,338.1c39,0,75.2,20.3,95.7,53.5c-2.4,0.6-4.7,1.2-7,1.9l0.7-0.2c-31.7-49.4-97.3-63.8-146.7-32.1
			c-12.9,8.3-23.8,19.2-32.1,32.1l0.7,0.2c-2.3-0.7-4.6-1.4-7-1.9C302.6,358.3,338.8,338.1,377.8,338.1z M523.2,389.7
			c-0.7-0.1-1.4-0.2-2.2-0.3C521.8,389.5,522.5,389.6,523.2,389.7L523.2,389.7z M519.4,389.2c-2.5-0.3-5-0.6-7.6-0.8
			c1.1,0.1,2.3,0.2,3.4,0.3c0-0.2,0-0.4,0-0.6c0-6.9-5.6-12.5-12.5-12.5s-12.5,5.6-12.5,12.5c0,0.2,0,0.4,0,0.6
			c1.1-0.1,2.3-0.2,3.4-0.3c-2.5,0.2-5.1,0.5-7.6,0.8l0.5-0.1c-0.8-1.4-1.5-2.7-2.4-4l0,0c1.6-10.2,11.1-17.2,21.4-15.6
			c8.1,1.2,14.4,7.6,15.6,15.6l0,0c-0.8,1.3-1.6,2.7-2.4,4L519.4,389.2z M510.6,388.3l-2.7-0.1L510.6,388.3z M506.7,388.1
			c-1.3,0-2.6-0.1-3.9-0.1s-2.6,0-3.9,0.1c1.3,0,2.6-0.1,3.9-0.1S505.4,388.1,506.7,388.1L506.7,388.1z M497.7,388.1l-2.7,0.1
			L497.7,388.1z M484.6,389.4c-0.7,0.1-1.5,0.2-2.2,0.3C483.1,389.6,483.8,389.5,484.6,389.4L484.6,389.4z M377.8,419.3
			c-11.3,0-21.7,6.1-27.2,15.9c0.5,0.6,0.9,1.2,1.4,1.8c-1.9-2.5-3.9-4.9-6-7.2c0.1,0.1,0.3,0.3,0.4,0.4
			c11.2-17.4,34.4-22.3,51.8-11.1c4.4,2.9,8.2,6.7,11.1,11.1c0.1-0.1,0.3-0.3,0.4-0.4c-2.1,2.3-4.1,4.8-6,7.2
			c0.5-0.6,0.9-1.2,1.4-1.8C399.5,425.4,389.1,419.3,377.8,419.3z M402.8,438.1c-1.6,2.1-3.1,4.2-4.5,6.5
			C399.7,442.3,401.2,440.2,402.8,438.1z M357.3,444.6c-1.4-2.2-3-4.4-4.5-6.5C354.4,440.2,355.9,442.3,357.3,444.6z M377.8,400.6
			c-16,0-31,7.6-40.4,20.5c0.2,0.1,0.3,0.3,0.5,0.5c-1.8-1.7-3.7-3.4-5.7-5c0.2,0.1,0.3,0.3,0.5,0.4c18.5-24.9,53.7-30.1,78.6-11.5
			c4.4,3.3,8.3,7.1,11.5,11.5c0.2-0.1,0.3-0.3,0.5-0.4c-1.9,1.6-3.8,3.3-5.7,5c0.2-0.1,0.3-0.3,0.5-0.5
			C408.8,408.2,393.8,400.6,377.8,400.6z M413.7,425.4l-0.1,0.1L413.7,425.4z M342,425.6l-0.1-0.1L342,425.6z M377.8,381.8
			c-21.7,0-42.1,10.2-55.1,27.6l0.4,0.3c-2-1.3-3.9-2.6-6-3.8l0.3,0.2c24.5-33.3,71.4-40.5,104.7-15.9c6.1,4.5,11.5,9.9,15.9,15.9
			l0.3-0.2c-2,1.2-4,2.5-6,3.8l0.4-0.3C419.9,392.1,399.5,381.8,377.8,381.8z M428.2,412.8l-1,0.8L428.2,412.8z M328.5,413.6l-1-0.8
			L328.5,413.6z M377.8,363.1c-28.4,0-55.1,13.8-71.5,37l0.2,0.1c-2.3-1.1-4.6-2.1-7-3.1l1,0.4c29.2-42.7,87.5-53.5,130.2-24.3
			c9.5,6.5,17.8,14.8,24.3,24.3l1-0.4c-2.4,1-4.7,2-7,3.1l0.2-0.1C432.8,376.9,406.2,363.1,377.8,363.1z M444.2,402.7
			c-0.3,0.2-0.6,0.3-1,0.5C443.5,403,443.9,402.8,444.2,402.7z M312.4,403.2c-0.3-0.2-0.6-0.3-1-0.5
			C311.7,402.8,312,403,312.4,403.2z M464.4,394.1l-1.2,0.4L464.4,394.1z M459.3,395.9l-1.4,0.5L459.3,395.9z M297.7,396.4l-1.4-0.5
			L297.7,396.4z M292.5,394.5l-1.2-0.4L292.5,394.5z M252.8,375.6c-6.9,0-12.5,5.6-12.5,12.5c0,0.2,0,0.4,0,0.6
			c1.1-0.1,2.3-0.2,3.4-0.3c-2.5,0.2-5.1,0.5-7.6,0.8l0.5-0.1c-0.8-1.4-1.6-2.7-2.4-4l0,0c1.6-10.2,11.1-17.2,21.4-15.6
			c8.1,1.2,14.4,7.6,15.6,15.6l0,0c-0.8,1.3-1.6,2.7-2.4,4l0.5,0.1c-2.5-0.3-5-0.6-7.6-0.8c1.1,0.1,2.3,0.2,3.4,0.3
			c0-0.2,0-0.4,0-0.6C265.2,381.2,259.7,375.6,252.8,375.6z M260.6,388.3l-2.7-0.1L260.6,388.3z M256.7,388.2
			c-1.3,0-2.6-0.1-3.9-0.1s-2.6,0-3.9,0.1c1.3,0,2.6-0.1,3.9-0.1S255.4,388.1,256.7,388.2L256.7,388.2z M247.7,388.2l-2.7,0.1
			L247.7,388.2z M252.8,319.3c-21.7,0-42.1,10.2-55.1,27.6c-1.7-1.2-3.5-2.3-5.2-3.4l0,0c24.5-33.3,71.4-40.5,104.7-15.9
			c6.1,4.5,11.5,9.9,15.9,15.9c-1.8,1.1-3.5,2.2-5.2,3.4C294.9,329.5,274.5,319.3,252.8,319.3z M252.8,331.8
			c17.8,0,34.5,8.4,45.1,22.6l0,0c-1.6,1.3-3.2,2.7-4.7,4.1l0,0c-16.3-22.3-47.6-27.2-69.9-10.9c-4.2,3-7.8,6.7-10.9,10.9
			c-1.5-1.4-3.1-2.8-4.7-4.1C218.3,340.2,235,331.8,252.8,331.8z M252.8,350.6c12.7,0,24.5,6.4,31.5,17.1c-1.5,1.6-2.9,3.3-4.2,5
			l0,0c-8.5-15-27.5-20.3-42.6-11.9c-5,2.8-9.1,6.9-11.9,11.9l0,0c-1.4-1.7-2.8-3.4-4.2-5C228.3,357,240.1,350.6,252.8,350.6z
			 M230.6,390.1l-1.8,0.4L230.6,390.1z M226.8,390.8l-0.3,0.1L226.8,390.8z M234.6,389.4c-0.7,0.1-1.4,0.2-2.2,0.3
			C233.1,389.6,233.8,389.5,234.6,389.4L234.6,389.4z M273.2,389.8c-0.7-0.1-1.4-0.2-2.2-0.3C271.8,389.5,272.5,389.6,273.2,389.8
			L273.2,389.8z M279.1,390.9l-0.3-0.1L279.1,390.9z M276.8,390.4l-1.8-0.4L276.8,390.4z M324.2,337.6L324.2,337.6
			c-27.8-39.5-82.4-48.9-121.9-21c-8.2,5.8-15.3,12.9-21,21l0,0c-1.9-0.9-3.8-1.8-5.8-2.6c29.2-42.7,87.5-53.5,130.2-24.3
			c9.5,6.5,17.8,14.8,24.3,24.3l0,0C328.1,335.8,326.2,336.7,324.2,337.6z M127.8,419.3c-11.3,0-21.7,6.1-27.2,15.9
			c0.5,0.6,0.9,1.2,1.4,1.8c-1.9-2.5-3.9-4.9-6-7.2c0.1,0.1,0.3,0.3,0.4,0.4c11.2-17.4,34.4-22.3,51.8-11.1
			c4.4,2.9,8.2,6.7,11.1,11.1c0.1-0.1,0.3-0.3,0.4-0.4c-2.1,2.3-4.1,4.8-6,7.2c0.5-0.6,0.9-1.2,1.4-1.8
			C149.5,425.4,139.1,419.3,127.8,419.3z M152.8,438.1c-1.6,2.1-3.1,4.2-4.5,6.5C149.7,442.3,151.2,440.2,152.8,438.1z M107.3,444.6
			c-1.4-2.2-3-4.4-4.5-6.5C104.4,440.2,105.9,442.3,107.3,444.6z M127.8,400.6c-16,0-31,7.6-40.4,20.5c0.2,0.1,0.3,0.3,0.5,0.5
			c-1.8-1.7-3.7-3.4-5.7-5c0.2,0.1,0.3,0.3,0.5,0.4c18.5-24.9,53.7-30.1,78.6-11.5c4.4,3.3,8.3,7.1,11.5,11.5
			c0.2-0.1,0.3-0.3,0.5-0.4c-1.9,1.6-3.8,3.3-5.7,5c0.2-0.1,0.3-0.3,0.5-0.5C158.8,408.2,143.8,400.6,127.8,400.6z M163.7,425.4
			l-0.1,0.1L163.7,425.4z M92,425.6l-0.1-0.1L92,425.6z M127.8,381.8c-21.7,0-42.1,10.2-55.1,27.6l0.4,0.3c-2-1.3-3.9-2.6-6-3.8
			l0.3,0.2c24.5-33.3,71.4-40.5,104.7-15.9c6.1,4.5,11.5,9.9,15.9,15.9l0.3-0.2c-2,1.2-4,2.5-6,3.8l0.4-0.3
			C169.9,392.1,149.5,381.8,127.8,381.8z M178.2,412.8l-1,0.8L178.2,412.8z M78.5,413.6l-1-0.8L78.5,413.6z M127.8,363.1
			c-28.4,0-55.1,13.8-71.4,37l0.2,0.1c-2.3-1.1-4.6-2.1-7-3.1l1,0.4c29.2-42.7,87.5-53.5,130.2-24.3c9.5,6.5,17.8,14.8,24.3,24.3
			l0.9-0.4c-2.4,1-4.7,2-7,3.1l0.2-0.1C182.8,376.9,156.2,363.1,127.8,363.1z M194.2,402.7c-0.3,0.2-0.6,0.3-1,0.5
			C193.5,403,193.9,402.8,194.2,402.7z M62.4,403.2c-0.3-0.2-0.7-0.3-1-0.5C61.7,402.8,62,403,62.4,403.2z M214.4,394.1l-1.2,0.4
			L214.4,394.1z M209.4,395.9l-1.4,0.5L209.4,395.9z M47.8,396.4l-1.4-0.5L47.8,396.4z M42.6,394.5l-1.2-0.4L42.6,394.5z M2.8,375.6
			c-6.9,0-12.5,5.6-12.5,12.5c0,0.2,0,0.4,0,0.6c1.1-0.1,2.3-0.2,3.4-0.3c-2.5,0.2-5.1,0.5-7.6,0.8l0.5-0.1c-0.8-1.4-1.5-2.7-2.4-4
			l0,0c1.4-9.1,9.3-15.8,18.5-15.8c9.2,0,17,6.7,18.5,15.8l0,0c-0.8,1.3-1.6,2.7-2.4,4l0.5,0.1c-2.5-0.3-5-0.6-7.6-0.8
			c1.1,0.1,2.3,0.2,3.4,0.3c0-0.2,0-0.4,0-0.6C15.2,381.2,9.7,375.6,2.8,375.6z M10.6,388.3l-2.7-0.1L10.6,388.3z M6.7,388.2
			c-1.3,0-2.6-0.1-3.9-0.1s-2.6,0-3.9,0.1c1.3,0,2.6-0.1,3.9-0.1S5.4,388.1,6.7,388.2L6.7,388.2z M-2.3,388.2l-2.7,0.1L-2.3,388.2z
			 M-15.4,389.4c-0.7,0.1-1.4,0.2-2.2,0.3C-16.9,389.6-16.2,389.5-15.4,389.4L-15.4,389.4z M23.2,389.7c-0.7-0.1-1.4-0.2-2.2-0.3
			C21.8,389.5,22.5,389.6,23.2,389.7L23.2,389.7z M74.2,337.6L74.2,337.6c-16.4-23.2-43-37-71.4-37c-28.4,0-55.1,13.8-71.4,37l0,0
			c-1.9-0.9-3.8-1.8-5.8-2.6c17.5-25.5,46.4-40.7,77.2-40.7c30.9,0,59.8,15.2,77.2,40.7l0,0C78.1,335.8,76.2,336.7,74.2,337.6
			L74.2,337.6z M-57.6,343.6c14.1-19.2,36.5-30.5,60.4-30.5c23.8,0,46.2,11.3,60.3,30.5c-1.8,1.1-3.5,2.2-5.2,3.4
			c-13-17.4-33.4-27.7-55.1-27.6c-21.7,0-42.1,10.2-55.1,27.6C-54,345.8-55.8,344.7-57.6,343.6L-57.6,343.6z M2.8,331.8
			c17.8,0,34.5,8.4,45.1,22.6l0,0c-1.6,1.3-3.2,2.7-4.7,4.1l0,0c-9.4-12.9-24.4-20.5-40.4-20.5c-16,0-31,7.6-40.4,20.5
			c-1.5-1.4-3.1-2.8-4.7-4.1C-31.7,340.2-15,331.8,2.8,331.8z M2.8,350.6c12.7,0,24.5,6.4,31.4,17.1c-1.5,1.6-2.9,3.3-4.2,5l0,0
			c-5.5-9.8-15.9-15.9-27.2-15.9c-11.3,0-21.7,6.1-27.2,15.9l0,0c-1.4-1.7-2.8-3.4-4.2-5C-21.7,357-9.9,350.6,2.8,350.6z
			 M29.1,390.9l-0.3-0.1L29.1,390.9z M26.8,390.4L25,390L26.8,390.4z M-23.3,390.8l-0.3,0.1L-23.3,390.8z M-19.4,390l-1.8,0.4
			L-19.4,390z M476.4,390.9l0.3-0.1L476.4,390.9z M478.7,390.4l1.8-0.4L478.7,390.4z M528.8,390.8l0.3,0.1L528.8,390.8z M525,390
			l1.8,0.4L525,390z M502.8,356.8c-11.3,0-21.7,6.1-27.2,15.9l0,0c-1.4-1.7-2.8-3.4-4.2-5c11.2-17.4,34.4-22.3,51.8-11.1
			c4.4,2.9,8.2,6.7,11.1,11.1c-1.5,1.6-2.9,3.3-4.2,5l0,0C524.5,362.9,514.1,356.8,502.8,356.8z M502.8,338.1
			c-16,0-31,7.6-40.4,20.5c-1.5-1.4-3.1-2.8-4.7-4.1c18.5-24.9,53.7-30.1,78.6-11.5c4.4,3.3,8.3,7.1,11.5,11.5l0,0
			c-1.6,1.3-3.2,2.7-4.7,4.1l0,0C533.8,345.7,518.8,338.1,502.8,338.1z M502.8,319.3c-21.7,0-42.1,10.2-55.1,27.6
			c-1.7-1.2-3.5-2.3-5.2-3.4l0,0c24.5-33.3,71.4-40.5,104.7-15.9c6.1,4.5,11.5,9.9,15.9,15.9c-1.8,1.1-3.5,2.2-5.2,3.4
			C544.9,329.5,524.5,319.3,502.8,319.3z M502.8,300.6c-28.4,0-55.1,13.8-71.5,37l0,0c-1.9-0.9-3.8-1.8-5.8-2.6
			c29.2-42.7,87.5-53.5,130.2-24.3c9.5,6.5,17.8,14.8,24.3,24.3l0,0c-2,0.8-3.9,1.7-5.8,2.6l0,0
			C557.9,314.4,531.2,300.6,502.8,300.6z M413.6,300.6l0.1-0.1L413.6,300.6z M342,300.6l-0.1-0.1L342,300.6z M163.6,300.6l0.1-0.1
			L163.6,300.6z M92,300.6l-0.1-0.1L92,300.6z M-122.2,313.1c-6.9,0-12.5,5.6-12.5,12.5c0,0,0,0,0,0c0,0.2,0,0.4,0,0.6h0.1
			c-1.3,0.1-2.6,0.3-3.8,0.4l0,0c-1.2-2.1-2.4-4.1-3.7-6.1c0.4,0.7,0.9,1.4,1.4,2.1c1.4-9.1,9.3-15.8,18.5-15.8
			c9.2,0,17,6.7,18.5,15.8c0.4-0.7,0.9-1.4,1.4-2.1c-1.3,2-2.5,4-3.7,6.1l0,0c-1.3-0.2-2.5-0.3-3.8-0.4h0.1c0-0.2,0-0.4,0-0.6
			C-109.8,318.7-115.3,313.1-122.2,313.1z M-110.8,326.1c-0.9-0.1-1.8-0.2-2.7-0.2C-112.6,325.9-111.7,326-110.8,326.1L-110.8,326.1
			z M-114.8,325.8c-0.8,0-1.7-0.1-2.5-0.1C-116.5,325.7-115.7,325.7-114.8,325.8L-114.8,325.8z M-118.5,325.6
			c-1.2,0-2.4-0.1-3.7-0.1s-2.5,0-3.7,0.1c1.2,0,2.4-0.1,3.7-0.1S-119.7,325.6-118.5,325.6L-118.5,325.6z M-127.1,325.6
			c-0.8,0-1.7,0.1-2.5,0.1C-128.8,325.7-127.9,325.7-127.1,325.6L-127.1,325.6z M-130.9,325.8c-0.9,0.1-1.8,0.1-2.7,0.2
			C-132.7,326-131.8,325.9-130.9,325.8L-130.9,325.8z M-147.2,313.1c1.6,2.1,3.1,4.2,4.5,6.5C-144.1,317.3-145.6,315.2-147.2,313.1z
			 M-101.8,319.5c1.4-2.2,3-4.4,4.5-6.5C-98.8,315.2-100.3,317.3-101.8,319.5L-101.8,319.5z M-86.3,300.4l-0.1,0.1L-86.3,300.4z
			 M-158,300.5l-0.1-0.1L-158,300.5z M-153.7,305.2c6.9-10.7,18.8-17.1,31.5-17.1c12.7,0,24.5,6.4,31.4,17.1
			c0.1-0.1,0.3-0.3,0.4-0.4c-2.1,2.3-4.1,4.8-6,7.2c0.5-0.6,0.9-1.2,1.4-1.8c-5.5-9.8-15.9-15.9-27.2-15.9
			c-11.3,0-21.7,6.1-27.2,15.9c0.5,0.6,0.9,1.2,1.4,1.8c-1.9-2.5-3.9-4.9-6-7.2C-153.9,304.9-153.8,305-153.7,305.2L-153.7,305.2z
			 M-199.5,397.5c17.5-25.5,46.4-40.7,77.3-40.7c30.9,0,59.8,15.2,77.2,40.7l1-0.4c-2.4,1-4.7,2-7,3.1l0.2-0.1
			c-16.4-23.2-43-37-71.4-37c-28.4,0-55.1,13.8-71.5,37l0.2,0.1c-2.3-1.1-4.6-2.1-7-3.1L-199.5,397.5z M-202.3,396.4l-1.4-0.5
			L-202.3,396.4z M-207.5,394.5l-1.2-0.4L-207.5,394.5z M-35.7,394.1l-1.2,0.4L-35.7,394.1z M-40.7,395.9l-1.4,0.5L-40.7,395.9z
			 M-55.8,402.7c-0.3,0.2-0.7,0.3-1,0.5C-56.5,403-56.1,402.8-55.8,402.7L-55.8,402.7z M-187.6,403.2c-0.3-0.2-0.6-0.3-1-0.5
			C-188.3,402.8-188,403-187.6,403.2L-187.6,403.2z M-182.5,406.1c14.1-19.2,36.5-30.5,60.3-30.5c23.8,0,46.2,11.3,60.3,30.5
			l0.3-0.2c-2,1.2-4,2.5-6,3.8l0.4-0.3c-12.9-17.4-33.4-27.6-55-27.7c-21.7,0-42.1,10.2-55.1,27.6l0.4,0.3c-2-1.3-3.9-2.6-6-3.8
			L-182.5,406.1z M-71.8,412.8l-1,0.8L-71.8,412.8z M-171.5,413.6l-1-0.8L-171.5,413.6z M-167.3,417c10.6-14.2,27.3-22.6,45.1-22.6
			c17.8,0,34.5,8.4,45.1,22.6c0.2-0.1,0.3-0.3,0.5-0.4c-1.9,1.6-3.8,3.3-5.7,5c0.2-0.1,0.3-0.3,0.5-0.5
			c-9.4-12.9-24.4-20.5-40.4-20.5c-16,0-31,7.6-40.4,20.5c0.2,0.1,0.3,0.3,0.5,0.5c-1.8-1.7-3.7-3.4-5.7-5
			C-167.6,416.7-167.4,416.8-167.3,417L-167.3,417z M-86.3,425.4l-0.1,0.1L-86.3,425.4z M-157.9,425.5l-0.1-0.1L-157.9,425.5z
			 M-153.6,430.2c6.9-10.6,18.7-17.1,31.4-17.1c12.7,0,24.5,6.4,31.4,17.1c0.1-0.1,0.3-0.3,0.4-0.4c-2.1,2.3-4.1,4.8-6,7.2
			c0.5-0.6,0.9-1.2,1.4-1.8c-5.5-9.8-15.9-15.9-27.2-15.9c-11.3,0-21.7,6.1-27.2,15.9c0.5,0.6,0.9,1.2,1.4,1.8
			c-1.9-2.5-3.9-4.9-6-7.2C-153.9,429.9-153.8,430-153.6,430.2L-153.6,430.2z M-19.4,515l-1.8,0.3L-19.4,515z M-23.2,515.8l-0.3,0.1
			L-23.2,515.8z M-15.4,514.4c-0.7,0.1-1.4,0.2-2.2,0.3C-16.9,514.6-16.2,514.5-15.4,514.4L-15.4,514.4z M23.3,514.7
			c-0.7-0.1-1.4-0.2-2.2-0.3C21.8,514.5,22.5,514.6,23.3,514.7L23.3,514.7z M29.2,515.9l-0.3-0.1L29.2,515.9z M26.8,515.4L25,515
			L26.8,515.4z M230.6,515l-1.8,0.3L230.6,515z M226.7,515.8l-0.3,0.1L226.7,515.8z M234.5,514.4c-0.7,0.1-1.4,0.2-2.2,0.3
			C233.1,514.6,233.8,514.5,234.5,514.4L234.5,514.4z M273.2,514.7c-0.7-0.1-1.4-0.2-2.2-0.3C271.8,514.5,272.5,514.6,273.2,514.7
			L273.2,514.7z M279.1,515.9l-0.3-0.1L279.1,515.9z M276.8,515.4L275,515L276.8,515.4z M480.6,515l-1.8,0.3L480.6,515z
			 M476.7,515.8l-0.3,0.1L476.7,515.8z M484.5,514.4c-0.7,0.1-1.5,0.2-2.2,0.3C483.1,514.6,483.8,514.5,484.5,514.4L484.5,514.4z
			 M523.2,514.7c-0.7-0.1-1.4-0.2-2.2-0.3C521.8,514.5,522.5,514.6,523.2,514.7L523.2,514.7z M529.1,515.9l-0.3-0.1L529.1,515.9z
			 M526.8,515.4L525,515L526.8,515.4z M653.6,437c0.5-0.6,0.9-1.2,1.4-1.8c-8.5-15-27.5-20.3-42.6-11.9c-5,2.8-9.1,6.9-11.9,11.9
			c0.5,0.6,0.9,1.2,1.4,1.8c-1.9-2.5-3.9-4.9-6-7.2c0.1,0.1,0.3,0.3,0.4,0.4c11.2-17.4,34.4-22.3,51.8-11.1
			c4.4,2.9,8.2,6.7,11.1,11.1c0.1-0.1,0.3-0.3,0.4-0.4C657.5,432.1,655.5,434.5,653.6,437L653.6,437z M627.8,400.6
			c-16,0-31,7.6-40.4,20.5c0.2,0.1,0.3,0.3,0.5,0.5c-1.8-1.7-3.7-3.4-5.7-5c0.2,0.1,0.3,0.3,0.5,0.4c18.5-24.9,53.7-30.1,78.6-11.5
			c4.4,3.3,8.3,7.1,11.5,11.5c0.2-0.1,0.3-0.3,0.5-0.4c-1.9,1.6-3.8,3.3-5.7,5c0.2-0.1,0.3-0.3,0.5-0.5
			C658.8,408.2,643.8,400.6,627.8,400.6z M663.7,425.4l-0.1,0.1L663.7,425.4z M592,425.6l-0.1-0.1L592,425.6z M627.8,381.8
			c-21.7,0-42.1,10.2-55.1,27.6l0.4,0.3c-2-1.3-3.9-2.6-6-3.8l0.3,0.2c24.5-33.3,71.4-40.5,104.7-15.9c6.1,4.5,11.5,9.9,15.9,15.9
			l0.3-0.2c-2,1.2-4,2.5-6,3.8l0.4-0.3C669.9,392.1,649.5,381.8,627.8,381.8z M678.2,412.8l-1,0.8L678.2,412.8z M578.5,413.6l-1-0.8
			L578.5,413.6z M627.8,363.1c-28.4,0-55.1,13.8-71.5,37l0.2,0.1c-2.3-1.1-4.6-2.1-7-3.1l1,0.4c29.2-42.7,87.5-53.5,130.2-24.3
			c9.5,6.5,17.8,14.8,24.3,24.3l1-0.4c-2.4,1-4.7,2-7,3.1l0.2-0.1C682.9,376.8,656.2,363,627.8,363.1z M694.2,402.7
			c-0.3,0.2-0.7,0.3-1,0.5C693.5,403,693.9,402.8,694.2,402.7z M562.4,403.2c-0.3-0.2-0.7-0.3-1-0.5
			C561.7,402.8,562,403,562.4,403.2z M627.8,344.3c-36.2,0-69.9,18.4-89.4,48.9l0.7,0.2c-2.3-0.7-4.6-1.4-7-1.9
			c32.6-52.9,101.8-69.3,154.7-36.8c15,9.2,27.5,21.8,36.8,36.8c-2.4,0.6-4.7,1.2-7,1.9l0.7-0.2C697.7,362.7,664,344.3,627.8,344.3z
			 M714.3,394.1l-1.2,0.4L714.3,394.1z M709.3,395.9l-1.4,0.5L709.3,395.9z M547.8,396.4l-1.4-0.5L547.8,396.4z M542.6,394.5
			l-1.2-0.4L542.6,394.5z M734.6,389.4c-0.7,0.1-1.5,0.2-2.2,0.3C733.1,389.6,733.8,389.5,734.6,389.4L734.6,389.4z M752.8,356.8
			c-11.3,0-21.7,6.1-27.2,15.9l0,0c-1.4-1.7-2.8-3.4-4.2-5c11.2-17.4,34.4-22.4,51.8-11.2c10.7,6.9,17.2,18.8,17.2,31.6
			c0,1.9-0.1,3.7-0.4,5.6l0,0c-2-0.6-4-1.2-6.1-1.7l0,0c2.2-17.1-9.9-32.7-27-34.9C755.5,356.9,754.2,356.8,752.8,356.8L752.8,356.8
			z M780.8,391.2L780.8,391.2z M730.6,390l-1.8,0.4L730.6,390z M726.8,390.8l-0.3,0.1L726.8,390.8z M752.8,338.1
			c-16,0-31,7.6-40.4,20.5c-1.5-1.4-3.1-2.8-4.7-4.1c18.5-24.9,53.8-30.1,78.7-11.6c17.9,13.3,26.3,36,21.2,57.8l0,0
			c-1.9-0.9-3.8-1.8-5.8-2.6c5.5-27.1-11.9-53.5-39-59C759.5,338.4,756.2,338,752.8,338.1L752.8,338.1z M752.8,319.3
			c-21.7,0-42.1,10.2-55.1,27.6c-1.7-1.2-3.5-2.3-5.2-3.4l0,0c24.6-33.3,71.6-40.3,104.9-15.7c25.7,19,36.5,52.2,27,82.7
			c-1.8-1.2-3.6-2.4-5.5-3.6c10.4-36.5-10.7-74.6-47.2-85C765.6,320.2,759.2,319.3,752.8,319.3L752.8,319.3z M816.2,405.3
			L816.2,405.3z M813.4,403.7L813.4,403.7L813.4,403.7z M810.6,402.2l-0.1-0.1L810.6,402.2z M752.8,300.6c-28.4,0-55.1,13.8-71.5,37
			l0,0c-1.9-0.9-3.8-1.8-5.8-2.6c29.3-42.7,87.6-53.5,130.3-24.3c36.3,24.9,50.4,71.7,33.8,112.4c-1.6-1.6-3.2-3.1-4.9-4.5l0,0
			c16.9-45.3-6.1-95.7-51.4-112.6C773.6,302.5,763.2,300.6,752.8,300.6z M842.2,425.8l-0.2-0.2L842.2,425.8z M844.6,428.3l-0.3-0.3
			L844.6,428.3z M752.8,281.8c-36.2,0-69.9,18.4-89.4,48.9c-2.1-0.6-4.2-1.2-6.3-1.7c32.5-52.9,101.8-69.4,154.7-36.9
			c49.8,30.6,67.8,94.3,41.5,146.5l0,0c-1.4-1.9-2.8-3.7-4.3-5.5l0,0c24.9-53.1,2.1-116.4-51-141.3
			C783.8,285.3,768.4,281.8,752.8,281.8z M846.8,430.7l-0.3-0.3L846.8,430.7z M839.6,298.2c-1.6-1.6-3.2-3.1-4.9-4.5l0,0
			c16.9-45.3-6.2-95.7-51.5-112.5c-37.2-13.8-79-1-101.9,31.4l0,0c-1.9-0.9-3.8-1.8-5.8-2.6c29.3-42.7,87.6-53.5,130.3-24.3
			C842.1,210.7,856.2,257.4,839.6,298.2L839.6,298.2z M844.5,303.2l-0.3-0.3L844.5,303.2z M842.2,300.7l-0.2-0.2L842.2,300.7z
			 M692.5,218.6c24.6-33.3,71.6-40.3,104.9-15.7c25.7,19,36.5,52.2,27,82.7c-1.8-1.2-3.6-2.4-5.5-3.6c10.4-36.5-10.8-74.6-47.3-85
			c-27.4-7.8-56.8,2.1-73.9,25C696,220.8,694.2,219.7,692.5,218.6L692.5,218.6z M752.8,206.8c31,0,56.2,25.1,56.2,56.2
			c0,4.3-0.5,8.6-1.4,12.7l0,0c-1.9-0.9-3.8-1.8-5.8-2.6c5.5-27.1-12-53.5-39.1-58.9c-19.1-3.9-38.8,3.7-50.3,19.5
			c-1.5-1.4-3.1-2.8-4.7-4.1C718.3,215.2,735,206.8,752.8,206.8z M816.2,280.3L816.2,280.3z M813.4,278.7L813.4,278.7L813.4,278.7z
			 M810.6,277.2l-0.1-0.1L810.6,277.2z M752.8,225.6c20.7,0,37.5,16.8,37.5,37.5c0,1.9-0.1,3.7-0.4,5.6l0,0c-2-0.6-4-1.2-6.1-1.7
			l0,0c2.2-17.1-10-32.7-27.1-34.9c-12.6-1.6-24.9,4.6-31.1,15.7l0,0c-1.4-1.7-2.8-3.4-4.2-5C728.2,232.1,740.1,225.6,752.8,225.6z
			 M752.8,250.6c-6.9,0-12.5,5.6-12.5,12.5l0,0c0,0.2,0,0.4,0,0.6c1.1-0.1,2.3-0.2,3.4-0.3c-2.5,0.2-5.1,0.5-7.6,0.8l0.5-0.1
			c-0.8-1.4-1.5-2.7-2.3-4l0,0c1.7-10.2,11.3-17.2,21.5-15.5c9.1,1.5,15.8,9.3,15.8,18.5c0,0.5,0,0.9-0.1,1.4
			c-2.1-0.3-4.1-0.6-6.2-0.8l0,0c0-0.2,0-0.4,0-0.6C765.3,256.2,759.7,250.6,752.8,250.6z M759.1,263.3L759.1,263.3z M756,263.1
			c-1,0-2.1,0-3.2,0c-1.3,0-2.6,0-3.9,0.1c1.3,0,2.6-0.1,3.9-0.1C753.9,263.1,754.9,263.1,756,263.1L756,263.1z M747.7,263.2
			l-2.7,0.1L747.7,263.2z M734.6,264.4c-0.7,0.1-1.5,0.2-2.2,0.3C733.1,264.6,733.8,264.5,734.6,264.4L734.6,264.4z M780.8,266.2
			L780.8,266.2z M726.8,265.8l-0.3,0.1L726.8,265.8z M730.6,265l-1.8,0.4L730.6,265z M752.8,150.6c62.1,0,112.5,50.4,112.5,112.5
			c0,17.6-4.1,34.9-12,50.6l0,0c-1.4-1.9-2.8-3.7-4.3-5.5l0,0c25-53.1,2.1-116.4-51-141.3c-48.3-22.7-105.9-6.1-134.6,38.8
			c-2.1-0.6-4.2-1.2-6.3-1.7C677.6,170.8,713.8,150.6,752.8,150.6z M859.3,322.7l-0.3-0.5L859.3,322.7z M857.5,319.8l-0.4-0.6
			L857.5,319.8z M855.5,316.8l-0.3-0.4L855.5,316.8z M846.5,305.4l0.3,0.3L846.5,305.4z M627.8,213.1c39,0,75.2,20.3,95.7,53.5
			c-2.4,0.6-4.7,1.2-7,1.9l0.7-0.2c-31.7-49.4-97.3-63.8-146.7-32.1c-12.9,8.3-23.8,19.2-32.1,32.1l0.7,0.2c-2.3-0.7-4.6-1.4-7-1.9
			C552.6,233.3,588.8,213.1,627.8,213.1z M707.9,271.4l1.4-0.5L707.9,271.4z M713.1,269.5l1.2-0.4L713.1,269.5z M547.7,271.4
			l-1.4-0.5L547.7,271.4z M542.5,269.5l-1.2-0.4L542.5,269.5z M502.8,150.6c39,0,75.2,20.2,95.7,53.5c-2.1,0.5-4.2,1.1-6.3,1.7
			c-31.7-49.4-97.3-63.8-146.7-32.1c-12.9,8.3-23.8,19.2-32.1,32.1c-2.1-0.6-4.2-1.2-6.3-1.7C427.6,170.8,463.8,150.6,502.8,150.6z
			 M377.8,213.1c39,0,75.2,20.3,95.7,53.5c-2.4,0.6-4.7,1.2-7,1.9l0.7-0.2c-31.7-49.4-97.3-63.8-146.7-32.1
			c-12.9,8.3-23.8,19.2-32.1,32.1l0.7,0.2c-2.3-0.7-4.6-1.4-7-1.9C302.6,233.3,338.8,213.1,377.8,213.1L377.8,213.1z M457.9,271.4
			l1.4-0.5L457.9,271.4z M463.1,269.6l1.2-0.4L463.1,269.6z M297.7,271.4l-1.4-0.5L297.7,271.4z M292.5,269.5l-1.2-0.4L292.5,269.5z
			 M252.8,150.6c39,0,75.2,20.2,95.7,53.5c-2.1,0.5-4.2,1.1-6.3,1.7c-31.7-49.4-97.3-63.8-146.7-32.1c-12.9,8.3-23.8,19.2-32.1,32.1
			c-2.1-0.6-4.2-1.2-6.3-1.7C177.6,170.8,213.8,150.6,252.8,150.6z M127.8,213.1c39,0,75.2,20.3,95.7,53.5c-2.4,0.6-4.7,1.2-7,1.9
			l0.7-0.2c-31.7-49.4-97.3-63.8-146.7-32.1c-12.9,8.3-23.8,19.2-32.1,32.1l0.7,0.2c-2.3-0.7-4.6-1.4-7-1.9
			C52.6,233.3,88.8,213.1,127.8,213.1L127.8,213.1z M207.9,271.4l1.4-0.5L207.9,271.4z M213.1,269.6l1.2-0.4L213.1,269.6z
			 M47.7,271.4l-1.4-0.5L47.7,271.4z M42.5,269.5l-1.2-0.4L42.5,269.5z M2.8,150.6c39,0,75.2,20.2,95.7,53.5
			c-2.1,0.5-4.2,1.1-6.3,1.7C72.7,175.3,39,156.8,2.8,156.8c-36.2,0-69.9,18.4-89.4,48.9c-2.1-0.6-4.2-1.2-6.3-1.7
			C-72.4,170.8-36.2,150.6,2.8,150.6z M-122.2,213.1c39,0,75.2,20.3,95.7,53.5c-2.4,0.6-4.7,1.2-7,1.9l0.7-0.2
			c-19.5-30.5-53.2-48.9-89.4-48.9c-36.2,0-69.9,18.4-89.4,48.9l0.7,0.2c-2.3-0.7-4.6-1.4-7-1.9
			C-197.4,233.3-161.2,213.1-122.2,213.1L-122.2,213.1z M-42.1,271.4l1.4-0.5L-42.1,271.4z M-36.9,269.6l1.2-0.4L-36.9,269.6z
			 M-202.3,271.4l-1.4-0.5L-202.3,271.4z M-207.5,269.6l-1.2-0.4L-207.5,269.6z M-247.2,250.6c-6.9,0-12.5,5.6-12.5,12.5l0,0
			c0,0.2,0,0.4,0,0.6l0,0c-2.1,0.2-4.2,0.5-6.2,0.8c0-0.5-0.1-0.9-0.1-1.4c0-10.4,8.4-18.8,18.8-18.8c0,0,0,0,0,0
			c9.2,0,17,6.7,18.5,15.8l0,0c-0.8,1.3-1.6,2.7-2.4,4l0.5,0.1c-2.5-0.3-5-0.6-7.6-0.8c1.1,0.1,2.3,0.2,3.4,0.3c0-0.2,0-0.4,0-0.6
			C-234.8,256.2-240.3,250.6-247.2,250.6z M-239.4,263.3l-2.7-0.1L-239.4,263.3z M-243.3,263.2c-1.3,0-2.6-0.1-3.9-0.1
			c-1.1,0-2.1,0-3.2,0c1,0,2.1,0,3.2,0C-245.9,263.1-244.6,263.1-243.3,263.2L-243.3,263.2z M-253.2,263.2L-253.2,263.2z
			 M-334.1,298.2c-4.5-11.2-6.9-23.1-6.9-35.1c0-51.8,42-93.7,93.7-93.8c30.9,0,59.8,15.2,77.2,40.7l0,0c-2,0.8-3.9,1.7-5.8,2.6l0,0
			c-16.4-23.2-43-37-71.4-37c-48.3,0-87.5,39.2-87.5,87.5c0,10.5,1.8,20.8,5.5,30.6C-330.9,295.2-332.5,296.7-334.1,298.2
			L-334.1,298.2z M-336.4,300.6l-0.2,0.2L-336.4,300.6z M-338.7,303c-0.1,0.1-0.2,0.2-0.3,0.3C-338.9,303.1-338.8,303-338.7,303
			L-338.7,303z M-322.2,263.1c0-41.4,33.6-75,75-75c23.8,0,46.2,11.3,60.3,30.5c-1.8,1.1-3.5,2.2-5.2,3.4
			c-13-17.4-33.4-27.7-55.1-27.6c-38,0-68.7,30.8-68.7,68.8l0,0c0,6.4,0.9,12.8,2.6,18.9c-1.8,1.1-3.7,2.3-5.5,3.6l0,0
			C-321,278.3-322.2,270.7-322.2,263.1z M-303.5,263.1c0-31.1,25.2-56.2,56.2-56.3c17.8,0,34.5,8.4,45.1,22.6l0,0
			c-1.6,1.3-3.2,2.7-4.7,4.1l0,0c-9.4-12.9-24.4-20.5-40.4-20.5c-27.6,0-50,22.4-50,50c0,3.4,0.3,6.7,1,10l0,0
			c-2,0.8-3.9,1.7-5.8,2.6l0,0C-303,271.6-303.5,267.3-303.5,263.1z M-304.9,277.1l-0.1,0.1L-304.9,277.1z M-307.7,278.7l-0.1,0.1
			L-307.7,278.7z M-310.5,280.3L-310.5,280.3z M-284.7,263.1c0-20.7,16.8-37.4,37.5-37.5c12.7,0,24.5,6.4,31.4,17.1
			c-1.5,1.6-2.9,3.3-4.2,5l0,0c-5.5-9.8-15.9-15.9-27.2-15.9c-17.3,0-31.2,14-31.2,31.3c0,1.3,0.1,2.6,0.2,3.9l0,0
			c-2.1,0.5-4.1,1.1-6.1,1.7l0,0C-284.6,266.8-284.7,264.9-284.7,263.1z M-275.1,266.2L-275.1,266.2z M-226.8,264.7
			c-0.7-0.1-1.4-0.2-2.2-0.3C-228.2,264.5-227.5,264.6-226.8,264.7z M-220.9,265.9l-0.3-0.1L-220.9,265.9z M-223.2,265.4l-1.8-0.4
			L-223.2,265.4z M-247.2,150.6c39,0,75.2,20.2,95.7,53.5c-2.1,0.5-4.2,1.1-6.3,1.7c-19.5-30.5-53.2-48.9-89.4-48.9
			c-58.7,0-106.2,47.6-106.2,106.3c0,15.6,3.4,31,10.1,45.2c-1.5,1.8-2.9,3.6-4.3,5.5l0,0c-7.9-15.7-12-33-12-50.6
			C-359.6,201-309.3,150.7-247.2,150.6z M-341,305.5l-0.3,0.3L-341,305.5z M-353.4,322.2l-0.3,0.5L-353.4,322.2z M-349.6,316.4
			l-0.3,0.4L-349.6,316.4z M-351.5,319.2l-0.4,0.6L-351.5,319.2z M-247.2,275.6c39,0,75.2,20.2,95.7,53.5c-2.1,0.5-4.2,1.1-6.3,1.7
			c-19.5-30.5-53.2-48.9-89.4-48.9c-58.7,0-106.2,47.6-106.2,106.2l0,0c0,15.6,3.4,31,10.1,45.2c-1.5,1.8-2.9,3.6-4.3,5.5l0,0
			c-7.9-15.7-12-33-12-50.6C-359.6,326-309.3,275.7-247.2,275.6z M-341,430.5l-0.3,0.3L-341,430.5z M-353.4,447.2l-0.3,0.5
			L-353.4,447.2z M-349.6,441.4l-0.3,0.4L-349.6,441.4z M-351.5,444.2l-0.4,0.6L-351.5,444.2z M-247.2,400.6
			c39,0,75.2,20.2,95.7,53.5c-2.1,0.5-4.2,1.1-6.3,1.7c-19.5-30.5-53.2-48.9-89.4-48.9c-58.7,0-106.2,47.6-106.2,106.2
			c0,15.6,3.4,31,10.1,45.2c-1.5,1.8-2.9,3.6-4.3,5.5l0,0c-7.9-15.7-12-33-12-50.6C-359.6,451-309.3,400.7-247.2,400.6z M-341,555.5
			l-0.3,0.3L-341,555.5z M-353.4,572.2l-0.3,0.5L-353.4,572.2z M-349.6,566.4l-0.3,0.4L-349.6,566.4z M-351.5,569.2l-0.4,0.6
			L-351.5,569.2z M-250.4,513.1c1,0,2.1,0,3.2,0c1.3,0,2.6,0,3.9,0.1c-1.3,0-2.6-0.1-3.9-0.1C-248.3,513.1-249.3,513.1-250.4,513.1
			L-250.4,513.1z M-253.5,513.3L-253.5,513.3z M-239.4,513.3l-2.7-0.1L-239.4,513.3z M-167.8,541.6c0.2,0.1,0.3,0.3,0.5,0.4
			c10.6-14.3,27.3-22.7,45.1-22.7c17.8,0,34.5,8.4,45.1,22.6c0.2-0.1,0.3-0.3,0.5-0.4c-1.9,1.6-3.8,3.3-5.7,5
			c0.2-0.2,0.3-0.3,0.5-0.5c-9.4-12.9-24.4-20.5-40.4-20.5c-16,0-31,7.6-40.4,20.5c0.2,0.1,0.3,0.3,0.5,0.5
			C-163.9,544.8-165.8,543.2-167.8,541.6z M-86.3,550.5l-0.1,0.1L-86.3,550.5z M-158,550.6l-0.1-0.1L-158,550.6z M-154,554.8
			c0.1,0.1,0.3,0.3,0.4,0.4c6.9-10.7,18.7-17.1,31.4-17.1c12.7,0,24.5,6.4,31.4,17.1c0.1-0.1,0.3-0.3,0.4-0.4
			c-2.1,2.3-4.1,4.8-6,7.2c0.5-0.6,0.9-1.2,1.4-1.8c-5.5-9.8-15.9-15.9-27.2-15.9c-11.3,0-21.7,6.1-27.2,15.9
			c0.5,0.6,0.9,1.2,1.4,1.8C-149.9,559.5-151.9,557.1-154,554.8L-154,554.8z M-97.2,563.1c-1.6,2.1-3.1,4.2-4.5,6.5
			C-100.3,567.3-98.8,565.2-97.2,563.1z M-142.7,569.6c-1.4-2.2-3-4.3-4.5-6.5C-145.6,565.2-144.1,567.3-142.7,569.6z M-125.9,575.7
			c1.2,0,2.4-0.1,3.7-0.1s2.5,0,3.7,0.1c-1.2,0-2.4-0.1-3.7-0.1S-124.7,575.6-125.9,575.7L-125.9,575.7z M-109.9,576.2h0.1
			c0-0.2,0-0.4,0-0.6c0-6.9-5.6-12.5-12.5-12.5c-6.9,0-12.4,5.6-12.5,12.5c0,0.2,0,0.4,0,0.6h0.1c-1.3,0.1-2.6,0.3-3.8,0.4l0,0
			c-1.2-2.1-2.4-4.1-3.7-6.1c0.4,0.7,0.9,1.4,1.4,2.1c1.4-9.1,9.3-15.8,18.5-15.8c9.2,0,17,6.7,18.5,15.8c0.4-0.7,0.9-1.4,1.4-2.1
			c-1.3,2-2.5,4-3.7,6.1l0,0C-107.3,576.4-108.6,576.3-109.9,576.2L-109.9,576.2z M-117.3,575.7c0.8,0,1.7,0.1,2.5,0.1
			C-115.7,575.7-116.5,575.7-117.3,575.7L-117.3,575.7z M-113.5,575.9c0.9,0.1,1.8,0.1,2.7,0.2C-111.7,576-112.6,575.9-113.5,575.9
			L-113.5,575.9z M-127.1,575.7c-0.8,0-1.7,0.1-2.5,0.1C-128.8,575.7-127.9,575.7-127.1,575.7L-127.1,575.7z M-130.9,575.9
			c-0.9,0.1-1.8,0.1-2.7,0.2C-132.7,576-131.8,575.9-130.9,575.9L-130.9,575.9z M30,622.7L30,622.7c-5.5-9.8-15.9-15.9-27.2-15.9
			c-11.3,0-21.7,6.1-27.2,15.9l0,0c-1.4-1.7-2.8-3.4-4.2-5c6.9-10.7,18.7-17.1,31.4-17.1c12.7,0,24.5,6.4,31.4,17.1
			C32.8,619.3,31.4,621,30,622.7z M43.2,608.6L43.2,608.6c-9.4-12.9-24.4-20.5-40.4-20.5c-16,0-31,7.6-40.4,20.5
			c-1.5-1.4-3.1-2.8-4.7-4.1c10.6-14.2,27.3-22.6,45.1-22.7c17.8,0,34.5,8.4,45.1,22.6l0,0C46.3,605.8,44.7,607.2,43.2,608.6z
			 M57.9,596.9c-13-17.4-33.4-27.6-55.1-27.6c-21.7,0-42.1,10.2-55.1,27.6c-1.7-1.2-3.5-2.3-5.2-3.4l0,0
			c14.1-19.2,36.5-30.5,60.3-30.5c23.8,0,46.2,11.3,60.3,30.5C61.4,594.7,59.6,595.8,57.9,596.9L57.9,596.9z M74.2,587.6L74.2,587.6
			c-16.4-23.2-43-37-71.4-37c-28.4,0-55.1,13.8-71.4,37l0,0c-1.9-0.9-3.8-1.8-5.8-2.6c17.5-25.5,46.4-40.7,77.2-40.7
			c30.9,0,59.8,15.2,77.2,40.7l0,0C78.1,585.8,76.2,586.7,74.2,587.6z M92.2,580.7C72.7,550.2,39,531.8,2.8,531.8
			c-36.2,0-69.9,18.4-89.4,48.9c-2.1-0.6-4.2-1.2-6.3-1.7c20.5-33.2,56.7-53.4,95.7-53.4c39,0,75.2,20.2,95.7,53.5
			C96.4,579.6,94.3,580.1,92.2,580.7L92.2,580.7z M124.1,575.6c1.2,0,2.4-0.1,3.7-0.1s2.5,0,3.7,0.1c-1.2,0-2.4-0.1-3.7-0.1
			C126.6,575.6,125.3,575.6,124.1,575.6L124.1,575.6z M140.1,576.2h0.1c0-0.2,0-0.4,0-0.6c0-6.9-5.6-12.5-12.5-12.5
			s-12.5,5.6-12.5,12.5c0,0.2,0,0.4,0,0.6h0.1c-1.3,0.1-2.6,0.3-3.8,0.4l0,0c-1.2-2.1-2.4-4.1-3.7-6.1c0.4,0.7,0.9,1.4,1.4,2.1
			c1.6-10.2,11.1-17.2,21.4-15.6c8.1,1.2,14.4,7.6,15.6,15.6c0.4-0.7,0.9-1.4,1.4-2.1c-1.3,2-2.5,4-3.7,6.1l0,0
			C142.7,576.4,141.4,576.3,140.1,576.2L140.1,576.2z M132.7,575.7c0.8,0,1.7,0.1,2.5,0.1C134.3,575.7,133.5,575.7,132.7,575.7
			L132.7,575.7z M136.5,575.9c0.9,0.1,1.8,0.1,2.7,0.2C138.3,576,137.4,575.9,136.5,575.9L136.5,575.9z M122.9,575.7
			c-0.8,0-1.7,0.1-2.5,0.1C121.2,575.7,122.1,575.7,122.9,575.7L122.9,575.7z M119.1,575.9c-0.9,0.1-1.8,0.1-2.7,0.2
			C117.3,576,118.2,575.9,119.1,575.9L119.1,575.9z M280,622.7L280,622.7c-8.5-15-27.5-20.3-42.6-11.9c-5,2.8-9.1,6.9-11.9,11.9l0,0
			c-1.4-1.7-2.8-3.4-4.2-5c11.2-17.4,34.4-22.3,51.8-11.1c4.4,2.9,8.2,6.7,11.1,11.1C282.8,619.3,281.4,621,280,622.7L280,622.7z
			 M293.2,608.6L293.2,608.6c-16.3-22.3-47.6-27.2-69.9-10.9c-4.2,3-7.8,6.7-10.9,10.9c-1.5-1.4-3.1-2.8-4.7-4.1
			c18.5-24.9,53.7-30.1,78.6-11.5c4.4,3.3,8.3,7.1,11.5,11.5l0,0C296.3,605.8,294.7,607.2,293.2,608.6z M307.9,596.9
			c-22.7-30.4-65.8-36.7-96.2-14c-5.3,4-10,8.7-14,14c-1.7-1.2-3.5-2.3-5.2-3.4l0,0c24.5-33.3,71.4-40.5,104.7-15.9
			c6.1,4.5,11.5,9.9,15.9,15.9C311.4,594.7,309.6,595.8,307.9,596.9L307.9,596.9z M324.2,587.6L324.2,587.6
			c-27.8-39.5-82.4-48.9-121.9-21c-8.2,5.8-15.3,12.9-21,21l0,0c-1.9-0.9-3.8-1.8-5.8-2.6c29.2-42.7,87.5-53.5,130.2-24.3
			c9.5,6.5,17.8,14.8,24.3,24.3l0,0C328.1,585.8,326.2,586.7,324.2,587.6z M342.2,580.7c-31.7-49.4-97.3-63.8-146.7-32.1
			c-12.9,8.3-23.8,19.2-32.1,32.1c-2.1-0.6-4.2-1.2-6.3-1.7c32.6-52.9,101.8-69.3,154.7-36.8c15,9.2,27.5,21.8,36.8,36.8
			C346.4,579.5,344.3,580.1,342.2,580.7L342.2,580.7z M374.1,575.6c1.2,0,2.5-0.1,3.7-0.1s2.5,0,3.7,0.1c-1.2,0-2.5-0.1-3.7-0.1
			S375.3,575.6,374.1,575.6L374.1,575.6z M390.1,576.2h0.1c0-0.2,0-0.4,0-0.6c0-6.9-5.6-12.5-12.5-12.5s-12.5,5.6-12.5,12.5
			c0,0.2,0,0.4,0,0.6h0.1c-1.3,0.1-2.5,0.3-3.8,0.4l0,0c-1.2-2.1-2.4-4.1-3.7-6.1c0.5,0.7,0.9,1.4,1.4,2.1
			c1.6-10.2,11.1-17.2,21.4-15.6c8.1,1.2,14.4,7.6,15.6,15.6c0.5-0.7,0.9-1.4,1.4-2.1c-1.3,2-2.5,4-3.7,6.1l0,0
			C392.7,576.4,391.4,576.3,390.1,576.2L390.1,576.2z M382.7,575.7c0.8,0,1.7,0.1,2.5,0.1C384.3,575.7,383.5,575.7,382.7,575.7
			L382.7,575.7z M386.5,575.9c0.9,0.1,1.8,0.1,2.7,0.2C388.3,576,387.4,575.9,386.5,575.9L386.5,575.9z M372.9,575.7
			c-0.8,0-1.7,0.1-2.5,0.1C371.2,575.7,372.1,575.7,372.9,575.7L372.9,575.7z M369.1,575.9c-0.9,0.1-1.8,0.1-2.7,0.2
			C367.3,576,368.2,575.9,369.1,575.9L369.1,575.9z M530,622.7L530,622.7c-8.5-15-27.5-20.3-42.6-11.9c-5,2.8-9.1,6.9-11.9,11.9l0,0
			c-1.4-1.7-2.8-3.4-4.2-5c11.2-17.4,34.4-22.3,51.8-11.1c4.4,2.9,8.2,6.7,11.1,11.1C532.8,619.3,531.4,621,530,622.7L530,622.7z
			 M543.2,608.6L543.2,608.6c-16.3-22.3-47.6-27.2-69.9-10.9c-4.2,3-7.8,6.7-10.9,10.9c-1.5-1.4-3.1-2.8-4.7-4.1
			c18.5-24.9,53.7-30.1,78.6-11.5c4.4,3.3,8.3,7.1,11.5,11.5l0,0C546.3,605.8,544.7,607.2,543.2,608.6z M557.9,596.9
			c-22.7-30.4-65.8-36.7-96.2-14c-5.3,4-10,8.7-14,14c-1.7-1.2-3.5-2.3-5.2-3.4l0,0c24.5-33.3,71.4-40.5,104.7-15.9
			c6.1,4.5,11.5,9.9,15.9,15.9C561.4,594.7,559.6,595.8,557.9,596.9L557.9,596.9z M574.2,587.6L574.2,587.6
			c-27.8-39.5-82.4-48.9-121.9-21c-8.2,5.8-15.3,12.9-21,21l0,0c-1.9-0.9-3.8-1.8-5.8-2.6c29.2-42.7,87.5-53.5,130.2-24.3
			c9.5,6.5,17.8,14.8,24.3,24.3l0,0C578.1,585.8,576.2,586.7,574.2,587.6z M592.2,580.7c-31.7-49.4-97.3-63.8-146.7-32.1
			c-12.9,8.3-23.8,19.2-32.1,32.1c-2.1-0.6-4.2-1.2-6.3-1.7c32.6-52.9,101.8-69.3,154.7-36.8c15,9.2,27.5,21.8,36.8,36.8
			C596.4,579.5,594.3,580.1,592.2,580.7L592.2,580.7z M602.8,563.1c1.6,2.1,3.1,4.2,4.5,6.5C605.9,567.3,604.4,565.2,602.8,563.1z
			 M624.1,575.6c1.2,0,2.5-0.1,3.7-0.1s2.5,0,3.7,0.1c-1.2,0-2.5-0.1-3.7-0.1S625.3,575.6,624.1,575.6z M640.1,576.1h0.1
			c0-0.2,0-0.4,0-0.6c0-6.9-5.6-12.5-12.5-12.5s-12.5,5.6-12.5,12.5c0,0.2,0,0.4,0,0.6h0.1c-1.3,0.1-2.5,0.3-3.8,0.4l0,0
			c-1.2-2.1-2.4-4.1-3.7-6.1c0.5,0.7,0.9,1.4,1.4,2.1c1.6-10.2,11.1-17.2,21.4-15.6c8.1,1.2,14.4,7.6,15.6,15.6
			c0.5-0.7,0.9-1.4,1.4-2.1c-1.3,2-2.5,4-3.7,6.1l0,0C642.7,576.4,641.4,576.3,640.1,576.1L640.1,576.1z M632.7,575.6
			c0.8,0,1.7,0.1,2.5,0.1C634.3,575.7,633.5,575.7,632.7,575.6L632.7,575.6z M636.5,575.8c0.9,0.1,1.8,0.1,2.7,0.2
			C638.3,576,637.4,575.9,636.5,575.8L636.5,575.8z M622.9,575.6c-0.8,0-1.7,0.1-2.5,0.1C621.2,575.7,622.1,575.7,622.9,575.6
			L622.9,575.6z M619.1,575.8c-0.9,0.1-1.8,0.1-2.7,0.2C617.3,576,618.2,575.9,619.1,575.8L619.1,575.8z M648.2,569.6
			c1.4-2.2,3-4.3,4.5-6.5C651.2,565.2,649.7,567.3,648.2,569.6z M653.6,562c0.5-0.6,0.9-1.2,1.4-1.8c-8.5-15-27.5-20.3-42.6-11.9
			c-5,2.8-9.1,6.9-11.9,11.9c0.5,0.6,0.9,1.2,1.4,1.8c-1.9-2.5-3.9-4.9-6-7.2c0.1,0.1,0.3,0.3,0.4,0.4
			c11.2-17.4,34.4-22.3,51.8-11.1c4.4,2.9,8.2,6.7,11.1,11.1c0.1-0.1,0.3-0.3,0.4-0.4C657.5,557.1,655.5,559.5,653.6,562L653.6,562z
			 M667.7,546.6c0.2-0.2,0.3-0.3,0.5-0.5c-16.3-22.3-47.6-27.2-69.9-10.9c-4.2,3-7.8,6.7-10.9,10.9c0.2,0.1,0.3,0.3,0.5,0.5
			c-1.8-1.7-3.7-3.4-5.7-5c0.2,0.1,0.3,0.3,0.5,0.4c18.5-24.9,53.7-30.1,78.6-11.5c4.4,3.3,8.3,7.1,11.5,11.5
			c0.2-0.1,0.3-0.3,0.5-0.4C671.4,543.2,669.5,544.8,667.7,546.6L667.7,546.6z M663.6,550.6l0.1-0.1L663.6,550.6z M592,550.6
			l-0.1-0.1L592,550.6z M748.9,513.2c1.3,0,2.6-0.1,3.9-0.1c1.1,0,2.1,0,3.2,0c-1,0-2.1,0-3.2,0
			C751.5,513.1,750.2,513.1,748.9,513.2L748.9,513.2z M745,513.4l2.7-0.1L745,513.4z M759.1,513.3L759.1,513.3z M853.3,563.7
			c-1.4-1.9-2.8-3.7-4.3-5.5l0,0c25-53.1,2.1-116.4-51-141.3c-48.3-22.7-105.9-6.1-134.6,38.8c-2.1-0.6-4.2-1.2-6.3-1.7
			c32.6-52.8,101.9-69.2,154.8-36.6C861.5,448.1,879.4,511.6,853.3,563.7L853.3,563.7z M859.3,572.7l-0.3-0.5L859.3,572.7z
			 M857.5,569.8l-0.4-0.6L857.5,569.8z M855.5,566.9l-0.3-0.4L855.5,566.9z M846.5,555.5l0.3,0.3L846.5,555.5z M859,447.2l0.3,0.5
			L859,447.2z M855.1,441.4l0.3,0.4L855.1,441.4z M857.1,444.3l0.4,0.6L857.1,444.3z"/>
		<path class="st0" d="M252.8,20.6c127.1,0.1,230,103.2,229.9,230.3c-0.1,92.3-55.3,175.7-140.4,211.7
			c-117.4,48.5-252-7.3-300.5-124.7c-48-116.2,6.1-249.4,121.5-299.1C191.6,26.7,222.1,20.5,252.8,20.6 M252.8,0.6
			c-138.1,0-250,111.9-250,250s111.9,250,250,250s250-111.9,250-250S390.9,0.6,252.8,0.6z"/>
	</g>
</g>
</svg>
