<svg xmlns="http://www.w3.org/2000/svg" viewBox="0 0 96.63 46.4"><defs><style>.cls-1{fill:#ed1c24;}.cls-2{fill:#231f20;}.cls-3{fill:#ed2024;}</style></defs><title>cats-digital-marketing</title><g id="Layer_2" data-name="Layer 2"><g id="Layer_1-2" data-name="Layer 1"><path class="cls-1" d="M68.13,9.7a3,3,0,0,0-.79.1c-.94.18-1.88.33-2.81.55a18.77,18.77,0,0,0-5.29,2.11,8.08,8.08,0,0,0-2,1.62,5.44,5.44,0,0,0-1.44,3.11,3.17,3.17,0,0,0,.62,2.24,3.66,3.66,0,0,0,1.14,1,13.52,13.52,0,0,0,2.26,1c.87.29,1.75.53,2.6.85a6.37,6.37,0,0,1,1.87,1,2.9,2.9,0,0,1,1,1.62,3.8,3.8,0,0,1-.48,2.85,5.46,5.46,0,0,1-1.27,1.44,9.79,9.79,0,0,1-2,1.28A19.72,19.72,0,0,1,57.18,32a16.73,16.73,0,0,1-3.06.52c-.38,0-.76,0-1.13,0a35.19,35.19,0,0,1-3.56-.11,17.07,17.07,0,0,1-2.94-.52,8.23,8.23,0,0,1-2.63-1.19,4.47,4.47,0,0,1-1.8-2.58,8.81,8.81,0,0,1-.22-1.84,29.42,29.42,0,0,1,.21-4.09c.17-1.47.4-2.94.69-4.4a6.43,6.43,0,0,1,.35-1.21,1.13,1.13,0,0,1,.95-.71l1.55-.19c.91-.1,1.83-.18,2.75-.23a15.14,15.14,0,0,1,2.13,0,5.62,5.62,0,0,0,1.42-.06,3.44,3.44,0,0,0,1.48-.6,1.36,1.36,0,0,0,.45-.53.54.54,0,0,0-.18-.73,2.15,2.15,0,0,0-.63-.3,5.25,5.25,0,0,0-2.78-.06,19.13,19.13,0,0,1-2.51.46l-2.44.28a2.54,2.54,0,0,1-.73,0,.61.61,0,0,1-.55-.56,1.76,1.76,0,0,1,0-.4,3.42,3.42,0,0,1,.24-1c.52-1.55,1.13-3.06,1.75-4.57.76-1.83,1.51-3.66,2.38-5.44a1.89,1.89,0,0,0,.09-.21A1.07,1.07,0,0,0,48.15.59a1.75,1.75,0,0,0-.61-.38,3.1,3.1,0,0,0-2.28,0,4.06,4.06,0,0,0-2.16,2,8.21,8.21,0,0,0-.71,2C42,6,41.77,7.74,41.49,9.49c-.14.84-.28,1.69-.44,2.52a2.15,2.15,0,0,1-.82,1.31,5.56,5.56,0,0,1-.87.55,12,12,0,0,1-1.74.71,7.86,7.86,0,0,1-1.15.32.66.66,0,0,1-.86-.64,4.57,4.57,0,0,1,0-.75,6.3,6.3,0,0,0,0-1,4.35,4.35,0,0,0-3.3-3.64,7.6,7.6,0,0,0-2.69-.09,19,19,0,0,0-5.12,1.45A3.66,3.66,0,0,0,23,11.42a.83.83,0,0,0-.16.31.26.26,0,0,0,.22.37,1.08,1.08,0,0,0,.4,0,5,5,0,0,0,1.23-.48,9,9,0,0,1,4.64-.95,5.46,5.46,0,0,1,2.65.85,3.57,3.57,0,0,1,1,.91,2.71,2.71,0,0,1,.52,1.37,2.27,2.27,0,0,1-1,2,3.84,3.84,0,0,1-1,.51c-1.31.48-2.61,1-3.88,1.56a24.27,24.27,0,0,0-4.13,2.32,10.1,10.1,0,0,0-1.91,1.73,5.22,5.22,0,0,0-1,1.77,2.57,2.57,0,0,0-.1,1.26,1.91,1.91,0,0,0,1.33,1.5,4.27,4.27,0,0,0,1.7.23,15.14,15.14,0,0,0,2.43-.35,29.59,29.59,0,0,0,6-2.06,1,1,0,0,1,.3-.12s0,.07,0,.09a6.31,6.31,0,0,1-.77,3.13,3.82,3.82,0,0,0-.21.46,1.73,1.73,0,0,0-.12.51.71.71,0,0,0,.78.82l.18,0a1.91,1.91,0,0,0,.41-.11,5.59,5.59,0,0,0,1.32-.76,1.86,1.86,0,0,0,.79-1.47c0-1,.13-1.94.22-2.9.14-1.7.3-3.4.51-5.09a6.68,6.68,0,0,1,.27-1.33,1.53,1.53,0,0,1,1.32-1.08c.82-.1,1.64-.1,2.46-.13a.63.63,0,0,1,.67.64,2.7,2.7,0,0,1-.07.85A56,56,0,0,0,38.91,24a15.7,15.7,0,0,0,0,3.56,8,8,0,0,0,.64,2.34,6.74,6.74,0,0,0,2.74,2.95,12.11,12.11,0,0,0,3,1.3,17.1,17.1,0,0,0,4.67.6A27,27,0,0,0,56.16,34a22.91,22.91,0,0,0,5.73-2.1,16.5,16.5,0,0,0,3.3-2.26,8.22,8.22,0,0,0,1.93-2.42,5,5,0,0,0,.33-3.89,4,4,0,0,0-2.56-2.69,11.77,11.77,0,0,0-1.16-.33c-.8-.2-1.61-.36-2.41-.6a8.59,8.59,0,0,1-2.15-1A2.42,2.42,0,0,1,58,17.09a2.57,2.57,0,0,1,.25-1.59,4.92,4.92,0,0,1,1-1.44,10,10,0,0,1,2.24-1.69,7.2,7.2,0,0,1,3.13-1,3.81,3.81,0,0,1,2.77.69.44.44,0,0,0,.69-.08,4,4,0,0,0,.65-1.09,1.16,1.16,0,0,0,.07-.42A.72.72,0,0,0,68.13,9.7ZM32.82,20.77A5.18,5.18,0,0,1,31,23.2a11.11,11.11,0,0,1-2.71,1.47,8.8,8.8,0,0,1-2.42.62,3.69,3.69,0,0,1-1.68-.17,2.42,2.42,0,0,1-1.14-.83,1.71,1.71,0,0,1-.26-1.62,3.18,3.18,0,0,1,.7-1.17,7.32,7.32,0,0,1,1.62-1.37,17.42,17.42,0,0,1,5-2.17,5.47,5.47,0,0,1,1.2-.15,3.19,3.19,0,0,1,.64.07A1.31,1.31,0,0,1,33,19,3.37,3.37,0,0,1,32.82,20.77Z"/><path class="cls-1" d="M29.89,30.48a.54.54,0,0,0-.84-.23,4.76,4.76,0,0,1-1,.44c-.28.09-.56.18-.84.25a37,37,0,0,1-8.63,1.15,22.23,22.23,0,0,1-5.91-.7,16.64,16.64,0,0,1-4.61-1.86,10.44,10.44,0,0,1-3.2-2.86,7.35,7.35,0,0,1-1.44-4.48,17.49,17.49,0,0,1,.69-4.72,19.81,19.81,0,0,1,6.66-9.93,20.07,20.07,0,0,1,7-3.61,23.09,23.09,0,0,1,4.8-1,18.19,18.19,0,0,1,2.66-.08A11.17,11.17,0,0,1,27,3.1a8.45,8.45,0,0,1,1.76.65,6.63,6.63,0,0,0,.91.36,1,1,0,0,0,1.17-.39,7.56,7.56,0,0,0,1.11-1.95,6.16,6.16,0,0,0,.33-1A.42.42,0,0,0,32,.25a1.8,1.8,0,0,0-.53-.14A11.2,11.2,0,0,0,30.18,0,33.49,33.49,0,0,0,24.79.2a29.45,29.45,0,0,0-5.58,1.17A28.06,28.06,0,0,0,2.69,14.57,22.74,22.74,0,0,0,.58,19.39a13.17,13.17,0,0,0-.32,6.42,7.89,7.89,0,0,0,2.5,4.41c.38.33.77.65,1.18.94A17.69,17.69,0,0,0,9,33.5a23.78,23.78,0,0,0,6.75,1c1.38,0,2.75,0,4.25,0l2.21-.06c2.15-.08,4.31-.2,6.46-.35a3.58,3.58,0,0,0,.92-.13.88.88,0,0,0,.65-.75,3.16,3.16,0,0,0,0-.32,7.4,7.4,0,0,0-.05-1.33A3.15,3.15,0,0,0,29.89,30.48Z"/><path class="cls-2" d="M47.93,46.05V40.72c0-.07,0-.1-.11-.1s-.3,0-.45,0a.31.31,0,0,0-.37.23c-.62,1.45-1.28,2.88-1.88,4.34l0-.06c-.34-.92-.76-1.8-1.13-2.7-.23-.56-.48-1.11-.71-1.66,0-.06,0-.15-.15-.15h-.7a.08.08,0,0,0-.09.09v5.5a.08.08,0,0,0,.09.09h.46c.07,0,.1,0,.09-.11V42.05a1.29,1.29,0,0,1,0-.44h0a.2.2,0,0,0,0-.07.3.3,0,0,1,.08.2,2.74,2.74,0,0,0,.21.54c.55,1.29,1.12,2.57,1.67,3.86a.25.25,0,0,0,.48,0L45.83,45c.47-1.07.93-2.14,1.39-3.21l.05-.21h0v.32a1.32,1.32,0,0,1,0,.34v3.56c0,.16-.07.36,0,.46s.32,0,.49,0,.13,0,.13-.13A.48.48,0,0,1,47.93,46.05Z"/><path class="cls-2" d="M89.36,40.62h-.53c0,.4,0,.8,0,1.2,0,1.15,0,2.31,0,3.46,0,0,0,0,0,.07a.13.13,0,0,1-.09-.11l-1.56-2.51c-.4-.65-.81-1.3-1.22-2,0-.08-.07-.17-.19-.17h-.65c-.07,0-.11,0-.11.1v5.47c0,.08,0,.11.12.11h.38c.13,0,.16,0,.16-.17V41.94a1.71,1.71,0,0,1,0-.46c.08,0,.1.06.1.12l.21.36,2.45,3.88a1.35,1.35,0,0,0,.29.43c.15.09.36,0,.54,0s.27,0,.27-.27V40.74C89.48,40.65,89.44,40.62,89.36,40.62Z"/><path class="cls-2" d="M3,40.84a3.26,3.26,0,0,0-1-.21H.27c-.24,0-.21,0-.21.22v5.3c0,.09,0,.17.12.16a14.07,14.07,0,0,0,2,0,2.59,2.59,0,0,0,2.26-1.93,3.5,3.5,0,0,0,0-2.1A2.1,2.1,0,0,0,3,40.84Zm.69,3.4A2,2,0,0,1,1.9,45.66c-.33,0-.67,0-1,0s-.18,0-.18-.18V41.41c0-.13,0-.18.17-.18h.56a3.11,3.11,0,0,1,1,.1,1.68,1.68,0,0,1,1.3,1.31A3.06,3.06,0,0,1,3.71,44.24Z"/><path class="cls-2" d="M59.78,43.69s0,0,0,0l.16-.07a1.47,1.47,0,0,0,1-1.37,1.41,1.41,0,0,0-1.12-1.54,2.57,2.57,0,0,0-.55-.06H57.8c-.19,0-.19,0-.19.19a.22.22,0,0,0,0,.08v5.29c0,.09,0,.12.11.12h.35c.19,0,.2,0,.2-.19,0-.57,0-1.14,0-1.71,0-.16-.08-.38,0-.48s.32,0,.48,0a1,1,0,0,1,.77.36,3.37,3.37,0,0,1,.31.46l.83,1.43c0,.06.06.16.15.16a4.54,4.54,0,0,0,.73,0l-1.15-1.89A1.83,1.83,0,0,0,59.78,43.69Zm-.59-.42h-.78c-.11,0-.15,0-.14-.15V41.37c0-.07,0-.14.1-.13a6.77,6.77,0,0,1,1.1,0,.85.85,0,0,1,.78.81,1,1,0,0,1-.56,1.07A1.46,1.46,0,0,1,59.19,43.27Z"/><path class="cls-2" d="M96.63,43.48c0-.12,0-.15-.16-.15-.43,0-.86,0-1.28,0s-.46,0-.44.48c0,.1,0,.14.15.14h.9c.11,0,.17,0,.16.15,0,.43,0,.85,0,1.28a.22.22,0,0,1-.16.22,2.5,2.5,0,0,1-1.11.18A1.84,1.84,0,0,1,93,44.44a2.94,2.94,0,0,1-.07-1.61,2,2,0,0,1,1.57-1.64,2.76,2.76,0,0,1,1.83.26.48.48,0,0,0,.24.09V41c0-.2,0-.2-.21-.28a3.49,3.49,0,0,0-1.5-.21,2.65,2.65,0,0,0-2.36,1.52,3.31,3.31,0,0,0-.07,2.85,2.25,2.25,0,0,0,1.39,1.32A3.45,3.45,0,0,0,96.51,46a.17.17,0,0,0,.11-.2C96.62,45,96.62,44.25,96.63,43.48Z"/><path class="cls-2" d="M14.82,43.33c-.43,0-.85,0-1.28,0-.14,0-.32-.06-.41,0s0,.28,0,.42,0,.16.15.16c.29,0,.59,0,.88,0s.17,0,.17.18c0,.4,0,.8,0,1.2a.26.26,0,0,1-.19.28,2.48,2.48,0,0,1-1.11.15,1.77,1.77,0,0,1-1.66-1.2,2.81,2.81,0,0,1-.06-2A2,2,0,0,1,13,41.16a2.88,2.88,0,0,1,1,.05,3.32,3.32,0,0,1,.9.36V41c0-.22,0-.22-.2-.29a3.49,3.49,0,0,0-1.5-.21,2.68,2.68,0,0,0-2.46,1.73,3.33,3.33,0,0,0,0,2.5,2.29,2.29,0,0,0,1.45,1.46A3.41,3.41,0,0,0,14.87,46a.2.2,0,0,0,.11-.2c0-.76,0-1.53,0-2.29C15,43.36,14.93,43.33,14.82,43.33Z"/><path class="cls-2" d="M28.94,41.07c-.06-.14-.08-.32-.18-.41s-.3,0-.46,0-.22,0-.29.21l-2,5.25c0,.07-.08.13,0,.22h.47c.24,0,.21.05.3-.2.14-.41.29-.81.41-1.21a.24.24,0,0,1,.27-.19h1.94a.24.24,0,0,1,.26.19c.14.42.3.83.45,1.25a.2.2,0,0,0,.24.16h.54A.86.86,0,0,0,30.8,46Zm.38,3H27.51a.36.36,0,0,1,0-.21c.25-.69.5-1.39.74-2.08,0-.1.06-.2.1-.31s0-.08,0-.08,0,0,0,.08l.9,2.54A.07.07,0,0,1,29.32,44.09Z"/><path class="cls-2" d="M53.27,41.05c-.05-.14-.06-.32-.18-.4s-.29,0-.44,0-.23,0-.31.22l-2,5.21c0,.07-.09.14,0,.25h.4c.36,0,.28.05.39-.28s.27-.77.4-1.15c0-.1.08-.17.21-.17h2c.12,0,.16,0,.2.15.1.3.21.6.33.89s.06.46.25.54a1.19,1.19,0,0,0,.65,0c0-.1,0-.19-.07-.28Zm-1.44,3c.28-.89.64-1.75.91-2.64,0,0,0-.06,0-.06s0,0,0,.07a1.78,1.78,0,0,0,.13.45l.7,2c0,.07,0,.14.08.23Z"/><path class="cls-2" d="M65.38,43.51c-.18-.2-.17-.14,0-.33l2-2.35c0-.06.14-.1.13-.21-.19,0-.38,0-.56,0a.38.38,0,0,0-.36.17L64.74,43a.43.43,0,0,1-.15.15.44.44,0,0,1,0-.25V41.06c0-.14.06-.32,0-.41s-.27,0-.41,0-.22,0-.22.22v5c0,.54,0,.54.55.49.08,0,.12,0,.12-.11V43.81c0-.07,0-.15,0-.22l.85,1,1.26,1.53c.06.08.11.16.24.15h.77a.65.65,0,0,0-.15-.22Z"/><path class="cls-2" d="M73,45.8c0-.08,0-.12-.12-.12h-2c-.17,0-.18,0-.18-.18V43.89c0-.17,0-.18.18-.18h1.43c.39,0,.39,0,.39-.38,0-.23,0-.23-.23-.23H70.9c-.18,0-.19,0-.19-.17,0-.51,0-1,0-1.53,0-.14.05-.17.17-.17h1.58c.41,0,.41,0,.41-.41,0-.21,0-.21-.2-.21H70.23c-.19,0-.19,0-.19.19,0,.88,0,1.76,0,2.64s0,1.77,0,2.66c0,.19,0,.19.19.19h2.31c.46,0,.46,0,.44-.47C73,45.82,73,45.81,73,45.8Z"/><path class="cls-2" d="M24.54,40.62H21.37c-.14,0-.32-.06-.4,0s0,.29,0,.44.05.15.16.15c.41,0,.82,0,1.23,0,.19,0,.19,0,.19.19v4.39c0,.15-.06.34,0,.44s.32,0,.48,0,.17,0,.17-.15c0-.29,0-.57,0-.86V41.45c0-.21,0-.21.22-.21h1c.4,0,.4,0,.39-.4C24.77,40.6,24.8,40.62,24.54,40.62Z"/><path class="cls-2" d="M78.77,40.62H75.16a.1.1,0,0,0-.11.11c0,.13,0,.27,0,.4a.1.1,0,0,0,.11.11,1,1,0,0,1,.17,0h1.16c.12,0,.17,0,.15.16v4.76c0,.11,0,.16.14.15h.28c.24,0,.24.05.24-.24V41.42c0-.18,0-.18.18-.18s.4,0,.6,0,.47,0,.7,0,.12,0,.12-.12v-.38C78.91,40.64,78.86,40.61,78.77,40.62Z"/><path class="cls-2" d="M36,45.68H34.29c-.36,0-.36,0-.36-.35V40.74c0-.09,0-.12-.12-.12h-.35c-.2,0-.2,0-.2.21v5.25c0,.22,0,.22.21.22h2.46c.22,0,.22,0,.23-.21v-.2C36.15,45.68,36.15,45.68,36,45.68Z"/><path class="cls-2" d="M82,40.66c-.1-.11-.28,0-.43,0s-.22,0-.22.22v5.34c0,.09,0,.12.12.12h.43c.1,0,.13,0,.13-.13A1.08,1.08,0,0,1,82,46V41.08C82,40.94,82.06,40.76,82,40.66Z"/><path class="cls-2" d="M7.61,40.62H7.28c-.1,0-.14,0-.13.13v5.09c0,.15-.06.32,0,.42s.28,0,.43,0,.22,0,.22-.22V40.84C7.83,40.62,7.83,40.62,7.61,40.62Z"/><path class="cls-2" d="M18.35,40.62a2.81,2.81,0,0,1-.41,0c-.1,0-.13,0-.12.13v5.1c0,.14-.06.32,0,.41s.28,0,.43,0,.2,0,.2-.21V40.77C18.49,40.66,18.46,40.61,18.35,40.62Z"/><path class="cls-2" d="M88.81,45c0-1.38,0-2.75,0-4.13a.82.82,0,0,1,0-.27c-.1.07,0,.17,0,.25v4.21c0,.06,0,.12,0,.16C88.88,45.21,88.81,45.1,88.81,45Z"/><path class="cls-2" d="M47.28,41.7a.21.21,0,0,1-.06.1c.09.14,0,.3.05.45A3.37,3.37,0,0,0,47.28,41.7Z"/><path class="cls-2" d="M42.9,41.61h0c.06.14,0,.29,0,.44,0-.1,0-.22.06-.31a.16.16,0,0,1-.06-.13S42.91,41.6,42.9,41.61Z"/><path class="cls-2" d="M85.65,41.66a.67.67,0,0,0,0,.28c0-.11,0-.24,0-.34C85.63,41.54,85.65,41.62,85.65,41.66Z"/><path class="cls-2" d="M28.39,41.49h0S28.4,41.47,28.39,41.49Z"/><path class="cls-2" d="M52.78,41.45s0,0,0,0h0Z"/><path class="cls-3" d="M93.7,14.12l-10.93-11L82.66,3c0-.06-.09-.06-.14,0l-.11.1-11,11a.39.39,0,0,0-.15.22l1.44,1.39L71.31,17.2l.16.18,10.94,11,.1.11a.09.09,0,0,0,.15,0l.11-.11,11-11a.38.38,0,0,0,.14-.22l-1.44-1.39,1.45-1.46Zm-.13,3.1-11,11.05q-5.5-5.52-11-11L72.94,16l9.65,9.71,9.66-9.73ZM73,15.75c3.19-3.2,6.36-6.39,9.55-9.61l9.54,9.61-9.54,9.61Zm19.17-.17a.91.91,0,0,0-.12-.17q-4.65-4.66-9.29-9.35c-.21-.21-.21-.21-.43,0L73.1,15.4a1.3,1.3,0,0,0-.15.2l-1.34-1.31,11-11.06,11,11Z"/><path class="cls-3" d="M85.22,4.54c.11.11.16,0,.23,0l2.07-2.08s0-.05.08-.11L85.42.17c-.12-.12-.17,0-.23,0l-2,2a.52.52,0,0,0-.1.11l.05.07ZM83.71,2,85.2.49c.08-.08.14-.11.24,0,.61.61,1.24,1.22,1.83,1.8a.2.2,0,0,1-.09.2L85.47,4.2c-.14.14-.12.17-.27,0L83.44,2.45a.19.19,0,0,1-.07-.13C83.47,2.22,83.6,2.11,83.71,2Z"/><path class="cls-3" d="M86.12,5.29l.07.1c.7.7,1.4,1.4,2.09,2.11.1.1.15.06.23,0l2-2.06.08-.1,0-.06c-.7-.7-1.4-1.4-2.09-2.11-.09-.09-.15-.1-.24,0l-1,1Zm2.13-1.82c.14-.13.14-.13.27,0,.58.58,1.15,1.17,1.74,1.75.08.08.1.12,0,.22L88.49,7.2c-.07.08-.11.1-.2,0L86.47,5.38s0,0,0-.07a.46.46,0,0,1,.07-.07Z"/><path class="cls-3" d="M94.26,8.9h0c-.71.71-1.41,1.43-2.13,2.13-.09.1,0,.15,0,.22l1.61,1.62.49.5,2.3-2.26Zm0,4.21s-.06,0-.09-.08l-1.74-1.74c-.17-.17-.13-.15,0-.29l1.71-1.72.12-.11s0,0,.08.07L96.15,11c.08.08.11.13,0,.22Z"/><path class="cls-3" d="M91.09,6.14l-2,2c-.16.16-.17.14,0,.3l2,2s.07.1.1.06l2.27-2.24L91.2,6A1.13,1.13,0,0,0,91.09,6.14Zm.13,4.06-2-1.93L91.2,6.32l2,2Z"/><path class="cls-3" d="M92.1,5.73l1.34,1.36c.07.07.11.06.18,0,.42-.46.84-.93,1.27-1.39.08-.08.06-.13,0-.2-.48-.45-.95-.91-1.45-1.39-.07.09-.16.18-.25.28L92.13,5.53C92.07,5.59,92,5.64,92.1,5.73Zm.29-.18c.36-.38.71-.77,1.06-1.15.39.38.76.74,1.14,1.09.07.07.09.12,0,.21-.33.35-.66.71-1,1.07-.08.08-.13.08-.2,0l-1-1C92.33,5.67,92.32,5.62,92.39,5.55Z"/><path class="cls-3" d="M91.48,4.9l1.4-1.53a15.14,15.14,0,0,0-1.52-1.51L90,3.32c-.07.07-.08.11,0,.18ZM90.31,3.31c.33-.36.67-.72,1-1.09.06-.06.1-.07.16,0l1.06,1.07c.07.06,0,.11,0,.16L91.46,4.61,90.31,3.5C90.23,3.43,90.24,3.38,90.31,3.31Z"/><path class="cls-3" d="M95.53,2.7c.07-.08,0-.12,0-.18l-1-1c-.06-.07-.11-.07-.18,0-.34.38-.69.75-1,1.12l1.2,1.16Zm-1.92-.08.82-.89c.15.15.3.28.43.43s.33.27.43.48l-.42.46-.38.41Z"/><path class="cls-3" d="M82.73,22.39l0,0q3.31-3.33,6.61-6.67a.42.42,0,0,0,.17-.2l-7-7a.67.67,0,0,0-.2.17l-6.61,6.66-.07.07c-.09.07-.11.14,0,.22l.11.11,3.07,3.09,3.54,3.57C82.58,22.55,82.56,22.56,82.73,22.39Z"/></g></g></svg>