<svg xmlns="http://www.w3.org/2000/svg" xmlns:xlink="http://www.w3.org/1999/xlink" viewBox="0 0 1784.68 648.53"><defs><style>.cls-1{fill:url(#linear-gradient);}.cls-2{fill:url(#linear-gradient-2);}.cls-3{fill:url(#linear-gradient-3);}.cls-4{fill:url(#linear-gradient-4);}.cls-5{fill:url(#linear-gradient-5);}.cls-6{fill:url(#linear-gradient-6);}.cls-7{fill:url(#linear-gradient-7);}.cls-8{fill:url(#linear-gradient-8);}.cls-9{fill:url(#linear-gradient-9);}.cls-10{fill:url(#linear-gradient-10);}.cls-11{fill:#d30202;}.cls-12{fill:url(#linear-gradient-11);}.cls-13{fill:url(#linear-gradient-12);}</style><linearGradient id="linear-gradient" y1="324.27" x2="628.68" y2="324.27" gradientUnits="userSpaceOnUse"><stop offset="0" stop-color="#980008"/><stop offset="1" stop-color="#b8000a"/></linearGradient><linearGradient id="linear-gradient-2" x1="295.32" y1="407.33" x2="494.16" y2="208.5" gradientUnits="userSpaceOnUse"><stop offset="0" stop-color="#b40009"/><stop offset="1" stop-color="red"/></linearGradient><linearGradient id="linear-gradient-3" x1="86.09" y1="308.79" x2="303.96" y2="308.79" gradientUnits="userSpaceOnUse"><stop offset="0" stop-color="#cf000a"/><stop offset="1" stop-color="#b40009"/></linearGradient><linearGradient id="linear-gradient-4" x1="229.76" y1="343.83" x2="400.06" y2="173.53" xlink:href="#linear-gradient-2"/><linearGradient id="linear-gradient-5" x1="36.22" y1="143.16" x2="194.89" y2="143.16" xlink:href="#linear-gradient-3"/><linearGradient id="linear-gradient-6" x1="433.79" y1="143.16" x2="592.46" y2="143.16" xlink:href="#linear-gradient-3"/><linearGradient id="linear-gradient-7" x1="321.05" y1="542.71" x2="381.4" y2="542.71" xlink:href="#linear-gradient-3"/><linearGradient id="linear-gradient-8" x1="251.95" y1="542.71" x2="312.31" y2="542.71" gradientUnits="userSpaceOnUse"><stop offset="0" stop-color="#b8000a"/><stop offset="1" stop-color="#980008"/></linearGradient><linearGradient id="linear-gradient-9" x1="97.32" y1="420.69" x2="305.1" y2="420.69" xlink:href="#linear-gradient-8"/><linearGradient id="linear-gradient-10" x1="349.46" y1="512.82" x2="551.24" y2="311.04" xlink:href="#linear-gradient-2"/><linearGradient id="linear-gradient-11" x1="405.74" y1="413.24" x2="569.15" y2="413.24" xlink:href="#linear-gradient-3"/><linearGradient id="linear-gradient-12" x1="862.9" y1="707.61" x2="1630.26" y2="-59.75" gradientUnits="userSpaceOnUse"><stop offset="0.33" stop-color="#b40009"/><stop offset="1" stop-color="red"/></linearGradient></defs><title>cats-game</title><g id="Layer_2" data-name="Layer 2"><g id="Layer_1-2" data-name="Layer 1"><path class="cls-1" d="M316.36,648.53h-5.49a32.23,32.23,0,0,1-18-5.49l-.21-.15L38.56,459.49A32.19,32.19,0,0,1,25.48,430.9c3.44-45,12.25-160.49,13-171.06L.5,38.26A32.31,32.31,0,0,1,51.8,6.62L222.12,139.33H406.54L576.49,6.9A32.37,32.37,0,0,1,603.57.85h0a32.58,32.58,0,0,1,24.65,37L590.65,257.36c.65,6.83,3.13,36.6,14.06,173.54a32.15,32.15,0,0,1-13,28.54L334.38,643A32.23,32.23,0,0,1,316.36,648.53Zm-14.93-18.06a17,17,0,0,0,9.44,2.84h5.49a17,17,0,0,0,9.46-2.85L582.76,447.13a17,17,0,0,0,6.78-15c-3.68-46.14-13.25-165.57-14-173.81l-.26-1.06.27-1.55,37.72-220.4A17.1,17.1,0,0,0,600,15.66h0A17.13,17.13,0,0,0,585.76,19l-174,135.57H216.89L42.53,18.69a17.1,17.1,0,0,0-23.37,2.69A17.47,17.47,0,0,0,15.5,35.69L53.57,258.11c.22,1.28.27,1.58-12.92,174a17,17,0,0,0,6.89,15.13Z"/><path class="cls-2" d="M543.45,260.68c-.13-2.75-1.81-5.31-4.73-7.2L427.64,181.25a11.09,11.09,0,0,0-6-1.94,8.32,8.32,0,0,0-2.84.49,10,10,0,0,0-6,6.68l-87,249.41c-.83,2,.64,3.14,2.35,1.76L539.46,268.31C542.17,266.14,543.59,263.43,543.45,260.68Z"/><path class="cls-3" d="M86.1,260.68c.14-2.75,1.82-5.31,4.73-7.2l111.08-72.23a11.15,11.15,0,0,1,6-1.94,8.28,8.28,0,0,1,2.84.49,10,10,0,0,1,6,6.68l87,249.41c.84,2-.63,3.14-2.35,1.76L90.09,268.31C87.38,266.14,86,263.43,86.1,260.68Z"/><path class="cls-4" d="M312.45,426.12a2.77,2.77,0,0,0,5.22,0c14.44-41.08,85-241.79,85.64-243.64.83-2.37.74-4.47-.28-5.89s-2.95-2.21-5.46-2.21H232c-2.52,0-4.46.78-5.47,2.2s-1.1,3.51-.27,5.88C226.89,184.3,297.72,385.09,312.45,426.12Z"/><path class="cls-5" d="M36.48,49.08l32,187c.61,3.55,2.29,6.09,4.74,7.16s5.45.58,8.47-1.38L190,171.5c3-2,4.77-4.62,4.87-7.47s-1.43-5.61-4.32-7.81L43.44,44.84c-2.26-1.71-4-2.32-5.06-2.32a1.94,1.94,0,0,0-1,.23C36.53,43.28,35.82,45.22,36.48,49.08Z"/><path class="cls-6" d="M592.2,49.08l-32,187c-.61,3.55-2.29,6.09-4.74,7.16s-5.45.58-8.47-1.38L438.67,171.5c-3-2-4.77-4.62-4.87-7.47s1.43-5.61,4.33-7.81L585.24,44.84c2.26-1.71,4-2.32,5.06-2.32a1.94,1.94,0,0,1,1,.23C592.15,43.28,592.86,45.22,592.2,49.08Z"/><path class="cls-7" d="M326.61,481.18l52.3,74.28a13.61,13.61,0,0,1-3.55,19.15L331.2,604.28c-2.85,1.92-5.5,2.45-7.32,1.5s-2.83-3.48-2.83-6.9V482.94C321.05,478.68,324.35,478,326.61,481.18Z"/><path class="cls-8" d="M306.75,481.18l-52.3,74.28A13.58,13.58,0,0,0,258,574.61l44.16,29.67c2.85,1.92,5.5,2.45,7.32,1.5s2.83-3.48,2.83-6.9V482.94C312.31,478.68,309,478,306.75,481.18Z"/><path class="cls-9" d="M100.43,289.88a1.92,1.92,0,0,0-2.88,2.4l.07.12L233.73,546.47c1.78,3.33,4.26,5.26,7,5.42s5.4-1.44,7.58-4.54l54.05-76.76a16,16,0,0,0-3-21.33L100.54,290Z"/><path class="cls-10" d="M529.15,291.31a1.9,1.9,0,0,1,2.85,2.37l-.06.12L397.32,545.09c-1.77,3.3-4.22,5.21-6.89,5.37S385.1,549,382.94,546L329.48,470a15.8,15.8,0,0,1,3-21.1L529.05,291.4Z"/><path class="cls-11" d="M222.65,549.69,77.92,279.52l-2.66-4.94a2.33,2.33,0,0,0-4.37.9c-.13,1.42-.26,3-.4,4.66L59.59,418.05c-.67,8.49,4.54,19.94,11.39,25L219.21,552.66h0a2.33,2.33,0,0,0,3.44-3Z"/><path class="cls-12" d="M406,549.69,550.76,279.52l2.66-4.94a2.33,2.33,0,0,1,4.38.9c.12,1.42.25,3,.39,4.66l10.9,137.91c.67,8.49-4.54,19.94-11.39,25L409.47,552.66h0a2.33,2.33,0,0,1-3.44-3Z"/><path class="cls-13" d="M908.45,94.05V142a5.5,5.5,0,0,1-5.49,5.49H744.19c-9.67,0-13.61,3.38-13.61,11.66v75.39c0,8.28,3.94,11.66,13.61,11.66H903a5.5,5.5,0,0,1,5.49,5.48v47.93a5.5,5.5,0,0,1-5.49,5.49H744.19c-20.09,0-37.29-6.74-51.15-20-14.17-13.47-21.36-30.47-21.36-50.52V159.12c0-19.79,7.19-36.72,21.36-50.33,14-13.42,31.2-20.23,51.15-20.23H903A5.5,5.5,0,0,1,908.45,94.05Zm280.27,15.47c11.64,13.17,17.53,29.33,17.53,48v142a5.49,5.49,0,0,1-5.48,5.49H1153a5.5,5.5,0,0,1-5.49-5.49v-60H1002.48v60a5.5,5.5,0,0,1-5.49,5.49H949.07a5.49,5.49,0,0,1-5.49-5.49v-142c0-18.69,5.83-34.85,17.32-48,12.07-13.91,27.56-21,46-21h135.59C1161,88.56,1176.52,95.61,1188.72,109.52Zm-186.24,71.19h145.07V157.56c0-10.1-3.27-10.1-5-10.1H1006.93c-1.22,0-4.45,0-4.45,10.1Zm333.91-33.25V299.58a5.49,5.49,0,0,0,5.49,5.49h52a5.49,5.49,0,0,0,5.49-5.49V147.46h94.93a5.5,5.5,0,0,0,5.49-5.49V94.05a5.5,5.5,0,0,0-5.49-5.49H1241.46a5.5,5.5,0,0,0-5.49,5.49V142a5.5,5.5,0,0,0,5.49,5.49Zm151,157.61h234.16c18,0,33.27-6.8,45.46-20.2l.09-.09,0,0,.2-.24c11.54-13.16,17.38-29.45,17.38-48.45s-5.91-35.26-17.58-48.49c-12.21-13.48-27.54-20.31-45.57-20.31h-129c-1.44,0-4.45,0-4.45-9.71,0-10.1,3.24-10.1,4.45-10.1H1776.3a5.49,5.49,0,0,0,5.49-5.49V94.05a5.49,5.49,0,0,0-5.49-5.49H1592.56c-18.31,0-33.85,7-46.2,21-11.64,13.18-17.54,29.35-17.54,48.05,0,19,6.13,35.26,18.19,48.32,12.2,13.33,27.53,20.09,45.55,20.09h129c1.22,0,4.45,0,4.45,10.1s-3.23,10.1-4.45,10.1h-197.4c-3,0-6.84,2.62-8.83,5.48l-33.42,47.93A5.49,5.49,0,0,0,1487.37,305.07ZM903,341.25H744.19c-20,0-37.16,6.81-51.15,20.23-14.17,13.61-21.36,30.55-21.36,50.33V487.2c0,20.05,7.19,37.05,21.36,50.52,13.85,13.3,31.06,20,51.15,20H903a5.5,5.5,0,0,0,5.49-5.49V425.45A5.5,5.5,0,0,0,903,420H790.16a5.49,5.49,0,0,0-5.49,5.49v47.72a5.49,5.49,0,0,0,5.49,5.49h59.39v20.2H744.19c-9.67,0-13.61-3.38-13.61-11.66V411.81c0-8.28,3.94-11.66,13.61-11.66H903a5.5,5.5,0,0,0,5.49-5.49V346.74A5.5,5.5,0,0,0,903,341.25Zm285.76,21c11.64,13.18,17.53,29.34,17.53,48v142a5.49,5.49,0,0,1-5.48,5.49H1153a5.5,5.5,0,0,1-5.49-5.49v-60H1002.48v60a5.5,5.5,0,0,1-5.49,5.49H949.07a5.49,5.49,0,0,1-5.49-5.49v-142c0-18.69,5.83-34.85,17.32-48,12.07-13.91,27.56-21,46-21h135.59C1161,341.25,1176.52,348.3,1188.72,362.21ZM1002.48,433.4h145.07V410.25c0-10.1-3.27-10.1-5-10.1H1006.93c-1.22,0-4.45,0-4.45,10.1Zm511.9-92.15h-49.87a5.49,5.49,0,0,0-4.49,2.34l-78.88,112.23-78.5-112.23a5.55,5.55,0,0,0-4.5-2.34h-50.26a5.49,5.49,0,0,0-5.49,5.49V552.27a5.49,5.49,0,0,0,5.49,5.49h47.92a5.49,5.49,0,0,0,5.49-5.49V444.39l75.35,107.52c2,2.82,7,2.82,9,0L1461,444.39V552.27a5.49,5.49,0,0,0,5.49,5.49h47.92a5.49,5.49,0,0,0,5.49-5.49V346.74A5.49,5.49,0,0,0,1514.38,341.25Zm264.82,0h-219a5.49,5.49,0,0,0-5.49,5.49V552.27a5.49,5.49,0,0,0,5.49,5.49h219a5.49,5.49,0,0,0,5.48-5.49V504.34a5.49,5.49,0,0,0-5.48-5.48H1613.63v-20.2H1748a5.49,5.49,0,0,0,5.49-5.49V425.45A5.49,5.49,0,0,0,1748,420h-134.4V400.15H1779.2a5.49,5.49,0,0,0,5.48-5.49V346.74A5.49,5.49,0,0,0,1779.2,341.25Z"/></g></g></svg>