<svg xmlns="http://www.w3.org/2000/svg" xmlns:xlink="http://www.w3.org/1999/xlink" viewBox="0 0 81.5 95.11"><defs><style>.cls-1{fill:#231f20;}.cls-1,.cls-3,.cls-4,.cls-5{fill-rule:evenodd;}.cls-2,.cls-3{fill:#ed1c24;}.cls-4{fill:url(#CTS_Gr);}.cls-5{fill:url(#CTS_Gr-2);}</style><linearGradient id="CTS_Gr" x1="99.9" y1="66.83" x2="-45.21" y2="66.83" gradientUnits="userSpaceOnUse"><stop offset="0" stop-color="#fede86"/><stop offset="0.3" stop-color="#fede86"/><stop offset="0.51" stop-color="#e2a453"/><stop offset="0.72" stop-color="#804a1e"/><stop offset="0.94" stop-color="#83411d"/></linearGradient><linearGradient id="CTS_Gr-2" x1="99.9" y1="27.81" x2="-45.21" y2="27.81" xlink:href="#CTS_Gr"/></defs><title>Asset 1</title><g id="Layer_2" data-name="Layer 2"><g id="Layer_1-2" data-name="Layer 1"><path class="cls-1" d="M53,68.86a51.51,51.51,0,0,0-11.73-8c-2.68-1.34-2-2.05-1.26-3.72a.48.48,0,0,0-.15-.59c-.41-.37-.59-.63-.44-.93.4-.55-.12-.63-.08-1.15.22-.86.89-.86,1.11-1.3.34-.78-.41-1.82-1.07-2.6-.38-.45-.26-.45.18-.74,1.53-1,3.61-2.08,4.94-3.9,2.08-2.23,2.82-5.79,4.31-8.8a12.26,12.26,0,0,1,3.45-4.3l.74-.56c5.23-4,7-5.46,8.24-8.84s-.89-9.57-4.12-12.95a15.81,15.81,0,0,1-3.3,17.34l-.82.81c-3.86,3.9-5.34,6.5-7.09,11.88a14.56,14.56,0,0,1-1.27,3.9,9.6,9.6,0,0,1-5.3,4.49l-.67.26c-.52.15-.74.59-.37,1a16.33,16.33,0,0,0,1.49,1.42c.48.41.44.44,0,.82l-1.15,1a.69.69,0,0,0-.26.85l.52.9-.63.33c-.3.26-.44.7.14,1.19.27.33.34.55,0,1.15-1.07,1.55-.73,2.38.6,3.15a66.26,66.26,0,0,1,14,9.25c1.23,1,2.49,2,3.75,3A24.46,24.46,0,0,0,53,68.86ZM64.81,21.75c-.71,8.1-4.64,8.65-11,13-.3.22-.59.45-.89.71a22.16,22.16,0,0,0-4.9,6.64A12.7,12.7,0,0,1,44.8,46.7c-1.55,1.11,1.41,1.74,2.12,1.74a4.56,4.56,0,0,0,2.3-.7A9.86,9.86,0,0,1,53,46.93c.37,0,.78,0,1.15,0A2.71,2.71,0,0,0,53,46.52a38.92,38.92,0,0,0-5.46-.78c1.93-2.42,3.34-5.46,5.46-7.5a9.07,9.07,0,0,1,2.08-1.49C64,32.3,68.82,29.88,64.81,21.75Z"/><path class="cls-2" d="M78.91,94.6,76.74,82.26l-.85.78-.53.57-2.1,11,1.68.29.25-1.54.68.92.12.1h.27l.81-1.09.28,1.62Zm-3.57-2.16.78-4.72.81,4.72Z"/><path class="cls-2" d="M11.27,83.61l-2.11,11,1.68.29.26-1.54.93,1.2L13,93.28l.28,1.62,1.56-.3L12.64,82.23Zm0,8.83L12,87.82l.8,4.62Z"/><polygon class="cls-2" points="28.14 84.53 29.33 84.53 29.33 94.65 30.94 94.65 30.94 84.53 31.66 84.53 32.3 82.88 28.73 82.88 28.14 84.53"/><path class="cls-2" d="M1.92,85.14a.92.92,0,0,1,.91-.77.72.72,0,0,1,.73.43l.41.68.68-1.92-.29-.29a2,2,0,0,0-1.53-.55c-1.24,0-2.06.74-2.46,2.19A14.79,14.79,0,0,0,0,88.82a15.24,15.24,0,0,0,.37,3.89,2.53,2.53,0,0,0,2.47,2.14h0a2.46,2.46,0,0,0,1.48-.55L4.65,94,4,92l-.41.79a.74.74,0,0,1-.72.45c-.28,0-1.14,0-1.14-2.74v-3.2A7.73,7.73,0,0,1,1.92,85.14Z"/><polygon class="cls-2" points="19.34 84.53 20.52 84.53 20.52 94.65 22.14 94.65 22.14 84.53 22.85 84.53 23.5 82.88 19.93 82.88 19.34 84.53"/><path class="cls-2" d="M67.46,84.47l1.28-.5-.58-1.53-1.3.5a3.21,3.21,0,0,0-1.48,1.14,3,3,0,0,0-.56,1.73,4.32,4.32,0,0,0,.26,1.2l1.81,4.14a1.35,1.35,0,0,1,.13.64,1.25,1.25,0,0,1-1,1.27l-1.26.45L65.42,95l1.19-.44a3.47,3.47,0,0,0,1.49-1,2.87,2.87,0,0,0,.57-1.76,3.59,3.59,0,0,0-.23-1.23l-1.79-4.15a3,3,0,0,1-.18-.6A1.46,1.46,0,0,1,67.46,84.47Z"/><rect class="cls-2" x="37.61" y="82.88" width="1.61" height="11.77"/><polygon class="cls-2" points="58.13 89.42 55.75 82.24 54.45 83.59 54.45 94.65 56.06 94.65 56.06 87.88 58.57 95.11 59.74 94.56 59.74 82.88 58.13 82.88 58.13 89.42"/><polygon class="cls-2" points="49.45 84.53 48.91 82.88 45.25 82.88 45.25 88.48 44.85 88.48 44.26 90.17 45.25 90.17 45.25 94.65 49.22 94.65 49.22 93 46.94 93 46.94 90.17 49.22 90.17 49.22 88.48 46.94 88.48 46.94 84.53 49.45 84.53"/><path class="cls-3" d="M78.09,83.72A1.71,1.71,0,1,0,79.79,82,1.7,1.7,0,0,0,78.09,83.72Zm.34,0a1.37,1.37,0,1,1,1.36,1.37A1.36,1.36,0,0,1,78.43,83.72Z"/><path class="cls-2" d="M80.27,82.88a.37.37,0,0,1,.17.13.38.38,0,0,1,.09.15.49.49,0,0,1,0,.19.63.63,0,0,1-.07.25.33.33,0,0,1-.22.17.31.31,0,0,1,.18.15.47.47,0,0,1,.06.27v.29a.2.2,0,0,0,.08.1v0h-.42s0-.07,0-.09,0-.1,0-.16v-.16a.37.37,0,0,0-.06-.23.3.3,0,0,0-.22-.06H79.5v.7h-.37V82.83H80A1.3,1.3,0,0,1,80.27,82.88Zm-.77.27v.48h.4a.39.39,0,0,0,.18,0,.21.21,0,0,0,.11-.2.25.25,0,0,0-.1-.22.42.42,0,0,0-.18,0Z"/><path class="cls-4" d="M39.9,65.86c-3.53-1.75-7.13-3.42-10.83-4.94a88.59,88.59,0,0,0-16.56-5.16c-3.9-.78-8.91-1.41-10.1.52,0,.07,2.71-.49,10.69,1.93a136.65,136.65,0,0,1,16,6.57C35.3,67.67,42,70.94,47.4,73.69c4.68,2.37,10.51,5,12,5v-.29C58.17,76.85,47.66,69.68,39.9,65.86Z"/><path class="cls-5" d="M5.45,54.24a23.85,23.85,0,0,1,7.31.22,37.06,37.06,0,0,0,7.54,1.15,18,18,0,0,0,8.77-2.34C39.57,47.67,47.63,33.22,50,26.62,53.27,17.37,55.46,6.46,46.21,0c0,0,2.6,5.46-.07,18.82-1.56,7.83-5.46,18.49-10.77,25a29.46,29.46,0,0,1-6.3,6,29.29,29.29,0,0,1-3.72,2.16c-2.93,1.44-6.35,1.63-10.5,1.18-3-.48-5.57-1.33-8.54.37C6.27,53.53,4.89,54.31,5.45,54.24Z"/></g></g></svg>