<svg xmlns="http://www.w3.org/2000/svg" viewBox="0 0 145.22 33.76"><defs><style>.cls-1{fill:#ed1c24;}.cls-2{fill:#808285;}</style></defs><title>saostar</title><g id="Layer_2" data-name="Layer 2"><g id="Layer_1-2" data-name="Layer 1"><g id="_Group_" data-name="&lt;Group&gt;"><g id="_Group_2" data-name="&lt;Group&gt;"><path id="_Compound_Path_" data-name="&lt;Compound Path&gt;" class="cls-1" d="M51.3,18.07H44.44a1.43,1.43,0,0,0-.72-1.42,3.76,3.76,0,0,0-1.86-.42c-1.53,0-2.37.41-2.51,1.22s.74,1.44,2.64,1.95a48.23,48.23,0,0,1,5.48,1.66c2,1,3,2.38,3,4.23a5.72,5.72,0,0,1-.12,1.13A7.86,7.86,0,0,1,46.49,32a14.92,14.92,0,0,1-7.75,1.81,10,10,0,0,1-6.31-1.84,5.4,5.4,0,0,1-2.24-4.44,6.11,6.11,0,0,1,.06-.86h6.93A1.94,1.94,0,0,0,38,28.28a3.46,3.46,0,0,0,2,.56c2,0,3.09-.52,3.27-1.57.15-.78-.73-1.43-2.63-1.92a42.66,42.66,0,0,1-5.48-1.66,4.63,4.63,0,0,1-3-4.35,6,6,0,0,1,.13-1.21A7.14,7.14,0,0,1,36,13a13.58,13.58,0,0,1,7.14-1.72q4.35,0,6.46,2A5.87,5.87,0,0,1,51.3,18.07Z"/><path id="_Compound_Path_2" data-name="&lt;Compound Path&gt;" class="cls-1" d="M55.28,33.19H48.2L60,11.88h7.35l4,21.31h-7.2l-.34-2.81H56.63Zm8.08-7.25-.91-7.64L58.8,25.94Z"/><path id="_Compound_Path_3" data-name="&lt;Compound Path&gt;" class="cls-1" d="M84.84,11.32q4.84,0,7.44,2.63a8.56,8.56,0,0,1,2.33,6.22,12.57,12.57,0,0,1-.21,2.25,13.28,13.28,0,0,1-4.87,8.38,13.65,13.65,0,0,1-8.76,3,10.47,10.47,0,0,1-7.16-2.28A8.12,8.12,0,0,1,71,25.05a14.51,14.51,0,0,1,.27-2.69,12.77,12.77,0,0,1,4.64-8A13.78,13.78,0,0,1,84.84,11.32Zm-1,5.21a4.58,4.58,0,0,0-3.71,1.95,9.09,9.09,0,0,0-1.62,3.94,12.09,12.09,0,0,0-.18,2q0,4.13,3.4,4.12c2.89,0,4.71-2.05,5.45-6.13a8.6,8.6,0,0,0,.18-1.72Q87.35,16.47,83.83,16.53Z"/></g><g id="_Group_3" data-name="&lt;Group&gt;"><path id="_Compound_Path_4" data-name="&lt;Compound Path&gt;" class="cls-2" d="M107.68,21.45c0-2.43-1.44-3.59-3.75-3.59-1.44,0-3.49.58-3.49,2.43,0,1.32,1.44,1.88,2.51,2.36L106.31,24a4.34,4.34,0,0,1,3,3.86c0,4-3.36,5.6-6.84,5.6-4.46,0-7-1.87-7-6.44H98.2c0,2.88,1,4.11,4.52,4.11,1.91,0,3.72-.87,3.72-2.56,0-1.26-.8-1.81-1.81-2.27L101.48,25c-2.15-.94-3.85-1.95-3.85-4.6,0-1.72,1.64-4.9,6.16-4.9,4.23,0,6.71,1.88,6.71,5.93Z"/><path id="_Compound_Path_5" data-name="&lt;Compound Path&gt;" class="cls-2" d="M113,18.44H110.6l.5-2.33h2.42l1.13-4.54h2.82l-1,4.54h3.19l-.41,2.33h-3.32l-2.11,9.75a13,13,0,0,0-.26,1.65c0,.72.53,1,1.34,1a11.28,11.28,0,0,0,1.81-.16l-.51,2.3a10.57,10.57,0,0,1-2,.22c-2.22,0-3.66-.84-3.66-2.75a7.22,7.22,0,0,1,.1-1.07Z"/><path id="_Compound_Path_6" data-name="&lt;Compound Path&gt;" class="cls-2" d="M130.9,28.52a8.5,8.5,0,0,0-.27,1.52c0,.58.44,1,1.24,1a5.36,5.36,0,0,0,.7-.06l-.43,2.07a13.09,13.09,0,0,1-1.64.13,2.37,2.37,0,0,1-2.68-2.14h-.07c-.24.62-2,2.43-5.4,2.43-4,0-5.5-2.72-5.5-4.92,0-3.79,2.75-5.41,6-5.64l4.09-.26c2.31-.16,2.81-1.07,2.81-2.46,0-1.75-1.34-2.36-3.79-2.36s-4,1-4.25,3.07h-2.92c.57-3.85,3.82-5.41,7.54-5.41,2.82,0,6.37.68,6.37,4.05a14.53,14.53,0,0,1-.57,3.28Zm-2-4.05a23.13,23.13,0,0,1-5.06.68c-2.48.22-4,1.45-4,3.3s1.37,2.72,3.08,2.72C126.67,31.17,128.28,28.45,128.92,24.47Z"/><path id="_Compound_Path_7" data-name="&lt;Compound Path&gt;" class="cls-2" d="M136.94,16.07h2.74L139,19.48s1.17-1.49,1.41-1.75a5.5,5.5,0,0,1,4-2l.84.06-.61,3.12c-.3,0-.63-.07-1-.07-3.35,0-5.23,3.6-5.6,5.57L136.13,33h-2.92Z"/></g><g id="_Group_4" data-name="&lt;Group&gt;"><polygon id="_Path_" data-name="&lt;Path&gt;" class="cls-1" points="2.93 10.87 8.96 14.69 9.06 14.69 9.06 14.69 18 14.69 18 14.15 18 14.15 18 13.79 23.08 16.63 18 19.46 18 19.05 18 19.05 18 18.51 18 18.51 18 18.5 14.33 18.5 14.32 18.51 6.71 18.51 6.71 19.05 14.03 19.05 7.49 31.31 20.05 21.74 27.4 26.48 26.19 17.08 34.45 10.85 25.42 10.86 24.09 0 18.36 10.86 2.93 10.87"/><rect id="_Path_2" data-name="&lt;Path&gt;" class="cls-1" x="12.02" y="17.39" width="5.98" height="0.54"/><rect id="_Path_3" data-name="&lt;Path&gt;" class="cls-1" x="2.2" y="14.15" width="0.77" height="0.54"/><rect id="_Path_4" data-name="&lt;Path&gt;" class="cls-1" x="5.27" y="14.15" width="0.77" height="0.54"/><rect id="_Path_5" data-name="&lt;Path&gt;" class="cls-1" x="6.87" y="14.15" width="0.77" height="0.54"/><rect id="_Path_6" data-name="&lt;Path&gt;" class="cls-1" x="3.9" y="15.23" width="1.13" height="0.54"/><rect id="_Path_7" data-name="&lt;Path&gt;" class="cls-1" x="5.85" y="15.23" width="0.77" height="0.54"/><rect id="_Path_8" data-name="&lt;Path&gt;" class="cls-1" x="7.48" y="15.23" width="10.52" height="0.54"/><rect id="_Path_9" data-name="&lt;Path&gt;" class="cls-1" y="16.31" width="0.77" height="0.54"/><rect id="_Path_10" data-name="&lt;Path&gt;" class="cls-1" x="1.65" y="16.31" width="1.32" height="0.54"/><rect id="_Path_11" data-name="&lt;Path&gt;" class="cls-1" x="3.9" y="16.31" width="14.1" height="0.54"/><rect id="_Path_12" data-name="&lt;Path&gt;" class="cls-1" x="9.44" y="17.39" width="0.77" height="0.54"/><rect id="_Path_13" data-name="&lt;Path&gt;" class="cls-1" x="7.76" y="17.39" width="0.77" height="0.54"/><rect id="_Path_14" data-name="&lt;Path&gt;" class="cls-1" x="5.85" y="17.39" width="0.77" height="0.54"/><rect id="_Path_15" data-name="&lt;Path&gt;" class="cls-1" x="5.08" y="18.51" width="0.77" height="0.54"/><rect id="_Path_16" data-name="&lt;Path&gt;" class="cls-1" x="2.84" y="18.51" width="0.77" height="0.54"/><rect id="_Path_17" data-name="&lt;Path&gt;" class="cls-1" x="1.49" y="18.51" width="0.77" height="0.54"/></g></g></g></g></svg>