<svg xmlns="http://www.w3.org/2000/svg" viewBox="0 0 111.29 28.41"><defs><style>.cls-1{fill:#ed1c24;}.cls-2{fill:#fff;}</style></defs><title>viva-tv</title><g id="Layer_2" data-name="Layer 2"><g id="Layer_1-2" data-name="Layer 1"><g id="_Group_" data-name="&lt;Group&gt;"><path id="_Path_" data-name="&lt;Path&gt;" class="cls-1" d="M111.29,9.42a9.43,9.43,0,1,0-9.42,9.43A9.42,9.42,0,0,0,111.29,9.42Z"/><g id="_Group_2" data-name="&lt;Group&gt;"><path id="_Path_2" data-name="&lt;Path&gt;" class="cls-1" d="M21.07,6.13c-4.16,0-4.95,2.44-6.19,4.22l-4.67,7L7.44,6.13H0L4.69,25c1,3.37,3.74,3.16,3.74,3.16,1.89,0,3.31-1,4.6-2.89L25.69,6.13Z"/><path id="_Path_3" data-name="&lt;Path&gt;" class="cls-1" d="M59.77,6.13c-4.16,0-5,2.44-6.19,4.22l-4.67,7L46.14,6.13H38.7L43.39,25c1,3.37,3.74,3.16,3.74,3.16,1.89,0,3.31-1,4.6-2.89L64.39,6.13Z"/><path id="_Path_4" data-name="&lt;Path&gt;" class="cls-1" d="M86.3,6.13c-3.39,0-3.92,2.49-4.46,4.22S77.7,25,77.7,25c2.36,3.37,5,3.16,5,3.16,1.9,0,2.91-1,3.42-2.89L90.91,6.13Z"/><path id="_Path_5" data-name="&lt;Path&gt;" class="cls-1" d="M32.59,6.13c-4.16,0-5,2.44-6.2,4.22L16.21,25c1,3.37,3.74,3.16,3.74,3.16,1.89,0,3.31-1,4.59-2.89L37.2,6.13Z"/><g id="_Group_3" data-name="&lt;Group&gt;"><path id="_Compound_Path_" data-name="&lt;Compound Path&gt;" class="cls-1" d="M60.6,18.28A13.41,13.41,0,0,1,73.86,5.66c6.69,0,10.57,4.38,10.37,10.09a13.42,13.42,0,0,1-13.3,12.66C64.28,28.41,60.4,24,60.6,18.28ZM79.13,16c.1-2.54-1.73-4.16-4.52-4.16A6.73,6.73,0,0,0,68.07,18c-.1,2.58,1.73,4.21,4.52,4.21A6.74,6.74,0,0,0,79.13,16Z"/></g></g><g id="_Group_4" data-name="&lt;Group&gt;"><polygon id="_Path_6" data-name="&lt;Path&gt;" class="cls-2" points="95.86 7.61 101.65 7.61 101.86 6.17 96.06 6.17 95.86 7.61"/><polygon id="_Path_7" data-name="&lt;Path&gt;" class="cls-2" points="98.1 7.14 97.25 12.94 98.7 12.94 99.54 7.14 98.1 7.14"/><polygon id="_Path_8" data-name="&lt;Path&gt;" class="cls-2" points="102.98 12.94 102.52 6.2 103.96 6.2 104.42 12.94 102.98 12.94"/><polygon id="_Path_9" data-name="&lt;Path&gt;" class="cls-2" points="106.7 6.2 103.17 12.94 104.73 12.94 108.25 6.2 106.7 6.2"/></g></g></g></g></svg>