<svg xmlns="http://www.w3.org/2000/svg" viewBox="0 0 91.22 30.3"><defs><style>.cls-1{fill:#ed1651;}.cls-2{fill:#231f20;}</style></defs><title>viva-network</title><g id="Layer_2" data-name="Layer 2"><g id="Layer_1-2" data-name="Layer 1"><g id="_Group_" data-name="&lt;Group&gt;"><path id="_Path_" data-name="&lt;Path&gt;" class="cls-1" d="M21.14.48c-4.17,0-5,2.44-6.21,4.22l-4.68,7.08L7.47.48H0L4.71,19.4c1,3.39,3.75,3.17,3.75,3.17,1.9,0,3.32-1,4.61-2.89L25.77.48Z"/><path id="_Path_2" data-name="&lt;Path&gt;" class="cls-1" d="M60,.48c-4.17,0-5,2.44-6.21,4.22,0,0-3.39,5.12-4.68,7.08L46.29.48H38.83L43.54,19.4c1,3.39,3.75,3.17,3.75,3.17,1.9,0,3.32-1,4.61-2.89L64.6.48Z"/><path id="_Path_3" data-name="&lt;Path&gt;" class="cls-1" d="M32.7.48c-4.18,0-5,2.44-6.22,4.22L16.26,19.4c1,3.39,3.75,3.17,3.75,3.17,1.9,0,3.32-1,4.62-2.89L37.33.48Z"/><path id="_Compound_Path_" data-name="&lt;Compound Path&gt;" class="cls-1" d="M86.59.48a4,4,0,0,0-4.12,3.08C80.71,1.36,77.84,0,74.1,0A13.44,13.44,0,0,0,60.81,12.65c-.2,5.77,3.69,10.16,10.36,10.16a13.16,13.16,0,0,0,7.59-2.41A5.65,5.65,0,0,0,83,22.57c1.9,0,2.91-1,3.42-2.89L91.22.48ZM72.83,16.62c-2.8,0-4.63-1.62-4.53-4.21a6.75,6.75,0,0,1,6.56-6.22c2.8,0,4.64,1.62,4.53,4.17A6.74,6.74,0,0,1,72.83,16.62Z"/><path id="_Path_4" data-name="&lt;Path&gt;" class="cls-2" d="M9.77,28.57,7,26.1a2.21,2.21,0,0,0-.32-.2.94.94,0,0,0-.28-.1H6.27c-.21,0-.57.09-.57.64v3.85H6.83V27.48l2.65,2.39.23.2h0l.16.1a1,1,0,0,0,.33.13h.14c.21,0,.56-.08.56-.63V25.8H9.77Z"/><path id="_Path_5" data-name="&lt;Path&gt;" class="cls-2" d="M18.89,25.9a1.05,1.05,0,0,0-.43.27.93.93,0,0,0-.26.39,1.28,1.28,0,0,0-.09.48v.34a1.19,1.19,0,0,0,.21.68,1.12,1.12,0,0,0-.21.65v.35a1.5,1.5,0,0,0,.08.47,1.07,1.07,0,0,0,.26.4,1.32,1.32,0,0,0,.43.27,1.82,1.82,0,0,0,.61.09h3.82V29.17H19.49a.22.22,0,0,1-.19-.07.28.28,0,0,1-.06-.2c0-.22.08-.28.19-.29h3.88V27.49H19.49a.24.24,0,0,1-.19-.07.32.32,0,0,1-.06-.22A.29.29,0,0,1,19.3,27a.25.25,0,0,1,.19-.06h3.82V25.8H19.49A1.57,1.57,0,0,0,18.89,25.9Z"/><polygon id="_Path_6" data-name="&lt;Path&gt;" class="cls-2" points="30.52 26.93 32.55 26.93 32.55 30.29 33.69 30.29 33.69 26.93 35.72 26.93 35.72 25.8 30.52 25.8 30.52 26.93"/><path id="_Path_7" data-name="&lt;Path&gt;" class="cls-2" d="M47.15,28.61l-1.1-2.81H45l-1.1,2.81-1.1-2.81H41.59L43,29.52a1.75,1.75,0,0,0,.18.29,1.29,1.29,0,0,0,.2.25,1,1,0,0,0,.22.16.46.46,0,0,0,.24.08H44a.72.72,0,0,0,.44-.22,1.58,1.58,0,0,0,.42-.58l.72-1.86.73,1.87a1.69,1.69,0,0,0,.38.54.73.73,0,0,0,.46.25h.08a.7.7,0,0,0,.44-.22,1.72,1.72,0,0,0,.43-.58l1.42-3.7H48.24Z"/><path id="_Compound_Path_2" data-name="&lt;Compound Path&gt;" class="cls-2" d="M58.05,25.8h-.22a2.74,2.74,0,0,0-1.89.56,2.16,2.16,0,0,0-.62,1.71,3.21,3.21,0,0,0,.14,1,1.61,1.61,0,0,0,.47.71,2,2,0,0,0,.79.39,4.49,4.49,0,0,0,1.11.12h.23a4.46,4.46,0,0,0,1.1-.12,1.89,1.89,0,0,0,.79-.39,1.61,1.61,0,0,0,.47-.71,2.93,2.93,0,0,0,.15-1,2.2,2.2,0,0,0-.63-1.71A2.77,2.77,0,0,0,58.05,25.8Zm1.37,2.27a1,1,0,0,1-.3.83,1.7,1.7,0,0,1-1.09.27h-.18a1.67,1.67,0,0,1-1.08-.27,1,1,0,0,1-.31-.84,1.08,1.08,0,0,1,.31-.85,1.65,1.65,0,0,1,1.08-.28h.2a1.58,1.58,0,0,1,1.06.29A1.08,1.08,0,0,1,59.42,28.07Z"/><path id="_Path_8" data-name="&lt;Path&gt;" class="cls-2" d="M72,28.51a1.32,1.32,0,0,0,.43-.27,1.18,1.18,0,0,0,.27-.4,1.22,1.22,0,0,0,.09-.46V27a1.28,1.28,0,0,0-.09-.48,1.18,1.18,0,0,0-.27-.4A1.2,1.2,0,0,0,72,25.9a1.57,1.57,0,0,0-.6-.1H67.6v1.13h3.83c.15,0,.24,0,.24.27s-.1.29-.24.29H67.6v2.8h1.13V28.61h1.12l1.73,1.68H73.1l-1.67-1.68A1.72,1.72,0,0,0,72,28.51Z"/><polygon id="_Path_9" data-name="&lt;Path&gt;" class="cls-2" points="83.29 28.06 85.48 25.8 83.99 25.8 82.35 27.49 81.14 27.49 81.14 25.8 80.01 25.8 80.01 30.29 81.14 30.29 81.14 28.61 82.26 28.61 83.99 30.29 85.51 30.29 83.29 28.06"/></g></g></g></svg>