<svg xmlns="http://www.w3.org/2000/svg" viewBox="0 0 132.74 49.42"><defs><style>.cls-1{fill:#f15b40;}</style></defs><title>vmelody</title><g id="Layer_2" data-name="Layer 2"><g id="Layer_1-2" data-name="Layer 1"><polygon class="cls-1" points="132.74 24.71 94.18 49.41 94.18 46.49 128.18 24.71 94.18 2.92 94.18 0 132.74 24.71"/><polygon class="cls-1" points="101.7 13.97 96.09 10.38 96.09 7.45 101.7 11.05 101.7 13.97"/><polygon class="cls-1" points="104.41 33.71 106.14 32.6 106.14 35.53 104.41 36.63 104.41 33.71"/><polygon class="cls-1" points="123.02 24.71 107.61 34.58 107.61 31.66 118.46 24.71 104.41 15.71 104.41 12.78 123.02 24.71"/><polygon class="cls-1" points="113.31 24.71 111.03 26.17 111 26.18 97.03 17.21 97.03 14.28 113.31 24.71"/><path class="cls-1" d="M94.44,18.9V34l-.94-.72-5.33,3.42L92,39.22,97,36V23.49l6.88,4.4-4.29,2.75v2.93l8.86-5.68Z"/><path class="cls-1" d="M14,17.42,7.78,30.69H6.19L0,17.42H3.5L7,25l3.5-7.55Z"/><path class="cls-1" d="M21.3,22.35l5.39-4.91h1.57V30.69h-3.5v-6.8L21.3,27.05l-3.48-3.14v6.78h-3.5V17.44h1.57Z"/><path class="cls-1" d="M29.78,17.44H38v2.88H33.26v2.15h4.21v2.94H33.26v2.44H38v2.84H29.78Z"/><path class="cls-1" d="M39.36,17.44h3.48v9.75h4.78v3.5H39.36Z"/><path class="cls-1" d="M54.78,17.44a6.63,6.63,0,1,1-6.62,6.64A6.64,6.64,0,0,1,54.78,17.44Zm0,3.46a3.17,3.17,0,1,0,3.16,3.16A3.15,3.15,0,0,0,54.78,20.9Z"/><path class="cls-1" d="M62.68,17.44h4.91a6.63,6.63,0,1,1,0,13.25H62.68Zm3.46,9.82h1.47a3.14,3.14,0,1,0,0-6.27H66.14Z"/><path class="cls-1" d="M82.07,25.81v4.88H78.62V25.81l-4.84-8.37h4l2.54,4.42,2.57-4.42h4Z"/><polygon class="cls-1" points="3.99 36.02 5.06 36.02 5.06 35.29 3.99 35.29 3.99 34.9 5.16 34.9 5.16 34.15 3.23 34.15 3.23 37.18 5.18 37.18 5.18 36.44 3.99 36.44 3.99 36.02"/><polygon class="cls-1" points="11.18 35.65 10.13 34.15 9.55 34.15 9.55 37.18 10.31 37.18 10.31 35.69 11.36 37.18 11.94 37.18 11.94 34.15 11.18 34.15 11.18 35.65"/><polygon class="cls-1" points="16.23 34.9 16.99 34.9 16.99 37.18 17.76 37.18 17.76 34.9 18.52 34.9 18.52 34.15 16.23 34.15 16.23 34.9"/><polygon class="cls-1" points="23.57 36.02 24.64 36.02 24.64 35.29 23.57 35.29 23.57 34.9 24.74 34.9 24.74 34.15 22.81 34.15 22.81 37.18 24.76 37.18 24.76 36.44 23.57 36.44 23.57 36.02"/><path class="cls-1" d="M31.24,35.74a1,1,0,0,0,.16-.55,1,1,0,0,0-.3-.73,1,1,0,0,0-.74-.31H29.13v3h.76v-1h.26l.57,1h.84l-.66-1.12A1,1,0,0,0,31.24,35.74Zm-.6-.55a.32.32,0,0,1-.09.23.23.23,0,0,1-.19.09h-.47v-.63h.47a.23.23,0,0,1,.19.09A.29.29,0,0,1,30.64,35.19Z"/><polygon class="cls-1" points="35.52 34.9 36.27 34.9 36.27 37.18 37.04 37.18 37.04 34.9 37.8 34.9 37.8 34.15 35.52 34.15 35.52 34.9"/><path class="cls-1" d="M42.65,34.15l-1.06,3h.82l.17-.5h1l.16.5h.83l-1.06-3Zm.66,1.8h-.48l.24-.72Z"/><rect class="cls-1" x="48.76" y="34.15" width="0.76" height="3.03"/><polygon class="cls-1" points="55.66 35.65 54.6 34.15 54.02 34.15 54.02 37.18 54.79 37.18 54.79 35.69 55.84 37.18 56.42 37.18 56.42 34.15 55.66 34.15 55.66 35.65"/><polygon class="cls-1" points="62.41 35.39 61.66 34.15 60.92 34.15 60.92 37.18 61.69 37.18 61.69 35.63 62.32 36.66 62.5 36.66 63.13 35.62 63.13 37.18 63.89 37.18 63.89 34.15 63.16 34.15 62.41 35.39"/><polygon class="cls-1" points="69.16 36.02 70.22 36.02 70.22 35.29 69.16 35.29 69.16 34.9 70.32 34.9 70.32 34.15 68.39 34.15 68.39 37.18 70.34 37.18 70.34 36.44 69.16 36.44 69.16 36.02"/><polygon class="cls-1" points="76.34 35.65 75.29 34.15 74.71 34.15 74.71 37.18 75.48 37.18 75.48 35.69 76.53 37.18 77.11 37.18 77.11 34.15 76.34 34.15 76.34 35.65"/><polygon class="cls-1" points="81.4 34.15 81.4 34.9 82.16 34.9 82.16 37.18 82.92 37.18 82.92 34.9 83.68 34.9 83.68 34.15 81.4 34.15"/></g></g></svg>