<svg xmlns="http://www.w3.org/2000/svg" viewBox="0 0 105.75 47.87"><defs><style>.cls-1{fill:#faa61a;}.cls-2{fill:#ed1c24;}</style></defs><title>vvs</title><g id="Layer_2" data-name="Layer 2"><g id="Layer_1-2" data-name="Layer 1"><g id="_Group_" data-name="&lt;Group&gt;"><path id="_Path_" data-name="&lt;Path&gt;" class="cls-1" d="M97.35,24.14a2.42,2.42,0,0,1-2.42-2.42V7.65a2.42,2.42,0,0,1,4.84,0V21.72A2.43,2.43,0,0,1,97.35,24.14Z"/><path id="_Path_2" data-name="&lt;Path&gt;" class="cls-1" d="M103.56,28.86a2.15,2.15,0,0,1-2.19-2.11V14.06a2.19,2.19,0,0,1,4.38,0V26.75A2.15,2.15,0,0,1,103.56,28.86Z"/><path id="_Path_3" data-name="&lt;Path&gt;" class="cls-1" d="M76.73,23.53A1.08,1.08,0,0,1,76,23.3l-8.7-6.82a1.49,1.49,0,0,1-.45-1.35,3.87,3.87,0,0,1,.85-2,3.35,3.35,0,0,1,2.42-1.42,1.13,1.13,0,0,1,.74.23l8.69,6.82A1.42,1.42,0,0,1,80,20.05a3.94,3.94,0,0,1-.85,2.06A3.35,3.35,0,0,1,76.73,23.53Z"/><path id="_Path_4" data-name="&lt;Path&gt;" class="cls-1" d="M84.45,21.49A2.42,2.42,0,0,1,82,19.07V5a2.42,2.42,0,0,1,4.84,0V19.07A2.42,2.42,0,0,1,84.45,21.49Z"/><path id="_Path_5" data-name="&lt;Path&gt;" class="cls-1" d="M88.35,44.11a2.74,2.74,0,1,0-2.74,2.74A2.74,2.74,0,0,0,88.35,44.11Z"/><path id="_Path_6" data-name="&lt;Path&gt;" class="cls-1" d="M85.61,24.47a19.66,19.66,0,0,0-2.68.19v4.46a14.76,14.76,0,0,1,2.68-.25,15.23,15.23,0,0,1,15.23,15.24,15.51,15.51,0,0,1-.25,2.74h4.46V41.37A19.64,19.64,0,0,0,85.61,24.47Z"/><path id="_Path_7" data-name="&lt;Path&gt;" class="cls-1" d="M85.61,33.17a10.75,10.75,0,0,0-2.68.34v3.84a7.27,7.27,0,0,1,9.41,9.5H96.2a11.24,11.24,0,0,0,.34-2.74A10.94,10.94,0,0,0,85.61,33.17Z"/><path class="cls-2" d="M79.62,35.14a8.26,8.26,0,0,0-5.69-1.8H64.42a1.35,1.35,0,0,1-1-.3,1.09,1.09,0,0,1-.29-.88,1.2,1.2,0,0,1,.29-.93,1.6,1.6,0,0,1,1-.28H80.68V24.77H64.45a9.26,9.26,0,0,0-3.18.51,7.24,7.24,0,0,0-2.47,1.47A6.5,6.5,0,0,0,57.25,29a7.71,7.71,0,0,0-.5,2.78,7.32,7.32,0,0,0,.54,2.83A6.56,6.56,0,0,0,58.85,37a7,7,0,0,0,2.45,1.49,9,9,0,0,0,3.1.52H74a2.36,2.36,0,0,1,1.41.35c.08.06.32.26.32,1a1.19,1.19,0,0,1-.38,1,1.93,1.93,0,0,1-1.35.39H57.06v6.18H74a9.5,9.5,0,0,0,3.29-.53,6.82,6.82,0,0,0,2.48-1.56,6.53,6.53,0,0,0,1.49-2.38,8.46,8.46,0,0,0,.47-2.84A6.93,6.93,0,0,0,79.62,35.14Z"/><path class="cls-2" d="M24.77,24.19,10.05,38.93,6.91,25H0L4.86,45.49A2.85,2.85,0,0,0,5.62,47a2.44,2.44,0,0,0,1.79.68,3.48,3.48,0,0,0,1.72-.47,5.86,5.86,0,0,0,1.27-1L26.09,30.21l-.7-2.86Z"/><path class="cls-2" d="M50.61,25,37.39,38.86,34.27,25H27.36L32.22,45.5A2.82,2.82,0,0,0,33,47a2.45,2.45,0,0,0,1.79.68,3.48,3.48,0,0,0,1.72-.47,5.9,5.9,0,0,0,1.28-1L58.21,25Z"/><path id="_Path_8" data-name="&lt;Path&gt;" class="cls-1" d="M90.9,20.55a2.55,2.55,0,0,1-2.42-2.67V2.67a2.43,2.43,0,1,1,4.84,0V17.88A2.56,2.56,0,0,1,90.9,20.55Z"/></g></g></g></svg>