<?xml version="1.0" standalone="no"?>
<!DOCTYPE svg PUBLIC "-//W3C//DTD SVG 1.1//EN" "http://www.w3.org/Graphics/SVG/1.1/DTD/svg11.dtd" >
<svg xmlns="http://www.w3.org/2000/svg">
<metadata></metadata>
<defs>
<font id="sp3_-_traveling_typewriterRg" horiz-adv-x="727" >
<font-face units-per-em="2048" ascent="1638" descent="-410" />
<missing-glyph horiz-adv-x="905" />
<glyph horiz-adv-x="0" />
<glyph horiz-adv-x="682" />
<glyph unicode=" "  horiz-adv-x="905" />
<glyph unicode="&#x09;" horiz-adv-x="905" />
<glyph unicode="&#xa0;" horiz-adv-x="905" />
<glyph unicode="!" horiz-adv-x="407" d="M67.5 133.5q3.5 38.5 38.5 73.5q58 24 123 9.5t97 -46.5q19 -35 15 -71.5t-17.5 -63t-34.5 -47.5q-28 -28 -74 -28t-72 28q-40 40 -59.5 73.5t-16 72zM70 1249q18 17 54 35t54 37q21 0 35 -1.5t38 -7.5t43 -22t32 -41q0 -51 -18.5 -170t-18.5 -196q-12 -35 -17 -113 t-6 -148.5t-13.5 -139t-37.5 -93.5q-25 0 -37 18.5t-13 41.5t-6 49.5t-16 38.5q-14 70 -17.5 215t-13.5 281t-42 216z" />
<glyph unicode="&#x22;" horiz-adv-x="794" d="M67.5 1378.5q-3.5 34.5 14.5 67.5q14 21 32 32t33.5 13.5t36 -5t32 -13.5t31.5 -21.5t24.5 -20t19.5 -18.5q-31 -78 -49 -175t-31.5 -208t-26.5 -172h-32q-18 68 -18 208t-17 208q-19 18 -32.5 44t-17 60.5zM532 1413q25 23 38 33.5t41 22.5t61 12q24 0 45.5 -37 t21.5 -66q-16 -69 -32.5 -242.5t-34.5 -244.5q0 -15 -11.5 -23t-23.5 -9t-35 -1v311q10 0 13.5 3.5t1.5 11t-5 15.5t-6.5 18.5t-3.5 19.5q-25 13 -40 31.5t-21 45t-7.5 45t-1.5 54.5zM567 1169v35l16 -1l-3 -3q-13 -14 -13 -31z" />
<glyph unicode="#" horiz-adv-x="987" d="M33 459q64 22 139 16q0 -6 6 -6q23 6 49 27q14 0 33 16q1 0 2.5 0.5t5 1.5t6.5 2v16h2q5 5 5 31q20 23 20 31q4 4 -1.5 10.5t-16.5 16.5t-15 16h-59q-32 3 -49 20q-5 17 -17 48q1 2 12 13t11 15q20 17 88 23v2q15 -11 29 -8q41 8 51 18t14 25q9 0 21 38q3 -1 6 0.5t5 4.5 l4 6l3 4q0 3 -4 14t-4 14q0 13 8 13v24q2 0 6 2q-9 9 -6 37q0 29 -8 37q0 27 -4 27h-4v30q18 6 18 37v54q2 7 13 15.5t18 15t4 12.5q0 7 -4 22t-4 17q0 9 10 14q14 28 45 55l4 12l100 -8q-2 -9 3 -14q-16 -19 -13 -55q3 -49 -2 -62q-6 -4 -13.5 -28t-14.5 -27q-5 -5 -5 -21 l-4 -8v-12q-1 -2 -5 -6t-5.5 -6t-3 -7.5t1.5 -9.5q-1 -2 -7 -8.5t-10.5 -14.5t-2.5 -16q-9 0 -9 -8v-8q-8 -8 -8 -25q-17 -12 -28 -41q-7 0 -25 7q-1 -1 -1.5 -4t-1 -8t-1.5 -9q21 -18 18 -53q-2 0 -6 -8v-9q-6 -3 -6 -10v-14q-6 0 -6 -8v-11q-1 0 -2.5 -1t-3.5 -1 q2 -2 8.5 -9.5t10 -10.5t10 -6t12.5 -2v-2q4 -2 37 -2q0 -7 2 -9q37 13 38 13v-4l10 -1q10 -1 19 -1q3 -7 6 -7q7 9 13 9q4 6 23 21t24 22q4 5 30 59q11 11 11 33q-3 34 0 37q6 0 6 2l2 10q11 8 8 57q-6 0 -12 15q-6 30 14 36l4 62q3 -2 5.5 1t2.5 9v6l4 6l-2 9q-4 12 -4 18 q0 26 27 29q0 3 7 12.5t7 13.5q0 7 -2 9q0 2 15.5 12.5t13.5 21.5q5 -2 8 0t5.5 6.5t4.5 6.5v4q7 0 11 4v8q14 0 14 2v4h22q0 -8 2 -8l11 8v-22q-8 0 -8 -11q2 -6 15 -23t13 -26q0 -6 -4 -14h-2q-2 -2 -2 -37q-5 0 -16.5 -8t-10.5 -17q-1 -2 -5 -6t-5.5 -6.5t-3.5 -7.5t0 -8 q-7 -3 -4 -12v-17q4 -2 4 -18v-25q-5 -1 -10.5 -20t-11.5 -21q3 -16 -15 -28q-16 -9 -10 -27v-8q-7 0 -10 -6v-9q0 -2 -1 -5.5t-1 -4.5v-8q-1 -1 -2.5 -1.5l-3 -1t-3.5 -1.5v-10h-4l-8 -54q-4 3 -8 0t-6 -7l-2 -5q0 -15 11.5 -29.5t23 -22t30.5 -18.5l4 -4q1 0 21 7t23 6.5 t24 -0.5v-2q27 -5 78 -17q0 -8 12 -8q4 1 13 -8t12 -10v-13q-5 0 -8 -6v-10q-2 -2 -9 -2v-12q-19 0 -43 -21q-28 -19 -51 -12v2q-12 4 -43 4q-29 0 -35 12q-11 -3 -14 10q0 7 -4 7l-32 -13q-31 -13 -58 -35q-2 -2 -2 -34h-4l-7 -56q-5 3 -7.5 -1.5t-3.5 -11.5q0 -4 -1 -5 q2 -2 7 -9t8.5 -10t9 -7.5t12 -6t14.5 -0.5q21 -15 31 -12l2 -4q8 3 53 14h31q-3 -6 6 -6q4 -3 13.5 -8.5t15.5 -9.5q0 -9 14 -37q-3 0 -12 -6v-7q-10 0 -18 -5t-5 -11q-12 -18 -49 -18h-39q-24 0 -36 -9q-10 -2 -32 -6t-32 -6q-38 -8 -45 -37q-2 -4 -2 -16q0 -6 4 -23 t4 -22q0 -4 -8.5 -20.5t-5.5 -28.5q-7 -1 -12.5 -21t-12.5 -20q0 -1 -3 -6t-5.5 -11t-1.5 -10h-6q0 -1 -2 -18t-6 -31q-15 -8 -15 -33q3 -36 0 -39q-4 -3 -13 -24t-17 -25v-10q0 -1 -3 -5t-5.5 -7.5t-4 -10t1.5 -10.5q-6 -1 -13.5 -18t-14.5 -17q-5 0 -9 2v-10q-2 0 -4 -5.5 t-9 -12t-21 -9.5q-4 -2 -11 -2q-8 0 -21 14t-15 15v21h-7v20h7q0 28 4 51q8 0 8 8v17q3 13 24 31q4 14 -6 30q6 0 6 21q1 1 3.5 2.5t7.5 5.5l10 8q13 10 10 27q5 -2 6.5 0.5t1.5 11.5q0 17 -12 29q2 12 27 57q5 2 6 19.5t2 19.5q4 -2 6.5 1.5t4.5 8.5l3 6v9q16 31 10 40 q-1 1 -1.5 4.5t-2 10t-4.5 12.5q-2 14 -16 19q0 6 -12 6l-7 2q0 4 -12 4h-6q-4 4 -10 4h-10q-31 23 -33 25q-4 -4 -4 -11q-4 2 -13 2q-14 0 -26 -12l-21 -18q-1 -5 -13.5 -23t-12.5 -27q0 -8 2 -12q-8 0 -11 -6q2 -7 -9 -16.5t-11 -10.5q0 -3 10 -10q-1 -6 3.5 -19t4.5 -14 q0 -4 -4 -8q4 -4 6 -10v-10q-12 -3 -12 -23h-4l-6 -94q-4 0 -8 -4v-8q-5 -3 -8.5 -7.5t-5.5 -12.5t-2.5 -12t-1.5 -16t-1 -14q-18 -26 -14 -39q-19 -19 -25 -47q0 -1 4.5 -6t7.5 -11t1 -11q-16 -5 -37 -35q-23 -33 -45 -33q-7 0 -15 4v-8q2 5 -9 15t-9 16h-6v28q3 18 -10 21 v37h6l12 61q1 0 3.5 3t8 10.5t11.5 13.5q16 19 10 41q8 0 8 10v14l6 -2q3 0 6.5 8.5t5.5 8.5v12q6 2 7 18.5t2 18.5q10 0 10 4q0 10 -2 10h-6q6 3 16 20t12 19l-8 6h4q3 15 6 49q7 35 7 47q0 21 -11 47q-1 1 -7 3.5t-8 4l-6 4.5t-5.5 6t-1.5 7l-2 -4q-87 19 -115 -6 q0 10 -4 84zM354 520q-2 -15 4.5 -47t6.5 -39q1 -1 18 -3t18 -9h9l4 -4q3 -1 9 -2t9 -2q17 0 21 8q6 18 39 47q7 2 28 23q7 3 19 18t18 18q0 11 16 31t17 25q3 10 -4 28q1 7 -10 22t-13 21q-1 -2 -2 -6t-2 -6q-5 0 -20 -6t-19 -6q-8 0 -12 6q-25 3 -36 11t-17 32h-33 q0 -12 -6 -12q-6 -12 -21 -21q-25 -14 -30 -16q0 -15 -9 -39q-3 -17 4 -47q2 -9 -6 -25z" />
<glyph unicode="$" horiz-adv-x="1081" d="M35 20q36 54 47.5 141t15.5 180.5t21 141.5q29 0 42.5 -20.5t15 -47t7 -56.5t19.5 -44q124 -187 254 -254h12q16 57 4 84l23 74q-22 41 -21.5 97.5t-11.5 78.5q27 16 25.5 31.5t7.5 19.5l-23 52q10 4 17.5 1.5t11.5 -7.5l4 -5q9 3 10.5 7t-2 8t-4 9t5.5 11l-22 -14 q-5 12 0.5 32.5t-0.5 32.5q9 14 12 35q-132 27 -220.5 84t-125.5 170q0 314 213 422q11 0 47.5 7.5t60.5 8.5q-17 17 -22 25q3 9 8 46.5t25 68.5q15 -5 56.5 10.5t65.5 -4.5q19 -23 27 -49t7 -43.5t-5 -46.5t-4 -43q11 -2 37.5 -6t40 -6.5t35 -10t34.5 -17t27 -27.5t23 -42 q16 17 29 51t24.5 56t30.5 22q29 -16 41 -34t11 -30.5t-6 -33t-5 -31.5q-19 -40 -28.5 -89.5t-11 -87t-1.5 -116.5h-84q-29 28 -38 62t-5 59t-5 49.5t-38 38.5q0 26 -35 66t-68 55q-38 -215 -49 -506q219 -18 322 -119q64 -66 87 -152t-6 -184q0 -61 -48.5 -119.5 t-116.5 -91.5q-98 -61 -236 -61q0 -34 8 -61q-10 -5 -28.5 -22t-36 -27.5t-33.5 -6.5q-20 -11 -45.5 11.5t-18.5 50.5q17 10 23 31.5t-2 41.5q-52 15 -94 43l-170 125q-28 -13 -43.5 -48.5t-20 -67t-19.5 -49t-44 -3.5q-31 0 -36 5.5t-5 37.5zM244 946q0 -139 170 -254h84 q-4 33 0 45q-21 34 -27 47q19 23 21 47.5t-5.5 43t-6 43t19.5 47.5q-6 12 -7.5 43.5t-7.5 44.5q-2 31 -0.5 48.5t7 52.5t6.5 54q-33 -8 -125 -53q-30 -14 -50.5 -39t-29.5 -48t-23 -60.5t-26 -61.5zM582 176q22 -42 18 -125q131 -7 191 53q129 126 129 254q-21 39 -27 50.5 t-26 44t-33.5 47.5t-36 35t-47.5 32q-118 19 -156 25q-15 -104 -12 -129q-4 -37 7.5 -139.5t-7.5 -147.5z" />
<glyph unicode="%" horiz-adv-x="1081" d="M18 862q12 62 20.5 99t26.5 89t39.5 85.5t57.5 65.5t82 50q34 17 73 21.5t80.5 -8.5t71.5 -45q49 -72 49 -161t-49 -161q-22 -69 -83.5 -119.5t-141.5 -75.5q-45 15 -73 26t-63 30t-57 44.5t-33 59.5zM101 14q0 8 7 19t7 24q0 21 11 32.5t25.5 15t32.5 15.5t29 34h31 q0 24 -4 32t-27 31l-20 -33q-13 -16 -13 2q0 33 32 65.5t32 63.5q40 39 69.5 99.5t56.5 112t68 79.5q54 114 129 193q5 15 24 75t30 90.5t32.5 77t44.5 80.5q31 0 31 97q24 0 45 20.5t21 44.5q21 14 37.5 42.5t25.5 56t20 53t23 38.5t34.5 7t53.5 -37q45 -45 0 -96 q-22 -10 -34 -28.5t-16 -35.5t-16 -35.5t-34 -29.5q-58 -124 -94 -162q-57 -101 -153.5 -265.5t-170 -295.5t-129.5 -244q-21 -12 -32 -25t-12 -21.5t-5 -14t-14 -5.5q12 -22 3 -44.5t-24.5 -37t-30 -37t-14.5 -44.5q-15 -14 -33.5 -21.5t-30.5 -8.5t-34 -1q-14 14 -14 22z M115 897q19 -19 38.5 -42.5t28 -32.5t24 -16t38.5 -7q30 0 45 7.5t30 27.5t23 28q124 85 64 260q-10 21 -22 34.5t-25 17t-25 4t-28 -8.5t-26.5 -15t-27.5 -22.5t-25 -24.5t-25 -26.5t-22 -23.5q-18 -17 -34.5 -75t-30.5 -85zM535 379q42 126 129 258q11 0 21 14.5t17 29.5 t22 24t36 -3q0 21 32.5 26t96.5 5q29 0 64.5 -19.5t35.5 -41.5q28 -15 36 -40.5t11.5 -62t16.5 -61.5q0 -183 -164 -291q-23 -11 -38.5 -12t-24 4t-28.5 19t-38 24q63 30 113.5 73t50.5 87q14 31 21 68t8 58.5t1 67.5q-17 17 -40 29.5t-48 16t-41 -14.5q-49 0 -88 -39.5 t-39 -89.5q-31 -31 -46 -68t-17 -59.5t-2 -65.5q21 0 31 -9t11 -20t4.5 -21.5t12.5 -12.5q-10 -1 -30 -9t-34 -7t-28 16q-29 0 -37.5 16.5t-12 52t-15.5 58.5z" />
<glyph unicode="&#x26;" horiz-adv-x="1134" d="M51 461q142 138 230 266q-10 20 -34.5 42.5t-47 38.5t-45 40t-28.5 47.5t3 60.5q0 40 1.5 65t7.5 66t22.5 75t42.5 61q39 0 95.5 38.5t94.5 38.5q87 0 162 -53.5t104 -138.5q19 -38 16 -95.5t-18 -113t-36 -94.5q-33 -17 -71 -36.5t-85 -43.5t-72 -37q17 -49 46.5 -88.5 t61 -74.5t46.5 -64q23 -12 44 -39t35 -51t42.5 -43t68.5 -19q5 15 28 87t34.5 103.5t37 79t52.5 74.5q38 8 60 9t47 -10.5t40 -22.5t38 -28t42 -26q-12 -12 -17 -34.5t-6.5 -42t-14 -40.5t-38.5 -34q-3 0 -43 -7.5t-65 1.5t-43 43q-16 -15 -17.5 -36t-3.5 -42t-18 -37 q-74 -70 -74 -113q21 -43 48 -67t55.5 -31.5t55.5 -11t56 -13t49 -30.5q0 -52 -22.5 -82.5t-52.5 -30.5q-54 18 -105.5 52t-80.5 60.5t-81 78.5q0 -29 -5 -39t-34 -39q-25 0 -50 -11t-39 -21.5t-32.5 -15t-29.5 8.5q-33 -32 -67 -43.5t-68.5 -2.5t-60 21t-60 34.5 t-49.5 29.5q-37 19 -64 43.5t-43 57.5t-26 60.5t-13.5 72t-4.5 70.5t-1 77zM164 346q0 -66 31.5 -127t85.5 -61q12 14 22 9.5t15 -15t15 -22t23 -11.5h37q18 -9 38.5 -10t38 4t38.5 15.5t37.5 21.5t38.5 24t37 21q27 27 -11.5 74t-101.5 77q-38 39 -95.5 134t-95.5 134 q0 -17 -9.5 -27t-30.5 -23t-35 -27q-22 -22 -42 -90.5t-36 -100.5zM232 1016q-1 -27 4 -49.5t15 -49t21 -47.5t24 -50t21 -54q59 0 111 29.5t80 83.5q7 13 22 41t19.5 39t10 31.5t2 39t-14.5 41.5q-13 26 -35 44.5t-41.5 26.5t-42.5 19t-35 23q-16 -8 -30 -15.5t-27 -17 t-21.5 -15.5t-21 -17t-17.5 -15.5t-18 -17t-16 -15.5q-9 -28 -10 -55z" />
<glyph unicode="'" horiz-adv-x="282" d="M66 1405q25 12 141 12q25 0 30.5 -6t-0.5 -18t-6 -13q-11 -9 -12 -23t2 -25.5t-5 -27t-30 -28.5l29 -2l-27 -244v-12q-14 -11 -34 -14t-48.5 -0.5t-29.5 2.5q-5 55 1 130t6 141.5t-17 127.5z" />
<glyph unicode="(" horiz-adv-x="542" d="M27 752q0 182 99.5 362.5t250.5 306.5q24 12 39.5 13t21.5 -3t18 -18.5t19 -21.5q15 0 20.5 -9.5t0 -24.5t-20.5 -30q-33 -17 -82 -64.5t-80 -62.5q-69 -71 -108 -171t-46.5 -207.5t7.5 -215.5t51 -205q16 -47 32.5 -83.5t47 -83t76 -78t102.5 -43.5v-64 q0 -45 -40.5 -51.5t-90.5 20.5q-19 28 -56 71t-67 76.5t-58.5 80t-39.5 90.5q-42 57 -58 130t-21.5 158t-16.5 128z" />
<glyph unicode=")" horiz-adv-x="505" d="M48 1329.5q-6 15.5 0 25t22 9.5q0 24 3.5 31.5t26.5 31.5q42 -15 81.5 -54.5t89.5 -102.5t83 -96q0 -48 33 -112.5t33 -111.5q91 -238 0 -477l31 -33q-23 -11 -36.5 -27.5t-19 -40.5t-7 -41t-1.5 -48q-31 -31 -57.5 -76t-42.5 -80.5t-47 -72t-74 -58.5q-30 0 -45 7 t-29.5 28t-21.5 28q0 19 9.5 35t29 29t36.5 22.5t43.5 21.5t38.5 19q36 54 86.5 179.5t73.5 171.5q-25 25 -25 64.5t25 62.5q0 197 -129 510q-31 15 -93.5 62t-94.5 62q-16 16 -22 31.5z" />
<glyph unicode="*" horiz-adv-x="591" d="M39 762l33 49l30 27l23 -11l22 -4l21 -12l22 -16l25 -21v12l2 23l-4 29l-2 20l10 37l8 41l19 16l18 15l29 12l22 -6l27 -8l33 -21l2 -29l4 -24l-4 -25l-8 -28l-9 -35l3 -17l12 -4l22 13l17 10l35 2l36 6l23 -12l18 -15l21 -24l2 -25l2 -32l-6 -41l-25 -11l-20 -14l-21 -2 l-30 -2l-29 -4l-16 -8l-15 -9l6 -8l19 -12l16 -16l25 -17l22 -20l15 -37l10 -27l6 -24l-4 -13l-10 -20l-15 -17l-20 -8l-19 -2h-22l-25 6l-18 4l-19 33l-16 17l-18 24l-17 19l-6 8l-6 -8l-12 -19l-17 -20l-14 -25l-21 -24l-30 -17l-25 -12l-22 -6l-13 4l-16 14l-16 12l-7 23 l-2 20v25l2 27l7 22l30 21l15 16l22 18l19 21l4 18h-17l-20 13l-25 4l-20 6l-29 25l-33 20l-8 25l-4 24z" />
<glyph unicode="+" horiz-adv-x="743" d="M8 561v96q21 21 52 21.5t58 -11t57.5 -16t51.5 5.5q12 0 32 -7.5t35.5 -7.5t29.5 15l32 31l-32 254q0 28 24 39.5t48 0t24 -39.5v-190q13 -14 6.5 -32.5t-14.5 -31.5t8 -31q63 0 97.5 1t88.5 8.5t99 21.5q14 -14 21 -32.5t8 -29t1 -32.5q-22 -21 -58.5 -27t-69.5 -1 t-69 5t-57 -10q-14 15 -29 15t-24 -8l-8 -7v-190q3 -3 7.5 -9t5.5 -22.5t-13 -30.5q0 -27 -20.5 -40.5t-43.5 7.5q-21 21 -26.5 57.5t-0.5 72.5t5 78.5t-10 76.5q-43 15 -91 15t-114.5 -7.5t-110.5 -7.5z" />
<glyph unicode="," horiz-adv-x="346" d="M37 156q31 29 92 90q21 -10 58.5 -15.5t60.5 -20t37 -54.5q35 -143 -92 -404q-15 -14 -31 -21.5t-24 -8.5l-9 -1q-23 19 -16 46t25 46.5t36.5 46.5t18.5 46q0 10 6.5 38t6.5 50.5t-13 36.5q-17 -15 -48 -15t-47 -16q-22 11 -35 27t-18.5 40t-6.5 41t-1 48z" />
<glyph unicode="-" d="M63 635q0 17 7 24t15 6.5t20.5 -3.5t17.5 -3q24 -13 44.5 -6.5t53.5 5t58 -22.5v24h389q18 -11 22.5 -27.5t1.5 -42.5l-4 -26q-72 -8 -276.5 -14.5t-327.5 -34.5q-21 26 -21 121z" />
<glyph unicode="." horiz-adv-x="385" d="M45.5 112.5q2.5 14.5 17.5 28.5q0 29 15.5 48.5t34 28t55 22t57.5 24.5q14 -14 39 -30t45.5 -36.5t38.5 -56.5q0 -37 -14 -69.5t-27 -48t-41 -43.5q-20 0 -43.5 -3.5t-37 -5.5t-29 -0.5t-28 13.5t-24.5 36q-20 20 -30 31.5t-20.5 29t-8 32z" />
<glyph unicode="/" horiz-adv-x="905" d="M24.5 65q-11.5 30 6.5 50q21 0 37 16t16 37q0 22 20 43.5t40 43.5t20 44l53 51q0 43 25.5 89t25.5 69q18 0 27 4.5t10 10t4.5 10t12.5 4.5v51q11 0 17 -7t7 -13v-7q15 0 15 12.5t8 14.5h-23q0 12 14.5 25t14.5 28q22 11 35.5 37.5t22.5 54.5t18 37v53q27 9 40 28 t14.5 37.5t13.5 38t38 29.5q0 12 13.5 38t13.5 40q13 26 52 79t52 79q12 12 12 25t-6 29t-6 26q4 4 26 33t52 45q11 -10 33 -13t41.5 -10.5t31.5 -30.5q9 -35 -1 -65.5t-27.5 -49t-33 -44.5t-15.5 -52q-145 -177 -291 -419q-13 -27 -52.5 -80t-52.5 -78 q-18 -27 -52.5 -109.5t-78.5 -126.5q0 -45 -47.5 -127t-56.5 -110q-8 0 -31.5 -5.5t-43 -5.5t-30.5 11q-23 0 -34.5 30z" />
<glyph unicode="0" horiz-adv-x="1099" d="M86 465q-29 179 25.5 374.5t175.5 346.5q41 0 100.5 40t99.5 40q60 0 92.5 -1.5t80.5 -8.5t84 -24t65 -46q240 -191 240 -762q-23 -46 -37.5 -73.5t-42 -75.5t-49.5 -79.5t-55 -71t-64.5 -64.5t-71.5 -46t-82 -30q-300 -62 -479 241q0 26 -13 54t-28 50t-28 58.5 t-13 77.5zM168 543q0 -25 5.5 -51.5t21 -60.5t25.5 -55.5t36.5 -63.5t35.5 -56t41 -60.5t36 -52.5q110 -110 319 -41q96 59 161.5 168t92.5 227.5t27 245.5q-21 41 -61 141.5t-60 141.5l-78 80q-39 38 -103.5 54t-130.5 11t-128 -26q-43 -43 -67.5 -70t-61 -73t-54.5 -90.5 t-18 -86.5q-39 -82 -39 -282z" />
<glyph unicode="1" horiz-adv-x="1144" d="M64 12q0 12 2.5 24t5 32t2.5 38q36 24 73 29t68.5 -4t70.5 -18.5t78.5 -14.5t92.5 8q0 -15 6.5 -18t14 1.5t14.5 10.5l6 6q20 21 30 45t11.5 39.5t1.5 42.5q-14 85 -12 197.5t11.5 205t12 205t-11.5 197.5v125q-19 30 -63 37.5t-94 -1.5t-102.5 -13t-92.5 0.5t-61 40.5 t-11 106h465q32 28 58 11t26 -52v-1099q-12 0 -16 -4.5t-2 -13.5t6 -19t8 -24t4 -26h383q34 0 52 -26t-11 -57q-12 -24 -29 -36.5t-37 -15t-37 -0.5t-37.5 5.5t-29.5 3.5q-94 -18 -188.5 -18t-200 9t-160.5 9q-46 0 -97.5 -9t-85 -9t-71.5 18q-21 0 -32.5 4t-16 10t-4.5 18z " />
<glyph unicode="2" horiz-adv-x="1075" d="M63.5 95.5q-2.5 45.5 7.5 95.5t20.5 85.5t29.5 90.5q40 27 105 85t124.5 98t130.5 58q17 8 40 22.5t40.5 25.5t39.5 22.5t40.5 16.5t39.5 4t40 -11q16 16 47 43t46.5 43t34 40.5t26.5 52.5t8 63h39q58 0 66.5 -25.5t-25.5 -54.5q-12 0 -16 -4.5t-2 -13t6 -18t8 -22.5 t4 -24q-34 -56 -80 -93.5t-94.5 -55.5t-94.5 -29t-94 -26t-80 -36q-52 0 -91.5 -20t-79.5 -53t-68 -47q-17 -35 -57 -136.5t-62 -142.5h520q42 0 113 -9t122 -9t87 18q29 -31 29 -41t-29 -39q-14 -29 -37.5 -41t-42.5 -11.5t-46 5t-36 4.5q-94 14 -198 12.5t-182.5 -11 t-182.5 -12t-199 10.5q-14 44 -16.5 89.5zM162 1090q17 33 40 61.5t45.5 49t56 39t58 29.5t66 24t65 19t68.5 17q139 -34 222.5 -76t138.5 -125q0 -25 16.5 -53.5t29.5 -47t4.5 -44.5t-50.5 -53q0 19 -0.5 28.5t-4 23.5t-12 20t-22.5 6q0 18 -20 38t-54 45t-47 37 q-63 63 -146 85.5t-176 -5.5q-32 0 -62.5 -24t-53 -53t-46.5 -52.5t-53.5 -23t-62.5 34.5z" />
<glyph unicode="3" horiz-adv-x="1011" d="M35 -14q24 35 70 50t92 14.5t100.5 8t89.5 31.5q133 26 250.5 123.5t171.5 228.5q25 12 35 33t9 39.5t-5 51.5t-4 52q-14 14 -38 40.5t-37.5 40t-35.5 29.5t-46 23t-54 7q-31 16 -58 13.5t-54.5 -12.5t-51.5 -25.5t-49 -26t-47.5 -13t-46 12.5t-45.5 51q0 26 38 48.5 t68 22.5q71 72 101.5 104t78.5 86.5t79 100.5t56 97q-35 -11 -78.5 -10.5t-79 6t-79 -0.5t-78.5 -30q-24 11 -50.5 3.5t-59.5 -16.5t-63 -15t-60 9t-50 54q0 20 1.5 33t7.5 35.5t22 40.5t41 30q33 -16 84.5 -24.5t89 -9.5t107.5 -1q44 15 114.5 8t122.5 -16t115 8 q21 0 34 -3t23 -14.5t14.5 -19t15 -31t17.5 -36.5q-99 -76 -145 -112t-119.5 -105.5t-122.5 -135.5q25 -24 53 -29.5t89 -5.5q78 0 152 -48t128 -128q16 -31 16 -75.5t-8 -106.5t-8 -98q-43 -30 -82.5 -77t-79.5 -94t-84 -77q-12 -23 -31.5 -30.5t-38 -4.5t-38 -4.5 t-31.5 -30.5q-27 -13 -73 -39t-79 -44.5t-80.5 -39t-86.5 -29.5t-85.5 -7.5t-88.5 18.5q0 37 -35 72z" />
<glyph unicode="4" horiz-adv-x="946" d="M18 444q0 23 16 45.5t35.5 38.5t35.5 38.5t16 45.5q7 21 23.5 69t23 70t13.5 60t7 74q24 47 33.5 103.5t8.5 97t-5 105.5t-4 99q-11 0 -13.5 5.5t1 12t7.5 12.5l5 5q20 19 43 30.5t50 6.5t42 -37q13 -43 9.5 -96t-12.5 -90.5t-19 -90.5t-10 -96q-30 -146 -59.5 -246.5 t-76.5 -193.5v-35h406q0 306 -33 441q10 0 30 10t37 19.5t37 13t31 -8.5v-440q15 -30 40 -30t55 15t40 15h68q0 -11 8 -41t8 -54.5t-16 -39.5q-33 0 -69.5 10t-57 19.5t-44.5 13t-32 -9.5q0 -47 7.5 -119t7.5 -123.5t-15 -95.5q0 -32 -18.5 -55.5t-41.5 -25.5t-42 13 q-23 33 -24.5 70t8 64.5t8 64.5t-24.5 71q23 23 28 49.5t5 86.5q-30 16 -64 16t-75 -8t-64 -8q-48 -15 -105.5 -23t-94.5 -9t-105 -1q-25 0 -46.5 20.5t-21.5 46.5z" />
<glyph unicode="5" horiz-adv-x="884" d="M33 14q15 16 30.5 48.5t32.5 48.5q40 -13 83 1.5t78 29t60 1.5q22 32 53 45.5t56 13.5t49 7.5t35 28.5q14 14 42 41q24 23 36 35t34 34.5t33.5 37t30 36.5t28 39t22 39.5t18 43t10.5 44t4.5 47.5t-4.5 49q-15 42 -45 64.5t-81 38t-65 22.5q-17 -15 -64 -15t-63 -16 q-37 13 -55 6t-49 -21.5t-55 -14.5q-14 -15 -32 -23t-29.5 -9t-32.5 -1q-22 21 -24 58.5t6.5 73t7 79.5t-22.5 75v222q0 17 6.5 24t16 5t18.5 -5t15.5 -2t6.5 10h574q30 0 30 -94q-42 -21 -95 -18t-95.5 17t-95.5 17.5t-95 -16.5q-42 0 -65.5 -1t-60 -9t-64.5 -23 q0 -64 1 -99t8.5 -88.5t21.5 -98.5q62 16 98 24t89.5 16t101 6t92.5 -14q21 0 36.5 -10t22.5 -22.5t16.5 -22.5t20.5 -10q96 -93 96 -285q-73 -193 -248.5 -343t-388.5 -197q-18 0 -47 -8t-49 -12.5t-46 6.5t-48 44z" />
<glyph unicode="6" horiz-adv-x="878" d="M41 414q0 230 100 432q20 19 37.5 81.5t28.5 86.5q39 48 87 89.5t86.5 68t100 57t93.5 44t102 42.5q27 0 63.5 -22.5t36.5 -45.5q-34 -35 -75.5 -49.5t-75 -14t-75.5 -7.5t-75 -31q-96 -71 -168.5 -162.5t-99.5 -169.5q-2 -5 -11.5 -25t-12 -26.5t-10.5 -25t-11 -28.5 t-8 -28t-7 -31.5t-4 -32t-2 -36.5q17 0 50 16t51 16q10 20 28.5 33.5t37.5 20t52.5 10t54 4t60.5 0.5q31 0 69.5 -11.5t62.5 -22.5t69 -34q79 -53 118 -144.5t15 -188.5q-21 -65 -35 -100.5t-40.5 -76.5t-57.5 -57q-190 -140 -402 -35q-58 24 -98.5 62.5t-66 100.5t-37 103 t-28.5 124q-2 9 -3 14zM131 420q4 -24 9 -50t8.5 -48t-7.5 -43q7 -7 19.5 -16.5t17 -14.5t9 -14.5t1.5 -22.5t-12 -33q72 -72 151 -102.5t183 -30.5q50 26 95 71.5t71 94.5q75 154 0 268q0 19 -9.5 35.5t-31.5 31.5t-36.5 23.5t-47 23.5t-41.5 19q-33 8 -64 9t-61.5 -5.5 t-55 -15t-54.5 -25t-49 -28.5t-50 -33q-28 -20 -38.5 -45t-6.5 -49z" />
<glyph unicode="7" horiz-adv-x="935" d="M72 965q-1 28 11.5 51t18 51t-5.5 51q13 26 16.5 73.5t13.5 92t40 74.5q79 0 225 -8t265 -8t225 16v-35q0 -27 3 -83.5t2.5 -92.5t-5.5 -83t-22 -84.5t-46 -66.5v-32q-17 -18 -51 -69.5t-51 -68.5q0 -13 -17.5 -38.5t-17.5 -63.5q-17 0 -25.5 -1.5t-20 -7t-17 -20.5 t-5.5 -39q-24 -25 -46.5 -54.5t-37.5 -51.5t-41.5 -64t-44.5 -69q-15 -43 -8.5 -102.5t15.5 -102.5t-7 -102q-42 -39 -58 -45q-24 -8 -44 12q-30 30 -30 73t15 103.5t15 95.5q26 126 97 249.5t175 227.5q0 26 4.5 34.5t30.5 33.5q0 -21 13 -11q18 17 20 46q11 12 11 26 t-5.5 25t0.5 25t29 26q30 30 39 74t12.5 102.5t15.5 96.5q-15 16 -48 16t-73 -8t-49 -8q-47 0 -120.5 8t-133.5 8t-121 -16q-17 -17 -17 -85t-17 -85q0 -18 0.5 -26t3.5 -20t10 -17t20 -5q-7 -7 -17.5 -19.5t-18 -21.5t-19.5 -19t-23 -14.5t-26.5 -4t-32.5 8.5 q-23 24 -24 52z" />
<glyph unicode="8" horiz-adv-x="905" d="M61 352.5q3 24.5 15 48.5q-10 19 -7 37.5t13 31t19.5 26t12.5 22.5t-8 21q49 135 242 204q-19 20 -59.5 52t-69.5 55.5t-52.5 59.5t-23.5 71q0 38 0.5 59t3 56t7.5 56.5t15 50t24.5 48t36.5 39.5t51 35q75 49 169.5 49t172.5 -49q57 -31 97 -77t40 -95q24 -106 -2.5 -199 t-102.5 -141q-15 0 -34 -11.5t-32 -24t-34 -34.5q98 -27 170.5 -93t101.5 -146q11 -52 12.5 -105t-8.5 -107.5t-31 -103t-58 -92t-87 -73.5q-12 0 -54.5 -15.5t-82.5 -15.5q-34 -18 -102.5 -1.5t-100.5 1.5q-12 23 -31.5 40.5t-37.5 27t-37.5 27t-30.5 40.5h-72 q16 15 16 32.5t-8 27.5l-8 10q-17 38 -23.5 53t-15.5 46.5t-6 56zM178 264q0 -23 16 -40.5t35.5 -27.5t35.5 -28t16 -41q14 -14 40 -15.5t43 -2.5t17 -15q69 0 105.5 2t86.5 17.5t82 46.5q133 133 70 379q-40 39 -60.5 57.5t-61 50t-78 46t-74.5 14.5q-48 -15 -77.5 -26 t-66.5 -30.5t-60.5 -47.5t-35.5 -64q-75 -154 -33 -275zM244 981q0 -36 18.5 -66.5t41 -48t59 -44t55.5 -44.5q84 29 149 80.5t88 122.5q29 52 23 104.5t-55 102.5q0 26 -21.5 46.5t-46.5 20.5q-27 0 -75.5 4t-77 5t-63 -8.5t-58.5 -32.5q-37 -70 -37 -242z" />
<glyph unicode="9" horiz-adv-x="886" d="M63 878.5q1 18.5 5 44.5t4 33q0 47 2 76.5t17 76t44 77.5q110 81 205.5 116.5t185.5 12.5q98 -25 167.5 -94t92.5 -168q19 -35 31 -72.5t15.5 -81t-13.5 -72.5q0 -363 -227 -587q-30 -58 -78 -98t-127 -85t-121 -77q-31 0 -57 10.5t-39.5 22.5t-34.5 34q12 12 23 29.5 t19.5 26t23.5 8.5q33 -8 55.5 -5.5t50.5 16.5t49 29t50.5 32t54.5 26q31 40 90 105t91 113t48 108q17 16 33.5 48t32.5 48q-16 17 -16 49t-17 47q-27 -13 -65.5 -35.5t-67.5 -40.5t-67 -35.5t-71.5 -26.5t-73.5 -7.5t-79 16.5q0 12 -5 19t-16.5 10t-19.5 3.5t-25 0.5 q-50 25 -93 69t-68 95q15 0 23 8t9 16v8q-23 0 -32.5 16.5t-8.5 35zM168 891q0 -48 41 -110t90 -85q145 -73 227 -32q44 0 87 49t77 114q33 22 40 54.5t-3.5 61.5t-23.5 71t-13 71q-16 32 -40 55.5t-55.5 37t-59.5 22.5t-69 12t-66 4t-68 1q-39 -16 -68.5 -39.5t-47 -54 t-28 -56.5t-14.5 -63.5t-5 -58t-1 -54.5z" />
<glyph unicode=":" horiz-adv-x="372" d="M41.5 278.5q2.5 14.5 17.5 28.5q0 29 15.5 48.5t34 28t55 22t57.5 24.5q14 -14 39 -30t45.5 -36.5t38.5 -56.5q0 -37 -13.5 -69.5t-27.5 -49t-41 -43.5q-19 0 -43 -3.5t-37.5 -5.5t-29 0t-28 14t-24.5 36q-20 20 -30 31.5t-20.5 29t-8 32zM53.5 949.5 q25.5 49.5 87.5 49.5q14 28 33 35.5t47 -9t38 -25t39 -35.5q4 -3 5 -4q31 -31 31 -67t-31 -97q-41 -41 -162 -41q-15 15 -38 29t-33.5 24.5t-10.5 28.5q-31 62 -5.5 111.5z" />
<glyph unicode=";" horiz-adv-x="368" d="M47 182q31 29 92 90q21 -10 58.5 -15.5t60.5 -20t37 -54.5q21 -84 -7 -185t-85 -218q-15 -14 -31 -21.5t-24 -8.5l-9 -1q-23 19 -16 45.5t25 46.5t36.5 46.5t18.5 45.5q0 10 6.5 38t6.5 50.5t-13 36.5q-17 -16 -48 -15t-46 -15q-18 9 -30 22.5t-18 26.5t-9.5 33.5 t-4 34.5t-0.5 38zM51.5 949.5q25.5 49.5 87.5 49.5q14 28 33 35.5t47 -9t38 -25t39 -35.5q4 -3 5 -4q31 -31 31 -67t-31 -97q-41 -41 -162 -41q-15 15 -38 29t-33.5 24.5t-10.5 28.5q-31 62 -5.5 111.5z" />
<glyph unicode="&#x3c;" horiz-adv-x="481" d="M6 569v4q21 18 21 50q62 26 79 53q23 0 39 29q23 23 23 28l16 12q17 34 43 54l17 47q6 18 86 74q48 0 69 -46l-26 -67q-35 -53 -56 -68q-27 -80 -73 -98q-12 0 -21 -37l-45 -8l4 -18h21l20 4q7 -7 10 -37q21 -9 39 -64l13 -12v-6q18 6 21.5 1t-7.5 -20q14 0 72 -73 l28 -45l21 -54q-36 -36 -86 -30l-55 47q-30 0 -39 45q-53 46 -82 88q-27 53 -41 61q-20 -5 -34 9.5t-22 46.5q-43 15 -55 30z" />
<glyph unicode="=" horiz-adv-x="894" d="M63 643l50 6v17q88 12 94 12q18 0 31 -8q19 3 26 8h537v-119h-565q-7 0 -31 -4t-31 -4q-8 0 -61 12v80h-50zM113 262v115q8 0 86 4q58 6 88 6q27 0 231 4t232 4h12q57 -23 57 -59l-4 -31l-22 -26l-27 -17h-653z" />
<glyph unicode="&#x3e;" horiz-adv-x="487" d="M61 285l21 53l29 47q59 74 73 74q-12 15 -8.5 19.5t23.5 -1.5v6l12 13q17 54 39 63q4 33 10 39l21 -6h20l4 20l-45 9q-9 36 -20 36q-49 19 -76 99q-18 13 -55 69l-27 68q20 45 70 45q82 -55 88 -74l16 -49q27 -21 43 -53l16 -12q0 -6 23 -29q16 -29 39 -29q17 -27 82 -53 q0 -31 20 -51v-4q-13 -17 -55 -31q-15 -64 -57 -55q-13 -8 -41 -62q-33 -47 -82 -90q-9 -45 -39 -45l-58 -47q-49 -6 -86 31z" />
<glyph unicode="?" horiz-adv-x="821" d="M23 993q0 52 18.5 98.5t53 100t44.5 72.5q61 25 127 40.5t140 18t138.5 -12t121.5 -56t90 -107.5q14 -27 16 -62.5t-6.5 -72t-20.5 -69.5t-28 -64q-9 -27 -36 -50.5t-58.5 -39t-65 -37t-55 -43.5t-29.5 -58t12 -82q-21 -21 -30 -29t-26 -19t-30.5 -8t-27.5 17 q-9 19 -10 42.5t3.5 44.5t15.5 49t21 47t24.5 46.5t20.5 41.5q21 10 63 24t70 24.5t57 37.5t42 67q9 28 11 54.5t-6.5 51.5t-17.5 43.5t-29.5 43t-33.5 38.5t-39 40q-36 18 -79.5 27t-71.5 10.5t-80 1.5q-82 -41 -154 -117q-15 -25 -5 -39t28 -17.5t35.5 -18t17.5 -40.5 q-13 -13 -28 -45.5t-34 -52t-53 -19.5q-12 12 -34 17.5t-39 7t-30 14t-13 39.5zM254 299q40 40 105 61.5t125.5 7.5t78.5 -69q0 -26 -1.5 -41.5t-10.5 -46.5t-27 -66q-18 -18 -52.5 -27t-61 -10.5t-78.5 -1.5q-11 21 -28 51t-26 46.5t-16.5 42.5t-7.5 53z" />
<glyph unicode="@" horiz-adv-x="1482" d="M51 639q0 4 5 16t5 15v172q0 3 13 26q9 18 12 23q33 64 47 84q14 14 17 18q2 6 3 15t4 19t11 24l41 55q17 3 24 10q15 17 46 51.5t47 51.5q75 56 84 61q4 1 24.5 5t24.5 5q22 12 59 27q57 22 121 22q19 0 31.5 3.5t23.5 3.5q23 2 44 8t34 6q16 2 27 2q0 -5 16 -21h123 q13 0 29 -8q3 -1 8 -3.5t14.5 -8t18.5 -10.5q40 -25 43 -27q1 -6 36.5 -19.5t67.5 -21.5l21 -20q18 -14 28 -27q21 -25 37 -51q6 -4 14 -12q15 -12 33 -33q1 -1 3.5 -4t8 -9.5t11.5 -13.5q13 -10 22.5 -24.5t18.5 -34t10 -21.5q25 -42 55 -139q0 -12 -5 -17.5t-5 -13.5 l8 -14q10 -13 10 -18l-26 -117q-1 -7 6.5 -25.5t7.5 -27.5q0 -10 -6 -25l-10 -53q-2 -58 -27 -107q-8 -31 -8 -59q0 -17 -2 -21q-18 -18 -19 -20q-20 -20 -20 -25q4 -12 4 -14q0 -8 -10 -35l-10 -26l-35 -25l-41 4l-51 -20h-62l-53 16l-59 31l-33 41l-97 96l-81 -78 q-45 -25 -105 -25q-115 0 -196 97l-14 25q-13 24 -23 34q-28 31 -45 72l-11 24q-1 8 -10.5 25.5t-9.5 30.5q4 16 4 34l-4 72q0 10 17.5 35.5t19.5 30.5q6 18 17 41t20 39t25.5 45t23.5 41q24 18 51 36q24 16 59 29q62 21 66 25q2 2 20 2q8 0 19 -1t25 -2.5t22 -2.5 q37 0 68.5 -12.5t78.5 -53.5l11 25l41 30l45 2l41 -12l34 -45v-55l-14 -53l14 -62l-24 -35l4 -51l22 -55l-2 -43l-20 -41l6 -39v-62l31 -36l20 -45l47 4q41 26 60 53q10 10 12 14q1 3 11 19.5t16 27.5q3 3 11.5 18.5t8.5 20.5v137q8 13 8 27q0 15 -12 45q-5 15 -12 29v90 q0 4 -11.5 17.5t-11.5 43.5q-6 4 -10 8.5t-13 16t-22 25.5l-26 26l-9 21q-12 25 -33 45.5t-38 29.5l-41 25q-3 4 -6.5 8t-4.5 4q-18 18 -20 19q-72 30 -135 43q-4 2 -10.5 5.5t-8.5 4.5q-5 5 -20 10q-31 -3 -43 0q-67 15 -102 15l-39 2q-5 -1 -12.5 -9t-10.5 -8q-4 0 -17 2 t-18 2q-34 0 -78 -20q-7 -3 -21.5 -8.5t-21.5 -8.5l-43 -14l-63 -55l-23 -13q-16 -17 -20 -34q-30 -23 -44.5 -46.5t-14.5 -39.5v-21l-33 -35v-20q0 -24 -6 -45l-17 -41l-6 -43l-8 -41l-2 -10l-1.5 -7.5t-0.5 -3.5q0 -8 10 -28q3 -6 0 -15l-20 -94q0 -12 14 -26 q0 -7 -4 -10.5t-4 -10.5l12 -33q7 -32 33 -82l20 -41q16 -20 39 -43q15 -18 25 -26q6 -6 12 -10q23 -46 53 -62q6 -9 15 -18q52 -13 69 -23l49 -31q41 -24 56 -24h100q2 -7 12 -17h31q7 6 96 19q35 0 74 8q13 3 18 -10l37 14h35l62 -14h71l66 14l94 -24l39 -35l-4 -72 l-31 -31l-55 -20l-72 4l-74 14l-51 11q-76 8 -92 6q-6 -1 -13.5 -2t-11.5 -1.5t-6 -0.5q-13 0 -45 8l-8 -8q-10 -13 -18 -13h-50q-40 0 -129 21q-40 -3 -55 0q-5 0 -24 10.5t-23 11.5l-51 11q-6 2 -18.5 6t-24.5 8t-23 8q-13 6 -27.5 12.5t-20 9.5t-14.5 9.5t-20 17.5l-3 4 q-3 5 -7 9q-28 18 -39 22q-31 17 -63 49q-24 24 -37 54l-10 26q-2 2 -5 3.5l-5 2.5t-3 2l-22 23q-7 9 -31 41l-22 22q0 49 -13 52q-13 7 -16 26q-2 8 -2 21q2 25 2 61v31l-16 33q-15 41 -15 59zM532 684q0 -76 21 -76q4 -8 4 -16l-2 -25q0 -16 29 -49q21 -30 28 -37 q11 -12 49.5 -20t71.5 -8q112 0 125 73q0 2 1 8.5t0 12t-5 12.5l4 59l12 58l9 45l-9 20v58q5 0 10 6.5t6 12t-1 7.5q-4 3 -9 1t-12 -6.5t-10 -4.5q-30 0 -66 25q-45 30 -55 32l-16 2q-4 1 -17 4t-22 3l-12 -15q-18 0 -33 -6q-12 -6 -15 -8q-37 0 -55 -15.5t-18 -52.5 q0 -7 -6.5 -46.5t-6.5 -53.5z" />
<glyph unicode="A" horiz-adv-x="1124" d="M23 0q0 14 23.5 37.5t47.5 23.5q12 0 36 -4t34 -4q45 0 45 62q19 188 61 376.5t103.5 412.5t89.5 349q45 45 92 45q70 0 117 -88q109 -482 254 -1138q16 -15 60.5 -19.5t79 -12t34.5 -30.5q0 -10 -6 -22q-36 0 -116 -13.5t-118 -13.5q-98 0 -145 70q0 12 21 13.5 t45.5 0.5t45.5 14t21 50q0 20 -6 47q-17 17 -21 51.5t-15.5 67t-47.5 51.5q-40 0 -128 9t-138 9q-85 0 -156 -18q-23 -23 -44.5 -120t-39.5 -134q13 -13 36.5 -18.5t42 -7.5t32.5 -15.5t14 -42.5h-336q-18 0 -18 12zM336 410h168q39 -19 84 -19q27 0 84 9.5t86 9.5 q0 28 -1.5 43.5t-11.5 39.5t-30 44q-22 42 -22.5 126t-20.5 125q-41 80 -41 211q-22 22 -43 85.5t-41 84.5q-27 -80 -42 -130t-28.5 -120.5t-13.5 -130.5q-81 -235 -127 -378z" />
<glyph unicode="B" horiz-adv-x="1263" d="M39 1245q15 15 29 38.5t25 34.5t30 11h715q44 -22 65.5 -34t55 -34t54.5 -46.5t36 -55.5q32 -62 32 -124.5t-32 -127.5q0 -29 -14.5 -56t-31 -42.5t-43 -37.5t-36.5 -32q12 -12 84.5 -77t111 -113t58.5 -105q9 -33 8 -64q0 -28 -7 -56q-8 -30 -16.5 -53.5t-28.5 -53 t-34 -49t-42 -50t-43.5 -46l-47.5 -47.5q-26 0 -63.5 -11.5t-65 -21t-62 -3.5t-63.5 36q-43 -23 -106 -23t-105 -22h-379q-32 34 -37.5 44.5t-5.5 41.5q12 23 34.5 28.5t50 -0.5t56 -12.5t59.5 -1t54 28.5q-13 129 -13 284t7 284q3 62 3 131q1 73 -3 153q-8 155 -37 284 q-11 0 -44.5 -11.5t-65.5 -21.5q-20 -6 -42 -5q-15 0 -31 2q-40 6 -69 36zM375 1202q29 -44 37 -102q4 -31 4 -61q0 -26 -3 -52q-8 -59 -8 -127q0 -64 13 -121l295 43q125 0 168 41q86 84 86 211q-12 83 -57 126q-44 44 -108 52q-52 7 -105 6h-25q-24 -1 -48 -1q-44 1 -90 3 q-72 4 -116 25zM418 109q59 0 153 -10.5t154 -16.5q17 -2 35 -2q46 0 94 11q68 15 113 59q85 132 85 225q0 67 -44 112q-115 190 -387 190q-92 0 -203 -22v-546z" />
<glyph unicode="C" horiz-adv-x="1087" d="M64 610q0 13 -1 26q0 96 23 200q26 120 86 219q0 43 164 207q40 0 87 12t79 23t79 15q9 1 19 1q36 0 68 -13q39 -18 73.5 -42t47.5 -35.5t45 -42.5l40 39q-15 14 -10.5 25.5t16 16.5t23.5 15.5t12 23.5q23 0 32.5 -0.5t24.5 -3.5t21 -11.5t6 -22.5q-19 -58 -29 -140.5 t-11 -134.5t-1 -139q0 -30 -8 -42t-17.5 -11.5t-28.5 5.5t-30 5q-23 23 -31.5 49t-6.5 48t6.5 42.5t3.5 38.5t-12 29q-31 62 -88.5 120t-118.5 87q-30 10 -58.5 12t-55 -7t-47 -18.5t-46.5 -31.5t-41.5 -37t-42.5 -43q-13 -40 -42 -86t-55 -79.5t-46.5 -78t-20.5 -86.5 q12 -29 11 -61t-7.5 -58t0.5 -50t35 -38q0 -21 -19.5 -41t-19.5 -41q10 -21 28 -76t38 -83.5t59 -47.5q0 -38 18.5 -67t58.5 -61.5t46 -39.5q46 -46 118.5 -46t170.5 46q40 40 62.5 65.5t50 64t40 78t12.5 83.5q15 15 29 38.5t25 34.5t30 11q21 0 31 -1t24.5 -4.5t20.5 -13 t6 -24.5q0 -54 -21 -107t-54.5 -116t-49.5 -109q-139 -138 -348 -138q-69 0 -147 15q-27 7 -52 19t-47.5 31t-41.5 38t-38.5 47.5t-33.5 50t-32.5 57t-29 56.5t-28.5 59t-27 56q-22 112 -26 219z" />
<glyph unicode="D" horiz-adv-x="1255" d="M41 1245q19 19 43 28.5t39 11t43 1.5h209q18 -18 28.5 -18t24.5 9t29 9q82 0 123 -1t106.5 -7t105.5 -18.5t86.5 -37.5t82.5 -61q44 -14 73 -46t40.5 -61.5t26 -75t25.5 -67.5q32 -111 38 -225q2 -30 3 -60q0 -84 -14 -164q-18 -110 -67 -209.5t-125 -176.5 q-71 -47 -158 -72.5t-178.5 -32t-177 -6.5t-188 -1.5t-177.5 -12.5q-18 18 -18 39t9 33l9 12q0 29 14.5 41t31.5 11t43 -6t36 -5h125q12 61 12 130v20q-2 80 -12 142t-12 142v25q0 67 12 127v540q-26 14 -62 5t-76 -19.5t-74 -18t-56.5 10.5t-22.5 65zM416 285 q20 -42 20 -115.5t21 -93.5q27 12 77 12t96 -7q22 -3 48 -3q27 0 57 4q58 8 101 35q13 27 42.5 62.5t55.5 63.5t46.5 62t20.5 62q35 23 49 59q10 26 9 53q0 11 -1 21q-5 38 -12 81.5t-12 82.5q-1 11 -1 22q0 28 9 57q-22 68 -63.5 173t-60.5 161q-38 20 -101.5 61.5 t-107.5 63.5q-23 -11 -58 -11q-17 1 -37 3q-60 8 -103 18q-15 3 -30 3q-31 0 -65 -13v-41q0 -97 9 -284.5t9 -334t-18 -257.5z" />
<glyph unicode="E" horiz-adv-x="1243" d="M31 1221q39 19 85.5 28.5t76.5 11t86 1.5h743q32 0 42.5 -5t41.5 -36q0 -37 12 -91q11 -52 20 -90q5 -22 5 -47q0 -16 -2 -33q-6 -42 -35 -71q-31 0 -41.5 5t-42.5 36v250h-619l-41 -330q17 -18 18.5 -41.5t3.5 -57.5t19 -69q43 -21 95 -26q12 -1 23 -1q43 0 91 13 q62 17 121 57q0 12 -9 49t-9 67.5t18 47.5q84 -39 84 -207q-13 -28 -13 -68t7 -76q3 -17 3 -35q0 -21 -4 -41q-8 -40 -36 -69q-29 14 -41 39.5t-11 47.5t6 60.5t5 59.5h-41q-26 0 -88 9t-113.5 9t-87.5 -18v-539h580q35 54 46.5 118.5t15 122.5t20.5 91q0 18 10.5 28.5 t20.5 11.5l10 1q29 -42 35 -100q2 -23 2 -45q0 -32 -5 -60q-9 -47 -20.5 -108.5t-11.5 -97.5q-14 -28 -43.5 -36t-59 -1t-59.5 7t-45 -13h-827q0 22 -15 22q-5 0 -1 4q2 3 16 17q0 27 27 34q14 4 31 4q16 1 34 -3q38 -6 82 -8h6q38 0 67 11q18 17 10 43t-19 52q-4 9 -4 22 q0 21 13 49v953q-27 12 -65 12h-3q-39 0 -75 -8q-17 -3 -36 -3q-19 -1 -40 3q-40 8 -69 37z" />
<glyph unicode="F" horiz-adv-x="1140" d="M31 39q14 14 27 36t23.5 32t27.5 10q39 -20 60 -29t54.5 -19t62 -7.5t56.5 16.5v1050q-39 12 -78 12h-3q-40 0 -70 -6.5t-62 0t-59 33.5v39q117 29 252.5 29t252.5 -29q29 0 63.5 8.5t55 8.5t37.5 -17q39 0 110 8.5t129.5 8.5t110.5 -17q18 -55 27 -123t10.5 -117 t1.5 -149q-29 -29 -58 -29l-58 29q0 117 -39 156q27 0 33.5 13t0.5 31t-6.5 38t11.5 35l-506 38h-78v-466q35 -17 73.5 -17t86 8.5t73.5 8.5q39 78 39 194l39 39l39 -39v-506q0 -17 -19.5 -17t-38.5 9l-20 8q-17 35 -17 64.5t8.5 66.5t8.5 64q-55 18 -108 27t-82.5 10.5 t-81.5 1.5v-506q22 -8 44 -8q16 0 30 4q38 8 73 16t63 10.5t45 -21.5t17 -79q-35 -17 -93 -17t-138 8.5t-119 8.5q-18 0 -57.5 -7.5t-75.5 -12.5q-35 -6 -73 -6h-3q-36 0 -63 16q-28 16 -39 49z" />
<glyph unicode="G" horiz-adv-x="1153" d="M62 568q5 58 26 98q0 155 61 293.5t177 224.5q13 4 45.5 16t50 18t49.5 15t53 11.5t50.5 2.5t52 -7t47.5 -20.5t47 -35.5q21 0 61.5 -41t59.5 -41q0 18 0.5 29t4.5 31t12 32t24 21.5t39 9.5q13 -27 10.5 -55t-11.5 -47t-11 -46t12 -53q-22 -22 -28 -56q-3 -19 -3 -37 q0 -14 2 -27q4 -30 6 -58t-11 -45t-46 -17q-17 18 -17 38t8.5 44.5t8.5 38.5q0 58 -49.5 132.5t-108.5 105.5q-42 29 -94 33q-11 1 -22 1q-40 0 -78 -13q-49 -17 -90.5 -42.5t-73.5 -56.5q-91 -92 -146 -231.5t-55 -286.5q28 -14 35 -30.5t0.5 -34t-7 -42t12.5 -53.5 q41 -39 119 -199q0 -29 25 -53t55 -24q66 -67 141 -67q46 0 96 26q64 22 117 53t98 79.5t64 106.5q-19 39 -19 108.5t-20 88.5q-53 0 -82 1.5t-74.5 11t-83.5 28.5q0 27 20 33.5t50 0.5t65 -6t66 13h276q3 -3 6 -7t9 -13q4 -6 4 -10q0 -3 -2 -5q-3 -6 -17 -6 q-16 -17 -47.5 -19t-62.5 -3.5t-47 -18.5q0 -41 2 -78.5t7 -76t8.5 -64t13.5 -67.5t14 -59t17 -67t17 -65q-12 -11 -23.5 -26.5t-17 -21.5t-15 -5t-23.5 16q-17 15 -18.5 46.5t-3.5 63.5t-19 48q-28 -43 -62 -74.5t-84.5 -56.5t-77 -35t-92.5 -33q-71 18 -114.5 32t-93.5 37 t-86 54.5t-64 75.5q-11 22 -29.5 52.5t-27.5 47.5t-17 43.5t-8 54.5q-37 38 -53 100q-12 45 -12 89q0 16 2 31z" />
<glyph unicode="H" horiz-adv-x="1277" d="M86 -26q-6 9 -7 19q0 17 17 36q22 22 47.5 27t47 -1t41.5 -12t37 -1t28 28q12 94 12 208v33q-2 134 -11 241q-10 107 -12 241v43q0 109 11 198q-12 15 -11.5 36.5t7 40.5t-0.5 32.5t-34 13.5q-18 -9 -44 -23.5t-38.5 -21t-28.5 -11.5t-28 -1t-23 16v121h282l202 -41v-39 l-202 -41v-442l40 -41q55 13 116 12q2 1 4 1q64 0 116 -8q25 -3 52 -3q28 -1 58 3q56 8 98 36q20 20 20 110t19 129q0 11 -8.5 49t-8.5 78t17 76q-16 12 -47.5 13t-63 -3t-48 12t-3.5 58q34 17 89 18.5t119.5 3.5t113.5 19q18 0 29 -0.5t31 -4.5t32 -12t21.5 -24t9.5 -39 q0 -5 -1 -11.5t-11.5 -18t-28.5 -11.5q-12 0 -47.5 9t-65 9t-47.5 -18q-9 -72 -9 -159q0 -43 3 -90q6 -141 20 -260q13 -111 13 -247v-20q-1 -148 -27 -270q17 -17 38 -18.5t42.5 -3.5t38.5 -19q0 12 5 20t11.5 12t19.5 6t21.5 2.5t24.5 0.5q17 -18 17 -38.5t-8.5 -45 t-8.5 -37.5h-445q-39 39 -39 80q36 18 65.5 18t57 -9t39.5 -9q18 95 27 195.5t10.5 160.5t1.5 168q-17 17 -37 17t-45 -8.5t-39 -8.5q-78 19 -145 27.5t-112.5 10t-144.5 1.5v-563q20 0 57.5 5t59 6t46.5 -11t39 -41q0 -4 -1 -10.5t-11.5 -17.5t-28.5 -11h-404q-33 1 -49 25 z" />
<glyph unicode="I" horiz-adv-x="970" d="M61 1193q2 1 7 1q207 30 414.5 30t414.5 -30q17 0 27 -10t11 -20l1 -9q-26 -27 -58 -34.5t-55.5 -1t-48 6.5t-37.5 -12q-57 31 -96 31t-98 -31q17 -53 17 -121t-8.5 -151t-8.5 -121q17 -18 17 -28.5t-8.5 -24t-8.5 -27.5v-553q35 -17 84 -17t119 8.5t112 8.5h39 q17 -17 27 -36.5t11 -30.5l1 -11l-39 -39h-788l-41 39v8.5t2.5 19t6.5 23.5t12.5 18.5t19.5 8.5q79 0 122 -1.5t109.5 -10.5t122.5 -27q11 22 11 55q0 16 -2 34q-8 56 -18 98q-3 15 -3 30q0 29 12 60q0 93 -8.5 251t-8.5 286.5t17 250.5h-354q0 21 -37 58q-14 13 -14 18 q0 2 3 3z" />
<glyph unicode="J" horiz-adv-x="1101" d="M23 231q0 43 0.5 63t3.5 55.5t10.5 53t20.5 37.5t34.5 28.5t50.5 8.5q20 22 42 15t41 -30t42 -67q0 -17 -11 -27.5t-33.5 -24t-37.5 -30.5q-32 0 -37.5 -5t-5.5 -34q0 -45 15 -91t53.5 -90.5t95.5 -63.5q43 -21 94 -26q12 -1 24 -1q41 0 89 12q61 17 119 56 q67 169 67 365q0 119 -24 247q17 17 17 27.5t-8.5 24.5t-8.5 30q0 40 8.5 114.5t8.5 135.5t-17 116q-26 13 -57.5 8t-67.5 -11.5t-67 -11.5t-57.5 8.5t-37.5 47.5q29 29 62.5 41t58 11t63.5 -6t60 -5q58 0 144 9t148 9t117 -18q20 0 28 -12q3 -6 3 -14t-3 -17 q-8 -19 -28 -39h-284l39 -448q18 -18 18 -39.5t-9 -58t-9 -66.5q0 -56 -1 -88.5t-5 -92t-14.5 -101t-28 -91t-47 -88.5t-68.5 -69q-100 -68 -215 -68q-72 0 -150 27q-88 29 -150.5 106.5t-94.5 177.5z" />
<glyph unicode="K" horiz-adv-x="1290" d="M84 35q11 34 32.5 40t45 -4t47.5 -18t45.5 5.5t32.5 58.5l-41 82v770q31 31 31 82t-31 82q-13 12 -28.5 6.5t-34.5 -12t-36 -12t-34.5 7.5t-28.5 46q0 16 0.5 24.5t2.5 21.5t6 19.5t12 11.5t20 5q14 0 38.5 9t44.5 9t38 -18q19 0 66 5t78 6h5q29 0 66 -11q40 -12 67 -41 q7 -17 8 -24.5t-7.5 -11t-20 -3t-29.5 0t-35.5 -2.5t-38 -11t-36.5 -25q0 -26 9 -87.5t9 -111.5t-18 -86q10 -10 10.5 -35.5t-10.5 -66.5t-11 -66.5t11 -36.5v-82q83 85 162.5 195.5t158.5 219.5t164 193q-9 0 -35 -4t-42 -5t-30 11t-14 39q17 17 50 18.5t76 3.5t77 19h203 l41 -41q0 -20 -1 -30t-4.5 -23t-12 -18.5t-23.5 -5.5q-21 0 -81.5 18t-80.5 18q-31 -40 -83.5 -110.5t-81.5 -108.5t-73.5 -89.5t-87.5 -94.5q0 -36 20.5 -77t55 -91t47.5 -76q7 -15 29.5 -65.5t36.5 -79.5t40.5 -69.5t55.5 -67.5q0 -16 20.5 -40t41 -56.5t20.5 -67.5h41 q13 0 37.5 9t45 9t38.5 -18q34 0 51 -26q7 -10 7 -20q0 -17 -17 -36q-43 -28 -101 -34q-23 -2 -43 -2q-33 0 -63 6q-50 8 -120.5 19t-119.5 11v41q20 21 60 21t61 20l-244 405q0 65 -32.5 113.5t-90.5 48.5q-12 -18 -31 -45.5t-33 -47t-31.5 -48t-29 -52t-22.5 -54.5 t-15 -60q-4 -26 -5 -57q1 -3 1 -7q0 -36 7 -73q12 -14 12 -37t-7 -45t0.5 -45t35.5 -37q46 27 79 27q7 0 14 -1q36 -8 66 -67l-41 -39q-42 0 -93 8.5t-92.5 8.5t-96.5 -17h-41q-2 -3 -6.5 -6t-12.5 -9q-5 -4 -10 -4q-2 0 -4 2q-6 4 -6 17q-38 0 -74 26q-20 15 -20 30 q0 12 12 24z" />
<glyph unicode="L" horiz-adv-x="1128" d="M39 18q0 41 25.5 51t59 -1.5t66.5 -16.5t48 6q13 0 36.5 -8.5t43.5 -8.5t38 17v951q0 26 -1.5 40.5t-11 37t-28.5 40.5h-237q-16 43 -7 57.5t28.5 31t19.5 30.5q79 -19 257 -19t257 -20q0 11 4 15t12.5 2t17 -5.5t21.5 -7.5t23 -4q3 -3 6 -7t9 -13t2.5 -15t-17.5 -6 l-39 -39h-238q0 -101 9 -310t9 -396t-18 -363q55 -11 118 -11h24q76 2 135 11.5t135 11.5h19q66 0 124 -12q16 0 8.5 22t-18 48.5t9.5 48.5q-18 18 -18 28.5t9 24t9 27.5q13 25 8 51.5t-9.5 53t-5 47.5t19.5 34t65 13q18 0 18 -20t-9 -53t-9 -46q12 -35 12 -77v-12 q-2 -49 -11 -89q-10 -40 -12 -89v-16q0 -40 11 -73h-909q-18 -18 -42 -18q-15 0 -32 7q-45 18 -45 49z" />
<glyph unicode="M" horiz-adv-x="1251" d="M43 35q48 45 68 53q29 10 53 -14l41 -39q28 13 33.5 36t-3 43t-19.5 44.5t-11 36.5v927h41q-29 13 -54 12.5t-43 -7t-35 0.5t-30 35q-27 31 -10.5 55.5t49.5 23.5q24 12 53 13h8q34 -2 61 -11t60 -11.5t60 9.5q15 8 23.5 11t12.5 -19.5t4.5 -35t0.5 -35.5 q-11 -23 -3.5 -45t25.5 -38.5t35.5 -36.5t25.5 -38t-4 -44q13 -13 13 -35.5t-7 -44t1 -44.5t36 -38q19 -39 39 -159.5t41 -162.5q2 -3 6.5 -6t13 -9t14 -2.5t5.5 17.5q22 21 42.5 114t37.5 128q0 52 20 106t40 99t20 77q23 22 33 52t11.5 57t5.5 53.5t21.5 47.5t51.5 31h203 q11 0 19 -4.5t11.5 -10t5.5 -19t2 -20.5v-25q-11 -22 -27.5 -27.5t-32 1t-29.5 12t-22.5 1t-8.5 -27.5v-1048q0 -13 6 -16t13.5 1t13.5 9l6 6q19 18 39.5 18t30.5 -9l11 -9q31 -29 31 -39t-31 -41q-36 -17 -66.5 -17t-68 8.5t-65.5 8.5q-20 0 -43 -7.5t-37.5 -13t-30 -5.5 t-28.5 16t-25 51q0 29 5.5 34t37.5 5q20 0 30.5 -0.5t24 -4t19.5 -12t6 -22.5q20 60 20 160.5t21 160.5v525l-41 241q-54 -88 -86 -212t-59.5 -273t-57.5 -240q-18 -19 -41 -28.5t-37.5 -11t-40.5 -1.5q-27 27 -41.5 67t-19 74.5t-20 74.5t-42.5 67q-20 77 -79.5 238 t-79.5 245v-1048q10 -22 31 -24t39.5 7.5t35 11t19.5 -12.5t-7 -62v-39q-27 17 -68 19q-5 0 -11 1q-35 0 -69 -9q-39 -10 -81.5 -17t-76 -7t-59.5 22.5t-36 70.5z" />
<glyph unicode="N" horiz-adv-x="1212" d="M41 -2l39 84q18 16 52 8t60 -17.5t52 9.5v645q-12 47 -12 104v17q2 67 12 118q10 50 12 110v17q0 48 -12 81q-29 11 -54 5t-42.5 -17.5t-35 -1.5t-32.5 52q0 42 20 52q9 5 21 5q13 -1 30 -7q31 -12 67 -16q12 -2 23 -2q23 0 44 7q0 -13 7 -17t17.5 -2t26 -2.5t29.5 -17.5 q0 17 10.5 27t20.5 11l10 1q53 -71 94 -163.5t79 -197t68 -163.5q10 -20 46.5 -76.5t55.5 -104.5t19 -102q101 -201 121 -241q31 91 31 161t-31 162v525q0 13 9 37.5t9 45.5t-18 40q-9 0 -28 -4t-35.5 -6t-35 -1t-35 13.5t-28.5 35.5q18 0 28.5 10t11.5 20l1 9 q33 -10 74 -10q22 1 48 3q72 8 122 18q16 3 34 3q39 0 87 -14q0 -17 9.5 -27t19.5 -11l9 -1q-9 -29 -22.5 -43t-27.5 -14.5t-29.5 1.5t-29.5 4.5t-27.5 -4.5t-22.5 -26q0 -112 -1.5 -179.5t-11 -180t-28.5 -205.5q41 -162 41 -567q-17 -16 -39.5 -17.5t-44.5 -3.5t-39 -18 q-40 81 -100.5 263t-100.5 263q0 40 -25.5 85t-55.5 81t-55.5 89.5t-25.5 107.5q-35 35 -57.5 89t-47 121t-56.5 116h-41q0 -120 9 -345.5t9 -417t-18 -370.5h161q14 0 17 -6.5t-1.5 -15t-10.5 -15.5l-5 -6q-61 -20 -181 -20t-181 -19q-32 0 -42.5 5t-39.5 34z" />
<glyph unicode="O" horiz-adv-x="1099" d="M86 465q-10 62 -10 126q0 121 36 249q54 196 175 346q41 0 100.5 40t99.5 40q60 0 92.5 -1.5t80.5 -8.5t84 -24t65 -46q240 -191 240 -762q-23 -46 -37.5 -73.5t-42 -75.5t-49.5 -79.5t-55 -71t-64.5 -64.5t-71.5 -46t-82 -30q-51 -11 -98 -11q-232 0 -381 252 q0 26 -13 54t-28 50t-28 58.5t-13 77.5zM168 543q0 -25 5.5 -51.5t21 -60.5t25.5 -55.5t36.5 -63.5t35.5 -56t41 -60.5t36 -52.5q68 -68 173 -68q66 0 146 27q96 59 161.5 168t92.5 227.5t27 245.5q-21 41 -61 141.5t-60 141.5l-78 80q-40 38 -104 54q-49 12 -99 12 q-16 0 -31 -1q-66 -5 -128 -26q-43 -43 -67.5 -70t-61 -73t-54.5 -90.5t-18 -86.5q-39 -82 -39 -282z" />
<glyph unicode="P" horiz-adv-x="1187" d="M78 1188q-5 13 -4 33q0 23 6 53q28 28 68 29h5q37 0 73 -13q38 -14 87 -21q18 -3 35 -3q29 0 55 8h240q31 13 67 13q9 0 18 -1q46 -4 77 -15.5t77 -24t85 -11.5q171 -171 171 -378q0 -50 -10 -103q-31 -62 -86.5 -118t-115.5 -85q-40 -27 -110 -33q-27 -2 -54 -3 q-41 -1 -80 5q-64 8 -147.5 19.5t-131.5 11.5q31 -120 31 -240.5t-31 -240.5q37 0 89 10q52 12 88 20q22 5 45 5q15 -1 31 -3q40 -6 69 -32q0 -32 -25 -57t-57 -25q-88 17 -178.5 17t-203 -8.5t-181.5 -8.5v121q12 22 34 27t46.5 -3.5t54 -17.5t56 -13.5t51.5 7.5 q0 26 -1.5 40.5t-10.5 37.5t-27 42q0 404 39 564q-17 17 -17 37t8.5 44.5t8.5 38.5q0 27 -8.5 76t-8.5 89.5t17 76.5q-18 18 -48.5 20t-58.5 -7t-58.5 -13.5t-49.5 0.5t-29 33zM403 590h41q61 0 181.5 21.5t181.5 21.5q62 0 116.5 31t82.5 90q0 27 9 73.5t9 77t-18 47.5 q-9 68 -42 113.5t-76 66.5t-103.5 32.5t-114 13t-119 5.5t-107.5 13q0 -442 -41 -606z" />
<glyph unicode="Q" horiz-adv-x="1179" d="M60 538q-5 23 -5 56t5 74q8 84 8 112q19 40 59 122t59 124q14 13 18.5 28.5t3 26t2.5 18t19 7.5q27 27 41 42t27.5 38t13.5 41q0 19 10.5 30t20.5 12l10 1v-43q17 0 27 10.5t11 21.5l1 11q19 -19 39.5 -19t45 9.5t38.5 9.5q35 -12 98.5 -26.5t109.5 -26.5t103 -40.5 t99 -70.5q123 -240 123 -531q0 -47 -8 -91t-28 -94t-33.5 -80t-47 -94t-47.5 -91q-14 -15 -37.5 -31t-45 -36.5t-40.5 -55.5q0 -41 0.5 -62t2.5 -56.5t7.5 -56.5t14.5 -45.5t24 -40.5t35 -26q13 0 37.5 -9.5t45 -9.5t38.5 19l-41 82h84q0 28 1.5 43t10.5 38t27 42 q39 0 55 -24q13 -19 13 -45q0 -7 -1 -15q-4 -36 -24 -80q0 -29 -14.5 -55.5t-31 -41.5t-42.5 -35.5t-37 -31.5q-95 0 -155.5 38t-88.5 126q-41 41 -41 205q-85 0 -154 10t-137.5 35.5t-120.5 76t-82 124.5q-3 6 -13 27t-13.5 28t-12 26.5t-12 28.5t-10 26t-9 28t-6 26t-5 28 t-1.5 26q-36 39 -44 87zM147 451q10 -21 27.5 -73.5t37.5 -81t58 -46.5q0 27 13.5 47.5t32 32.5t40.5 33.5t35 48.5q29 -13 60.5 -12.5t57 6.5t49.5 -1t38 -34q46 0 72 -17t36.5 -43.5t19 -54.5t27.5 -54t52 -38q0 22 40 64t40 61q13 15 12.5 36.5t-6.5 40.5t1 32.5t34 13.5 q21 85 26 184q1 22 1 46q0 77 -13 158q-16 106 -55 185q-36 18 -65.5 47.5t-58 66.5t-38.5 48q-65 21 -133 26q-15 1 -31 1q-51 0 -101 -12q-65 -17 -104 -56q-8 -8 -15 -19.5t-12 -21.5t-9.5 -20.5t-9 -17t-9.5 -10.5t-11.5 -2t-15.5 11v-84q-73 -107 -113 -242 q-23 -77 -23 -147q0 -53 13 -102zM311 125q22 -23 62.5 -43.5t60.5 -38.5q13 13 30.5 10.5t34.5 -11.5t43 -11h6q23 0 48 12q24 11 36.5 27.5t15.5 35.5q1 11 1 20q0 8 -1 16q-2 16 -5.5 36t-3.5 29q0 36 -31.5 57t-75.5 36t-59 30q-38 -19 -71 -56.5t-47.5 -64t-43.5 -84.5 z" />
<glyph unicode="R" horiz-adv-x="1245" d="M91 16q2 8 6 17.5t8 22.5t4 24h239q-17 161 -17 341t8.5 391t8.5 316q-18 18 -51 22q-16 2 -31 3q-18 0 -34 -3q-32 -5 -64.5 -7t-50.5 2.5t-24 28.5q-1 5 -1 12q0 23 17 61h38q79 0 238 18t289.5 18t238.5 -36q18 -35 49 -65t65.5 -56t47.5 -39q29 -43 41 -95 q8 -34 7 -70q0 -19 -2 -38q-6 -56 -17 -101t-29 -99q-26 -13 -66.5 -47t-80.5 -54t-94 -20v-41q119 -119 161 -203v-239q29 -12 60 -6t56 20.5t49 13.5t38 -28q0 -58 -24.5 -90.5t-57.5 -32.5q-121 0 -203 41q-27 28 -35 68q-4 21 -4 42q0 18 4 36q7 41 7 88q0 45 -13 87 q-21 11 -39 32.5t-31.5 43t-29.5 42t-41 33.5t-59 13q-13 27 -43.5 35t-62.5 5q-9 -1 -17 -1q-24 0 -53 6q-39 8 -66 35v-483h203q19 0 26 -12t0 -31t-26 -39q-30 -31 -61 -31t-62 31q-39 0 -115 -9t-145.5 -9t-140.5 18q-12 0 -16 4q-3 3 -3 8q0 3 1 6zM430 604h162 q34 11 101 19t116.5 15.5t103.5 38.5t82 87q0 203 -41 285q-18 36 -58.5 55.5t-98 34.5t-84.5 28q-26 -12 -63 -12q-2 1 -4 1q-40 0 -74 7q-17 3 -36 3q-20 0 -40 -4q-40 -8 -66 -34v-524z" />
<glyph unicode="S" horiz-adv-x="1099" d="M43 20q36 54 47.5 141t15.5 180.5t21 141.5q29 0 42.5 -20.5t15 -47t7 -56.5t19.5 -44q124 -187 254 -254q32 0 91 -5q60 -6 94 -6h2q33 0 75 12q43 12 72 42q129 126 129 254q-21 39 -27 50.5t-26 44t-33.5 47.5t-36 35t-47.5 32q-31 6 -82 14t-88 13.5t-86.5 16.5 t-86.5 23.5t-78.5 33.5t-71.5 46.5t-56 63.5t-41 84q0 314 213 422q10 0 49.5 9t81 9t78.5 -18q25 -14 68 -21.5t74.5 -11.5t63.5 -27.5t48 -68.5q16 17 29 51t24.5 56t30.5 22q29 -16 41 -34t11 -30.5t-6 -33t-5 -31.5q-19 -40 -28.5 -89.5t-11 -87t-1.5 -116.5h-84 q-29 28 -38 62t-5 59t-5 49.5t-38 38.5q0 32 -47.5 79.5t-79.5 47.5q-30 16 -61 18h-12q-26 0 -54 -8q-35 -10 -58.5 -21t-64.5 -32q-30 -14 -50.5 -39t-29.5 -48t-23 -60.5t-26 -61.5q0 -139 170 -254q87 0 136.5 -2.5t127 -13t137 -38t105.5 -71.5q65 -66 88 -152 q10 -38 10 -78q0 -51 -16 -106q0 -61 -49 -119.5t-117 -91.5q-97 -63 -233 -63t-230 63l-170 125q-28 -13 -43.5 -48.5t-20 -67t-19.5 -49t-44 -3.5q-31 0 -36 5.5t-5 37.5z" />
<glyph unicode="T" horiz-adv-x="1185" d="M83 713.5q0 31.5 19 69.5t19 51q-20 56 -20 130t10 164t10 132q76 18 161 18t188.5 -9t160.5 -9h467q17 -36 18.5 -115t3.5 -168.5t19 -142.5q0 -129 -41 -170q-19 0 -40.5 10t-33.5 20l-12 11q12 50 12 110v17q-2 70 -12 123t-12 115v16q0 52 12 88q-37 18 -91 18 t-129.5 -9t-119.5 -9q-20 -42 -20 -127.5t-21 -128.5q21 -85 21 -234t20 -233q-17 -53 -18.5 -122.5t-3.5 -150t-19 -151.5q41 0 147 20.5t150 20.5q15 -15 38.5 -29t34.5 -25.5t11 -31.5l-43 -41h-723q-31 31 -36 41.5t-5 44.5h340q18 0 19.5 22t3.5 54t20 49h-43v1022 h-340q0 -113 -1.5 -174t-11.5 -148t-30 -147q0 -18 -10 -28.5t-20 -11.5l-11 -1q-38 18 -38 49.5z" />
<glyph unicode="U" horiz-adv-x="1155" d="M35 1171q0 29 6 46t20 24t24 8.5t30 1.5h403v-41q-13 -27 -36.5 -34t-48.5 -0.5t-56 7t-60 -11.5v-403q31 -31 31 -81t-31 -81q10 -50 12.5 -122t4.5 -127t12.5 -111.5t43 -98.5t89.5 -65q36 -18 76 -18t88.5 9t75.5 9q24 11 40 23t27.5 28.5t18 29.5t17.5 38t20 43v483 q0 37 -9 133t-9 176t18 135h-162q0 19 -20.5 39t-20.5 41q18 18 38 18t45 -9t40 -9h360q0 -31 -5 -41t-36 -39q-11 0 -46.5 8.5t-65 8.5t-47.5 -17v-927q-73 -230 -283 -283q-43 0 -87 8t-71.5 16.5t-82 27.5t-81.5 28q-27 56 -40 84t-27 75.5t-14 84.5v723q0 12 9.5 48.5 t9.5 66.5t-19 48q-29 12 -59.5 5.5t-55.5 -20.5t-48.5 -13t-37.5 28z" />
<glyph unicode="V" horiz-adv-x="1114" d="M42 1164q0 10 8.5 23t8.5 27q0 21 12 29t31 4t39 -11t40.5 -14.5t29.5 -7.5h78q13 28 39 42q21 12 42 12q4 0 8 -1q24 -3 43 -26.5t19 -64.5q0 -25 -18.5 -33t-42.5 -5t-51 -5t-39 -33q0 -43 76 -115q0 -104 25 -219t56 -202t64 -204.5t45 -216.5v-39q19 39 38.5 115.5 t39.5 114.5q17 52 36 177.5t40 166.5q18 87 35.5 160t43 166t35.5 133q-18 0 -40.5 -3.5t-35.5 -5t-27.5 1t-26.5 13.5t-23 33q0 19 0.5 29t4 22.5t12 18t22.5 4.5q51 -16 109 -15.5t139 8.5t135 7q0 -151 -78 -150q-28 28 -57 28t-58 -28q-40 -208 -115 -574 q-52 -215 -114 -458q-23 -25 -38.5 -39t-37 -26.5t-39.5 -12.5q-52 13 -83 55t-40.5 87.5t-26 105.5t-40.5 96q0 82 -38 206t-38 177q0 72 -13 146t-26 117t-39 120q0 13 -5.5 21t-18.5 11.5t-23 4t-29 0.5q-17 -16 -27 -16t-22.5 8t-26.5 8q-17 17 -17 27z" />
<glyph unicode="W" horiz-adv-x="1155" d="M39 1192q22 22 70.5 22t119 -11t103.5 -11q0 -21 -12 -32.5t-24 -13.5l-11 -1h-52q-13 -35 -13 -80q0 -15 1 -31q6 -64 20.5 -110.5t29 -109.5t14.5 -109q15 -47 22 -126t8 -150t17 -158.5t49 -153.5q33 82 51 182.5t23.5 178.5t23 168t49.5 157q17 17 35.5 19.5t38 -9 t35.5 -25t37 -36.5q0 -91 18 -206t31.5 -173.5t50.5 -208.5q43 109 68 256.5t43.5 319.5t34.5 257v148q-24 0 -36.5 1t-29.5 5t-25 14t-8 27q23 22 70.5 22t104.5 -11t71 -11h49q0 -27 -15 -43.5t-34 -21.5t-36.5 -14.5t-22.5 -22t8 -43.5q-96 -402 -96 -685 q-26 -27 -34 -79q-8 -49 -8 -97q0 -3 0.5 -6.5t0.5 -6.5q1 -48 -7 -94q-8 -49 -43.5 -79.5t-103.5 -30.5v49q-17 79 -37 228.5t-44.5 259.5t-68.5 199q-32 -66 -49.5 -156t-22 -164t-22 -163t-49.5 -154q0 -47 -15 -67t-37.5 -14t-47.5 31q-35 52 -56.5 114t-30 141 t-10.5 133.5t-2 150.5q-24 76 -48 284t-48 304q-23 -21 -44 -21q-11 0 -23 8q-30 20 -31 60z" />
<glyph unicode="X" horiz-adv-x="1243" d="M57 43v78q36 17 65.5 17t66.5 -8.5t65 -8.5q40 80 118 217.5t117 214.5q19 19 28 29.5t19 27t7.5 31t-15.5 29.5q-33 49 -93 179t-103 173q-12 12 -17.5 29t-7 30t-14 29.5t-39.5 30.5q-12 0 -36 -11t-43.5 -19.5t-42 -3t-36.5 33.5q-17 17 -17 36t8.5 42.5t8.5 38.5h236 q0 -12 4 -16.5t12.5 -2.5t17 6t21.5 8t23 5q15 -13 35 -13.5t38.5 6.5t31.5 0t13 -34q0 -16 -10 -26t-32 -23t-37 -27q0 13 -6 17t-13.5 2.5t-13.5 2.5t-6 17q-15 -26 -4.5 -53.5t29 -45.5t36.5 -45.5t18 -52.5q32 -32 45 -75t26 -85t46 -75q26 26 40.5 65t18.5 72.5 t18.5 72t41.5 64.5q18 19 37 58.5t39 60.5q0 -14 6.5 -17t14 1.5t14.5 10.5l6 5q-30 15 -64.5 19t-55 13.5t-38.5 43.5q13 0 30 11.5t29 23t29 16t29 -9.5q14 12 42.5 11t56.5 -8t56 0.5t41 34.5q15 -15 46 -18.5t51 -14.5t20 -46v-76q-25 -13 -42.5 -8.5t-37 13t-35.5 16.5 t-37.5 4t-43.5 -25q-15 -82 -65 -178t-101 -192.5t-68 -178.5q33 -16 46 -47.5t26 -62.5t45 -46q21 -62 32.5 -91t35.5 -77.5t55 -83t73 -63.5q23 23 49.5 36.5t57.5 7t49 -43.5q18 -17 18 -36.5t-9 -43.5t-9 -37q-69 -17 -137.5 -17t-153 8.5t-137.5 8.5q-57 54 -57 70 q0 2 1 3q3 5 15 5q15 14 37 27.5t31.5 23.5t9.5 27l39 -39q0 20 -19.5 78.5t-19.5 76.5q-19 42 -59 101t-58 96q0 19 -19.5 39t-19.5 41q-19 -19 -28.5 -41.5t-11 -36.5t-1.5 -39q-44 -46 -106.5 -161.5t-87.5 -153.5q13 -26 34.5 -28t39.5 8.5t31 8.5t13 -28 q26 -29 10 -53.5t-50 -24.5q-74 0 -110.5 -1.5t-91 -10t-110.5 -27.5q-31 0 -55.5 24.5t-24.5 53.5z" />
<glyph unicode="Y" horiz-adv-x="1075" d="M25 1126q0 20 19 39t19 37q51 -16 108 -16t127 8t108 8q14 0 22.5 -5.5t11.5 -19t3.5 -22.5t0.5 -29h-114q15 -29 19 -71.5t14 -72t43 -46.5q-14 -23 -9.5 -51.5t15 -48t21.5 -56t11 -73.5q17 -17 27 -36.5t23 -54t26 -61.5q33 32 55.5 91.5t44.5 120.5t54 93 q0 31 19 73.5t38 93t19 99.5q-8 8 -21.5 10.5t-27 1t-27.5 -4.5t-20 -3.5t-14 -0.5t-10 4t-1.5 11.5t6.5 20.5q29 28 76.5 28t76.5 -28q22 0 62.5 10.5t71.5 18.5q19 5 40 5q14 0 30 -3q37 -5 63 -31q-13 -39 -41 -49.5t-58 -3.5q-21 5 -46 5q-10 0 -22 -1q-37 -3 -63 -29 q-15 -31 -34 -99.5t-41 -90.5q-38 -76 -95.5 -228.5t-95.5 -228.5q12 -36 12 -83q0 -50 -7 -94q-4 -19 -4 -41q0 -26 4 -56q8 -57 34 -109l227 39q0 -20 19.5 -39t19.5 -37l-76 -38h-458q-17 17 -36 17t-30 -9l-10 -8q-28 28 -28 57t28 57q25 0 80 -8.5t93.5 -8.5t55.5 17 q0 38 5 111q5 81 5 119q0 41 -11 94q-11 56 -38 96q-38 95 -114.5 285.5t-114.5 285.5q-13 27 -35 33.5t-45.5 0.5t-53 -6.5t-56.5 11.5z" />
<glyph unicode="Z" horiz-adv-x="1179" d="M122 -14q-6 10 -6 20q0 17 17 35q50 50 84.5 114l69 128t84.5 114q40 59 118.5 159t118.5 159q0 31 24.5 55.5t55.5 24.5q30 93 65.5 156.5t92.5 121.5q15 27 5 39.5t-28.5 14t-36.5 7t-18 17.5q-75 -18 -164.5 -27t-148 -10.5t-164.5 -1.5q-12 -54 -11 -108 q0 -58 6 -106q3 -21 3 -44q0 -24 -3 -49q-7 -49 -34 -90q-26 -9 -39.5 -10.5t-25.5 10.5t-18 24t-16 29t-20 27q27 13 34 29.5t0.5 29.5t-7 29.5t11.5 29.5q7 20 5.5 51.5t-11.5 66.5t-14 71q-2 19 -2 36q0 14 2 28q4 28 28.5 46.5t71.5 19.5q17 -17 37 -17.5t44.5 8 t37.5 9.5h198q17 -17 46.5 -17.5t65 8t46.5 9.5h279v-81q-41 -61 -146.5 -210.5t-171 -253t-119.5 -210.5q-21 -40 -80 -99t-79 -99q-19 -38 -78.5 -117.5t-79.5 -120.5q16 -16 49.5 -8.5t59 17t49.5 -8.5q40 0 99 19.5t99 19.5q13 -12 24 -7.5t23.5 13.5t24 17.5t24 3.5 t23.5 -27h41q28 -14 51.5 -17t43 7.5t32.5 21t31 29.5q0 25 8.5 84.5t8.5 108t-17 83.5q27 14 34.5 30.5t0.5 30t-7.5 29.5t11.5 29h118q0 -48 -1.5 -70.5t-10.5 -56t-27 -70.5l39 -40q-12 -13 -11.5 -35.5t7.5 -43.5t-0.5 -43.5t-34.5 -35.5q0 -120 -38 -160h-834 q-34 -1 -50 25z" />
<glyph unicode="[" horiz-adv-x="681" d="M83.5 43q2.5 4 16.5 4v45q0 13 3.5 29t6.5 27t5 20.5t-1.5 14.5t-13.5 5v1233q0 39 22.5 58t53.5 -13h410q7 -59 -2 -96.5t-30 -52t-50.5 -18.5t-63 2.5t-69 11.5t-66 7.5t-56 -8t-38.5 -36.5v-139q-15 -118 -7 -297.5t16.5 -307.5t-9.5 -296q0 -31 1.5 -48.5t10.5 -44.5 t27 -51q2 -3 5.5 -7t10.5 -10.5t12 -2.5t5 20q53 -14 101.5 -6t83.5 24.5t76.5 15.5t80.5 -34q0 -23 3 -50t5 -41t-0.5 -27t-13.5 -18t-33 -5q-34 -21 -63.5 -21t-76 10.5t-88.5 10.5q-54 0 -87 -8.5t-61.5 -7.5t-107.5 20q0 16 -10 45q3 9 -0.5 18.5t-7 15t-1 9.5zM86 -45 q-8 -5 2 -10q11 -6 14 8v2q-2 2 -6 2q-7 0 -10 -2z" />
<glyph unicode="\" horiz-adv-x="915" d="M33 1317q16 30 57 36.5t51 16.5q30 -16 52 -45t26 -33q0 -11 -6 -27.5t-6 -29.5t12 -25q13 -24 53.5 -77.5t53.5 -81.5q0 -14 13 -40t13 -38q27 -10 39 -29.5t14 -38.5t15 -38.5t41 -28.5v-54q9 -9 18 -37.5t22.5 -55.5t35.5 -38q0 -15 14 -28t14 -25h-24q7 -1 8.5 -5.5 t0.5 -9.5t2.5 -8.5t12.5 -3.5q0 27 25 27v-51q9 0 12.5 -4.5t4.5 -10t10 -10t28 -4.5q0 -24 25.5 -70.5t25.5 -89.5l54 -51q0 -28 40.5 -67.5t40.5 -65.5q0 -20 16.5 -36.5t37.5 -16.5q18 -22 6 -52t-35 -30q-11 -11 -30.5 -11t-43.5 5.5t-32 5.5q-9 30 -57 112.5t-48 127.5 q-46 46 -81 129.5t-52 109.5q-13 27 -53 79.5t-53 78.5q-141 239 -293 426q0 26 -16 52t-34 44.5t-28.5 49.5t-1.5 67z" />
<glyph unicode="]" horiz-adv-x="684" d="M49 -3q2 14 5 41t3 50q39 33 80.5 34t76.5 -15.5t83.5 -24.5t101.5 6q0 -21 8.5 -21t17.5 11l9 10q18 24 27 51t10.5 44t1.5 48q-16 119 -9.5 297.5t16.5 309.5t-7 299v139q-13 26 -39 36.5t-56.5 8t-66.5 -7.5t-69 -11.5t-63 -2.5t-51 18.5t-30 52t-2 96.5h412 q31 32 53.5 13t22.5 -58v-1237q-10 0 -13.5 -5t-1.5 -14.5t5 -20.5t6.5 -27t3.5 -29v-45q14 0 16.5 -4t-1 -9.5t-7 -15t-0.5 -18.5q-12 -34 -12 -45q-80 -19 -108 -20t-60.5 7.5t-87.5 8.5q-42 0 -88.5 -10.5t-76 -10.5t-63.5 21q-22 0 -33 5t-13.5 18t-0.5 27zM580 -49 q4 2 8 2q10 0 11 -4q2 -6 -7 -9q-11 -3 -12 11z" />
<glyph unicode="^" horiz-adv-x="663" d="M37 1223v24q0 30 45 39q41 50 86 82q55 27 55 49q19 -3 64 47q15 40 32 54h5q16 -22 47 -19q21 -72 53 -80q0 -21 35 -24q12 -39 20 -39l29 2q15 -35 63 -35l23 -43q18 -6 33 -76q-14 -33 -49 -45l-25 -8q-54 36 -68 55q-77 27 -96 76q0 12 -37 18l-10 46l-18 -5v-20 l6 -21q-8 -8 -37 -8q-9 -21 -64 -39l-4 -4l-4 2h-31q7 -18 9 -20q-15 -24 -82 -76h-25l-26 -4q-26 38 -29 72zM199 1231q0 4 2 6q0 -6 -2 -6z" />
<glyph unicode="_" horiz-adv-x="1187" d="M63 61q0 24 12 33.5t25.5 8.5t34.5 -5t29 -4q22 -10 56.5 -9.5t65 6t71 -0.5t75.5 -29v33h670q24 -11 33.5 -30.5t8.5 -35.5t-5 -38t-4 -29q-140 -12 -334.5 -15.5t-368 -12.5t-334.5 -39q-16 16 -24.5 46t-9.5 53t-1 68z" />
<glyph unicode="`" horiz-adv-x="391" d="M12 1331q2 8 7.5 16.5t10.5 16t16 19t16.5 18t20 21t19.5 20.5q14 14 22.5 16t11 -3t5 -12t4.5 -9q-1 -15 8 -25.5t19.5 -16.5t16.5 -22.5t-1 -42.5l23 21l156 -191l8 -8q-1 -14 -10.5 -29t-17.5 -23t-25 -22l-17 -14q-43 35 -92.5 90.5t-97.5 102.5t-103 77z" />
<glyph unicode="a" horiz-adv-x="1290" d="M92 389q44 66 107.5 105t128.5 50q66 12 144 16q70 4 133 4h13q2 0 5 -1q65 0 137 15q74 15 127 47q0 32 -0.5 50t-3 50.5t-8.5 51.5t-15.5 40t-26 31t-38.5 10q-106 34 -211.5 34t-210.5 -34q47 -47 47 -96q-18 0 -34 -11t-41.5 -22.5t-65.5 -11.5q-4 0 -10 0.5t-22 2.5 t-28.5 6.5t-22.5 13.5t-10 22q-23 0 -34.5 16t-13 32t-1.5 48q50 66 127 106q78 42 162 52q57 7 112 7q26 0 52 -2q80 -5 155 -24q73 0 136.5 -36t99.5 -103q21 -104 21 -231.5t-10.5 -270.5t-10.5 -200q20 -41 56 -54t74 -18t56 -23h95q0 -20 -12 -43.5t-24 -37.5l-12 -13 q-23 0 -68.5 -5t-73.5 -6h-4q-27 0 -63 13q-39 14 -73 47q0 30 -1.5 47t-12 44t-31.5 49q-39 -39 -84.5 -69.5t-86 -50.5t-94.5 -33.5t-93 -20.5t-100 -10.5t-97 -4t-101 -0.5q-157 106 -157 289q0 62 18 133zM186 295q0 -66 27.5 -131t65.5 -103q57 -11 109 -11q2 0 5 -1 q49 0 93 10q46 10 85.5 26.5t79 43t73 55t71.5 66.5q37 0 55 18q20 18 20 50v6q0 30 -6 58q-6 32 -14.5 73t-9.5 63q-4 -23 -27 -29t-68 -6q-49 -25 -124 -28q-30 -1 -59 -1q-42 0 -82 2q-32 2 -63 3q-33 0 -67 -3q-64 -5 -107.5 -43.5t-56.5 -117.5z" />
<glyph unicode="b" horiz-adv-x="1150" d="M57 1380q-1 3 -1 5q0 5 3 7q4 2 12 0.5t19 -4.5t22 -4.5t23 1.5t21 12q21 0 70.5 5t79.5 6h5q29 0 60 -12q34 -13 49 -44q0 -59 -9.5 -176.5t-9.5 -206t19 -148.5q74 75 168 126.5t186 51.5t163 -55.5t144 -165.5q30 -147 30 -273q0 -197 -73 -343q-65 -97 -136 -136.5 t-171 -39.5q-19 19 -43 20.5t-48 3.5t-44 21q-9 -9 -18.5 -11.5t-19 1.5t-18.5 11.5t-19 19t-18.5 22.5t-19 24t-18.5 21q0 19 -11.5 30t-22.5 12l-11 1q-28 0 -32 -33q-2 -16 -2 -33q0 -16 2 -32q4 -32 -17 -50q-7 -6 -18 -5q-23 0 -64 22v307q12 25 12 66q0 21 -3 45 q-10 74 -20 130q-4 19 -3 37q0 37 14 74q-13 52 -13 121v19q2 80 12 147t12 147q0 12 1 24q0 66 -12 116q-24 24 -56.5 30t-60 1.5t-52 -6.5t-38.5 12t-14 51q-9 18 -11 28zM377 250l43 -43v43h-43zM396 520v-13q0 -31 10 -57q12 -32 31.5 -68t41 -66.5t43 -72t31.5 -81.5 q40 0 117 -21.5t149 -21.5q10 10 37.5 32.5t45 39t33 45t15.5 59.5q19 58 30 115q12 56 14 125v14q0 62 -20 119q-22 64 -69 110q-11 22 -24.5 37t-34.5 24.5t-38 15t-49.5 8t-53 3t-62.5 0.5q-223 -112 -223 -264q-22 -42 -24 -82z" />
<glyph unicode="c" horiz-adv-x="1089" d="M84 478q3 64 14.5 121t30.5 114q18 18 28.5 39.5t11.5 33.5l1 13q166 217 524 217q30 -30 64 -36.5t110 -6.5l131 -174q-2 -65 -19.5 -107.5t-68.5 -66.5q-41 0 -59.5 1.5t-42.5 9.5t-39.5 26.5t-32.5 50.5q-19 18 -19 50.5t10 55.5l9 23q-44 -13 -87 -13q-2 1 -4 1 q-44 0 -78 8q-16 4 -33 3q-19 0 -37 -4q-36 -8 -66 -38q-19 0 -40.5 -21.5t-48 -58.5t-40.5 -51q-18 -70 -23 -138q-2 -22 -1 -45q0 -46 6 -93q10 -71 47.5 -135.5t99.5 -111.5q39 -19 83 -19h14q52 4 96.5 21.5t68.5 40.5l43 -43q17 33 52 72.5t57 73t22 71.5 q20 21 44.5 31.5t41.5 12.5t45 2q10 -30 11 -62v-10q0 -26 -4 -46q-6 -24 -18.5 -52t-24 -47.5t-27.5 -46.5t-25 -44q-198 -129 -391 -129q-140 36 -229 108t-121 197q-46 30 -68 84q-19 47 -18 103v15zM520 930q15 0 43 8q-9 4 -17 4q-14 0 -26 -12z" />
<glyph unicode="d" horiz-adv-x="1206" d="M76 482q-2 21 -1 42q0 67 16 135q21 88 71 172q16 16 34 43t40.5 50.5t62.5 44.5q88 29 170 29q132 0 246 -76q0 -30 24 -62t70 -76v504q-33 32 -71 40q-20 5 -38 4q-16 0 -32 -4q-32 -8 -70 -7.5t-70 14.5q0 17 -10 32t-10 27t20 33h140q17 0 52 3q36 2 62 4h18 q19 0 41 -2q33 -3 54 -12t36 -30.5t15 -54.5q0 -106 -10.5 -315t-10.5 -381.5t21 -316.5q-26 -13 -31 -22.5t4.5 -16t19.5 -14.5t15.5 -16.5t-8.5 -23.5q0 -15 -10.5 -42.5t-10.5 -50.5t21 -44h230q0 -34 -29.5 -62t-63.5 -28q-23 0 -58.5 -8.5t-62.5 -15t-53 -6.5t-40.5 18 t-14.5 57q-19 19 -20.5 43.5t-3.5 49.5t-21 44q-14 -40 -35.5 -72.5t-40 -53t-52 -42.5t-50.5 -31.5t-56 -29.5q-16 0 -44 10.5t-51 10.5t-44 -21q-18 9 -72 34.5t-83.5 41.5t-66 46t-52.5 62q-37 93 -58.5 174t-27.5 169zM162 600q0 -31 1.5 -48t12.5 -43.5t33 -49.5 q0 -64 27 -156t63 -164q15 -15 33.5 -20t30.5 -3.5t20 -3t8 -20.5q41 -20 76 -20t79 10t77 10q37 39 64.5 102t27.5 128q51 12 75 38q23 25 24 55q0 31 -6 71q-5 38 -10 78q-1 9 -1 18q0 31 12 63q-22 22 -69.5 74.5t-78.5 84.5t-80 67t-98 51q-23 -22 -91.5 -68t-92.5 -70 q-38 0 -53.5 -19t-15 -46t0.5 -54t-15.5 -46t-53.5 -19z" />
<glyph unicode="e" horiz-adv-x="1095" d="M47 453q0 17 22.5 73t22.5 105q34 139 128.5 251t221.5 144q199 0 353.5 -93.5t220.5 -256.5q0 -21 4 -52.5t6 -53.5q1 -11 1 -22q0 -10 -1 -22q-2 -24 -15.5 -42t-39.5 -31q-99 34 -198 34l-198 -34q-59 20 -113.5 20t-110.5 -10t-85 -10q-25 -24 -29 -47t7 -43t26 -39 t28 -43.5t13 -47.5q20 -39 53 -61.5t70 -38t53 -31.5q127 0 228 58.5t168 161.5q34 0 61 -27.5t27 -61.5q0 -40 -20.5 -70.5t-75.5 -78.5t-78 -72q-58 -18 -122.5 -28.5t-141.5 -13.5h-18q-67 0 -131 19q-72 22 -118 68q-24 37 -69.5 92t-74 92t-52 94t-23.5 118zM266 586 q122 0 194.5 1t185.5 12t194 32q0 37 -28 84t-60 47q-7 4 -39.5 21t-46.5 23.5t-44.5 19.5t-49.5 15q-18 2 -44 3h-5q-23 0 -42 -9q-21 -10 -39 -28q-14 -29 -45.5 -54t-59 -41t-49.5 -48.5t-22 -77.5z" />
<glyph unicode="f" horiz-adv-x="1114" d="M46 912q2 15 17 30q15 29 39.5 37t47 1t47 -7t39.5 14h170q0 18 -8 61.5t-12 81.5q-1 19 -1 39t1 41q4 42 29.5 73t73.5 44q106 69 229 69q75 0 156 -26q39 -20 73.5 -45.5t49.5 -39.5t45 -44q0 -31 10 -69t10 -60.5t-20 -42.5q-41 -41 -168 -41q-20 19 -30 43.5 t-11.5 40.5t-1.5 45q0 11 4 24.5t8 23t6.5 18.5t-2 13.5t-16.5 4.5q-38 18 -81 18t-95 -9t-80 -9q-37 -37 -49 -81.5t-16.5 -93t-20.5 -79.5l43 -45q21 0 54.5 8t61 14t56 6.5t50.5 -16.5t34 -53q18 -20 18 -38q0 -11 -7 -21q-18 -27 -54 -27q-30 0 -80 19t-82 19t-51 -38 v-551q0 -15 -9.5 -42t-9.5 -48t19 -39h299v-129q-19 -37 -51.5 -37t-82.5 18.5t-79 18.5q-213 0 -342 -43q-23 24 -50 30t-49.5 2t-44 -6t-39.5 12t-30 50q0 9 1 24.5t12 49t30 51.5q64 -31 150 -31t150 31q-18 95 -18 201.5t9 236.5t9 201q-38 19 -91 19t-117.5 -9.5 t-91.5 -9.5q-21 21 -31.5 33.5t-20.5 29.5q-9 15 -9 27q0 4 1 7z" />
<glyph unicode="g" horiz-adv-x="1249" d="M47 -184q0 38 35.5 91.5t95.5 82.5h41q0 28 -21.5 57t-62.5 70q0 34 0.5 52t5 48t12.5 48t25 37.5t41 31.5q16 29 11.5 49.5t-16 29.5t-24 22t-12.5 26q-12 38 -12 76q0 52 22 103q40 90 117 167q55 18 80 25.5t75 17.5q41 8 70 8h11q32 -2 74 -14t79 -37q11 5 45.5 23.5 t54.5 28.5t55.5 23.5t62.5 18.5q25 5 55 5h7q34 -1 64 -11q15 -16 51 -42t58 -48t22 -41q19 -19 19 -40t-10 -32l-9 -12q0 -31 -21 -56.5t-49.5 -37t-58 -11t-45.5 16.5q-23 25 -31 35t-20 29.5t-8.5 34.5t18.5 30v43q-131 0 -174 -43q47 -70 70 -130q20 -51 20 -108 q0 -10 -1 -20q-4 -68 -46 -129q-32 -32 -86 -59t-86 -27q-29 -30 -58 -38t-54.5 -1t-62.5 7q-1 1 -3 1q-36 0 -80 -14q-15 0 -27 13t-18 25.5t-17.5 17.5t-25.5 -11q-36 -13 -53 -31t-17 -38t5.5 -38t13.5 -37.5t8 -29.5q22 -11 54 -11t76 11t76 11t54 -11q68 15 141 15h25 q86 -3 161.5 -20.5t138 -61t93.5 -105.5q17 -48 17 -100t-17 -110q-35 -114 -127 -177q-163 -98 -367.5 -98t-367.5 98q-37 12 -62.5 33t-41.5 54.5t-25 61.5t-21.5 76t-21.5 76zM219 -227q0 -66 54 -119t120 -53q43 0 126 -5.5t135 -6.5h8q49 0 116 11q72 13 133 44 q60 29 69 90q1 13 1 25q0 50 -27 100q-15 45 -54.5 69.5t-80 29t-91.5 12t-77 20.5q-81 0 -120 -1.5t-90 -11.5t-93 -30q-30 0 -50.5 -21.5t-30 -49t-22.5 -59t-26 -44.5zM305 592q0 -58 1.5 -88t11.5 -68.5t30 -56.5q36 -36 96 -62t121 -26q15 16 50.5 31.5t69 37 t52.5 58.5q18 36 18 77q0 34 -13 71q-26 82 -91 114q-21 19 -45.5 28.5t-40 11t-43.5 1.5q-68 0 -127 -33t-90 -96z" />
<glyph unicode="h" horiz-adv-x="1357" d="M37 1362q31 31 75 40q23 4 44 3q20 1 40 -3q40 -8 84 -8l3 -1q42 0 71 14l45 -92q0 -57 -10 -180.5t-10 -226t20 -183.5q26 17 58.5 45.5t61 55t63 55t69 48.5t73.5 33q34 11 72 11h12q44 -2 91 -21q53 0 87.5 -21t48.5 -53.5t20.5 -78t6.5 -87.5t3.5 -89.5t13.5 -77.5 q-19 -55 -20.5 -140.5t-3.5 -171.5t-21 -143q24 -24 66 -26h12q36 0 69 8q39 9 73 13.5t49 -14.5q8 -10 8 -29q0 -17 -6 -40q-38 -19 -98 -20.5t-120.5 -3.5t-97.5 -21q-28 14 -72.5 14t-76.5 -3t-56 14.5t-24 64.5q45 21 114.5 21t114.5 22q-23 136 -23 352.5t-24 329.5 q0 51 -92 135q-126 0 -252 -108t-199 -254v-455q12 -11 41 -12t59 1.5t59.5 0.5t48 -21t18.5 -57q-74 -19 -171.5 -20.5t-196 -3.5t-175.5 -21v90q15 32 42 38.5t53 -3.5t65 -22.5t67 -12.5q-13 61 -13 123q0 66 8 120q4 25 4 51q0 28 -4 57q-8 57 -38 104q12 43 12 106v10 q0 70 -8 132q-4 30 -4 62q0 34 4 69q8 69 39 114q-19 41 -19 87t9.5 102.5t9.5 87.5q-24 24 -58 26h-12q-27 0 -53 -7q-30 -9 -59.5 -13.5t-53 14.5t-36.5 70z" />
<glyph unicode="i" horiz-adv-x="1034" d="M40 50q4 20 16 33.5t25 33t13 33.5q0 12 4.5 16.5t13.5 2t19 -6.5t24.5 -8t26.5 -4q38 -20 91 -20t105.5 10t61.5 10q-18 96 -18 214.5t9 263.5t9 216q-31 16 -70 18h-15q-33 0 -73 -8q-50 -10 -88.5 -22t-99.5 -33q-40 21 -47 55q-2 11 -2 22q-1 22 9 42q14 30 40 55 h479q29 -44 37 -98q4 -28 4 -54q0 -25 -4 -49q-8 -52 -8 -116q0 -59 12 -117q0 -66 -20.5 -195.5t-20.5 -193.5q38 -20 91.5 -20t118.5 10t94 10h86q32 -34 32 -67t-32 -67v-41h-781q-23 0 -66.5 20.5t-64.5 20.5q-12 11 -12 25q0 5 1 9zM354 1319q16 47 60 79q44 30 92 36 q8 1 16 1q40 0 77 -24q44 -29 60 -92q15 -15 18 -31q1 -3 0 -7q0 -13 -8 -27q-11 -18 -22 -30.5t-33 -33.5q-31 -32 -86.5 -32t-87.5 32q-10 11 -28.5 22t-31.5 17.5t-26 19.5q-12 12 -12 25q0 14 12 45z" />
<glyph unicode="j" horiz-adv-x="794" d="M35 -81q0 31 13 69q13 41 42 69q9 0 27.5 3.5t35 5.5t35.5 0t35.5 -14.5t28.5 -35.5q0 -22 -1.5 -36.5t-8.5 -37.5t-25 -35.5t-47 -12.5q0 -29 15.5 -48.5t34.5 -28t56 -22.5t60 -26q34 0 53.5 1t54.5 7.5t57.5 18.5t45 37t33.5 61q0 112 -8.5 310t-8.5 352t17 282 q-17 18 -37 28.5t-31 11.5l-12 1q-43 0 -116.5 -9t-125.5 -9t-88 18q-41 39 -41 82l82 40q114 0 169.5 -1t140.5 -10.5t141 -28.5q16 -51 17.5 -129.5t3 -167t17.5 -156.5v-655q-14 -15 -36 -29t-32.5 -25t-10.5 -30q-16 -8 -51.5 -31.5t-64.5 -38.5t-66 -29 q-28 -10 -56 -10q-9 0 -19 2q-38 4 -73 27q-162 0 -246 80q0 19 -5 67q-5 55 -5 83zM457 1247v80q27 28 45 43t49.5 28t69.5 13q31 0 55 -25t24 -59q16 -28 20 -51v-11q0 -18 -8 -35q-12 -22 -20 -32t-30 -33q-20 -9 -40 -11h-8q-16 0 -33 6q-21 8 -35.5 15t-35 24.5t-28 24 t-25.5 23.5z" />
<glyph unicode="k" horiz-adv-x="1294" d="M82 1375q12 15 33 17t41 7.5t20 19.5q45 -21 122.5 -21t100.5 -22q0 -106 -10 -294t-10 -333t20 -264q264 179 445 357q0 12 -18 22.5t-39.5 19t-39.5 19.5t-18 29t25 43q45 0 129 5q85 6 135 7q4 0 7 1q48 0 107 -13q64 -13 111 -45q0 -49 -18.5 -68t-47.5 -14.5 t-59.5 13t-58 7t-39.5 -25.5q-34 -33 -106 -84.5t-128.5 -98t-76.5 -84.5q34 -45 123 -152.5t140.5 -181.5t90.5 -155q22 0 57 8.5t61 14.5t51.5 6.5t39.5 -17t14 -55.5q0 -34 -5.5 -39.5t-37.5 -5.5q-40 20 -85 20t-99 -10t-82 -10q-9 0 -47.5 -5t-67 -6.5t-61 12 t-47.5 44.5q43 43 90 43q14 15 31 19.5t28.5 2.5t19 3t7.5 20q-36 36 -136 181.5t-173 217.5q-45 -23 -112 -89t-110 -89q12 -25 12 -55q-1 -5 -1 -11q-2 -36 -12 -66q-10 -28 -12 -66v-9q0 -32 13 -59q31 0 82.5 10t85.5 10t54 -20q0 -50 -14.5 -72.5t-38 -21.5t-53 5.5 t-59.5 10t-57 -9.5q-37 -19 -86 -21t-96.5 -3.5t-83.5 -20.5q-36 34 -35.5 67.5t35.5 65.5q12 37 26 47t29 1.5t32 -19.5t41 -9.5t48 25.5l-43 977q0 13 9.5 53t9.5 73t-19 52q-10 0 -31.5 -4t-39.5 -5.5t-38.5 0.5t-39 15t-31.5 37q-9 18 -9 30q0 10 5 16z" />
<glyph unicode="l" horiz-adv-x="1144" d="M64 12q0 12 2.5 24t5 32t2.5 38q36 24 73 29q13 2 26 2q23 0 43 -6q32 -9 70 -19q38 -9 78 -14q11 -1 23 -1q31 0 70 9q0 -15 6.5 -18t14 1.5t14.5 10.5l6 6q20 21 30 45t11.5 39.5t1.5 42.5q-12 74 -12 170v27q2 112 11.5 205t11.5 205q0 17 1 34q0 92 -12 164v125 q-19 29 -63 37q-20 3 -41 4q-25 0 -53 -5q-50 -9 -102 -13q-25 -2 -47 -2q-25 0 -46 2q-40 4 -61 41q-14 24 -14 64q0 19 3 42h465q20 17 37 17q11 0 21 -6q26 -17 26 -52v-1099q-12 0 -16 -4.5t-2 -13.5t6 -19t8 -24t4 -26h383q34 0 52 -26q7 -10 7 -21q0 -17 -18 -36 q-12 -24 -29 -36.5t-37 -15t-37 -0.5t-37.5 5.5t-29.5 3.5q-94 -18 -188.5 -18t-200 9t-160.5 9q-46 0 -97.5 -9t-85 -9t-71.5 18q-21 0 -32.5 4t-16 10t-4.5 18z" />
<glyph unicode="m" horiz-adv-x="1306" d="M51 14q0 21 1 31.5t4.5 25t13 21t24.5 6.5q34 0 45 5.5t43 37.5q-19 96 -19 205t9.5 242t9.5 205q-14 14 -38.5 19.5t-43.5 7t-34 15.5t-15 44q0 21 1 32t4.5 26t13 21.5t24.5 6.5q20 -20 49 -27.5t54.5 -6t48.5 1t34.5 -6t9 -27.5t-23.5 -63h43q137 131 217 172 q39 0 91.5 -35t82.5 -94v-43q28 13 59.5 44.5t55 58t62.5 48t84 21.5q16 -16 52.5 -31.5t68.5 -37.5t51 -60q-21 -129 -21 -379.5t-22 -358.5q11 -11 34 -17t43 -7t39 -7t22 -17.5t-7 -37.5q12 -22 12 -35q0 -4 -1 -8q-5 -14 -17.5 -15t-25.5 -6.5t-13 -19.5q-17 8 -46 9 t-58 -2q-30 -4 -62 -6q-18 -1 -33 -2q-11 0 -21 1q-22 2 -39.5 15t-16 39.5t17.5 72.5h43q29 30 37 59.5t1 55t-7 63t14 82.5q-14 45 -14 98.5t7 97.5q3 21 3 44q0 26 -4 54q-8 54 -37 98q20 19 20 51t-10 70t-10 51q-30 -29 -81.5 -70.5t-84 -74.5t-52.5 -72 q0 -21 -21.5 -86t-21.5 -87v-391q16 -16 40.5 -30.5t36 -25.5t11.5 -30q15 -15 16 -25t-5.5 -15.5t-24.5 -18.5t-31 -25q-11 0 -52 9.5t-83.5 9.5t-81.5 -19q-19 20 -28.5 44t-11 39.5t-1.5 43.5q21 0 32 1t25.5 4.5t21.5 13t7 24.5q0 71 9.5 206t9.5 254t-19 235 q1 36 -27 54q-11 7 -22 7q-18 0 -37 -18q-36 -21 -65.5 -48.5t-50.5 -54.5t-38 -66t-27.5 -69t-18 -77.5t-11.5 -78.5t-5.5 -85t-2 -83.5t-0.5 -87.5q11 0 13 -18t-0.5 -40.5t1.5 -44.5t19.5 -30.5t54.5 2.5q15 0 24.5 -6.5t13 -21t4.5 -25t1 -31.5q-42 -20 -92.5 -30 t-89.5 -11.5t-121 -1.5z" />
<glyph unicode="n" horiz-adv-x="1349" d="M82 14q13 15 12 34q0 18 -8 34q-4 8 -4 16q0 9 4 19q8 19 39 35q14 0 55 -10.5t75 -10.5t54 21v731q-16 14 -32.5 8.5t-41 -15.5t-47.5 -19.5t-52 -4.5t-54 31q0 38 28.5 87.5t61.5 49.5q25 -25 59 -27h12q27 0 53 7q30 9 59.5 13.5t53 -15t35.5 -70.5q0 -15 -9.5 -42.5 t-9.5 -50.5t19 -44q24 0 71 46t69 46q13 39 36.5 62.5t54 32.5t60.5 13.5t65 10.5t58 18q32 0 65 -13t68.5 -40.5t50.5 -41t45 -42.5q19 -122 19 -248.5t-9.5 -282t-9.5 -248.5h91q21 21 33 21t26.5 -10.5t30.5 -10.5q17 0 27 -7t14 -22.5t5 -27t1 -33.5q-31 -32 -77 -46 q-41 -12 -73 -12h-7q-36 2 -88.5 7.5t-74.5 5.5q-18 14 -55 13q-38 0 -76 -8q-18 -4 -34 -4q-18 0 -33 4q-29 8 -29 40q0 22 1 33.5t4.5 27t13 22.5t24.5 7h184q-25 74 -31 162q-4 52 -4 101q0 33 2 65q4 78 6 156q0 11 1 22q0 67 -13 133q-15 77 -53 140q-38 17 -82 17 q-37 0 -78 -12q-90 -27 -159 -97q-100 -65 -137 -211q-19 -76 -19 -153q0 -70 16 -138q-18 -20 -20 -44.5t-3.5 -48.5t-19.5 -44q18 -18 46 -29.5t55 -15.5t55.5 -8t49 -10.5t33 -19.5t10.5 -37.5t-21 -62.5h-137q-34 0 -106.5 -5.5t-118.5 -7.5h-9q-42 0 -91 12 q-54 14 -85 46z" />
<glyph unicode="o" horiz-adv-x="1136" d="M45 477q0 44 44 108.5t44 108.5q15 62 52.5 114t89.5 88.5t100.5 60.5t103.5 42q66 0 102 -1.5t92 -9t104 -27t95 -50.5l132 -129q62 -152 62 -295q0 -187 -105 -360q-42 -42 -220 -129q-5 -2 -40.5 -14.5t-41 -14t-35.5 -10.5t-39 -9q-9 2 -35 -2q-11 -2 -20 -2 q-10 0 -18 2q-14 4 -36 9t-42 16t-41 25h-43q-60 24 -107 64t-76 82.5t-52.5 100.5t-36.5 104t-28 106q-3 15 -5 22zM257 522q5 -54 5 -90q0 -93 53.5 -181.5t122.5 -123.5q88 -29 160 -29q115 0 188 74q62 62 90 153q24 81 24 155v18q-4 82 -28 153q-28 14 -51 38.5 t-35.5 43.5t-34.5 34t-51 15q-45 15 -67.5 21t-62.5 15q-33 7 -58 7h-10q-28 -2 -63.5 -9t-67.5 -27t-64 -52q-31 -30 -44 -67q-12 -34 -12 -61q0 -21 6 -87z" />
<glyph unicode="p" horiz-adv-x="1234" d="M39 -358q32 64 86 91q25 12 45 12q24 0 41 -17h131v1081q-33 12 -78 13h-17q-35 0 -68 -3q-8 -1 -15 -1q-31 0 -54 14q-28 18 -28 63q0 129 43 129q65 0 173 -21.5t173 -21.5q0 -29 1.5 -44.5t11.5 -40t30 -44.5q97 145 268 145q56 0 121 -16q9 -5 38 -18.5t43 -21 t39 -22.5t38.5 -29t28.5 -33t21.5 -42.5t6.5 -50.5q43 -87 56 -204q4 -40 4 -81q0 -78 -16 -157q-25 -122 -87 -205q-67 -67 -137.5 -98t-165.5 -31q-12 -12 -26.5 -8t-28 17t-32 25t-38.5 17t-47 -8l-129 129q-19 -57 -19 -122.5t9.5 -157t9.5 -152.5q21 -8 52 -10h12 q25 0 52.5 5.5t54.5 5.5q6 0 12 -1q33 -1 59 -9t42.5 -38t16.5 -82q-36 -24 -78 -29q-14 -2 -28 -2q-26 0 -49 6q-36 9 -77.5 18.5t-77.5 14.5q-9 1 -20 1q-27 0 -57 -9q-29 14 -57.5 12t-45.5 -12t-37.5 -12t-33.5 12q-129 0 -172 43zM471 420q42 -28 76 -77t53 -91t52 -81 t77 -54q33 16 82 20.5t82.5 16t52.5 49.5q38 19 49 41.5t16 61t21 71.5q0 11 9.5 51.5t9.5 83t-19 80.5q0 29 -20 51t-44.5 35t-44.5 35t-20 51l-86 88q-15 -13 -33 -12.5t-33 7.5t-32.5 -1t-32.5 -37q-29 0 -51 -21.5t-34.5 -49t-35.5 -58.5t-51 -45q-32 -33 -32 -65 t32 -64q-15 0 -24.5 -6.5t-13 -21.5t-4.5 -25.5t-1 -32.5z" />
<glyph unicode="q" horiz-adv-x="1236" d="M68 395q-12 47 -12 97q0 181 149 407q25 -13 46 -4t35 29t34.5 40t45.5 29q10 4 23 4q20 0 45 -8q32 17 66 20q6 1 13 1q28 0 61 -10q40 -12 63.5 -22.5t71.5 -33.5q0 -31 14 -53.5t31 -32.5t31 -23t14 -28q14 14 14.5 47t-2.5 61.5t15.5 51t64.5 22.5q5 0 12.5 -1 t20 -12.5t12.5 -31.5v-1143q-23 -23 -29 -57q-1 -8 -1 -16q0 -26 14 -52q18 -36 61 -57h184q18 0 18 -9q0 -16 -33 -30q-16 -6 -32 -6q-81 -21 -145.5 -33t-142.5 -19q-27 -2 -53 -2q-48 0 -91 8q-66 13 -115 46q10 31 39 42t61 5.5t65.5 -7.5t54 3.5t26.5 38.5q1 7 1 15 q0 32 -19 85q19 57 21 131.5t3.5 149t20.5 131.5q-41 -42 -68.5 -68.5t-65 -56.5t-72 -44.5t-67.5 -14.5q-68 -17 -127 -17q-181 0 -284 156q-22 44 -45 134.5t-47 137.5zM205 625q-17 -86 -17 -163q0 -232 154 -386q86 0 128 3t96 24t98 65q10 30 31.5 64t44 60t43 57 t32.5 58q10 22 10 47q0 6 -1 12q-3 33 -25 66q7 25 7 46q0 14 -4 26q-8 29 -31 57.5t-46.5 48.5t-42 46t-18.5 51q-44 22 -83 32t-65.5 11.5t-81.5 1.5q-68 -33 -130.5 -95.5t-98.5 -131.5z" />
<glyph unicode="r" horiz-adv-x="1185" d="M68 41v11q0 12 2 28q3 24 16 49h313v717q-23 24 -57 25h-6q-30 0 -60 -10q-32 -11 -66 -19q-15 -4 -30 -4l-36 6q-33 10 -58 47q0 33 27.5 61.5t62.5 28.5q59 0 91.5 1.5t83.5 11.5t93 30q38 -19 50 -64.5t16.5 -93.5t21.5 -65q39 38 59 57t58.5 51.5t64.5 47t66 31.5 q40 18 75 20q11 1 23 0q26 0 56 -4q44 -6 92 -23q20 0 42 -22.5t49 -60t42 -52.5v-180q-21 -20 -46 -30t-41 -11.5t-46 -1.5q-29 28 -44.5 46.5t-30.5 54t-15 77.5q0 12 13.5 22t28.5 16.5t26 13.5t6.5 16t-29.5 22q-22 10 -44 11.5t-46 -8.5t-43 -20t-46.5 -34t-43 -39 t-45.5 -45q-15 -29 -48 -61t-65 -56.5t-65 -65t-48 -86.5q76 -74 76 -158q0 -53 -31 -110q0 -22 1 -34t5 -27t14.5 -22t27.5 -7q30 -14 63 -13h2q34 0 61.5 7.5t54 -0.5t42.5 -39q0 -23 22.5 -45t22.5 -43q-38 -19 -87 -21t-96.5 -3.5t-84.5 -20.5q-28 0 -68 12 q-40 11 -69 21q-17 6 -37 6q-14 0 -29 -2q-37 -6 -68 -37q0 20 -11.5 31t-22.5 12l-11 2q-20 -21 -45 -31.5t-42 -12t-48 -1.5q-19 20 -26 28t-20 27.5t-15 34.5z" />
<glyph unicode="s" horiz-adv-x="1138" d="M45 2q0 35 13 74t28 70.5t26 64.5q8 24 8 50q0 9 -1 19q-4 36 -29 74q0 11 -4.5 25.5t-8.5 24.5t-6.5 19t2 14t17.5 5q15 15 31.5 17.5t34 -7.5t31.5 -22.5t32 -32.5q0 -26 0.5 -40.5t3 -42t7 -44.5t14.5 -40.5t23.5 -39.5t35 -31t49.5 -24q82 -48 196 -49q32 0 67 4 q158 18 264 88q21 21 31.5 60.5t12 70t1.5 88.5q-39 46 -98.5 73t-123.5 33t-135.5 10t-136.5 5t-123.5 17.5t-100.5 46.5q-42 31 -62 95q-15 48 -15 113q0 22 2 46q9 9 42.5 50.5t63.5 62t70 21.5q19 18 53.5 19t69 3t53.5 20q12 -24 30.5 -29.5t38 1t38.5 13t37 1.5 t30 -28q21 8 44 5t44 -15t44.5 -19.5t44.5 -8.5t45 18.5t45 61.5q20 0 41.5 -21.5t44.5 -20.5q0 -29 10 -93.5t10 -109t-20 -65.5q-27 -10 -42 -10.5t-28 12.5t-20 26.5t-18.5 32.5t-22.5 30q-19 18 -43 19.5t-48 3.5t-43 20q-57 20 -113.5 31t-124.5 13q-7 0 -14 1 q-61 0 -118 -20q-64 -22 -111 -68q0 -16 -10 -30.5t-10 -27t20 -33.5l88 -86q60 -10 154 -17.5t158.5 -15.5t139.5 -26t138 -58t113 -102q15 -31 18 -63q1 -7 0 -15q0 -26 -8 -55q-11 -37 -22 -61.5t-33 -67.5q-13 -38 -42 -65t-58.5 -39.5t-74 -19.5t-68.5 -8t-62 -1 q-106 -26 -189 -26q-175 0 -252 114q-28 0 -58.5 -26t-51.5 -50q-20 -24 -50 -34q-7 -2 -14 -3q-23 0 -45 25z" />
<glyph unicode="t" horiz-adv-x="1034" d="M18 944q32 32 72 46q38 13 67 13q1 -1 2 -1q30 0 86.5 -5.5t92.5 -5.5q11 33 11 65q0 11 -1 22q-5 43 -12.5 93.5t-13.5 95.5q-1 12 -1 24q0 34 11 70q15 49 53 87q23 0 45 -22.5t45 -22.5q0 -68 -22.5 -183.5t-22.5 -183.5l45 -45q43 -11 82 -11q13 0 27 1 q52 5 104.5 12.5t95.5 12.5q11 1 22 1q30 -1 60 -11q40 -14 66 -52q0 -34 -29 -62t-63 -28q-41 20 -109 20t-149 -10t-107 -10q-19 -77 -21 -176t-4 -197.5t-20 -173.5q17 -34 22 -85t17 -75t53 -24q15 -31 33 -39t33 0t34 8t35 -14q37 12 67.5 45.5t52.5 71t47 73.5 t63.5 60t89.5 24q0 -45 45 -92q-36 -24 -72 -67t-64 -82t-60 -73q-34 -35 -76 -50q-23 -8 -47 -8q-22 0 -46 6q-106 0 -195.5 36t-123.5 101q0 30 -13.5 61t-26 48t-17.5 39.5t12 35.5q19 75 21 184t3.5 207.5t20.5 155.5q-30 0 -86 10t-102 10t-87 -20q-16 0 -26 7 t-13.5 22.5t-4.5 27t-1 33.5z" />
<glyph unicode="u" horiz-adv-x="1310" d="M35 932q33 47 77 66q37 15 69 15q7 0 14 -1q35 -4 75 -4h10q46 0 76 16l45 -92v-733q0 -26 10.5 -45t24.5 -28t36 -14t35 -5.5t32 -0.5q48 0 90.5 11.5t75 28t65 48t53 56.5t48 71t41.5 73t40 79v367q-32 32 -62.5 45.5t-50.5 12t-55.5 -7t-60.5 -5.5v92q38 20 99 22 t121.5 3.5t98.5 21.5q24 -46 24 -161t24 -161q-22 -63 -33 -153.5t-13 -151t-2 -153.5q0 -15 -10 -43.5t-10 -51.5t20 -43q29 -14 55 -8.5t52.5 13t48.5 12.5t41.5 -9t32.5 -53q0 -35 -28 -63.5t-62 -28.5q-8 0 -49 -5.5t-74 -7.5h-7q-30 0 -70 12q-44 14 -77 46v138 q-111 -112 -242 -164q-80 -32 -161 -32l-101 13q-40 20 -64 55t-40.5 73.5t-32.5 54.5v596q0 16 10 44t10 50.5t-20 42.5q-29 15 -55 10t-52.5 -12.5t-48 -12.5t-41 9.5t-32.5 52.5z" />
<glyph unicode="v" horiz-adv-x="1239" d="M29 995q21 21 47 31.5t43 12t47 1.5h317q21 -21 31.5 -47t12 -43t1.5 -47q-34 34 -68 33.5t-67 -33.5q0 -45 21 -102.5t46.5 -106.5t46.5 -116.5t21 -128.5q22 -45 45 -136.5t45 -136.5q41 59 64.5 140.5t41 174t34.5 140.5q22 46 45 114.5t45 114.5v43q-30 0 -46.5 1.5 t-42.5 12t-48 31.5q-13 14 -13 27q0 18 23 35q40 30 82 30h364q0 -22 21.5 -45t21.5 -47q-34 -17 -84.5 -21.5t-86 -16t-56.5 -50.5q-23 -115 -90.5 -320.5t-89.5 -318.5q-18 -36 -42 -119t-50 -108q-37 0 -56 0.5t-50 5.5t-50 14t-39 27t-33 45q17 29 12 60.5t-17.5 52 t-26 52t-13.5 60.5q-22 92 -91 274.5t-91 274.5q0 19 -12 30t-24 12l-11 1q-19 -19 -41 -19t-50 9.5t-44 9.5q-34 34 -39.5 45.5t-5.5 46.5z" />
<glyph unicode="w" horiz-adv-x="1333" d="M62 924.5q0 33.5 10 63t10 42.5q38 -24 80 -30q25 -4 47 -4q15 0 29 2q34 4 65.5 6.5t55 -12t36.5 -52.5q0 -12 -17.5 -27t-36.5 -29.5t-32.5 -32.5t-4.5 -41t46 -48q-13 -21 -13 -50q0 -9 1 -18q5 -41 17.5 -71.5t26 -80t13.5 -93.5q14 -28 14 -66t-3 -64.5t14.5 -53 t64.5 -42.5q20 0 20 11.5t-10 36.5t-10 42q23 46 35 114t18 122t20.5 105t51 79.5t99.5 28.5q45 -45 45 -90q15 -45 32.5 -126.5t40 -149.5t62.5 -128v-45q23 23 45 90.5t43 89.5q-12 45 -12 95q0 16 1 32q5 68 17.5 114.5t25.5 105.5t13 102q-42 40 -65 71.5t-23 63.5 q18 18 64.5 19.5t93 3.5t65.5 20q15 15 31 18q5 1 10 1q11 1 22 -5q15 -8 31 -21t33 -28l8 -8q0 -23 -1 -35t-5 -27.5t-14 -22.5t-27 -7q-33 0 -60.5 -27.5t-27.5 -60.5q0 -174 -88 -358q12 -32 12 -68q1 -13 -1 -26q-6 -51 -18.5 -86t-26 -85.5t-13.5 -93.5 q0 -35 -5.5 -46.5t-39.5 -43.5h-133q-38 12 -52.5 31t-12 41.5t7 46t-2 52t-30.5 52.5q-14 29 -20.5 73.5t-7.5 79t-15.5 68t-44.5 48.5q-25 -24 -49 -105t-44 -119q0 -17 10.5 -32t10.5 -26.5t-21 -31.5q0 -9 4.5 -34.5t6.5 -47.5t0 -45t-15.5 -37t-38.5 -14 q-34 -34 -90 -34t-90 34q-22 112 -45 336t-45 336q-23 12 -35 40t-14.5 55t-14.5 53t-36 34q-10 4 -27 4q-21 0 -51 -6q-20 39 -20 72.5z" />
<glyph unicode="x" horiz-adv-x="1343" d="M37 51q0 24 22.5 47t22.5 45q45 -21 82.5 -31.5t56.5 -12t51 -1.5q25 50 64.5 101t78 91.5t76 82.5t67 92t42.5 102q-20 40 -68 91t-97.5 102t-69.5 88q-33 34 -65.5 48t-55.5 13t-73 -6.5t-89 -5.5q0 12 -4.5 27t-8.5 25.5t-6.5 20t2 14.5t17.5 5q53 0 140 12 q88 13 146 19q16 2 33 1q47 0 103 -12q78 -17 143 -65h-188q21 -45 48 -83t43 -54.5t50 -48.5q0 -33 25 -66.5t71 -75.5q62 62 94.5 96t74.5 87.5t63 97.5q-19 20 -43.5 21.5t-50.5 3.5t-46 22q0 20 12.5 43.5t25.5 36.5l12 14l45 -49h377q5 0 12.5 -1t20 -12.5t12.5 -31.5 q-11 -26 -41 -33q-23 -5 -49 -5h-15q-17 1 -34.5 1t-35.5 -1q-35 -2 -64 -26.5t-42 -76.5q-14 -13 -57.5 -66.5t-90 -100.5t-88.5 -69q-26 -13 -30 -28t8 -32t28 -34.5t30 -43t14 -50.5q27 -18 54.5 -50t48.5 -63.5t47 -66.5t50 -60q26 -25 60 -43q32 -17 66 -18h6 q38 2 90 20q16 0 26 -7t13.5 -23.5t4.5 -29t1 -36.5q-20 -20 -56 -20t-91.5 10t-88.5 10q-141 0 -186 -45q-20 0 -32 11.5t-28.5 38t-34.5 44.5q0 31 22 46.5t48 17t48 7.5t22 21q-39 21 -64 58.5t-54.5 88.5t-68.5 89h-45q-6 -6 -67 -54.5t-105.5 -94t-64.5 -87.5 q32 0 48.5 -15.5t21 -36t22 -47t49.5 -42.5q-17 0 -33 -10t-28.5 -10t-34.5 20q0 14 -5 19t-14 2.5t-19.5 -7.5t-25 -9.5t-26.5 -4.5h-191q-33 -16 -60.5 -18.5t-51 8.5t-38.5 24t-36 35z" />
<glyph unicode="y" horiz-adv-x="1290" d="M77 902q19 28 56 28h438q33 -34 33 -68t-33 -67h-133v-43q44 -59 79 -133t54.5 -132.5t54.5 -131.5t79 -132q45 0 45 131q-12 12 -8.5 27t17 27t26 27t17 27t-8.5 27q43 80 66.5 142t23.5 121q-16 8 -43.5 18.5t-41.5 17t-31.5 19t-23 27t-5 39t11.5 57.5h354q40 0 57 -1 t37.5 -5t27.5 -13.5t7 -25.5q20 -20 20 -42.5t-10 -49.5t-10 -41q-43 0 -108 21.5t-111 21.5q-23 -44 -45 -175.5t-43 -175.5q-24 -72 -70 -190t-75 -195t-52.5 -189.5t-23.5 -219.5q-15 -30 -40.5 -53.5t-48.5 -36t-48.5 -35t-39.5 -51.5q-30 14 -71 14h-3q-43 -1 -80 -8 q-19 -4 -38 -4q-21 0 -43 4q-43 8 -74 39q-42 38 -64 76.5t-22 99.5q0 9 -5.5 39t-7 54t11 59.5t42.5 66.5q22 -22 67 -22t68 -23q43 -43 43 -86q-12 0 -21.5 -13t-15 -29.5t-13 -32t-15 -20.5t-21.5 5l43 -43q51 -30 101 -30q12 0 24 2q62 9 94 73q21 65 65 174.5t66 175.5 q0 39 -22.5 74t-57.5 75t-51 74q-42 124 -131 305q0 70 -34.5 130.5t-98.5 91.5q-11 0 -35.5 -8t-46.5 -13.5t-44.5 -6t-36 17.5t-13.5 55q-18 21 -18 39q0 12 7 23z" />
<glyph unicode="z" horiz-adv-x="1234" d="M53 12q0 32 14.5 55t32.5 34t32.5 25t14.5 30q72 34 137 98t99 135l475 473v47h-49q-48 0 -131 5q-84 6 -132 7h-6q-47 -1 -113 -13q-71 -14 -136 -46h-47q0 -22 6 -75q7 -63 6 -90q0 -31 -13 -65q-14 -36 -48 -52q-20 20 -33.5 22t-27.5 3.5t-34 21.5q25 38 32 93 q5 43 5 80v22q-1 19 -1 36q0 27 2 53q3 43 28 68t78 25h471q42 22 100 22t128.5 -11t100.5 -11q11 -19 11 -37q1 -13 -5 -25q-12 -30 -34.5 -49.5t-44 -41t-21.5 -36.5q-157 -157 -242.5 -244t-207.5 -221t-209 -244v-47q84 0 199 10.5t199.5 10.5t168.5 -21q65 0 94.5 29.5 t31.5 77.5q1 24 1.5 48t-1.5 49v17q0 40 10 82q12 50 50 76q35 0 66 -30.5t31 -65.5q-13 -26 -15 -66q-1 -18 -1 -36q-1 -23 1 -45q1 -20 1.5 -41t-1.5 -42q-2 -42 -22 -81.5t-60 -65.5h-800q-25 0 -96.5 23.5t-94.5 23.5z" />
<glyph unicode="{" horiz-adv-x="602" d="M20 575q80 27 115 68t35 125v457q0 75 72 129q68 51 192 51q74 0 105 -8q34 -9 34 -49q0 -42 -112 -60q-113 -18 -113 -71v-453q0 -55 -35 -111q-33 -56 -88 -78q52 -27 88 -77q35 -53 35 -111v-450q0 -53 113 -74q112 -21 112 -56t-47 -47q-27 -6 -86 -6q-114 0 -182 39 q-88 46 -88 139v453q0 77 -35 127q-36 48 -115 63z" />
<glyph unicode="|" horiz-adv-x="288" d="M41 66q9 31 12 125.5t27 132.5q-11 66 -6.5 99t14 85t8.5 88q3 30 -2 95.5t-2 94.5q7 289 -20 519q14 21 14.5 51.5t-5 55.5t2.5 56.5t35 57.5q24 20 65.5 2t55.5 -15q17 -30 19.5 -65.5t4.5 -42.5q-6 -9 -20 -20t-21.5 -21.5t-3.5 -26.5q-2 -27 3 -94t1 -98 q-7 -12 -9.5 -41t-8.5 -39q17 -23 16.5 -46t-9 -40t-8 -40t18.5 -46q-12 -20 -28 -45q3 -13 -5 -44.5t-12 -55t10 -52.5q-7 -13 -2.5 -31.5t-1.5 -29.5l-22 14q8 -7 1 -18.5t7 -18.5q2 3 5 5.5t12 7.5t18 -2l-27 -43q12 -9 8 -14t-0.5 -16.5t23.5 -23.5q-13 -21 -16.5 -74 t-26.5 -90l18 -71q-16 -24 -2 -79t0 -77q-11 -17 -6 -39.5t23 -34.5q3 -27 -23.5 -46t-44.5 -7q-16 -4 -32.5 7t-33.5 29t-24 22z" />
<glyph unicode="}" horiz-adv-x="602" d="M29 -193q0 33 112 54q113 21 113 76v450q0 64 33 111q36 52 90 77q-52 21 -86 78q-37 55 -37 111v453q0 53 -113 71q-112 18 -112 60q0 38 37 47q42 10 102 10q155 0 223 -80q41 -47 41 -100v-457q0 -80 37 -123q33 -45 113 -70q-150 -27 -150 -190v-453q0 -91 -88 -137 q-77 -41 -182 -41q-60 0 -84 4q-49 9 -49 49z" />
<glyph unicode="~" horiz-adv-x="774" d="M66 543q0 78 57 129q55 49 137 49q30 0 146 -39q121 -41 178 -41q29 0 53 18q4 4 22.5 21t28.5 25q8 0 14 -9q9 -12 9 -28q0 -93 -80 -140q-54 -32 -123 -32q-43 0 -150 36q-110 37 -151 37q-40 0 -66 -20l-45 -45q-30 9 -30 39z" />
<glyph unicode="&#xa1;" horiz-adv-x="405" d="M65 1045q4 37 17 63t33 47q28 28 73.5 28t71.5 -28q41 -40 61 -73.5t17 -71.5t-39 -74q-58 -24 -122.5 -9.5t-96.5 46.5q-19 35 -15 72zM84 94q-1 53 17 172.5t18 194.5q14 42 17 104t12.5 109.5t41.5 79.5q25 0 37 -18.5t14 -41.5t7 -49.5t16 -38.5q14 -69 18 -165 t14.5 -181.5t43.5 -165.5q-18 -17 -54.5 -34.5t-54.5 -36.5q-22 0 -35 1.5t-37 7t-43 21.5t-32 41z" />
<glyph unicode="&#xa2;" horiz-adv-x="991" d="M29 475q0 64 21.5 141.5t43 129.5t21.5 53q120 161 360 202q0 -29 21 -43q-38 119 -41 347q14 20 14 53q0 12 -3 38t-3 40q0 51 39 90q23 10 33 10q16 0 41 -12.5t38 -12.5h2q2 2 7 2q17 -30 19.5 -65.5t4.5 -42.5q-5 -8 -26 -25t-21 -32q0 -9 2 -11v-22q0 -45 2 -68 q3 -38 -22 -137q21 -78 30 -131q23 10 58 4q85 -10 143 -10l131 -174q-2 -65 -19.5 -107.5t-68.5 -66.5q-43 0 -60 1t-41.5 9t-40 26.5t-32.5 51.5q-18 18 -18 51q0 34 8 53q2 10 10 25q-31 13 -39 18q-81 -148 -72 -164q-6 -9 -6 -18q0 -5 3 -14.5t3 -14.5q0 -2 -4 -14 l-22 14q6 -6 6 -10q0 -3 -4 -8t-4 -8q0 -8 10 -11l6 6q9 9 16 9q1 0 13 -4l-27 -43q8 -5 8 -13q0 -3 -1 -6t-1 -6q0 -14 25 -29q-11 -21 -15 -74.5t-28 -89.5l18 -71q-8 -8 -2 -115l74 12l43 -43q16 34 51 72.5t57.5 72.5t22.5 72q20 22 45 32.5t40.5 12t45.5 1.5 q12 -38 12 -72q0 -33 -11 -68.5t-23 -57t-35 -59t-31 -51.5q-201 -129 -391 -129q-142 38 -229.5 108.5t-120.5 196.5q-86 59 -86 199zM223 483q0 -220 154 -338l72 13q-3 9 -3 22q-9 118 17 144q-8 31 -8 67q0 41 13 115t13 119q0 22 -4 66.5t-4 64.5q0 4 0.5 15.5 t1.5 33.5t2 43q-88 -37 -100 -49q-20 0 -41.5 -22t-47 -58t-40.5 -51q-25 -89 -25 -185zM514 860l33 2l-6 8q-22 -9 -27 -10zM618 864h19l-16 13z" />
<glyph unicode="&#xa3;" horiz-adv-x="999" d="M43 158v30l12 17v123q10 3 21 26l24 37l39 23l13 16h45q8 0 125 -24l55 -44h4l2 84l-6 15q-10 29 -21 84l-6 8q-34 0 -117 6q-73 8 -124 8q2 20 16 88q49 58 149 43q-13 18 -16 47q-10 20 -10 33l2 17l-4 12h-109q-14 13 -31 45v35q7 14 15 24t22.5 18t20 10.5t27.5 9 t24 7.5v93l12 6q3 31 9 59l6 8q4 21 41 74q19 32 51 80q16 30 67 47q52 18 64 45q17 0 32.5 0.5t27.5 1t22.5 1t17.5 0.5t12 0.5t7 0.5h2q31 0 67.5 -20.5t57.5 -39t61 -57.5l10 -22l31 -25q3 -23 18 -41v-147l-28 -43q-15 -4 -21 -10l-55 -13l6 7l-12 8v-15h-10 q-11 14 -31 17q-3 29 -18 47v127q5 12 18 35q-45 39 -80 39h-147l-21 -17q-15 -27 -76 -49q-29 -76 -34 -121l-13 -28q4 -36 4 -58q98 2 152 2q133 0 160 -37v-57q-15 -38 -37 -47h-119l-8 10h-103l-8 12h-10l-10 -8l20 -28l4 -19l29 -24l8 -45q14 -17 25 -35l6 10l18 14 q15 0 69 6.5t71 6.5h14l12 -17l31 -18l6 -45l-6 -37q-29 -33 -72 -43q12 5 -65 6h-35q3 -28 6 -64l-4 5l14 -33v-146l11 -12l-13 -18q14 -22 21 -54q31 -28 98 -77h80q39 0 90 63q3 21 16 37q6 34 31 65v105q-10 20 -10 33q0 25 16 46t35 21q29 0 68 -39l6 -39l22 -30 l-10 -15v-45l-12 -16v-152q-19 -16 -31 -34l-8 -33l-39 -58q-24 -12 -59 -47q-39 -39 -68 -39h-137q-90 56 -170 148v-4q-83 -80 -96 -94h-37q-19 -13 -107 -13q-26 0 -61 15q-1 2 -12.5 15.5t-14.5 17.5t-12 16.5t-12.5 20t-8 18t-6.5 20.5zM145 240l7 -60q20 -4 26 -4h92 q32 29 64 51l-17 19q-19 3 -32 22q0 -4 -4 -4q-13 0 -31 15h-57q-2 0 -33 -17zM559 547h6h-6zM721 1014l8 8q-4 0 -8 4v-12z" />
<glyph unicode="&#xa4;" horiz-adv-x="1185" d="M43 1094q3 9 8.5 18.5t16.5 22t17.5 20t24 25.5t23.5 24q14 14 22.5 16t11 -3t5 -12t4.5 -9q-1 -15 8 -25t19.5 -16.5t16.5 -22.5t-1 -42l23 20l123 -152q70 65 188 105q66 0 102.5 -2t92 -17.5t102.5 -46.5l82 -82l2 -2v-2l14 -12q109 -261 -30 -491q35 -33 67.5 -78 t65.5 -82t82 -68q-11 -32 -82 -110q-12 -14 -19.5 -16t-10 3t-5 12t-4.5 9q1 15 -7 25.5t-17 16.5t-14.5 22.5t-0.5 41.5l-19 -20l-131 180q-13 -6 -36.5 -17.5t-36.5 -17.5q-6 -2 -27.5 -9.5t-28 -9.5t-25 -7.5t-26 -6.5t-24 -4t-25.5 -1.5t-24.5 3t-27 6.5t-26.5 12 t-29 17h-32q-36 14 -56 27l27 35l-27 -33q-39 26 -69 63t-48.5 80.5t-30.5 84t-24 86.5q-3 12 -4 18q0 34 34 82.5t34 81.5q5 21 6 22q-29 27 -75.5 80.5t-88 92t-90.5 65.5zM90 197q54 31 86.5 57.5t71 65t76.5 69.5q4 -4 22 -14.5t29 -22t12 -28.5l12 14v-2l-120 -156 l-21 21q6 -25 0 -41.5t-15.5 -23t-18 -16.5t-7.5 -24q-2 -2 -4.5 -9t-5 -12t-10.5 -3t-21 16q-74 74 -86 109zM378.5 766q0.5 -21 4.5 -62t4 -67q0 -71 40.5 -137t92.5 -92q174 -58 264 32q47 46 68.5 115t19 131.5t-21.5 114.5q-26 13 -46.5 38.5t-38 42.5t-46.5 17 q-49 16 -77 23t-70 9.5t-78.5 -14t-71.5 -51.5q-24 -23 -34 -51t-9.5 -49zM831 348l9 -2q5 3 21.5 10t29 16.5t16.5 24.5q-26 -23 -76 -49zM868 995q41 24 67.5 52.5t38.5 52.5t36 57t59 62q1 -1 13 -11t18 -16t15.5 -16.5t14 -21.5t5.5 -21l-9 -9l-147 -190l-21 20 q7 -33 1 -34q-2 0 -8 4q-12 9 -13 -2v-7l-4 -4v2l-2 2q-1 1 -8.5 12t-16.5 21q-7 7 -13 12.5t-9 8t-5.5 5t-3.5 2.5t-2 2l-1.5 3t-2 5.5t-2.5 8.5z" />
<glyph unicode="&#xa5;" horiz-adv-x="1075" d="M25 1126q0 20 19 39t19 37q51 -16 108 -16t127 8t108 8q14 0 22.5 -5.5t11.5 -19t3.5 -22.5t0.5 -29h-114q15 -29 19 -71.5t14 -72t43 -46.5q-14 -23 -9.5 -51.5t15 -48t21.5 -56t11 -73.5q17 -17 27 -36.5t23 -54t26 -61.5q33 32 55.5 91.5t44.5 120.5t54 93 q0 31 19 73.5t38 93t19 99.5q-8 8 -21.5 10.5t-27 1t-27.5 -4.5t-20 -3.5t-14 -0.5t-10 4t-1.5 11.5t6.5 20.5q29 28 76.5 28t76.5 -28q22 0 62.5 10.5t72 18.5t69 2.5t63.5 -31.5q-13 -39 -41 -49.5t-58 -3.5t-67.5 4t-63.5 -29q-15 -31 -34 -99.5t-41 -90.5 q-35 -69 -85.5 -199.5t-58.5 -150.5h191l92 -19q13 -9 14.5 -21.5t-4.5 -23t-13 -23.5t-7 -20q-88 -10 -318 -10q11 -38 8 -80h285q16 -9 23 -24t6.5 -26.5t-2.5 -28.5t-2 -21q-124 -13 -318 -17q-4 -98 37 -176l133 13q0 -13 6 -19t12.5 -6.5t12.5 -6.5t6 -18l-49 -38 l-342 6q-28 28 -24 26q1 0 3 -2q-6 6 -13.5 12.5t-9 8.5t-4.5 4.5t0 5t5 5t9.5 9t14.5 13.5q17 0 37.5 -1t28.5 -1t19.5 2t19.5 8t20 18q0 68 6 135q-188 -8 -299 -32q-11 12 -16 34.5t-5.5 38.5t-0.5 52q0 18 8 25.5t17 7t23.5 -3.5t19.5 -3q28 -14 51 -7.5t59.5 5 t65.5 -23.5v26h80q-3 47 -11 78q-140 -3 -248 -27q-6 7 -28.5 25t-37.5 37t-15 41q0 8 3.5 14.5t9.5 11t13.5 7.5t17.5 5t18 3t18.5 1.5t16 0.5h14h9.5q24 -13 44.5 -7t53.5 4.5t58 -22.5v25h4q-36 90 -108.5 270t-108.5 270q-13 27 -35 33.5t-45.5 0.5t-53 -6.5t-56.5 11.5 z" />
<glyph unicode="&#xa6;" horiz-adv-x="247" d="M45 651q26 21 121 17q17 -1 24 -8t5.5 -15t-4.5 -20t-3 -17q-14 -24 -8.5 -45t3 -53t-24.5 -57h24l-14 -369v-21q-9 -14 -23.5 -19t-25 -4.5t-27 4t-20.5 3.5q-8 119 -5 203.5t-0.5 195t-21.5 205.5zM51 1419q26 21 121 17q17 -1 24 -8t6 -15t-4 -20t-3 -17 q-14 -24 -9 -45t2.5 -53t-24.5 -57h24l-14 -369v-21q-9 -14 -23.5 -19t-25 -4.5t-27 4t-20.5 3.5q-8 119 -5 203.5t-0.5 195t-21.5 205.5z" />
<glyph unicode="&#xa7;" horiz-adv-x="864" d="M63 868q11 34 30.5 63.5t35 45t47 43.5t45.5 41q-2 4 -12.5 24.5t-14 28.5t-11.5 28t-9.5 31t-2 29t5 30t16.5 26.5t28 25.5q48 70 152.5 96.5t201.5 -0.5q15 -30 78.5 -78.5t79.5 -80.5v-66q-16 -16 -24.5 -23t-25 -15t-35 -6t-42.5 13q-3 0 -8.5 1t-14 8.5t-8.5 21.5 q-16 29 -16 48.5t8 35.5t8 27q-50 50 -93 62t-89 -11q-44 0 -77 -28.5t-62 -80.5q0 -19 -1.5 -29t-9 -17t-22.5 -7q12 -12 23 -44t20 -48t23 -2q59 -45 132.5 -89t117.5 -67t135 -69q75 -38 98 -60q29 -30 29 -67q11 -22 13 -45t-6 -50t-17 -46.5t-25 -51.5 q-9 -18 -39.5 -42t-51.5 -40t-18 -44.5t47 -61.5q-12 -13 -14.5 -49t-12 -77.5t-38.5 -68.5q-77 -51 -194.5 -63t-221.5 32q-13 26 -45 75.5t-49 86.5q10 10 22.5 36.5t28 42t43.5 15.5q16 0 34.5 -10t30 -20.5t33.5 -32.5q12 -22 13.5 -40t-9 -32.5t-26.5 -26t-43 -24.5 q23 -21 55.5 -31.5t55 -11t62.5 1.5t50 2q22 0 38.5 10t26.5 23t27.5 31t36.5 30q0 15 3.5 45.5t4 48.5t-8.5 39t-30 33q-43 35 -106.5 70.5t-119.5 60.5t-113.5 59.5t-97 70.5t-61 91t-14.5 123zM158 770q9 -30 35 -52t53.5 -32.5t61 -26.5t52.5 -34q15 -10 35.5 -25.5 t36 -27t36.5 -26t36.5 -22t37.5 -15.5t37.5 -6.5t36.5 5.5q30 10 49 29.5t26.5 48.5t9 47.5t1.5 48.5v29q-10 10 -18.5 26t-16 24.5t-20.5 8.5q-54 39 -169.5 97.5t-176.5 105.5q-19 0 -30 -1t-27 -9t-29 -23q-27 -27 -40 -59.5t-15 -53t-2 -57.5z" />
<glyph unicode="&#xa8;" horiz-adv-x="790" d="M74.5 1311q-0.5 11 8 25t28.5 26q17 19 23.5 24.5t19.5 14.5t23 6.5t20 -14.5q20 0 33.5 -12.5t19.5 -27.5t15.5 -43.5t17.5 -45.5q-6 -6 -30 -42.5t-58 -54.5q-26 0 -48.5 10.5t-35 23t-29.5 32.5q0 18 -3.5 42.5t-4 35.5zM514 1327q11 12 20 30t16.5 27t20.5 9 q43 22 79 1.5t36 -69.5q20 -12 24.5 -28.5t-7.5 -38t-20 -32t-26 -30.5q-23 -25 -47 -25t-67 25q-34 39 -29 131z" />
<glyph unicode="&#xa9;" horiz-adv-x="1378" d="M51 723q0 3 5 13.5t5 13.5v151q0 6 13 25q3 3 12 18q20 42 43 76q3 2 14 16q3 28 19 51l37 48q15 3 22 10q27 31 86 90q69 50 78 55q13 0 45 8l55 25q52 18 111 18q16 0 28 3.5t23 3.5q21 2 41 7t31 5q14 2 24 2q0 -2 17 -19h112q12 0 27 -6q2 -1 37 -20q26 -13 41 -25 q35 -18 96 -35l19 -18q17 -10 26 -25q22 -22 35 -45q8 -3 12 -10q8 -6 31 -29q0 -3 21 -24q16 -12 21.5 -20.5t14.5 -28.5l11 -21q34 -55 51 -123q0 -12 -4 -16.5t-4 -11.5l8 -13q8 -8 8 -16l-25 -102q-1 -7 6 -23t7 -24q0 -7 -4 -23l-11 -47q-1 -19 -5.5 -38t-11.5 -37 t-7 -19q-8 -24 -8 -54q0 -14 -2 -16q-11 -14 -19 -18q-11 -12 -15 -20t-3.5 -17.5t0.5 -11.5q-8 -43 -66 -91l-6 -12q-7 -13 -20 -24q-21 -9 -25 -17l-72 -59l-51 -15q-55 -21 -63 -26q-64 -19 -76 -19q-21 0 -27 2l-14 7q-5 -2 -8 -9q-10 -10 -17 -10h-47q-15 0 -30 2 t-43 8t-46 9q-36 -3 -51 0q-4 0 -21 9.5t-22 10.5l-47 8q-10 3 -29.5 10.5t-29.5 10.5q-9 4 -21.5 8.5t-16.5 6.5t-11.5 6t-13 9t-13.5 13q-1 1 -2 2.5t-3 3.5t-5 4q-17 12 -37 20q-31 16 -58 43q-14 12 -34 48l-11 24q-6 6 -10 6l-20 21q-21 27 -31 37q-10 12 -18 20 q0 24 -5.5 35t-13 17.5t-10.5 15.5v18q0 16 0.5 37.5t0.5 31.5t-1 13q-13 26 -14 29q-15 35 -15 53zM184 655q0 -13 15 -24q0 -5 -4.5 -8.5t-4.5 -8.5l13 -30q8 -30 28 -72l21 -37l37 -37q10 -17 22 -24q7 -6 11 -8q21 -39 49 -56q4 -6 14 -16q42 -9 64 -19l45 -28 q41 -21 51 -21h92q2 -6 10 -14h31q4 3 21 6t38.5 6t28.5 4h29q14 0 41 6l65 27l16 4t19 4q6 4 21.5 14.5t26.5 18t25 20t23 23.5l33 41l20 6l29 39q6 17 16 41q4 5 9.5 13.5t5.5 9.5q14 25 31 49q2 2 10 16t8 18v123q1 3 4.5 10.5t3.5 12.5q0 12 -12 39q-2 6 -10 26v80 q0 4 -10.5 16.5t-10.5 37.5q-6 5 -9.5 8t-12.5 13.5t-21 23.5l-24 22l-7 19q-25 46 -67 67l-37 21l-12 12q-6 11 -17 16q-10 3 -37.5 12t-48.5 15t-39 10q-12 6 -16 10q-14 7 -20 9q-29 -3 -39 0q-50 12 -95 12l-39 2q-4 -1 -9.5 -7.5t-8.5 -6.5q-4 0 -16 2t-17 2 q-19 0 -71 -19q-11 -5 -39 -14l-41 -12l-58 -50l-20 -12q-8 -6 -23 -31q-25 -19 -39 -40.5t-14 -34.5v-19l-29 -30q-2 -2 -2 -19q0 -11 -4 -39q-5 -10 -14 -37l-6 -37l-8 -36q-1 -4 -2 -8.5t-1.5 -7t-0.5 -3.5q0 -11 8 -24q4 -8 2 -13zM383 666q2 8 2 32l-2 74 q0 10 17.5 34.5t19.5 29.5q6 25 39 82l49 79q20 19 51 37q26 15 59 27q15 6 64 22q12 4 23 4q4 0 32.5 -2t38.5 -2q72 0 113 -24q53 -27 53 -92q0 -60 -49 -60q-37 0 -76 25q-45 33 -63 37l-19 2q-2 1 -5 2l-4.5 1.5t-2.5 0.5q-14 2 -31 2l-14 -12q-20 0 -41 -9 q-6 -6 -12 -10q-45 0 -65.5 -16t-20.5 -56q0 -7 -7.5 -50.5t-7.5 -61.5q0 -32 6.5 -57t16.5 -25q6 0 6 -16v-29q0 -9 11 -26.5t18 -24.5q5 -7 16 -21.5t16 -21.5q39 -33 140 -33q58 0 97 21.5t46 62.5l31 -12q12 -9 12 -15l-4 -6q-1 -2 -2 -5l-1.5 -4.5t-0.5 -2.5l-17 -66 q-37 -31 -100 -86q-50 -33 -117 -33q-123 0 -200 95q-6 7 -13 17.5t-14 23.5t-10 18q-21 21 -25 33q-10 11 -16 22.5t-10.5 25t-6.5 17.5q-2 9 -11 24t-9 28z" />
<glyph unicode="&#xaa;" horiz-adv-x="733" d="M57 455q0 17 7 24t15 6.5t20.5 -3.5t17.5 -3q24 -13 44.5 -6.5t53 5t57.5 -22.5v24h390q18 -11 22.5 -27.5t1.5 -42.5l-4 -26q-72 -8 -276.5 -14.5t-327.5 -34.5q-21 26 -21 121zM104 840q32 48 86 67.5t105 17.5t112 4t99 29q0 24 -1 38.5t-5 36t-14 32t-27 10.5 q-107 34 -211 0q22 -22 22 -47q-8 0 -25.5 -12t-45.5 -12q-45 -1 -45 24q-13 0 -19 8t-7 16t-1 23q34 44 91.5 65.5t111 19t104.5 -12.5q36 0 68 -19.5t51 -52.5q11 -52 11 -116t-5.5 -135.5t-5.5 -100.5q14 -28 49 -34t43 -15h49q0 -10 -5.5 -21.5t-10.5 -17.5l-6 -6 q-12 0 -35.5 -2.5t-37.5 -3.5t-34 5.5t-37 22.5q0 48 -22 72q-28 -27 -61.5 -45.5t-61 -28t-69.5 -14.5t-66.5 -5.5t-71.5 -0.5q-107 67 -72 211zM154 793q0 -70 45 -119q82 -16 140 9t120 87q19 0 28 8.5t9.5 24.5t-2.5 31.5t-7.5 36.5t-5.5 32q-4 -16 -47 -16 q-29 -15 -78.5 -15t-88 3.5t-72 -15t-41.5 -67.5z" />
<glyph unicode="&#xab;" horiz-adv-x="821" d="M29 559v4q20 17 20 49q63 26 80 54q23 0 39 28q22 22 22 29l17 12q16 32 43 53l16 48q6 17 86 73q50 0 70 -45l-27 -67q-36 -54 -55 -68q-27 -80 -74 -98q-11 0 -20 -37l-45 -8l4 -19h20l21 4q7 -7 10 -36q21 -9 39 -64l12 -12v-6q19 6 22.5 1t-7.5 -20q12 0 71 -74 l29 -45l20 -53q-37 -37 -86 -31l-55 48q-30 0 -39 45q-53 46 -82 88q-27 53 -41 61q-20 -5 -33.5 9t-21.5 46q-42 14 -55 31zM342 559v4q20 17 20 49q63 26 80 54q23 0 39 28q23 23 23 29l16 12q16 32 43 53l17 48q6 17 86 73q49 0 69 -45l-26 -67q-35 -53 -56 -68 q-27 -80 -73 -98q-12 0 -21 -37l-45 -8l4 -19h21l20 4q7 -7 10 -36q21 -9 39 -64l13 -12v-6q18 6 21.5 1t-7.5 -20q13 0 72 -74l28 -45l21 -53q-37 -37 -86 -31l-56 48q-30 0 -39 45q-50 44 -81 88q-27 53 -41 61q-41 -9 -56 55q-42 14 -55 31z" />
<glyph unicode="&#xac;" horiz-adv-x="1392" d="M51.5 632q3.5 22 16.5 38q29 36 45 67q5 6 16 27t21 29q0 7 5.5 14t6.5 10h4q2 10 1 14t-5.5 11.5t-5.5 11.5l-25 25q4 1 4 6.5t4 5.5v14q5 2 6 10.5t2 10.5q1 8 7.5 29.5t7.5 33.5q1 4 3 12.5t4.5 16t6.5 12.5q6 22 2 27q10 20 12 28v5q0 2 2.5 6t2.5 6q0 9 2 18t4.5 15 t7 15.5t6.5 14.5v4q2 2 2 6.5t2 6.5l-4 4h-4q0 2 -0.5 4t-3.5 0q0 -2 -3 -4t-3 -4q-3 4 0.5 12t1.5 12q-6 -2 -21 -0.5t-22 0.5q-2 -2 -6 -1.5t-7.5 0.5t-3.5 -3q-2 1 -1 2.5t2.5 2.5t3 3t2.5 4l10 5v2q-1 0 -5 1t-7 1t-5 -2q-2 5 5 17.5t-1 14.5q4 22 0 37q-2 3 -0.5 4.5 t3.5 1.5t4 -1t3.5 -1.5t2.5 -0.5t2 1q22 28 39 64q0 5 4 0q2 -2 2 -4v-4q6 0 12 8t12 8q2 4 10.5 8t10.5 8q8 -4 20.5 5t18.5 8q6 9 24 12t25 12q14 0 27 19.5t24 23.5q32 0 49 27q7 7 16.5 12t16.5 7.5t20 3.5t18.5 1h21.5h20q0 1 1 8t5 9q6 -1 28.5 -7t28 -6t27.5 1 q6 2 28 10t34 10q15 -8 24 -4q1 5 13 1.5t18 -1.5q6 -5 22.5 -7.5t22.5 -8.5q22 9 39 -5q3 -1 7.5 -3.5t8.5 -2.5q5 2 12.5 2t17.5 -1t15 -1q17 3 40.5 -18t41.5 -16q6 -3 22.5 -3.5t22.5 -3.5q5 -5 21.5 -10t21.5 -14q2 -3 9 -13t11 -16t12 -11.5t17 -6.5q6 -3 25 -22 t33 -19q8 -3 17 -17t13 -18q2 -1 8 -5.5t8.5 -6.5t7 -6.5t6.5 -7.5t3.5 -8t1.5 -11q25 -29 23 -43q6 -7 16 -25.5t19 -27.5q0 -3 -5.5 -10t-3.5 -13q4 -5 5 -11t0 -14.5t-1 -9.5q2 -4 7.5 -10.5t8.5 -10.5t4.5 -10.5t-3.5 -11.5q0 -5 3 -12t3 -10q3 -12 2.5 -37t3.5 -33 q-3 -14 6.5 -32.5t3.5 -30.5q0 -111 -47 -156q-11 -14 -51 -86q-5 -6 -12.5 -25.5t-16.5 -27.5q0 -3 -4 -8l-4 -5q-1 -4 -2 -11.5t-1.5 -12.5t-3.5 -11t-9 -10q0 -5 -4.5 -10t-11 -11t-9.5 -9q-2 -11 -16 -32.5t-14 -37.5q-3 -5 -6.5 -20t-10.5 -21q-3 -6 -4 -23t-8 -24 q0 -4 -1.5 -14.5t-2 -15t-3 -13.5t-5 -15t-7 -13t-10.5 -13q-2 -7 -2 -17.5t1 -23t1 -18.5q-4 -3 -4 -21h4q0 -2 -0.5 -9t-0.5 -11t2 -9t5 -8q0 -21 15 -51h-2v-12q-10 -8 -23 -13q-28 -15 -86 -38t-86 -37q-36 -13 -99 -46t-95 -46q-16 -13 -35.5 -25t-33.5 -19 t-37.5 -18.5t-35.5 -17.5q-5 -9 -16 -17q-3 11 -12 33.5t-11 36.5q0 1 -1.5 2.5t-3.5 5t-3 6.5q-5 12 -14.5 45t-18.5 51q-8 25 -16 31q-15 16 -27 49t-20 45q-38 14 -49 17h-4q-49 11 -88 18q-2 2 -13 3t-18 5q-15 0 -26 8t-22.5 24t-15.5 20q-8 26 6 73q1 3 6.5 8t7 8 t-2.5 9h-6v2q-12 12 -17 12q-2 4 -12 4q-3 2 -8 4.5t-8 4.5q-4 47 10 63q1 2 0 3t-4.5 3t-5.5 4q-3 0 -7 4.5t-8 6.5q-12 6 -12 24q-2 5 3 11t5 8q8 8 1 20.5t-5 19.5q5 10 -8 17q-2 0 -6 2t-7 2q-2 0 -6 4t-10 4q-6 12 -16 12q0 3 -6 9q-9 0 -9 8q-11 20 -7.5 42z M68.5 616.5q-0.5 -2.5 4 -9t5.5 -9.5q3 0 5.5 2t4.5 2q5 -7 18 -12t17 -8q9 -1 32.5 -14t39.5 -11q7 4 16 21q9 28 0 49q-7 3 4 14q0 3 4 12.5t4 16.5q0 1 1 5q2 5 -1 5q3 3 4.5 7t1.5 6.5t2 2.5q2 3 3.5 3t4.5 -1.5t5 -1.5v13q2 6 4 20.5t4 20.5q1 5 -1 8t-7 5t-6 3 q0 4 7 11t7 14q0 14 -8 14q-4 5 -13 12.5t-13.5 14.5t-2.5 18h-12q-1 0 -10 -3.5t-15 -8.5q-4 -30 -16 -47q-4 -12 -2 -13h-10q-3 -17 -23 -37q-2 -7 -13.5 -23.5t-11.5 -25.5q-5 -6 -6.5 -21t-11.5 -22q0 2 -2 1t-4 -1q-6 -12 -6 -22q-3 -8 -3.5 -10.5zM95.5 569 q-0.5 -1 7 -5.5t10.5 -6.5q1 0 6 -1t8.5 0t7.5 5q0 8 -4 12q-9 -2 -20.5 1.5t-14.5 3.5q0 -8 -0.5 -9zM150 469q14 -19 16 -20q9 0 19.5 -11t17.5 -10v4q2 5 -0.5 8.5t-7.5 6.5t-7 6q-4 0 -8 3t-8 7.5t-6 5.5q0 3 -8 1zM184 369q4 0 35 -9v5q-8 8 0 8q4 0 5.5 -2t3.5 -7.5 t3 -7.5q3 -2 7 1t6 3q2 5 -0.5 9.5t-7 8.5t-5.5 7q0 8 -12 8q-3 -3 -15 -5t-14 -11q-6 0 -6 -8zM186 542l2 -3q7 0 15.5 -6t11.5 -7q0 -24 12 -34q0 -7 -4 -7q-2 -5 0.5 -7t7 -3t5.5 -2q-2 -2 -6.5 -4t-6.5 -4q-1 -1 -1 -3t1.5 -3.5t2.5 -4t1 -5.5q-5 -6 -3 -13t5.5 -10.5 t9.5 -10.5t9 -12q2 -3 4 -7t3 -7t4 -6t7 -6q0 -21 -6 -25q-4 0 -5.5 -1.5t-0.5 -3.5t3 -4t3 -4.5t0 -4.5q3 1 4.5 -2.5t3.5 -9t4 -7.5q0 -4 -3 -9t-5 -5q-8 -2 -10 -4.5t0.5 -4.5t5 -5t4.5 -6.5t0 -8.5q-3 -3 -10 -1q-1 1 -2 1q0 -8 -4 -8h-4q-6 4 -6 0q-4 -16 10 -24 q0 -6 8 -12t8 -11q3 -2 5 -1t2.5 2t2 3.5t2.5 3.5q1 0 13 -8l2 -4q5 -2 8 3t4 5q6 0 8 -7t8 -5q2 0 3 3q1 5 4 5t8 -4t8 -4q6 4 12.5 -3t12.5 -5q2 6 11 6t13 6q2 -8 11 -7.5t14 -4.5q9 0 24 12q0 -4 5.5 -6t7.5 -6q3 0 9 2t9 2q0 8 -4 8q-3 -7 -7 -4t-7 8l2 4q9 3 16 -4 q4 0 6 5t6 5q3 4 9 0q2 3 4 3t3 -2l1 -1q3 0 1.5 -2t-1.5 -4q-2 0 -4 -1q-4 -1 -4 1l-5 -4q1 -1 2.5 -3.5t2 -4t2 -3t2.5 -1.5q2 -8 12.5 -7.5t15.5 -4.5q-3 -7 1 -8.5t10 -3t6 -7.5h-4q-6 2 -21 2q-2 0 -2 3t-2 5t-6 -1.5t-6 1.5q-13 0 -13 -4h-1q1 -2 1 -4q2 -1 6.5 1.5 t6.5 2.5t4 -2.5t4 -3.5q-2 -6 -8.5 -7.5t-7.5 -2.5q-5 -2 -5 -12q-4 6 -4 10q-4 2 -8 0q0 -1 3 -8t1 -9q0 -6 4 -6q4 4 5.5 4.5t7.5 -2.5l8 -4q0 -8 -2 -8q1 -1 1.5 -2.5t1.5 -2.5t3 -1v-6q0 -8 -4 -8t-8 4l2 2l-2 2q-4 -4 -4 -8q0 -9 8 -9l-13 -12l9 -2q8 -20 8 -23 q2 -5 7.5 -14t6.5 -16q0 -7 10 -17q2 -4 0 -4q0 -14 19 -14q4 -4 4 -7t-2 -5.5t-2 -3.5q7 -7 8 -7q1 2 2 7t6 6l4 -2q4 1 10.5 -5.5t10.5 -5.5q0 2 1 6q2 6 -1 7q3 2 9 7t9 5q1 -2 5 -6t5.5 -6t3 -6t-1.5 -7l-6 -6q0 -6 6 -12q-12 -8 -12 -20l6 -5q9 0 13 5q3 7 22 20 q20 0 53 25q15 3 38.5 16.5t37.5 17.5q1 1 4.5 4t6 5.5t5 7t1.5 8.5q7 9 19 8.5t19 1.5q5 7 5 12h-13q5 3 14 6.5t11 4.5q23 0 35 12q25 0 37 2q14 0 34.5 7.5t28.5 8.5q6 4 18.5 8.5t18.5 8.5q2 0 6 1t6 1q2 6 -1 13.5t-3 8.5l4 5q2 0 1 2q-1 3 -1 6l-4 -6q-4 6 1 14.5 t3 13.5q0 2 2 6.5t2 6.5q-3 2 -6 8t-10 8v-2q-2 2 -4 -2v-4q0 -4 -4 -4v4q-1 0 -5 3.5t-6.5 4.5t-5.5 -4l-8 8q2 3 5.5 5.5t5 4t1.5 4.5q-6 3 -11.5 -4.5t-10.5 -5.5q-8 3 -3 8t3 8q-11 2 -13 6.5t2.5 9t8.5 10t2 9.5q-1 0 -6.5 -1.5t-5.5 1.5q-5 3 0 10.5t4 10.5 q-4 0 -10.5 -4t-10.5 -4q-7 0 -13.5 -3t-10 -6.5t-9 -10t-8.5 -9.5q-4 -4 -12 4q-1 4 2 6t8 2v17q-7 0 -12 -9q-11 11 -12 13q4 4 13 2.5t11 5.5q0 3 -4 9.5t-2 10.5l-4 -4q-6 -6 -19.5 -16.5t-19.5 -16.5q-1 0 -4 -3t-4 -3.5t-4 2.5q6 10 24.5 25t24.5 25q0 12 2 16 q23 5 23 18q-3 -2 -10.5 -5.5t-12.5 -6.5q-5 4 -4 5l4.5 4.5t3.5 6.5q-3 0 -8 -4.5t-8 -3.5q-6 0 -6 8q2 0 3.5 2.5t2.5 2.5q-1 9 3.5 11t11.5 0.5t13 0.5q0 14 -12 26q-6 9 6 13q7 -3 9 4t4 8q2 12 -7 25q4 0 7 2l2 2q3 5 0.5 13.5t-2.5 10.5q0 4 5 4t5 4q1 2 3.5 5.5 t3.5 5.5t0.5 5t-3.5 5q4 3 6 13.5t6 15.5q2 1 4 -1.5t4 1.5q2 3 -1 9t-3 9q9 7 14 23.5t9 21.5q12 6 12 39q15 15 4 39q-4 6 -4 10q7 3 3 19t-3 20q-7 9 -5.5 24.5t-0.5 24.5q-5 -3 -1 -10q1 -1 1 -2q-3 -11 -7 -34.5t-5 -29.5q-11 -84 -97 -149q-8 -4 -28.5 -17t-34.5 -16 q-46 0 -64 29q0 2 -4 12t-2 17q2 -1 3.5 -3t2 -3l1 -2t1.5 -1q3 -13 37 -30q11 -4 15 -4t16.5 4.5t17.5 5.5q5 4 31.5 22.5t40 32.5t19.5 33q16 15 24 41q8 35 11.5 56.5t0 52.5t-19.5 51q-7 13 -19.5 16t-33.5 -0.5t-27 -3.5q-1 -1 -22.5 -13t-28.5 -24q-4 -3 -10.5 -4 t-14.5 -1t-12 -1q0 -3 -5 -6t-3 -6q-17 -13 -19 -23q-3 -3 -7.5 -3t-9.5 1.5t-7 1.5q0 -1 1 -4.5t1 -5.5q-3 -4 -11 1t-14 3v-4q13 0 13 -8q5 -6 -2.5 -6.5t-4.5 -6.5q0 -3 -3 -5.5t-5 -2.5q-2 -7 6 -13.5t9 -10.5q12 -4 12 -9q-1 -6 -11 -1.5t-16 1.5q-2 0 -6 4.5t-6 4.5 q-4 -2 -12 10q-7 1 -8.5 5t0 9.5t-0.5 11.5h-4q-4 0 -4 -8q-2 -9 6.5 -19t10.5 -18q-4 -2 -6.5 -9.5t-6.5 -8.5q-4 2 -12 14q-1 0 -1.5 -1.5t-2 -4.5t-4.5 -6q-5 0 -8.5 7t-8.5 9q-8 4 -18 29q-30 24 -37 80q-1 3 -3 12.5t-5 15t-8 9.5q-2 4 -2 6.5t1 5.5l1 2q-5 6 3 17.5 t3 17.5q-6 0 -7.5 6.5t-2.5 7.5q-3 2 -3.5 8.5t-2.5 8.5q6 5 7.5 3t4.5 -8.5t6 -7.5q0 17 -18 29q-5 2 -17.5 11.5t-19.5 11.5v6q-3 2 -12 7.5t-13.5 8t-12.5 6t-16 4.5t-16 0q-5 10 -2 13q-6 2 -8 12t-8 12q0 4 -4.5 10t-4.5 9q7 11 0 41q-1 1 -4 8.5t-8 7.5l-1 -6 q-2 -6 1 -6v-9q-12 12 -12 21v4q0 2 3 4t1 4q-4 0 -6 2q1 3 3.5 5.5t2.5 4.5q-2 3 -3.5 3t-5 -1.5t-7.5 -1.5q-7 7 -7 15q-6 -2 -18 -2l-2 2v10h2q3 0 5 1t2.5 2t1.5 2t3 1q3 6 0.5 9.5t-6.5 3.5q-3 0 -3 -2.5t-3 -2.5v5q-2 0 -5 -2.5t-5.5 -2.5t-5.5 5q-7 8 -11 0 q0 -13 4 -19q0 -3 -4 -7t-4 -5q-4 2 -8 2q0 -3 -3 -9.5t-1 -9.5h-4q-4 0 -4 -8h-2q-4 -4 -0.5 -5.5t2.5 -4.5q1 -2 -1 -6l-1 -4h-6q0 -4 -1.5 -9.5t-0.5 -7.5q0 4 2 4q6 0 6 -4v-4l5 -2q4 -2 9 -2q2 0 0 -2t0 -2v-2q-1 -3 -4 -4t-5 -1.5t-1 -2.5q-3 -10 -10 -17l-4 2l-7 -6 q0 -12 -12 -20q-2 3 -7 2l-5 -2q-11 5 -16 -7.5t-9 -13.5l4 -30q2 -5 5.5 -9.5t3.5 -7.5q5 0 3 7.5t-1 9.5h6q0 1 -1 2q-3 4 1 4q2 0 2 -2t2 -2q4 0 0 -2q3 -3 1.5 -8t2.5 -5q0 -12 -14 -12q0 -7 7.5 -12t8.5 -8q3 -3 17.5 -5.5t17.5 -11.5q0 -2 -5 -2t-5 -2l-4 -4t-3 -6 q6 -2 7.5 -5t0.5 -4.5t-4 -5t-4 -4.5q27 -11 31 -16q-2 -1 -4 -1h-3t-1 -1q2 -2 9.5 -4t10.5 -4q4 -11 19 -21t20 -16q0 -2 4 -7t5 -7t-3 -4q-7 0 -20 2.5t-16 -0.5q-6 3 -1 10q1 1 1 2q4 0 9.5 -4t8.5 -4v8q-10 20 -31 20v-8q-3 -8 -10 -3t-10 3q0 -2 -3.5 -9t-3 -9.5 t4.5 -7.5q6 0 10 2q3 3 5.5 1.5t2.5 -3.5q-6 -5 -9.5 -17t-8.5 -16q-3 -4 1.5 -12.5t0.5 -12.5q12 -4 12 -28q-6 -3 -12 -3v-22q4 -3 4 -8.5t-2 -14t-2 -12.5q0 -3 -4.5 -5t-7.5 1v-25q-1 -1 -4.5 0t-6.5 -1t-2 -7q-5 -10 -14 -10q-2 2 -2 5t-2 5q-6 9 -12 -4 q1 -8 1.5 -27.5t1.5 -35t5 -27.5l-6 -4q-3 2 -7 8t-8 10q-6 0 -10 10.5t-10 10.5v-8q0 -2 -2 -2q0 1 -3 2.5t-3 3.5h-7q-3 -1 -2 -3zM227 989v4h4v-4h-4zM236 1006v4l2 -4h-2zM238 997q-3 1 0 4v-4zM238 1006v4q2 -2 2 -6q-2 0 -2 2zM252 614q8 0 8 2h-6zM252 954v2l2 -2h-2 zM260 240q-4 4 0 7q3 2 4 3q8 -16 8 -17q-4 0 -8 4q-3 2 -4 3zM270.5 1107q-2.5 -2 1.5 -5l4 4q-3 3 -5.5 1zM289 1077v4v4l2 -4zM291 227q0 3 1 4t3 0t4 -4v-2q-8 0 -8 2zM293 1059q2 0 2 2v-4q-2 0 -2 2zM299 1114v4q4 -4 0 -4zM303 1067h4h-4zM324 1094v4h2v-4h-2z M326 1161v8q6 -4 6 -8h-6zM328.5 1196.5q0.5 -6.5 3.5 -10.5q7 0 8.5 3.5t0 8t1.5 8.5q-8 3 -11 0t-2.5 -9.5zM348 1206h4v2q-4 0 -4 -2zM365 1118q6 0 6 -4v-12q-9 9 -6 16zM371 1098h6v-4zM436 201q0 -8 4 -8v10q-2 -2 -4 -2zM479 942q4 8 8 0q-4 0 -4 -4zM498 115 q2 0 2 2zM508 213q4 4 8 4q0 -5 -3 -6q-1 0 -1 -2zM512 240q2 5 5 7t5 0t2 -7l1 -2q1 -3 1 -5.5t-2 -5.5q-4 3 -7 7.5t-5 5.5zM541 201l2 4h4q0 -4 -4 -8q-2 0 -2 4zM541 237q-1 1 2 3q12 0 12 -7q0 -9 -8 -6q0 2 -2.5 5.5t-3.5 4.5zM543 137v2h4q0 -2 -4 -2zM547 322v4 q2 -3 5 -4.5t5.5 -1.5t4 -1.5t1.5 -5.5l-4 -4q-1 1 -2.5 4.5t-3.5 6t-6 2.5zM553 276q2 6 7 -1l1.5 -1.5l1.5 -1.5q-4 -4 -8 -4zM556 248q0 2 3 4q1 0 4 -1t5.5 -2t4.5 -3.5t2 -5.5v-2q-13 3 -16 8q-3 0 -3 2zM559 -37q0 -2 8 -6q4 -4 4 2q0 10 -8 10q-4 0 -4 -6zM559 180 q-4 4 0 4q0 4 4 0zM584 262q-4 2 0 6q4 0 4 -6h-4zM584 778q2 -2 2 -5v-4.5t2 -0.5l4 12q4 5 4 11q0 3 -5 3.5t-7 2.5q-7 -6 4 -17zM584 813h4l4 4q0 4 -8 4v-8zM616 645l9 4q4 -4 0 -8q-7 -4 -7 0zM616 680q-7 10 0 10v-4v-6zM618 670v4l7 -4h-7zM635 649l6 4l2 -4 q-1 0 -1.5 -1t-2 -1t-4.5 2zM639.5 661.5q-3.5 3.5 1.5 4.5q2 1 6 -4l-4 -5q0 1 -3.5 4.5zM641 238q0 2 1.5 4t4.5 -2q0 -7 -4 -7zM651 666l4 4v-4q0 -3 -2 -2zM672 690l8 6q2 -3 4 -10t4 -8q-8 -8 -12 -4t-4 16zM717 784q3 -6 14 -6v6q-2 5 -7 5.5t-7 -5.5zM756 633 q2 6 8 16.5t8 16.5v7v7.5t0.5 7t2.5 7t5 5.5t8 5q11 7 23 -9q0 -4 -4 -4l-3 2q-2 1 -3 -2q-4 -6 -8.5 -19.5t-8.5 -19.5q-1 -1 -5 -4.5t-5.5 -5t-4 -5t-2 -5.5t0.5 -6q1 -4 4.5 -5.5t6.5 -1.5t8.5 0.5t7.5 0.5q10 6 28 12q3 1 13 2.5t16 3.5t13.5 6.5t11.5 11.5q12 8 12 21 q-3 6 -7.5 24t-9.5 23q-10 8 -29 21.5t-26 19.5l2 2q26 -23 64 -23q22 -18 24 -28q5 -36 -24 -88q0 -2 6 -2q4 0 8.5 3.5t10 9.5t10.5 9q14 38 18 53l4 3q6 -1 1 -12t-5 -15q0 -1 -3.5 -10.5t-8.5 -14.5q-36 -56 -72 -51v2q1 4 6.5 9.5t7 8t-1.5 7.5q-4 2 -8.5 2t-10.5 -1 t-9 -1q-2 -1 -7 -1.5t-9.5 -2t-8.5 -4.5q-7 -7 -31 -19h-4q-1 4 -11.5 13t-8.5 18zM820.5 721q0.5 2 2.5 4q8 -5 8 -10l-2 -6q-1 1 -3.5 3t-3 3t-1.5 2.5t-0.5 3.5zM829 250q3 2 7 0l-5 -4zM848 866q2 -2 5 -2t6.5 1t4.5 1l6 2h-2q-9 0 -16 11q0 -3 -2 -6.5t-2 -6.5z M859.5 772q-0.5 2 0 6.5t0.5 5.5q1 2 1.5 5.5t1.5 5.5t5 2q4 -4 4 -19q6 -6 -4 -16q-4 1 -6 4.5t-2.5 5.5zM864 838q21 11 31 4q6 -1 12 -5.5t9.5 -7.5t10.5 -10.5t9 -9.5q1 -4 6.5 -17t5.5 -18.5t-4 -19.5q-2 6 -4 19.5t-4 19.5q-7 27 -31 41h-37zM864 881q7 0 13 -9 q8 3 17 -2.5t17 -3.5q-4 2 -15.5 9.5t-18.5 9.5q-1 0 -4 1q-9 2 -9 -5zM899 428v4h6q0 -4 -6 -4zM920 733q0 2 2 4t2 4q4 0 8 -4l-4 -4q-1 -3 -4 -1.5t-4 1.5zM928 252q0 4 4 4t4 -4q-4 -2 -8 0zM936 729l4 8q11 -5 0 -16zM940 268q7 10 21 -4q-4 0 -9.5 -1t-7.5 -1z M948 250v2q4 0 4 -2h-4zM956 227q0 6 9 6l-4 -6h-5zM969 201q2 3 7 5t7 -1q-4 -9 -14 -4zM981 240h2q4 0 4 6q-10 0 -6 -6zM993 240q7 -7 13 -7q2 0 2 7h-15zM1006 168v6q2 0 2 -6h-2zM1008 250l2 4q2 4 2 8q0 2 4 2v4h-4q-8 -7 -4 -18zM1012 217q1 0 5 -2t7.5 -2t7.5 4 q-2 2 -2 5t-2 3zM1016 188q2 -2 2 -4q-2 2 -2 4zM1018 184q2 0 4 2q2 1 2 -2q0 -2 -2 -2.5t-2 -1.5q0 4 -2 4z" />
<glyph unicode="&#xad;" d="M63 635q0 17 7 24t15 6.5t20.5 -3.5t17.5 -3q24 -13 44.5 -6.5t53.5 5t58 -22.5v24h389q18 -11 22.5 -27.5t1.5 -42.5l-4 -26q-72 -8 -276.5 -14.5t-327.5 -34.5q-21 26 -21 121z" />
<glyph unicode="&#xae;" horiz-adv-x="1449" d="M51 727q0 3 5 13.5t5 13.5v151q0 5 15 23l12 20q25 48 45 74q8 4 17 16q0 2 1 8.5t1.5 8.5l2 8t5 11.5t8.5 12.5l39 50q12 2 24 8q17 18 50 50t41 40q4 3 34.5 25t46.5 30q4 1 24 4t24 4q32 14 59 25q45 18 117 18q17 0 30 3.5t25 3.5q20 2 41.5 7t34.5 5q14 2 24 2 q0 -2 17 -19h121q11 0 26 -6l41 -20q16 -8 41 -23q5 -12 102 -37q3 -3 10.5 -9t10.5 -9q17 -10 29 -22q17 -20 34 -46q2 -1 5.5 -3.5t5.5 -4t4 -2.5q19 -19 33 -31l20 -22q13 -8 23 -22.5t17.5 -29t10.5 -18.5q13 -20 21.5 -39.5t18 -47t13.5 -36.5q0 -9 -5 -13.5t-5 -12.5 l8 -12q11 -15 11 -17l-27 -102q-1 -7 5.5 -23t6.5 -24q0 -7 -4 -23l-10 -47q-2 -34 -25 -92q-8 -24 -8 -53q0 -15 -2 -19l-20 -16q-10 -10 -14.5 -17.5t-5 -12.5t-1 -10.5t-0.5 -10.5q-8 -43 -69 -88q-2 -6 -7 -11q-5 -12 -22 -26q-20 -10 -25 -17l-75 -59l-56 -14 q-62 -24 -65 -25q-63 -18 -80 -18q-19 0 -43 8q-5 -3 -8 -8q-11 -11 -19 -11h-51q-46 0 -123 19q-39 -3 -53 0q-6 0 -24.5 8.5t-22.5 9.5l-49 10q-26 6 -64 19q-4 2 -12.5 5t-11 4t-9 3.5t-8 3.5t-6 3t-7 3.5t-6 4t-6.5 5t-7 6t-9 7.5q-4 4 -8 10q-26 16 -39 19 q-35 19 -61 45q-20 14 -37 45l-10 24l-13 6q-1 1 -8 9t-12 12q-5 6 -12.5 14t-12.5 14t-8 9q-4 4 -8.5 8t-7.5 6.5t-4 3.5q0 25 -5.5 36.5t-13 18t-10.5 15.5v16v82q-13 26 -14 29q-17 39 -17 53zM190 659q0 -6 5.5 -13.5t11.5 -8.5q0 -7 -4 -11t-4 -8q2 -5 5 -11.5t4.5 -10 t2.5 -6.5q8 -35 31 -72l20 -37l21 -22q15 -15 18 -15q8 -14 25 -24q6 -6 12 -8q18 -38 51 -56q4 -6 14 -16q45 -9 68 -18l47 -27q50 -23 55 -23h99q0 -1 3.5 -5.5t4.5 -8.5h33q13 8 41 8q13 1 27 4.5t26 3.5q27 0 72 7l69 28l37 6q93 57 137 115l21 8l33 37q9 31 14 43 q2 2 8 10t8 11q18 27 33 51q3 3 12 16.5t9 18.5v118q1 4 4.5 12.5t3.5 12.5q0 10 -13 39q-5 16 -12 27v77q0 3 -11 15.5t-11 40.5q-5 3 -8.5 6t-6 6t-11 12t-17.5 19l-27 22l-8 19q-13 23 -34 41.5t-36 23.5q-38 22 -41 23l-8 6t-4 4q-7 11 -16 16q-78 29 -134 39 q-4 1 -18 8q-9 9 -18 9q-34 -3 -43 0q-63 14 -101 14h-39q-4 0 -10.5 -7t-9.5 -7q-4 0 -17 2t-18 2q-22 0 -76 -19q-25 -7 -41 -14l-43 -12l-61 -50l-23 -10q-5 -5 -20 -30q-28 -19 -43 -40.5t-15 -35.5v-17l-30 -30q-2 -2 -2 -19q0 -13 -4 -41q-3 -6 -9 -19t-8 -16l-6 -38 l-8 -35q-1 -4 -2 -8.5t-1.5 -7t-0.5 -3.5q0 -11 8 -24q4 -8 2 -13zM338 442l18 15h19l12 -6l8 6l29 24l4 21l6 39l-6 10l16 8l-10 10l2 25l15 29l-9 94l-4 26l6 11v63l-6 10l21 31l-8 12l2 31l-9 17l15 20l-6 92l-25 27h-12l-25 -4l-10 -13l-12 -2l-21 11l-6 14l2 22l6 15 l19 10h32l29 -10l8 4h33l117 -4l12 -4l21 6h73l58 4l28 -10l23 -11l47 -4l10 -8l14 -2l50 -35l8 -20l6 -17v-18l6 -27l-2 -16l-8 -23v-22l-21 -29l-2 -20l-22 -27l-33 -8l-25 -18h-28l-31 -27l6 -6l25 -23l6 -14l12 -8l2 -13l17 2l18 -18l-4 -20l10 -23l27 -33l22 -28 l19 -23l10 -16l27 -31l24 -18l19 -13l43 -6l8 2l24 -10l11 -8v-33l-21 -18l-14 2l-70 6l-61 16l-10 6h-37l-15 4l-10 -4l-6 6v13l-31 18l-18 37h-14l-29 45v18l-19 41l-20 25v14l-25 29l2 20l-32 29l-43 14h-15l-18 17h-21l-16 -19l2 -69l-2 -33l-6 -6l4 -47l2 -29l-4 -10 l2 -68l16 -18l15 -10l41 -7l8 9l12 -2l14 -13l9 -24l-4 -13l-19 -4h-24l-27 7l-74 6l-20 2l-8 -2l-29 4l-53 -2l-21 -15l-20 9l-15 8l-12 14zM559 799l8 -6l33 6l29 -6l18 6l45 -8l17 8l32 4l15 14h12l43 37v27l-4 10l4 47l-8 25l-10 18l-13 10v6l-10 11h-8l-27 24l-30 19 l-25 4l-4 6l-31 -2l-47 -2l-8 -13l-8 -16l-15 -24l8 -15v-20l-6 -47l-8 -13v-20l4 -8l-6 -11v-10l12 -12l-10 -14z" />
<glyph unicode="&#xaf;" d="M63 1233q0 17 7 24t15 6.5t20.5 -3.5t17.5 -3q24 -13 44.5 -6.5t53.5 5t58 -22.5v24h389q18 -11 22.5 -27.5t1.5 -42.5l-4 -26q-72 -8 -276.5 -14.5t-327.5 -34.5q-21 26 -21 121z" />
<glyph unicode="&#xb0;" horiz-adv-x="538" d="M45 1126q0 22 19.5 56.5t19.5 58.5q12 61 53 101t92 61q38 0 58.5 -1.5t52 -12.5t57.5 -33l56 -70q63 -184 -19 -346q-6 -8 -17 -17.5t-20 -16t-28.5 -19t-26.5 -17.5q-58 -26 -80 -28q-34 -1 -69 28h-19q-26 14 -46.5 37t-32.5 45t-23 58.5t-15 56t-12 59.5zM132.5 1192 q0.5 -15 2.5 -44t2 -48q0 -50 23 -97.5t53 -62.5q95 -40 147 21q39 50 47 129.5t-10 126.5q-15 10 -26 28t-21 29.5t-26 11.5q-27 11 -42.5 16t-39.5 7t-45 -10t-41 -37q-13 -16 -18.5 -35.5t-5 -34.5z" />
<glyph unicode="&#xb1;" horiz-adv-x="839" d="M20 553v115h345v336h114v-336h340v-115h-340v-348h99q36 0 57 -21q20 -20 20 -53q0 -30 -18 -51q-21 -21 -59 -21h-320q-34 0 -57 23t-23 49q0 32 21 53q18 21 59 21h107v348h-345z" />
<glyph unicode="&#xb2;" horiz-adv-x="522" d="M69.5 833q5.5 41 23 71.5t50.5 64.5q12 18 38 35t54.5 29t61 27.5t57 30.5t42.5 38.5t17.5 51.5t-18.5 70q0 24 -19.5 44t-43.5 20q-41 0 -63.5 -1t-51.5 -9t-43 -23q-20 0 -27.5 -23.5t-7 -47t-13 -35t-44.5 13.5q-12 32 0 62.5t43.5 54.5t56 38.5t58.5 30.5 q77 0 136.5 -29.5t82.5 -95.5q22 -23 22 -63.5t-22 -63.5q-25 -33 -68.5 -61.5t-85.5 -49.5t-83 -46t-70.5 -65t-38.5 -93h30q81 0 122 -1t102.5 -7.5t119.5 -20.5l-28 -32h-377q-18 44 -12.5 85z" />
<glyph unicode="&#xb3;" horiz-adv-x="475" d="M37 809q69 24 97.5 35t76.5 37t76 55q43 0 68.5 37t25.5 86q0 28 -15.5 43.5t-42 28t-36.5 22.5q-13 -7 -36 -21t-37 -21.5t-31.5 -13t-30 0.5t-21.5 24q0 26 31.5 60t71 76.5t53.5 80.5q-19 0 -66 -6.5t-86 -6.5t-67 13q0 15 7.5 23t25.5 19t30 22q30 -15 132 -15 t149 -16q0 -26 -24 -51t-56.5 -52.5t-44.5 -51.5q-4 0 -9.5 -1t-14.5 -9t-9 -23q53 0 109.5 -24.5t78.5 -67.5q0 -169 -155 -220q-43 -44 -105 -68t-114 -24z" />
<glyph unicode="&#xb4;" horiz-adv-x="450" d="M35 1202.5q-2 8.5 3 11t12 5t9 4.5q15 -1 25.5 8t16.5 19.5t22.5 16.5t42.5 -1l-21 22l191 156l8 8q14 -1 29 -10.5t23 -17.5t22 -25l14 -17q-35 -43 -90.5 -92.5t-102.5 -97t-77 -102.5q-8 2 -16.5 7.5t-16 10.5t-19 16t-18 16.5t-21 20t-20.5 19.5q-14 14 -16 22.5z " />
<glyph unicode="&#xb5;" horiz-adv-x="1286" d="M35 932q32 47 76.5 65.5t83.5 14.5t85.5 -3.5t75.5 15.5l45 -92v-733q0 -26 10.5 -45t24.5 -28t36 -14t35 -5.5t32 -0.5q48 0 90.5 11.5t75 28t65 48t53 56.5t48 71t41.5 73t40 79v367q-32 32 -62.5 45.5t-50.5 12t-55.5 -7t-60.5 -5.5v92q38 20 99 22t121.5 3.5 t98.5 21.5q24 -46 24 -161t24 -161q-22 -63 -33 -153.5t-13 -151t-2 -153.5q0 -15 -10 -43.5t-10 -51.5t20 -43q29 -14 55 -8.5t52.5 13t48.5 12.5t41.5 -9t32.5 -53q0 -35 -28 -63.5t-62 -28.5q-8 0 -49 -5.5t-74 -7t-77.5 12t-76.5 45.5v138q-111 -111 -242 -163.5 t-262 -19.5q-2 1 -5 3t-5 3l-12 -415v-29q-15 -24 -36 -30t-51 -0.5t-32 5.5q-7 104 -2 223t15 214t10 214t-19 224q4 4 12 8l-12 359q0 16 10 44t10 50.5t-20 42.5q-29 15 -55 10t-52.5 -12.5t-48 -12.5t-41 9.5t-32.5 52.5z" />
<glyph unicode="&#xb6;" horiz-adv-x="1067" d="M31 1006q0 25 15.5 55t30.5 50t20.5 47t-15.5 46q-6 6 -6.5 13t4.5 13.5t12.5 13t18.5 13t20.5 12t20.5 12t18 11.5q69 45 180 64q44 6 142 10l268 8l250 -8v-113h-107l21 -557l-21 -927h-143q-13 148 -13 316.5t6.5 375t6.5 319.5q-4 67 -4 145.5t2 176.5t2 151h-187 q16 -49 5.5 -166t-5.5 -163q61 -542 0 -1155h-143q-14 244 -12 413q0 9 5 29t5 29q2 137 2 413q-31 0 -86 21t-61 22q-15 4 -46 9.5t-51.5 12.5t-38.5 21q-116 94 -116 267z" />
<glyph unicode="&#xb7;" horiz-adv-x="385" d="M45.5 549.5q2.5 14.5 17.5 28.5q0 29 15.5 48.5t34 27.5t54.5 21.5t58 24.5q14 -14 39 -29.5t45.5 -36t38.5 -56.5q0 -37 -13.5 -69.5t-27.5 -49t-41 -43.5q-19 0 -43 -3.5t-37.5 -5.5t-29 0t-28 14t-24.5 36q-20 21 -30 32t-20.5 28.5t-8 32z" />
<glyph unicode="&#xb8;" horiz-adv-x="520" d="M41 -274q0 18 18 30q18 11 29 11q50 -24 66 -31q70 -31 92 -31q49 0 73 12q39 20 39 70q0 28 -18 55q-23 23 -47 23q-16 0 -43 -10q-61 -25 -68 -25q-19 0 -35 23q-16 13 -16 24v10l12 168l101 -4l-8 -104l53 6q85 0 133 -31q61 -43 61 -127q0 -78 -69 -129 q-71 -51 -156 -51q-77 0 -145 35q-72 35 -72 76z" />
<glyph unicode="&#xb9;" horiz-adv-x="448" d="M22 1208.5q-1 4.5 7.5 10t17.5 9t22 11t21 16.5q21 0 36 9.5t21.5 20.5t15 20.5t17.5 9.5q12 6 47 28q96 62 125 59q36 -4 8 -87q-14 -88 1.5 -241t-1.5 -243q-13 -14 -27.5 -21.5t-22.5 -7.5l-9 -1q0 21 -1 32t-7.5 28.5t-20.5 31.5q0 25 25 29q-12 1 -17.5 11.5 t-6.5 20t-1 27.5q0 43 6.5 107t6.5 110t-13 86q-41 0 -70.5 -22t-61.5 -66t-50 -61q-23 0 -41 18t-18 41q-8 10 -9 14.5z" />
<glyph unicode="&#xba;" horiz-adv-x="538" d="M45 1126q0 22 19.5 56.5t19.5 58.5q12 61 53 101t92 61q38 0 58.5 -1.5t52 -12.5t57.5 -33l56 -70q63 -184 -19 -346q-6 -8 -17 -17.5t-20 -16t-28.5 -19t-26.5 -17.5q-58 -26 -80 -28q-34 -1 -69 28h-19q-26 14 -46.5 37t-32.5 45t-23 58.5t-15 56t-12 59.5zM132.5 1192 q0.5 -15 2.5 -44t2 -48q0 -50 23 -97.5t53 -62.5q95 -40 147 21q39 50 47 129.5t-10 126.5q-15 10 -26 28t-21 29.5t-26 11.5q-27 11 -42.5 16t-39.5 7t-45 -10t-41 -37q-13 -16 -18.5 -35.5t-5 -34.5z" />
<glyph unicode="&#xbb;" horiz-adv-x="780" d="M66 260l18 51l29 41q52 70 67 70q-21 27 13 18v6l8 7l4 4q15 53 37 59q3 31 10 35l18 -2h19l4 16l-41 8q-9 35 -21 35q-45 14 -69 92q-9 8 -51 64l-27 63q21 43 68 43q74 -52 79 -69l17 -43q25 -22 41 -51l14 -13q0 -5 21 -26q15 -27 36 -27q18 -26 76 -51q0 -30 21 -45 v-4q-10 -13 -54 -29q-6 -31 -18.5 -44t-32.5 -9q-15 -9 -39 -58q-40 -55 -77 -84q-9 -41 -37 -41l-52 -45q-46 -6 -81 29zM360 260l21 51l27 41q52 70 67 70q-21 27 14 18v6l11 11q18 53 37 59q3 31 10 35l18 -2h21l4 16l-43 8q-9 35 -19 35q-45 14 -69 92q-12 8 -53 64 l-25 63q18 43 65 43q77 -52 82 -69l15 -43q25 -22 41 -51l14 -13q0 -3 23 -26q15 -27 36 -27q14 -25 76 -51q0 -29 19 -45v-4q-11 -14 -52 -29q-8 -31 -20.5 -44t-32.5 -9q-15 -9 -39 -58q-39 -53 -78 -84q-6 -41 -36 -41l-52 -45q-47 -6 -82 29z" />
<glyph unicode="&#xbc;" horiz-adv-x="921" d="M6 711q0 25 23.5 43t66.5 18q41 -21 90.5 -26.5t90.5 -0.5t90.5 5t89.5 -9q25 -13 69 -7t76 14t68 -7q30 15 75 15t76 16q12 -12 36 -15t39 -11t15 -35q0 -24 -3.5 -31.5t-26.5 -28.5l-303 29h-482q-23 -20 -56.5 -7t-33.5 38zM127 289v28q29 -28 0 -28zM156 350 q10 20 27 26t31 4t24 4t10 26q-17 16 -17.5 29t10 21t21.5 18.5t17 21.5t-3 30q20 19 29.5 26.5t30.5 20.5t36 8t25 -26q-8 -24 -49 -106.5t-41 -135.5q28 -14 63 -20.5t55.5 -7t63.5 -0.5q11 11 14 43t11.5 62.5t34.5 43.5l29 -28q14 -25 8 -51t-14 -38.5t6 -31.5 q25 12 50 13t41.5 2t28.5 13q12 -11 37 -14t40.5 -11t15.5 -34q-11 -31 -38 -38.5t-57.5 1t-63 12.5t-54.5 -4q0 -25 4 -62.5t5 -58t-8 -46t-30 -46.5q-14 0 -29 8t-23 16l-8 7v182h-272q-26 0 -39 18.5t8 41.5q3 3 7.5 8.5t5.5 21.5t-13 31h-30zM239 1208.5q-1 4.5 7.5 10 t17.5 9t22 11t21 16.5q21 0 36 9.5t21.5 20.5t15 20.5t17.5 9.5q12 6 47 28q96 61 125 59q37 -3 9 -87q-14 -88 1.5 -241t-1.5 -243q-13 -14 -28 -21.5t-24 -7.5l-8 -1q0 21 -1 32t-7.5 28.5t-20.5 31.5q0 25 25 29q-12 1 -17.5 11.5t-6.5 20t-1 27.5q0 43 6.5 107t6.5 110 t-13 86q-41 0 -70.5 -22t-61.5 -66t-50 -61q-23 0 -41 18t-18 41q-8 10 -9 14.5z" />
<glyph unicode="&#xbd;" horiz-adv-x="935" d="M28.5 727.5q-1.5 6.5 2 10t12.5 3.5q93 0 274.5 -7.5t330.5 -7.5t276 15v-67q-15 -13 -23.5 -13t-18 6.5t-20.5 6.5h-819q0 9 -3 20t-6.5 19t-5 14.5zM282.5 69q5.5 41 23 71.5t50.5 64.5q12 18 38 35t54.5 29t61 27.5t57 30.5t42.5 38.5t17.5 51.5t-18.5 70 q0 24 -19.5 44t-43.5 20q-41 0 -63.5 -1t-51.5 -9t-43 -23q-20 0 -27.5 -23.5t-7 -47t-13 -35t-44.5 13.5q-12 32 0 62.5t43.5 54.5t56 38.5t58.5 30.5q77 0 136.5 -29.5t82.5 -95.5q22 -23 22 -63.5t-22 -63.5q-25 -33 -68.5 -61.5t-85.5 -49.5t-83 -46t-70.5 -65 t-38.5 -93h30q81 0 122 -1t102.5 -7.5t119.5 -20.5l-28 -32h-377q-18 44 -12.5 85zM295 1180q0 14 7.5 29.5t15.5 24.5l8 9q16 0 46.5 32t45.5 32q16 14 63 45.5t64 48.5q12 11 23.5 13t25 -6t21.5 -15t24 -23q-31 -190 -31 -534q-24 -25 -31 -29t-32 -4q-14 42 -14 89 t7 104.5t7 88.5v222q-32 -11 -60.5 -30.5t-45 -36.5t-42.5 -46.5t-41 -44.5q-15 0 -23 0.5t-18.5 3t-15 9.5t-4.5 18z" />
<glyph unicode="&#xbe;" horiz-adv-x="925" d="M39 674q-46 48 0 94q125 -31 313 -31l531 31q14 -14 21.5 -29t7.5 -23l1 -9q-21 -21 -51.5 -27t-58 -1t-58 5t-51.5 -10h-655zM195 207v61q7 13 27.5 46.5t32.5 56t23 63t11 84.5q0 26 20 60t43 34q27 -28 27 -59t-13.5 -69t-13.5 -58q-8 -15 -23 -41t-21.5 -39 t-12.5 -34.5t-6 -43.5h219v64q0 8 -4 22.5t-4.5 24t8.5 22.5t31 25q14 0 21.5 -8t7.5 -16l1 -9q0 -9 -7 -37t-7 -51t14 -37h189q0 -35 -10.5 -51t-27 -15.5t-37.5 4t-41.5 7.5t-39.5 -6h-33q-13 -26 -6.5 -64.5t14.5 -71t-8 -83.5q-22 0 -32.5 1t-28.5 8t-33 21q17 16 17 87 t16 102h-313zM258 829q69 24 97.5 35t76.5 37t76 55q43 0 68.5 37t25.5 86q0 28 -15.5 44t-42 28.5t-36.5 22.5q-13 -7 -36 -21t-37 -21.5t-31.5 -13t-30 0.5t-21.5 24q0 26 31.5 60t71 76.5t53.5 80.5q-19 0 -66 -6.5t-86 -6.5t-67 13q0 15 7.5 23t25.5 18.5t30 21.5 q30 -15 128 -15t153 -15q0 -26 -24 -51.5t-56.5 -53t-44.5 -51.5q-4 0 -9.5 -1t-14.5 -9t-9 -23q53 0 110 -25t79 -67q0 -168 -156 -219q-43 -44 -105 -68t-114 -24z" />
<glyph unicode="&#xbf;" horiz-adv-x="817" d="M50 338.5q-3 35.5 4.5 72.5t19 70t26.5 64q8 27 35 51.5t58 40.5t64 38t54 44t28.5 58t-13.5 81q20 21 30 30t26 19.5t30 8t28 -16.5q12 -22 12.5 -48.5t-9.5 -58t-20 -55t-28 -59t-24 -49.5q-18 -10 -80 -30.5t-98 -48t-52 -79.5q-9 -29 -10.5 -55t8 -51.5t18 -43 t30.5 -42.5t33.5 -37t39.5 -39q37 -18 78.5 -26.5t77.5 -8.5h78q35 18 66 41t45 37t40 41q14 25 3.5 38.5t-28.5 16.5t-35.5 17t-17.5 40q12 13 26.5 46.5t33.5 53t53 19.5q12 -12 34 -16.5t39.5 -6t30.5 -14t13 -39.5q1 -52 -17 -98.5t-51 -99t-43 -74.5 q-62 -26 -127 -42.5t-139.5 -20.5t-138.5 9t-121.5 53.5t-91.5 106.5q-15 27 -18 62.5zM244 1128q0 29 1 42.5t9.5 45t26.5 66.5q17 18 51 28t60.5 12t78.5 3q11 -21 29 -51t27 -46t17 -41.5t9 -53.5q-39 -40 -103.5 -62.5t-125.5 -10t-80 67.5z" />
<glyph unicode="&#xc0;" horiz-adv-x="1163" d="M23 0q0 14 23.5 37.5t47.5 23.5q12 0 36 -4t34 -4q45 0 45 62q19 188 61 376.5t103.5 412.5t89.5 349q45 45 92 45q70 0 117 -88q109 -482 254 -1138q16 -15 60.5 -19.5t79 -12t34.5 -30.5q0 -10 -6 -22q-36 0 -116 -13.5t-118 -13.5q-98 0 -145 70q0 12 21 13.5t45.5 0 t45.5 14t21 50.5q0 20 -6 47q-17 17 -21 51.5t-15.5 67t-47.5 51.5q-40 0 -128 9t-138 9q-85 0 -156 -18q-23 -23 -44.5 -120t-39.5 -134q13 -13 36.5 -18.5t42 -7t32.5 -15.5t14 -43h-336q-18 0 -18 12zM336 410h168q39 -19 84 -19q27 0 84 9.5t86 9.5q0 28 -1.5 43.5 t-11.5 39.5t-30 44q-22 42 -22.5 126t-20.5 125q-41 80 -41 211q-22 22 -43 85.5t-41 84.5q-27 -80 -42 -130t-28.5 -120.5t-13.5 -130.5q-81 -235 -127 -378zM342 1753q2 8 7.5 16.5t10.5 16t16 19t16.5 18t20 21t19.5 20.5q14 14 22.5 16t11 -3t5 -12.5t4.5 -9.5 q-1 -15 8 -25t19.5 -16.5t16.5 -22.5t-1 -42l23 20l155 -190l9 -8q-1 -14 -10.5 -29t-17.5 -23t-25 -22l-17 -14q-43 35 -92.5 90.5t-97.5 102.5t-103 77z" />
<glyph unicode="&#xc1;" horiz-adv-x="1198" d="M23 0q0 14 23.5 37.5t47.5 23.5q12 0 36 -4t34 -4q45 0 45 62q19 188 61 376.5t103.5 412.5t89.5 349q45 45 92 45q70 0 117 -88q109 -482 254 -1138q16 -15 60.5 -19.5t79 -12t34.5 -30.5q0 -10 -6 -22q-36 0 -116 -13.5t-118 -13.5q-98 0 -145 70q0 12 21 13.5t45.5 0 t45.5 14t21 50.5q0 20 -6 47q-17 17 -21 51.5t-15.5 67t-47.5 51.5q-40 0 -128 9t-138 9q-85 0 -156 -18q-23 -23 -44.5 -120t-39.5 -134q13 -13 36.5 -18.5t42 -7t32.5 -15.5t14 -43h-336q-18 0 -18 12zM330 1626.5q-2 8.5 3 11t12 5t9 4.5q15 -1 25.5 8t16.5 19.5 t22.5 16.5t42.5 -1l-21 22l191 156l8 8q14 -1 29 -10.5t23 -17.5t22 -25l14 -17q-35 -43 -90.5 -92.5t-102.5 -97.5t-77 -103q-9 3 -18.5 8.5t-22.5 16.5t-20.5 18t-25.5 24.5t-24 23.5q-14 14 -16 22.5zM336 410h168q39 -19 84 -19q27 0 84 9.5t86 9.5q0 28 -1.5 43.5 t-11.5 39.5t-30 44q-22 42 -22.5 126t-20.5 125q-41 80 -41 211q-22 22 -43 85.5t-41 84.5q-27 -80 -42 -130t-28.5 -120.5t-13.5 -130.5q-81 -235 -127 -378z" />
<glyph unicode="&#xc2;" horiz-adv-x="1206" d="M23 0q0 14 23.5 37.5t47.5 23.5q12 0 36 -4t34 -4q45 0 45 62q19 188 61 376.5t103.5 412.5t89.5 349q45 45 92 45q70 0 117 -88q109 -482 254 -1138q16 -15 60.5 -19.5t79 -12t34.5 -30.5q0 -10 -6 -22q-36 0 -116 -13.5t-118 -13.5q-98 0 -145 70q0 12 21 13.5t45.5 0 t45.5 14t21 50.5q0 20 -6 47q-17 17 -21 51.5t-15.5 67t-47.5 51.5q-40 0 -128 9t-138 9q-85 0 -156 -18q-23 -23 -44.5 -120t-39.5 -134q13 -13 36.5 -18.5t42 -7t32.5 -15.5t14 -43h-336q-18 0 -18 12zM336 410h168q39 -19 84 -19q27 0 84 9.5t86 9.5q0 28 -1.5 43.5 t-11.5 39.5t-30 44q-22 42 -22.5 126t-20.5 125q-41 80 -41 211q-22 22 -43 85.5t-41 84.5q-27 -80 -42 -130t-28.5 -120.5t-13.5 -130.5q-81 -235 -127 -378zM343 1437.5q0 6.5 3 13t2 13.5l-2 21q0 15 9 27.5t28 15.5q32 38 63 59q39 19 46 41q6 17 11 22t29 19 q3 9 8.5 16t8.5 9.5l9 7.5l7 4h4q1 -2 7 -9t8.5 -10t8 -6.5t11.5 -3.5q9 -7 20 -15t15.5 -11.5t8 -9t3.5 -11.5q0 -28 23 -28q3 -9 6 -15t5 -8.5t5 -4.5l4 -3l37 -27q1 -2 4 -9t4.5 -10t5 -9t8 -9.5t11.5 -7.5t16 -6q6 -2 13 -1t13.5 -1.5t6.5 -11.5q3 -49 -22 -60l-23 -6 q-44 27 -57 47q-31 11 -45 26t-23 38q0 7 -7 18t-20 14q-1 7 -13 12t-15 9t-7 6t-9.5 3.5t-8.5 2.5q-4 -4 -15 -13t-16 -17q-1 -2 -2.5 -6t-2.5 -5.5t-4.5 -5.5t-8.5 -7.5t-14 -9t-21 -12.5q-6 -3 -9 -5t-9.5 -5.5t-8 -3t-3.5 1.5q-7 0 -12 -11.5t-15.5 -31t-28.5 -33.5h-20 l-23 -4q-7 10 -7 16.5z" />
<glyph unicode="&#xc3;" horiz-adv-x="1167" d="M23 0q0 14 23.5 37.5t47.5 23.5q12 0 36 -4t34 -4q45 0 45 62q19 188 61 376.5t103.5 412.5t89.5 349q45 45 92 45q70 0 117 -88q109 -482 254 -1138q16 -15 60.5 -19.5t79 -12t34.5 -30.5q0 -10 -6 -22q-36 0 -116 -13.5t-118 -13.5q-98 0 -145 70q0 12 21 13.5t45.5 0 t45.5 14t21 50.5q0 20 -6 47q-17 17 -21 51.5t-15.5 67t-47.5 51.5q-40 0 -128 9t-138 9q-85 0 -156 -18q-23 -23 -44.5 -120t-39.5 -134q13 -13 36.5 -18.5t42 -7t32.5 -15.5t14 -43h-336q-18 0 -18 12zM178 1673q2 8 2 19q0 7 17 34q6 7 28 17q1 4 11 24l45 33q9 2 17 4 t13.5 3.5t11.5 4.5t8.5 4t7 4.5t6 4.5t6 5t5.5 5q40 10 54 10q28 0 77 -28q4 -6 11 -15l6 -10l39 -25l59 -36q13 -10 60 -43q35 -13 67 -13q35 0 64 17q12 8 18 14l20 20l37 31l29 33q27 18 43 12q13 -3 18 -16q9 -15 -6 -45q-3 -7 -11 -15t-17.5 -15.5t-10.5 -8.5l-39 -47 q-23 -3 -26 -6q-3 -21 -6 -27q-12 -6 -27 -16l-45 -17q-45 -39 -86 -39q-13 0 -27 11h-39l-65 18q-32 12 -59 33l-50 37q-1 1 -5 16t-5 16q-11 -2 -20.5 0.5t-14.5 6.5t-12 10.5t-8 7.5q-8 6 -30 13.5t-32 6.5q-9 0 -32.5 -14.5t-30.5 -17.5q-27 -27 -41 -39q-18 -3 -27 0 q-8 5 -8 18zM336 410h168q39 -19 84 -19q27 0 84 9.5t86 9.5q0 28 -1.5 43.5t-11.5 39.5t-30 44q-22 42 -22.5 126t-20.5 125q-41 80 -41 211q-22 22 -43 85.5t-41 84.5q-27 -80 -42 -130t-28.5 -120.5t-13.5 -130.5q-81 -235 -127 -378z" />
<glyph unicode="&#xc4;" horiz-adv-x="1181" d="M23 0q0 14 23.5 37.5t47.5 23.5q12 0 36 -4t34 -4q45 0 45 62q19 188 61 376.5t103.5 412.5t89.5 349q45 45 92 45q70 0 117 -88q109 -482 254 -1138q16 -15 60.5 -19.5t79 -12t34.5 -30.5q0 -10 -6 -22q-36 0 -116 -13.5t-118 -13.5q-98 0 -145 70q0 12 21 13.5t45.5 0 t45.5 14t21 50.5q0 20 -6 47q-17 17 -21 51.5t-15.5 67t-47.5 51.5q-40 0 -128 9t-138 9q-85 0 -156 -18q-23 -23 -44.5 -120t-39.5 -134q13 -13 36.5 -18.5t42 -7t32.5 -15.5t14 -43h-336q-18 0 -18 12zM213.5 1694q-0.5 11 8 25t28.5 26q17 19 23.5 24.5t19.5 14.5t23 6.5 t20 -14.5q20 0 33.5 -12.5t19.5 -27.5t15.5 -43.5t17.5 -45.5q-6 -6 -30 -42.5t-58 -54.5q-26 0 -48.5 10.5t-35 23t-29.5 32.5q0 18 -3.5 42.5t-4 35.5zM336 410h168q39 -19 84 -19q27 0 84 9.5t86 9.5q0 28 -1.5 43.5t-11.5 39.5t-30 44q-22 42 -22.5 126t-20.5 125 q-41 80 -41 211q-22 22 -43 85.5t-41 84.5q-27 -80 -42 -130t-28.5 -120.5t-13.5 -130.5q-81 -235 -127 -378zM653 1710q11 12 20.5 30t17 27t20.5 9q43 22 78.5 1.5t35.5 -69.5q20 -12 24.5 -29t-7 -38t-20 -31.5t-25.5 -30.5q-23 -25 -47.5 -25t-67.5 25q-34 39 -29 131z " />
<glyph unicode="&#xc5;" horiz-adv-x="1224" d="M23 -2q0 27 1 41t10.5 37t28.5 41q41 -39 162 -39l45 248q21 22 36 50t19 59.5t-18 51.5q18 35 40 107.5t44 93.5q0 56 1.5 84.5t11.5 65t30 55.5q10 32 24.5 102.5t25.5 116.5t40.5 92t73.5 60q57 -12 93 -45.5t52.5 -85.5t23.5 -101t14 -115.5t16 -105.5q29 0 36 -13.5 t0.5 -33t-7.5 -40.5t12 -36q0 -42 8.5 -86t17.5 -71.5t29 -82.5t29 -83q-5 0 -11.5 -1t-18 -11t-11.5 -27q34 -12 52 -38.5t23.5 -57t11.5 -60.5t24 -55.5t52 -36.5h123q3 -3 6 -7t9 -13t2.5 -15t-17.5 -6l-41 -39h-409q0 16 0.5 24t2.5 20.5t6 19t12 11.5t20 5 q17 -18 37 -18t45.5 9t40.5 9q0 40 -21.5 122t-21.5 126h-447q0 -27 -12.5 -63.5t-24 -62t-16 -61t11.5 -61.5h123q32 -31 37.5 -41t5.5 -39q-36 -18 -77.5 -18t-92 9t-76.5 9q-27 0 -86.5 -19t-101 -19t-59.5 38zM307 1548q7 13 39.5 85.5t61 119t65.5 82.5q18 16 53 8 t60 -17.5t49 9.5l39 -41q19 0 30 10t12 20l1 11q12 -12 48 -39t66.5 -57t49.5 -66q0 -66 -33 -147.5t-90 -141.5q-63 -31 -143.5 -31t-141.5 31q-61 30 -97 66.5t-69 97.5zM434 406h324q22 23 22 49t-14.5 48.5t-29.5 49t-23.5 48.5t4.5 48q0 13 -9.5 37t-9.5 45t19 41 q-24 44 -45 160.5t-37 167.5q-34 12 -50 -0.5t-17.5 -44t0.5 -66.5t0 -74.5t-13 -62.5q-27 -42 -42 -100t-18.5 -108t-18.5 -117t-42 -121zM473 1548q22 -20 125 -123q18 0 57.5 21.5t61.5 21.5q28 28 39.5 55.5t11 45t-5 50t-4.5 54.5l-41 37q-22 0 -44 8t-36.5 16 t-29 12.5t-27.5 -4t-25 -32.5q-82 0 -82 -162z" />
<glyph unicode="&#xc6;" horiz-adv-x="1417" d="M52 -4.5q0 21.5 9 48t9 40.5q66 63 131 0h41q24 23 29.5 50t-0.5 52t-12.5 50.5t-1 52.5t29.5 51q0 57 1.5 87.5t11 69t28.5 58.5q15 77 50 193.5t57 215t22 193.5q29 14 44.5 44.5t20 61t20 62t44.5 45.5q107 -18 224.5 -20t224 -3.5t196.5 -19.5q29 -15 36 -40 t0.5 -51.5t-7.5 -59.5t12 -64q0 -10 19 -60t19 -92t-38 -61q-15 -15 -25 -16.5t-16 5t-19 24.5t-26 30q-12 29 -11.5 71t8 79.5t-0.5 79.5t-37 71q-105 0 -153 1.5t-110 10.5t-124 29q-18 -18 -18 -39.5t9 -47.5t9 -40v-387q30 -30 64.5 -42.5t58 -11t53.5 7t39 5.5 q13 28 12.5 63t-7.5 64t1 64.5t37 64.5q0 -15 7.5 -19t19 -2.5t28.5 -3t31 -18.5q0 -86 -21.5 -258.5t-21.5 -257.5q0 -32 -5.5 -37.5t-37.5 -5.5q-29 20 -39.5 55.5t-5 69.5t7 69.5t-4 55.5t-37 26.5t-93.5 -16.5q0 41 -41 0q-20 -21 -20 -53.5t10 -70t10 -50.5 q12 -29 11.5 -71t-8 -79.5t0.5 -79.5t37 -71q-12 -48 2 -70t46.5 -24t69 0.5t77 -4t63.5 -29.5q24 12 41 30.5t25 35t12.5 39.5t5 35t0.5 32q0 61 2.5 99t23 99t60.5 101h43q14 -57 12 -129t-12 -129t-12 -128t12 -128h-729v43q15 29 39.5 37t47.5 1t47 -7.5t38 12.5 q-20 42 -20 127.5t-21 128.5h-303q0 -43 -21.5 -128.5t-21.5 -127.5q0 -11 17.5 -9t40 9t44.5 5t30 -21t-3 -70l-43 -43h-387q-18 19 -18 40.5zM457 469q11 0 61 -9.5t92 -9.5t60 19q-62 193 0 387q-19 40 -28.5 88.5t-11 80t-1.5 87.5q-39 -96 -69.5 -206.5t-62.5 -256.5 t-40 -180z" />
<glyph unicode="&#xc7;" horiz-adv-x="1705" d="M332 416q-81 392 82 663q0 43 164 207q40 0 87 12t78.5 23.5t78.5 15.5t87 -12q14 -6 26.5 -12.5t24 -14t20.5 -13t20 -14.5t16.5 -13t16.5 -14t14 -13t14.5 -14t13.5 -13l41 39q-15 14 -10.5 25.5t16 17t23.5 16t12 23.5q21 0 32 -0.5t25.5 -4t20.5 -12t6 -22.5 q-19 -58 -28.5 -140.5t-11 -134.5t-1.5 -139q0 -30 -8 -42t-17.5 -11.5t-28.5 5.5t-30 5q-28 28 -35.5 61.5t-0.5 57.5t7 50t-12 38q-31 62 -88.5 120t-118.5 87q-30 10 -58 12t-54.5 -7t-47 -18.5t-46.5 -32t-41.5 -37t-42.5 -42.5q-13 -40 -42 -86t-55 -79.5t-46.5 -78 t-20.5 -86.5q12 -29 11 -61t-7.5 -57.5t0.5 -49.5t35 -38q0 -20 -19.5 -41t-19.5 -41q10 -21 28 -76t38 -83.5t59 -47.5q0 -38 18.5 -67t58.5 -61.5t46 -39.5q93 -93 288 0q41 41 63 65.5t50 63.5t40.5 78.5t12.5 83.5q15 15 29 38.5t25 34.5t30 11q20 0 30.5 -1t25 -4.5 t20.5 -13t6 -24.5q0 -54 -21 -107t-54.5 -116t-49.5 -109q-185 -185 -495 -123q-27 7 -52 19t-47.5 31t-41.5 38t-38.5 47.5t-33.5 50t-32.5 57t-29 56.5t-28.5 59t-27 56zM649 -309q0 17 19 30q18 11 28 11q50 -24 66 -31q70 -31 92 -31q48 0 74 13q39 20 39 69 q0 26 -19 55q-23 23 -47 23q-16 0 -43 -10q-61 -25 -67 -25q-19 0 -35 23q-17 14 -17 24v11l13 167l100 -4l-8 -104l53 6q85 0 133 -31q62 -44 62 -127q0 -77 -70 -129q-71 -51 -156 -51q-77 0 -145 35q-72 35 -72 76z" />
<glyph unicode="&#xc8;" horiz-adv-x="1216" d="M31 1221q39 19 85.5 28.5t76.5 11t86 1.5h743q32 0 42.5 -5t41.5 -36q0 -37 11.5 -90.5t20.5 -91t3 -79.5t-35 -71q-31 0 -41.5 5t-42.5 36v250h-619l-41 -330q17 -18 18.5 -41.5t3.5 -57.5t19 -69q43 -21 94.5 -26t114 12t121.5 57q0 12 -9 49t-9 67.5t18 47.5 q84 -39 84 -207q-13 -28 -13 -68t7 -75.5t-0.5 -76t-36.5 -69.5q-29 14 -41 39.5t-11 47.5t6 60.5t5 59.5h-41q-26 0 -88 9t-113.5 9t-87.5 -18v-539h580q35 54 46.5 118.5t15 122.5t20.5 91q0 18 10.5 28.5t20.5 11.5l10 1q29 -43 35 -100.5t-3 -104.5t-20.5 -108.5 t-11.5 -97.5q-14 -28 -43.5 -36t-59 -1t-59.5 7t-45 -13h-827q0 22 -15 22q-5 0 -1 4q2 3 16 17q0 27 27 34t65.5 0.5t81 -7.5t73.5 11q18 17 10 43t-19 52.5t9 70.5v953q-28 12 -68 11.5t-75.5 -7.5t-75.5 0.5t-69 36.5zM399 1720q2 8 7.5 16.5t10.5 16t16 19t16.5 18 t20 21t19.5 20.5q14 14 22.5 16t11 -3t5 -12t4.5 -9q-1 -15 8 -25.5t19.5 -16.5t16.5 -22.5t-1 -42.5l23 21l156 -191l8 -8q-1 -14 -10.5 -29t-17.5 -23t-25 -22l-17 -14q-43 35 -92.5 90.5t-97.5 102.5t-103 77z" />
<glyph unicode="&#xc9;" horiz-adv-x="1218" d="M31 1221q39 19 85.5 28.5t76.5 11t86 1.5h743q32 0 42.5 -5t41.5 -36q0 -37 11.5 -90.5t20.5 -91t3 -79.5t-35 -71q-31 0 -41.5 5t-42.5 36v250h-619l-41 -330q17 -18 18.5 -41.5t3.5 -57.5t19 -69q43 -21 94.5 -26t114 12t121.5 57q0 12 -9 49t-9 67.5t18 47.5 q84 -39 84 -207q-13 -28 -13 -68t7 -75.5t-0.5 -76t-36.5 -69.5q-29 14 -41 39.5t-11 47.5t6 60.5t5 59.5h-41q-26 0 -88 9t-113.5 9t-87.5 -18v-539h580q35 54 46.5 118.5t15 122.5t20.5 91q0 18 10.5 28.5t20.5 11.5l10 1q29 -43 35 -100.5t-3 -104.5t-20.5 -108.5 t-11.5 -97.5q-14 -28 -43.5 -36t-59 -1t-59.5 7t-45 -13h-827q0 22 -15 22q-5 0 -1 4q2 3 16 17q0 27 27 34t65.5 0.5t81 -7.5t73.5 11q18 17 10 43t-19 52.5t9 70.5v953q-28 12 -68 11.5t-75.5 -7.5t-75.5 0.5t-69 36.5zM428 1593.5q-2 8.5 3 11t12.5 5t9.5 4.5q15 -1 25 8 t16.5 19.5t22.5 16.5t42 -1l-20 22l190 156l8 8q11 -1 22 -6t21.5 -14.5t17.5 -16.5t16 -18.5t11 -13.5q-35 -43 -90.5 -92.5t-102.5 -97.5t-77 -103q-8 2 -16.5 7.5t-16 10.5t-19 16t-18 16.5t-21 20t-20.5 19.5q-14 14 -16 22.5z" />
<glyph unicode="&#xca;" horiz-adv-x="1239" d="M31 1221q39 19 85.5 28.5t76.5 11t86 1.5h743q32 0 42.5 -5t41.5 -36q0 -37 11.5 -90.5t20.5 -91t3 -79.5t-35 -71q-31 0 -41.5 5t-42.5 36v250h-619l-41 -330q17 -18 18.5 -41.5t3.5 -57.5t19 -69q43 -21 94.5 -26t114 12t121.5 57q0 12 -9 49t-9 67.5t18 47.5 q84 -39 84 -207q-13 -28 -13 -68t7 -75.5t-0.5 -76t-36.5 -69.5q-29 14 -41 39.5t-11 47.5t6 60.5t5 59.5h-41q-26 0 -88 9t-113.5 9t-87.5 -18v-539h580q35 54 46.5 118.5t15 122.5t20.5 91q0 18 10.5 28.5t20.5 11.5l10 1q29 -43 35 -100.5t-3 -104.5t-20.5 -108.5 t-11.5 -97.5q-14 -28 -43.5 -36t-59 -1t-59.5 7t-45 -13h-827q0 22 -15 22q-5 0 -1 4q2 3 16 17q0 27 27 34t65.5 0.5t81 -7.5t73.5 11q18 17 10 43t-19 52.5t9 70.5v953q-28 12 -68 11.5t-75.5 -7.5t-75.5 0.5t-69 36.5zM378 1437.5q0 6.5 3 13t2 13.5l-2 21q0 15 9 27.5 t28 15.5q32 38 63 59q37 18 45 41q6 17 11 22t30 19q3 9 8.5 16t8.5 9.5t10 7.5l6 4h4q1 -2 7 -9t8.5 -10t8 -6.5t11.5 -3.5q9 -7 20 -15t15.5 -11.5t8 -9t3.5 -11.5q0 -28 23 -28q3 -9 6 -15t5 -8.5t6 -4.5l3 -3l37 -27q1 -2 4 -9t4.5 -10t5 -9t8 -9.5t11.5 -7.5t16 -6 q6 -2 13 -1t13.5 -1.5t6.5 -11.5q3 -49 -23 -60l-22 -6q-45 28 -58 47q-31 11 -44.5 25.5t-22.5 38.5q0 7 -7 18t-20 14q-1 7 -13 12t-15 9t-7 6t-9.5 3.5t-8.5 2.5q-4 -4 -15 -13t-16 -17q-1 -2 -2.5 -6t-2.5 -5.5t-4.5 -5.5t-8.5 -7.5t-14 -9t-21 -12.5q-5 -3 -9 -5.5 t-10 -5t-8.5 -3t-3.5 1.5q-6 0 -10.5 -7.5t-7.5 -18t-13 -25t-24 -25.5h-20l-23 -4q-7 10 -7 16.5z" />
<glyph unicode="&#xcb;" horiz-adv-x="1253" d="M31 1221q39 19 85.5 28.5t76.5 11t86 1.5h743q32 0 42.5 -5t41.5 -36q0 -37 11.5 -90.5t20.5 -91t3 -79.5t-35 -71q-31 0 -41.5 5t-42.5 36v250h-619l-41 -330q17 -18 18.5 -41.5t3.5 -57.5t19 -69q43 -21 94.5 -26t114 12t121.5 57q0 12 -9 49t-9 67.5t18 47.5 q84 -39 84 -207q-13 -28 -13 -68t7 -75.5t-0.5 -76t-36.5 -69.5q-29 14 -41 39.5t-11 47.5t6 60.5t5 59.5h-41q-26 0 -88 9t-113.5 9t-87.5 -18v-539h580q35 54 46.5 118.5t15 122.5t20.5 91q0 18 10.5 28.5t20.5 11.5l10 1q29 -43 35 -100.5t-3 -104.5t-20.5 -108.5 t-11.5 -97.5q-14 -28 -43.5 -36t-59 -1t-59.5 7t-45 -13h-827q0 22 -15 22q-5 0 -1 4q2 3 16 17q0 27 27 34t65.5 0.5t81 -7.5t73.5 11q18 17 10 43t-19 52.5t9 70.5v953q-28 12 -68 11.5t-75.5 -7.5t-75.5 0.5t-69 36.5zM293.5 1657q-0.5 11 8 25t28.5 26q17 19 23.5 24.5 t19.5 14.5t23 6.5t20 -14.5q20 0 33.5 -12.5t19.5 -27.5t15.5 -43.5t17.5 -45.5q-6 -6 -30 -42.5t-58 -54.5q-26 0 -48.5 10.5t-35 23t-29.5 32.5q0 18 -3.5 42.5t-4 35.5zM733 1673q11 12 20.5 30t17 27t20.5 9q43 22 78.5 1.5t35.5 -69.5q20 -12 24.5 -29t-7 -38 t-20 -31.5t-25.5 -30.5q-23 -25 -47.5 -25t-67.5 25q-34 39 -29 131z" />
<glyph unicode="&#xcc;" horiz-adv-x="1062" d="M61 1193q2 1 7 1q414 59 829 0q17 0 27 -10t11 -20l1 -9q-26 -27 -58 -34.5t-55.5 -1t-48 6.5t-37.5 -12q-57 31 -96 31t-98 -31q17 -53 17 -121t-8.5 -151t-8.5 -121q17 -18 17 -28.5t-8.5 -24t-8.5 -27.5v-553q35 -17 84 -17t119 8.5t112 8.5h39q17 -17 27 -36.5 t11 -30.5l1 -11l-39 -39h-788l-41 39v8.5t2.5 19t6.5 23.5t12.5 18.5t19.5 8.5q79 0 122 -1.5t109.5 -10.5t122.5 -27q16 32 8.5 88.5t-17 98.5t8.5 90q0 93 -8.5 251t-8.5 286.5t17 250.5h-354q0 21 -37 58q-20 19 -11 21zM246 1716q2 8 7.5 16.5t10.5 16t16 19t16.5 18 t20 21t19.5 20.5q14 14 22.5 16t11 -3t5 -12t4.5 -9q-1 -15 8 -25.5t19.5 -16.5t16.5 -22.5t-1 -42.5l22 21l156 -191l8 -8q-1 -11 -6 -22t-14.5 -21.5t-16.5 -17.5t-18.5 -16t-13.5 -11q-43 35 -92.5 90.5t-97.5 102.5t-103 77z" />
<glyph unicode="&#xcd;" horiz-adv-x="1077" d="M61 1193q2 1 7 1q414 59 829 0q17 0 27 -10t11 -20l1 -9q-26 -27 -58 -34.5t-55.5 -1t-48 6.5t-37.5 -12q-57 31 -96 31t-98 -31q17 -53 17 -121t-8.5 -151t-8.5 -121q17 -18 17 -28.5t-8.5 -24t-8.5 -27.5v-553q35 -17 84 -17t119 8.5t112 8.5h39q17 -17 27 -36.5 t11 -30.5l1 -11l-39 -39h-788l-41 39v8.5t2.5 19t6.5 23.5t12.5 18.5t19.5 8.5q79 0 122 -1.5t109.5 -10.5t122.5 -27q16 32 8.5 88.5t-17 98.5t8.5 90q0 93 -8.5 251t-8.5 286.5t17 250.5h-354q0 21 -37 58q-20 19 -11 21zM381 1552q35 43 90.5 92.5t102.5 97.5t77 103 q8 -2 16.5 -7.5t16 -10.5t19 -16t18 -16.5t21 -20t20.5 -19.5q14 -14 16 -22.5t-3 -11t-12 -5t-9 -4.5q-15 1 -25.5 -8t-16.5 -19.5t-22.5 -16.5t-42.5 1l21 -22l-191 -156l-8 -8q-11 1 -22 6t-21.5 14.5t-17.5 16.5t-16 18.5t-11 13.5z" />
<glyph unicode="&#xce;" horiz-adv-x="1056" d="M61 1193q2 1 7 1q414 59 829 0q17 0 27 -10t11 -20l1 -9q-26 -27 -58 -34.5t-55.5 -1t-48 6.5t-37.5 -12q-57 31 -96 31t-98 -31q17 -53 17 -121t-8.5 -151t-8.5 -121q17 -18 17 -28.5t-8.5 -24t-8.5 -27.5v-553q35 -17 84 -17t119 8.5t112 8.5h39q17 -17 27 -36.5 t11 -30.5l1 -11l-39 -39h-788l-41 39v8.5t2.5 19t6.5 23.5t12.5 18.5t19.5 8.5q79 0 122 -1.5t109.5 -10.5t122.5 -27q16 32 8.5 88.5t-17 98.5t8.5 90q0 93 -8.5 251t-8.5 286.5t17 250.5h-354q0 21 -37 58q-20 19 -11 21zM276 1507.5q0 6.5 3 13t2 13.5l-2 20q0 38 36 43 q33 38 64 60q37 18 45 41q6 17 11 22t30 19q3 9 8.5 16t8.5 9.5t10 7.5l6 4h4q1 -2 7 -9t8.5 -10t8 -6.5t11.5 -3.5q9 -7 20 -15t15.5 -11.5t8 -9t3.5 -11.5q0 -29 22 -29q3 -9 6.5 -15t5.5 -8.5t5 -4.5t4 -3l37 -26q1 -2 4 -9t4.5 -10t5 -9t8 -9.5t11.5 -7.5t16 -6 q3 -1 12 -1t14.5 -2.5t5.5 -11.5q3 -48 -22 -59l-23 -6q-42 24 -57 47q-31 11 -45.5 25.5t-22.5 37.5q0 8 -6.5 19t-19.5 14q-1 7 -13.5 12t-15.5 9t-7 6t-9 3.5t-8 2.5q-5 -5 -12 -10.5t-11 -10t-8 -10.5q0 -1 -2.5 -6.5t-4 -7l-7 -7t-15 -11t-24.5 -13.5q-5 -3 -9 -5.5 t-10 -5t-8.5 -3t-3.5 1.5q-6 0 -10.5 -7.5t-7.5 -18t-13 -25t-24 -25.5h-21l-22 -4q-7 10 -7 16.5z" />
<glyph unicode="&#xcf;" horiz-adv-x="1140" d="M61 1193q2 1 7 1q414 59 829 0q17 0 27 -10t11 -20l1 -9q-26 -27 -58 -34.5t-55.5 -1t-48 6.5t-37.5 -12q-57 31 -96 31t-98 -31q17 -53 17 -121t-8.5 -151t-8.5 -121q17 -18 17 -28.5t-8.5 -24t-8.5 -27.5v-553q35 -17 84 -17t119 8.5t112 8.5h39q17 -17 27 -36.5 t11 -30.5l1 -11l-39 -39h-788l-41 39v8.5t2.5 19t6.5 23.5t12.5 18.5t19.5 8.5q79 0 122 -1.5t109.5 -10.5t122.5 -27q16 32 8.5 88.5t-17 98.5t8.5 90q0 93 -8.5 251t-8.5 286.5t17 250.5h-354q0 21 -37 58q-20 19 -11 21zM170.5 1665q-0.5 11 8 25t28.5 26 q17 19 23.5 24.5t19.5 14.5t23 6.5t20 -14.5q20 0 33.5 -12.5t19.5 -27.5t15.5 -43.5t17.5 -45.5q-5 -5 -29.5 -41.5t-58.5 -54.5q-37 0 -62.5 17t-50.5 48q0 18 -3.5 42.5t-4 35.5zM610 1681q11 12 20.5 30t17 27t20.5 9q43 22 78.5 1.5t35.5 -69.5q20 -12 24.5 -29t-7 -38 t-20 -31.5t-25.5 -30.5q-23 -25 -47.5 -25t-67.5 25q-34 39 -29 131z" />
<glyph unicode="&#xd0;" horiz-adv-x="1259" d="M45 700q0 17 7 24.5t14.5 7t20 -3.5t17.5 -3q24 -13 44.5 -7t53.5 4.5t58 -22.5v25h76v477q-26 14 -62 5t-76 -19.5t-74 -18t-56.5 10.5t-22.5 65q19 19 43 28.5t39 11t43 1.5h209q18 -18 28.5 -18t24.5 9t29 9q82 0 123 -1t106.5 -7t105.5 -18.5t86.5 -37.5t82.5 -61 q44 -14 73 -46t40.5 -61.5t26 -75t25.5 -67.5q32 -111 38.5 -225t-11.5 -223.5t-67 -209.5t-125 -177q-71 -47 -158 -72.5t-178.5 -32t-177 -6.5t-188 -1.5t-177.5 -12.5q-18 18 -18 39t9 33l9 12q0 29 14.5 41t31.5 11t43 -6t36 -5h125q23 86 3 269.5t-11 266.5 q-147 -7 -262 -32q-21 26 -21 120zM420 285q20 -42 20 -115.5t21 -93.5q27 12 77 12t96.5 -7t104.5 0.5t101 35.5q16 32 59 80t75 91t32 79q35 24 48.5 59.5t8.5 73t-12 81.5t-12 83t8 79q-22 68 -64 173t-61 161q-38 20 -101.5 61.5t-107.5 63.5q-35 -17 -94.5 -8.5 t-103.5 18.5t-95 -10v-41q0 -82 6.5 -240.5t7.5 -195.5h215q14 -9 20 -23t5.5 -25t-2.5 -27t-2 -21q-92 -11 -232 -15q3 -198 -18 -329z" />
<glyph unicode="&#xd1;" horiz-adv-x="1208" d="M41 -2l39 84q18 16 52 8t60 -17.5t52 9.5v645q-14 54 -12 121t11.5 117.5t12 110t-11.5 98.5q-29 11 -54 5t-42.5 -17.5t-35 -1.5t-32.5 52q0 42 20 52t51 -1.5t67 -17t67 5.5q0 -13 7 -17t17.5 -2.5t26 -2.5t29.5 -17q0 17 10.5 27t20.5 11l10 1q53 -71 94 -163.5 t79 -197t68 -163.5q10 -20 46.5 -76.5t55.5 -104.5t19 -102q101 -201 121 -241q31 91 31 161t-31 162v525q0 13 9 37.5t9 45.5t-18 40q-9 0 -28 -4t-35.5 -6t-35 -1t-35 13.5t-28.5 35.5q18 0 28.5 10t11.5 20l1 9q50 -16 121.5 -7.5t122 18t121.5 -10.5q0 -17 9.5 -27 t19.5 -11l9 -1q-9 -29 -22.5 -43t-27.5 -14.5t-29.5 1.5t-29.5 4.5t-27.5 -4.5t-22.5 -26q0 -112 -1.5 -179.5t-11 -180t-28.5 -205.5q41 -162 41 -567q-17 -16 -39.5 -17.5t-44.5 -3.5t-39 -18q-40 81 -100.5 263t-100.5 263q0 40 -25.5 85t-55.5 81t-55.5 89.5 t-25.5 107.5q-35 35 -57.5 89t-47 121t-56.5 116h-41q0 -120 9 -345.5t9 -417t-18 -370.5h161q14 0 17 -6.5t-1.5 -15t-10.5 -15.5l-5 -6q-61 -20 -181 -20t-181 -19q-32 0 -42.5 5t-39.5 34zM215 1606q2 8 2 18q0 9 16 35q4 5 29 16q2 10 10 25l45 33q48 9 76 34 q44 11 53 11q28 0 78 -29l10 -15l7 -10l39 -24l59 -37q22 -17 59 -43q32 -12 68 -12q35 0 63 16q15 10 19 14l20 21l37 31l29 32q28 19 43 13q12 -3 18 -17q9 -15 -6 -45q-3 -7 -11 -15t-17.5 -15.5t-10.5 -8.5l-39 -47q-23 -3 -26 -6q-3 -21 -6 -27q-12 -6 -27 -16l-45 -16 q-45 -39 -86 -39q-15 0 -27 10h-39l-65 18q-34 12 -60 33l-49 37q-1 1 -5 16.5t-5 16.5q-11 -2 -20.5 0.5t-14.5 6t-12 10t-8 7.5q-8 7 -30 14.5t-32 6.5q-9 0 -32.5 -15t-30.5 -18q-27 -27 -41 -39q-18 -3 -27 0q-8 5 -8 19z" />
<glyph unicode="&#xd2;" horiz-adv-x="1163" d="M86 465q-29 179 25.5 374.5t175.5 346.5q41 0 100.5 40t99.5 40q60 0 92.5 -1.5t80.5 -8.5t84 -24t65 -46q240 -191 240 -762q-23 -46 -37.5 -73.5t-42 -75.5t-49.5 -79.5t-55 -71t-64.5 -64.5t-71.5 -46t-82 -30q-300 -62 -479 241q0 26 -13 54t-28 50t-28 58.5 t-13 77.5zM168 543q0 -25 5.5 -51.5t21 -60.5t25.5 -55.5t36.5 -63.5t35.5 -56t41 -60.5t36 -52.5q110 -110 319 -41q96 59 161.5 168t92.5 227.5t27 245.5q-21 41 -61 141.5t-60 141.5l-78 80q-39 38 -103.5 54t-130.5 11t-128 -26q-43 -43 -67.5 -70t-61 -73t-54.5 -90.5 t-18 -86.5q-39 -82 -39 -282zM336 1694q3 9 8.5 18.5t16.5 22t17.5 20t24 25.5t23.5 24q14 14 22.5 16t11 -3t5 -12t4.5 -9q-1 -15 8 -25t19.5 -16.5t16.5 -22.5t-1 -42l23 20l155 -190l8 -9q-1 -11 -6 -22t-14.5 -21.5t-16.5 -17.5t-18.5 -16t-13.5 -11q-35 29 -74 70 t-66.5 73.5t-68.5 68t-84 59.5z" />
<glyph unicode="&#xd3;" horiz-adv-x="1148" d="M86 465q-29 179 25.5 374.5t175.5 346.5q41 0 100.5 40t99.5 40q60 0 92.5 -1.5t80.5 -8.5t84 -24t65 -46q240 -191 240 -762q-23 -46 -37.5 -73.5t-42 -75.5t-49.5 -79.5t-55 -71t-64.5 -64.5t-71.5 -46t-82 -30q-300 -62 -479 241q0 26 -13 54t-28 50t-28 58.5 t-13 77.5zM168 543q0 -25 5.5 -51.5t21 -60.5t25.5 -55.5t36.5 -63.5t35.5 -56t41 -60.5t36 -52.5q110 -110 319 -41q96 59 161.5 168t92.5 227.5t27 245.5q-21 41 -61 141.5t-60 141.5l-78 80q-39 38 -103.5 54t-130.5 11t-128 -26q-43 -43 -67.5 -70t-61 -73t-54.5 -90.5 t-18 -86.5q-39 -82 -39 -282zM459 1548q35 43 90.5 92.5t102.5 97.5t77 103q8 -2 16.5 -7.5t16 -10.5t19 -16t18 -16.5t21 -20t20.5 -19.5q14 -14 16 -22.5t-3 -11t-12.5 -5t-9.5 -4.5q-15 1 -25 -8t-16.5 -19.5t-22.5 -16.5t-42 1l20 -23l-190 -155l-8 -8q-11 1 -22 6 t-21.5 14.5t-17.5 16.5t-16 18.5t-11 13.5z" />
<glyph unicode="&#xd4;" horiz-adv-x="1122" d="M86 465q-29 179 25.5 374.5t175.5 346.5q41 0 100.5 40t99.5 40q60 0 92.5 -1.5t80.5 -8.5t84 -24t65 -46q240 -191 240 -762q-23 -46 -37.5 -73.5t-42 -75.5t-49.5 -79.5t-55 -71t-64.5 -64.5t-71.5 -46t-82 -30q-300 -62 -479 241q0 26 -13 54t-28 50t-28 58.5 t-13 77.5zM168 543q0 -25 5.5 -51.5t21 -60.5t25.5 -55.5t36.5 -63.5t35.5 -56t41 -60.5t36 -52.5q110 -110 319 -41q96 59 161.5 168t92.5 227.5t27 245.5q-21 41 -61 141.5t-60 141.5l-78 80q-39 38 -103.5 54t-130.5 11t-128 -26q-43 -43 -67.5 -70t-61 -73t-54.5 -90.5 t-18 -86.5q-39 -82 -39 -282zM343 1437.5q0 6.5 3 13t2 13.5l-2 21q0 15 9 27.5t28 15.5q32 38 63 59q39 19 46 41q6 17 11 22t29 19q3 9 8.5 16t8.5 9.5l9 7.5l7 4h4q1 -2 7 -9t8.5 -10t8 -6.5t11.5 -3.5q9 -7 20 -15t15.5 -11.5t8 -9t3.5 -11.5q0 -28 23 -28q3 -9 6 -15 t5 -8.5t5 -4.5l4 -3l37 -27q1 -2 4 -9t4.5 -10t5 -9t8 -9.5t11.5 -7.5t16 -6q6 -2 13 -1t13.5 -1.5t6.5 -11.5q3 -49 -22 -60l-23 -6q-44 27 -57 47q-31 11 -45 26t-23 38q0 7 -7 18t-20 14q-1 7 -13 12t-15 9t-7 6t-9.5 3.5t-8.5 2.5q-4 -4 -15 -13t-16 -17q-1 -2 -2.5 -6 t-2.5 -5.5t-4.5 -5.5t-8.5 -7.5t-14 -9t-21 -12.5q-6 -3 -9 -5t-9.5 -5.5t-8 -3t-3.5 1.5q-7 0 -12 -11.5t-15.5 -31t-28.5 -33.5h-20l-23 -4q-7 10 -7 16.5z" />
<glyph unicode="&#xd5;" horiz-adv-x="1134" d="M86 465q-29 179 25.5 374.5t175.5 346.5q41 0 100.5 40t99.5 40q60 0 92.5 -1.5t80.5 -8.5t84 -24t65 -46q240 -191 240 -762q-23 -46 -37.5 -73.5t-42 -75.5t-49.5 -79.5t-55 -71t-64.5 -64.5t-71.5 -46t-82 -30q-300 -62 -479 241q0 26 -13 54t-28 50t-28 58.5 t-13 77.5zM168 543q0 -25 5.5 -51.5t21 -60.5t25.5 -55.5t36.5 -63.5t35.5 -56t41 -60.5t36 -52.5q110 -110 319 -41q96 59 161.5 168t92.5 227.5t27 245.5q-21 41 -61 141.5t-60 141.5l-78 80q-39 38 -103.5 54t-130.5 11t-128 -26q-43 -43 -67.5 -70t-61 -73t-54.5 -90.5 t-18 -86.5q-39 -82 -39 -282zM178 1651q2 8 2 18q0 8 17 35q4 6 28 16q1 6 11 25l45 33q24 5 39.5 11t19.5 9.5t16 13.5q44 11 54 11q27 0 77 -29q4 -6 11 -16l6 -9l39 -24l59 -37q13 -10 60 -43q32 -12 67 -12q19 0 57 22q3 2 6.5 10t6.5 11l26 14l37 31l29 33q24 16 49 6 q12 -3 18 -17q6 -10 9.5 -27.5t-2.5 -35.5q-3 -7 -11 -15t-17.5 -15.5t-10.5 -8.5l-39 -47q-25 -4 -27 -6q-3 -21 -6 -27q-12 -6 -27 -16l-45 -17q-23 -20 -98 -20q-14 0 -27 10h-39l-65 18q-32 12 -59 33l-50 37q-1 1 -5 16.5t-5 16.5q-11 -2 -20.5 0.5t-14.5 6t-12 10 t-8 7.5q-17 14 -37 11q-8 0 -24 -18.5t-25 -22.5q-27 -27 -41 -39q-8 -1 -66 18q-8 5 -8 19z" />
<glyph unicode="&#xd6;" horiz-adv-x="1101" d="M86 465q-29 179 25.5 374.5t175.5 346.5q41 0 100.5 40t99.5 40q60 0 92.5 -1.5t80.5 -8.5t84 -24t65 -46q240 -191 240 -762q-23 -46 -37.5 -73.5t-42 -75.5t-49.5 -79.5t-55 -71t-64.5 -64.5t-71.5 -46t-82 -30q-300 -62 -479 241q0 26 -13 54t-28 50t-28 58.5 t-13 77.5zM168 543q0 -25 5.5 -51.5t21 -60.5t25.5 -55.5t36.5 -63.5t35.5 -56t41 -60.5t36 -52.5q110 -110 319 -41q96 59 161.5 168t92.5 227.5t27 245.5q-21 41 -61 141.5t-60 141.5l-78 80q-39 38 -103.5 54t-130.5 11t-128 -26q-43 -43 -67.5 -70t-61 -73t-54.5 -90.5 t-18 -86.5q-39 -82 -39 -282zM221.5 1684q-0.5 11 8 25t28.5 26q17 18 23.5 24t19.5 14.5t23 6t20 -14.5q20 0 33.5 -12.5t19.5 -27.5t15.5 -43.5t17.5 -45.5q-5 -5 -29.5 -41.5t-58.5 -54.5q-26 0 -48.5 10.5t-35 23t-29.5 32.5q0 18 -3.5 42.5t-4 35.5zM662 1700 q11 12 20 29.5t16.5 26.5t20.5 9q43 22 79 2t36 -69q20 -12 24.5 -28.5t-7.5 -38t-20 -32t-26 -30.5q-23 -25 -47.5 -25t-67.5 25q-33 38 -28 131z" />
<glyph unicode="&#xd7;" horiz-adv-x="729" d="M59 438v25q0 30 45 39q34 39 93 78q55 24 55 47q0 12 10 22q-7 7 -26 10q-12 39 -21 39l-29 -2q-15 35 -63 35l-21 45q-18 6 -18 43q0 67 35 76l24 8q54 -36 68 -55q77 -27 96 -76q0 -11 37 -20l4 -31l4 2h4q3 -9 13 -12h2v20l-4 21q8 8 36 8q9 21 64 39l4 4l-16 24v21 q20 0 20 -8q32 0 105 55h24l27 4q24 -37 28 -72v-24q0 -30 -45 -39q-41 -48 -88 -80q-55 -27 -55 -49q0 -18 -14 -29q6 -9 30 -12q9 -39 19 -39l29 2q15 -34 63 -37l18 -45q19 -9 19 -45q-3 -65 -39 -74l-25 -8q-51 39 -65 58q-76 30 -94 77q0 14 -35 23l-6 29q-9 9 -19 12 h-2v-21l4 -20q-9 -9 -39 -6q-10 -23 -63 -37l-4 -4l16 -25l-2 -20q-20 0 -20 8q-31 0 -105 -53l-24 2l-27 -4q-27 41 -27 71z" />
<glyph unicode="&#xd8;" horiz-adv-x="1230" d="M88 422q0 16 9 30.5t9 25.5t-18 30q13 44 12 93.5t-8 90t0.5 82t36.5 70.5q0 57 19.5 107t59 111t48.5 77q100 102 222 150.5t243 19.5q27 15 56.5 4t49 -30.5t48 -38.5t55.5 -19q10 10 21 33t19.5 41t26 37t40.5 21.5t63 -7.5q10 -28 7.5 -46t-21 -40t-38 -38t-42.5 -40 t-35 -47q160 -221 160 -484.5t-160 -484.5q-35 -72 -98 -120t-152 -48q-38 -19 -91 -19t-116.5 9.5t-89.5 9.5q-5 4 -18 16.5t-18.5 17.5t-17 14.5t-19 14t-17 10t-18 7.5t-17.5 2q-21 -22 -43 -62.5t-43 -62.5q-21 0 -31.5 1t-25 4.5t-21 13t-6.5 24.5q20 38 44.5 72 t38 48.5t44.5 47.5q-36 18 -59.5 62t-49 100t-59.5 90zM204.5 717q8.5 -49 18.5 -83.5t-10 -82.5q13 -26 20 -63.5t11.5 -65t28 -62.5t67.5 -65q20 21 41 63.5t43 63.5q13 26 37.5 58t42.5 54.5t32.5 59.5t14.5 80q53 53 101 132.5t95.5 159t100.5 132.5q0 36 -18 57.5 t-51 29.5t-68 12t-81 10t-79 18q-59 0 -118.5 -50.5t-92.5 -117.5q-20 -43 -127 -256q-17 -35 -8.5 -84zM396.5 215.5q3.5 -21.5 27.5 -45.5q13 0 32.5 -19.5t36.5 -39.5t43.5 -31.5t55.5 4.5q75 0 115 6.5t98 34.5q11 11 37 33t42.5 38t31 43t14.5 56q60 60 87 150.5 t24 177.5t-25 178q-23 45 -45 130t-41 126q0 -21 -1 -32t-4.5 -26t-13 -21.5t-24.5 -6.5q-36 -93 -100.5 -190.5t-148 -210t-130.5 -189.5q-11 -22 -32.5 -46t-39 -41.5t-30.5 -37t-9.5 -41z" />
<glyph unicode="&#xd9;" horiz-adv-x="1202" d="M35 1171q0 29 6 46t20 24t24 8.5t30 1.5h403v-41q-13 -27 -36.5 -34t-48.5 -0.5t-56 7t-60 -11.5v-403q31 -31 31 -81t-31 -81q10 -50 12.5 -122t4.5 -127t12.5 -111.5t43 -98.5t89.5 -65q36 -18 76 -18t88.5 9t75.5 9q24 11 40 23t27.5 28.5t18 29.5t17.5 38t20 43v483 q0 37 -9 133t-9 176t18 135h-162q0 19 -20.5 39t-20.5 41q18 18 38 18t45 -9t40 -9h360q0 -31 -5 -41t-36 -39q-11 0 -46.5 8.5t-65 8.5t-47.5 -17v-927q-73 -230 -283 -283q-43 0 -87 8t-71.5 16.5t-82 27.5t-81.5 28q-27 56 -40 84t-27 75.5t-14 84.5v723q0 12 9.5 48.5 t9.5 66.5t-19 48q-29 12 -59.5 5.5t-55.5 -20.5t-48.5 -13t-37.5 28zM301 1716q2 8 7.5 16.5t10.5 16t16 19t16.5 18t20 21t19.5 20.5q14 14 22.5 16t11 -3t5 -12t4.5 -9q-1 -15 8 -25.5t19.5 -16.5t16.5 -22.5t-1 -42.5l23 21l155 -191l9 -8q-1 -14 -10.5 -29t-17.5 -23 t-25 -22l-17 -14q-43 35 -92.5 90.5t-97.5 102.5t-103 77z" />
<glyph unicode="&#xda;" horiz-adv-x="1177" d="M35 1171q0 29 6 46t20 24t24 8.5t30 1.5h403v-41q-13 -27 -36.5 -34t-48.5 -0.5t-56 7t-60 -11.5v-403q31 -31 31 -81t-31 -81q10 -50 12.5 -122t4.5 -127t12.5 -111.5t43 -98.5t89.5 -65q36 -18 76 -18t88.5 9t75.5 9q24 11 40 23t27.5 28.5t18 29.5t17.5 38t20 43v483 q0 37 -9 133t-9 176t18 135h-162q0 19 -20.5 39t-20.5 41q18 18 38 18t45 -9t40 -9h360q0 -31 -5 -41t-36 -39q-11 0 -46.5 8.5t-65 8.5t-47.5 -17v-927q-73 -230 -283 -283q-43 0 -87 8t-71.5 16.5t-82 27.5t-81.5 28q-27 56 -40 84t-27 75.5t-14 84.5v723q0 12 9.5 48.5 t9.5 66.5t-19 48q-29 12 -59.5 5.5t-55.5 -20.5t-48.5 -13t-37.5 28zM500 1536q35 43 90.5 92.5t102.5 97.5t77 103q8 -2 16.5 -7.5t16 -10.5t19 -16t18 -16.5t21 -20t20.5 -19.5q14 -14 16 -22.5t-3 -11t-12.5 -5t-9.5 -4.5q-15 1 -25 -8t-16.5 -19.5t-22.5 -16.5t-42 1 l20 -23l-190 -155l-8 -9q-14 1 -29 10.5t-23 17.5t-22 25z" />
<glyph unicode="&#xdb;" horiz-adv-x="1169" d="M35 1171q0 29 6 46t20 24t24 8.5t30 1.5h403v-41q-13 -27 -36.5 -34t-48.5 -0.5t-56 7t-60 -11.5v-403q31 -31 31 -81t-31 -81q10 -50 12.5 -122t4.5 -127t12.5 -111.5t43 -98.5t89.5 -65q36 -18 76 -18t88.5 9t75.5 9q24 11 40 23t27.5 28.5t18 29.5t17.5 38t20 43v483 q0 37 -9 133t-9 176t18 135h-162q0 19 -20.5 39t-20.5 41q18 18 38 18t45 -9t40 -9h360q0 -31 -5 -41t-36 -39q-11 0 -46.5 8.5t-65 8.5t-47.5 -17v-927q-73 -230 -283 -283q-43 0 -87 8t-71.5 16.5t-82 27.5t-81.5 28q-27 56 -40 84t-27 75.5t-14 84.5v723q0 12 9.5 48.5 t9.5 66.5t-19 48q-29 12 -59.5 5.5t-55.5 -20.5t-48.5 -13t-37.5 28zM343 1507.5q0 6.5 3 13t2 13.5l-2 20q0 15 9 27.5t28 15.5q34 40 63 60q39 19 46 41q6 17 11 22t29 19q3 9 8.5 16t8.5 9.5l9 7.5l7 4h4q1 -2 7 -9t8.5 -10t8 -6.5t11.5 -3.5q9 -7 20 -15t15.5 -11.5 t8 -9t3.5 -11.5q0 -29 23 -29q3 -9 6 -15t5 -8.5t5 -5.5l4 -2l37 -26q1 -2 4 -9t4.5 -10t5 -9t8 -9.5t11.5 -7.5t16 -6q3 -1 12.5 -1t15 -2.5t5.5 -11.5q3 -48 -22 -59l-23 -6q-44 27 -57 47q-31 11 -45.5 25.5t-22.5 37.5q0 7 -7 18.5t-20 14.5q-1 7 -13 12t-15 9t-7 6 t-9.5 3.5t-8.5 2.5q-5 -5 -12 -10.5t-11 -10t-8 -10.5q0 -1 -2.5 -6.5t-4 -7l-7 -7t-15 -11t-24.5 -13.5q-6 -3 -9 -5t-9.5 -5.5t-8 -3t-3.5 1.5q-7 0 -12 -11.5t-15.5 -31t-28.5 -33.5h-20l-23 -4q-7 10 -7 16.5z" />
<glyph unicode="&#xdc;" horiz-adv-x="1189" d="M35 1171q0 29 6 46t20 24t24 8.5t30 1.5h403v-41q-13 -27 -36.5 -34t-48.5 -0.5t-56 7t-60 -11.5v-403q31 -31 31 -81t-31 -81q10 -50 12.5 -122t4.5 -127t12.5 -111.5t43 -98.5t89.5 -65q36 -18 76 -18t88.5 9t75.5 9q24 11 40 23t27.5 28.5t18 29.5t17.5 38t20 43v483 q0 37 -9 133t-9 176t18 135h-162q0 19 -20.5 39t-20.5 41q18 18 38 18t45 -9t40 -9h360q0 -31 -5 -41t-36 -39q-11 0 -46.5 8.5t-65 8.5t-47.5 -17v-927q-73 -230 -283 -283q-43 0 -87 8t-71.5 16.5t-82 27.5t-81.5 28q-27 56 -40 84t-27 75.5t-14 84.5v723q0 12 9.5 48.5 t9.5 66.5t-19 48q-29 12 -59.5 5.5t-55.5 -20.5t-48.5 -13t-37.5 28zM266.5 1673q-0.5 11 8 25t28.5 26q17 19 23.5 24.5t19.5 14.5t23 6.5t20 -14.5q20 0 33.5 -12.5t19.5 -27.5t15.5 -43.5t17.5 -45.5q-5 -5 -29.5 -41.5t-58.5 -54.5q-37 0 -62.5 17t-50.5 48 q0 18 -3.5 42.5t-4 35.5zM707 1690q11 12 20 29.5t16.5 26.5t20.5 9q43 22 79 2t36 -69q20 -12 24.5 -28.5t-7.5 -38t-20 -32t-26 -30.5q-23 -25 -47.5 -25t-67.5 25q-33 38 -28 131z" />
<glyph unicode="&#xdd;" horiz-adv-x="1142" d="M25 1126q0 20 19 39t19 37q51 -16 108 -16t127 8t108 8q14 0 22.5 -5.5t11.5 -19t3.5 -22.5t0.5 -29h-114q15 -29 19 -71.5t14 -72t43 -46.5q-14 -23 -9.5 -51.5t15 -48t21.5 -56t11 -73.5q17 -17 27 -36.5t23 -54t26 -61.5q33 32 55.5 91.5t44.5 120.5t54 93 q0 31 19 73.5t38 93t19 99.5q-8 8 -21.5 10.5t-27 1t-27.5 -4.5t-20 -3.5t-14 -0.5t-10 4t-1.5 11.5t6.5 20.5q29 28 76.5 28t76.5 -28q22 0 62.5 10.5t72 18.5t69 2.5t63.5 -31.5q-13 -39 -41 -49.5t-58 -3.5t-67.5 4t-63.5 -29q-15 -31 -34 -99.5t-41 -90.5 q-38 -76 -95.5 -228.5t-95.5 -228.5q12 -38 11.5 -87t-7 -90t1 -97.5t33.5 -108.5l227 39q0 -20 19.5 -39t19.5 -37l-76 -38h-458q-17 17 -36 17t-30 -9l-10 -8q-57 57 0 114q25 0 80 -8.5t93.5 -8.5t55.5 17q0 38 4.5 111t5 115.5t-10.5 98t-38 95.5q-38 95 -114.5 285.5 t-114.5 285.5q-13 27 -35 33.5t-45.5 0.5t-53 -6.5t-56.5 11.5zM471 1454q35 43 90.5 92.5t102.5 97.5t77 103q8 -2 16.5 -7.5t16 -10.5t19 -16t18 -16.5t21 -20t20.5 -19.5q14 -14 16 -22.5t-3 -11t-12 -5t-9 -4.5q-15 1 -25.5 -8t-16.5 -19.5t-22.5 -16.5t-42.5 1l21 -23 l-191 -155l-8 -9q-14 1 -29 10.5t-23 17.5t-22 25z" />
<glyph unicode="&#xde;" horiz-adv-x="778" d="M66 66q9 31 11.5 125.5t26.5 132.5q-11 65 -6.5 98.5t14.5 85.5t9 88q3 30 -2 95.5t-2 94.5q7 283 -21 519q14 21 14.5 51.5t-5 55.5t2.5 56.5t35 57.5q24 20 65.5 2t55.5 -15q17 -30 20 -65.5t5 -42.5q-6 -9 -20 -20t-21.5 -21.5t-3.5 -26.5q-2 -29 2 -87t4 -76h-6 q-10 -58 26 -103q0 -6 -2 -8q17 -23 10.5 -46t-22 -39t-21 -39t12.5 -46q-5 -9 -8.5 -14.5t-9 -13t-11.5 -17.5q-7 -24 -15.5 -98.5t-19.5 -98.5q12 -8 5 -19.5t6 -19.5l5 5q7 1 3 -37q12 -9 7.5 -14t-1 -16.5t23.5 -23.5q-5 -8 -8 -15.5t-4 -17t-2 -15.5t-1.5 -18.5 t-0.5 -17.5q-16 -26 -10 -47q-6 -14 -17 -33l19 -71q-16 -24 -2 -79t0 -77q-11 -17 -6.5 -39.5t22.5 -34.5q3 -27 -23 -46t-44 -7q-16 -4 -32.5 7t-33.5 29t-24 22zM207 395q15 -60 182 -18q21 11 48 8.5t46 -11.5t40 -11.5t30 8.5q20 6 38.5 15.5t34 22t28 24.5t25 28 t20.5 27t17 28.5t13 25t11 22.5t8 16q12 24 12 85.5t-6 115.5t-15 102q-6 35 -31.5 68.5t-61 73t-54.5 73.5l-123 30q-33 24 -63 35t-44 13t-55 0t-57 -2q0 -5 -1 -15t-1 -14q-7 -11 7 -38.5t15 -35.5q32 -37 76 -45q27 0 59 -15.5t74.5 -43.5t59.5 -37q5 -16 26.5 -34 t37.5 -38.5t13 -50.5q-10 -130 -18 -168q-6 -30 -18 -47t-35.5 -36t-34.5 -32q-10 -11 -53.5 -4.5t-82 15.5t-65.5 -3q-69 -42 -92 -90q-5 -33 -10 -47z" />
<glyph unicode="&#xdf;" horiz-adv-x="837" d="M70 -53q6 26 7.5 112t20.5 121q-8 58 -5 88t10 77t6 79q3 28 -1 87.5t-2 84.5q4 273 -14 465q12 23 8 65q13 -36 35 -36q3 -3 5 -4.5t3.5 -1.5t3.5 2t3 4t4 6l6 8q3 2 13 4t13 4q13 -17 13 -6q-1 0 0 11t4 26q-4 4 -4 6q-1 -4 -13 -8v4q2 0 2 2q6 6 11 4q1 9 1 29t1 28 q2 1 6 4.5t6 4.5q1 0 -0.5 -11t-4.5 -30.5l-5 -32.5v-2q-2 -49 -21 -219q-5 -10 3 -38.5t3 -37.5q13 -20 10 -41t-13.5 -36t-13.5 -36t11 -41q-5 -9 0 -19t0 -22q2 -9 -9.5 -64t3.5 -73q-5 -10 -1.5 -27.5t-0.5 -27.5l-14 8q2 -3 -2.5 -12t6.5 -15q1 2 3 4.5t8.5 6.5 t12.5 -2l-18 -39q6 -4 4.5 -19t18.5 -29q-8 -18 -11.5 -66t-21.5 -81l14 -65q-12 -20 -2 -70t0 -70q-8 -15 -4.5 -35t16.5 -30q3 -25 -16.5 -42.5t-32.5 -6.5q-12 -3 -24 7t-24 25t-17 19zM93 1176.5q3 29.5 13.5 57t40 49t72.5 26.5q83 34 176 15t160 -83q48 -41 78 -94 t22 -100q2 -103 -37 -186t-112 -120q96 -27 167.5 -92.5t100.5 -144.5q11 -52 12.5 -105t-8.5 -107.5t-31 -103t-58 -92t-87 -73.5q-12 0 -54.5 -15.5t-82.5 -15.5q-34 -18 -102.5 -1.5t-100.5 1.5q-15 40 -13.5 61.5t24 33t52 14t69 5t76 5t73 15t59.5 34.5q133 133 70 379 q-92 42 -147.5 73.5t-91 65.5t-35.5 67t28.5 70.5t91.5 83.5q79 99 8 209q6 24 -11 49t-42 31q-27 5 -67.5 16t-64 17t-61 9t-57.5 -9v8q-4 12 -8 20q-14 -3 -14 -41h-2q-1 -4 -2 -10.5t-2 -9.5q-9 -31 -17 -49q2 2 8 2q5 -15 7 -23q-3 -6 -7 -6q-6 9 -10 21 q-19 -43 -41 -43q-6 6 -29 40q-6 9 -6 1v-5q-10 21 -7 50.5zM186 1145q0 5 0.5 5.5t1.5 -3.5z" />
<glyph unicode="&#xe0;" horiz-adv-x="1265" d="M82 389q44 66 107.5 105t129 50t143.5 15.5t146.5 4t142 14.5t126.5 47q0 31 -0.5 50t-3 50.5t-8.5 51.5t-16 40.5t-26.5 30.5t-38.5 10q-213 68 -422 0q48 -47 48 -96q-18 0 -34.5 -11t-42 -22.5t-65.5 -11.5q-4 0 -10 0.5t-22 2.5t-28 6.5t-22 13.5t-10 22 q-23 0 -34.5 16t-13 32t-1.5 48q50 66 127 106.5t161.5 51t164.5 5.5t155 -24q73 0 136.5 -36t99.5 -103q21 -104 21 -231.5t-10.5 -270.5t-10.5 -200q20 -41 56 -54t74 -18t56 -23h94q0 -20 -11.5 -43.5t-23.5 -37.5l-12 -13q-23 0 -68.5 -5t-73.5 -6t-67 13t-73 47 q0 30 -1.5 47t-12 44t-31.5 49q-39 -39 -84.5 -69.5t-86 -50.5t-94.5 -33.5t-93 -20.5t-100 -10.5t-97 -4t-101 -0.5q-210 142 -139 422zM176 295q0 -66 27 -131t65 -103q57 -11 109 -11.5t97.5 9.5t85.5 26.5t79.5 43t73 55t71.5 66.5q37 0 55.5 18t19 50.5t-5 64 t-14.5 72.5t-10 63q-2 -13 -10 -20.5t-23.5 -10.5t-27 -3.5t-33.5 -0.5q-49 -25 -124 -28t-141.5 1.5t-130 -0.5t-107 -43.5t-56.5 -117.5zM342 1456q2 8 7.5 16.5t10.5 16t16 19t16.5 18t20 21t19.5 20.5q14 14 22.5 16t11 -3t5 -12t4.5 -9q-1 -15 8 -25.5t19.5 -16.5 t16.5 -22.5t-1 -42.5l23 21l155 -191l9 -8q-1 -14 -10.5 -29t-17.5 -23t-25 -22l-17 -14q-43 35 -92.5 90.5t-97.5 102.5t-103 77z" />
<glyph unicode="&#xe1;" horiz-adv-x="1263" d="M76 389q-71 -280 139 -422q77 0 118.5 1t111 6t117 17t105 32t107.5 53.5t96 79.5q21 -22 31.5 -49t12 -44t1.5 -47q34 -33 73.5 -47t67.5 -13t73.5 6t68.5 5q47 49 47 94h-94q-18 18 -56 23t-74 18t-56 54q0 57 10.5 200t10.5 270.5t-21 231.5q-36 67 -99.5 103 t-136.5 36q-75 19 -155 24t-164.5 -5.5t-161.5 -51t-127 -106.5q0 -24 1 -36t5 -28.5t15 -24t28 -7.5q0 -20 23 -31t46 -13l23 -1q40 0 65.5 11.5t41.5 22.5t34 11q0 22 -11.5 46t-23.5 37l-12 13q209 68 422 0q22 0 38.5 -10t26 -31t15.5 -40t8.5 -51.5t3 -50.5t0.5 -50 q-53 -32 -126.5 -47t-142 -14.5t-146 -4t-143 -15.5t-129 -50t-107.5 -105zM170 295q13 79 56.5 117.5t107 43.5t130 0.5t141.5 -1.5t124 28q22 0 33.5 0.5t27 3.5t23.5 10.5t10 20.5q1 -22 10 -63t14.5 -72.5t5 -64t-19 -50.5t-55.5 -18q-38 -38 -71.5 -66.5t-73 -55 t-79.5 -43t-85.5 -26.5t-97.5 -9.5t-109 11.5q-38 38 -65 103t-27 131zM367 1300l10 9l162 200l24 -22q-7 28 -1 45t16.5 23.5t20.5 17.5t9 26q2 2 4.5 9.5t5.5 13t12 3t23 -16.5q5 -5 24.5 -25t26 -27t18.5 -21.5t17.5 -24.5t8.5 -19q-58 -31 -108 -80t-102.5 -108 t-97.5 -95l-18 14q-17 15 -25.5 23.5t-18.5 24.5t-11 30z" />
<glyph unicode="&#xe2;" horiz-adv-x="1275" d="M86 389q44 66 107.5 105t129 50t143.5 15.5t146.5 4t142 14.5t126.5 47q0 31 -0.5 50t-3 50.5t-8.5 51.5t-16 40.5t-26.5 30.5t-38.5 10q-212 68 -421 0q47 -47 47 -96q-18 0 -34.5 -11t-42 -22.5t-65.5 -11.5q-4 0 -10 0.5t-22 2.5t-28 6.5t-22 13.5t-10 22 q-23 0 -34.5 16t-13 32t-1.5 48q50 66 127 106.5t161.5 51t164.5 5.5t155 -24q73 0 136.5 -36t99.5 -103q21 -104 21 -231.5t-10.5 -270.5t-10.5 -200q20 -41 56 -54t74 -18t56 -23h94q0 -20 -11.5 -43.5t-23.5 -37.5l-12 -13q-23 0 -68.5 -5t-73.5 -6t-67 13t-73 47 q0 30 -1.5 47t-12 44t-31.5 49q-39 -39 -84.5 -69.5t-86 -50.5t-94.5 -33.5t-93 -20.5t-100 -10.5t-97 -4t-101 -0.5q-210 142 -139 422zM180 295q0 -66 27 -131t65 -103q57 -11 109 -11.5t97.5 9.5t85.5 26.5t79.5 43t73 55t71.5 66.5q37 0 55.5 18t19 50.5t-4.5 64 t-14 72.5t-10 63q-4 -23 -27 -29t-68 -6q-49 -25 -124 -28t-141.5 1.5t-130 -0.5t-107 -43.5t-56.5 -117.5zM250 1223v24q0 30 45 39q41 50 86 82q55 27 55 49q0 32 64 47q15 40 32 54h5q16 -22 47 -19q53 -47 53 -80q0 -21 35 -24q12 -39 20 -39l29 2q15 -35 63 -35l23 -43 q18 -6 18 -43q0 -66 -34 -78l-25 -8q-54 36 -68 55q-77 27 -96 76q0 12 -37 18l-10 46l-18 -5v-20l6 -21q-8 -8 -37 -8q-9 -21 -64 -39l-4 -4l17 -24v-21q-21 0 -21 8q-32 0 -104 -57h-25l-26 -4q-26 38 -29 72z" />
<glyph unicode="&#xe3;" horiz-adv-x="1308" d="M92 389q44 66 107.5 105t129 50t143.5 15.5t146.5 4t142 14.5t126.5 47q0 32 -0.5 50t-3 50.5t-8.5 51.5t-15.5 40t-26 31t-38.5 10q-213 68 -422 0q47 -47 47 -96q-18 0 -34 -11t-41.5 -22.5t-65.5 -11.5q-4 0 -10 0.5t-22 2.5t-28.5 6.5t-22.5 13.5t-10 22 q-23 0 -34.5 16t-13 32t-1.5 48q50 66 127 106.5t161.5 51t164.5 5.5t155 -24q73 0 136.5 -36t99.5 -103q21 -104 21 -231.5t-10.5 -270.5t-10.5 -200q20 -41 56 -54t74 -18t56 -23h95q0 -20 -12 -43.5t-24 -37.5l-12 -13q-23 0 -68.5 -5t-73.5 -6t-67 13t-73 47 q0 30 -1.5 47t-12 44t-31.5 49q-39 -39 -84.5 -69.5t-86 -50.5t-94.5 -33.5t-93 -20.5t-100 -10.5t-97 -4t-101 -0.5q-210 142 -139 422zM186 295q0 -66 27.5 -131t65.5 -103q57 -11 109 -11.5t97.5 9.5t85.5 26.5t79.5 43t73 55t71.5 66.5q37 0 55.5 18t19 50.5t-5 64 t-14.5 72.5t-10 63q-4 -23 -27 -29t-68 -6q-49 -25 -124 -28t-141.5 1.5t-130 -0.5t-107 -43.5t-56.5 -117.5zM186 1286q2 8 2 19q0 7 17 34q6 7 28 17q1 4 11 24l45 33q24 5 40 11.5t20 9.5t16 14q40 10 53 10q29 0 78 -28q6 -10 16 -25l39 -25l59 -37q13 -10 60 -43 q32 -12 67 -12t64 17q12 8 18 14l21 20l37 31l28 33q27 18 43 12q14 -3 19 -16q9 -15 -6 -45q-3 -7 -11 -15t-17.5 -15.5t-10.5 -8.5l-39 -47q-24 -4 -27 -6q-3 -21 -6 -27q-12 -6 -27 -16l-45 -17q-45 -39 -86 -39q-12 0 -26 11h-39l-66 18q-32 12 -59 33l-49 37 q-1 1 -5.5 16t-5.5 16q-11 -2 -20.5 0.5t-14.5 6.5t-12 10.5t-8 7.5q-8 7 -29.5 14t-31.5 6q-9 0 -33 -14.5t-31 -17.5q-27 -27 -41 -39q-17 -3 -26 0q-9 6 -9 18z" />
<glyph unicode="&#xe4;" horiz-adv-x="1284" d="M90 389q44 66 107.5 105t129 50t143.5 15.5t146.5 4t142 14.5t126.5 47q0 32 -0.5 50t-3 50.5t-8.5 51.5t-15.5 40t-26 31t-38.5 10q-213 68 -422 0q47 -47 47 -96q-18 0 -34.5 -11t-42 -22.5t-65.5 -11.5q-4 0 -10 0.5t-22 2.5t-28 6.5t-22 13.5t-10 22q-23 0 -34.5 16 t-13 32t-1.5 48q50 66 127 106.5t161.5 51t164.5 5.5t155 -24q73 0 136.5 -36t99.5 -103q21 -104 21 -231.5t-10.5 -270.5t-10.5 -200q20 -41 56 -54t74 -18t56 -23h95q0 -20 -12 -43.5t-24 -37.5l-12 -13q-23 0 -68.5 -5t-73.5 -6t-67 13t-73 47q0 30 -1.5 47t-12 44 t-31.5 49q-39 -39 -84.5 -69.5t-86 -50.5t-94.5 -33.5t-93 -20.5t-100 -10.5t-97 -4t-101 -0.5q-210 142 -139 422zM184 295q0 -66 27 -131t65 -103q57 -11 109 -11.5t97.5 9.5t86 26.5t80 43t73 55t71.5 66.5q37 0 55.5 18t19 50.5t-5 64t-14.5 72.5t-10 63q-4 -23 -27 -29 t-68 -6q-49 -25 -124 -28t-141.5 1.5t-130 -0.5t-107 -43.5t-56.5 -117.5zM250.5 1311q-0.5 11 8 25t28.5 26q17 19 23.5 24.5t19.5 14.5t23 6.5t20 -14.5q20 0 33.5 -12.5t19.5 -27.5t15.5 -43.5t17.5 -45.5q-6 -6 -30 -42.5t-58 -54.5q-26 0 -48.5 10.5t-35 23t-29.5 32.5 q0 18 -3.5 42.5t-4 35.5zM690 1327q11 12 20.5 30t17 27t20.5 9q43 22 78.5 1.5t35.5 -69.5q20 -12 24.5 -29t-7 -38t-20 -31.5t-25.5 -30.5q-23 -25 -47.5 -25t-67.5 25q-34 39 -29 131z" />
<glyph unicode="&#xe5;" horiz-adv-x="1284" d="M39 231q0 105 40.5 178.5t141.5 141.5q49 24 117 30.5t134 4t133 -0.5t133.5 26t117.5 75q-17 33 -22 73t-16.5 64t-51.5 45q-72 23 -107 32.5t-99.5 21.5t-124.5 9t-124 -20q0 -14 13.5 -33t26.5 -33.5t18 -34.5t-13 -34q-13 -25 -31 -39t-39.5 -16t-39.5 0t-40 6t-32 4 q-21 21 -31.5 46.5t-12 42.5t-1.5 48q33 44 77 73t84.5 43t101.5 20t102.5 5.5t114.5 -3t112 -2.5q16 -8 57 -27t66 -32t57.5 -33t55 -42.5t34.5 -48.5q-21 -113 -21 -317.5t-22 -317.5q24 -25 58 -42t79 -22t89 19q13 -13 32.5 -27t26.5 -20t5.5 -17.5t-17.5 -27.5 q-121 -121 -273 -45q-30 28 -48 47.5t-43 55.5t-46 79q-108 -108 -267.5 -161t-322.5 -21q-74 36 -128 99.5t-54 127.5zM168.5 237.5q26.5 -61.5 97.5 -96.5q65 -27 130.5 -29t119 13.5t109.5 49t98 68.5t88 81l45 227q-50 0 -107 -23.5t-75 -23.5q-40 -20 -86.5 -20 t-115 10t-116.5 10q0 -16 -7 -26t-22.5 -13.5t-27 -4.5t-33.5 -1q-20 0 -32 -12t-27 -37t-33 -41q-32 -70 -5.5 -131.5zM291 1467q0 35 10 87.5t10 83.5q27 27 40 39.5t39 35.5t42.5 33t42.5 23t48.5 16t50.5 1.5t57 -10.5q31 0 60.5 -16t46 -34t40 -47.5t33.5 -40.5 q42 -41 49.5 -99t-8.5 -102.5t-41 -68.5q-33 -67 -95 -103t-132 -36q-22 11 -58.5 23.5t-65.5 22.5t-59.5 26.5t-53.5 44t-36 65.5q-20 21 -20 56zM403 1550q0 -45 2 -69t9.5 -54.5t27 -44.5t50.5 -14q48 -24 90 -30t79 12t60 61q17 15 11.5 42.5t-18.5 50t-26.5 49.5 t-13.5 40q-28 29 -45.5 45.5t-43 32t-46.5 15.5q-16 -16 -43.5 -44t-50 -50.5t-42.5 -41.5z" />
<glyph unicode="&#xe6;" horiz-adv-x="1525" d="M73.5 795.5q5.5 33.5 28.5 56.5q16 48 51.5 81t68.5 46t83 29t74 28q47 0 73 -1t73 -4t79 -12t70 -23.5t67.5 -39t51.5 -57.5q30 0 62.5 24t74.5 68q169 55 368 -47q10 -30 29 -65t37 -62t37.5 -62.5t29.5 -66t14 -73.5t-9 -85q-38 -26 -77 -31t-69 5t-62.5 20t-58 15 t-55.5 -9h-276q-26 -39 -34.5 -76t-1 -74t19 -66t32 -74t31.5 -76q15 -16 26.5 -27t32 -28t39 -26.5t40.5 -17.5t45.5 -6t45.5 13q31 10 58 38.5t44 60t36 61.5t36 47.5t43.5 13.5t59.5 -37q-37 -109 -130 -192.5t-192 -83.5q-32 -13 -66 -9t-59 14t-54 29t-50 37t-46.5 37 t-45.5 29q-55 -18 -120.5 -54t-114.5 -59.5t-89 -23.5q-207 0 -274 137q-123 123 -48 276q17 50 58.5 86.5t98.5 57.5t121.5 31t135.5 10q15 14 42 27.5t51 23.5t50 32t41 54q0 23 -22.5 69t-22.5 68q-43 43 -116 50.5t-136.5 -8t-115.5 -42.5q47 -45 47 -92 q-34 -32 -50 -46t-53.5 -30t-80.5 -16q-44 22 -63 58t-13.5 69.5zM195 301q0 -43 16 -80.5t30 -53.5t46 -50h184q42 0 89.5 38.5t47.5 100.5l47 45q20 20 20 54.5t-10 88.5t-10 86q-32 -32 -78 -46.5t-88 -16t-100.5 -8t-101.5 -21.5q-15 0 -26.5 -15.5t-18.5 -36 t-19.5 -45.5t-27.5 -40zM826.5 685q-5.5 -32 11.5 -62h460q0 23 -23.5 69t-23.5 68q-22 23 -68 69.5t-69 69.5q-46 0 -114.5 -23.5t-114.5 -23.5q0 -30 -13.5 -62t-26.5 -52.5t-18.5 -52.5z" />
<glyph unicode="&#xe7;" horiz-adv-x="1073" d="M72 478.5q3 64.5 14.5 121t30.5 113.5q18 18 28.5 39.5t11.5 33.5l1 13q166 217 524 217q30 -30 64 -36.5t110 -6.5l131 -174q-2 -65 -19.5 -107.5t-68.5 -66.5q-41 0 -59.5 1.5t-42.5 9.5t-39.5 26.5t-32.5 50.5q-19 18 -19 50.5t10 55.5l9 23q-46 -13 -90.5 -12.5 t-78 8t-70 -0.5t-66.5 -38q-19 0 -40.5 -21.5t-48 -58.5t-40.5 -51q-18 -70 -23 -137.5t5 -138.5t47.5 -135.5t99.5 -111.5q45 -22 97 -18.5t96.5 21t68.5 40.5l43 -43q17 33 52 72.5t57 73t22 71.5q20 21 44.5 31.5t41.5 12.5t45 2q10 -31 11 -62.5t-4.5 -56t-18 -52 t-24 -47t-27.5 -46.5t-25 -44q-156 -102 -313 -123l-15 -30l54 6q85 0 133 -31q61 -43 61 -127q0 -78 -69 -129q-71 -51 -156 -51q-77 0 -145 35q-72 35 -72 76q0 18 18 30q18 11 29 11q58 -28 65 -31q70 -31 93 -31q49 0 73 12q39 20 39 70q0 28 -18 55q-23 23 -47 23 q-16 0 -43 -10q-61 -25 -68 -25q-19 0 -35 23q-16 13 -16 24v10l29 88q-135 36 -221 107.5t-117 193.5q-46 30 -67.5 84t-18.5 118.5zM508 930q15 0 43 8q-25 10 -43 -8z" />
<glyph unicode="&#xe8;" horiz-adv-x="1128" d="M47 453q0 17 22.5 73t22.5 105q34 139 128.5 251t221.5 144q199 0 353.5 -93.5t220.5 -256.5q0 -21 4 -52.5t6 -53t0 -45t-15.5 -41.5t-39.5 -31q-198 68 -396 0q-59 20 -113.5 20t-110.5 -10t-85 -10q-25 -24 -29 -47t7 -43t26 -39t28 -43.5t13 -47.5q20 -39 53 -61.5 t70 -38t53 -31.5q127 0 228 58.5t168 161.5q34 0 61 -27.5t27 -61.5q0 -40 -20.5 -70.5t-75.5 -78.5t-78 -72q-58 -18 -122.5 -28.5t-141.5 -13.5t-148.5 19t-118.5 68q-24 37 -69.5 92t-74 92t-52 94t-23.5 118zM266 586q122 0 194.5 1.5t185.5 12t194 31.5q0 37 -28 84 t-60 47q-7 4 -39.5 21t-46.5 23.5t-44.5 19.5t-49.5 15t-44.5 3t-46.5 -9t-39 -28q-14 -29 -45.5 -54t-59 -41t-49.5 -48.5t-22 -77.5zM332 1442q3 9 8.5 18.5t16.5 22t17.5 20t24 25.5t23.5 24q14 14 22.5 16t11 -3t5 -12t4.5 -9q-1 -15 8 -25t19.5 -16.5t16.5 -22.5 t-1 -42l22 20l156 -190l8 -8q-1 -11 -6 -22t-14.5 -22t-16.5 -17.5t-18.5 -16t-13.5 -11.5q-35 29 -74 70t-66.5 73.5t-68.5 68t-84 59.5z" />
<glyph unicode="&#xe9;" horiz-adv-x="1101" d="M47 453q0 17 22.5 73t22.5 105q34 139 128.5 251t221.5 144q199 0 353.5 -93.5t220.5 -256.5q0 -21 4 -52.5t6 -53t0 -45t-15.5 -41.5t-39.5 -31q-198 68 -396 0q-59 20 -113.5 20t-110.5 -10t-85 -10q-25 -24 -29 -47t7 -43t26 -39t28 -43.5t13 -47.5q20 -39 53 -61.5 t70 -38t53 -31.5q127 0 228 58.5t168 161.5q34 0 61 -27.5t27 -61.5q0 -40 -20.5 -70.5t-75.5 -78.5t-78 -72q-58 -18 -122.5 -28.5t-141.5 -13.5t-148.5 19t-118.5 68q-24 37 -69.5 92t-74 92t-52 94t-23.5 118zM266 586q122 0 194.5 1.5t185.5 12t194 31.5q0 37 -28 84 t-60 47q-7 4 -39.5 21t-46.5 23.5t-44.5 19.5t-49.5 15t-44.5 3t-46.5 -9t-39 -28q-14 -29 -45.5 -54t-59 -41t-49.5 -48.5t-22 -77.5zM357 1327.5q-2 8.5 3 11t12 5t9 4.5q15 -1 25 8t16.5 19.5t22.5 16.5t42 -1l-20 22l190 156l9 8q14 -1 29 -10.5t23 -17.5t22 -25l14 -17 q-29 -35 -70 -74t-73.5 -66.5t-68 -68.5t-59.5 -84q-9 3 -18.5 9t-22 16.5t-20.5 18t-24.5 23.5t-24.5 24q-14 14 -16 22.5z" />
<glyph unicode="&#xea;" horiz-adv-x="1103" d="M47 453q0 17 22.5 73t22.5 105q34 139 128.5 251t221.5 144q199 0 353.5 -93.5t220.5 -256.5q0 -21 4 -52.5t6 -53t0 -45t-15.5 -41.5t-39.5 -31q-198 68 -396 0q-59 20 -113.5 20t-110.5 -10t-85 -10q-25 -24 -29 -47t7 -43t26 -39t28 -43.5t13 -47.5q20 -39 53 -61.5 t70 -38t53 -31.5q127 0 228 58.5t168 161.5q34 0 61 -27.5t27 -61.5q0 -40 -20.5 -70.5t-75.5 -78.5t-78 -72q-58 -18 -122.5 -28.5t-141.5 -13.5t-148.5 19t-118.5 68q-24 37 -69.5 92t-74 92t-52 94t-23.5 118zM240 1274q0 30 45 39q46 53 88 82q53 27 53 49q0 32 63 47 q14 42 31 55h4q17 -20 49 -20q54 -48 54 -80q0 -23 35 -23q14 -39 22 -39l29 2q15 -34 63 -34l21 -43q18 -6 18 -43q3 -65 -33 -78l-24 -8q-54 36 -68 55q-80 27 -98 74q0 11 -37 20l-8 45l-19 -4v-20l4 -21q-7 -7 -36 -10q-9 -21 -64 -39l-4 -4l18 -25v-20q-20 0 -20 8 q-32 0 -104 -57h-25l-27 -4q-25 37 -28 71zM266 586q122 0 194.5 1.5t185.5 12t194 31.5q0 37 -28 84t-60 47q-7 4 -39.5 21t-46.5 23.5t-44.5 19.5t-49.5 15t-44.5 3t-46.5 -9t-39 -28q-14 -29 -45.5 -54t-59 -41t-49.5 -48.5t-22 -77.5z" />
<glyph unicode="&#xeb;" horiz-adv-x="1085" d="M47 453q0 17 22.5 73t22.5 105q34 139 128.5 251t221.5 144q199 0 353.5 -93.5t220.5 -256.5q0 -21 4 -52.5t6 -53t0 -45t-15.5 -41.5t-39.5 -31q-198 68 -396 0q-59 20 -113.5 20t-110.5 -10t-85 -10q-25 -24 -29 -47t7 -43t26 -39t28 -43.5t13 -47.5q20 -39 53 -61.5 t70 -38t53 -31.5q127 0 228 58.5t168 161.5q34 0 61 -27.5t27 -61.5q0 -40 -20.5 -70.5t-75.5 -78.5t-78 -72q-58 -18 -122.5 -28.5t-141.5 -13.5t-148.5 19t-118.5 68q-24 37 -69.5 92t-74 92t-52 94t-23.5 118zM235.5 1355q-1.5 11 0 23t10 21.5t24.5 19.5 q17 19 23.5 24.5t19.5 14.5t23 6.5t20 -14.5q20 0 33.5 -12.5t19.5 -27.5t15.5 -43.5t17.5 -45.5q-5 -5 -29.5 -41.5t-58.5 -54.5q-37 0 -61.5 17t-50.5 48q0 16 -2.5 35t-4 30zM266 586q122 0 194.5 1.5t185.5 12t194 31.5q0 37 -28 84t-60 47q-7 4 -39.5 21t-46.5 23.5 t-44.5 19.5t-49.5 15t-44.5 3t-46.5 -9t-39 -28q-14 -29 -45.5 -54t-59 -41t-49.5 -48.5t-22 -77.5zM674 1384q11 12 20 30t16.5 27t20.5 9q43 22 79 1.5t36 -69.5q20 -12 24.5 -28.5t-7.5 -38t-20 -32t-26 -30.5q-23 -25 -47.5 -25t-67.5 25q-33 38 -28 131z" />
<glyph unicode="&#xec;" horiz-adv-x="1042" d="M70.5 49.5q4.5 19.5 16.5 33.5t25 33.5t13 33.5q0 12 4.5 16.5t13.5 2t19 -6.5t24.5 -8t26.5 -4q38 -20 91 -20t105.5 10t61.5 10q-18 96 -18 214.5t9 263.5t9 216q-31 15 -70 17.5t-88.5 -8t-88 -22t-99.5 -32.5q-40 21 -47 55.5t7.5 64t39.5 54.5h479q29 -44 37 -98 t0.5 -103t-8 -111t11.5 -122q0 -66 -20.5 -195.5t-20.5 -193.5q38 -20 91 -20t118 10t94 10h86q64 -67 0 -134v-41h-780q-23 0 -66.5 20.5t-64.5 20.5q-16 14 -11.5 33.5zM211 1442q3 9 8.5 18.5t16.5 22t17.5 20t24 25.5t23.5 24q14 14 22.5 16t11 -3t5 -12t4.5 -9 q-1 -15 8 -25t19.5 -16.5t16.5 -22.5t-1 -42l23 20l155 -190l8 -8q-1 -11 -6 -22t-14.5 -22t-16.5 -17.5t-18.5 -16t-13.5 -11.5q-35 29 -74 70t-66.5 73.5t-68.5 68t-84 59.5z" />
<glyph unicode="&#xed;" horiz-adv-x="1044" d="M62.5 49.5q4.5 19.5 16.5 33.5t25 33.5t13 33.5q0 12 4.5 16.5t13.5 2t19 -6.5t24.5 -8t26.5 -4q38 -20 91 -20t105.5 10t61.5 10q-18 96 -18 214.5t9 263.5t9 216q-31 15 -70 17.5t-88.5 -8t-88 -22t-99.5 -32.5q-40 21 -47 55.5t7.5 64t39.5 54.5h479q29 -44 37 -98 t0.5 -103t-8 -111t11.5 -122q0 -66 -20.5 -195.5t-20.5 -193.5q38 -20 91 -20t118 10t94 10h86q64 -67 0 -134v-41h-780q-23 0 -66.5 20.5t-64.5 20.5q-16 14 -11.5 33.5zM451 1276q39 48 102.5 104.5t116.5 111t88 116.5q10 -3 20.5 -9.5t25.5 -19.5l22.5 -19.5t29 -28 t27.5 -26.5q15 -15 17 -24.5t-3 -12.5t-14 -6t-11 -6q-16 1 -28 -9.5t-19 -22t-25 -18t-48 0.5l24 -25l-217 -176l-8 -10q-16 1 -33 11.5t-26.5 20.5t-24 28t-16.5 20z" />
<glyph unicode="&#xee;" horiz-adv-x="1052" d="M68.5 49.5q4.5 19.5 16.5 33.5t25 33.5t13 33.5q0 12 4.5 16.5t13.5 2t19 -6.5t24.5 -8t26.5 -4q38 -20 91 -20t105.5 10t61.5 10q-18 96 -18 214.5t9 263.5t9 216q-31 15 -70 17.5t-88.5 -8t-88 -22t-99.5 -32.5q-40 21 -47 55.5t7.5 64t39.5 54.5h479q29 -44 37 -98 t0.5 -103t-8 -111t11.5 -122q0 -66 -20.5 -195.5t-20.5 -193.5q38 -20 91 -20t118 10t94 10h86q64 -67 0 -134v-41h-780q-23 0 -66.5 20.5t-64.5 20.5q-16 14 -11.5 33.5zM147 1319q0 30 46 39q46 53 88 82q53 27 53 49q0 32 63 47q14 42 31 55h4q17 -20 49 -20 q54 -48 54 -80q0 -23 34 -23q14 -38 23 -38l29 2q15 -35 63 -35l21 -43q18 -6 18 -43q3 -65 -33 -78l-24 -8q-54 36 -68 55q-80 27 -98 74q0 11 -37 20l-8 45l-19 -4v-20l4 -21q-7 -7 -37 -10q-9 -22 -63 -39l-4 -4l18 -25v-20q-20 0 -20 8q-33 0 -105 -57h-24l-27 -4 q-25 37 -28 71z" />
<glyph unicode="&#xef;" horiz-adv-x="1073" d="M84.5 49.5q4.5 19.5 16.5 33.5t25 33.5t13 33.5q0 12 4.5 16.5t13.5 2t19 -6.5t24.5 -8t26.5 -4q38 -20 91 -20t105.5 10t61.5 10q-18 96 -18 214.5t9 263.5t9 216q-31 15 -70 17.5t-88.5 -8t-88 -22t-99.5 -32.5q-40 21 -47 55.5t7.5 64t39.5 54.5h479q29 -44 37 -98 t0.5 -103t-8 -111t11.5 -122q0 -66 -20.5 -195.5t-20.5 -193.5q38 -20 91.5 -20t118.5 10t94 10h86q64 -67 0 -134v-41h-781q-23 0 -66.5 20.5t-64.5 20.5q-16 14 -11.5 33.5zM86.5 1370q-0.5 11 8 25t28.5 26q17 19 23.5 24.5t19.5 14.5t23 6.5t20 -14.5q20 0 33.5 -12.5 t19.5 -27.5t15.5 -43.5t17.5 -45.5q-5 -5 -29.5 -41.5t-58.5 -54.5q-37 0 -62.5 17t-50.5 48q0 18 -3.5 42.5t-4 35.5zM526 1386q11 12 20.5 30t17 27t20.5 9q43 22 78.5 1.5t35.5 -69.5q20 -12 24.5 -29t-7 -38t-20 -31.5t-25.5 -30.5q-23 -25 -47.5 -25t-67.5 25 q-34 39 -29 131z" />
<glyph unicode="&#xf0;" horiz-adv-x="968" d="M43 440q0 210 139 367q117 129 281 129q50 0 88 -14q25 -7 82 -45q-77 158 -189 292l-247 -135l-29 56l233 131q-72 72 -100 94q-52 40 -88 63l27 43q114 -56 247 -153l248 139l35 -55l-229 -131q186 -160 284.5 -358.5t98.5 -389.5q3 -135 -56 -252t-164 -185.5 t-229 -64.5q-180 0 -307 133q-125 134 -125 336zM229 518q0 -140 39 -250q40 -111 107.5 -168t146.5 -57q98 0 157.5 82.5t59.5 251.5q0 224 -80 360q-76 137 -204 137q-104 0 -165 -85.5t-61 -270.5z" />
<glyph unicode="&#xf1;" horiz-adv-x="1374" d="M82 14q13 15 12 34t-8.5 34.5t0.5 34.5t39 35q14 0 55 -10.5t75 -10.5t54 21v731q-16 14 -32.5 8.5t-41 -15.5t-47.5 -19.5t-52 -4.5t-54 31q0 38 28.5 87.5t61.5 49.5q25 -25 59 -27t64.5 7t60 13.5t53 -15t35.5 -70.5q0 -15 -9.5 -42.5t-9.5 -50.5t19 -44q24 0 71 46 t69 46q13 39 36.5 62.5t54 32.5t60.5 13.5t65 10.5t58 18q32 0 65 -13t68.5 -40.5t50.5 -41t45 -42.5q19 -122 19 -248.5t-9.5 -282t-9.5 -248.5h91q21 21 33 21t26.5 -10.5t30.5 -10.5q17 0 27 -7t14 -22.5t5 -27t1 -33.5q-31 -32 -76.5 -45.5t-81 -12t-88 7t-74.5 5.5 q-18 14 -55.5 13t-75.5 -8.5t-67 1t-29 39.5q0 22 1 33.5t4.5 27t13 22.5t24.5 7h184q-25 74 -31.5 162.5t-2 166t7 155.5t-12.5 155t-53 140q-70 32 -160 5t-159 -97q-100 -65 -137 -211.5t-3 -290.5q-18 -20 -20 -44.5t-3.5 -48.5t-19.5 -44q18 -18 46 -29.5t55 -15.5 t55.5 -8t49 -10.5t33 -19.5t10.5 -37.5t-21 -62.5h-137q-34 0 -106.5 -5.5t-118.5 -7t-100 12t-85 45.5zM313 1311q2 8 2 18q0 8 17 35q4 6 28 16q2 6 11 25l45 33q24 5 40 11.5t20 9.5t16 14q40 10 53 10q28 0 78 -29q3 -4 6 -8.5l6 -9t4 -6.5l39 -25l59 -37q13 -10 60 -43 q32 -12 67 -12q36 0 64 16q12 8 18 14l21 21l37 31l28 32q28 19 43 13q14 -3 19 -17q8 -14 -7 -45q-3 -7 -10.5 -15t-17 -15.5t-10.5 -8.5l-39 -47q-25 -4 -27 -6q-3 -20 -6 -26q-6 -3 -27 -17l-45 -16q-45 -39 -86 -39q-13 0 -26 10h-39l-66 19q-34 13 -59 32l-49 37 q-1 1 -5.5 16.5t-5.5 16.5q-11 -2 -20.5 0.5t-14.5 6t-12 10t-8 7.5q-8 7 -29.5 14.5t-31.5 6.5q-9 0 -33 -15t-31 -18q-27 -27 -41 -39q-17 -3 -26 0q-9 6 -9 19z" />
<glyph unicode="&#xf2;" horiz-adv-x="1183" d="M45 477q0 44 44 108.5t44 108.5q15 62 52.5 114t89.5 88.5t100.5 60.5t103.5 42q66 0 102 -1.5t92 -9t104 -27t95 -50.5l132 -129q142 -349 -43 -655q-42 -42 -220 -129q-5 -2 -40.5 -14.5t-41 -14t-35.5 -10.5t-39 -8.5t-34.5 -3t-39 1t-35.5 9t-42 15.5t-41 25h-43 q-60 24 -107 64t-76 82.5t-52.5 100.5t-36.5 104t-28 106q-3 15 -5 22zM251 604.5q1 -28.5 6 -83t5 -89.5q0 -93 53.5 -181.5t122.5 -123.5q229 -76 348 45q62 62 89.5 153t24 173.5t-27.5 152.5q-28 14 -51 38.5t-35.5 43.5t-34.5 34t-51 15q-45 15 -67.5 21t-63 15t-68 7 t-63 -9t-67.5 -27t-64 -52q-31 -30 -44 -67t-12 -65.5zM301 1479q3 9 8.5 18.5t16.5 22t17.5 20t24 25.5t23.5 24q14 14 22.5 16t11 -3t5 -12t4.5 -9q-1 -15 8 -25t19.5 -16.5t16.5 -22.5t-1 -42l23 20l155 -190l9 -9q-1 -14 -10.5 -29t-17.5 -23t-25 -22l-17 -14 q-35 29 -74 70t-66.5 73.5t-68.5 68t-84 59.5z" />
<glyph unicode="&#xf3;" horiz-adv-x="1144" d="M45 477q0 44 44 108.5t44 108.5q15 62 52.5 114t89.5 88.5t100.5 60.5t103.5 42q66 0 102 -1.5t92 -9t104 -27t95 -50.5l132 -129q142 -349 -43 -655q-42 -42 -220 -129q-5 -2 -40.5 -14.5t-41 -14t-35.5 -10.5t-39 -8.5t-34.5 -3t-39 1t-35.5 9t-42 15.5t-41 25h-43 q-60 24 -107 64t-76 82.5t-52.5 100.5t-36.5 104t-28 106q-3 15 -5 22zM251 604.5q1 -28.5 6 -83t5 -89.5q0 -93 53.5 -181.5t122.5 -123.5q229 -76 348 45q62 62 89.5 153t24 173.5t-27.5 152.5q-28 14 -51 38.5t-35.5 43.5t-34.5 34t-51 15q-45 15 -67.5 21t-63 15t-68 7 t-63 -9t-67.5 -27t-64 -52q-31 -30 -44 -67t-12 -65.5zM479 1294q29 35 70 74t73.5 66.5t68 68.5t59.5 84q9 -3 18.5 -8.5t22 -16.5t20 -17.5t25.5 -24t24 -23.5q14 -14 16 -22.5t-3 -11t-12 -5t-9 -4.5q-15 1 -25.5 -8t-16.5 -19.5t-22.5 -16.5t-42.5 1l21 -22l-191 -156 l-8 -8q-11 1 -22 6t-21.5 14.5t-17.5 16.5t-16 18.5t-11 13.5z" />
<glyph unicode="&#xf4;" horiz-adv-x="1159" d="M45 477q0 44 44 108.5t44 108.5q15 62 52.5 114t89.5 88.5t100.5 60.5t103.5 42q66 0 102 -1.5t92 -9t104 -27t95 -50.5l132 -129q142 -349 -43 -655q-42 -42 -220 -129q-5 -2 -40.5 -14.5t-41 -14t-35.5 -10.5t-39 -8.5t-34.5 -3t-39 1t-35.5 9t-42 15.5t-41 25h-43 q-60 24 -107 64t-76 82.5t-52.5 100.5t-36.5 104t-28 106q-3 15 -5 22zM251 604.5q1 -28.5 6 -83t5 -89.5q0 -93 53.5 -181.5t122.5 -123.5q229 -76 348 45q62 62 89.5 153t24 173.5t-27.5 152.5q-28 14 -51 38.5t-35.5 43.5t-34.5 34t-51 15q-45 15 -67.5 21t-63 15t-68 7 t-63 -9t-67.5 -27t-64 -52q-31 -30 -44 -67t-12 -65.5zM272 1274q0 30 45 39q44 51 89 82q53 27 53 49q0 32 63 47q14 42 31 55h4q17 -20 49 -20q53 -47 53 -80q0 -23 35 -23q14 -39 23 -39l28 2q15 -34 64 -34l20 -43q19 -6 19 -43q3 -65 -33 -78l-24 -8q-54 36 -68 55 q-80 27 -98 74q0 11 -37 20l-8 45l-19 -4v-20l4 -21q-7 -7 -37 -10q-9 -22 -63 -39l-4 -4l18 -25v-20q-20 0 -20 8q-33 0 -105 -57h-24l-27 -4q-26 39 -29 71z" />
<glyph unicode="&#xf5;" horiz-adv-x="1155" d="M45 477q0 44 44 108.5t44 108.5q15 62 52.5 114t89.5 88.5t100.5 60.5t103.5 42q66 0 102 -1.5t92 -9t104 -27t95 -50.5l132 -129q142 -349 -43 -655q-42 -42 -220 -129q-5 -2 -40.5 -14.5t-41 -14t-35.5 -10.5t-39 -8.5t-34.5 -3t-39 1t-35.5 9t-42 15.5t-41 25h-43 q-60 24 -107 64t-76 82.5t-52.5 100.5t-36.5 104t-28 106q-3 15 -5 22zM180 1346q2 8 2 18q0 8 17 35q4 6 28 16q1 6 11 25l45 33q24 5 39.5 11t19.5 9.5t16 13.5q44 11 54 11q27 0 77 -29q4 -6 11 -15l6 -10l39 -24l59 -37q13 -10 60 -43q32 -12 67 -12q36 0 64 16 q12 8 18 14l21 21l36 31l29 32q28 19 43 13q14 -3 19 -17q8 -14 -7 -45q-3 -7 -11 -15t-17.5 -15.5t-10.5 -8.5l-38 -47q-25 -3 -27 -6q-3 -21 -6 -27q-12 -6 -27 -16l-45 -16q-45 -39 -86 -39q-14 0 -27 10h-38l-66 18q-32 12 -59 33l-50 37q-1 1 -5 16.5t-5 16.5 q-11 -2 -20.5 0.5t-14.5 6t-12 10t-8 7.5q-8 7 -30 14.5t-32 6.5q-9 0 -32.5 -15t-30.5 -18q-27 -27 -41 -39q-18 -3 -27 0q-8 5 -8 19zM251 604.5q1 -28.5 6 -83t5 -89.5q0 -93 53.5 -181.5t122.5 -123.5q229 -76 348 45q62 62 89.5 153t24 173.5t-27.5 152.5 q-28 14 -51 38.5t-35.5 43.5t-34.5 34t-51 15q-45 15 -67.5 21t-63 15t-68 7t-63 -9t-67.5 -27t-64 -52q-31 -30 -44 -67t-12 -65.5z" />
<glyph unicode="&#xf6;" horiz-adv-x="1107" d="M45 477q0 44 44 108.5t44 108.5q15 62 52.5 114t89.5 88.5t100.5 60.5t103.5 42q66 0 102 -1.5t92 -9t104 -27t95 -50.5l132 -129q142 -349 -43 -655q-42 -42 -220 -129q-5 -2 -40.5 -14.5t-41 -14t-35.5 -10.5t-39 -8.5t-34.5 -3t-39 1t-35.5 9t-42 15.5t-41 25h-43 q-60 24 -107 64t-76 82.5t-52.5 100.5t-36.5 104t-28 106q-3 15 -5 22zM251 604.5q1 -28.5 6 -83t5 -89.5q0 -93 53.5 -181.5t122.5 -123.5q229 -76 348 45q62 62 89.5 153t24 173.5t-27.5 152.5q-28 14 -51 38.5t-35.5 43.5t-34.5 34t-51 15q-45 15 -67.5 21t-63 15t-68 7 t-63 -9t-67.5 -27t-64 -52q-31 -30 -44 -67t-12 -65.5zM264.5 1366q-0.5 11 8 25t28.5 26q17 19 23.5 24.5t19.5 14.5t23 6.5t20 -14.5q20 0 33.5 -12.5t19.5 -27.5t15.5 -43.5t17.5 -45.5q-5 -5 -29.5 -41.5t-58.5 -54.5q-37 0 -62.5 17t-50.5 48q0 18 -3.5 42.5t-4 35.5z M705 1382q11 12 20 30t16.5 27t20.5 9q43 22 79 1.5t36 -69.5q20 -12 24.5 -28.5t-7.5 -38t-20 -32t-26 -30.5q-23 -25 -47.5 -25t-67.5 25q-33 38 -28 131z" />
<glyph unicode="&#xf7;" horiz-adv-x="976" d="M14 414v139h949v-139h-949zM373 207q0 49 35 84q33 33 81 33t84 -31q31 -36 31 -86q0 -46 -31 -82q-35 -35 -84 -35q-48 0 -81 33q-35 30 -35 84zM373 758q0 49 35 84q32 32 81 32q48 0 82 -34q33 -33 33 -82q0 -46 -31 -82q-35 -35 -84 -35q-48 0 -82 33.5t-34 83.5z " />
<glyph unicode="&#xf8;" horiz-adv-x="1181" d="M86.5 488.5q-4.5 96.5 19 181.5t72.5 184q27 14 90.5 47.5t97 50.5t92 38.5t102.5 27t101.5 0.5t112.5 -27q5 0 12.5 -1t20 -12.5t12.5 -31.5q25 24 47.5 69.5t42.5 67.5q43 0 83.5 -30.5t8.5 -61.5q0 -15 -13.5 -27t-26.5 -18t-18 -18t13 -27q105 -140 131.5 -298 t-38.5 -298q0 -52 -14.5 -89t-41 -60.5t-54 -40t-62.5 -39t-58 -45.5q-48 -31 -105 -44t-98.5 -11.5t-107 7t-100.5 5.5q0 19 -11.5 30t-22.5 12l-12 1q0 -19 -11 -41.5t-23 -35.5l-11 -13q-27 -13 -45 -17.5t-31 1.5t-20 13t-20 23.5t-23 26.5q0 21 46 66.5t46 68.5 q-27 14 -45 27.5t-30.5 32t-19.5 32t-19 42.5t-21 48q-44 87 -48.5 183.5zM225 580q0 -54 1 -82.5t8 -76.5t20.5 -79t40.5 -66t67 -61q5 11 41.5 93t68.5 134t73 93q0 15 13.5 27t26.5 18.5t18.5 19t-11.5 27.5q39 19 64 55t53 85.5t65 86.5q-16 32 -50 46t-63 12.5 t-68 -6.5t-48 -5q-155 0 -275 -229q-22 -22 -22 -45t-23 -47zM408 123q69 -34 160.5 -34t158.5 34q44 0 77 15t52.5 36.5t35.5 57.5t24 66t19.5 74.5t20.5 71.5q0 60 -1.5 93.5t-12.5 86t-33 95.5l-43 43q-36 -35 -76.5 -97t-77 -110t-75.5 -68q0 -47 -92 -135 q-23 -46 -69 -114.5t-68 -114.5z" />
<glyph unicode="&#xf9;" horiz-adv-x="1320" d="M35 932q32 47 76.5 65.5t83.5 14.5t85.5 -3.5t75.5 15.5l45 -92v-733q0 -26 10.5 -45t24.5 -28t36 -14t35 -5.5t32 -0.5q48 0 90.5 11.5t75 28t65 48t53 56.5t48 71t41.5 73t40 79v367q-32 32 -62.5 45.5t-50.5 12t-55.5 -7t-60.5 -5.5v92q38 20 99 22t121.5 3.5 t98.5 21.5q24 -46 24 -161t24 -161q-22 -63 -33 -153.5t-13 -151t-2 -153.5q0 -15 -10 -43.5t-10 -51.5t20 -43q29 -14 55 -8.5t52.5 13t48.5 12.5t41.5 -9t32.5 -53q0 -35 -28 -63.5t-62 -28.5q-8 0 -49 -5.5t-74 -7t-77.5 12t-76.5 45.5v138q-111 -111 -242 -163.5 t-262 -19.5q-40 20 -64 55t-40.5 73.5t-32.5 54.5v596q0 16 10 44t10 50.5t-20 42.5q-29 15 -55 10t-52.5 -12.5t-48 -12.5t-41 9.5t-32.5 52.5zM393 1489q3 9 8.5 18.5t16.5 22t17.5 20t24 25.5t23.5 24q14 14 22.5 16t11 -3t5 -12t4.5 -9q-1 -15 8 -25t19.5 -16.5 t16.5 -22.5t-1 -42l23 20l156 -190l8 -8q-1 -14 -10.5 -29t-17.5 -23t-25 -22l-17 -14q-43 35 -92.5 90.5t-97.5 102.5t-103 77z" />
<glyph unicode="&#xfa;" horiz-adv-x="1331" d="M35 932q32 47 76.5 65.5t83.5 14.5t85.5 -3.5t75.5 15.5l45 -92v-733q0 -26 10.5 -45t24.5 -28t36 -14t35 -5.5t32 -0.5q48 0 90.5 11.5t75 28t65 48t53 56.5t48 71t41.5 73t40 79v367q-32 32 -62.5 45.5t-50.5 12t-55.5 -7t-60.5 -5.5v92q38 20 99 22t121.5 3.5 t98.5 21.5q24 -46 24 -161t24 -161q-22 -63 -33 -153.5t-13 -151t-2 -153.5q0 -15 -10 -43.5t-10 -51.5t20 -43q29 -14 55 -8.5t52.5 13t48.5 12.5t41.5 -9t32.5 -53q0 -35 -28 -63.5t-62 -28.5q-8 0 -49 -5.5t-74 -7t-77.5 12t-76.5 45.5v138q-111 -111 -242 -163.5 t-262 -19.5q-40 20 -64 55t-40.5 73.5t-32.5 54.5v596q0 16 10 44t10 50.5t-20 42.5q-29 15 -55 10t-52.5 -12.5t-48 -12.5t-41 9.5t-32.5 52.5zM528 1300q29 35 70 74t73.5 66.5t68 68.5t59.5 84q9 -3 18.5 -8.5t22 -16.5t20 -17.5t25.5 -24t24 -23.5q14 -14 16 -22.5 t-3 -11t-12 -5t-9 -4.5q-15 1 -25 -8t-16.5 -19.5t-22.5 -16.5t-42 1l20 -22l-190 -156l-9 -8q-11 1 -22 6t-21.5 14.5t-17.5 16.5t-16 18.5t-11 13.5z" />
<glyph unicode="&#xfb;" horiz-adv-x="1327" d="M35 932q32 47 76.5 65.5t83.5 14.5t85.5 -3.5t75.5 15.5l45 -92v-733q0 -26 10.5 -45t24.5 -28t36 -14t35 -5.5t32 -0.5q48 0 90.5 11.5t75 28t65 48t53 56.5t48 71t41.5 73t40 79v367q-32 32 -62.5 45.5t-50.5 12t-55.5 -7t-60.5 -5.5v92q38 20 99 22t121.5 3.5 t98.5 21.5q24 -46 24 -161t24 -161q-22 -63 -33 -153.5t-13 -151t-2 -153.5q0 -15 -10 -43.5t-10 -51.5t20 -43q29 -14 55 -8.5t52.5 13t48.5 12.5t41.5 -9t32.5 -53q0 -35 -28 -63.5t-62 -28.5q-8 0 -49 -5.5t-74 -7t-77.5 12t-76.5 45.5v138q-111 -111 -242 -163.5 t-262 -19.5q-40 20 -64 55t-40.5 73.5t-32.5 54.5v596q0 16 10 44t10 50.5t-20 42.5q-29 15 -55 10t-52.5 -12.5t-48 -12.5t-41 9.5t-32.5 52.5zM301 1346q0 29 45 38q46 53 88 82q53 27 53 50q0 32 64 47q14 42 31 55h4q18 -21 49 -21q53 -47 53 -79q0 -23 35 -23 q14 -39 22 -39l29 2q15 -35 64 -35l20 -43q19 -6 19 -43q3 -64 -33 -77l-25 -9q-51 33 -67 56q-81 28 -99 73q0 12 -37 21l-8 45l-18 -4v-21l4 -20q-7 -7 -37 -10q-9 -22 -63 -39l-5 -4l19 -25v-20q-21 0 -21 8q-31 0 -104 -58h-25l-26 -4q-26 38 -29 72z" />
<glyph unicode="&#xfc;" horiz-adv-x="1314" d="M35 932q32 47 76.5 65.5t83.5 14.5t85.5 -3.5t75.5 15.5l45 -92v-733q0 -26 10.5 -45t24.5 -28t36 -14t35 -5.5t32 -0.5q48 0 90.5 11.5t75 28t65 48t53 56.5t48 71t41.5 73t40 79v367q-32 32 -62.5 45.5t-50.5 12t-55.5 -7t-60.5 -5.5v92q38 20 99 22t121.5 3.5 t98.5 21.5q24 -46 24 -161t24 -161q-22 -63 -33 -153.5t-13 -151t-2 -153.5q0 -15 -10 -43.5t-10 -51.5t20 -43q29 -14 55 -8.5t52.5 13t48.5 12.5t41.5 -9t32.5 -53q0 -35 -28 -63.5t-62 -28.5q-8 0 -49 -5.5t-74 -7t-77.5 12t-76.5 45.5v138q-111 -111 -242 -163.5 t-262 -19.5q-40 20 -64 55t-40.5 73.5t-32.5 54.5v596q0 16 10 44t10 50.5t-20 42.5q-29 15 -55 10t-52.5 -12.5t-48 -12.5t-41 9.5t-32.5 52.5zM276.5 1404q-1.5 11 0 23t10 21.5t24.5 19.5q17 19 23.5 24.5t19.5 14.5t23 6.5t20 -14.5q20 0 33.5 -12.5t19.5 -27.5 t15.5 -43.5t17.5 -45.5q-5 -5 -29.5 -41.5t-58.5 -54.5q-37 0 -61.5 17t-50.5 48q0 16 -2.5 35t-4 30zM715 1434q11 12 20 29.5t16.5 26.5t20.5 9q43 22 79 2t36 -69q20 -12 24.5 -28.5t-7.5 -38t-20 -32t-26 -30.5q-23 -25 -47.5 -25t-67.5 25q-33 38 -28 131z" />
<glyph unicode="&#xfd;" horiz-adv-x="1335" d="M77 902q19 28 56 28h438q67 -68 0 -135h-133v-43q44 -59 79 -133t54.5 -132.5t54.5 -131.5t79 -132q45 0 45 131q-12 12 -8.5 27t17 27t26 27t17 27t-8.5 27q43 80 66.5 142t23.5 121q-16 8 -43.5 18.5t-41.5 17t-31.5 19t-23 27t-5 39t11.5 57.5h354q40 0 57 -1t37.5 -5 t27.5 -13.5t7 -25.5q20 -20 20 -42.5t-10 -49.5t-10 -41q-43 0 -108 21.5t-111 21.5q-23 -44 -45 -175.5t-43 -175.5q-24 -72 -70 -190t-75 -195t-52.5 -189.5t-23.5 -219.5q-15 -30 -40.5 -53.5t-48.5 -36t-48.5 -35t-39.5 -51.5q-31 14 -74 13.5t-80.5 -8t-80.5 0.5 t-74 39q-42 38 -64 76.5t-22 99.5q0 9 -5.5 39t-7 54t11 59.5t42.5 66.5q22 -22 67 -22t68 -23q43 -43 43 -86q-12 0 -21.5 -13t-15 -29.5t-13 -32t-15 -20.5t-21.5 5l43 -43q64 -37 125.5 -28t93.5 73q21 65 65 174.5t66 175.5q0 39 -22.5 74t-57.5 75t-51 74 q-42 124 -131 305q0 70 -34.5 130.5t-98.5 91.5q-11 0 -35.5 -8t-46.5 -13.5t-44.5 -6t-36 17.5t-13.5 55q-30 34 -11 62zM584 1262q35 43 90.5 92.5t102.5 97t77 102.5q8 -2 16.5 -7.5t16 -10.5t19 -16t18 -16.5t21 -20t20.5 -19.5q14 -14 16 -22.5t-3 -11t-12.5 -5 t-9.5 -4.5q-15 1 -25 -8t-16.5 -19.5t-22.5 -16.5t-42 1l20 -22l-190 -156l-8 -8q-14 1 -29 10.5t-23 17.5t-22 25z" />
<glyph unicode="&#xfe;" horiz-adv-x="663" d="M94 66q9 31 12 125.5t27 132.5q-11 65 -6.5 98.5t14.5 85.5t9 88q3 30 -2.5 95t-2.5 95q7 289 -20 519q14 21 14.5 51.5t-5 55.5t2.5 56.5t35 57.5q24 20 65.5 2t55.5 -15q17 -30 19.5 -65.5t4.5 -42.5q-6 -9 -20 -20t-21.5 -21.5t-3.5 -26.5q-2 -29 2.5 -86.5t4.5 -76.5 h-7q-4 -27 -2 -39q-2 -8 -4 -34.5t-8 -35.5q17 -23 16.5 -46t-9 -40t-8 -40t18.5 -46q-12 -20 -28 -45q-7 -24 -15.5 -98.5t-19.5 -98.5q13 -8 5 -19.5t5 -19.5l5 5q7 1 3 -37q12 -9 8 -14t-0.5 -16.5t23.5 -23.5q-14 -21 -16 -65t-10 -66q-8 -9 -5 -12q-2 -3 -6 -10.5 t-6 -10.5l19 -71q-16 -24 -2 -79t0 -77q-11 -17 -6.5 -39.5t22.5 -34.5q3 -27 -23.5 -46t-44.5 -7q-16 -4 -32.5 7t-33.5 29t-24 22zM231 383q10 -13 172 29q126 66 158 100q135 239 33 514l-96 102q-33 24 -63 35t-44 13t-55 0t-57 -2q0 -5 -1.5 -15t-1.5 -14q-1 -2 -3 -5 t-3 -5q5 -45 38 -73.5t67 -35.5q21 0 36.5 -11.5t24.5 -27t25.5 -34t36.5 -29.5q18 -54 20.5 -119t-18 -136.5t-64.5 -119.5q-29 -32 -109.5 -87.5t-90.5 -66.5q-1 -2 -2.5 -6t-2.5 -6z" />
<glyph unicode="&#xff;" horiz-adv-x="1294" d="M77 902q19 28 56 28h438q67 -68 0 -135h-133v-43q44 -59 79 -133t54.5 -132.5t54.5 -131.5t79 -132q45 0 45 131q-12 12 -8.5 27t17 27t26 27t17 27t-8.5 27q43 80 66.5 142t23.5 121q-16 8 -43.5 18.5t-41.5 17t-31.5 19t-23 27t-5 39t11.5 57.5h354q40 0 57 -1t37.5 -5 t27.5 -13.5t7 -25.5q20 -20 20 -42.5t-10 -49.5t-10 -41q-43 0 -108 21.5t-111 21.5q-23 -44 -45 -175.5t-43 -175.5q-24 -72 -70 -190t-75 -195t-52.5 -189.5t-23.5 -219.5q-15 -30 -40.5 -53.5t-48.5 -36t-48.5 -35t-39.5 -51.5q-31 14 -74 13.5t-80.5 -8t-80.5 0.5 t-74 39q-42 38 -64 76.5t-22 99.5q0 9 -5.5 39t-7 54t11 59.5t42.5 66.5q22 -22 67 -22t68 -23q43 -43 43 -86q-12 0 -21.5 -13t-15 -29.5t-13 -32t-15 -20.5t-21.5 5l43 -43q64 -37 125.5 -28t93.5 73q21 65 65 174.5t66 175.5q0 39 -22.5 74t-57.5 75t-51 74 q-42 124 -131 305q0 70 -34.5 130.5t-98.5 91.5q-11 0 -35.5 -8t-46.5 -13.5t-44.5 -6t-36 17.5t-13.5 55q-30 34 -11 62zM328.5 1403q-0.5 11 8 25t28.5 26q17 19 23.5 24.5t19.5 14.5t23 6.5t20 -14.5q20 0 33.5 -12.5t19.5 -27.5t15.5 -43.5t17.5 -45.5 q-5 -5 -29.5 -41.5t-58.5 -54.5q-37 0 -62.5 17t-50.5 48q0 18 -3.5 42.5t-4 35.5zM768 1419q11 12 20 30t16.5 27t20.5 9q43 22 79 1.5t36 -69.5q20 -12 24.5 -28.5t-7.5 -38t-20 -32t-26 -30.5q-23 -25 -47 -25t-67 25q-34 39 -29 131z" />
<glyph unicode="&#x152;" horiz-adv-x="3411" d="M584 471q-29 179 25.5 374.5t174.5 346.5q41 0 101 40t100 40q60 0 92.5 -1.5t80.5 -8.5t84 -24t65 -46q239 -190 239 -762q-23 -47 -37 -73.5t-42 -75.5t-49.5 -79.5t-55 -70.5t-64.5 -65t-71 -46t-82 -30q-300 -62 -479 241q0 26 -13 54t-28 50t-28 58.5t-13 77.5z M666 549q0 -25 5.5 -51.5t21 -60.5t25 -55t36.5 -63.5t35 -55.5t41 -61t36 -52q110 -110 320 -41q96 59 161 168t92 227.5t27 245.5q-20 41 -60 141t-60 141l-78 80q-39 38 -103.5 54t-131 11t-128.5 -26q-42 -42 -67 -69.5t-61 -73.5t-54 -90.5t-18 -86.5q-39 -82 -39 -282 zM1208 1227q39 19 85.5 28.5t76.5 11t86 1.5h744q32 0 42.5 -5t41.5 -36q0 -37 11.5 -90.5t20.5 -91t3 -79.5t-35 -71q-31 0 -41.5 5t-42.5 36v250h-619l-41 -330q17 -18 18.5 -41.5t3.5 -57.5t19 -69q43 -21 94.5 -26t114 12t121.5 57q0 12 -9 49t-9 67.5t18 47.5 q84 -39 84 -207q-13 -28 -13 -68t7 -75.5t-0.5 -76t-36.5 -69.5q-29 14 -41 39.5t-11 47.5t6 60.5t5 59.5h-41q-26 0 -88 9t-113.5 9t-87.5 -18v-538h580q35 54 46.5 118t15 122t20.5 91q0 18 10.5 28.5t20.5 11.5l10 1q29 -43 35 -100.5t-3 -104.5t-20.5 -108.5 t-11.5 -97.5q-14 -28 -43.5 -36t-59 -1t-59.5 7t-45 -13h-828q0 22 -15 22q-5 0 -1 4q2 3 16 17q0 27 27 34t66 0.5t81.5 -7t73.5 11.5q18 17 10 43t-19 52t9 70v953q-28 12 -68 11.5t-75.5 -7.5t-76 0.5t-69.5 36.5z" />
<glyph unicode="&#x153;" horiz-adv-x="3411" d="M621 489q0 44 44 109t44 109q15 62 52.5 114t89.5 88.5t100.5 60.5t103.5 42q66 0 102 -1.5t92 -9t104 -27t95 -50.5l131 -129q142 -350 -43 -656q-43 -43 -219 -129q-5 -2 -40.5 -14.5t-41 -14t-35.5 -10.5t-39 -8.5t-34.5 -3t-39 1t-35.5 9t-42 15.5t-41 25h-43 q-60 24 -107 64t-76 82.5t-52.5 100.5t-36.5 104t-28 106q-3 15 -5 22zM827 616.5q1 -28.5 6 -83t5 -89.5q0 -93 53.5 -181.5t122.5 -123.5q229 -76 348 45q62 62 89.5 153t24 174t-27.5 153q-28 14 -51 38.5t-35.5 43.5t-34.5 34t-51 15q-45 15 -67.5 21t-63 15t-68 7 t-63 -9t-67.5 -27t-64 -52q-31 -30 -44 -67.5t-12 -66zM1493 453q0 17 22.5 73t22.5 105q34 139 128.5 251t221.5 144q199 0 353.5 -93.5t220.5 -256.5q0 -21 4 -52.5t6 -53t0 -45t-15.5 -41.5t-39.5 -31q-198 68 -396 0q-59 20 -113.5 20t-110.5 -10t-85 -10 q-25 -24 -29 -47t7 -43t26 -39t28 -43.5t13 -47.5q20 -39 53 -61.5t70 -38t53 -31.5q127 0 228 58.5t168 161.5q34 0 61 -27.5t27 -61.5q0 -40 -20.5 -70.5t-75.5 -78.5t-78 -72q-58 -18 -122.5 -28.5t-141.5 -13.5t-148.5 19t-118.5 68q-24 37 -69.5 92t-74 92t-52 94 t-23.5 118zM1712 586q122 0 194.5 1.5t185.5 12t194 31.5q0 37 -28 84t-60 47q-7 4 -39.5 21t-46.5 23.5t-44.5 19.5t-49.5 15t-44.5 3t-46.5 -9t-39 -28q-14 -29 -45.5 -54t-59 -41t-49.5 -48.5t-22 -77.5z" />
<glyph unicode="&#x178;" horiz-adv-x="1116" d="M25 1126q0 20 19 39t19 37q51 -16 108 -16t127 8t108 8q14 0 22.5 -5.5t11.5 -19t3.5 -22.5t0.5 -29h-114q15 -29 19 -71.5t14 -72t43 -46.5q-14 -23 -9.5 -51.5t15 -48t21.5 -56t11 -73.5q17 -17 27 -36.5t23 -54t26 -61.5q33 32 55.5 91.5t44.5 120.5t54 93 q0 31 19 73.5t38 93t19 99.5q-8 8 -21.5 10.5t-27 1t-27.5 -4.5t-20 -3.5t-14 -0.5t-10 4t-1.5 11.5t6.5 20.5q29 28 76.5 28t76.5 -28q22 0 62.5 10.5t72 18.5t69 2.5t63.5 -31.5q-13 -39 -41 -49.5t-58 -3.5t-67.5 4t-63.5 -29q-15 -31 -34 -99.5t-41 -90.5 q-38 -76 -95.5 -228.5t-95.5 -228.5q12 -38 11.5 -87t-7 -90t1 -97.5t33.5 -108.5l227 39q0 -20 19.5 -39t19.5 -37l-76 -38h-458q-17 17 -36 17t-30 -9l-10 -8q-57 57 0 114q25 0 80 -8.5t93.5 -8.5t55.5 17q0 38 4.5 111t5 115.5t-10.5 98t-38 95.5q-38 95 -114.5 285.5 t-114.5 285.5q-13 27 -35 33.5t-45.5 0.5t-53 -6.5t-56.5 11.5zM207.5 1696q-0.5 11 8 25t28.5 26q17 19 23.5 24.5t19.5 14.5t23 6.5t20 -14.5q20 0 33.5 -12.5t19.5 -27.5t15.5 -43.5t17.5 -45.5q-6 -6 -30 -42.5t-58 -54.5q-26 0 -48.5 10.5t-35 23t-29.5 32.5 q0 18 -3.5 42.5t-4 35.5zM647 1712q11 12 20.5 30t17 27t20.5 9q43 22 78.5 1.5t35.5 -69.5q20 -12 24.5 -29t-7 -38t-20 -31.5t-25.5 -30.5q-23 -25 -47.5 -25t-67.5 25q-34 39 -29 131z" />
<glyph unicode="&#x2c6;" horiz-adv-x="653" d="M37 1329q0 30 45 39q46 53 88 82q53 27 53 49q0 32 64 47q15 44 30 56h5q18 -21 49 -21q53 -47 53 -80q0 -22 35 -22q14 -39 22 -39l29 2q15 -35 63 -35l21 -43q18 -6 18 -43q3 -66 -32 -78l-25 -8q-54 36 -68 55q-80 27 -98 74q0 11 -37 20l-8 46l-18 -5v-20l4 -21 q-7 -7 -37 -10q-9 -21 -64 -39l-4 -4l19 -24v-21q-21 0 -21 8q-32 0 -104 -57h-25l-26 -4q-26 38 -29 72z" />
<glyph unicode="&#x2dc;" horiz-adv-x="860" d="M33 1239q2 8 2 18q0 9 16 35q5 7 29 17q2 8 10 24l45 33q24 5 40 11.5t20 9.5t16 14q40 10 53 10q28 0 78 -29q3 -4 6 -8.5l6 -9t4 -6.5l39 -25l60 -37q22 -17 59 -43q32 -12 68 -12q35 0 63 16q12 8 19 15l20 20l37 31l29 33q27 18 43 12q13 -3 18 -16q9 -15 -6 -45 q-3 -7 -11 -15t-17.5 -15.5t-10.5 -8.5l-39 -47q-23 -3 -27 -7q-3 -20 -6 -26q-2 -1 -26 -17l-45 -16q-45 -39 -86 -39q-15 0 -27 10h-39l-65 19q-34 12 -60 33l-49 36q-1 1 -5 16.5t-5 16.5q-11 -2 -21 0.5t-15 6t-12 10.5l-8 8q-8 7 -29.5 14t-31.5 6q-9 0 -32.5 -14.5 t-30.5 -17.5q-27 -27 -41 -39q-18 -3 -27 0q-8 5 -8 18z" />
<glyph unicode="&#x2000;" horiz-adv-x="940" />
<glyph unicode="&#x2001;" horiz-adv-x="1880" />
<glyph unicode="&#x2002;" horiz-adv-x="940" />
<glyph unicode="&#x2003;" horiz-adv-x="1880" />
<glyph unicode="&#x2004;" horiz-adv-x="626" />
<glyph unicode="&#x2005;" horiz-adv-x="470" />
<glyph unicode="&#x2006;" horiz-adv-x="313" />
<glyph unicode="&#x2007;" horiz-adv-x="313" />
<glyph unicode="&#x2008;" horiz-adv-x="235" />
<glyph unicode="&#x2009;" horiz-adv-x="376" />
<glyph unicode="&#x200a;" horiz-adv-x="104" />
<glyph unicode="&#x2010;" d="M63 635q0 17 7 24t15 6.5t20.5 -3.5t17.5 -3q24 -13 44.5 -6.5t53.5 5t58 -22.5v24h389q18 -11 22.5 -27.5t1.5 -42.5l-4 -26q-72 -8 -276.5 -14.5t-327.5 -34.5q-21 26 -21 121z" />
<glyph unicode="&#x2011;" d="M63 635q0 17 7 24t15 6.5t20.5 -3.5t17.5 -3q24 -13 44.5 -6.5t53.5 5t58 -22.5v24h389q18 -11 22.5 -27.5t1.5 -42.5l-4 -26q-72 -8 -276.5 -14.5t-327.5 -34.5q-21 26 -21 121z" />
<glyph unicode="&#x2012;" d="M63 635q0 17 7 24t15 6.5t20.5 -3.5t17.5 -3q24 -13 44.5 -6.5t53.5 5t58 -22.5v24h389q18 -11 22.5 -27.5t1.5 -42.5l-4 -26q-72 -8 -276.5 -14.5t-327.5 -34.5q-21 26 -21 121z" />
<glyph unicode="&#x2013;" d="M63 635q0 17 7 24t15 6.5t20.5 -3.5t17.5 -3q24 -13 44.5 -6.5t53.5 5t58 -22.5v24h389q18 -11 22.5 -27.5t1.5 -42.5l-4 -26q-72 -8 -276.5 -14.5t-327.5 -34.5q-21 26 -21 121z" />
<glyph unicode="&#x2014;" horiz-adv-x="995" d="M61 651q0 21 9.5 30t20.5 8.5t29 -4t25 -3.5q18 -9 46.5 -9t54 5t60 -0.5t63.5 -26.5v31h555q25 -14 31.5 -34.5t1.5 -52.5l-5 -32q-118 -13 -278.5 -16t-305 -11.5t-278.5 -35.5q-14 14 -20.5 41t-7.5 48.5t-1 61.5z" />
<glyph unicode="&#x2018;" horiz-adv-x="327" d="M61 1069q-35 131 80 375q14 14 29 21.5t23 8.5l8 1q21 -18 15 -42.5t-22.5 -43t-33.5 -43t-17 -41.5q1 -11 -4.5 -37t-5.5 -47t12 -33q15 14 44 14t44 15q37 -18 47.5 -53t10.5 -91q-33 -38 -84 -86q-19 10 -54 14t-57 17.5t-35 50.5z" />
<glyph unicode="&#x2019;" horiz-adv-x="327" d="M37 1444q33 38 84 86q19 -10 53.5 -14t56.5 -17.5t35 -50.5q35 -131 -80 -375q-14 -14 -28.5 -21.5t-22.5 -8.5l-8 -1q-21 18 -15 42.5t22 43t33 43t17 41.5q-1 11 4.5 37t5.5 47t-12 33q-16 -15 -44 -15t-44 -14q-20 10 -32 24.5t-17 36.5t-6.5 38.5t-1.5 44.5z" />
<glyph unicode="&#x201a;" horiz-adv-x="346" d="M37 156q31 29 92 90q21 -10 58.5 -15.5t60.5 -20t37 -54.5q35 -143 -92 -404q-15 -14 -31 -21.5t-24 -8.5l-9 -1q-23 19 -16 46t25 46.5t36.5 46.5t18.5 46q0 10 6.5 38t6.5 50.5t-13 36.5q-17 -15 -48 -15t-47 -16q-22 11 -35 27t-18.5 40t-6.5 41t-1 48z" />
<glyph unicode="&#x201c;" horiz-adv-x="790" d="M65.5 1378.5q-3.5 34.5 14.5 67.5q14 21 32 32t33.5 13.5t36 -5t32 -13.5t31.5 -21.5t24.5 -20t19.5 -18.5q-31 -78 -49 -175t-31.5 -208t-26.5 -172h-32q-18 68 -18 208t-17 208q-19 18 -32.5 44t-17 60.5zM530 1413q25 23 38 33.5t41 22.5t61 12q24 0 45.5 -37 t21.5 -66q-16 -69 -32.5 -242.5t-34.5 -244.5q0 -15 -11.5 -23t-23.5 -9t-35 -1v311q10 0 13.5 3.5t1.5 11t-5 15.5t-6.5 18.5t-3.5 19.5q-25 13 -40 31.5t-21 45t-7.5 45t-1.5 54.5zM565 1169v35l16 -1l-3 -3q-13 -14 -13 -31z" />
<glyph unicode="&#x201d;" horiz-adv-x="790" d="M65.5 1378.5q-3.5 34.5 14.5 67.5q14 21 32 32t33.5 13.5t36 -5t32 -13.5t31.5 -21.5t24.5 -20t19.5 -18.5q-31 -78 -49 -175t-31.5 -208t-26.5 -172h-32q-18 68 -18 208t-17 208q-19 18 -32.5 44t-17 60.5zM530 1413q25 23 38 33.5t41 22.5t61 12q24 0 45.5 -37 t21.5 -66q-16 -69 -32.5 -242.5t-34.5 -244.5q0 -15 -11.5 -23t-23.5 -9t-35 -1v311q10 0 13.5 3.5t1.5 11t-5 15.5t-6.5 18.5t-3.5 19.5q-25 13 -40 31.5t-21 45t-7.5 45t-1.5 54.5zM565 1169v35l16 -1l-3 -3q-13 -14 -13 -31z" />
<glyph unicode="&#x201e;" horiz-adv-x="716" d="M57 156q47 44 93 90q21 -10 58 -15.5t60 -20t37 -54.5q35 -143 -92 -404q-15 -14 -30.5 -21.5t-24.5 -8.5l-8 -1q-23 19 -16 46t24.5 46.5t36 46.5t18.5 46q0 10 6.5 38t6.5 50.5t-13 36.5q-17 -15 -48 -15t-46 -16q-22 11 -35.5 27.5t-18.5 40t-6.5 40.5t-1.5 48z M385 158q31 29 92 90q21 -10 58.5 -15.5t60.5 -20t37 -54.5q35 -143 -92 -404q-15 -14 -31 -21.5t-24 -8.5h-9q-23 19 -16 45.5t25 46.5t36.5 46.5t18.5 45.5q0 10 6.5 38t6.5 50.5t-13 36.5q-17 -15 -48 -15t-47 -16q-22 11 -35 27t-18.5 40t-6.5 41t-1 48z" />
<glyph unicode="&#x2022;" horiz-adv-x="385" d="M45.5 112.5q2.5 14.5 17.5 28.5q0 29 15.5 48.5t34 28t55 22t57.5 24.5q14 -14 39 -30t45.5 -36.5t38.5 -56.5q0 -37 -14 -69.5t-27 -48t-41 -43.5q-20 0 -43.5 -3.5t-37 -5.5t-29 -0.5t-28 13.5t-24.5 36q-20 20 -30 31.5t-20.5 29t-8 32z" />
<glyph unicode="&#x2026;" horiz-adv-x="1144" d="M72.5 308q25.5 50 87.5 50q14 28 34 34.5t44 -7.5t40.5 -27t38.5 -34l5 -5q31 -31 31 -66t-31 -97q-41 -41 -162 -41q-15 15 -38 29t-33.5 24.5t-10.5 28.5q-31 61 -5.5 111zM420.5 278.5q2.5 14.5 17.5 28.5q0 29 15.5 48.5t34 28t55 22t57.5 24.5q14 -14 39 -30 t45.5 -36.5t38.5 -56.5q0 -37 -13.5 -69.5t-27.5 -49t-41 -43.5q-19 0 -43 -3.5t-37.5 -5.5t-29 0t-28 14t-24.5 36q-20 20 -30 31.5t-20.5 29t-8 32zM817.5 336.5q25.5 50.5 87.5 50.5q14 28 34 34.5t44 -7.5t40.5 -27t38.5 -34l5 -5q31 -31 31 -66.5t-31 -97.5 q-41 -41 -162 -41q-15 15 -38 29t-33.5 24.5t-10.5 28.5q-31 61 -5.5 111.5z" />
<glyph unicode="&#x202f;" horiz-adv-x="376" />
<glyph unicode="&#x2039;" horiz-adv-x="481" d="M8 569v4q21 18 21 50q63 27 80 53q22 0 38 29q23 23 23 28l16 12q17 34 43 54l17 47q6 18 86 74q48 0 69 -46l-26 -67q-35 -53 -56 -68q-27 -80 -73 -98q-12 0 -21 -37l-45 -8l4 -18h21l20 4q8 -8 11 -37q20 -9 38 -64l13 -12v-6q18 6 21.5 1t-7.5 -20q14 0 72 -73 l28 -45l21 -54q-36 -36 -86 -30l-55 47q-30 0 -39 45q-53 46 -82 88q-27 53 -41 61q-20 -5 -34.5 9.5t-21.5 46.5q-43 15 -55 30z" />
<glyph unicode="&#x203a;" horiz-adv-x="464" d="M59 266l21 56l26 45q54 75 70 75q-11 15 -8 20t22 -1v6l13 12q15 54 37 64q4 33 10 39l18 -4h21l4 18l-43 8q-9 37 -21 37q-44 17 -71 100q-21 17 -54 68l-24 70q17 45 65 45q79 -57 84 -76l17 -47q26 -23 41 -53l16 -13q0 -9 21 -30q16 -29 38 -29q13 -27 76 -53 q0 -31 21 -52v-4q-12 -15 -53 -30q-8 -33 -21 -46.5t-33 -9.5q-16 -10 -39 -63q-32 -47 -80 -88q-9 -47 -36 -47l-54 -47q-51 -6 -84 30z" />
<glyph unicode="&#x205f;" horiz-adv-x="470" />
<glyph unicode="&#x20ac;" horiz-adv-x="1339" d="M23 508q0 21 9.5 30t20.5 8.5t28.5 -4t24.5 -3.5q17 -10 45 -10t53.5 5t59.5 0t62 -24q-13 126 0 233q-134 -10 -252 -34q-14 14 -20.5 41t-7.5 48.5t-1 61.5q0 21 9.5 30t20.5 8.5t29 -4t25 -3.5q17 -10 45 -10t53 5t59 0t62 -24q0 9 4 17v12h2q31 95 74 164 q0 43 164 207q40 0 87 12t79 23t79 15t87 -12q39 -18 73.5 -42t47.5 -35.5t45 -42.5q98 -35 99 -215q1 -21 0 -58q-2 -67 7 -71q6 -2 18 12q0 -30 -8 -42t-17.5 -11.5t-28.5 5.5t-30 5q-23 23 -31.5 49t-6.5 48t6.5 42.5t3.5 38.5t-12 29q-31 62 -88.5 120t-118.5 87 q-30 10 -58.5 12t-55 -7t-47 -18.5t-46.5 -31.5t-41.5 -37t-42.5 -43q-11 -35 -31.5 -68.5t-49.5 -73.5t-42 -61h438q19 -11 27.5 -28.5t8 -31.5t-3.5 -34t-3 -25q-81 -9 -163.5 -13t-187.5 -5.5t-151 -3.5q7 -28 5 -57.5t-8 -53.5t1.5 -46.5t34.5 -35.5q0 -10 -4 -18h422 q25 -14 31.5 -34.5t1.5 -52.5l-5 -32q-58 -6 -124 -10t-106.5 -5.5t-119 -3t-106.5 -2.5q16 -50 36 -80.5t60 -50.5q0 -38 18.5 -67t58.5 -61.5t46 -39.5q93 -93 289 0q40 40 62.5 65.5t50 64t40 78t12.5 83.5q15 15 29 38.5t25 34.5t30 11q20 0 30.5 -1t25 -4.5t20.5 -13 t6 -24.5q0 -54 -21 -107t-54.5 -116t-49.5 -109q-185 -184 -495 -123q-27 7 -52 19t-47.5 31t-41.5 38t-38.5 47.5t-33.5 50t-32.5 57t-29 56.5t-28.5 59t-27 56v2q-158 -10 -295 -37q-14 14 -20.5 42t-7 47.5t-0.5 62.5z" />
<glyph unicode="&#x2122;" horiz-adv-x="1357" d="M51 1174q0 6 2 11t6.5 10.5t6.5 8.5l8 33l16 29l16 14l3 10l28 17l49 -2l13 -5l8 5l10 2q19 -13 43 -13h117l51 -8l10 6l47 2q25 -14 41 -14h19l30 8l15 6q7 0 14.5 -9.5t7.5 -16.5l-2 -21l-6 -26q-8 -20 -13 -29.5t-7.5 -10.5t-5.5 -1t-7 -2q-13 3 -16 6l-8 10 q-10 14 -29 25l-18 2l-21 6q-5 1 -13 4t-9 4h-60q0 -1 -5 -8t-5 -8l8 -17l2 -31q-2 -8 -4.5 -21.5t-4.5 -21t-5 -10.5l6 -28v-19l-6 -12v-31q8 -8 8 -20v-23l2 -8l-2 -47v-17q-1 -4 -4 -8.5t-4 -5.5l4 -20l4 -27l2 -27q1 -1 3 -5t3 -5l-2 -12q0 -10 11 -17l22 -16 q19 -16 19 -31v-10l-11 -12l-18 4h-39q-23 0 -47 8q-6 -1 -15 -4l-12 -4h-39q-38 0 -54.5 7.5t-16.5 25.5q0 9 6.5 15t7.5 13l33 6q11 4 12 5q18 15 18 41q-1 2 -2 5l-1.5 4.5t-0.5 2.5q-1 6 -2 11l-1.5 7.5t-0.5 3.5q0 5 1 8.5t3 6t3.5 4l3.5 3.5l2 1l-3 31l3 16l-5 14v74 l5 14l-3 11v28l9 17l2 41v14l-4 33v20l4 15q-19 16 -21 16q-6 0 -11.5 -4t-6.5 -4l-10 -6l-9 6q-4 0 -12 4l-12 -4l-23 -13l-26 -4h-15q-6 -15 -47 -63l-18 -14q-25 0 -25 41zM655 1276q4 4 7 8l4 4l6 17q8 14 20 14q12 -4 13 -4q24 -7 52.5 -20.5t33.5 -18.5q10 -10 20 -37 l10 -25q3 -6 6 -15.5t5 -13.5t6 -5q0 -20 8 -33q14 -20 14 -29v-20q5 -12 13.5 -25.5t9.5 -17.5l10 -43l22 -27l3 -18l6 -21l8 -16q6 -2 10 -15l14 -43q0 -2 15 -16q12 0 18 31l12 22l25 41l6 25l10 35l13 20q1 3 3 10.5t3 10.5l8 22q6 11 16.5 24.5t16 25t8.5 28.5l12 23 q-4 15 -2 18l6 10l13 12q5 5 8 5q4 4 8.5 19.5t7.5 18.5q9 21 27 25q25 -3 35 0v8l20 2l31 -12l18 -2l-4 -10q0 -24 -6 -27q-31 0 -47 2q-3 -3 -6 -12v-21l-2 -26q0 -24 -8 -35q-4 -4 0 -8l6 -4v-50q-2 -10 -2 -26l-4 -31l-7 -10q0 -6 3 -12t5.5 -9t2.5 -4q0 -22 -11 -26 q7 -11 7 -15v-20l4 -27v-65q2 -4 7 -24.5t11 -26.5l14 -3l15 -18q6 -9 6 -18l-4 -15l-29 -4q-16 -4 -18 -4l-35 2l-18 4l-48 4q-7 -1 -21.5 -2t-21.5 -2q-14 3 -14 21q0 13 23 16h18l25 35l6 35l-4 12v45l-2 19q0 7 4 21.5t6 16.5l-2 43l2 21v49q-13 10 -17 10q-7 0 -16 -30 l-16 -45q-1 -7 -6 -12t-7 -5l-10 -26l-14 -41l-17 -21q-2 -12 -10 -31l-12 -20l-12 -31l-11 -18q0 -15 -4 -19l-26 -41q-3 -6 -15 -6h-14q-4 0 -7.5 2.5t-7.5 7.5t-6.5 10t-6.5 14t-6.5 14.5t-6.5 16.5t-6 15q0 24 -10 51l-21 39q-7 26 -8 27l-21 45l-20 33q-23 47 -33 71 h-8l-4 -32l-2 -50l-4 -63v-88q0 -27 -2 -33l-8 -18q0 -8 5 -13.5t15.5 -8t18.5 -3.5t24 -2q14 -6 14 -27v-18q-8 -2 -18 -4q-42 0 -78 4q-4 0 -15.5 -8t-15.5 -8q-8 0 -20 8t-14 8v25q14 17 24 20q21 9 21 12q0 10 -17 84l6 21l5 39q2 6 -5 26l13 35l2 21q0 22 -13 32 q17 24 17 47q0 5 -1 16l-1 11q8 12 14 18l-4 29l4 10l-6 17l6 28l-12 23q-10 -2 -27 -2q-11 0 -17.5 5.5t-11.5 18.5t-6 15z" />
<glyph unicode="&#x25fc;" horiz-adv-x="1034" d="M0 0v1034h1034v-1034h-1034z" />
<glyph unicode="&#xfb01;" horiz-adv-x="1865" d="M62.5 911.5q2.5 15.5 17.5 30.5q15 29 39 37t47 1t47 -7t39 14h170q0 18 -8 61.5t-11.5 81.5t0 80t29.5 73t74 44q171 111 385 43q39 -20 73.5 -45.5t49.5 -39.5t45 -44q0 -31 10 -69t10 -60.5t-20 -42.5q-41 -41 -168 -41q-20 19 -30 43.5t-11.5 40.5t-1.5 45 q0 11 4 24.5t8 23t6.5 18.5t-2 13.5t-16.5 4.5q-38 18 -81 18t-95 -9t-80 -9q-37 -37 -49 -81.5t-16.5 -93t-20.5 -79.5l43 -45q17 0 94.5 17.5t110.5 3.5q70 32 165.5 38.5t229.5 -24.5q29 -44 37 -98t0.5 -103t-8 -111t11.5 -122q0 -64 -7 -137.5t-14 -124t-11.5 -97 t1.5 -74.5t25 -38q-44 -13 -104 -32q-77 -24 -86 -20q-5 2 -5 21v6l-14 31q26 -12 33.5 -9t6.5 16.5t-6 29t-4.5 27.5t11.5 12q-18 96 -18 214.5t9 263.5t9 216q-145 -28 -219 -25q-13 -8 -35 -8q-30 0 -80 19t-82 19t-51 -38v-551q0 -15 -9.5 -42t-9.5 -48t19 -39h299v-129 q-19 -37 -51.5 -37t-82.5 18.5t-79 18.5q-213 0 -342 -43q-23 24 -50 30t-49.5 2t-44 -6t-39.5 12t-30 50q0 9 1 24.5t12 49t30 51.5q64 -31 149 -31t150 31q-18 95 -18 201.5t9 236.5t9 201q-38 19 -91 19t-117 -9.5t-91 -9.5q-21 21 -31.5 33.5t-21 30t-8 33z" />
<glyph unicode="&#xfb02;" horiz-adv-x="3411" d="M547.5 915.5q2.5 15.5 17.5 30.5q15 29 39 37t47 1t47 -7t39 14h170q0 18 -8 61.5t-11.5 81.5t0 80t29.5 73t74 44q171 111 385 43q39 -20 73.5 -45.5t49.5 -39.5t45 -44q0 -31 10 -69t10 -60.5t-20 -42.5q-41 -41 -168 -41q-20 19 -30 43.5t-11.5 40.5t-1.5 45 q0 11 4 24.5t8 23t6.5 18.5t-2 13.5t-16.5 4.5q-38 18 -81 18t-95 -9t-80 -9q-37 -37 -49 -81.5t-16.5 -93t-20.5 -79.5l43 -45q21 0 54.5 8t61 14t56 6.5t50.5 -16.5t34 -53q29 -32 11 -59t-54 -27q-30 0 -80 19t-82 19t-51 -38v-551q0 -15 -9.5 -42t-9.5 -48t19 -39h299 v-129q-19 -37 -51.5 -37t-82.5 18.5t-79 18.5q-213 0 -342 -43q-23 24 -50 30t-49.5 2t-44 -6t-39.5 12t-30 50q0 9 1 24.5t12 49t30 51.5q65 -31 149.5 -31t149.5 31q-18 95 -18 201.5t9 236.5t9 201q-38 19 -91 19t-117 -9.5t-91 -9.5q-21 21 -31.5 33.5t-21 30t-8 33z M1319 22q0 12 2.5 24t5 32.5t2.5 38.5q36 24 73 29t68.5 -4t70.5 -18.5t78.5 -14.5t92.5 8q0 -15 6.5 -18t14 1.5t13.5 10.5l7 6q20 21 30 45t11.5 39.5t1.5 42.5q-14 85 -12 197.5t11.5 205t12 205t-11.5 197.5v125q-19 30 -63 37t-94 -1.5t-102.5 -13t-92.5 0t-61 40.5 t-11 106h465q32 28 58 11.5t26 -51.5v-1100q-12 0 -16 -4.5t-2 -13t6 -18.5t8 -24t4 -26h383q34 0 52 -26.5t-11 -57.5q-12 -24 -29 -36.5t-37 -15t-37 -0.5t-37.5 5.5t-29.5 3.5q-94 -18 -188.5 -18t-200 9t-160.5 9q-46 0 -97.5 -9t-85 -9t-71.5 18q-21 0 -32.5 4t-16 10 t-4.5 18z" />
</font>
</defs>
</svg>
