<?xml version="1.0" encoding="utf-8"?>
<!-- Generator: Adobe Illustrator 22.1.0, SVG Export Plug-In . SVG Version: 6.00 Build 0)  -->
<svg version="1.1" id="Layer_1" xmlns="http://www.w3.org/2000/svg" xmlns:xlink="http://www.w3.org/1999/xlink" x="0px" y="0px"
	 viewBox="0 0 936.7 253" style="enable-background:new 0 0 936.7 253;" xml:space="preserve">
<style type="text/css">
	.st0{fill:url(#_Compound_Path_3_1_);}
	.st1{fill:url(#SVGID_1_);}
</style>
<title>cattiensa-groups_2</title>
<linearGradient id="_Compound_Path_3_1_" gradientUnits="userSpaceOnUse" x1="323.5624" y1="860.5062" x2="936.7" y2="860.5062" gradientTransform="matrix(1 0 0 1 0 -744)">
	<stop  offset="0.16" style="stop-color:#E2A453"/>
	<stop  offset="0.51" style="stop-color:#965E29"/>
	<stop  offset="0.8" style="stop-color:#A56F34"/>
	<stop  offset="0.93" style="stop-color:#E2A453"/>
</linearGradient>
<path id="_Compound_Path_3" class="st0" d="M363.9,157.5c-12.4,0-22.3-3.8-29.5-11.2s-10.8-17.5-10.8-30.1
	c-0.5-11.2,4-22.2,12.4-29.8c8.5-7.2,19.4-11,30.6-10.5c8.3,0,16.5,1.7,24.1,5.2l1.8,0.8l-0.7,1.9c-0.4,1.2-0.8,2.3-1.2,3.5
	c-0.4,1.4-0.7,2.8-0.9,4.2l-0.2,1.4l-3.5,0.9l-0.8-1.1c-2.4-2.7-5.4-4.9-8.8-6.2c-10.8-4.9-23.6-2-31.1,7.2
	c-4.9,6.6-7.4,14.7-7,22.9c-0.4,8.5,2.2,16.9,7.5,23.6c4.8,5.7,12,8.9,19.5,8.6c8-0.1,15.8-3.1,21.8-8.3l3.9-3.5l-0.7,13.3l-0.9,0.6
	c-3.6,2.3-7.6,4.1-11.8,5.1C373,157.1,368.5,157.6,363.9,157.5z M455.4,151c0.5,1.1,1.2,2,2.1,2.7c1.9,1.4,4.1,2.1,6.4,2l0,0
	l4.2-0.5c1.4-0.2,2.7-0.7,3.9-1.3l1.1-0.6v-6l-5.6,0.7h-0.3c-0.1-0.7-0.2-1.3-0.2-2v-26.6c0-13.2-6.8-20.2-19.7-20.2
	c-3.4,0-6.7,0.5-9.8,1.7c-3.2,1.2-6.2,2.8-8.9,4.8l-0.9,0.6v9.3h5l0.4-1.6c0.5-1.5,1.5-2.8,2.9-3.6c2.3-1.7,5-2.5,7.9-2.4
	c5.2-0.7,10,3,10.7,8.2c0.1,0.8,0.1,1.7,0,2.5c0.2,1.8-1,3.4-2.8,3.7c-2.3,0.6-4.6,1.1-7,1.4c-9,1.5-14.7,3.5-17.5,6.2
	c-3,3-4.6,7.2-4.4,11.5c-0.1,4.3,1.7,8.5,4.9,11.3c3.2,2.8,7.4,4.4,11.6,4.3C445.3,157.2,451,155.1,455.4,151L455.4,151z
	 M454.3,129.2v12.9l-0.5,0.5c-0.5,0.6-1.1,1.1-1.7,1.6l0,0v0.2c-0.9,1-2,1.8-3.3,2.4c-1.2,0.6-2.5,1-3.8,1c-2.3,0.2-4.6-0.5-6.4-2
	c-1.6-1.7-2.3-3.9-2.1-6.2c-0.1-3.4,2.1-6.4,5.3-7.4c3.7-1.3,7.5-2.3,11.4-2.9L454.3,129.2z M522.8,156.1c1.6-0.4,3.3-1,4.9-1.6
	l1.3-0.5v-6.8l-2.6,0.7l-2.2,0.5c-0.8,0.2-1.5,0.3-2.3,0.3c-1.7,0.2-3.3-0.5-4.3-1.9c-1.6-3.1-2.2-6.5-1.9-9.9V108h12l-0.5-3.9
	l0.4-4.5h-11.9V84.5L503,89.7v10h-4.6h-2.8l0.8,2.7c0.1,0.5,0.1,1,0,1.5c0.1,0.4,0.1,0.9,0,1.3l-0.9,2.8h7.6v31.3
	c-0.4,4.9,1,9.8,4,13.7c2.9,2.7,6.8,4.1,10.8,3.8c1.7,0.1,3.4,0,5-0.4L522.8,156.1z M582.6,156.1c1.6-0.4,3.3-1,4.9-1.6l1.3-0.5
	v-6.7l-2.6,0.9l-2.2,0.5c-0.7,0.2-1.5,0.3-2.3,0.3c-1.7,0.2-3.3-0.5-4.3-1.9c-1.6-3-2.3-6.5-1.9-9.9v-28.9h12l-0.5-3.9l0.4-4.5
	h-11.9V84.7l-12.7,5.2v10h-7.5l0.8,2.7c0.1,0.5,0.1,1,0,1.5c0.1,0.4,0.1,0.9,0,1.3l-0.9,2.8h7.5v31.3c-0.4,4.9,1,9.8,4,13.7
	c2.9,2.7,6.8,4.1,10.8,3.8c1.7,0,3.4-0.3,5-0.7L582.6,156.1z M623.6,156.3l2.5-0.4l2.3-0.3h1.6l6.6,0.8V99.6l-6.5,0.7
	c-0.5,0-1.1,0-1.6,0L626,100l-2.4-0.3V156.3z M635.3,88.6c1.4-1.4,2.3-3.3,2.2-5.3c0-2.1-0.8-4-2.2-5.5s-3.3-2.3-5.3-2.3
	c-4.3,0.1-7.7,3.5-7.7,7.7c0,2.1,0.8,4,2.4,5.4c1.5,1.4,3.4,2.1,5.4,2.1c2,0.1,3.9-0.6,5.4-2L635.3,88.6z M702.1,154.9
	c3.3-1.2,6.5-2.9,9.3-5l0.8-0.6l0.4-11.8l-3.7,3.5c-1.8,1.7-3.8,3.2-5.9,4.4c-2.6,1.5-5.6,2.3-8.7,2.4c-4.7,0.3-9.3-1.6-12.4-5.1
	c-3.1-3.7-4.7-8.3-4.5-13.1v-0.2h13.5l9.3,0.2c5.8,0,10.1,0.2,12.7,0.2h2.1v-4.5c0.4-7.3-2.3-14.5-7.3-19.8
	c-4.4-4.4-10.5-6.7-16.7-6.6c-7.7-0.3-15.1,2.9-20.1,8.7c-4.7,5.7-7.1,13-6.8,20.4c-0.4,7.8,2.4,15.5,7.7,21.2
	c5.3,5.3,12.6,8.1,20.1,7.8c3.6,0,7.1-0.7,10.4-1.9L702.1,154.9z M677.5,121.3c0.2-3.4,1.4-6.7,3.5-9.6c2.2-3.3,5.9-5.2,9.9-5.1
	c3.7-0.3,7.2,1.6,9,4.8c1.6,3.1,2.4,6.4,2.4,9.9C702.3,121.3,677.5,121.3,677.5,121.3z M743,156.5l2.6-0.6l2.3-0.4h1.5l6.5,0.6
	v-27.7c-0.3-5.1,0.5-10.2,2.6-14.8c1.9-3.3,5.6-5.2,9.3-4.8c3.3-0.4,6.5,1.3,8.1,4.2c1.5,3.7,2.2,7.7,1.9,11.7v31.7l2.6-0.6
	c1.2-0.2,1.9-0.4,2.3-0.4h1.5l6.5,0.6v-33.6c0.4-6.1-1.2-12.3-4.6-17.4c-3.1-4-8.2-6-15.1-6c-4,0-7.8,1-11.2,3.1
	c-1.5,0.9-2.8,1.9-4.1,3.1v-5.9l-6.5,0.7c-0.5,0-1.1,0-1.6,0l-2.3-0.3l-2.4-0.3L743,156.5z M851.1,152c4.7-3.4,7.4-8.9,7.3-14.7
	c0-7.1-4.8-12.2-14.3-15.2c-5.2-1.6-11.3-4.5-11.3-8.6c-0.1-1.9,0.6-3.7,1.9-5c1.6-1.3,3.7-1.9,5.7-1.8c1.6,0,3.1,0.6,4.2,1.6
	c1.4,1.1,2.5,2.6,3.1,4.2l0.5,1.3h3.9l0.4-1.6c0.6-2.6,1.5-5.1,2.5-7.5l0.7-1.7l-1.6-0.9c-1.6-0.9-3.4-1.6-5.2-2.1
	c-2.6-0.7-5.3-1-8-1c-5.1-0.2-10.1,1.5-14.1,4.7c-3.9,3.3-6.1,8.3-5.8,13.4c0,7.7,4.8,13.1,14.3,15.8c5.1,1.5,11.3,4.1,11.3,8.3
	c0.1,2.2-0.8,4.2-2.4,5.7c-1.7,1.5-3.9,2.3-6.2,2.2c-2,0-4-0.7-5.7-1.9c-2-1.4-3.6-3.1-4.9-5.1l-0.6-1H823l-0.3,1.7
	c-0.3,1.2-0.6,2.4-1,3.6c-0.3,0.9-1.8,5.5-1.8,5.5l1.4,0.9c4.5,2.7,9.6,4,14.8,4c5.4,0.2,10.7-1.4,15.1-4.5L851.1,152z M919,150.8
	c0.5,1.1,1.2,2,2.1,2.7c1.9,1.4,4.1,2.1,6.4,2l0,0l4.2-0.5c1.4-0.2,2.7-0.7,3.9-1.3l1.1-0.6v-6l-5.6,0.7h-0.3
	c-0.1-0.7-0.2-1.3-0.2-2v-26.6c0-13.2-6.8-20.2-19.7-20.2c-3.4,0-6.7,0.5-9.8,1.7c-3.2,1.2-6.2,2.8-8.9,4.8l-0.9,0.6v9.3h5l0.4-1.6
	c0.5-1.5,1.5-2.8,2.9-3.6c2.3-1.7,5-2.5,7.9-2.4c5.2-0.7,10,3,10.7,8.2c0.1,0.8,0.1,1.7,0,2.5c0.2,1.8-1,3.4-2.8,3.7
	c-2.3,0.6-4.6,1.1-7,1.4c-9,1.5-14.7,3.5-17.5,6.2c-3,3-4.6,7.2-4.4,11.5c-0.1,4.3,1.7,8.5,4.9,11.3s7.4,4.4,11.6,4.3
	c5.9,0.2,11.6-1.9,16.1-5.8L919,150.8z M917.9,129v12.9l-0.5,0.5c-0.5,0.6-1.1,1.1-1.7,1.6h-0.2v0.2c-0.9,1-2,1.8-3.3,2.4
	c-1.2,0.6-2.5,1-3.8,1c-2.3,0.2-4.6-0.5-6.4-2c-1.6-1.7-2.3-3.9-2.1-6.2c-0.1-3.4,2.1-6.4,5.3-7.4c3.7-1.3,7.5-2.3,11.4-2.9
	L917.9,129z"/>
<linearGradient id="SVGID_1_" gradientUnits="userSpaceOnUse" x1="51.7246" y1="42.2957" x2="238.7599" y2="229.331" gradientTransform="matrix(1 0 0 -1 0 254)">
	<stop  offset="0.16" style="stop-color:#E2A453"/>
	<stop  offset="0.51" style="stop-color:#965E29"/>
	<stop  offset="0.8" style="stop-color:#A56F34"/>
	<stop  offset="0.93" style="stop-color:#E2A453"/>
</linearGradient>
<path class="st1" d="M288.5,75.2L288.5,75.2C288.5,75.2,288.4,75.2,288.5,75.2c-0.6,0-1,0.2-1.4,0.5l0,0l0,0l0,0l0,0l0,0l0,0l0,0
	l0,0l0,0l0,0l0,0l-1.2,1.1c-0.1,0.1-0.2,0.2-0.2,0.2c-0.1,0.1-6.5,8.4-16.1,12.6c-4.4,2-9.4,3.4-14.7,5c-8,2.4-16.3,4.8-24,9.3
	c-0.2-0.9-0.5-1.7-0.7-2.6c1.4-4.2,3.4-11.9,3.5-20.1c0-8-1.1-13.7-2.3-19.7v-0.1c-0.5-2.7-1.1-5.4-1.5-8.3c-1.1-8,1.7-14,2-14.7
	c0,0,0-0.1,0.1-0.1l0.8-2c0.4-0.9,0-2-0.9-2.5c-0.3-0.2-0.7-0.3-1-0.3s-0.6,0.1-0.9,0.2c-0.3,0.1-1.4,0.5-2.4,0.9h-0.1
	c-0.2,0.1-19.9,8.6-34.6,20.8c-1.1,0.9-2.1,1.8-3.2,2.8c-0.4-1-0.9-2.1-1.5-3.5c-1.7-4.1-1.3-7.6-1.3-7.6l0,0l0.2-1.5
	c0.1-1-0.5-1.9-1.4-2.2c-0.2-0.1-0.4-0.1-0.6-0.1c-0.4,0-0.8,0.1-1.1,0.4c-0.2,0.1-1,0.6-1.7,1c-3.1,1.7-6.1,3.6-9,5.6
	c-1.5,1-3,2.2-4.7,3.4c-3.3-4.5-6.4-7.8-8.9-10.6c-1.2-1.3-2.4-2.6-3.3-3.7c-5.6-6.8-9.3-14.6-9.4-14.8l0,0
	c-0.1-0.2-0.2-0.3-0.3-0.4c0,0,0,0-0.1-0.1s-0.2-0.2-0.4-0.3l0,0c-0.1-0.1-0.3-0.2-0.4-0.2h-0.1h-0.1c-0.1,0-0.3,0-0.4,0l0,0l0,0
	l0,0l0,0c-0.1,0-0.3,0-0.4,0h-0.1h-0.1c-0.2,0.1-0.3,0.1-0.4,0.2l0,0c-0.1,0.1-0.3,0.2-0.4,0.3c0,0,0,0-0.1,0.1s-0.2,0.3-0.3,0.4
	l0,0c-0.1,0.2-4,8.2-9.4,14.8c-0.9,1.1-1.9,2.2-3.3,3.7c-2.5,2.8-5.6,6.1-8.9,10.6c-1.6-1.2-3.2-2.4-4.7-3.4c-2.9-2-6-3.9-9-5.6
	c-0.7-0.4-1.5-0.8-1.7-1c-0.3-0.2-0.7-0.4-1.1-0.4c-0.2,0-0.4,0-0.6,0.1c-0.9,0.3-1.5,1.2-1.4,2.2l0.2,1.4c0,0.4,0.3,3.8-1.3,7.7
	c-0.5,1.3-1,2.5-1.5,3.5c-1-1-2.1-1.9-3.2-2.8C83.1,43.5,63.2,34.8,63,34.7h-0.1c-1-0.4-2.1-0.8-2.4-0.9c-0.3-0.1-0.6-0.2-0.9-0.2
	c-0.4,0-0.7,0.1-1.1,0.3c-0.8,0.5-1.2,1.6-0.8,2.5l0.8,2c0,0.1,0.1,0.1,0.1,0.2c0,0,3.2,6.2,2,14.6c-0.4,3-1,5.8-1.5,8.5v0.1
	c-1.2,6-2.3,11.6-2.3,19.6c0,8.2,2.1,15.9,3.5,20.1c-0.3,0.9-0.5,1.7-0.7,2.6c-7.7-4.5-15.9-6.9-23.9-9.3h-0.1
	c-5.3-1.6-10.3-3-14.7-5C11.4,85.6,5,77.4,4.8,77.2c-0.1-0.1-0.1-0.2-0.2-0.3l-1.2-1.1C3,75.4,2.5,75.2,2,75.2
	c-0.3,0-0.6,0.1-0.9,0.2c-0.8,0.4-1.2,1.2-1.1,2L0.2,79c0,0.1,0,0.1,0,0.2c0.1,0.3,6.2,27.8,24.6,55c10.5,15.5,19.9,25.1,27,30.9
	c-5.4,0.9-9.1,2.8-12.4,4.6c-1.3,0.7-2.7,1.4-4.1,2c-5.7,2.5-16,2.7-16.1,2.7c-0.9,0-1.7,0.7-1.9,1.6c-0.2,0.8,0.2,1.8,1.2,2.3
	c1.7,0.7,10.6,4.7,17,10.5c13.8,12.6,31.2,20.1,46.6,20.1c6.2,0,11-1.2,13.8-2.4c3.3,1.2,6.8,1.8,10.4,1.8c3.1,0,6.5-0.5,9.2-1.4
	c3.2,4.6,8.6,6.8,14.4,8.8c2.3,0.8,4.6,1.8,6.7,2.9c5.9,3.3,6.7,7.5,6.7,8.5c0,0.2,0,0.3,0,0.4c0,0.1,0,0.1,0,0.2c0,0,0,0,0,0.1
	s0,0.2,0.1,0.3c0,0,0,0,0,0.1s0.1,0.2,0.1,0.3c0,0,0,0,0,0.1c0.1,0.1,0.1,0.2,0.2,0.2c0,0,0,0,0.1,0.1s0.1,0.1,0.2,0.2
	c0,0,0.1,0,0.1,0.1c0.1,0,0.1,0.1,0.2,0.1c0,0,0.1,0,0.1,0.1c0.1,0,0.1,0.1,0.2,0.1h0.1c0.1,0,0.1,0,0.2,0h0.1c0.1,0,0.1,0,0.2,0
	l0,0l0,0l0,0l0,0l0,0h0.1c0.1,0,0.2,0,0.3,0h0.1c0.1,0,0.2-0.1,0.3-0.1h0.1c0.1,0,0.2-0.1,0.2-0.1s0,0,0.1-0.1s0.2-0.1,0.2-0.2
	c0,0,0,0,0-0.1c0.1-0.1,0.1-0.2,0.2-0.2c0,0,0,0,0-0.1c0.1-0.1,0.1-0.2,0.1-0.3c0,0,0,0,0-0.1s0.1-0.2,0.1-0.3c0,0,0,0,0-0.1v-0.1
	v-0.1c0,0,0-0.2,0-0.3c0.1-1,0.8-5.2,6.8-8.6c2.1-1.2,4.4-2.2,6.7-2.9c4.7-1.6,10.9-3.7,14.4-8.8c2.7,0.9,6.1,1.4,9.2,1.4
	c3.6,0,7.1-0.6,10.4-1.8c2.7,1.2,7.5,2.4,13.7,2.4h0.1c15.4,0,32.8-7.5,46.6-20.1c6.9-6.3,16.9-10.5,17-10.5
	c0.9-0.4,1.4-1.3,1.2-2.2c-0.2-0.9-1-1.6-2-1.6c-0.1,0-10.4-0.2-16.1-2.7c-1.3-0.6-2.5-1.2-3.7-1.8l-0.4-0.2
	c-3.3-1.7-7-3.7-12.4-4.6c7-5.8,16.5-15.4,27-30.9c18.3-27.2,24.5-54.7,24.6-55c0-0.1,0-0.1,0-0.2l0.2-1.5c0-0.1,0-0.2,0-0.4
	C290.5,76.1,289.6,75.2,288.5,75.2z M241.6,152.5c3.7-3.5,7.1-7.3,10.2-11C248.7,145.2,245.3,148.9,241.6,152.5z M185.6,201.1
	c-0.6,0.1-1.1,0.1-1.6,0.1c-0.6,0-1.3,0-2-0.1c0.8,0.1,1.4,0.1,2,0.1C184.5,201.2,185,201.2,185.6,201.1c1.7-0.2,3.7-0.8,5.9-1.7
	C189.3,200.2,187.3,200.8,185.6,201.1z M26.6,125.1c-4.3-6.5-8.2-13.5-11.5-20.1c-1.4-2.8-2.8-5.6-4-8.2c1.2,2.6,2.5,5.3,4,8.2
	C18.4,111.6,22.3,118.6,26.6,125.1c3.3,5,7.4,10.7,12.1,16.3C33.9,135.8,29.9,130.1,26.6,125.1z M8.2,86.8c0.6,0.5,1.2,1.1,1.9,1.6
	C9.4,87.9,8.8,87.3,8.2,86.8c-1.1-1.1-2.1-2.1-2.9-3l0,0C6.2,84.7,7.1,85.7,8.2,86.8z M175.4,54.7c1.8-1.5,3.7-3.2,5.3-4.6
	C179.1,51.5,177.2,53.2,175.4,54.7c-0.9,0.8-1.8,1.6-2.6,2.5C173.6,56.4,174.5,55.5,175.4,54.7z M182.6,48.6
	c-0.3,0.2-0.5,0.5-0.9,0.7C182,49.1,182.3,48.8,182.6,48.6z M229.5,107.2c-0.4-2-0.9-3.9-1.5-5.8
	C228.6,103.3,229.1,105.3,229.5,107.2z M222.3,166.8l-1,0.5l0,0L222.3,166.8z M250.2,178c0.7,0.2,1.4,0.4,2.1,0.6
	c1.3,0.4,2.7,0.7,4.1,0.9c-3,1.8-6.7,4.3-10.8,7.7c-9.8,8.1-31.3,12.3-38.4,12.3c-0.3,0-0.6,0-0.9,0c6.8-6,12-14.6,14.6-24.3
	c0,0,0,0,0-0.1l0.1-0.3c0-0.1,0-0.1,0.1-0.2h0.1l0,0c1.5,0,3.6-0.2,6.9-0.7c0.7-0.1,1.4-0.2,2.1-0.2h0.1c5.3,0,12.6,2.2,19.1,4.1
	L250.2,178z M179.8,198.8c-0.7-0.1-1.4-0.2-2-0.3c0-0.5,0-0.9,0-1.4c0-7.3-3.2-11.5-6.6-14.1c5.3-2.5,10.3-6.5,13.8-11.2h11.7
	c8.4,0,15.3-2.6,20.5-5.6c-1.7,3.3-3.5,7.4-5.4,12.5c-3.7,10.2-20.5,20.5-27.8,20.5c-0.9,0-2.4-0.2-3.9-0.3L179.8,198.8z
	 M150.7,212.2c-0.4,0.2-0.7,0.4-1,0.6c-2.1,1.2-3.5,3-4.5,4.9c-1-1.9-2.4-3.7-4.5-4.9c-0.4-0.2-0.7-0.4-1.1-0.7
	c-1-0.6-2.1-1.3-3.3-1.8c-5.1-2.5-14.5-7-14.5-13.5c0-10.3,14.4-10.8,17.3-10.8c1.6,0,4.2-0.2,6.1-1.1c1.8,1,4.4,1.1,6,1.1
	c2.9,0,17.4,0.5,17.4,10.8c0,6.4-9.4,11-14.5,13.5C152.9,211,151.7,211.6,150.7,212.2z M144.1,220.1c-0.1-0.2-0.2-0.4-0.2-0.6
	C144,219.8,144.1,220,144.1,220.1z M143.7,219.1c-0.1-0.2-0.2-0.4-0.3-0.6C143.5,218.7,143.6,218.9,143.7,219.1z M143.1,218
	c-0.1-0.2-0.2-0.4-0.4-0.5C142.9,217.7,143,217.9,143.1,218z M114.9,200.1c-1.2,0.3-2.6,0.5-3.9,0.7c-0.6,0.1-1.3,0.1-1.8,0.2
	c0.6-0.1,1.2-0.1,1.8-0.2C112.3,200.7,113.6,200.4,114.9,200.1L114.9,200.1z M112.7,198.5c-0.7,0.1-1.4,0.2-2,0.3h-0.4
	c-1.5,0.2-2.9,0.3-3.8,0.3c-7.3,0-24.2-10.3-27.8-20.5c-1.8-5.1-3.7-9.2-5.4-12.5c5.1,2.9,12.1,5.6,20.5,5.6h11.7
	c3.5,4.7,8.5,8.7,13.8,11.2c-3.4,2.6-6.6,6.9-6.6,14.1C112.7,197.6,112.7,198,112.7,198.5z M40.4,178l0.6-0.2
	c6.5-1.9,13.8-4.1,19.1-4.1h0.1c0.7,0,1.4,0.1,2.1,0.2c3.2,0.5,5.4,0.7,6.9,0.7h0.1c0.1,0.2,0.1,0.4,0.2,0.6
	c2.6,9.7,7.8,18.4,14.6,24.3c-0.3,0-0.6,0-1,0c-7,0-28.5-4.2-38.3-12.3c-4.1-3.4-7.7-5.9-10.8-7.7c1.4-0.2,2.7-0.5,4-0.9
	C38.9,178.4,39.7,178.2,40.4,178z M66.3,42.3c6.2,3.6,16.4,10.1,24.2,18c7.9,7.9,12.1,14.4,14.5,19c-1.6-1.2-3.5-2.5-5.5-3.9
	C90.4,69.3,74.1,59.7,74,59.6c-0.3-0.2-0.7-0.3-1-0.3s-0.7,0.1-1,0.3c-0.6,0.4-1,1-1,1.7v0.1c0,0.9,0.2,9.2-2.5,17.3
	c-0.6,1.7-1.3,3.8-2.2,6.2c-0.4-2.7-0.7-5.8-0.7-8.9c0-5.7,0.6-10.8,1.2-15.3c0.5-3.7,0.9-7,0.9-9.9C67.7,47.5,67.1,44.6,66.3,42.3z
	 M107.1,48.4c0.1,0.7,0.2,1.6,0.2,2.6C107.3,50,107.2,49.1,107.1,48.4z M108.4,56.9c0.5-1.7,0.7-3.2,0.8-4.5c1.4,1.2,3,2.6,4.5,3.9
	c1.4,1.2,2.7,2.5,3.9,3.8c-2.3,3.8-4.4,7.7-6.2,11.7c-1.4-2.5-3.1-5-5.1-7.5L108.4,56.9z M150.8,43.9l0.3,0.3
	c6.6,7.7,17.6,20.7,24.5,45.6c3.9,14,3.2,27.5,2.3,34.9c-5.2-3.5-11-5.8-16-7.6c-2-0.7-4-1.6-5.9-2.6c-6.5-3.7-8.8-9.8-8.9-10.1
	v-0.1c-0.1-0.1-0.1-0.3-0.2-0.4c0-0.1-0.1-0.1-0.1-0.2c-0.1-0.1-0.2-0.2-0.3-0.3l-0.1-0.1c-0.1-0.1-0.3-0.1-0.4-0.2h-0.1
	c-0.1,0-0.2-0.1-0.4-0.1c-0.1,0-0.1,0-0.2,0l0,0l0,0l0,0l0,0c-0.1,0-0.1,0-0.2,0c-0.1,0-0.3,0-0.4,0.1h-0.1
	c-0.1,0.1-0.3,0.1-0.4,0.2c0,0-0.1,0-0.1,0.1c-0.1,0.1-0.2,0.2-0.3,0.3c0,0.1-0.1,0.1-0.1,0.2c-0.1,0.1-0.2,0.3-0.2,0.4v0.1
	c-0.1,0.3-2.4,6.4-8.9,10.1c-1.9,1-3.8,1.9-5.9,2.6c-5,1.8-10.7,4-16,7.6c-0.9-7.4-1.6-20.9,2.3-34.9c6.9-25,17.9-37.9,24.5-45.6
	l0.3-0.3c2.7-3.2,4.5-6.2,5.6-8.7C146.4,37.7,148.1,40.6,150.8,43.9z M183.1,51c0-1.1,0.1-1.9,0.2-2.6C183.2,49.1,183.1,50,183.1,51
	z M184.1,64.3c-2.3,2.7-3.9,5.3-5.1,7.5c-1.8-4-3.9-8-6.2-11.7c1.2-1.3,2.5-2.6,3.9-3.8c1.3-1.1,2.8-2.4,4.5-3.9
	c0.1,1.3,0.4,2.8,0.8,4.5L184.1,64.3z M199.9,60.3c7.7-7.8,18-14.4,24.2-18c-0.7,2.3-1.3,5.1-1.4,8.5l0,0c0,2.9,0.4,5.9,0.9,9.9
	c0.6,4.5,1.3,9.6,1.2,15.3c0,3.1-0.3,6.1-0.7,8.9c-0.8-2.3-1.6-4.4-2.2-6.2c-2.8-8.4-2.5-17-2.5-17.4c0-0.7-0.4-1.4-1-1.8
	c-0.3-0.2-0.7-0.3-1-0.3s-0.7,0.1-1,0.3c-0.2,0.1-16.4,9.7-25.5,15.8c-2.1,1.4-3.9,2.7-5.5,3.9C187.7,74.7,192,68.2,199.9,60.3z
	 M73,61.3c0,0,1.3,0.8,3.3,2C74.3,62.1,73,61.3,73,61.3L73,61.3z M148.7,110.9c-0.6-0.8-1.2-1.5-1.6-2.2l0,0
	C147.5,109.4,148.1,110.1,148.7,110.9z M194.7,78.9c-0.5,0.4-1.1,0.8-1.6,1.2C193.7,79.7,194.2,79.3,194.7,78.9z M196.2,80.3
	c5.2-3.8,13-9.2,17.7-12.6c0,3.8,0.4,8.8,2,13.9v0.1c4.1,13.4,6,21.1,6.6,27.6c0,0.3,0.1,0.6,0.1,0.8c-7,6.7-9.5,14.4-11.7,21.2
	c-0.5,1.7-1.2,3.6-1.8,5.4c-3.9,10.5-11,19.6-16,23.7c-1.5,1.2-2.6,2.3-3.5,3.2c1.6-4.1,2.4-8.5,2.4-13.1c0-6.7-1.7-12.5-5.1-17.4
	c1.2-7.4,3.1-24.8-1.8-43.9C187.2,87.1,191.2,84,196.2,80.3z M200.1,75c0.4-0.3,0.8-0.6,1.3-0.9C200.9,74.4,200.5,74.7,200.1,75z
	 M186.4,165.7c0.3-0.6,0.6-1.2,0.8-1.8C187,164.5,186.7,165.1,186.4,165.7L186.4,165.7z M189,158.4c-0.3,1.3-0.7,2.5-1.1,3.7
	C188.4,160.9,188.7,159.7,189,158.4z M186.2,115.9c0-0.5,0-1,0-1.5C186.2,114.9,186.2,115.4,186.2,115.9z M186.1,109.7
	c-0.1-1.6-0.2-3.3-0.4-5C185.9,106.4,186,108.1,186.1,109.7z M187,137.3c-0.7-1.3-1.4-2.5-2.3-3.7c0-0.2,0.1-0.5,0.1-0.7
	c0.1-0.5,0.2-1,0.2-1.6s0.2-1.2,0.3-1.8c-0.1,0.6-0.2,1.3-0.3,1.8s-0.2,1.1-0.2,1.6c0,0.2-0.1,0.5-0.1,0.7
	C185.6,134.8,186.4,136,187,137.3z M185.5,128.5c0.1-0.7,0.2-1.4,0.2-2.1C185.6,127.1,185.6,127.8,185.5,128.5z M212.7,132
	c0.4-1.3,0.9-2.7,1.3-4.1c0.3-0.9,0.6-1.8,1-2.7c-0.4,0.9-0.7,1.8-1,2.7C213.6,129.3,213.2,130.7,212.7,132
	c-0.3,0.9-0.6,1.8-0.9,2.7C212.1,133.8,212.4,132.9,212.7,132z M223.4,88.5c-0.3-0.9-0.6-1.7-0.9-2.5c-0.3-0.8-0.6-1.6-0.9-2.4
	c0.3,0.8,0.6,1.6,0.9,2.4C222.8,86.8,223.1,87.7,223.4,88.5c0.5,1.2,0.9,2.5,1.4,3.8C224.3,91,223.9,89.8,223.4,88.5z M217.8,68.3
	c0.1,1.4,0.3,2.9,0.6,4.4C218.2,71.2,218,69.7,217.8,68.3z M217.5,64.7c0,0.7,0.1,1.5,0.2,2.3C217.6,66.1,217.6,65.4,217.5,64.7z
	 M190.9,81.8c-0.5,0.3-0.9,0.7-1.3,1C190,82.4,190.5,82.1,190.9,81.8z M182.8,88.6c0.8,3.1,1.5,6.2,2,9.1c0.3,1.8,0.5,3.5,0.7,5.3
	c-0.2-1.7-0.4-3.5-0.7-5.3C184.3,94.7,183.7,91.7,182.8,88.6L182.8,88.6z M170.2,122.6c1.6,0.7,3.2,1.6,4.7,2.5
	C173.3,124.2,171.8,123.3,170.2,122.6z M156.6,117c-0.5-0.2-1-0.5-1.5-0.8c-2.3-1.3-4.2-2.9-5.6-4.4c1.4,1.6,3.3,3.1,5.6,4.4
	C155.6,116.5,156.1,116.8,156.6,117c1.5,0.7,3.1,1.4,4.7,2C159.7,118.4,158.1,117.8,156.6,117z M117.9,123.8c3.1-1.7,6.3-3,9.2-4
	C124.2,120.8,121.1,122.1,117.9,123.8z M111,128.2c1.5-1.2,3-2.2,4.5-3.1C114,126.1,112.5,127.1,111,128.2L111,128.2z M89.8,155.3
	c-0.8-1-1.5-2-2.3-3C88.2,153.3,89,154.3,89.8,155.3s1.5,1.8,2.3,2.7C91.3,157.1,90.5,156.2,89.8,155.3z M67.3,100.9
	c-0.6,3.1-1,5.7-1.3,8.2c0,0.3-0.1,0.6-0.1,0.9c0-0.3,0.1-0.6,0.1-0.9C66.2,106.7,66.6,104,67.3,100.9z M103.6,133.1
	c-3.4,4.9-5.1,10.7-5.1,17.4c0,4.7,0.8,9.1,2.4,13.2c-0.8-0.9-1.9-1.9-3.5-3.2c-5-4.1-12.1-13.2-16-23.7c-0.7-1.8-1.3-3.7-1.8-5.4
	c-2.3-7.2-4.7-14.6-11.7-21.2c0-0.3,0.1-0.5,0.1-0.8c0.6-6.5,2.5-14.3,6.6-27.7c1.6-5.1,2-10.1,2-13.9c4.7,3.3,12.5,8.7,17.7,12.6
	c5,3.7,9,6.8,11.1,8.9C100.6,108.3,102.4,125.7,103.6,133.1z M104,165.7c-0.6,0-1.2,0-1.8,0c-0.7,0-1.4,0-2.1,0c0.7,0,1.4,0,2.1,0
	C102.9,165.7,103.5,165.7,104,165.7L104,165.7z M74.6,67.4c0-0.1,0-0.3,0-0.4C74.6,67.1,74.6,67.3,74.6,67.4z M74.5,66.7
	c0-0.2,0-0.4,0-0.5C74.5,66.3,74.5,66.5,74.5,66.7z M74.5,66c0-0.2,0-0.5,0-0.7C74.5,65.5,74.5,65.7,74.5,66z M74.5,64.9
	c0-0.1,0-0.3,0-0.4C74.5,64.6,74.5,64.8,74.5,64.9z M74.4,64.3c0-0.2,0-0.3,0-0.5l0,0C74.4,64,74.4,64.1,74.4,64.3z M74.6,68.3
	c0-0.1,0-0.2,0-0.3C74.6,68.1,74.6,68.2,74.6,68.3z M93.3,77.1c0.8,0.6,1.5,1.1,2.2,1.6C94.8,78.2,94,77.7,93.3,77.1z M77.9,66.3
	c0.8,0.6,1.7,1.2,2.7,1.9C79.6,67.5,78.7,66.8,77.9,66.3z M83.1,69.9c0.4,0.3,0.8,0.5,1.2,0.8C83.9,70.4,83.5,70.2,83.1,69.9z
	 M89,74c1,0.7,2,1.4,3,2.1C91,75.5,90,74.8,89,74z M74.5,71.1c0,0.2,0,0.3,0,0.5C74.4,71.5,74.5,71.3,74.5,71.1z M74.6,69
	c0,0.1,0,0.3,0,0.4C74.5,69.3,74.6,69.1,74.6,69z M74.5,70c0,0.2,0,0.4,0,0.7C74.5,70.5,74.5,70.2,74.5,70z M73.2,79.4
	c0.3-1.2,0.5-2.3,0.7-3.4C73.7,77.1,73.5,78.2,73.2,79.4z M74.1,75c0-0.1,0-0.2,0.1-0.3C74.1,74.8,74.1,74.9,74.1,75z M74.2,74
	c0-0.2,0-0.4,0.1-0.5C74.2,73.6,74.2,73.8,74.2,74z M74.3,72.9c0-0.2,0-0.4,0.1-0.6C74.4,72.5,74.3,72.7,74.3,72.9z M65.8,110.9
	c0.4,0.4,0.9,0.8,1.3,1.2c0.8,0.8,1.6,1.7,2.3,2.5c0.7,0.9,1.3,1.7,1.9,2.6c-0.6-0.9-1.2-1.7-1.9-2.6c-0.7-0.9-1.5-1.7-2.3-2.5
	C66.7,111.7,66.2,111.3,65.8,110.9L65.8,110.9z M74.8,123.9c0.6,1.3,1.1,2.7,1.6,4.1C75.9,126.6,75.4,125.3,74.8,123.9
	c-0.8-1.8-1.6-3.6-2.7-5.3C73.2,120.3,74,122.1,74.8,123.9z M79.6,137.5c1.8,4.7,4.2,9.2,6.8,13.1C83.8,146.7,81.4,142.3,79.6,137.5
	c-0.3-0.9-0.7-1.8-1-2.7C78.9,135.7,79.3,136.6,79.6,137.5z M106.7,83.1c0.3,0.3,0.6,0.5,0.9,0.8C107.4,83.6,107.1,83.4,106.7,83.1z
	 M101.3,79c0.8,0.5,1.4,1,2.1,1.5C102.7,80.1,102,79.6,101.3,79z M98.4,77c-2-1.3-4.3-2.9-6.8-4.4C94,74.2,96.4,75.7,98.4,77
	c0.7,0.5,1.4,0.9,2,1.4C99.8,78,99.1,77.5,98.4,77z M88.4,70.7c0.7,0.4,1.4,0.9,2.1,1.3C89.9,71.5,89.1,71.1,88.4,70.7z M84.3,68.1
	c1,0.6,2.1,1.3,3.1,1.9C86.3,69.4,85.3,68.7,84.3,68.1z M81.3,66.3c-1.6-1-3-1.8-4.3-2.6C78.3,64.4,79.7,65.3,81.3,66.3
	c0.6,0.4,1.3,0.8,2,1.2C82.6,67.1,81.9,66.7,81.3,66.3z M72.9,65.8C73,65,73,64.3,73,63.7C72.9,64.3,72.9,65,72.9,65.8z M65.6,92.3
	c-0.3-1.4-0.7-3.2-1.1-5.1c-0.3-2-0.6-4.1-0.8-6.4c0.2,2.3,0.5,4.5,0.8,6.4C64.9,89.1,65.3,90.9,65.6,92.3c0.2-0.6,0.5-1.3,0.7-1.9
	C66.1,91,65.9,91.7,65.6,92.3z M68.4,165.7c0.2,0.5,0.4,1.1,0.7,1.6C68.9,166.8,68.7,166.2,68.4,165.7z M71.2,173.6
	c-0.1-0.4-0.2-0.7-0.3-1.1c-0.2,0-0.5,0.1-0.7,0.1c0.3,0,0.5-0.1,0.7-0.1C71,172.9,71.1,173.3,71.2,173.6z M69.9,172.6
	c-0.1,0-0.3,0-0.4,0h-0.1C69.5,172.6,69.7,172.6,69.9,172.6z M67.6,163.8c0-0.1-0.1-0.1-0.1-0.2C67.5,163.6,67.6,163.7,67.6,163.8z
	 M67.1,162.7c0,0,0-0.1-0.1-0.1C67.1,162.6,67.1,162.6,67.1,162.7z M66.6,161.6c-0.1-0.2-0.2-0.4-0.3-0.5
	C66.4,161.2,66.5,161.4,66.6,161.6z M66.1,160.6c-0.1-0.2-0.2-0.3-0.2-0.5C65.9,160.2,66,160.4,66.1,160.6z M65.6,159.6
	c0-0.1-0.1-0.1-0.1-0.2C65.5,159.5,65.6,159.5,65.6,159.6z M64,156.5C63.9,156.5,63.9,156.4,64,156.5
	C63.9,156.4,63.9,156.5,64,156.5z M106.4,150.1L106.4,150.1c0,5,1.3,9.3,3.3,12.9C107.7,159.4,106.4,155.1,106.4,150.1z
	 M108.4,150.1c-0.1-11.1,8.1-20.5,23-26.5c6.5-2.6,11.1-6,13.7-10c0-0.1,0.1-0.1,0.1-0.2c0,0.1,0.1,0.1,0.1,0.2
	c2.6,4,7.2,7.4,13.7,10c14.9,6,23.1,15.4,23,26.5c-0.1,17.7-17.7,26.4-21.6,28.1c-1.9-0.4-3.8-0.6-5.7-0.6c-3,0-5.6,0.2-7.4,0.7
	c-0.9,0.2-1.6,0.5-2.1,0.8c-0.6-0.3-1.3-0.6-2.1-0.8c-1.8-0.4-4.3-0.7-7.4-0.7c-1.9,0-3.8,0.2-5.7,0.6
	C126.1,176.5,108.5,167.8,108.4,150.1z M136.8,179.6c-0.3,0-0.7,0-1.1,0l0,0C136.1,179.6,136.5,179.6,136.8,179.6z M134.2,184.5
	c-0.1,0-0.2,0-0.4,0.1C133.9,184.5,134.1,184.5,134.2,184.5z M133.4,184.6c-0.1,0-0.3,0-0.4,0.1
	C133.1,184.7,133.3,184.6,133.4,184.6z M132.6,184.8c-0.1,0-0.3,0.1-0.4,0.1C132.3,184.8,132.4,184.8,132.6,184.8z M131.7,185
	c-0.1,0-0.3,0.1-0.4,0.1C131.5,185,131.6,185,131.7,185z M136.9,184.2c-0.1,0-0.2,0-0.3,0C136.7,184.2,136.8,184.2,136.9,184.2z
	 M136.3,184.2c-0.1,0-0.2,0-0.3,0C136.1,184.3,136.2,184.3,136.3,184.2z M135.7,184.3c-0.1,0-0.2,0-0.3,0
	C135.4,184.3,135.5,184.3,135.7,184.3z M134.9,184.4c-0.1,0-0.2,0-0.3,0C134.7,184.4,134.8,184.4,134.9,184.4z M138.8,184.1h-0.1
	C138.7,184.1,138.7,184.1,138.8,184.1z M138.4,184.1c-0.1,0-0.1,0-0.2,0C138.3,184.1,138.4,184.1,138.4,184.1z M138,184.1
	c-0.1,0-0.1,0-0.2,0C137.9,184.1,137.9,184.1,138,184.1z M137.5,184.2c-0.1,0-0.2,0-0.2,0S137.4,184.2,137.5,184.2z M139,184.1
	L139,184.1L139,184.1z M142.3,183.9c-0.3,0.1-0.7,0.1-1,0.1C141.6,184,142,183.9,142.3,183.9z M143.6,183.5L143.6,183.5
	c-0.3,0.1-0.6,0.2-0.9,0.2C143.1,183.7,143.4,183.6,143.6,183.5z M147.2,183.6c-0.1,0-0.1,0-0.2-0.1
	C147.1,183.6,147.1,183.6,147.2,183.6z M147.7,183.8c-0.1,0-0.1,0-0.2-0.1C147.5,183.7,147.6,183.7,147.7,183.8z M160.6,180.3
	c-1-0.2-1.9-0.4-2.9-0.5C158.7,179.9,159.7,180,160.6,180.3z M224.2,158.6c-0.4,0.4-1,0.9-1.6,1.4c-1,0.8-2.1,1.7-3.5,2.6
	c1.4-0.9,2.5-1.8,3.5-2.6C223.2,159.5,223.7,159,224.2,158.6L224.2,158.6z M212.1,190c-0.6,0.9-1.2,1.7-1.9,2.5
	C210.8,191.7,211.5,190.9,212.1,190z M220.4,172.6c-0.3,0-0.5-0.1-0.7-0.1C219.9,172.5,220.1,172.6,220.4,172.6z M217.7,163.6
	c-1.5,0.9-3.2,1.9-5.1,2.7C214.5,165.5,216.2,164.5,217.7,163.6z M209.4,167.6c-0.4,0.1-0.8,0.3-1.2,0.4
	C208.6,167.9,209,167.7,209.4,167.6z M200.3,163.5c0.9-0.8,1.7-1.7,2.6-2.6c0.7-0.7,1.3-1.4,2-2.1c-0.6,0.7-1.3,1.4-2,2.1
	C202,161.8,201.2,162.7,200.3,163.5z M211.4,149.1c-0.3,0.7-0.7,1.4-1,2C210.7,150.5,211.1,149.8,211.4,149.1z M212.8,146.1
	c-0.3,0.7-0.6,1.3-0.9,1.9C212.2,147.4,212.5,146.7,212.8,146.1z M214,143.3c0.5-1.2,1-2.5,1.5-3.8c0.2-0.4,0.3-0.9,0.5-1.3
	c0.2-0.5,0.4-1.1,0.6-1.6c0.9-2.2,1.7-4.3,2.6-6.4c-0.9,2.1-1.8,4.3-2.6,6.4c-0.2,0.5-0.4,1.1-0.6,1.6c-0.2,0.4-0.3,0.9-0.5,1.3
	C215,140.8,214.5,142.1,214,143.3c-0.3,0.7-0.6,1.4-0.9,2.1C213.4,144.7,213.7,144,214,143.3z M222.1,124.2c0.7-1.4,1.5-2.8,2.2-4.1
	C223.6,121.4,222.8,122.7,222.1,124.2c-0.5,1-1,1.9-1.4,3C221.2,126.1,221.6,125.1,222.1,124.2z M115,82.4c0.4-1.3,0.8-2.5,1.3-3.6
	C115.8,79.9,115.4,81.1,115,82.4z M63,48.6c0-0.5,0-1-0.1-1.5C62.9,47.6,63,48,63,48.6z M72.6,138.9c2.8,7.1,5.5,13.8,8.5,17.6
	c1.7,2.2,3.9,4.6,6,6.7c-13.4-2.1-22.5-9.7-22.7-9.8c-0.4-0.3-0.8-0.5-1.3-0.5c-0.1,0-0.1,0-0.2,0c-0.6,0.1-1.1,0.4-1.5,0.9
	c-0.2,0.2-0.6,1.1,0,2.1c0.4,0.7,1.9,3.3,3.5,6.6c-15.7-9.8-28.4-26.2-36.6-38.5c-7.1-10.8-13.2-23.2-17.4-32.5
	c3.3,2.4,7.7,4.9,13.4,7.1c2.8,1.1,5.5,2.1,8,3.1l0.4,0.2c13.9,5.3,23.1,8.8,28.7,15.1C65.7,121.8,69.2,130.5,72.6,138.9z
	 M61.4,171.8c-0.1,0-0.3,0-0.4,0C61.1,171.8,61.3,171.8,61.4,171.8z M114,169.2c0.6,0.7,1.3,1.4,2,2.1
	C115.3,170.6,114.7,169.9,114,169.2z M122.1,176.1c-0.7-0.4-1.3-0.9-2-1.4C120.8,175.2,121.4,175.7,122.1,176.1z M130,185.4
	c-0.1,0-0.3,0.1-0.4,0.1C129.8,185.5,129.9,185.4,130,185.4z M130.9,185.2c-0.1,0-0.3,0.1-0.4,0.1
	C130.6,185.2,130.8,185.2,130.9,185.2z M122,190.3c0.1-0.1,0.2-0.2,0.3-0.3C122.2,190.1,122.1,190.2,122,190.3z M122.6,189.6
	c0.1-0.1,0.2-0.2,0.3-0.3C122.8,189.4,122.7,189.5,122.6,189.6z M123.2,189c0.1-0.1,0.2-0.2,0.3-0.3
	C123.5,188.8,123.4,188.9,123.2,189z M123.9,188.4c0.1-0.1,0.2-0.2,0.3-0.3C124.2,188.2,124.1,188.3,123.9,188.4z M124.7,187.8
	c0.1-0.1,0.2-0.2,0.4-0.2C124.9,187.7,124.8,187.8,124.7,187.8z M125.4,187.3c0.1-0.1,0.3-0.1,0.4-0.2
	C125.7,187.2,125.6,187.3,125.4,187.3z M126.2,186.9c0.1-0.1,0.3-0.1,0.4-0.2C126.5,186.8,126.4,186.8,126.2,186.9z M127.1,186.5
	c0.1-0.1,0.3-0.1,0.4-0.2C127.3,186.4,127.2,186.4,127.1,186.5z M127.9,186.1c0.1-0.1,0.3-0.1,0.4-0.2
	C128.2,186,128.1,186.1,127.9,186.1z M128.8,185.8c0.1-0.1,0.3-0.1,0.4-0.1C129,185.7,128.9,185.8,128.8,185.8z M151.2,184.1
	c-0.1,0-0.2,0-0.2,0C151.1,184.1,151.2,184.1,151.2,184.1L151.2,184.1z M147.9,183.8c0.1,0,0.1,0,0.2,0
	C148.1,183.8,148,183.8,147.9,183.8z M148.4,183.9c0.1,0,0.2,0,0.3,0C148.6,183.9,148.5,183.9,148.4,183.9z M148.9,184
	c0.1,0,0.2,0,0.3,0C149.1,184,149,184,148.9,184z M149.4,184c0.1,0,0.2,0,0.2,0C149.6,184,149.5,184,149.4,184z M150,184.1
	c0.1,0,0.2,0,0.2,0C150.1,184.1,150,184.1,150,184.1z M150.5,184.1c0.1,0,0.2,0,0.2,0C150.6,184.1,150.6,184.1,150.5,184.1z
	 M208.5,194.5c-0.5,0.6-1,1.1-1.5,1.6C207.5,195.7,208,195.1,208.5,194.5z M229,171.8c0.1,0,0.3,0,0.4,0
	C229.3,171.8,229.2,171.8,229,171.8z M221,172.6c-0.1,0-0.3,0-0.4,0c0.2,0,0.4,0,0.6,0C221.1,172.6,221.1,172.6,221,172.6z
	 M229.1,155.9c0.5-0.8,0.3-1.9-0.4-2.5c-0.4-0.3-0.8-0.5-1.3-0.5s-0.9,0.2-1.3,0.5c-0.1,0.1-9.3,7.7-22.7,9.9c2.1-2.2,4.2-4.5,6-6.7
	c3-3.8,5.7-10.4,8.5-17.5l0,0c3.4-8.4,6.9-17.2,11.2-22.1c5.5-6.3,14.7-9.8,28.7-15.1l0.4-0.2c2.6-1,5.2-2,8-3.1
	c5.7-2.2,10.1-4.7,13.4-7.1c-4.2,9.3-10.3,21.7-17.4,32.6c-8.1,12.4-20.9,28.7-36.6,38.5C227.5,158.8,229.1,156,229.1,155.9z
	 M271,94.3c1.1-0.6,2.2-1.1,3.1-1.7C273.1,93.2,272.1,93.7,271,94.3z M275.5,91.8c3.7-2.3,6.3-4.5,8.2-6.5
	C281.9,87.2,279.2,89.5,275.5,91.8z M228.1,55.6c0.2,1.5,0.5,2.9,0.8,4.3C228.6,58.5,228.4,57.1,228.1,55.6z M227.5,48.6
	c0.1-3.5,0.8-6.4,1.4-8.4C228.3,42.1,227.6,45,227.5,48.6z M184.9,48.5c0,0.5,0,1,0.1,1.7C185,49.5,184.9,49,184.9,48.5z
	 M126.3,58.1c0.5-0.7,0.9-1.4,1.3-2.1C127.2,56.7,126.8,57.4,126.3,58.1z M122.4,64.9c0.4-0.7,0.7-1.4,1.1-2
	C123.1,63.6,122.8,64.2,122.4,64.9z M124.1,61.8c0.4-0.6,0.7-1.2,1.1-1.8C124.8,60.6,124.5,61.2,124.1,61.8z M119.2,71.6
	c0.3-0.7,0.6-1.3,0.9-1.9C119.8,70.3,119.5,70.9,119.2,71.6z M117.2,76.2c0.4-1.1,0.9-2.2,1.3-3.3C118.1,74,117.7,75.1,117.2,76.2z
	 M62.6,44.4c-0.1-0.8-0.3-1.6-0.5-2.3C62.3,42.8,62.4,43.5,62.6,44.4z M61.6,104.3c0.3-1,0.5-1.9,0.8-2.9l0,0
	C62.2,102.4,61.9,103.3,61.6,104.3c-0.3,1-0.5,1.9-0.7,2.9l0,0C61.2,106.2,61.4,105.3,61.6,104.3z M60.8,95.5c0.2,0.7,0.3,1.3,0.5,2
	C61.1,96.8,60.9,96.2,60.8,95.5z M16.3,92.6c-1-0.6-1.9-1.1-2.8-1.7c-0.9-0.6-1.7-1.1-2.4-1.7c0.7,0.6,1.5,1.1,2.4,1.7
	C14.4,91.5,15.4,92,16.3,92.6z M59,171.8c-0.3,0-0.7,0-1,0C58.3,171.8,58.7,171.8,59,171.8z M45.6,174.4c0.3-0.1,0.6-0.2,0.9-0.2
	C46.2,174.3,45.9,174.3,45.6,174.4z M48.2,173.7c0.4-0.1,0.8-0.2,1.2-0.3C49,173.5,48.6,173.6,48.2,173.7z M50.7,173.1
	c0.4-0.1,0.8-0.2,1.2-0.3C51.5,172.9,51.1,173,50.7,173.1z M53.2,172.5c0.4-0.1,0.7-0.1,1.1-0.2C54,172.4,53.6,172.5,53.2,172.5z
	 M55.7,172.1c0.4-0.1,0.7-0.1,1.1-0.1C56.4,172,56,172.1,55.7,172.1z M32.9,177.7c0.5-0.1,1.1-0.2,1.6-0.3
	C34,177.5,33.4,177.6,32.9,177.7z M35.3,177.3c0.8-0.2,1.6-0.4,2.3-0.6C36.8,177,36,177.1,35.3,177.3z M26.7,178
	c1.4,0.6,3.2,1.4,5.1,2.5C29.9,179.4,28.2,178.6,26.7,178L26.7,178z M28,178c0.5,0,1,0,1.5,0c-0.4,0-0.8,0-1.2,0
	C28.2,178,28.1,178,28,178z M30.5,177.9c0.5,0,1-0.1,1.4-0.1C31.5,177.9,31,177.9,30.5,177.9z M114.7,197.1L114.7,197.1
	c0-1.6,0.1-3,0.4-4.3C114.8,194.1,114.7,195.5,114.7,197.1z M118.2,186.8c-0.5,0.5-0.9,1.1-1.3,1.7
	C117.3,187.9,117.7,187.3,118.2,186.8z M115.5,178.6c2.8,1.9,5.6,3.2,8.1,4C121.2,181.8,118.3,180.4,115.5,178.6z M121.7,190.7
	c-0.1,0.1-0.2,0.2-0.2,0.3C121.6,190.9,121.6,190.8,121.7,190.7z M121.2,191.5c-0.1,0.1-0.1,0.2-0.2,0.4
	C121.1,191.7,121.2,191.6,121.2,191.5z M120.8,192.3c-0.1,0.1-0.1,0.3-0.2,0.4C120.7,192.6,120.7,192.5,120.8,192.3z M120.4,193.3
	c0,0.1-0.1,0.3-0.1,0.4C120.3,193.5,120.4,193.4,120.4,193.3z M120.2,194.3c0,0.1-0.1,0.3-0.1,0.4
	C120.1,194.5,120.1,194.4,120.2,194.3z M120,195.3c0,0.1,0,0.3-0.1,0.4C119.9,195.6,120,195.5,120,195.3z M139.2,218
	c-0.1-0.1-0.3-0.2-0.4-0.3C138.9,217.8,139.1,217.9,139.2,218z M140.8,215.3c-0.3-0.3-0.7-0.5-1-0.7
	C140.1,214.8,140.5,215,140.8,215.3z M141.7,216.1c-0.2-0.2-0.4-0.4-0.6-0.5C141.3,215.8,141.5,215.9,141.7,216.1z M142.5,217.1
	c-0.1-0.2-0.3-0.4-0.4-0.5C142.2,216.7,142.4,216.9,142.5,217.1z M142.3,220.8c-0.1-0.1-0.2-0.3-0.3-0.4
	C142.1,220.5,142.2,220.6,142.3,220.8z M143.6,222.5c-0.1-0.1-0.2-0.3-0.2-0.4C143.4,222.3,143.5,222.4,143.6,222.5z M143,221.6
	c-0.1-0.1-0.2-0.3-0.3-0.4C142.8,221.4,142.9,221.5,143,221.6z M169.3,184.1c-0.5-0.4-1.1-0.7-1.6-1
	C168.2,183.3,168.7,183.7,169.3,184.1s1.1,0.8,1.6,1.2C170.3,184.8,169.8,184.4,169.3,184.1z M173.6,188.5c-0.4-0.6-0.8-1.2-1.3-1.7
	C172.7,187.3,173.2,187.9,173.6,188.5z M175.8,197.1L175.8,197.1c0-1.6-0.1-3-0.4-4.3C175.6,194.1,175.8,195.5,175.8,197.1z
	 M178.9,205.8c-0.2,0-0.4-0.1-0.7-0.1C178.5,205.8,178.7,205.8,178.9,205.8z M177.7,205.6c-0.2,0-0.4-0.1-0.6-0.2
	C177.2,205.5,177.4,205.5,177.7,205.6z M176.4,205.3c-0.2-0.1-0.4-0.1-0.6-0.2C176,205.1,176.2,205.2,176.4,205.3z M181.6,206.2
	c-0.2,0-0.5-0.1-0.7-0.1C181.2,206.2,181.4,206.2,181.6,206.2z M180.3,206.1c-0.2,0-0.5-0.1-0.7-0.1C179.8,206,180,206,180.3,206.1z
	 M200.9,206.3c-0.2,0-0.3-0.1-0.4-0.1C200.6,206.2,200.7,206.2,200.9,206.3z M200,206.1c-0.1,0-0.3-0.1-0.4-0.1
	C199.7,206,199.8,206.1,200,206.1z M199.2,205.9c-0.1,0-0.3-0.1-0.4-0.1C198.9,205.8,199,205.9,199.2,205.9z M198.4,205.7
	c-0.1,0-0.2-0.1-0.4-0.1C198.1,205.6,198.2,205.7,198.4,205.7z M197.6,205.5c-0.1,0-0.2-0.1-0.3-0.1
	C197.4,205.4,197.5,205.5,197.6,205.5z M196.9,205.3c-0.1,0-0.2-0.1-0.3-0.1C196.7,205.2,196.8,205.2,196.9,205.3z M196.3,205
	c-0.1,0-0.2-0.1-0.3-0.1C196.1,205,196.2,205,196.3,205z M195.7,204.8c-0.1-0.1-0.2-0.1-0.4-0.2
	C195.5,204.7,195.6,204.8,195.7,204.8z M195.2,204.6c-0.1-0.1-0.2-0.1-0.3-0.2C195,204.5,195.1,204.5,195.2,204.6z M207.2,206.9
	c-0.2,0-0.4,0-0.6,0C206.8,206.9,207,206.9,207.2,206.9z M206,206.8c-0.2,0-0.4,0-0.6,0C205.7,206.8,205.9,206.8,206,206.8z
	 M204.9,206.8c-0.2,0-0.4,0-0.5,0C204.6,206.7,204.7,206.8,204.9,206.8z M203.8,206.7c-0.2,0-0.4,0-0.5-0.1
	C203.5,206.6,203.7,206.7,203.8,206.7z M202.8,206.6c-0.2,0-0.3,0-0.5-0.1C202.5,206.5,202.6,206.5,202.8,206.6z M201.8,206.4
	c-0.2,0-0.3-0.1-0.5-0.1C201.5,206.4,201.7,206.4,201.8,206.4z M262.2,178c-0.4,0-0.8,0-1.2,0c0.5,0,1,0,1.5,0
	C262.4,178,262.3,178,262.2,178z M258.5,177.8c0.5,0.1,1,0.1,1.4,0.1C259.5,177.9,259,177.8,258.5,177.8z M256,177.4
	c0.5,0.1,1.1,0.2,1.6,0.3C257,177.6,256.5,177.5,256,177.4z M252.9,176.7c-0.7-0.2-1.4-0.4-2.1-0.6
	C251.5,176.3,252.2,176.5,252.9,176.7c0.8,0.2,1.6,0.4,2.3,0.6C254.4,177.1,253.6,176.9,252.9,176.7z M258.4,133
	c-1.3,1.8-2.8,3.7-4.3,5.6C255.6,136.7,257,134.9,258.4,133z M255.5,96.7c2.7-0.8,5.3-1.5,7.8-2.4C260.7,95.1,258.1,95.9,255.5,96.7
	c-3.1,0.9-6.3,1.9-9.5,2.9C249.1,98.5,252.3,97.6,255.5,96.7z M241.9,101.1c-1.8,0.7-3.6,1.4-5.4,2.3
	C238.3,102.5,240.1,101.7,241.9,101.1z M231.5,78.5c0,0.9,0,1.9,0,2.8l0,0C231.6,80.3,231.6,79.4,231.5,78.5
	c-0.1-1.8-0.2-3.5-0.3-5.2C231.4,74.9,231.5,76.6,231.5,78.5z M230.9,70.9c-0.2-1.6-0.5-3.1-0.7-4.5
	C230.5,67.9,230.7,69.4,230.9,70.9z M186.4,55.6c0.4,1,0.8,2,1.2,2.8C187.2,57.6,186.8,56.6,186.4,55.6c-0.6-1.4-1-2.8-1.2-4.1
	C185.4,52.8,185.8,54.2,186.4,55.6z M185,47c0,0,0,0.2,0,0.4C185,47.1,185,47,185,47l0.2-1.5L185,47z M177.5,50.1
	c1.2-0.8,2.4-1.5,3.6-2.2C179.8,48.6,178.6,49.3,177.5,50.1z M162.9,49.9c0.8,1,1.7,2,2.6,3.2c0.9,1.1,1.8,2.3,2.7,3.6l0,0
	c-0.9-1.3-1.8-2.5-2.7-3.6C164.6,51.9,163.8,50.9,162.9,49.9c-0.8-1-1.7-1.9-2.4-2.8C161.3,47.9,162.1,48.9,162.9,49.9z M158.3,44.6
	c0.4,0.4,0.7,0.8,1.1,1.2C159,45.4,158.6,45,158.3,44.6s-0.6-0.7-0.9-1C157.6,43.9,157.9,44.3,158.3,44.6z M147.1,29.1L147.1,29.1
	c0.3,0.5,0.5,1,0.9,1.5C147.6,30.1,147.3,29.6,147.1,29.1z M138.2,37.4c0.5-0.6,0.9-1.3,1.3-1.9C139.1,36.2,138.6,36.8,138.2,37.4z
	 M137,39c-0.5,0.6-1,1.3-1.5,1.9c-0.2,0.2-0.4,0.5-0.6,0.7c0.2-0.2,0.4-0.5,0.6-0.7C136.1,40.3,136.5,39.6,137,39z M113.9,50.6
	c0.7,0.5,1.4,1,2.2,1.5c0.3,0.2,0.6,0.4,0.9,0.7c0.6,0.4,1.2,0.9,1.8,1.3c0.9,0.6,1.6,1.2,2.3,1.7c0.4,0.3,0.9,0.7,1.2,0.9
	c0.5-0.6,0.9-1.3,1.4-1.9c-0.4,0.6-0.9,1.2-1.4,1.9c-0.3-0.3-0.7-0.6-1.2-0.9c-0.7-0.5-1.5-1.1-2.3-1.7c-0.6-0.4-1.2-0.9-1.8-1.3
	c-0.3-0.2-0.6-0.4-0.9-0.7C115.3,51.6,114.6,51.1,113.9,50.6c-1.5-1-2.9-1.9-4.4-2.7C110.9,48.7,112.4,49.6,113.9,50.6z M106.6,46.2
	c-0.4-0.2-1-0.6-1.2-0.7C105.6,45.7,106.2,46,106.6,46.2z M101.4,61.7L101.4,61.7c0.2-0.3,0.3-0.7,0.5-1.1
	C101.7,61,101.5,61.4,101.4,61.7z M100.1,60.5c-1.2-1.2-2.5-2.4-3.8-3.5C97.6,58.2,98.9,59.3,100.1,60.5z M90.7,52.7
	c-1-0.7-1.9-1.4-2.9-2C88.8,51.4,89.8,52.1,90.7,52.7z M77.9,44.5c-0.9-0.5-1.8-1-2.7-1.5C76.1,43.5,77,44,77.9,44.5z M72.7,41.7
	c-0.8-0.4-1.6-0.8-2.3-1.2C71.1,40.8,71.9,41.2,72.7,41.7z M66.4,38.5c-0.6-0.3-1.1-0.5-1.6-0.7C65.3,37.9,65.9,38.2,66.4,38.5z
	 M59.7,35.5L59.7,35.5l0.8,2L59.7,35.5z M60.7,64.2c0.1-0.7,0.3-1.5,0.4-2.2c0.1-0.7,0.3-1.4,0.4-2.1c0.3-1.4,0.5-2.8,0.8-4.3
	c-0.2,1.5-0.5,2.9-0.8,4.3c-0.1,0.7-0.3,1.4-0.4,2.1C61,62.7,60.9,63.5,60.7,64.2c-0.9,4.4-1.6,8.8-1.8,14.3
	C59.1,73,59.9,68.6,60.7,64.2z M59.5,88.8c0.2,1.4,0.5,2.8,0.7,4.1C59.9,91.7,59.7,90.3,59.5,88.8z M50.8,101.9
	c3.1,1.3,6.2,2.8,9.2,4.7c0.2,0.1,0.3,0.2,0.5,0.3c-0.2-0.1-0.3-0.2-0.5-0.3C57,104.7,54,103.2,50.8,101.9c-2.1-0.9-4.2-1.6-6.3-2.3
	C46.6,100.3,48.8,101.1,50.8,101.9z M42.3,170.4c0.3-0.1,0.6-0.3,0.9-0.4C42.9,170.1,42.6,170.3,42.3,170.4z M119.5,208.5
	c0.3,0.3,0.6,0.5,0.9,0.7C120.1,209,119.8,208.7,119.5,208.5z M130.4,213.8c-2.1-0.7-4.2-1.5-6.2-2.4
	C126.2,212.3,128.3,213.1,130.4,213.8c0.6,0.2,1.2,0.4,1.8,0.7C131.6,214.2,131,214,130.4,213.8z M140,218.6
	c0.2,0.1,0.3,0.2,0.4,0.4C140.3,218.8,140.2,218.7,140,218.6z M141.5,219.9c-0.1-0.1-0.3-0.3-0.4-0.4
	C141.2,219.6,141.3,219.7,141.5,219.9z M170.9,208.6c-0.8,0.7-1.7,1.3-2.6,1.8c-0.6,0.4-1.3,0.7-1.9,1c-0.7,0.3-1.3,0.6-2,0.9
	c-1,0.4-2.1,0.8-3.1,1.2c1.1-0.4,2.1-0.8,3.1-1.2c0.7-0.3,1.4-0.6,2-0.9c0.7-0.3,1.3-0.6,1.9-1C169.2,209.8,170.1,209.2,170.9,208.6
	c0.5-0.4,1.1-0.9,1.5-1.4C171.9,207.6,171.4,208.1,170.9,208.6z M173.1,206.3c0.4-0.6,0.8-1.2,1.2-1.8l0,0
	C173.9,205.2,173.5,205.8,173.1,206.3z M174.5,204.6c0.2,0.1,0.5,0.2,0.7,0.3C175,204.8,174.8,204.7,174.5,204.6z M184.3,206.3
	c-0.2,0-0.4,0-0.7,0C183.9,206.3,184.1,206.3,184.3,206.3L184.3,206.3z M182.3,206.3c0.2,0,0.5,0,0.7,0
	C182.8,206.3,182.5,206.3,182.3,206.3z M192.2,205.2c0.9-0.2,1.7-0.5,2.5-0.9l0,0C193.9,204.7,193.1,205,192.2,205.2z M208.4,206.9
	c-0.2,0-0.4,0-0.6,0C208,206.9,208.2,206.9,208.4,206.9C208.4,206.9,208.4,206.9,208.4,206.9z M248.6,170.6
	c-0.6-0.3-1.1-0.6-1.7-0.8C247.5,170.1,248,170.3,248.6,170.6z M245.1,169c-0.6-0.3-1.2-0.5-1.9-0.7
	C243.9,168.5,244.5,168.8,245.1,169z M242.2,168c-0.7-0.2-1.4-0.4-2.2-0.6C240.8,167.6,241.5,167.8,242.2,168z M234.7,165.7
	c1.3-1,2.8-2.2,4.4-3.6C237.5,163.5,236,164.7,234.7,165.7z M250.4,150.9c-2.1,2.4-4.1,4.5-6,6.4
	C246.3,155.4,248.3,153.3,250.4,150.9c2.1-2.4,4.3-5,6.6-8C254.7,145.8,252.5,148.5,250.4,150.9z"/>
</svg>
