<?xml version="1.0" encoding="utf-8"?>
<!-- Generator: Adobe Illustrator 20.1.0, SVG Export Plug-In . SVG Version: 6.00 Build 0)  -->
<svg version="1.1" id="Layer_1" xmlns="http://www.w3.org/2000/svg" xmlns:xlink="http://www.w3.org/1999/xlink" x="0px" y="0px"
	 viewBox="0 0 1774 300" style="enable-background:new 0 0 1774 300;" xml:space="preserve">
<style type="text/css">
	.st0{fill:#D50F25;}
</style>
<title>logo</title>
<path class="st0" d="M144.8,52.3c-1,1.3-1.6,2.8-2,4.3l-0.6,2.8l-34.6,0.5c-35.1,0.5-38.7,0.8-46.5,2.9c-8.1,2.2-9.6,7.8-2.8,10.7
	c6.2,2.8,11.6,3.2,47.5,3.6l36.1,0.4v19.6l-31.1,0.5c-33.4,0.5-37.3,0.9-45.7,5.1c-5.9,3.2-10.4,8.7-12.4,15.1
	c-1.7,4.8-1.8,7.3-1.8,21.7c0,8.9,0.4,18.2,0.9,20.6c1.2,5.3,4.6,9.2,7.3,8.4c4.8-1.2,6.4-7.4,7.3-28.2c0.8-18.4,1.8-20.4,12.4-22.7
	c6.6-1.3,133.1-1.6,141.6-0.2c6.6,1,9.9,2.8,12,6.6c1.4,2.4,1.8,5,2.2,18.4c0.5,12.9,0.8,16.2,2.2,19.4c2.2,4.8,4.5,6.3,7.4,4.3
	c4.3-2.8,4.8-5.8,4.8-26.7v-19.2l-2.3-5c-2.8-6.1-6.4-9.9-11.6-12.6c-7.5-3.8-12.4-4.3-45.9-5l-31.6-0.6V77.6l36.1-0.5
	c37.9-0.4,44.4-1,49.2-4.3c3.4-2.3,3.7-5.8,0.6-8.1c-4.3-3.2-13-4-50.2-4.6l-35.6-0.6l-0.5-2.9c-0.7-4.4-2.6-6-7.2-6
	C147.4,50.7,145.9,51.1,144.8,52.3z"/>
<path class="st0" d="M99.9,132c-2.2,3.3-3,8.4-3.6,23.1c-0.8,19.9-1.8,21.6-20.4,32.2c-11.4,6.6-18,12.4-18.9,16.7
	c-0.4,2.2-0.1,3.1,1.8,4.9s2.7,2.2,5.9,1.8c4.3-0.4,18.9-7.3,26-12.1c16.7-11.4,22.6-26.6,20.5-52.5c-1.1-11.9-2.6-15.6-6.9-15.9
	C101.8,130,101,130.3,99.9,132z"/>
<path class="st0" d="M193,132.8c-3.8,3.2-4.8,8.1-4.8,22.2c0,10.1,0.3,13.1,1.8,17.9c2.2,7.2,7.1,14.9,12,19.1
	c9.8,8.4,26.8,17.8,33.9,18.6c3.8,0.4,4.5,0.2,6.4-1.7c5.5-5.5,0.7-11.9-17.2-22.4c-12.1-7.2-16.8-11.3-18.5-16
	c-0.8-2.2-1.4-8.2-1.7-15.6c-0.7-16.7-2.4-22.1-7.7-23.7C196,130.9,194.7,131.4,193,132.8z"/>
<path class="st0" d="M147.4,133.1c-4,4.4-4.8,11.1-5.5,50.2c-0.8,34.5-0.8,34.6-7.2,42c-6.7,7.8-11.8,8.9-42.2,8.9
	c-26,0-37.4,2-38.7,6.6c-0.7,2.7,1.7,5,6.8,6.5c4.2,1.3,8.3,1.5,34,1.5c36.5-0.1,40.9-0.8,49.7-9.2c5.6-5.3,6.1-5.3,11.6,0
	c2.4,2.3,5,4.3,7.9,5.8c6.3,2.7,18.4,3.8,42.2,3.8c24.1-0.1,33.6-1,37.9-3.8c2.6-1.8,2.8-4.6,0.5-6.7c-3.5-3.2-9.4-3.9-37.1-4.6
	c-25.6-0.7-31.6-1.2-36.1-3.7c-3.8-1.9-10.9-11.2-11.9-15.4c-0.5-2.2-1.2-18.4-1.6-37.6c-0.7-28-1-34.6-2.2-38.4
	C153.4,132,150.5,129.8,147.4,133.1z"/>
<path class="st0" d="M285,15v270H15V15H285 M300,0H0v300h300V0L300,0z"/>
<path class="st0" d="M374.8,89.6V72.2h124.4v17.4h-51.9v138.1h-20.7V89.6H374.8z"/>
<path class="st0" d="M558.9,72.2v66.9h81.9V72.2h20.7v155.6h-20.7v-71.2h-81.9v71.2h-20.7V72.2H558.9z"/>
<path class="st0" d="M782.5,72.2l60.8,155.6h-22.9l-17-46.9h-65.8l-17.4,46.9H699l60.6-155.6H782.5z M796.9,163.5L770.9,91h-0.4
	l-26.4,72.6L796.9,163.5L796.9,163.5z"/>
<path class="st0" d="M902.1,72.2L984,198.4h0.4V72.2h19.6v155.6h-22.6l-81.3-124.8h-0.4v124.8h-19.6V72.2H902.1L902.1,72.2z"/>
<path class="st0" d="M1080.1,72.2v66.9h81.9V72.2h20.7v155.6h-20.7v-71.2h-81.9v71.2h-20.7V72.2H1080.1z"/>
<path class="st0" d="M1341.6,72.2v66.9h81.9V72.2h20.7v155.6h-20.7v-71.2h-81.9v71.2h-20.7V72.2H1341.6z"/>
<path class="st0" d="M1565.2,72.2l60.8,155.6h-22.9l-17-46.9h-65.8l-17.4,46.9h-21.1l60.6-155.6L1565.2,72.2L1565.2,72.2z
	 M1579.5,163.5L1553.6,91h-0.4l-26.4,72.6L1579.5,163.5L1579.5,163.5z"/>
<path class="st0" d="M1684.6,72.2v155.6h-20.7V72.2H1684.6z"/>
<path class="st0" d="M1759,15v270H300.6V15H1759 M1774,0H285.6v300H1774V0L1774,0z"/>
</svg>
