<svg xmlns="http://www.w3.org/2000/svg" viewBox="0 0 192.76 192.76"><defs><style>.cls-1{fill:#fff;fill-rule:evenodd;}.cls-2{fill:#ed2129;}.cls-3{fill:#57b155;}.cls-4{fill:#353695;}.cls-5{fill:#231f20;}</style></defs><title>abs</title><g id="Layer_2" data-name="Layer 2"><g id="Layer_1-2" data-name="Layer 1"><polygon class="cls-1" points="0 0 192.76 0 192.76 192.76 0 192.76 0 0 0 0"/><path class="cls-2" d="M105.46,145a63.11,63.11,0,1,0-17.81.15l0,11.22a74.2,74.2,0,1,1,17.78-.14V145Z"/><path class="cls-3" d="M105.51,121.63a40,40,0,1,0-17.84.21V133a50.94,50.94,0,1,1,17.83-.14V121.63Z"/><path class="cls-4" d="M105.55,99.27a18.44,18.44,0,1,0-18,0l0,11.22a28.75,28.75,0,1,1,37.7-27.32,28.34,28.34,0,0,1-19.62,27.22l-.12-11.14Z"/><polygon class="cls-5" points="91.21 82.74 91.48 162.28 101.71 162.28 101.71 82.74 91.21 82.74 91.21 82.74"/><path class="cls-5" d="M28.89,170.2a2.9,2.9,0,0,0,.61-1.31c0-.64-1.89-.86-3.93-1.15v-.41h11l9.63,16.41H38.66l-2.57-4.42H26l-2.53,4.42H20.55l8.34-13.54Zm-1.55,7.15h7.83l-3.84-6.81-4,6.81Z"/><path class="cls-5" d="M46.87,170.11c0-1.88-1-2-4.32-2.37v-.41h14c5.49,0,11.19.24,11.19,4,0,3.21-4,3.49-5.37,3.63v0c3.18,0,6.13,1.32,6.13,4.35,0,4.41-7,4.38-12.23,4.38H46.87V170.11Zm6.33,4.24h1.67c1.9,0,5.85-.13,5.85-2.76,0-2.22-2.31-2.79-5-2.79-2.35,0-2.49.17-2.49,1.61v3.94Zm0,6.38c0,1.56,0,1.69,2.83,1.69s5.84-.6,5.84-2.92c0-3.14-4.82-3.18-7-3.18H53.2v4.41Z"/><path class="cls-5" d="M130.41,170.11c0-1.88-.94-2-4.24-2.37v-.41H140c5.38,0,11,.24,11,4,0,3.21-3.93,3.49-5.26,3.63v0c3.11,0,6,1.32,6,4.35,0,4.41-6.82,4.38-12,4.38h-9.26V170.11Zm6.21,4.24h1.64c1.87,0,5.74-.12,5.74-2.69,0-2.15-2.27-2.72-4.94-2.72-2.3,0-2.44.17-2.44,1.57v3.84Zm0,6.28c0,1.52,0,1.64,2.77,1.64s5.74-.58,5.74-2.85c0-3.06-4.74-3.1-6.87-3.1h-1.64v4.31Z"/><path class="cls-5" d="M86.85,171.93a8.92,8.92,0,0,0-7.6-3.79c-3.18,0-4.41.87-4.49,2.33-.18,3.12,14.2,2.34,13.79,8.53-.25,3.78-5.41,4.86-11.09,4.86-3.09,0-7.26-.47-8-.56v-4.59a14.7,14.7,0,0,0,8.4,3.72c3,.07,4.5-.37,4.5-2.41,0-3.39-13.56-1.74-13.14-8.42.16-2.67,3.51-4.84,10.28-4.62,2.86.09,7.34.51,7.59.8l-.23,4.15Z"/><path class="cls-5" d="M128.94,177.85c-1.75,1.75-3.94,4.38-9,4.38-5.94,0-7.24-3.49-7.24-6.95,0-3.73,2.18-6.24,4.83-6.41,3.39-.22,4.54,1.21,5.5,3.27h5.72c-1-3.71-4.88-5-10.93-5.08-9.06-.16-12,3.48-12,7.92,0,5,2.19,9.33,13,9.27a36.06,36.06,0,0,0,9-1.37l1.17-5Z"/><path class="cls-5" d="M172.17,167.33h-7v.28s4.08,0,4.3,1.76v9l-11.69-11h-8.55v.41c3.45.34,3.9.4,3.9,2.35L153,183.7h2.63V173.2l10.9,10.54h5.63V167.33Z"/><path class="cls-5" d="M102.2,175a5.38,5.38,0,1,1-5.38-5.38A5.38,5.38,0,0,1,102.2,175Z"/></g></g></svg>