<svg xmlns="http://www.w3.org/2000/svg" viewBox="0 0 569.27 312.07"><defs><style>.cls-1{fill:#5f6062;}.cls-2{fill:#ed0080;}.cls-3{fill:#00b4de;}.cls-4{fill:#f37021;}</style></defs><title>ae</title><g id="Layer_2" data-name="Layer 2"><g id="Layer_1-2" data-name="Layer 1"><path class="cls-1" d="M455.44,158.47a5.1,5.1,0,0,1-5.07-5.07V119.28a5.09,5.09,0,0,1,5.07-5h65.38a5.1,5.1,0,0,0,5.08-5.09V79.57a5.09,5.09,0,0,0-5.08-5.07H455.44a5.1,5.1,0,0,1-5.07-5.07V41A5.09,5.09,0,0,1,455.44,36h92.48A5.12,5.12,0,0,0,553,30.89V5.07A5.11,5.11,0,0,0,547.92,0H412.68a5.1,5.1,0,0,0-5.1,5.07V189.35a5.09,5.09,0,0,0,5.1,5.06h137.4a5.11,5.11,0,0,0,5.1-5.06V163.54a5.11,5.11,0,0,0-5.1-5.07H455.44"/><path class="cls-1" d="M114.21,107.33a3.41,3.41,0,0,1-3.42,4.81H75.54a3.36,3.36,0,0,1-3.37-4.79L91.56,52.69a28.3,28.3,0,0,1,2-4.77,27.8,27.8,0,0,1,1.92,4.8l18.75,54.61m69.28,87.08c2.78,0,4.28-2.13,3.29-4.74L117.64,4.76A7.9,7.9,0,0,0,110.79,0H77.1a8,8,0,0,0-6.88,4.75L.31,189.67c-1,2.61.49,4.74,3.29,4.74H36.46a7.69,7.69,0,0,0,6.76-4.78l11.6-33a7.68,7.68,0,0,1,6.75-4.78h63.1a7.55,7.55,0,0,1,6.68,4.82l11.18,32.92a7.59,7.59,0,0,0,6.72,4.8Z"/><path class="cls-2" d="M188.88,111.71a5.07,5.07,0,0,0,5.07,5.08h53.7a5.08,5.08,0,0,0,5.07-5.08V82.13a5.08,5.08,0,0,0-5.07-5.06H194a5.07,5.07,0,0,0-5.07,5.06v29.58"/><path class="cls-3" d="M313.24,111.71a5.07,5.07,0,0,0,5.07,5.08h53.3a5.07,5.07,0,0,0,5.05-5.08V82.16a5.07,5.07,0,0,0-5.05-5.07h-53.3a5.07,5.07,0,0,0-5.07,5.07v29.55"/><path class="cls-4" d="M263.1,132.49a5.1,5.1,0,0,1,5.06-5.09h29.55a5.1,5.1,0,0,1,5.08,5.09v50.59a5.08,5.08,0,0,1-5.08,5.06H268.16a5.09,5.09,0,0,1-5.06-5.06V132.49"/><path class="cls-1" d="M263.1,60.27a5.09,5.09,0,0,0,5.06,5.07h29.55a5.09,5.09,0,0,0,5.08-5.07V7a5.08,5.08,0,0,0-5.08-5.06H268.16A5.09,5.09,0,0,0,263.1,7V60.27"/><path class="cls-1" d="M557.09,288.81c0-12.81-9.19-17.33-23.9-21.64-12.92-3.69-16.31-6.14-16.31-11.18,0-4.82,3.73-8.92,12.47-8.92,7.35,0,16.29,6.1,16.29,6.1a1.65,1.65,0,0,0,2-.19s5.7-5.45,5.89-5.72a1.5,1.5,0,0,0-.19-2.19,34.21,34.21,0,0,0-23.15-8.58c-13.74,0-24.64,7.59-24.64,20,0,12.83,7.54,16.63,23.34,21.15,12.51,3.57,16.85,6.36,16.85,11.89,0,7-5,10.48-15.43,10.48-8.62,0-18.39-7.68-18.39-7.68a1.63,1.63,0,0,0-2.05.09l-5.79,5.4a1.73,1.73,0,0,0,.13,2.59,35.41,35.41,0,0,0,25.23,10.17c19,0,27.63-8.81,27.63-21.78"/><path class="cls-1" d="M558.56,288.81a20.23,20.23,0,0,0-1.81-8.81c-1.8-3.78-4.88-6.56-8.81-8.75a70.75,70.75,0,0,0-14.33-5.49h0c-6.41-1.83-10.4-3.36-12.56-4.89a6.06,6.06,0,0,1-2.11-2.21,5.53,5.53,0,0,1-.56-2.67,6.3,6.3,0,0,1,2.4-5.12c1.67-1.35,4.43-2.33,8.58-2.33,3.27,0,7.22,1.42,10.26,2.9,1.52.74,2.83,1.48,3.75,2,.47.27.83.5,1.08.66l.27.18.09.06.84-1.21-.88,1.19a3,3,0,0,0,1.76.54,3,3,0,0,0,2.22-.9l-1.07-1,1,1.07,2.87-2.77c.73-.69,1.46-1.41,2-2l.7-.7.23-.24.09-.1.15-.18-1.22-.84,1.06,1a2.81,2.81,0,0,0,.81-2,3.16,3.16,0,0,0-1.08-2.35h0a35.69,35.69,0,0,0-24.1-8.93c-7.14,0-13.62,2-18.38,5.67a19.49,19.49,0,0,0-7.74,15.82,21.74,21.74,0,0,0,1.55,8.65,17.54,17.54,0,0,0,8.23,8.49c3.83,2.1,8.68,3.72,14.63,5.42,6.2,1.77,10.31,3.35,12.69,5a7.54,7.54,0,0,1,2.41,2.48,6,6,0,0,1,.68,3,9.16,9.16,0,0,1-.79,4,7.59,7.59,0,0,1-4.25,3.69,24.05,24.05,0,0,1-8.91,1.37c-3.87,0-8.32-1.8-11.72-3.67-1.7-.93-3.15-1.86-4.17-2.55l-1.19-.84-.3-.24-.1-.07-.91,1.16.94-1.14a3.07,3.07,0,0,0-4,.13h0l-2.72,2.53c-1.37,1.29-2.85,2.65-3,2.84l-.06,0-.05.05a3.32,3.32,0,0,0-.91,2.23,3.41,3.41,0,0,0,1.1,2.43l1-1.06-1.05,1a36.92,36.92,0,0,0,26.28,10.6c9.74,0,17-2.25,21.9-6.37s7.22-10.08,7.2-16.88h-2.94c0,6.17-2,11.11-6.15,14.63s-10.7,5.68-20,5.67a34,34,0,0,1-24.19-9.73h0l-.21-.32.13-.23-1.08-1,1,1.09c.27-.25,1.69-1.57,3.08-2.88l2.72-2.53-1-1.08,1,1.09.11,0h0l0-.06,0,.06h0l0-.06,0,.06h0a49.33,49.33,0,0,0,6.17,4c3.64,2,8.39,4,13.13,4,5.38,0,9.51-.87,12.46-2.87a9.71,9.71,0,0,0,3.36-3.85,11.77,11.77,0,0,0,1.09-5.24,8.81,8.81,0,0,0-1-4.4c-1.12-2-3.05-3.56-5.78-4.93a65.27,65.27,0,0,0-11.09-4c-7.86-2.23-13.53-4.31-17.07-7.19a12.84,12.84,0,0,1-3.89-5,18.78,18.78,0,0,1-1.31-7.5,16.53,16.53,0,0,1,6.6-13.49c4.12-3.21,10-5,16.56-5a32.75,32.75,0,0,1,22.2,8.24l1-1.13-1,1.11.07.08v0h.1l-.07-.07,0,.07h.1l-.07-.07-.09.09-.07.09.86.61-.79-.7-.07.09.86.61-.79-.7-.34.35c-.65.66-2,2-3.21,3.12l-2.21,2.13,0,0,0,0,.18.16-.13-.2,0,0,.18.16-.13-.2h0l-.11,0h-.06l0,.12.08-.1,0,0,0,.12.08-.1,0,0h0a46.3,46.3,0,0,0-5.57-3.16c-3.27-1.57-7.46-3.18-11.54-3.19-4.6,0-8.06,1.06-10.44,3a9.31,9.31,0,0,0-3.51,7.42,8.63,8.63,0,0,0,.9,4c1,1.88,2.77,3.33,5.4,4.63a68.08,68.08,0,0,0,11.08,3.94h0c7.3,2.14,13.12,4.32,17,7.38a14.75,14.75,0,0,1,4.35,5.3,17.28,17.28,0,0,1,1.53,7.55h2.94"/><path class="cls-1" d="M495.77,309.46c.77,0,1.06-.53.74-1.14l-25.32-43.45a2.16,2.16,0,0,1,.17-2.22l20.09-24c.54-.58.32-1-.46-1H481a3.07,3.07,0,0,0-2.21,1L457.6,264.19c-2.45,3-7.31,8.94-8.61,10.78.11-2.23.19-11.36.19-11.36,0-.75,0-2,0-2.72V239a1.36,1.36,0,0,0-1.4-1.34h-8.1a1.35,1.35,0,0,0-1.37,1.34V308.1a1.36,1.36,0,0,0,1.37,1.37h8.1a1.37,1.37,0,0,0,1.4-1.37v-18a4.26,4.26,0,0,1,.88-2.38l12.1-14a.9.9,0,0,1,1.57.11l20.06,34.54a2.64,2.64,0,0,0,2,1.15h10"/><path class="cls-1" d="M495.77,309.46v1.48a2.45,2.45,0,0,0,1.58-.53,2.05,2.05,0,0,0,.76-1.62,2.58,2.58,0,0,0-.29-1.16l0,0-25.32-43.47-1.28.74,1.3-.72-.05-.25.08-.34-1.16-.91,1.13.94,20.09-24-1.13-.94,1.1,1a2.42,2.42,0,0,0,.68-1.57,1.86,1.86,0,0,0-1.24-1.76,2.42,2.42,0,0,0-1-.18H481a4.46,4.46,0,0,0-1.86.44,4,4,0,0,0-1.54,1.23l1.2.86-1.14-.95-21.24,25.54-4.75,5.82c-1.69,2.11-3.22,4.05-3.93,5L449,275l1.47.07c.11-2.31.2-11.41.2-11.42h0c0-.73,0-2,0-2.72V239a2.85,2.85,0,0,0-2.88-2.82h-8.1a2.84,2.84,0,0,0-2.85,2.82V308.1a2.85,2.85,0,0,0,2.85,2.84h8.1a2.91,2.91,0,0,0,2-.82,2.81,2.81,0,0,0,.85-2v-18a2.19,2.19,0,0,1,.17-.75,2.51,2.51,0,0,1,.34-.66h0l12.13-14.07,0,0-.42-.33v.5a.56.56,0,0,0,.42-.17l-.42-.33v-.13l-.34.54.34.09v-.63l-.34.54.16-.25-.25.16.09.09.16-.25-.25.16,1.25-.78-1.27.74,20.06,34.55h0a4,4,0,0,0,3.25,1.89h10V308h-10v0h0v0l-.41-.17-.21-.16-.09-.09L465,273v0a2.36,2.36,0,0,0-4-.25l1.16.9-1.11-1-12.1,14h0a5,5,0,0,0-.9,1.58,5.31,5.31,0,0,0-.35,1.77v18h.12l-.08-.08,0,.08h.12l-.08-.08.08.07,0-.1,0,0,.08.07,0-.1h-8.1v.09l.06-.06-.06,0v.09l.06-.06-.08.08h.11l0-.08-.08.08h.11V239h-.09v.12l.09-.12h-.09v.12h8.1v0h0v0l.05-.12h-.12l.07.12.05-.12h-.12v21.93c0,.71,0,1.94,0,2.72h1.48l-1.48,0s0,2.28,0,4.84-.09,5.4-.14,6.48l-.22,5,2.91-4.14c.59-.85,2.13-2.81,3.81-4.89s3.5-4.32,4.73-5.81h0L480,239.57l0,0,.11-.1.9-.35h10l.06-.67-.4.51.34.16.06-.67-.4.51.67-.86h-1.08a1.16,1.16,0,0,0,.41.86l.67-.86h-.23l-.77-.38-.08.38h.85l-.77-.38.32.16-.29-.2,0,0,.32.16-.29-.2v0l0,0-20.14,24v0a3.51,3.51,0,0,0-.72,2.16,3.55,3.55,0,0,0,.44,1.69h0l25.31,43.46,1.28-.74-1.31.69.41-.21h-.45l0,.21.41-.21H496l-.54-.67-.32.67H496l-.54-.67.44.54-.21-.66-.23.12.44.54-.21-.66.12.35-.06-.36h-.06l.12.35-.06-.36v0h0v1.47"/><path class="cls-1" d="M411.32,259.37c0,9.22-11.4,11.27-11.4,11.27a18.25,18.25,0,0,1-2.66.23H378.21a1.21,1.21,0,0,1-1.29-1.34v-20.4a1.21,1.21,0,0,1,1.29-1.35h20.38c7.6,0,12.73,4.1,12.73,11.59m11.35-.3c0-21.46-22.7-21.46-22.7-21.46H367.28a1.37,1.37,0,0,0-1.34,1.36v69.14a1.36,1.36,0,0,0,1.34,1.35h8.26a1.38,1.38,0,0,0,1.38-1.35V282.37a1.22,1.22,0,0,1,1.29-1.35h14.16a2.47,2.47,0,0,1,2,1.22l13.56,26a2.56,2.56,0,0,0,2,1.19h10.26c.75,0,1.08-.54.73-1.19L406.19,280.1c9.68-2.47,16.48-9.54,16.48-21m-83,14.46c0,16.13-7.1,26.3-20.24,26.3s-20.17-10.17-20.17-26.3,7.15-26.27,20.17-26.27,20.24,10.17,20.24,26.27m11.44,0c0-21.76-12.27-37-31.68-37s-31.56,15.28-31.56,37,12.24,37.07,31.56,37.07,31.68-15.29,31.68-37.07"/><path class="cls-1" d="M409.85,259.37a8,8,0,0,1-1.5,4.79,12.71,12.71,0,0,1-5.39,4,20.71,20.71,0,0,1-2.37.82l-.7.17-.18,0h0a17.54,17.54,0,0,1-2.4.21H378.17l-.05.25.13-.21-.08,0-.05.25.13-.21-.19.31.34-.15-.15-.16-.19.31.34-.15-.12.05.12,0v0l-.12.05.12,0V249.05l-.33-.11.19.27.14-.16-.33-.11.19.27-.18-.26.09.31.09,0-.18-.26.09.31h20.42c3.54,0,6.35,1,8.24,2.62s3,4.08,3,7.49h2.95a12.48,12.48,0,0,0-4-9.71,15.19,15.19,0,0,0-10.19-3.36H378.21a2.76,2.76,0,0,0-2.1.9,2.93,2.93,0,0,0-.67,1.93v20.4a2.87,2.87,0,0,0,.67,1.91,2.71,2.71,0,0,0,2.1.9h19.05a18.18,18.18,0,0,0,2.92-.25,20.62,20.62,0,0,0,6.19-2.35,14.19,14.19,0,0,0,4.37-3.85,11.1,11.1,0,0,0,2.06-6.52h-2.95m14.3-.3a22.48,22.48,0,0,0-3.82-13.25c-3.47-4.92-8.6-7.31-12.78-8.5a30.51,30.51,0,0,0-7.58-1.18H367.28a2.82,2.82,0,0,0-2.81,2.83V308.1a2.83,2.83,0,0,0,2.81,2.84h8.26a2.86,2.86,0,0,0,2.86-2.84V282.3l-.31-.11.18.26.13-.15-.31-.11.18.26-.19-.26.1.31.1-.05-.19-.26.09.31v0h0v0h14.21l.11,0,.55.4,1.31-.7-1.31.68,13.57,26,0,0a3.78,3.78,0,0,0,1.36,1.39,3.66,3.66,0,0,0,1.89.57h10.25a2.41,2.41,0,0,0,1.58-.53,2.06,2.06,0,0,0,.77-1.64,2.48,2.48,0,0,0-.32-1.19h0L407.5,279.42l-1.31.68.36,1.43a23.75,23.75,0,0,0,12.65-7.62,22.66,22.66,0,0,0,4.95-14.84H421.2c0,5.46-1.59,9.72-4.27,12.95a20.8,20.8,0,0,1-11.1,6.65l-1.82.46L419.55,309h0l.36-.19h-.4l0,.19.36-.19h.44l-.53-.64-.31.64h.84l-.53-.64.44.52-.21-.65-.22.13.43.52-.2-.65.06.22V308h-.06l.06.22V308H409.87l-.1,0-.58-.43-1.28.73,1.31-.68-13.57-26h0a3.87,3.87,0,0,0-1.37-1.41,3.7,3.7,0,0,0-1.9-.57H378.21a2.73,2.73,0,0,0-2.1.91,2.88,2.88,0,0,0-.67,1.91v25.74h.1V308l-.1.12h.1V308h-8.26v.12h.14l-.14-.12v.12h.14V239h-.14v.12l.14-.12h-.14v.12h32.89a27.9,27.9,0,0,1,11.51,3,17.46,17.46,0,0,1,6.6,5.91,19.67,19.67,0,0,1,2.92,11ZM338.2,273.53c0,7.86-1.73,14.11-4.89,18.32s-7.68,6.48-13.87,6.51-10.62-2.33-13.79-6.51-4.9-10.46-4.9-18.32,1.75-14.09,4.9-18.29,7.66-6.48,13.79-6.5,10.7,2.32,13.87,6.5,4.9,10.45,4.89,18.29h2.95c0-8.26-1.8-15.14-5.48-20s-9.28-7.72-16.23-7.7-12.49,2.77-16.15,7.7-5.49,11.79-5.49,20,1.82,15.17,5.49,20.09,9.26,7.71,16.15,7.69,12.56-2.77,16.23-7.69,5.48-11.81,5.48-20.09Zm14.39,0c0-11.15-3.14-20.76-8.9-27.63S329.53,235,319.44,235s-18.42,4-24.15,10.89-8.87,16.47-8.87,27.62,3.13,20.78,8.87,27.64,14.1,10.91,24.15,10.9,18.5-4,24.25-10.9,8.9-16.48,8.9-27.64h-2.95c0,10.62-3,19.53-8.21,25.75s-12.68,9.83-22,9.84-16.68-3.63-21.89-9.83-8.19-15.14-8.19-25.76,3-19.51,8.19-25.73S310.17,238,319.44,238s16.76,3.62,22,9.83,8.21,15.13,8.21,25.73Z"/><path class="cls-1" d="M280.32,238.93a1,1,0,0,0-1.06-1.32H271.1a1.73,1.73,0,0,0-1.62,1.32L260.68,284c-.32,1.75-.95,5.75-1.5,8.42-.44-2.57-1.49-7-1.49-7-.18-.73-.46-1.92-.67-2.63l-11.46-43.89a1.88,1.88,0,0,0-1.69-1.3H237a1.89,1.89,0,0,0-1.7,1.3l-11.6,44.18c-.53,2.16-1.59,7-2,9.34-.31-2.35-1.46-8.12-1.46-8.12-.13-.73-.36-1.94-.51-2.66l-8.42-42.72a1.74,1.74,0,0,0-1.63-1.32h-8.6a1,1,0,0,0-1.05,1.32l14.68,69.21a1.73,1.73,0,0,0,1.62,1.32h8.39a1.86,1.86,0,0,0,1.7-1.31l11.8-45.08c.63-2.47,1.81-7.82,2.14-9.55.32,1.73,1.82,8.23,1.82,8.23.16.71.45,1.91.63,2.64l11,43.76a1.85,1.85,0,0,0,1.69,1.32H264a1.76,1.76,0,0,0,1.63-1.33l14.67-69.21"/><path class="cls-1" d="M280.32,238.93l1.45.32.06-.58a2.51,2.51,0,0,0-2.57-2.53H271.1a3.16,3.16,0,0,0-3.06,2.49h0l-8.8,45.1h0c-.32,1.79-1,5.78-1.48,8.4l1.44.29,1.46-.25c-.46-2.66-1.51-7.08-1.51-7.1h0v0c-.18-.69-.45-1.89-.69-2.68l-1.41.42,1.43-.37L247,238.54h0a3.31,3.31,0,0,0-3.11-2.41H237a3.16,3.16,0,0,0-2,.7,3.31,3.31,0,0,0-1.16,1.69h0l-11.6,44.18v0c-.54,2.2-1.6,7-2,9.42l1.46.27,1.46-.2c-.33-2.46-1.47-8.19-1.47-8.21l-1.45.29,1.45-.25c-.13-.76-.36-2-.52-2.72l-1.44.31,1.45-.28-8.43-42.73a3.2,3.2,0,0,0-3.07-2.5h-8.6a2.49,2.49,0,0,0-2.56,2.52l.07.61,1.44-.34-1.45.31,14.69,69.2a3,3,0,0,0,1.1,1.78,3.13,3.13,0,0,0,2,.72h8.39a3.27,3.27,0,0,0,1.95-.69,3.16,3.16,0,0,0,1.17-1.7h0l11.81-45.1h0c.65-2.54,1.82-7.86,2.16-9.65l-1.45-.27-1.45.27c.34,1.81,1.82,8.27,1.82,8.28h0c.16.71.46,1.92.64,2.65l11,43.79v0a3.35,3.35,0,0,0,3.12,2.39H264a3.16,3.16,0,0,0,2-.72,3,3,0,0,0,1.11-1.8l-1.44-.28,1.44.3,14.67-69.2h0l-1.44-.32-1.44-.3L264.2,307.85h0l-.11.11-.06,0H255.4l-.18-.12-.05-.07v0l-1.42.38,1.43-.35L244.22,264c-.19-.7-.48-1.92-.64-2.61h0s-.37-1.61-.78-3.45-.87-3.89-1-4.71l-1.43-7.76-1.47,7.76c-.31,1.67-1.5,7.05-2.12,9.46h0L225,307.78l1.42.37-1.42-.38,0,0-.17.14-.08,0h-8.42l-.12-.09,0-.05h0L201.44,238.6h0l-.26.07h.27v-.07l-.26.07H201l.31.31.15-.31H201l.31.31-.24-.25v.36l.24-.11-.24-.25v.36h8.6v0h0v0l.15.08,0,.07h0l.1-.05-.11,0h0l.1-.05-.1,0,8.41,42.71h0c.15.7.38,1.91.51,2.61v0s.28,1.43.6,3.16.68,3.75.84,4.86l1.21,9.15,1.7-9.07c.42-2.3,1.49-7.15,2-9.25l-1.44-.36,1.43.38,11.6-44.18v0h0l.16-.16.1-.06h6.9v0h0v0l.17.11.08.09v0l.05,0-.05,0h0l.05,0-.05,0,11.47,43.9v0c.19.64.46,1.83.65,2.57l1.43-.36-1.43.35s.26,1.09.58,2.51.68,3.15.89,4.39l1.32,7.79,1.58-7.74c.55-2.73,1.18-6.74,1.5-8.45l-1.45-.27,1.44.28,8.81-45.07-1.44-.28,1.44.3v0l.11-.11.05,0h8.16v-.37L279,239l.24.12v-.37L279,239l.29-.3h-.43l.14.3.29-.3h-.18l-.24-.06v.06h.25l-.24-.06v0l1.43.3"/><path class="cls-1" d="M188.13,248.18a1.36,1.36,0,0,0,1.34-1.35V239a1.37,1.37,0,0,0-1.34-1.35h-52a1.37,1.37,0,0,0-1.36,1.35v7.87a1.36,1.36,0,0,0,1.36,1.35h19a1.37,1.37,0,0,1,1.35,1.34V308.1a1.36,1.36,0,0,0,1.36,1.36h8.46a1.36,1.36,0,0,0,1.37-1.36V249.52a1.34,1.34,0,0,1,1.35-1.34h19"/><path class="cls-1" d="M188.13,248.18v1.47a2.83,2.83,0,0,0,2.82-2.82V239a2.83,2.83,0,0,0-2.82-2.82h-52a2.83,2.83,0,0,0-2.83,2.82v7.87a2.82,2.82,0,0,0,2.83,2.82h19v-.13h-.12l.12.13v-.13h-.12V308.1a2.88,2.88,0,0,0,.82,2,2.82,2.82,0,0,0,2,.82h8.46a2.82,2.82,0,0,0,2.84-2.83V249.52h-.12v.13l.12-.13h-.12v.13h19v-3h-19a2.82,2.82,0,0,0-2.82,2.82V308.1h.1V308l-.1.11h.1V308h-8.46v.12L158,308l-.09,0v.12L158,308l-.08.08H158l0-.08-.08.08H158V249.52a2.85,2.85,0,0,0-2.84-2.82h-19v.13h.12l-.12-.13v.13h.12V239h-.12v.12l.12-.12h-.12v.12h52V239H188l.14.12V239H188v7.87h.14v-.13l-.14.13h.14v1.35"/><path class="cls-1" d="M122.79,309.46a1.36,1.36,0,0,0,1.37-1.36v-7.75a1.37,1.37,0,0,0-1.37-1.36H87a1.36,1.36,0,0,1-1.36-1.36v-20A1.36,1.36,0,0,1,87,276.31h18.71a1.34,1.34,0,0,0,1.35-1.35v-7.78a1.33,1.33,0,0,0-1.35-1.33H87a1.37,1.37,0,0,1-1.36-1.37v-15A1.35,1.35,0,0,1,87,248.08h34.17a1.34,1.34,0,0,0,1.35-1.34V239a1.35,1.35,0,0,0-1.35-1.34H75.81A1.34,1.34,0,0,0,74.49,239V308.1a1.34,1.34,0,0,0,1.32,1.36h47"/><path class="cls-1" d="M122.79,309.46v1.48a2.86,2.86,0,0,0,2.85-2.84v-7.75a2.85,2.85,0,0,0-2.85-2.84H87v.12h.11l-.11-.12v.12h.11v-20H87v.13l.11-.13H87v.13h18.71a2.82,2.82,0,0,0,2.83-2.82v-7.78a2.83,2.83,0,0,0-.84-2,2.8,2.8,0,0,0-2-.8H87v.1h.11l-.11-.1v.1h.11v-15H87l.06.06,0-.06H87l.06.06-.08-.08v.12l.08,0-.08-.08v.12h34.17a2.85,2.85,0,0,0,2-.82,2.82,2.82,0,0,0,.83-2V239a2.84,2.84,0,0,0-2.83-2.82H75.81A2.82,2.82,0,0,0,73,239V308.1a2.82,2.82,0,0,0,2.8,2.84h47V308h-47v.11H76l-.14-.11v.11H76V239h-.14v.13L76,239h-.14v.13h45.38V239h-.12l.12.13V239h-.12v7.78h.12v-.14l-.12.14h.12v-.14H87a2.85,2.85,0,0,0-2.84,2.85v15A2.86,2.86,0,0,0,87,267.33h18.71v-.12l-.08.08.08,0v-.12l-.08.08.1-.11h-.14l0,.11.1-.11h-.15V275h.13l-.09-.09,0,.09h.13l-.09-.09.09.09v-.13l-.09,0,.09.09v-.13H87a2.83,2.83,0,0,0-2.84,2.82v20A2.85,2.85,0,0,0,87,300.47h35.76v-.12h-.1l.1.12v-.12h-.1v7.75h.1V308l-.1.11h.1v1.36"/><path class="cls-1" d="M56.92,309.46a1.36,1.36,0,0,0,1.36-1.36V239a1.36,1.36,0,0,0-1.36-1.34H48.76A1.34,1.34,0,0,0,47.4,239v35.72c0,4,.11,14.26.11,16.94-1.07-1.86-5.47-9-5.47-9l-1.44-2.28L13.73,238.75a2.82,2.82,0,0,0-2.1-1.13H2.92A1.35,1.35,0,0,0,1.57,239V308.1a1.35,1.35,0,0,0,1.35,1.36h8.17a1.34,1.34,0,0,0,1.34-1.36V272.21c0-4-.07-14-.07-16.65,1.14,1.86,4.8,7.7,4.8,7.7l1.48,2.26,28.22,42.81a2.86,2.86,0,0,0,2.1,1.14h8"/><path class="cls-1" d="M56.92,309.46v1.48a2.84,2.84,0,0,0,2.83-2.84V239a2.82,2.82,0,0,0-2.83-2.82H48.76A2.83,2.83,0,0,0,45.92,239v35.72c0,4,.12,14.28.12,16.94h1.47l1.28-.74c-1.1-1.91-5.49-9.05-5.5-9.06h0c-.39-.63-1.05-1.65-1.43-2.28h0L15,237.93h0a3.9,3.9,0,0,0-1.45-1.27,4,4,0,0,0-1.87-.52H2.92A2.84,2.84,0,0,0,.09,239V308.1a2.84,2.84,0,0,0,2.83,2.84h8.17a2.83,2.83,0,0,0,2.82-2.84V272.21c0-4-.08-14-.08-16.65H12.36l-1.25.78c1.15,1.87,4.8,7.69,4.8,7.71h0l1.46,2.24h0l28.24,42.83a4.37,4.37,0,0,0,1.45,1.28,4.17,4.17,0,0,0,1.87.51h8V308H49l-.46-.16-.4-.32h0L19.87,264.71h0l-1.48-2.27-1.23.81,1.24-.78-4.8-7.69-2.72-4.43v5.2c0,2.71.08,12.65.08,16.65V308.1h.11L11,308l0,.07h.11L11,308l.09.08V308L11,308l.09.08V308H2.92v.11h.13L2.92,308v.11h.13V239H2.92v.12l.13-.12H2.92v.12h8.71l.47.16.4.33,1.23-.83-1.25.81,26.87,41.56,1.25-.8-1.26.78,1.45,2.28h0l2.34,3.81c1.23,2,2.6,4.29,3.11,5.19L49,297.17v-5.55c0-2.7-.11-13-.11-16.94V239h-.11v.12l.11-.12h-.11v.12h8.16V239h-.11l.11.12V239h-.11V308.1h.11V308l-.11.11h.11v1.36"/><path class="cls-1" d="M564.22,310.35a5,5,0,1,1,5-5.05,5,5,0,0,1-5,5.05m0-9.2a4.16,4.16,0,1,0,0,8.31,4.16,4.16,0,0,0,0-8.31Zm1.31,4.65,1.06,2.16h-1.34l-.94-2h-1v2h-1.15v-5.49h2.55a1.68,1.68,0,0,1,1.88,1.72A1.55,1.55,0,0,1,565.53,305.8Zm-.88-2.27h-1.32v1.41h1.32c.51,0,.8-.26.8-.71S565.15,303.53,564.65,303.53Z"/></g></g></svg>