<svg xmlns="http://www.w3.org/2000/svg" xmlns:xlink="http://www.w3.org/1999/xlink" viewBox="0 0 197.48 141.43"><defs><style>.cls-1{fill:url(#linear-gradient);}.cls-2{fill:#fff;}</style><linearGradient id="linear-gradient" x1="-230.8" y1="-245.07" x2="-228.28" y2="-245.07" gradientTransform="matrix(-41.3, 31.38, -23.31, -55.59, -15126.94, -6322.98)" gradientUnits="userSpaceOnUse"><stop offset="0" stop-color="#47348e"/><stop offset="1" stop-color="#ac267e"/></linearGradient></defs><title>bbc</title><g id="Layer_2" data-name="Layer 2"><g id="Layer_1-2" data-name="Layer 1"><g id="_Group_" data-name="&lt;Group&gt;"><path id="_Compound_Path_" data-name="&lt;Compound Path&gt;" class="cls-1" d="M0,0V141.43H197.48V0Z"/><path id="_Compound_Path_2" data-name="&lt;Compound Path&gt;" class="cls-2" d="M104.54,76.76C104.54,81.22,99,81,99,81H93.44V72.89H99c5.72,0,5.55,3.87,5.55,3.87M93.44,60.6h4.23c4.39.23,4.23,3.5,4.23,3.5,0,4.07-4.86,4.13-4.86,4.13h-3.6Zm10.08,9.22a6.56,6.56,0,0,0,3.77-5.92s.57-7-8.75-7.89H88.19V85.52h11.86s9.91,0,9.91-8.33c0,0,.23-5.68-6.44-7.37M76.73,50.22h43.58V91.28H76.73Z"/><path id="_Compound_Path_3" data-name="&lt;Compound Path&gt;" class="cls-2" d="M54.3,76.76c0,4.46-5.55,4.2-5.55,4.2H43.19V72.89h5.56c5.71,0,5.55,3.87,5.55,3.87M43.19,60.6h4.23c4.4.23,4.23,3.5,4.23,3.5,0,4.07-4.85,4.13-4.85,4.13H43.19Zm10.08,9.22A6.56,6.56,0,0,0,57,63.9s.58-7-8.75-7.89H37.94V85.52H49.8s9.92,0,9.92-8.33c0,0,.23-5.68-6.45-7.37M26.49,50.22H70.06V91.28H26.49Z"/><path id="_Compound_Path_4" data-name="&lt;Compound Path&gt;" class="cls-2" d="M161.66,58.12v5.45a24.81,24.81,0,0,0-11.2-3.33S139.49,60,139,70.75c0,0-.39,9.88,11.34,10.44,0,0,4.92.59,11.6-3.67v5.65a23.54,23.54,0,0,1-19.34,1.22,14.93,14.93,0,0,1-9.05-13.64S133.18,60,144.81,56.44c0,0,3.1-1.19,8.69-.66a31.62,31.62,0,0,1,8.16,2.34M127,91.28h43.57V50.22H127Z"/></g></g></g></svg>