<svg xmlns="http://www.w3.org/2000/svg" viewBox="0 0 261.41 165.46"><defs><style>.cls-1,.cls-2{fill:#0072bc;}.cls-1{fill-rule:evenodd;}.cls-3{fill:#fff;}</style></defs><title>kbs</title><g id="Layer_2" data-name="Layer 2"><g id="Page_1" data-name="Page 1"><g id="Layer_1-2" data-name="Layer 1"><path class="cls-1" d="M10.84,103.88H250.56a10.88,10.88,0,0,1,10.85,10.84v39.89a10.88,10.88,0,0,1-10.85,10.85H10.84A10.88,10.88,0,0,1,0,154.61V114.72a10.87,10.87,0,0,1,10.84-10.84Z"/><path class="cls-2" d="M19.66,0V92.35H0V0Zm.69,45.55L55.66,0H81.41L42.92,45.55l36.69,46.8H53.72L20.35,45.55Z"/><path class="cls-2" d="M87,92.35V0h52.2Q149.3,0,154.7,1.94a20,20,0,0,1,11.35,9.83,25.68,25.68,0,0,1-.49,25.61,20.76,20.76,0,0,1-9.76,8.87q13.44,6.09,13.43,21.59,0,17.18-13.57,22.44-5.4,2.07-17.58,2.07Zm19.66-54.41h26.72q6.93,0,9.83-2.22a10.92,10.92,0,0,0,4.3-9.14q0-7.6-6.93-9.55a28.16,28.16,0,0,0-6.78-.55H106.65V37.94Zm0,37.94h26.63q7,0,9.95-2.22a11,11,0,0,0,4.27-9.14c0-5.07-2.31-8.26-6.9-9.55a29.79,29.79,0,0,0-6.9-.56h-27V75.88Z"/><path class="cls-2" d="M178.56,92.35V75.88h42.09q10.24,0,13.71-2.22a9.41,9.41,0,0,0,4.56-8.45q0-11.49-15.92-11.49H206q-31.84,0-31.84-26.44a29.15,29.15,0,0,1,4.43-15.72A22.47,22.47,0,0,1,190.74,1.8Q196.14,0,210,0h45.69V16.48H214.42q-9,0-12.32.83-6.24,1.52-6.24,9.41,0,6.64,5.27,9,3.31,1.53,11.63,1.53h14.81q16.2,0,24.09,5.81,9.14,6.64,9.14,22.15a30.12,30.12,0,0,1-3.46,14.13,22.15,22.15,0,0,1-10.11,10.24q-5.67,2.78-22.29,2.77Z"/><polygon class="cls-3" points="75.61 113.36 63.92 156.73 51.55 156.73 43.77 128.47 36.19 156.73 23.81 156.73 12.13 113.36 23.81 113.36 30.48 143.22 38.47 113.36 49.63 113.36 57.23 143.22 64.22 113.36 75.61 113.36 75.61 113.36"/><path class="cls-3" d="M120.61,135.05q0,10.38-5.94,16.48t-16.43,6.11q-10.45,0-16.41-6.11t-5.94-16.48q0-10.45,5.94-16.52t16.41-6.08q10.42,0,16.4,6.08t6,16.52Zm-14.82,11a13.2,13.2,0,0,0,2.41-4.67A22.58,22.58,0,0,0,109,135a21.18,21.18,0,0,0-.91-6.64,12.81,12.81,0,0,0-2.35-4.42,9,9,0,0,0-3.42-2.54,11,11,0,0,0-8,0,9.34,9.34,0,0,0-3.45,2.51,12.43,12.43,0,0,0-2.38,4.5,21.91,21.91,0,0,0-.91,6.65,21.59,21.59,0,0,0,.88,6.61,13.2,13.2,0,0,0,2.35,4.44,9.11,9.11,0,0,0,3.41,2.54,10.79,10.79,0,0,0,4.11.81,10.43,10.43,0,0,0,4.1-.83,9,9,0,0,0,3.42-2.58Z"/><path class="cls-3" d="M152.31,126.64a5.58,5.58,0,0,0-.66-2.8,4.46,4.46,0,0,0-2.31-1.83,8.49,8.49,0,0,0-2.64-.57c-1-.07-2.19-.11-3.53-.11h-4V133h3.43a32.81,32.81,0,0,0,4.49-.26,6.5,6.5,0,0,0,3-1.2,5.89,5.89,0,0,0,1.71-2,6.63,6.63,0,0,0,.53-2.92Zm17.46,30.09H156.1l-11.83-15.91h-5.15v15.91H128V113.36h18.76a43.3,43.3,0,0,1,6.61.43,14.24,14.24,0,0,1,5.19,1.89,11.51,11.51,0,0,1,3.89,3.77,10.87,10.87,0,0,1,1.44,5.82,12.9,12.9,0,0,1-2.23,7.83,17,17,0,0,1-6.36,5.05l14.48,18.58Z"/><polygon class="cls-3" points="204.78 156.73 173.5 156.73 173.5 113.36 184.68 113.36 184.68 148.34 204.78 148.34 204.78 156.73 204.78 156.73"/><path class="cls-3" d="M251.73,135.08A21.3,21.3,0,0,1,249,145.94a20.13,20.13,0,0,1-7,7.35,21.59,21.59,0,0,1-7,2.69,46.84,46.84,0,0,1-9,.75H210.74V113.36h15.73a40.78,40.78,0,0,1,9.15.88,21.51,21.51,0,0,1,6.46,2.52,19.65,19.65,0,0,1,7.06,7.39,22.17,22.17,0,0,1,2.59,10.93ZM240.16,135a15.94,15.94,0,0,0-1.56-7.31,10.89,10.89,0,0,0-4.94-4.77,12.89,12.89,0,0,0-3.51-1.15,34.13,34.13,0,0,0-5.4-.31h-2.83v27.16h2.83a34,34,0,0,0,5.86-.37,12.92,12.92,0,0,0,3.63-1.32,10.89,10.89,0,0,0,4.49-4.69,16.41,16.41,0,0,0,1.43-7.24Z"/></g></g></g></svg>