<svg xmlns="http://www.w3.org/2000/svg" xmlns:xlink="http://www.w3.org/1999/xlink" viewBox="0 0 481.95 289.9"><defs><style>.cls-1{fill:#002561;}.cls-2{fill:url(#linear-gradient);}.cls-3{fill:url(#linear-gradient-2);}.cls-4{fill:url(#linear-gradient-3);}.cls-5{fill:url(#linear-gradient-4);}.cls-6{fill:url(#linear-gradient-5);}.cls-7{fill:url(#linear-gradient-6);}.cls-8{fill:url(#linear-gradient-7);}.cls-9{fill:url(#linear-gradient-8);}</style><linearGradient id="linear-gradient" x1="-119.34" y1="401.36" x2="-104.9" y2="401.36" gradientTransform="matrix(6.67, 0, 0, -6.67, 844.81, 2721.7)" gradientUnits="userSpaceOnUse"><stop offset="0.2" stop-color="#ec008c"/><stop offset="1" stop-color="#2e3192"/></linearGradient><linearGradient id="linear-gradient-2" x1="-83.24" y1="382.22" x2="-83.24" y2="394.99" gradientTransform="matrix(6.67, 0, 0, -6.67, 844.81, 2721.7)" gradientUnits="userSpaceOnUse"><stop offset="0.1" stop-color="#bcd85f"/><stop offset="0.2" stop-color="#b3d35e"/><stop offset="0.35" stop-color="#9bc45b"/><stop offset="0.55" stop-color="#73ac57"/><stop offset="0.78" stop-color="#3c8b51"/><stop offset="1" stop-color="#00664b"/></linearGradient><linearGradient id="linear-gradient-3" x1="-90.46" y1="401.36" x2="-76.02" y2="401.36" xlink:href="#linear-gradient-2"/><linearGradient id="linear-gradient-4" x1="-94.07" y1="382.22" x2="-94.07" y2="394.99" gradientTransform="matrix(6.67, 0, 0, -6.67, 844.81, 2721.7)" gradientUnits="userSpaceOnUse"><stop offset="0" stop-color="#fbb040"/><stop offset="0.5" stop-color="#db801e"/><stop offset="0.6" stop-color="#d77220"/><stop offset="0.79" stop-color="#cc4e26"/><stop offset="1" stop-color="#be1e2d"/></linearGradient><linearGradient id="linear-gradient-5" x1="-65.19" y1="382.22" x2="-65.19" y2="394.99" gradientTransform="matrix(6.67, 0, 0, -6.67, 844.81, 2721.7)" gradientUnits="userSpaceOnUse"><stop offset="0.2" stop-color="#49c0b6"/><stop offset="0.39" stop-color="#3db3b7"/><stop offset="0.74" stop-color="#1c90ba"/><stop offset="1" stop-color="#0072bc"/></linearGradient><linearGradient id="linear-gradient-6" x1="-115.73" y1="382.22" x2="-115.73" y2="394.99" gradientTransform="matrix(6.67, 0, 0, -6.67, 844.81, 2721.7)" gradientUnits="userSpaceOnUse"><stop offset="0" stop-color="#ec008c"/><stop offset="0.14" stop-color="#ca098d"/><stop offset="0.45" stop-color="#871a8f"/><stop offset="0.7" stop-color="#572691"/><stop offset="0.89" stop-color="#392e92"/><stop offset="1" stop-color="#2e3192"/></linearGradient><linearGradient id="linear-gradient-7" x1="-83.24" y1="401.36" x2="-61.58" y2="401.36" xlink:href="#linear-gradient-5"/><linearGradient id="linear-gradient-8" x1="-112.12" y1="401.36" x2="-90.46" y2="401.36" xlink:href="#linear-gradient-4"/></defs><title>mediacorp</title><g id="Layer_2" data-name="Layer 2"><g id="Layer_1-2" data-name="Layer 1"><g id="g3182"><path id="path7" class="cls-1" d="M18.73,269.18H5.09V217.27C11.12,213.86,20.3,212,29,212c6,0,10.49,1.31,13.38,3.15A50.07,50.07,0,0,1,59.11,212c17.83,0,20.45,9.71,20.45,21.24v35.92H65.66V234.31c0-7.34-1.83-11.27-9.44-11.27a18,18,0,0,0-7.86,1.83,41.08,41.08,0,0,1,.78,8.13v35.92H35.25V234.31c0-7.08-1.58-11.27-9.18-11.27-2.36,0-5.77.52-7.34,1.57Z"/><path id="path9" class="cls-1" d="M89.52,240.87c0-20.46,6.3-29.11,24.91-29.11,20.19,0,24.39,10.75,24.39,27.8a25.57,25.57,0,0,1-.26,4.45c-6.3,1.05-18.62,2.36-26.22,2.89l-9.18.52c.52,8.92,5,11,13.11,11a146,146,0,0,0,19.93-1.57l1.05,10.75a129.61,129.61,0,0,1-24.13,2.1C94.5,270,89.52,257.65,89.52,240.87Zm22.82-3.41c3.67-.26,9.17-.79,12.32-1.05v-2.36c0-7.34-2.62-11.54-10.49-11.54-10.23,0-11.54,6.56-11.54,15.21Z"/><path id="path11" class="cls-1" d="M182.08,190.78H196v73.68c-6.29,3.68-15.21,5.25-22.81,5.25-18.36,0-26.22-6.82-26.22-29.11,0-21.76,7.6-29.1,24.64-29.1a45.72,45.72,0,0,1,10.49,1.31ZM174.22,223c-13.11,0-13.64,7.6-13.64,17.83,0,9.17.53,18.09,12.33,18.09,3.14,0,6.81-.53,8.91-1.57v-33A24.25,24.25,0,0,0,174.22,223Z"/><path id="path13" class="cls-1" d="M206.47,198.13c0-5.77,1.83-7.87,8.13-7.87,6,0,8.13,2.1,8.13,7.87S220.89,206,214.6,206,206.47,203.9,206.47,198.13Zm1.31,14.42h13.9v56.37h-13.9Z"/><path id="path15" class="cls-1" d="M231.9,251.88c0-10,4.2-16.26,15.21-17.83,5.77-1.05,11.54-1.05,17.83-1.31,0-6.56-2.88-9.44-10.23-9.44a152.66,152.66,0,0,0-19.66,1.57L234,214.38a124.94,124.94,0,0,1,21.76-2.09c12.33,0,22.55,3.4,22.55,18.09V265c-6,3.41-15.2,5.24-25.17,5.24-15.21-.26-21.24-6.29-21.24-18.35Zm33-10.23c-4.19.26-8.91.26-12.85,1.31-4.72,1-6.81,2.89-6.81,8.66,0,6,3.4,7.6,9.43,7.6a27.81,27.81,0,0,0,10.23-1.57v-16Z"/><path id="path17" class="cls-1" d="M327.87,267.61a68.55,68.55,0,0,1-18.09,2.1c-18.62,0-21.5-14.42-21.5-29.63,0-18.35,4.19-28.58,24.65-28.58a55.06,55.06,0,0,1,14.94,2.1l-1.05,10.22a43.64,43.64,0,0,0-10-1.31c-12.85,0-14.42,3.94-14.42,17.31,0,12.58.52,18.09,14.42,18.09a43.09,43.09,0,0,0,10-1.31Z"/><path id="path19" class="cls-1" d="M333.12,240.87c0-21,6.55-29.11,24.91-29.11s24.9,8.13,24.9,29.11S376.38,270,358,270,333.12,262.11,333.12,240.87Zm35.66,0c0-13.64-2.36-17.57-11-17.57s-11,3.67-11,17.57c0,14.16,2.36,17.56,11,17.56C366.68,258.43,368.78,254.5,368.78,240.87Z"/><path id="path21" class="cls-1" d="M392.11,269.18V217.27c6.3-3.67,15.21-5.25,22.81-5.25a34.2,34.2,0,0,1,5.51.27l-1.05,11.27a18.71,18.71,0,0,0-3.93-.26c-3.15,0-7.34.52-9.44,1.83v44.05Z"/><path id="path23" class="cls-1" d="M441.41,289.9h-13.9V217c6.29-3.68,15.21-5.25,22.81-5.25,18.36,0,26.22,6.82,26.22,29.11,0,21.76-7.6,29.1-24.64,29.1a45.72,45.72,0,0,1-10.49-1.31V289.9Zm7.86-31.2c13.11,0,13.64-7.61,13.64-17.83,0-9.18-.53-18.1-12.33-18.1-3.14,0-6.81.53-8.91,1.58v33A23.26,23.26,0,0,0,449.27,258.7Z"/></g><g id="g3193"><polygon id="polygon30" class="cls-2" points="96.39 85.3 48.2 85.3 72.29 42.46 96.39 0 120.49 42.46 144.59 85.3 96.39 85.3"/><polygon id="polygon45" class="cls-3" points="289.17 85.3 337.37 85.3 313.27 127.75 289.17 170.21 265.07 127.75 240.98 85.3 289.17 85.3"/><polygon id="polygon60" class="cls-4" points="289.17 85.3 240.98 85.3 265.07 42.46 289.17 0 313.27 42.46 337.37 85.3 289.17 85.3"/><polygon id="polygon73" class="cls-5" points="144.59 85.3 240.98 85.3 289.17 170.21 192.78 170.21 144.59 85.3"/><polygon id="polygon84" class="cls-6" points="337.37 85.3 433.76 85.3 481.95 170.21 385.56 170.21 337.37 85.3"/><polygon id="polygon99" class="cls-7" points="144.59 85.3 48.2 85.3 0 170.21 96.39 170.21 144.59 85.3"/><polygon id="polygon110" class="cls-8" points="289.17 0 385.56 0 433.76 85.3 337.37 85.3 289.17 0"/><polygon id="polygon123" class="cls-9" points="96.39 0 192.78 0 240.98 85.3 144.59 85.3 96.39 0"/></g></g></g></svg>