<svg xmlns="http://www.w3.org/2000/svg" viewBox="0 0 100.44 38.14"><defs><style>.cls-1{fill:#ed1c24;}</style></defs><title>cats-advertising</title><g id="Layer_2" data-name="Layer 2"><g id="Layer_1-2" data-name="Layer 1"><path class="cls-1" d="M31.82,33.3c-1.32.89-9.14,2.5-14.66,1.82C8.28,34,3.77,29.43,3.75,24.63a21.3,21.3,0,0,1,8.6-16.72c5.14-3.9,12.48-5.24,17-4.51,2.19.36,3.52,2,4.49.8a8.48,8.48,0,0,0,1.55-3c.21-.64.15-1-1.6-1.06A35.21,35.21,0,0,0,19.62,2.06,31.11,31.11,0,0,0,4,14.27C.79,19.36-1.06,24.5.65,29.7s9.49,8,15.38,8.18c6.28.25,14.25-.33,15.19-.39s1.89-.05,2-1.15,0-3.93-1.36-3"/><path class="cls-1" d="M74.16,10.77a25.63,25.63,0,0,0-9.17,3c-3.88,2.34-5.11,6.75-1.8,8.65s8.29,1.7,8.64,5.39c.56,5.94-11,8-12.74,7.94s-11.87.76-13-5.13c-.53-2.87.24-8.23.86-11.24.39-1.87.94-1.85,1.79-2A43.65,43.65,0,0,1,55.34,17c2.19.2,3.8-.74,3.83-1.61S56.64,14,55,14.54a45.56,45.56,0,0,1-5.67.82c-.66.07-1.2-.1-1-1.34S52.15,4,53.05,2.26s-1.57-2.63-3.27-2-2.69,2-3.25,4.5C46,7,45.32,12.47,45,13.58s-1.86,2-4.46,2.72c-1.34.4-1.5-.15-1.48-1.53a4.81,4.81,0,0,0-2.61-4.55c-3.15-1.69-9.26.89-9.85,1.21a3.7,3.7,0,0,0-1.51,1.51c-.13.44.41.71,2.1-.16s5.33-1.83,8,0c2.16,1.44,2.21,4.2-.45,5.18s-8,2.95-10.69,5.83-2.06,6,2.34,5.57a30.39,30.39,0,0,0,9-2.77,7.44,7.44,0,0,1-.82,3.53c-.91,1.56-.12,2.47,1.35,1.76s2-1.32,2.07-2.34.63-7.95.93-9.57,1-1.86,2.32-1.91l1.95-.08c.82,0,.89.77.75,1.43A50,50,0,0,0,42.59,29c.1,4,1.8,6.68,6.59,8.3s13.28.84,19.13-2.46,6.43-6.71,5.84-8.89C72.9,21.37,68.72,23,65,20.6c-2-1.31-1.9-3.92,1.67-6.39s6.53-1.65,7.23-1,1,0,1.46-.78.37-2-1.19-1.63M32.58,26.45c-3.23,1.66-5.92,1.91-7.19.37-1.55-1.89.94-4.26,4-5.7s6.42-2.44,6.81-.2c.22,1.23-.22,3.76-3.65,5.53"/><path class="cls-1" d="M94.22,1.93s-.06,0-.06,0l0,4.52a.05.05,0,0,1-.06.06h-.8s0,0,0-.06V.13c0-.06,0-.07.07-.06h1.13s.06,0,.07,0l1,3.77s0,0,0,0c0-.57,0-3.77,0-3.77s0,0,0,0h.77s.06,0,.06.06V6.45a.07.07,0,0,1-.06.07h-.9a.08.08,0,0,1-.09-.06s-1.21-4.52-1.21-4.53"/><path class="cls-1" d="M77.77.13s0,0,0,0h1.63a1.84,1.84,0,0,1,.41.05,1.54,1.54,0,0,1,.5.24.91.91,0,0,1,.2.24,1.34,1.34,0,0,1,.19.55,10.4,10.4,0,0,1,0,1.12,1.42,1.42,0,0,1-.26.77.69.69,0,0,1-.19.19l-.16.09s0,.06,0,.06l.13.07a1.11,1.11,0,0,1,.28.29,1.07,1.07,0,0,1,.17.46c0,.11,0,.23,0,.34s0,1.35,0,1.5a1.34,1.34,0,0,0,.07.4c0,.06,0,.07-.06.07H80a.08.08,0,0,1-.08-.06c0-.09,0-.18,0-.28s0-1.55,0-1.66a.76.76,0,0,0-.19-.48.47.47,0,0,0-.2-.12,1.17,1.17,0,0,0-.37,0h-.2s-.07,0-.07,0c0,.27,0,2.17,0,2.47,0,.11,0,.12-.12.12h-.84s0,0,0-.06Zm1,2.82s0,.06,0,0a4.79,4.79,0,0,0,.51,0,.44.44,0,0,0,.37-.27.85.85,0,0,0,.08-.42V1.83a1.67,1.67,0,0,0,0-.5A.45.45,0,0,0,79.27,1h-.46s0,0,0,0,0,1.78,0,1.91"/><path class="cls-1" d="M65.61.1H67.3l.25,0a.36.36,0,0,1,.15,0c.09,0,.18.06.27.09a1,1,0,0,1,.36.25,1.24,1.24,0,0,1,.32.58,2.55,2.55,0,0,1,.07.67c0,.36,0,3.31,0,3.54a1.43,1.43,0,0,1-.3.79,1.07,1.07,0,0,1-.37.3l-.25.1a2,2,0,0,1-.48.07H65.69s-.06,0-.06-.07Zm1,5.45a0,0,0,0,0,0,0s0,0,0,0h.5a.66.66,0,0,0,.28,0,.4.4,0,0,0,.22-.22A1,1,0,0,0,67.73,5V1.62a.77.77,0,0,0-.08-.37A.37.37,0,0,0,67.41,1a5.47,5.47,0,0,0-.72,0s-.07,0-.07.07Z"/><path class="cls-1" d="M97.42,1.83a3.49,3.49,0,0,1,0-.72,1.33,1.33,0,0,1,.39-.75,1.22,1.22,0,0,1,.53-.3A2.5,2.5,0,0,1,98.77,0h.39a1.38,1.38,0,0,1,.8.32,1.32,1.32,0,0,1,.36.54,2.34,2.34,0,0,1,.09.38,4,4,0,0,1,0,.49v.42s0,.06-.06.06h-.85s0,0,0-.06V1.81a2.09,2.09,0,0,0,0-.25.8.8,0,0,0-.12-.48A.43.43,0,0,0,99.1.92a.66.66,0,0,0-.37,0,.43.43,0,0,0-.24.22,1.05,1.05,0,0,0-.07.43V5.17a.52.52,0,0,0,.36.49,1,1,0,0,0,.25,0l.17,0a.45.45,0,0,0,.25-.32,1.42,1.42,0,0,0,0-.41v-1c0-.06,0-.08-.09-.08h-.33a.07.07,0,0,1,0-.05V3s0-.06.06-.06h1.3s0,0,0,.06V5a2.51,2.51,0,0,1-.06.55,1.53,1.53,0,0,1-.23.52,1.26,1.26,0,0,1-.47.39,1.66,1.66,0,0,1-.42.12,2.44,2.44,0,0,1-.54,0,1.49,1.49,0,0,1-.78-.29,1.27,1.27,0,0,1-.3-.35,1.42,1.42,0,0,1-.16-.45,2.5,2.5,0,0,1,0-.67Z"/><path class="cls-1" d="M72,6.47s0,.06-.07.06H70.51s-.05,0-.05,0l-1-6.34a.08.08,0,0,0,0,0h1s0,0,.06,0l.74,5.13s.06,0,.06,0L72,.13a0,0,0,0,1,0,0h.83s0,0,0,0Z"/><path class="cls-1" d="M87.51,4.87V4.64a.05.05,0,0,1,.06-.06l.84,0s0,0,0,.06,0,.35,0,.53a.52.52,0,0,0,.09.29.41.41,0,0,0,.33.2.9.9,0,0,0,.28,0,.36.36,0,0,0,.21-.13.61.61,0,0,0,.14-.34V4.88a1.6,1.6,0,0,0-.14-.42,1.79,1.79,0,0,0-.2-.28C89.11,4.09,89,4,89,3.94s-.32-.31-.48-.47a3.64,3.64,0,0,1-.61-.69,2,2,0,0,1-.26-.6,2.23,2.23,0,0,1,0-.89A1.58,1.58,0,0,1,87.8.57a1.09,1.09,0,0,1,.56-.45A1.68,1.68,0,0,1,88.9,0a2.07,2.07,0,0,1,.61,0A1.18,1.18,0,0,1,90,.33a1.22,1.22,0,0,1,.36.53,1.9,1.9,0,0,1,.11.63,2.09,2.09,0,0,1,0,.25c0,.05,0,.07-.07.07h-.8c-.06,0-.07,0-.07-.08s0-.28,0-.41a.48.48,0,0,0-.29-.38.63.63,0,0,0-.19,0,.49.49,0,0,0-.29.06.63.63,0,0,0-.12.11.67.67,0,0,0-.12.39,1.2,1.2,0,0,0,.09.56,1.48,1.48,0,0,0,.3.45c.2.23.43.43.65.64s.34.34.5.53a3.22,3.22,0,0,1,.25.39,2.16,2.16,0,0,1,.18,1.24,1.56,1.56,0,0,1-.27.78,1.22,1.22,0,0,1-.61.44,1.5,1.5,0,0,1-.47.08h-.38a1.58,1.58,0,0,1-.43-.1,1.16,1.16,0,0,1-.65-.6,1.34,1.34,0,0,1-.16-.56l0-.45"/><path class="cls-1" d="M73.92,6.48s0,.06.06,0h2.64a.05.05,0,0,0,.06-.06v-.8s0,0-.05,0H75s-.07,0-.07-.08,0-1.73,0-1.8,0,0,0,0h1.25c.08,0,.1,0,.09-.09V2.84a0,0,0,0,0,0,0H75s-.06,0-.06-.07V1.06c0-.06,0-.07.07-.07H76.6c.06,0,.07,0,.07-.06V.14s0,0,0,0H74s0,0,0,0Z"/><path class="cls-1" d="M82.79,1c0-.05,0-.06-.06-.06h-1s0,0,0-.07V.13s0,0,.06,0h3s.06,0,.06.06,0,.7,0,.76,0,.09-.08.09h-.94s-.06,0-.06.06V6.46s0,.07-.07.07-.83,0-.89,0,0,0,0,0Z"/><path class="cls-1" d="M92.27,6.47s0,0,0,0h-.9s0,0,0-.06V.13s0-.06.06-.06h.88c.05,0,.06,0,.06.07Z"/><path class="cls-1" d="M86.75,6.47s0,0,0,0h-.9s0,0,0-.06V.13s0-.06,0-.06h.88s.06,0,.06.07Z"/><path class="cls-1" d="M64.88,6.49l-1-6.34s0,0-.06,0H62.43s-.06,0-.07.06l-1,6.33s0,0,0,0h0s.91,0,.91,0l.17-1.12h1.22l.16,1.11s0,0,0,0h1v0m-2.29-2,.46-3.17s.05,0,.06,0l.45,3.16Z"/></g></g></svg>