<svg xmlns="http://www.w3.org/2000/svg" viewBox="0 0 1459.46 1027.92"><defs><style>.cls-1{fill:#ed1c24;}</style></defs><title>logo-cattiensa-lotus</title><g id="Layer_2" data-name="Layer 2"><g id="Layer_1-2" data-name="Layer 1"><g id="_Group_" data-name="&lt;Group&gt;"><path id="_Compound_Path_" data-name="&lt;Compound Path&gt;" class="cls-1" d="M1372,768.2c-.45,0-54.8-.93-86.17-14.79-7.46-3.3-14.51-7-21.32-10.51-22.06-11.48-44.82-23.32-85.26-24.7,32.39-23.29,90.16-73.56,155.51-170.6,92.92-138,123.33-275.3,123.63-276.67l1.07-8-6,5.7c-.34.45-34.71,44.58-86,67.46-23.08,10.29-48.9,17.85-76.24,25.85-42.74,12.53-86.94,25.47-127.23,50.55-1.57,1-3.18,2-4.88,3.15a247.69,247.69,0,0,0-7.73-29.49c6.86-20.43,18-60.14,18.25-102.55.21-39.84-5.48-68.27-11.51-98.38-2.77-13.87-5.65-28.21-7.85-43.7-6.65-46.53,11-80.49,11.14-80.82l4.16-10.22c-.14.18-12.92,5-12.92,5-1,.43-100.54,43.85-173.52,104.57a344.16,344.16,0,0,0-25.81,23.82c-3.11-6.53-8-17.22-13.8-31.16-9.78-23.63-7.36-43.85-7.33-44.05l.95-7.47c-.08.15-9.45,5.46-9.45,5.46a522.07,522.07,0,0,0-45.12,28c-13,9.18-24.75,18.15-31.75,23.57-18.57-26.4-36.31-45.77-50.65-61.4-6.61-7.2-12.31-13.42-17-19.1C749.82,42,729.87.34,729.73,0l.07,9.38c0,1.39.24,34.68,36.22,76.88l1.39,1.63c34.11,40,91.19,106.88,127,236C918.23,410.09,908.76,493,904,522.73c-29.75-23.46-65.15-37.41-92.57-47.09A224,224,0,0,1,780,461.78c-37.84-21.17-50.17-57-50.24-57.29,0,0-.09,7.94-.09,10.83s-.5,44.46,74.24,74.35c78.15,31.26,124,81.88,123.69,144.46-.54,101.52-104,147.31-119.4,153.58a135.83,135.83,0,0,0-30.12-3.55c-14.75,0-26.84,1.1-35,3.12-8.36,2.08-13.34,5.18-13.36,9.21-.05,8.06,16.86,10.91,30.72,10.89,10.12,0,98.48,1.19,98.48,65.08,0,37.72-46.16,61.57-79.74,77.83-8,3.89-15.64,8.9-21.59,12.35-30.6,17.77-27.87,65.28-27.87,65.28,0-.28-.25-31.13,39.74-53.53a222.86,222.86,0,0,1,35.8-15.71c28.58-9.8,58.46-21.09,72.22-47.43,13.4,5.68,33.6,9.42,51.4,9.4a147.53,147.53,0,0,0,53.26-10.1c11.59,6.12,36.24,13,69.78,12.92,76-.07,162.11-37.35,230.41-99.74C1319.23,790,1372,768.2,1372,768.2ZM884.38,888.9a116,116,0,0,0,.93-15.29c.22-42.75-23.36-62.05-45.63-74.17,27.39-8.88,62.69-29.86,87.4-65l65-.06c71.82-.06,121.91-40.12,139.88-57.06-10.77,14.3-32.47,47.48-53.41,105.86-20.19,56.27-110.47,111.3-151.43,111.34-5.78,0-14-1-22.63-2C897.56,891.68,890.65,890.21,884.38,888.9ZM1122.52,719l-4.86,2.69c12.75-32.74,30.7-63,30.7-63S1085.81,711.49,997.6,714c16.07-13.83,36.05-34.8,50.82-53.51,14.37-18.21,27.75-51.55,41.93-86.84,17.6-43.84,35.8-89.16,58.78-115.27,29.84-33.92,77.64-52.13,150-79.69,13.69-5.22,27.85-10.61,43.06-16.56,54.42-21.25,84.23-47,100-65.64-18.47,44.62-58.42,134.88-108,210.31-44.82,68.19-117,159.84-206.07,209.19C1126.07,717.09,1124.22,718.1,1122.52,719Zm-23.25-436.47c21.41,69,31,109.12,34.09,143q.47,5,1.13,8.94c-36.64,33.13-49,70.94-60.84,107.51-3,9.24-6.11,18.79-9.53,27.94-20.65,55.16-58.36,103.44-84.66,125-10,8.17-16.33,14.24-19.89,19-7.49-.09-14.29-.2-20-.31,11.76-23.45,17.8-49.51,18-77.57.18-33.27-8.76-62.19-26.54-86,6.31-36.17,17.3-128.18-9.74-229.33,10-10.47,32.39-28.66,62-50.3,34.8-25.44,90.54-64.19,107.4-75.88C1089.06,212.35,1088.21,246.87,1099.27,282.56Zm6.12,476.92c1-3.58,2-7.29,3.22-11.24a37.6,37.6,0,0,0,8,.7c7.27,0,18-1.18,33.83-3.68a83.55,83.55,0,0,1,12.69-.92c28.24,0,66.36,11.19,100,21.09,5.06,1.48,10,2.94,14.86,4.34a176.42,176.42,0,0,0,49.06,6.55c2.2,0,4.3-.05,6.36-.11-19.64,8.28-48.77,24.26-85.91,55-54.45,45.06-168,65.15-201.91,65.18a243.18,243.18,0,0,1-31.41-2.54C1057.07,865.3,1090.11,816.81,1105.39,759.48Zm29.54-631.19c-.08,14.44,2,30.51,4.52,49.13,3.1,23.34,6.61,49.81,6.45,79.55-.17,32.42-6.08,63.25-10.77,82.71-2.39-6.46-4.78-12.92-7.13-19.24-6.51-17.47-12.66-34-16.85-46.79-15-45.73-13.31-91.48-13.3-91.94,0,0-82.9,48.93-129.48,80.21-28.64,19.24-44.22,31.93-52.64,39.79-.59-1.88-1.18-3.75-1.79-5.6v-.05c6.93-21.86,27.39-66.69,87-126.67,58.89-59.25,145-104.2,153.33-108.46C1148.63,69.34,1135.11,93.18,1134.93,128.29ZM927,156.54l12,42.87c-20.44,24-31.81,45.15-38.05,60.33a491.68,491.68,0,0,0-43.42-85.47,266.3,266.3,0,0,1,25.84-25.92c16-13.94,35.12-30.08,41.32-35.31C922.69,120.52,921,134.93,927,156.54Z"/></g><g id="_Group_2" data-name="&lt;Group&gt;"><path id="_Compound_Path_2" data-name="&lt;Compound Path&gt;" class="cls-1" d="M177.12,823.73c68.29,62.39,154.43,99.67,230.41,99.74,33.53,0,58.19-6.8,69.78-12.92a147.48,147.48,0,0,0,53.25,10.1c17.81,0,38-3.72,51.4-9.4,13.76,26.34,43.64,37.63,72.23,47.43A222.32,222.32,0,0,1,690,974.39c40,22.4,39.78,53.25,39.75,53.53,0,0,2.73-47.51-27.87-65.28-6-3.45-13.57-8.46-21.6-12.35-33.58-16.26-79.74-40.11-79.74-77.83,0-63.89,88.36-65.09,98.48-65.08,13.87,0,30.77-2.83,30.73-10.89,0-4-5-7.13-13.36-9.21-8.14-2-20.24-3.1-35-3.12a135.83,135.83,0,0,0-30.12,3.55c-15.44-6.27-118.87-52.06-119.41-153.58-.33-62.58,45.54-113.2,123.69-144.46,74.75-29.89,74.25-71.45,74.25-74.35s-.09-10.83-.09-10.83c-.08.31-12.4,36.12-50.24,57.29A224,224,0,0,1,648,475.64c-27.42,9.68-62.83,23.63-92.57,47.09-4.77-29.76-14.23-112.64,9.63-198.81,35.77-129.15,92.85-196.06,127-236l1.39-1.63c36-42.2,36.22-75.49,36.22-76.88L729.73,0c-.14.34-20.09,42-49.38,77.73-4.66,5.68-10.36,11.9-17,19.1-14.34,15.63-32.09,35-50.66,61.4-7-5.42-18.76-14.39-31.75-23.57a521,521,0,0,0-45.11-28s-9.37-5.31-9.45-5.46l1,7.47c0,.2,2.45,20.42-7.34,44.05-5.78,13.94-10.68,24.63-13.79,31.16a344.33,344.33,0,0,0-25.82-23.82C407.44,99.33,307.89,55.91,306.9,55.48c0,0-12.78-4.83-12.93-5l4.17,10.22c.18.33,17.79,34.29,11.14,80.82-2.21,15.49-5.08,29.83-7.86,43.7-6,30.11-11.71,58.54-11.5,98.38.22,42.41,11.39,82.12,18.25,102.55a243.86,243.86,0,0,0-7.73,29.49c-1.7-1.13-3.31-2.17-4.88-3.15-40.29-25.08-84.49-38-127.23-50.55-27.34-8-53.16-15.56-76.24-25.85-51.34-22.88-85.7-67-86-67.46l-6-5.7,1.07,8c.3,1.37,30.71,138.65,123.63,276.67,65.34,97,123.12,147.31,155.51,170.6-40.44,1.38-63.2,13.22-85.26,24.7-6.82,3.55-13.86,7.21-21.33,10.51-31.36,13.86-85.71,14.79-86.16,14.79C87.46,768.2,140.23,790,177.12,823.73ZM555,892.51c-8.67,1-16.85,2-22.63,2-41,0-131.25-55.07-151.43-111.34C360,724.81,338.3,691.63,327.53,677.33c18,16.94,68.06,57,139.87,57.06l65,.06c24.7,35.13,60,56.11,87.4,65-22.27,12.12-45.85,31.42-45.63,74.17a114.27,114.27,0,0,0,.93,15.29C568.8,890.21,561.9,891.68,555,892.51ZM331.37,716C242.25,666.62,170.12,575,125.3,506.78c-49.58-75.43-89.52-165.69-108-210.31,15.73,18.63,45.54,44.39,100,65.64,15.22,5.95,29.38,11.34,43.07,16.56,72.35,27.56,120.16,45.77,150,79.69,23,26.11,41.18,71.43,58.78,115.27,14.17,35.29,27.56,68.63,41.93,86.84,14.77,18.71,34.75,39.68,50.82,53.51-88.22-2.49-150.71-55.22-150.76-55.27s17.95,30.27,30.7,63L336.93,719C335.24,718.1,333.38,717.09,331.37,716Zm37.47-521.41c16.86,11.69,72.59,50.44,107.4,75.88,29.6,21.64,52,39.83,62,50.3-27.05,101.15-16,193.16-9.74,229.33-17.78,23.79-26.72,52.71-26.55,86,.15,28.06,6.19,54.12,17.95,77.57-5.72.11-12.52.22-20,.31-3.56-4.75-9.92-10.82-19.9-19-26.3-21.52-64-69.8-84.65-125-3.42-9.15-6.53-18.7-9.53-27.94-11.9-36.57-24.21-74.38-60.84-107.51q.66-4,1.12-8.94c3.13-33.91,12.69-74,34.1-143C371.25,246.87,370.4,212.35,368.84,194.56Zm76.43,699.28a243.32,243.32,0,0,1-31.41,2.54c-33.95,0-147.46-20.12-201.92-65.18-37.13-30.73-66.26-46.71-85.9-55,2,.06,4.15.11,6.35.11a176.37,176.37,0,0,0,49.06-6.55c4.84-1.4,9.81-2.86,14.87-4.34,33.63-9.9,71.75-21.11,100-21.09a83.41,83.41,0,0,1,12.68.92c15.82,2.5,26.56,3.67,33.83,3.68a37.63,37.63,0,0,0,8-.7c1.19,4,2.26,7.66,3.22,11.24C369.35,816.81,402.38,865.3,445.27,893.84ZM305.2,60.93c8.3,4.26,94.43,49.21,153.32,108.46,59.62,60,80.07,104.81,87,126.67l0,.05c-.6,1.85-1.19,3.72-1.79,5.6-8.41-7.86-24-20.55-52.63-39.79-46.58-31.28-129.49-80.21-129.49-80.21,0,.46,1.65,46.21-13.3,91.94C344.11,286.47,338,303,331.46,320.44c-2.35,6.32-4.75,12.78-7.13,19.24-4.69-19.46-10.6-50.29-10.78-82.71-.16-29.74,3.36-56.21,6.46-79.55,2.47-18.62,4.6-34.69,4.52-49.13C324.35,93.18,310.82,69.34,305.2,60.93ZM534.8,113c6.2,5.23,25.28,21.37,41.32,35.31A267.45,267.45,0,0,1,602,174.27a491,491,0,0,0-43.42,85.47c-6.25-15.18-17.61-36.32-38.06-60.33l12-42.87C538.51,134.93,536.76,120.52,534.8,113Z"/></g></g></g></svg>