<svg xmlns="http://www.w3.org/2000/svg" xmlns:xlink="http://www.w3.org/1999/xlink" viewBox="0 0 314.33 253.03"><defs><style>.cls-1{fill:url(#linear-gradient);}.cls-2{fill:url(#linear-gradient-2);}.cls-3{fill:url(#linear-gradient-3);}</style><linearGradient id="linear-gradient" x1="842.73" y1="204.35" x2="983.89" y2="63.07" gradientTransform="matrix(1, 0, -0.01, 1, -734.03, -1)" gradientUnits="userSpaceOnUse"><stop offset="0.16" stop-color="#e2a453"/><stop offset="0.51" stop-color="#965e29"/><stop offset="0.8" stop-color="#a56f34"/><stop offset="0.93" stop-color="#e2a453"/></linearGradient><linearGradient id="linear-gradient-2" x1="2638.32" y1="200.69" x2="2503.72" y2="67.17" gradientTransform="matrix(-1, 0, 0.01, 1, 2652.42, -1)" xlink:href="#linear-gradient"/><linearGradient id="linear-gradient-3" x1="58.61" y1="239.89" x2="255.72" y2="239.89" gradientTransform="matrix(1, 0, 0, 1, 0, 0)" xlink:href="#linear-gradient"/></defs><title>cattiensa-groups_2</title><g id="Layer_2" data-name="Layer 2"><g id="Layer_1-2" data-name="Layer 1"><g id="_Group_" data-name="&lt;Group&gt;"><g id="_Group_2" data-name="&lt;Group&gt;"><path id="_Compound_Path_" data-name="&lt;Compound Path&gt;" class="cls-1" d="M295.49,165.45c-.09,0-11.8-.2-18.56-3.19-1.6-.71-3.12-1.5-4.59-2.26-4.75-2.47-9.65-5-18.36-5.32,7-5,19.42-15.84,33.49-36.74A193.67,193.67,0,0,0,314.1,58.35l.23-1.72L313,57.85c-.08.1-7.48,9.6-18.54,14.53A130.33,130.33,0,0,1,278.07,78c-9.2,2.7-18.72,5.49-27.4,10.89-.34.21-.68.43-1,.68A54,54,0,0,0,248,83.16a74.09,74.09,0,0,0,3.93-22.08c0-8.58-1.18-14.71-2.48-21.19-.6-3-1.22-6.08-1.69-9.41a31,31,0,0,1,2.4-17.41l.89-2.2S248.23,12,248.23,12c-.21.09-21.65,9.44-37.37,22.52a71.86,71.86,0,0,0-5.56,5.13c-.67-1.41-1.73-3.71-3-6.71a20.55,20.55,0,0,1-1.58-9.49l.2-1.61s-2,1.18-2,1.18-5.22,2.85-9.72,6c-2.79,2-5.33,3.91-6.84,5.08a124.16,124.16,0,0,0-10.91-13.22C170,19.3,168.8,18,167.8,16.74A94,94,0,0,1,157.16,0l0,2c0,.3,0,7.47,7.8,16.56l.3.35c7.34,8.61,19.64,23,27.34,50.83,5.14,18.56,3.1,36.41,2.08,42.82-6.41-5-14-8-19.94-10.14a48,48,0,0,1-6.77-3,24.73,24.73,0,0,1-10.82-12.34s0,1.71,0,2.33-.11,9.57,16,16c16.83,6.73,26.71,17.64,26.64,31.11-.12,21.87-22.39,31.73-25.72,33.08a29.36,29.36,0,0,0-6.49-.76,33.25,33.25,0,0,0-7.53.67c-1.8.45-2.87,1.11-2.88,2,0,1.74,3.63,2.35,6.62,2.35,2.18,0,21.21.25,21.21,14,0,8.13-9.94,13.27-17.17,16.77-1.73.84-3.37,1.91-4.65,2.66-6.59,3.82-6,14.06-6,14.06s0-6.71,8.56-11.53a48.39,48.39,0,0,1,7.71-3.39c6.16-2.11,12.6-4.54,15.56-10.21a30.72,30.72,0,0,0,11.07,2,31.89,31.89,0,0,0,11.47-2.17c2.5,1.32,7.8,2.79,15,2.78,16.36,0,34.91-8,49.62-21.48C284.13,170.15,295.49,165.45,295.49,165.45Zm-105,26a23.54,23.54,0,0,0,.2-3.29c.05-9.21-5-13.36-9.83-16a38.15,38.15,0,0,0,18.83-14h14c15.47,0,26.26-8.64,30.13-12.29-2.32,3.08-7,10.23-11.51,22.8-4.34,12.12-23.79,24-32.61,24a45.37,45.37,0,0,1-4.87-.44C193.31,192,191.82,191.73,190.47,191.44Zm51.29-36.58-1,.58a105.6,105.6,0,0,1,6.62-13.57s-13.47,11.37-32.47,11.9a91,91,0,0,0,10.94-11.52c3.1-3.93,6-11.1,9-18.71,3.79-9.44,7.71-19.2,12.66-24.82,6.43-7.31,16.72-11.23,32.31-17.16,2.95-1.13,6-2.29,9.27-3.57,11.72-4.58,18.14-10.13,21.53-14.14-4,9.61-12.58,29.05-23.26,45.3-9.65,14.68-25.19,34.42-44.38,45Zm-5-94c4.61,14.86,6.67,23.5,7.35,30.8.06.71.14,1.36.24,1.93-7.89,7.13-10.54,15.27-13.1,23.15-.65,2-1.32,4.05-2.06,6C224.74,134.64,216.61,145,211,149.67a26.54,26.54,0,0,0-4.28,4.09l-4.32-.07a37.19,37.19,0,0,0,3.87-16.7,29.89,29.89,0,0,0-5.72-18.52,119.3,119.3,0,0,0-2.09-49.39c2.15-2.26,7-6.17,13.35-10.83,7.49-5.48,19.5-13.83,23.13-16.35A51,51,0,0,0,236.75,60.86Zm1.32,102.71c.21-.77.44-1.57.69-2.42a8.23,8.23,0,0,0,1.73.15,51,51,0,0,0,7.29-.79,17.57,17.57,0,0,1,2.73-.2c6.08,0,14.29,2.41,21.54,4.54l3.2.94a38.07,38.07,0,0,0,10.56,1.41c.48,0,.93,0,1.37,0C283,169,276.68,172.4,268.68,179c-11.73,9.7-36.17,14-43.49,14a53.14,53.14,0,0,1-6.76-.55C227.67,186.36,234.78,175.92,238.07,163.57Zm6.36-135.94a82.48,82.48,0,0,0,1,10.58,123,123,0,0,1,1.39,17.13,80.6,80.6,0,0,1-2.32,17.82c-.52-1.39-1-2.78-1.54-4.15-1.4-3.76-2.72-7.31-3.63-10.07a63.84,63.84,0,0,1-2.86-19.8s-17.86,10.53-27.89,17.27A94.08,94.08,0,0,0,197.22,65c-.12-.4-.25-.81-.38-1.21h0c1.5-4.71,5.9-14.36,18.74-27.28,12.69-12.76,31.24-22.44,33-23.36A26.63,26.63,0,0,0,244.43,27.63Zm-44.78,6.09L202.23,43a49.32,49.32,0,0,0-8.2,13,104.88,104.88,0,0,0-9.35-18.41A57.71,57.71,0,0,1,190.25,32c3.45-3,7.56-6.48,8.9-7.6C198.72,26,198.35,29.06,199.65,33.72Z"/></g><g id="_Group_3" data-name="&lt;Group&gt;"><path id="_Compound_Path_2" data-name="&lt;Compound Path&gt;" class="cls-2" d="M38.15,177.41c14.71,13.44,33.26,21.47,49.62,21.48,7.22,0,12.53-1.46,15-2.78a31.84,31.84,0,0,0,11.47,2.17,30.81,30.81,0,0,0,11.07-2c3,5.67,9.4,8.1,15.55,10.21a47.6,47.6,0,0,1,7.71,3.39c8.62,4.82,8.57,11.47,8.56,11.53s.59-10.24-6-14.06c-1.28-.75-2.92-1.82-4.65-2.66-7.23-3.5-17.17-8.64-17.17-16.77,0-13.76,19-14,21.21-14,3,0,6.62-.61,6.61-2.35,0-.87-1.07-1.53-2.87-2a33.35,33.35,0,0,0-7.54-.67,29.27,29.27,0,0,0-6.48.76c-3.33-1.35-25.6-11.21-25.72-33.08-.07-13.47,9.81-24.38,26.64-31.11,16.1-6.44,16-15.39,16-16s0-2.33,0-2.33a24.79,24.79,0,0,1-10.82,12.34,48,48,0,0,1-6.77,3c-5.91,2.09-13.53,5.09-19.94,10.14-1-6.41-3.06-24.26,2.08-42.82,7.7-27.81,20-42.22,27.34-50.83l.3-.35c7.75-9.09,7.8-16.26,7.8-16.56V0a93.62,93.62,0,0,1-10.63,16.74c-1,1.22-2.23,2.56-3.66,4.12A125.38,125.38,0,0,0,132,34.08c-1.5-1.17-4-3.1-6.83-5.08-4.5-3.18-9.67-6-9.72-6s-2-1.14-2-1.18l.21,1.61A20.55,20.55,0,0,1,112,32.89c-1.25,3-2.3,5.3-3,6.71a73.74,73.74,0,0,0-5.56-5.13C87.75,21.39,66.31,12,66.1,12c0,0-2.75-1-2.79-1.08l.9,2.2a31.1,31.1,0,0,1,2.4,17.41c-.47,3.33-1.09,6.42-1.69,9.41-1.3,6.48-2.53,12.61-2.48,21.19a73.77,73.77,0,0,0,3.93,22.08,52.08,52.08,0,0,0-1.66,6.36c-.37-.25-.72-.47-1-.68C55,83.44,45.46,80.65,36.25,78a130.88,130.88,0,0,1-16.42-5.57C8.78,67.45,1.38,58,1.3,57.85L0,56.63l.23,1.72a193.09,193.09,0,0,0,26.63,59.59c14.07,20.9,26.51,31.73,33.49,36.74C51.64,155,46.74,157.53,42,160c-1.47.76-3,1.55-4.6,2.26-6.75,3-18.46,3.19-18.55,3.19S30.2,170.15,38.15,177.41Zm81.38,14.81a45.59,45.59,0,0,1-4.87.44c-8.82,0-28.27-11.86-32.62-24-4.51-12.57-9.18-19.72-11.5-22.8,3.87,3.65,14.66,12.27,30.13,12.29h14a38.13,38.13,0,0,0,18.82,14c-4.79,2.61-9.87,6.76-9.82,16a23.54,23.54,0,0,0,.2,3.29C122.5,191.73,121,192,119.53,192.22Zm-48.16-38c-19.2-10.63-34.73-30.37-44.38-45C16.31,92.9,7.71,73.46,3.73,63.85c3.39,4,9.81,9.56,21.53,14.14,3.27,1.28,6.32,2.44,9.27,3.57,15.58,5.93,25.88,9.85,32.31,17.16,4.94,5.62,8.86,15.38,12.66,24.82,3,7.61,5.93,14.78,9,18.71a91,91,0,0,0,10.94,11.52c-19-.53-32.46-11.89-32.47-11.9a104.79,104.79,0,0,1,6.61,13.57l-1-.58ZM79.44,41.9c3.63,2.52,15.63,10.87,23.13,16.35,6.38,4.66,11.2,8.57,13.35,10.83a119.53,119.53,0,0,0-2.1,49.39A29.94,29.94,0,0,0,108.11,137a37.32,37.32,0,0,0,3.86,16.7c-1.23,0-2.69.05-4.31.07a26.54,26.54,0,0,0-4.28-4.09c-5.67-4.63-13.79-15-18.23-26.91-.74-2-1.41-4-2.06-6-2.56-7.88-5.21-16-13.1-23.15.09-.57.17-1.22.24-1.93.67-7.3,2.73-15.94,7.35-30.8A51.24,51.24,0,0,0,79.44,41.9ZM95.9,192.51a53.15,53.15,0,0,1-6.77.55c-7.31,0-31.75-4.34-43.48-14-8-6.62-14.27-10.06-18.5-11.85.44,0,.89,0,1.36,0a38.15,38.15,0,0,0,10.57-1.41l3.2-.94c7.24-2.13,15.45-4.54,21.54-4.54a17.57,17.57,0,0,1,2.73.2,50.88,50.88,0,0,0,7.29.79,8.12,8.12,0,0,0,1.72-.15c.26.85.49,1.65.7,2.42C79.55,175.92,86.66,186.36,95.9,192.51ZM65.73,13.12c1.79.92,20.34,10.6,33,23.36C111.59,49.4,116,59.05,117.49,63.76h0L117.1,65a92.82,92.82,0,0,0-11.33-8.57c-10-6.74-27.89-17.27-27.89-17.27A64.38,64.38,0,0,1,75,58.94c-.9,2.76-2.22,6.31-3.62,10.07-.51,1.37-1,2.76-1.54,4.15a80.6,80.6,0,0,1-2.32-17.82,121.53,121.53,0,0,1,1.39-17.13,82.48,82.48,0,0,0,1-10.58A26.72,26.72,0,0,0,65.73,13.12Zm49.45,11.23c1.34,1.12,5.45,4.6,8.9,7.6a57.71,57.71,0,0,1,5.57,5.58,105.6,105.6,0,0,0-9.36,18.41,49,49,0,0,0-8.19-13l2.58-9.23C116,29.06,115.6,26,115.18,24.35Z"/></g><path id="_Compound_Path_3" data-name="&lt;Compound Path&gt;" class="cls-3" d="M71.56,253c-4,0-7.18-1.21-9.48-3.59s-3.47-5.63-3.47-9.66a12.18,12.18,0,0,1,4-9.59,14.34,14.34,0,0,1,9.82-3.38,18.53,18.53,0,0,1,7.75,1.67l.58.27-.24.6a11,11,0,0,0-.37,1.14,10.1,10.1,0,0,0-.28,1.35l-.07.44-1.14.3-.27-.35a7.28,7.28,0,0,0-2.82-2,8.43,8.43,0,0,0-10,2.32,11.59,11.59,0,0,0-2.26,7.37,11.31,11.31,0,0,0,2.41,7.59,7.77,7.77,0,0,0,6.26,2.77A10.92,10.92,0,0,0,79,247.57l1.24-1.14L80,250.69l-.28.19a12.46,12.46,0,0,1-3.78,1.64A18,18,0,0,1,71.56,253Zm29.4-2.1a2.36,2.36,0,0,0,.67.87,3.28,3.28,0,0,0,2.07.64h0l1.35-.15a4.67,4.67,0,0,0,1.26-.42l.36-.19v-1.94l-1.79.23h-.1a2.69,2.69,0,0,1-.06-.64v-8.54c0-4.25-2.19-6.5-6.33-6.5a9.12,9.12,0,0,0-3.16.54,13.12,13.12,0,0,0-2.87,1.53l-.29.2v3h1.62l.13-.51a2.18,2.18,0,0,1,.93-1.15,4,4,0,0,1,2.53-.78,3.06,3.06,0,0,1,3.44,3.44,1.12,1.12,0,0,1-.89,1.2,17.37,17.37,0,0,1-2.25.44c-2.88.49-4.72,1.14-5.63,2a4.85,4.85,0,0,0-1.42,3.68,4.64,4.64,0,0,0,1.58,3.63,5.46,5.46,0,0,0,3.74,1.37A7.55,7.55,0,0,0,101,250.93Zm-.34-7v4.14l-.15.16a5.51,5.51,0,0,1-.56.5l0,0,0,.05a3.32,3.32,0,0,1-1.06.78,2.81,2.81,0,0,1-1.22.32,3,3,0,0,1-2.07-.64,2.51,2.51,0,0,1-.67-2,2.45,2.45,0,0,1,1.7-2.39,20.05,20.05,0,0,1,3.66-.92Zm22,8.64a13,13,0,0,0,1.56-.51l.42-.17v-2.17l-.84.22-.7.17a3.06,3.06,0,0,1-.74.09,1.51,1.51,0,0,1-1.37-.6,5.7,5.7,0,0,1-.6-3.19v-9.3h3.86l-.16-1.24.13-1.44h-3.83v-4.87l-4.07,1.67v3.2h-1.49l-.91,0,.27.88a1.7,1.7,0,0,1,0,.48,1.09,1.09,0,0,1,0,.41l-.3.89h2.43v10.07a6.29,6.29,0,0,0,1.28,4.4,4.53,4.53,0,0,0,3.47,1.22A6.09,6.09,0,0,0,122.65,252.62Zm19.23,0a13,13,0,0,0,1.56-.51l.43-.17v-2.16L143,250l-.7.17a3,3,0,0,1-.73.09,1.48,1.48,0,0,1-1.37-.6,5.57,5.57,0,0,1-.61-3.19v-9.3h3.86l-.16-1.24.13-1.44h-3.83v-4.87l-4.07,1.67v3.2h-2.4l.27.88a1.94,1.94,0,0,1,0,.49,1.09,1.09,0,0,1,0,.41l-.29.89h2.42v10.07a6.29,6.29,0,0,0,1.28,4.4,4.55,4.55,0,0,0,3.47,1.22A6.09,6.09,0,0,0,141.88,252.62Zm13.16.08.79-.14.74-.11h.5l2.11.26V234.41l-2.1.21a4,4,0,0,1-.53,0l-.74-.11-.77-.1Zm3.77-21.77a2.33,2.33,0,0,0,.72-1.7,2.4,2.4,0,0,0-.72-1.76,2.34,2.34,0,0,0-1.7-.73,2.53,2.53,0,0,0-2.49,2.49,2.33,2.33,0,0,0,.76,1.74,2.47,2.47,0,0,0,1.73.68A2.33,2.33,0,0,0,158.81,230.93Zm21.46,21.32a12.37,12.37,0,0,0,3-1.62l.27-.19.14-3.78-1.2,1.12a9.19,9.19,0,0,1-1.91,1.43,5.82,5.82,0,0,1-2.78.76,5,5,0,0,1-4-1.65,6.24,6.24,0,0,1-1.46-4.2v-.05h4.34l3,.07c1.87,0,3.25.07,4.07.07h.68v-1.45a8.6,8.6,0,0,0-2.36-6.37,7.38,7.38,0,0,0-5.36-2.11A8.22,8.22,0,0,0,170.2,237a9.66,9.66,0,0,0-2.19,6.54,9.35,9.35,0,0,0,2.46,6.82,8.7,8.7,0,0,0,6.45,2.5A9.62,9.62,0,0,0,180.27,252.25Zm-7.88-10.79a6,6,0,0,1,1.11-3.07,3.72,3.72,0,0,1,3.18-1.65,3.07,3.07,0,0,1,2.89,1.55,7,7,0,0,1,.77,3.17Zm21.05,11.31.82-.18.73-.14h.49l2.1.2v-8.9a10.14,10.14,0,0,1,.83-4.76,3.12,3.12,0,0,1,3-1.54,2.63,2.63,0,0,1,2.61,1.36,8.48,8.48,0,0,1,.62,3.77v10.2l.82-.18c.38-.08.62-.13.73-.14h.49l2.1.2V241.79a9,9,0,0,0-1.47-5.59c-1-1.28-2.65-1.92-4.85-1.92a6.69,6.69,0,0,0-3.6,1,6.86,6.86,0,0,0-1.31,1v-1.91l-2.1.21a3.89,3.89,0,0,1-.52,0l-.75-.11-.77-.1Zm34.71-1.45a5.67,5.67,0,0,0,2.33-4.72c0-2.27-1.55-3.92-4.59-4.9-1.66-.53-3.64-1.45-3.64-2.77a2,2,0,0,1,.62-1.61,2.72,2.72,0,0,1,1.84-.58,2.08,2.08,0,0,1,1.36.53,3.35,3.35,0,0,1,1,1.36l.17.42h1.26l.13-.52a16.26,16.26,0,0,1,.81-2.41l.22-.55-.51-.3a6.4,6.4,0,0,0-1.66-.66,10.26,10.26,0,0,0-2.58-.33,6.86,6.86,0,0,0-4.53,1.51,5.35,5.35,0,0,0-1.87,4.32c0,2.49,1.55,4.2,4.61,5.08,1.65.48,3.62,1.33,3.62,2.66a2.29,2.29,0,0,1-.78,1.82,2.85,2.85,0,0,1-2,.71,3.07,3.07,0,0,1-1.82-.62,6,6,0,0,1-1.59-1.64l-.2-.31h-1.22l-.09.56a9,9,0,0,1-.32,1.15c-.1.28-.59,1.77-.59,1.77l.46.28a9,9,0,0,0,4.74,1.28A7.71,7.71,0,0,0,228.15,251.32Zm21.82-.39a2.36,2.36,0,0,0,.67.87,3.28,3.28,0,0,0,2.07.64h0l1.35-.15a4.55,4.55,0,0,0,1.26-.42l.36-.19v-1.94l-1.79.23h-.1a2.69,2.69,0,0,1-.06-.64v-8.54c0-4.25-2.19-6.5-6.33-6.5a9.12,9.12,0,0,0-3.16.54,13.12,13.12,0,0,0-2.87,1.53l-.29.2v3h1.62l.13-.51a2.18,2.18,0,0,1,.93-1.15,4,4,0,0,1,2.53-.78,3.06,3.06,0,0,1,3.44,3.44,1.12,1.12,0,0,1-.89,1.2,17.37,17.37,0,0,1-2.25.44c-2.88.49-4.72,1.14-5.63,2a4.85,4.85,0,0,0-1.42,3.68,4.64,4.64,0,0,0,1.58,3.63,5.46,5.46,0,0,0,3.74,1.37A7.55,7.55,0,0,0,250,250.93Zm-.34-7v4.14l-.15.16a5.51,5.51,0,0,1-.56.5l-.06,0,0,.05a3.32,3.32,0,0,1-1.06.78,2.81,2.81,0,0,1-1.22.32,3,3,0,0,1-2.07-.64,2.54,2.54,0,0,1-.67-2,2.45,2.45,0,0,1,1.7-2.39,20.05,20.05,0,0,1,3.66-.92Z"/></g></g></g></svg>