<?xml version="1.0" encoding="utf-8"?>
<!-- Generator: Adobe Illustrator 22.1.0, SVG Export Plug-In . SVG Version: 6.00 Build 0)  -->
<svg version="1.1" id="Layer_1" xmlns="http://www.w3.org/2000/svg" xmlns:xlink="http://www.w3.org/1999/xlink" x="0px" y="0px"
	 viewBox="0 0 125.7 95.1" style="enable-background:new 0 0 125.7 95.1;" xml:space="preserve">
<style type="text/css">
	.st0{fill:#231F20;}
	.st1{fill:#ED1C24;}
	.st2{fill:url(#SVGID_1_);}
	.st3{fill:url(#SVGID_2_);}
</style>
<title>Asset 1</title>
<g id="Layer_2_1_">
	<g id="Layer_1-2">
		<path class="st0" d="M75.1,68.9c-3.5-3.2-7.5-5.9-11.7-8c-2.7-1.3-2-2-1.3-3.7c0.1-0.2,0-0.5-0.2-0.6c-0.4-0.4-0.6-0.6-0.4-0.9
			c0.4-0.5-0.1-0.6-0.1-1.2c0.2-0.9,0.9-0.9,1.1-1.3c0.3-0.8-0.4-1.8-1.1-2.6c-0.4-0.5-0.3-0.5,0.2-0.7c1.5-1,3.6-2.1,4.9-3.9
			c2.1-2.2,2.8-5.8,4.3-8.8c0.8-1.7,2-3.1,3.5-4.3l0.7-0.6c5.2-4,7-5.5,8.2-8.8c1.2-3.4-0.9-9.6-4.1-12.9c2.5,5.9,1.2,12.8-3.3,17.3
			l-0.8,0.8c-3.9,3.9-5.3,6.5-7.1,11.9c-0.2,1.4-0.7,2.7-1.3,3.9c-1.1,2.1-3,3.7-5.3,4.5l-0.7,0.3c-0.5,0.2-0.7,0.6-0.4,1
			c0.5,0.5,1,1,1.5,1.4c0.5,0.4,0.4,0.4,0,0.8l-1.2,1c-0.3,0.2-0.4,0.5-0.3,0.8l0.5,0.9l-0.6,0.3c-0.3,0.3-0.4,0.7,0.1,1.2
			c0.3,0.3,0.3,0.5,0,1.2c-1.1,1.5-0.7,2.4,0.6,3.2c5,2.5,9.7,5.6,14,9.2c1.2,1,2.5,2,3.8,3C77.8,71.6,76.5,70.2,75.1,68.9z
			 M86.9,21.8c-0.7,8.1-4.6,8.6-11,13c-0.3,0.2-0.6,0.5-0.9,0.7c-2,1.9-3.7,4.1-4.9,6.6c-0.7,1.8-1.8,3.3-3.2,4.6
			c-1.5,1.1,1.4,1.7,2.1,1.7c0.8,0,1.6-0.3,2.3-0.7c1.2-0.5,2.5-0.8,3.8-0.8c0.4,0,0.8,0,1.2,0c-0.3-0.2-0.7-0.4-1.2-0.4
			c-1.8-0.4-3.6-0.6-5.5-0.8c1.9-2.4,3.3-5.5,5.5-7.5c0.6-0.6,1.3-1.1,2.1-1.5C86.1,32.3,90.9,29.9,86.9,21.8z"/>
		<path class="st1" d="M101,94.6l-2.2-12.3L98,83l-0.5,0.6l-2.1,11l1.7,0.3l0.2-1.5l0.7,0.9l0.1,0.1h0.3l0.8-1.1l0.3,1.6L101,94.6z
			 M97.4,92.4l0.8-4.7l0.8,4.7H97.4z"/>
		<path class="st1" d="M33.4,83.6l-2.1,11l1.7,0.3l0.3-1.5l0.9,1.2l1-1.3l0.3,1.6l1.6-0.3l-2.2-12.4L33.4,83.6z M33.4,92.4l0.7-4.6
			l0.8,4.6H33.4z"/>
		<polygon class="st1" points="50.2,84.5 51.4,84.5 51.4,94.7 53,94.7 53,84.5 53.7,84.5 54.4,82.9 50.8,82.9 		"/>
		<path class="st1" d="M24,85.1c0.1-0.4,0.5-0.8,0.9-0.8c0.3,0,0.6,0.1,0.7,0.4l0.4,0.7l0.7-1.9l-0.3-0.3c-0.4-0.4-1-0.6-1.5-0.6
			c-1.2,0-2.1,0.7-2.5,2.2c-0.3,1.3-0.4,2.6-0.4,3.9c0,1.3,0.1,2.6,0.4,3.9c0.2,1.2,1.2,2.1,2.5,2.1l0,0c0.5,0,1.1-0.2,1.5-0.6
			l0.3-0.3l-0.7-2l-0.4,0.8c-0.1,0.3-0.4,0.5-0.7,0.4c-0.3,0-1.1,0-1.1-2.7v-3.2C23.8,86.6,23.8,85.8,24,85.1z"/>
		<polygon class="st1" points="41.4,84.5 42.6,84.5 42.6,94.7 44.2,94.7 44.2,84.5 44.9,84.5 45.6,82.9 42,82.9 		"/>
		<path class="st1" d="M89.5,84.5l1.3-0.5l-0.6-1.5l-1.3,0.5c-0.6,0.2-1.1,0.6-1.5,1.1c-0.4,0.5-0.6,1.1-0.6,1.7
			c0,0.4,0.1,0.8,0.3,1.2l1.8,4.1c0.1,0.2,0.1,0.4,0.1,0.6c0,0.6-0.4,1.1-1,1.3l-1.3,0.4l0.7,1.5l1.2-0.4c0.6-0.2,1.1-0.5,1.5-1
			c0.4-0.5,0.6-1.1,0.6-1.8c0-0.4-0.1-0.8-0.2-1.2l-1.8-4.2c-0.1-0.2-0.1-0.4-0.2-0.6C88.6,85.2,89,84.7,89.5,84.5z"/>
		<rect x="59.7" y="82.9" class="st1" width="1.6" height="11.8"/>
		<polygon class="st1" points="80.2,89.4 77.8,82.2 76.5,83.6 76.5,94.7 78.1,94.7 78.1,87.9 80.7,95.1 81.8,94.6 81.8,82.9 
			80.2,82.9 		"/>
		<polygon class="st1" points="71.5,84.5 71,82.9 67.3,82.9 67.3,88.5 66.9,88.5 66.3,90.2 67.3,90.2 67.3,94.7 71.3,94.7 71.3,93 
			69,93 69,90.2 71.3,90.2 71.3,88.5 69,88.5 69,84.5 		"/>
		<path class="st1" d="M100.2,83.7c0,0.9,0.8,1.7,1.7,1.7s1.7-0.8,1.7-1.7c0-0.9-0.8-1.7-1.7-1.7C100.9,82,100.2,82.8,100.2,83.7
			C100.2,83.7,100.2,83.7,100.2,83.7z M100.5,83.7c0-0.8,0.6-1.4,1.4-1.4c0.8,0,1.4,0.6,1.4,1.4s-0.6,1.4-1.4,1.4c0,0,0,0,0,0
			C101.1,85.1,100.5,84.5,100.5,83.7C100.5,83.7,100.5,83.7,100.5,83.7z"/>
		<path class="st1" d="M102.4,82.9c0.1,0,0.1,0.1,0.2,0.1c0,0,0.1,0.1,0.1,0.2c0,0.1,0,0.1,0,0.2c0,0.1,0,0.2-0.1,0.2
			c0,0.1-0.1,0.1-0.2,0.2c0.1,0,0.1,0.1,0.2,0.2c0,0.1,0.1,0.2,0.1,0.3v0.3c0,0,0,0.1,0.1,0.1l0,0h-0.4c0,0,0-0.1,0-0.1s0-0.1,0-0.2
			v-0.2c0-0.1,0-0.2-0.1-0.2c-0.1,0-0.1-0.1-0.2-0.1h-0.4v0.7h-0.4v-1.7h0.9C102.2,82.8,102.3,82.9,102.4,82.9z M101.6,83.1v0.5h0.4
			c0.1,0,0.1,0,0.2,0c0.1,0,0.1-0.1,0.1-0.2c0-0.1,0-0.2-0.1-0.2c-0.1,0-0.1,0-0.2,0L101.6,83.1z"/>
		
			<linearGradient id="SVGID_1_" gradientUnits="userSpaceOnUse" x1="121.9801" y1="31.1533" x2="-23.1299" y2="31.1533" gradientTransform="matrix(1 0 0 -1 0 98)">
			<stop  offset="0" style="stop-color:#FEDE86"/>
			<stop  offset="0.3" style="stop-color:#FEDE86"/>
			<stop  offset="0.51" style="stop-color:#E2A453"/>
			<stop  offset="0.72" style="stop-color:#804A1E"/>
			<stop  offset="0.94" style="stop-color:#83411D"/>
		</linearGradient>
		<path class="st2" d="M62,65.9c-3.5-1.8-7.1-3.4-10.8-4.9c-5.3-2.3-10.9-4-16.6-5.2c-3.9-0.8-8.9-1.4-10.1,0.5
			c0,0.1,2.7-0.5,10.7,1.9c5.5,1.8,10.8,4,16,6.6c6.2,2.9,12.9,6.2,18.3,8.9c4.7,2.4,10.5,5,12,5v-0.3C80.3,76.8,69.7,69.7,62,65.9z
			"/>
		
			<linearGradient id="SVGID_2_" gradientUnits="userSpaceOnUse" x1="121.9801" y1="70.195" x2="-23.1299" y2="70.195" gradientTransform="matrix(1 0 0 -1 0 98)">
			<stop  offset="0" style="stop-color:#FEDE86"/>
			<stop  offset="0.3" style="stop-color:#FEDE86"/>
			<stop  offset="0.51" style="stop-color:#E2A453"/>
			<stop  offset="0.72" style="stop-color:#804A1E"/>
			<stop  offset="0.94" style="stop-color:#83411D"/>
		</linearGradient>
		<path class="st3" d="M27.5,54.2c2.4-0.3,4.9-0.2,7.3,0.2c2.5,0.6,5,1,7.5,1.2c3.1,0,6.1-0.8,8.8-2.3c10.5-5.6,18.6-20.1,20.9-26.7
			c3.3-9.2,5.5-20.2-3.8-26.6c0,0,2.6,5.5-0.1,18.8c-1.6,7.8-5.5,18.5-10.8,25c-1.8,2.3-3.9,4.3-6.3,6c-1.2,0.8-2.4,1.5-3.7,2.2
			c-2.9,1.4-6.3,1.6-10.5,1.2c-3-0.5-5.6-1.3-8.5,0.4C28.4,53.5,27,54.3,27.5,54.2z"/>
	</g>
</g>
</svg>
