<svg xmlns="http://www.w3.org/2000/svg" viewBox="0 0 2232.94 237.4"><defs><style>.cls-1{fill:#ed1c24;}</style></defs><title>logo-navbar</title><g id="Layer_2" data-name="Layer 2"><g id="Layer_1-2" data-name="Layer 1"><g id="_Group_" data-name="&lt;Group&gt;"><g id="_Group_2" data-name="&lt;Group&gt;"><path id="_Compound_Path_" data-name="&lt;Compound Path&gt;" class="cls-1" d="M298.65,174c-.1,0-11.93-.2-18.75-3.22-1.63-.71-3.16-1.51-4.65-2.28-4.8-2.5-9.75-5.08-18.56-5.38,7.06-5.07,19.63-16,33.86-37.14A195.7,195.7,0,0,0,317.46,65.8l.23-1.74-1.32,1.24c-.07.09-7.55,9.7-18.73,14.68a132.48,132.48,0,0,1-16.59,5.63c-9.31,2.72-18.93,5.54-27.7,11-.34.21-.69.44-1.06.69a52.32,52.32,0,0,0-1.68-6.42,74.77,74.77,0,0,0,4-22.32c0-8.68-1.19-14.87-2.5-21.42-.61-3-1.23-6.14-1.71-9.51A31.46,31.46,0,0,1,252.79,20l.91-2.22s-2.82,1.09-2.82,1.09c-.21.09-21.88,9.55-37.77,22.76a75.23,75.23,0,0,0-5.61,5.19c-.68-1.42-1.75-3.75-3-6.78a20.76,20.76,0,0,1-1.59-9.59l.2-1.63s-2,1.19-2,1.19a112.57,112.57,0,0,0-9.82,6.1c-2.83,2-5.39,4-6.92,5.13a126.29,126.29,0,0,0-11-13.37c-1.44-1.57-2.68-2.92-3.7-4.16A95.55,95.55,0,0,1,158.84,6.82l0,2c0,.3,0,7.54,7.88,16.73l.31.36c7.42,8.7,19.85,23.26,27.63,51.37,5.2,18.76,3.14,36.8,2.1,43.28-6.48-5.11-14.18-8.14-20.15-10.25a48.39,48.39,0,0,1-6.84-3,25,25,0,0,1-10.94-12.47s0,1.73,0,2.36-.11,9.68,16.16,16.18c17,6.81,27,17.83,26.93,31.45-.12,22.1-22.64,32.07-26,33.43a29.32,29.32,0,0,0-6.55-.77,33.92,33.92,0,0,0-7.62.68c-1.82.45-2.9,1.12-2.91,2,0,1.76,3.67,2.38,6.69,2.37,2.21,0,21.44.26,21.44,14.17,0,8.21-10.05,13.4-17.36,16.94-1.74.85-3.4,1.94-4.7,2.69-6.66,3.87-6.07,14.21-6.07,14.21s-.05-6.78,8.66-11.65a47.35,47.35,0,0,1,7.79-3.42c6.22-2.14,12.72-4.6,15.72-10.33a31.17,31.17,0,0,0,11.19,2,32.13,32.13,0,0,0,11.59-2.2c2.52,1.33,7.89,2.82,15.19,2.81,16.54,0,35.29-8.13,50.16-21.71C287.16,178.8,298.65,174,298.65,174ZM192.51,200.32a24.32,24.32,0,0,0,.2-3.33c0-9.31-5.08-13.51-9.93-16.15a38.56,38.56,0,0,0,19-14.14l14.15,0c15.63,0,26.53-8.73,30.44-12.42-2.34,3.12-7.06,10.34-11.62,23.05-4.4,12.24-24.05,24.22-33,24.23a46.76,46.76,0,0,1-4.93-.44C195.38,200.92,193.87,200.6,192.51,200.32Zm51.84-37-1.06.58A106.22,106.22,0,0,1,250,150.21s-13.61,11.49-32.82,12a91.69,91.69,0,0,0,11.07-11.65c3.12-4,6-11.22,9.12-18.9,3.84-9.54,7.8-19.41,12.8-25.09,6.49-7.38,16.9-11.35,32.65-17.35,3-1.13,6.06-2.31,9.37-3.6C304,81,310.5,75.41,313.92,71.36c-4,9.71-12.71,29.36-23.51,45.78C280.66,132,265,151.93,245.56,162.67Zm-5.07-95c4.67,15,6.75,23.75,7.43,31.13.06.73.15,1.38.24,2-8,7.21-10.65,15.44-13.24,23.4-.65,2-1.33,4.09-2.08,6.08-4.49,12-12.7,22.52-18.42,27.21a26.78,26.78,0,0,0-4.33,4.13l-4.36-.07a37.82,37.82,0,0,0,3.91-16.88,30.29,30.29,0,0,0-5.78-18.72,120.75,120.75,0,0,0-2.12-49.92c2.17-2.28,7.05-6.24,13.49-11,7.58-5.53,19.71-14,23.38-16.51A51.7,51.7,0,0,0,239.28,68.33Zm1.34,103.81c.21-.77.44-1.58.7-2.44a8.33,8.33,0,0,0,1.74.15,52.39,52.39,0,0,0,7.37-.8,18,18,0,0,1,2.76-.2c6.15,0,14.45,2.44,21.77,4.59l3.23.95a38.89,38.89,0,0,0,10.68,1.42l1.38,0c-4.27,1.8-10.61,5.28-18.7,12-11.85,9.81-36.56,14.18-44,14.18a50.91,50.91,0,0,1-6.84-.55C230.1,195.18,237.29,184.62,240.62,172.14Zm6.43-137.39a80.67,80.67,0,0,0,1,10.69,122.56,122.56,0,0,1,1.41,17.32,81.52,81.52,0,0,1-2.35,18l-1.55-4.19c-1.42-3.81-2.76-7.4-3.67-10.19a64.62,64.62,0,0,1-2.89-20s-18,10.65-28.19,17.46a96.08,96.08,0,0,0-11.46,8.66c-.13-.41-.25-.82-.39-1.22h0c1.51-4.76,6-14.52,18.94-27.57C230.7,30.8,249.45,21,251.26,20.09A26.93,26.93,0,0,0,247.05,34.75ZM201.78,40.9l2.61,9.33a49.74,49.74,0,0,0-8.28,13.13,107.4,107.4,0,0,0-9.45-18.6,57.54,57.54,0,0,1,5.62-5.64c3.49-3,7.65-6.55,9-7.69C200.85,33.06,200.47,36.2,201.78,40.9Z"/></g><g id="_Group_3" data-name="&lt;Group&gt;"><path id="_Compound_Path_2" data-name="&lt;Compound Path&gt;" class="cls-1" d="M38.55,186.13c14.87,13.58,33.62,21.7,50.16,21.71,7.3,0,12.67-1.48,15.19-2.81a32.09,32.09,0,0,0,11.59,2.2,31.17,31.17,0,0,0,11.19-2c3,5.73,9.5,8.19,15.72,10.33a47.35,47.35,0,0,1,7.79,3.42c8.71,4.87,8.66,11.59,8.65,11.65s.6-10.34-6.06-14.21c-1.3-.75-3-1.84-4.7-2.69-7.31-3.54-17.36-8.73-17.36-16.94,0-13.91,19.23-14.17,21.44-14.17,3,0,6.69-.61,6.68-2.37,0-.88-1.08-1.55-2.9-2a34,34,0,0,0-7.62-.68,29.32,29.32,0,0,0-6.55.77c-3.36-1.36-25.88-11.33-26-33.43-.07-13.62,9.92-24.64,26.93-31.45,16.27-6.5,16.16-15.55,16.16-16.18s0-2.36,0-2.36a25,25,0,0,1-10.94,12.47,48.39,48.39,0,0,1-6.84,3c-6,2.11-13.68,5.14-20.15,10.25-1-6.48-3.1-24.52,2.1-43.28,7.78-28.11,20.21-42.67,27.63-51.37l.31-.36c7.83-9.19,7.88-16.43,7.88-16.73v-2A94.5,94.5,0,0,1,148.1,23.74c-1,1.24-2.26,2.59-3.7,4.16a126.29,126.29,0,0,0-11,13.37c-1.53-1.18-4.09-3.14-6.92-5.13a112.57,112.57,0,0,0-9.82-6.1s-2-1.16-2-1.19l.2,1.63a20.76,20.76,0,0,1-1.59,9.59c-1.26,3-2.33,5.36-3,6.78a73.47,73.47,0,0,0-5.62-5.19C88.69,28.45,67,19,66.81,18.9c0,0-2.79-1-2.82-1.09L64.9,20a31.46,31.46,0,0,1,2.42,17.6c-.48,3.37-1.1,6.49-1.71,9.51-1.31,6.55-2.55,12.74-2.5,21.42a74.77,74.77,0,0,0,4,22.32A52.32,52.32,0,0,0,65.4,97.3c-.37-.25-.72-.48-1.06-.69-8.77-5.46-18.39-8.28-27.7-11A132.48,132.48,0,0,1,20.05,80C8.87,75,1.39,65.39,1.32,65.3L0,64.06.23,65.8A195.7,195.7,0,0,0,27.14,126c14.23,21.13,26.8,32.07,33.86,37.14-8.81.3-13.76,2.88-18.56,5.38-1.49.77-3,1.57-4.65,2.28C31,173.84,19.14,174,19,174S30.52,178.8,38.55,186.13Zm82.26,15a46.76,46.76,0,0,1-4.93.44c-8.91,0-28.56-12-33-24.23-4.56-12.71-9.28-19.93-11.62-23.05,3.91,3.69,14.81,12.41,30.44,12.42l14.15,0a38.56,38.56,0,0,0,19,14.14c-4.85,2.64-10,6.84-9.93,16.15a24.32,24.32,0,0,0,.2,3.33C123.82,200.6,122.31,200.92,120.81,201.1ZM72.13,162.67C52.73,151.93,37,132,27.28,117.14,16.48,100.72,7.79,81.07,3.77,71.36c3.42,4,9.91,9.66,21.76,14.29,3.31,1.29,6.39,2.47,9.37,3.6,15.75,6,26.16,10,32.65,17.35,5,5.68,9,15.55,12.8,25.09,3.08,7.68,6,14.94,9.12,18.9a91.69,91.69,0,0,0,11.07,11.65c-19.21-.54-32.81-12-32.82-12a106.22,106.22,0,0,1,6.68,13.71l-1.06-.58ZM80.29,49.18c3.67,2.54,15.8,11,23.38,16.51,6.44,4.71,11.32,8.67,13.49,11A120.57,120.57,0,0,0,115,126.56a30.29,30.29,0,0,0-5.78,18.72,37.82,37.82,0,0,0,3.91,16.88l-4.36.07a26.78,26.78,0,0,0-4.33-4.13c-5.72-4.69-13.93-15.2-18.42-27.21-.75-2-1.43-4.07-2.08-6.08-2.59-8-5.27-16.19-13.24-23.4.09-.57.18-1.22.24-2,.68-7.38,2.76-16.1,7.42-31.13A51.53,51.53,0,0,0,80.29,49.18ZM96.93,201.39a50.91,50.91,0,0,1-6.84.55c-7.39,0-32.1-4.37-44-14.18-8.08-6.69-14.42-10.17-18.69-12l1.38,0a38.89,38.89,0,0,0,10.68-1.42l3.23-.95c7.32-2.15,15.62-4.6,21.77-4.59a18,18,0,0,1,2.76.2,52.44,52.44,0,0,0,7.36.8,8.37,8.37,0,0,0,1.75-.15c.26.86.49,1.67.7,2.44C80.4,184.62,87.59,195.18,96.93,201.39ZM66.43,20.09C68.24,21,87,30.8,99.81,43.7c13,13,17.43,22.81,18.94,27.57h0c-.14.4-.26.81-.39,1.22a96.08,96.08,0,0,0-11.46-8.66C96.76,57,78.71,46.38,78.71,46.38a64.62,64.62,0,0,1-2.89,20c-.91,2.79-2.25,6.38-3.67,10.19L70.6,80.77a81.52,81.52,0,0,1-2.35-18,122.56,122.56,0,0,1,1.41-17.32,80.67,80.67,0,0,0,1-10.69A26.93,26.93,0,0,0,66.43,20.09Zm50,11.34c1.35,1.14,5.51,4.65,9,7.69A57.54,57.54,0,0,1,131,44.76a107.4,107.4,0,0,0-9.45,18.6,49.74,49.74,0,0,0-8.28-13.13l2.61-9.33C117.22,36.2,116.84,33.06,116.41,31.43Z"/></g><g id="_Group_4" data-name="&lt;Group&gt;"><path id="_Path_" data-name="&lt;Path&gt;" class="cls-1" d="M569.43,237.4c-36,0-64.81-10.91-85.65-32.43s-31.33-50.83-31.33-87.21c0-36.17,12.25-65.3,36.4-86.6C511.74,10.89,541.61.61,577.61.61a167.65,167.65,0,0,1,69.94,15.05l5.32,2.42-2.18,5.41A102.07,102.07,0,0,0,644.77,46l-.58,4L633.84,52.7l-2.45-3.17c-5.24-6.73-13.79-12.79-25.42-18a71.9,71.9,0,0,0-29.61-6.7c-26,0-45.75,9-60.41,27.64C502.4,69.56,495.53,92,495.53,119c0,28.65,7.34,51.71,21.83,68.57s32.92,25,56.47,25a98.67,98.67,0,0,0,62.66-24.52l11.16-10.23-2.4,38.47L642.7,218a110.92,110.92,0,0,1-34.15,14.81A162.5,162.5,0,0,1,569.43,237.4Z"/><path id="_Compound_Path_3" data-name="&lt;Compound Path&gt;" class="cls-1" d="M789.22,235.83c-13.15,0-24.51-4.17-33.77-12.4C746,215,741.2,204,741.2,190.68c0-14.08,4.3-25.28,12.79-33.27,8.23-7.75,24.87-13.68,50.88-18.12,13-2,18.19-3.24,20.29-3.9,5.59-1.86,8-5.12,8-10.86,0-10.2-2.53-17.79-7.74-23.17s-12.93-7.9-23.33-7.9c-9,0-16.48,2.29-22.81,7-4.73,3.37-7.54,6.86-8.42,10.43l-1.16,4.63H755.06V88.57l2.64-1.83A118.93,118.93,0,0,1,783.6,73a81.85,81.85,0,0,1,28.59-5c37.38,0,57.14,20.33,57.14,58.79V204a19.78,19.78,0,0,0,.59,5.72,5.23,5.23,0,0,0,.86.08L887,207.68v17.51l-3.23,1.73a38,38,0,0,1-11.43,3.78l-12.2,1.36h-.34c-7.56,0-13.83-1.93-18.65-5.74a21.32,21.32,0,0,1-6.12-7.9C821.61,230,806.25,235.83,789.22,235.83Zm38.47-79.45c-22.41,4.54-30.35,7-33,8.3-10.55,4.75-15.41,11.59-15.41,21.58,0,8.17,2,14,6.06,17.71s10.45,5.79,18.69,5.79a25.13,25.13,0,0,0,11-2.84,30.3,30.3,0,0,0,9.6-7l.42-.47.49-.37a51.29,51.29,0,0,0,5-4.48c.66-.67,1.08-1.14,1.36-1.47v-37.4Z"/><path id="_Path_2" data-name="&lt;Path&gt;" class="cls-1" d="M1016.56,235.83c-14,0-24.52-3.73-31.3-11.09-7.8-8.36-11.61-21.36-11.61-39.73V94.09H951.74l2.7-8a12.89,12.89,0,0,0,.32-3.73,16.83,16.83,0,0,0-.32-4.35L952,70l8.28-.11h13.42V41l36.79-15.1v44H1045l-1.18,12.94,1.41,11.24h-34.83v84c0,17.63,3,25.43,5.45,28.87,1.66,2.3,4.73,5.35,12.38,5.35a28.18,28.18,0,0,0,6.61-.78q3.88-.93,6.37-1.56l7.61-1.93v19.53l-3.82,1.54a120,120,0,0,1-14.13,4.66A57.67,57.67,0,0,1,1016.56,235.83Z"/><path id="_Path_3" data-name="&lt;Path&gt;" class="cls-1" d="M1190.27,235.83c-14,0-24.52-3.73-31.31-11.09-7.79-8.37-11.6-21.37-11.6-39.73V94.09h-21.88l2.67-8a13.21,13.21,0,0,0,.32-3.75,17.7,17.7,0,0,0-.32-4.37l-2.5-7.94,8.3-.09h13.41V41l36.79-15.1v44h34.59l-1.17,12.94L1219,94.09h-34.83v84c0,17.64,3,25.43,5.45,28.86,1.66,2.32,4.73,5.36,12.38,5.36a28.12,28.12,0,0,0,6.61-.78q3.89-.93,6.38-1.56l7.6-1.92v19.52l-3.82,1.54a119.21,119.21,0,0,1-14.12,4.66A57.81,57.81,0,0,1,1190.27,235.83Z"/><path id="_Compound_Path_4" data-name="&lt;Compound Path&gt;" class="cls-1" d="M1323.49,69l6.93.93q4.83.66,6.76,1a34,34,0,0,0,4.72.23l19-1.89V234.43l-19.08-2.37c-1.91,0-3.41,0-4.48.13-.59.05-2.33.26-6.68,1l-7.17,1.25Zm18.7-24.72a22.29,22.29,0,0,1-15.66-6.2,20.93,20.93,0,0,1-6.81-15.64,21.72,21.72,0,0,1,6.65-15.81A21.7,21.7,0,0,1,1342.19,0a21.07,21.07,0,0,1,15.36,6.51,21.83,21.83,0,0,1,6.51,16,21.1,21.1,0,0,1-6.51,15.33A21.08,21.08,0,0,1,1342.19,44.32Z"/><path id="_Compound_Path_5" data-name="&lt;Compound Path&gt;" class="cls-1" d="M1521.14,235.83c-23.85,0-43.44-7.61-58.21-22.6s-22.22-35.71-22.22-61.62c0-24.09,6.64-44,19.75-59.11,14.19-16.25,34-24.48,58.79-24.48,19.2,0,35.48,6.42,48.37,19.07,14.17,14,21.35,33.33,21.35,57.6v13h-6.1c-7.48,0-19.87-.21-36.84-.62-12-.29-25.8-.63-26.78-.64H1480l0,.49c.06,15.29,4.37,27.7,13.18,37.94,8.63,10,20.46,14.87,36.17,14.87a52.3,52.3,0,0,0,25.11-6.81A85,85,0,0,0,1571.76,190l10.84-10.15L1581.31,214l-2.43,1.75a115.53,115.53,0,0,1-27.45,14.63A87.39,87.39,0,0,1,1521.14,235.83Zm30.92-102.92c-.59-12-2.93-21.57-7-28.66-5.42-9.37-14-13.93-26.13-13.93s-21.4,4.85-28.71,14.82a54.61,54.61,0,0,0-10,27.77Z"/><path id="_Path_4" data-name="&lt;Path&gt;" class="cls-1" d="M1670.39,69l6.92.93c3.21.44,5.47.76,6.76,1a34.37,34.37,0,0,0,4.73.23l19-1.89V86.47a62.12,62.12,0,0,1,11.78-9.5,60.61,60.61,0,0,1,32.5-9c19.93,0,34.69,5.87,43.85,17.43,8.82,11.16,13.29,28.12,13.29,50.42V234l-19-1.89a41.29,41.29,0,0,0-4.39.16c-1,.09-3.16.51-6.61,1.26l-7.4,1.61V142.91c0-15.7-1.88-27.16-5.57-34-4.43-8.36-11.93-12.24-23.6-12.24-13.27,0-22.24,4.53-27.42,13.87-4.94,8.71-7.42,23.16-7.42,43V234l-19-1.89a41.16,41.16,0,0,0-4.39.16q-1.47.14-6.61,1.26l-7.41,1.62Z"/><path id="_Path_5" data-name="&lt;Path&gt;" class="cls-1" d="M1940.83,235.83A81.29,81.29,0,0,1,1898,224.24l-4.16-2.52s4.48-13.47,5.33-16a75.82,75.82,0,0,0,2.9-10.39l.85-5.09h11l1.8,2.8A53.7,53.7,0,0,0,1930,207.89c5.38,3.8,10.77,5.65,16.47,5.65a25.73,25.73,0,0,0,17.72-6.5c4.75-4.19,7.06-9.54,7.06-16.36,0-12.08-17.82-19.75-32.76-24.06-27.59-8-41.57-23.38-41.57-45.88,0-16.52,5.66-29.64,16.82-39,10.85-9.1,24.62-13.72,40.94-13.72a90.47,90.47,0,0,1,23.29,3,58.24,58.24,0,0,1,15,6l4.66,2.68-2.07,5a153.9,153.9,0,0,0-7.27,21.83l-1.16,4.62h-11.38l-1.55-3.8A31.28,31.28,0,0,0,1965.12,95a18.87,18.87,0,0,0-12.32-4.71c-7,0-12.4,1.69-16.56,5.19-3.82,3.22-5.68,8-5.68,14.53,0,11.95,17.9,20.22,32.92,25,27.49,8.87,41.42,23.76,41.42,44.25,0,17.67-7.07,32-21,42.64C1971.72,231.17,1957.24,235.83,1940.83,235.83Z"/><path id="_Compound_Path_6" data-name="&lt;Compound Path&gt;" class="cls-1" d="M2135.2,235.83c-13.16,0-24.52-4.17-33.77-12.4-9.46-8.41-14.25-19.43-14.25-32.75,0-14.08,4.29-25.27,12.78-33.27,8.24-7.75,24.89-13.68,50.89-18.12,13-2,18.19-3.24,20.29-3.9,5.59-1.86,8-5.12,8-10.86,0-10.2-2.52-17.78-7.74-23.17-5.08-5.24-12.92-7.9-23.32-7.9-9,0-16.5,2.29-22.83,7-4.72,3.37-7.52,6.87-8.42,10.44l-1.17,4.62H2101V88.57l2.62-1.83A119.26,119.26,0,0,1,2129.58,73a81.85,81.85,0,0,1,28.59-5c37.37,0,57.13,20.33,57.13,58.79V204a19.66,19.66,0,0,0,.59,5.72,5.14,5.14,0,0,0,.87.08l16.18-2.07V225.2l-3.24,1.72a38.11,38.11,0,0,1-11.41,3.78l-12.22,1.36h-.34c-7.56,0-13.84-1.93-18.65-5.74a21.32,21.32,0,0,1-6.12-7.9C2167.58,230,2152.22,235.83,2135.2,235.83Zm38.46-79.45c-22.38,4.54-30.34,7-33,8.3-10.54,4.75-15.4,11.59-15.4,21.58,0,8.17,2,14,6.05,17.71s10.46,5.79,18.71,5.79a25.09,25.09,0,0,0,11-2.84,30.32,30.32,0,0,0,9.6-7l.41-.48.5-.37a50.39,50.39,0,0,0,5-4.49c.65-.66,1.08-1.13,1.35-1.46v-37.4Z"/></g></g></g></g></svg>