<?xml version="1.0" encoding="utf-8"?>
<!-- Generator: Adobe Illustrator 22.1.0, SVG Export Plug-In . SVG Version: 6.00 Build 0)  -->
<svg version="1.1" id="Layer_1" xmlns="http://www.w3.org/2000/svg" xmlns:xlink="http://www.w3.org/1999/xlink" x="0px" y="0px"
	 viewBox="0 0 91.7 22.8" style="enable-background:new 0 0 91.7 22.8;" xml:space="preserve">
<style type="text/css">
	.st0{fill:#ED1C24;}
</style>
<title>viva-tv</title>
<g id="Layer_2_1_">
	<g id="Layer_1-2">
		<g id="_Group_">
			<g id="_Group_2">
				<path id="_Path_2" class="st0" d="M21.5,0.6c-4.2,0-5,2.4-6.2,4.2l-4.7,7L7.8,0.6H0.4l4.7,18.9c1,3.4,3.7,3.2,3.7,3.2
					c1.9,0,3.3-1,4.6-2.9L26.1,0.6H21.5z"/>
				<path id="_Path_3" class="st0" d="M60.2,0.6c-4.2,0-5,2.4-6.2,4.2l-4.7,7L46.5,0.6h-7.4l4.7,18.9c1,3.4,3.7,3.2,3.7,3.2
					c1.9,0,3.3-1,4.6-2.9L64.8,0.6H60.2z"/>
				<path id="_Path_4" class="st0" d="M86.7,0.6c-3.4,0-3.9,2.5-4.5,4.2s-4.1,14.6-4.1,14.6c2.4,3.4,5,3.2,5,3.2
					c1.9,0,2.9-1,3.4-2.9l4.8-19.1C91.3,0.6,86.7,0.6,86.7,0.6z"/>
				<path id="_Path_5" class="st0" d="M33,0.6c-4.2,0-5,2.4-6.2,4.2L16.6,19.5c1,3.4,3.7,3.2,3.7,3.2c1.9,0,3.3-1,4.6-2.9L37.6,0.6
					H33z"/>
				<g id="_Group_3">
					<path id="_Compound_Path_" class="st0" d="M61,12.8c0.4-7,6.2-12.6,13.3-12.6c6.7,0,10.6,4.4,10.4,10.1
						c-0.4,7.1-6.2,12.6-13.3,12.7C64.7,22.9,60.8,18.5,61,12.8z M79.5,10.5c0.1-2.6-1.7-4.2-4.5-4.2c-3.4,0.1-6.3,2.7-6.5,6.2
						c-0.1,2.6,1.7,4.2,4.5,4.2C76.4,16.6,79.3,13.9,79.5,10.5z"/>
				</g>
			</g>
		</g>
	</g>
</g>
</svg>
