<?xml version="1.0" encoding="utf-8"?>
<!-- Generator: Adobe Illustrator 21.1.0, SVG Export Plug-In . SVG Version: 6.00 Build 0)  -->
<svg version="1.1" id="Layer_1" xmlns="http://www.w3.org/2000/svg" xmlns:xlink="http://www.w3.org/1999/xlink" x="0px" y="0px"
	 viewBox="0 0 1000 1000" style="enable-background:new 0 0 1000 1000;" xml:space="preserve">
<style type="text/css">
	.st0{fill:#FFFFFF;}
</style>
<g>
	<path class="st0" d="M462,209.6h-30.4v75.2h-156v24.8h156v152H430c-5.3-16-13.1-30.4-23.2-43.2c-10.1-12.8-22-23.5-35.6-32
		c-13.6-8.5-28.4-15.1-44.4-19.6c-16-4.5-32.3-6.8-48.8-6.8c-30.9,0-57.9,5.6-80.8,16.8c-22.9,11.2-42,26.4-57.2,45.6
		c-15.2,19.2-26.5,42-34,68.4c-7.5,26.4-11.2,54.8-11.2,85.2c0,28.3,3.5,55.3,10.4,81.2c6.9,25.9,17.6,48.7,32,68.4
		c14.4,19.7,32.8,35.5,55.2,47.2c22.4,11.7,49.1,17.6,80,17.6c36.8,0,68-8.1,93.6-24.4c25.6-16.3,46.9-40.7,64-73.2h1.6v88H462
		V309.6h65.6v-24.8H462V209.6z M421.6,645.2c-6.1,22.7-15.5,42.8-28,60.4c-12.5,17.6-28.3,31.7-47.2,42.4
		c-18.9,10.7-41.5,16-67.6,16c-26.7,0-49.6-5.2-68.8-15.6c-19.2-10.4-35.1-24.4-47.6-42c-12.5-17.6-21.9-37.7-28-60.4
		c-6.1-22.7-9.2-46-9.2-70c0-24.5,2.8-48.3,8.4-71.2c5.6-22.9,14.7-43.2,27.2-60.8c12.5-17.6,28.4-31.6,47.6-42
		c19.2-10.4,42.4-15.6,69.6-15.6c26.1,0,48.9,5.3,68.4,16c19.5,10.7,35.3,24.9,47.6,42.8c12.3,17.9,21.5,38.1,27.6,60.8
		c6.1,22.7,9.2,46,9.2,70C430.8,599.5,427.7,622.5,421.6,645.2z"/>
	<path class="st0" d="M892.8,492.4c-8.3-25.9-20.4-48.7-36.4-68.4c-16-19.7-35.7-35.3-59.2-46.8c-23.5-11.5-50.4-17.2-80.8-17.2
		c-30.4,0-57.3,5.7-80.8,17.2c-23.5,11.5-43.2,27.1-59.2,46.8c-16,19.7-28.1,42.5-36.4,68.4c-8.3,25.9-12.4,53.5-12.4,82.8
		c0,29.3,4.1,57.1,12.4,83.2c8.3,26.1,20.4,48.9,36.4,68.4c16,19.5,35.7,34.9,59.2,46.4c23.5,11.5,50.4,17.2,80.8,17.2
		c30.4,0,57.3-5.7,80.8-17.2c23.5-11.5,43.2-26.9,59.2-46.4c16-19.5,28.1-42.3,36.4-68.4c8.3-26.1,12.4-53.9,12.4-83.2
		C905.2,545.9,901.1,518.3,892.8,492.4z M829,689.7c-5.1,3.3-16.5,4.4-45.4,4.5c-28.5,0-43-1.3-50.6-4.5c-2.1-0.9-6.4-4-9.5-7
		c-6.6-6.3-7.2-6.3-13.9,0c-10.5,10-15.8,10.9-59.5,11c-30.7,0-35.7-0.2-40.7-1.8c-6.1-1.8-8.9-4.6-8.1-7.8
		c1.5-5.5,15.2-7.9,46.3-7.9c36.4-0.1,42.5-1.4,50.5-10.7c7.7-8.9,7.7-9,8.6-50.3c0.9-46.9,1.8-54.9,6.6-60.2c3.6-4,7.1-1.4,9.8,7.2
		c1.4,4.5,1.8,12.5,2.6,46c0.4,23,1.3,42.5,1.9,45.1c1.2,5.1,9.8,16.2,14.3,18.5c5.4,2.9,12.5,3.6,43.2,4.4
		c33.2,0.8,40.3,1.7,44.5,5.5C832.4,684.2,832.1,687.6,829,689.7z M605,639.9c1-5.2,8.9-12.1,22.6-20c22.3-12.7,23.5-14.7,24.4-38.6
		c0.7-17.6,1.7-23.7,4.3-27.7c1.3-2,2.3-2.4,5.2-2.2c5.2,0.4,7,4.8,8.3,19.1c2.6,31-4.5,49.3-24.5,62.9c-8.5,5.8-25.9,14-31.1,14.5
		c-3.9,0.5-4.8,0.2-7.1-2.1C604.9,643.6,604.5,642.5,605,639.9z M762.1,581.2c0-16.9,1.3-22.8,5.8-26.6c2-1.7,3.6-2.3,5.1-1.8
		c6.3,1.9,8.4,8.4,9.2,28.4c0.3,8.9,1.1,16.1,2,18.7c2.1,5.7,7.7,10.6,22.2,19.2c21.4,12.6,27.2,20.2,20.6,26.8
		c-2.3,2.3-3.1,2.5-7.7,2c-8.5-1-28.9-12.2-40.6-22.3c-5.9-5.1-11.7-14.3-14.4-22.9C762.5,596.9,762.1,593.3,762.1,581.2z
		 M835.1,562.7c0,25.1-0.6,28.6-5.8,32c-3.5,2.3-6.3,0.6-8.9-5.2c-1.7-3.8-2.1-7.7-2.7-23.2c-0.6-16.1-1-19.2-2.7-22.1
		c-2.6-4.5-6.5-6.7-14.4-7.9c-10.1-1.7-161.7-1.4-169.6,0.2c-12.6,2.7-13.9,5.1-14.8,27.2c-1,24.9-2.9,32.3-8.7,33.8
		c-3.3,0.9-7.4-3.8-8.8-10.1c-0.6-2.9-1.1-14-1.1-24.7c0-17.2,0.2-20.2,2.2-26c2.6-7.9,8.1-14.6,14.9-18.1c10-5,14.7-5.5,54.7-6.1
		l37.2-0.6v-11.7v-11.8l-43.2-0.5c-43-0.5-49.5-1-56.9-4.3c-8.1-3.5-6.3-10.1,3.4-12.8c9.3-2.6,13.7-2.9,55.7-3.5l41.4-0.6l0.7-3.3
		c0.4-1.8,1.5-4.2,2.4-5.2c1.3-1.5,3.1-2,6.5-2c5.5,0,7.8,1.9,8.6,7.2l0.6,3.5l42.6,0.7c44.6,0.7,55.1,1.7,60.2,5.5
		c3.7,2.7,3.4,6.9-0.7,9.7c-5.8,3.9-13.6,4.6-59,5.1l-43.3,0.6v11.7v11.7l37.8,0.7c40.1,0.8,46,1.4,55,6c6.2,3.2,10.5,7.8,13.9,15.1
		l2.8,6V562.7z"/>
	<path class="st0" d="M780.4,264c0,14.9-5.6,27.9-16.8,38.8c-11.2,10.9-24.5,18-40,21.2l-0.8,16h-24v-29.6
		c16.5-1.1,29.7-5.7,39.6-14c9.9-8.3,14.8-18.5,14.8-30.8c0-9.6-4.1-17.7-12.4-24.4c-8.3-6.7-20.4-10-36.4-10c-3.7,0-8,0.1-12.8,0.4
		c-4.8,0.3-11.5,0.9-15.2,2V212c4.3-1.1,9.1-1.7,14.4-2c5.3-0.3,9.9-0.4,13.6-0.4c25.6,0,44.7,5.2,57.2,15.6
		C774.1,235.6,780.4,248.5,780.4,264z"/>
</g>
<path class="st0" d="M0,0v1000h1000V0H0z M975,975H25V25h950V975z"/>
</svg>
