<svg xmlns="http://www.w3.org/2000/svg" viewBox="0 0 307.92 433.63"><defs><style>.cls-1{opacity:0.2;}.cls-2{fill:#fff;}</style></defs><title>background-lotus</title><g id="Layer_2" data-name="Layer 2"><g id="Layer_1-2" data-name="Layer 1"><g id="_Group_2" data-name=" Group 2" class="cls-1"><path id="_Compound_Path_" data-name=" Compound Path " class="cls-2" d="M271,324.12c-.17,0-23.11-.39-36.36-6.25-3.13-1.39-6.11-2.94-9-4.43-9.31-4.83-18.9-9.79-36-10.42,13.72-9.79,38.05-31,65.61-72a379.41,379.41,0,0,0,52.17-116.74l.45-3.37-2.61,2.39c-.15.2-14.65,18.81-36.32,28.46a254.23,254.23,0,0,1-32.1,11c-18,5.29-36.68,10.76-53.68,21.34a21.11,21.11,0,0,0-2,1.33A106.78,106.78,0,0,0,178,162.91a145.43,145.43,0,0,0,7.7-43.25c0-16.81-2.32-28.82-4.86-41.51-1.18-5.88-2.39-11.92-3.31-18.44a60.66,60.66,0,0,1,4.7-34.11L184,21.29l-5.52,2.22C178,23.68,136,42,105.22,67.63A138,138,0,0,0,94.33,77.68c-1.32-2.77-3.39-7.27-5.88-13.15a40.28,40.28,0,0,1-3.1-18.59l.4-3.15L81.83,45.1s-10.23,5.58-19,11.75c-5.47,3.92-10.44,7.66-13.4,9.95A243,243,0,0,0,28,40.9c-2.84-3.09-5.19-5.64-7.15-8.11A183.92,183.92,0,0,1,0,0V3.92C0,4.51,0,18.55,15.3,36.36l.59.69C30.27,53.91,54.36,82.1,69.45,136.62,79.52,173,75.52,208,73.52,220.51,61,210.71,46.1,204.84,34.46,200.64a93.94,93.94,0,0,1-13.26-5.87A48.46,48.46,0,0,1,0,170.59v4.57c0,1.21-.22,18.74,31.34,31.34,33,13.19,52.33,34.56,52.19,60.95-.23,42.84-43.86,62.16-50.38,64.8a57.35,57.35,0,0,0-12.72-1.49,65.79,65.79,0,0,0-14.75,1.31C2.15,333,.06,334.25,0,336c0,3.41,7.11,4.61,13,4.61,4.27,0,41.55.49,41.55,27.42,0,15.93-19.47,26-33.64,32.86-3.39,1.64-6.6,3.74-9.11,5.21C-1.1,413.57.06,433.63.06,433.63s0-13.14,16.77-22.59a94.41,94.41,0,0,1,15.1-6.64c12.07-4.13,24.69-8.89,30.48-20a60.2,60.2,0,0,0,21.69,3.92,62.55,62.55,0,0,0,22.47-4.25c4.9,2.58,15.28,5.46,29.39,5.44,32,0,68.39-15.67,97.2-42.08C248.76,333.33,271,324.12,271,324.12ZM65.31,375.06a46.36,46.36,0,0,0,.4-6.45c.09-18-9.8-26.17-19.26-31.34a74.76,74.76,0,0,0,36.89-27.43h27.42c30.31,0,51.45-16.93,59-24.08-4.55,6-13.71,20-22.55,44.67-8.5,23.74-46.6,47-63.88,47a89.45,89.45,0,0,1-9.54-.87c-3-.45-5.9-1-8.55-1.54Zm100.48-71.67-2,1.14a207.9,207.9,0,0,1,13-26.58s-26.39,22.27-63.61,23.31a178,178,0,0,0,21.43-22.57C140.7,271,146.38,257,152.26,242c7.42-18.5,15.1-37.62,24.8-48.63,12.59-14.32,32.75-22,63.29-33.61,5.78-2.22,11.76-4.49,18.16-7,23-9,35.54-19.84,42.18-27.7-7.84,18.83-24.64,56.91-45.57,88.75-18.9,28.76-49.34,67.43-86.94,88.15ZM156,119.25c9,29.11,13.06,46,14.4,60.33.11,1.39.27,2.67.47,3.78-15.46,14-20.65,29.92-25.67,45.36-1.27,3.91-2.58,7.93-4,11.75-8.76,23.29-24.69,43.59-35.68,52.74a52.06,52.06,0,0,0-8.38,8l-8.46-.14a72.9,72.9,0,0,0,7.58-32.71A58.54,58.54,0,0,0,85,232.09a233.74,233.74,0,0,0-4.09-96.76c4.21-4.43,13.71-12.09,26.15-21.22,14.67-10.73,38.2-27.09,45.31-32a99.83,99.83,0,0,0,3.55,37.15Zm2.58,201.21c.41-1.51.87-3.08,1.35-4.74a16.82,16.82,0,0,0,3.39.29,99.28,99.28,0,0,0,14.29-1.55,34.09,34.09,0,0,1,5.34-.39c11.91,0,28,4.72,42.2,8.9l6.27,1.84a74.94,74.94,0,0,0,20.69,2.76h2.68c-8.25,3.51-20.63,10.17-36.3,23.1-23,19-70.86,27.42-85.2,27.42A101.29,101.29,0,0,1,120.05,377c18.1-11.93,32-32.38,38.47-56.57ZM171,54.15a161.75,161.75,0,0,0,2,20.72,240.29,240.29,0,0,1,2.72,33.56,157.45,157.45,0,0,1-4.54,34.91c-1-2.72-2-5.44-3-8.13-2.74-7.36-5.33-14.32-7.11-19.73a125.21,125.21,0,0,1-5.6-38.78s-35,20.62-54.64,33.83A184.21,184.21,0,0,0,78.5,127.34c-.24-.79-.49-1.59-.75-2.37h0c2.94-9.23,11.56-28.14,36.72-53.45,24.86-25,61.2-44,64.64-45.76A52.28,52.28,0,0,0,171,54.13ZM83.32,66.08l5,18.16a96.65,96.65,0,0,0-16.06,25.47A205.52,205.52,0,0,0,53.93,73.64a113.9,113.9,0,0,1,10.91-11C71.6,56.81,79.65,50,82.28,47.8c-.84,3.13-1.57,9.13,1,18.26Z"/></g></g></g></svg>