<?xml version="1.0" encoding="UTF-8"?>
<!-- Generator: Adobe Illustrator 12.0.0, SVG Export Plug-In  -->
<!DOCTYPE svg PUBLIC "-//W3C//DTD SVG 1.1//EN" "http://www.w3.org/Graphics/SVG/1.1/DTD/svg11.dtd">
<svg version="1.1" xmlns="http://www.w3.org/2000/svg" xmlns:xlink="http://www.w3.org/1999/xlink" xmlns:a="http://ns.adobe.com/AdobeSVGViewerExtensions/3.0/" width="501" height="147" viewBox="-0.3779297 -0.0083008 501 147" enable-background="new -0.3779297 -0.0083008 501 147" xml:space="preserve">
<defs>
</defs>
<polygon opacity="0" fill-rule="evenodd" clip-rule="evenodd" fill="#120077" points="0,0 500,0 500,146.7387695 0,146.7387695 0,0   "/>
<path fill-rule="evenodd" clip-rule="evenodd" d="M40.5180664,63.5136719v5.8979492h-7.9624023v4.4238281h7.0771484v6.1923828  h-7.0771484v10.3203125h-6.7817383V63.5136719H40.5180664L40.5180664,63.5136719z M54.9672852,63.5136719h-9.7324219v26.8344727  h6.4882813V80.027832l6.1923828,10.3203125h8.2573242l-7.9614258-10.9091797  c1.769043-0.2949219,3.2431641-1.1816406,4.1279297-2.65625c0.8852539-1.4736328,1.4741211-2.9472656,1.4741211-5.012207  c0-2.6533203-0.8847656-4.7182617-2.6538086-6.1923828C59.6855469,64.1040039,57.6210938,63.5136719,54.9672852,63.5136719  L54.9672852,63.5136719z M52.6083984,68.8212891c2.949707,0,4.4238281,1.1791992,4.4238281,3.2451172  c0,2.3579102-1.4741211,3.5375977-4.4238281,3.5375977h-0.8852539v-6.7827148H52.6083984L52.6083984,68.8212891z   M75.609375,84.4516602h7.9609375v5.8964844H69.1210938V63.5136719h14.4492188v5.8979492H75.609375v4.4238281h7.3720703v6.1923828  H75.609375V84.4516602L75.609375,84.4516602z M98.0200195,63.5136719l5.0126953,14.449707l5.3085938-14.449707h6.4868164  l3.8334961,26.8344727h-6.4868164l-1.769043-15.3349609l-6.1933594,15.3349609h-2.6538086L95.956543,75.0131836h-0.2958984  l-2.0629883,15.3349609h-6.4887695l4.1293945-26.8344727H98.0200195L98.0200195,63.5136719z M130.7519531,63.5136719  l-10.0258789,26.8344727h7.0776367l1.7685547-4.71875h9.1420898l1.7685547,4.71875h6.7832031l-9.4370117-26.8344727H130.7519531  L130.7519531,63.5136719z M136.9443359,80.3227539h-5.6020508l2.6538086-8.5522461h0.2944336L136.9443359,80.3227539  L136.9443359,80.3227539z M174.9853516,63.5136719v26.8344727h-6.4882813l-12.090332-16.5126953v16.5126953H149.625V63.5136719  h6.7817383l12.090332,16.5141602V63.5136719H174.9853516L174.9853516,63.5136719z M196.2163086,63.5136719v5.8979492h-5.309082  v20.9365234h-6.78125V69.4116211h-5.309082v-5.8979492H196.2163086L196.2163086,63.5136719z M206.5361328,63.5136719v20.9379883  h7.9628906v5.8964844h-14.449707V63.5136719H206.5361328L206.5361328,63.5136719z M233.0761719,63.5136719v5.8979492h-7.6665039  v4.4238281h7.371582v6.1923828h-7.371582v4.4238281h7.6665039v5.8964844h-14.449707V63.5136719H233.0761719L233.0761719,63.5136719z   M238.0888672,90.3481445l5.0126953-28.3085938l9.4384766,22.4121094l9.1386719-22.4121094l5.3105469,28.3085938h-2.9482422  l-3.2460938-18.2817383l-8.2548828,19.4624023L244.28125,72.0664063l-3.2426758,18.2817383H238.0888672L238.0888672,90.3481445z   M283.5,66.1674805h-10.3203125v7.9628906h10.0263672v2.9492188h-10.0263672v10.6142578H283.5v2.6542969h-13.2685547V63.5136719  H283.5V66.1674805L283.5,66.1674805z M288.5126953,63.5136719v26.8344727h4.71875l5.3105469-0.5888672  c1.7666016-0.2949219,3.2421875-1.1816406,4.7148438-2.6542969c2.6542969-2.6533203,4.1298828-6.1933594,4.1298828-10.0253906  c0-4.4238281-1.4755859-7.6679688-4.1298828-10.3217773l-4.7148438-2.6538086l-5.3105469-0.590332H288.5126953  L288.5126953,63.5136719z M293.2314453,66.1674805c3.2451172,0,5.8994141,0.8847656,7.9638672,2.6538086  c2.0615234,2.0644531,3.2431641,5.0141602,3.2431641,8.2583008c0,3.2431641-1.1816406,5.8964844-3.2431641,7.9609375  c-1.7705078,1.7705078-4.4238281,2.6533203-7.9638672,2.6533203h-2.0644531V66.1674805H293.2314453L293.2314453,66.1674805z   M313.875,63.5136719v26.8344727h-2.6542969V63.5136719H313.875L313.875,63.5136719z M334.2207031,82.9760742l2.9482422,7.3720703  h3.2451172l-11.5009766-28.3085938l-11.5009766,28.3085938h2.9482422l2.9511719-7.3720703H334.2207031L334.2207031,82.9760742z   M333.0419922,80.027832h-8.5527344l4.4238281-10.9106445L333.0419922,80.027832L333.0419922,80.027832z"/>
<g>
	<g>
		<path fill-rule="evenodd" clip-rule="evenodd" fill="#160966" d="M427.7001953,19.2817383l0.2939453,0.2944336    l-0.2939453,0.2958984l-0.2978516,0.8837891l-0.8837891,1.1796875l-0.2939453,0.5893555h-0.2949219v0.8862305l0.8837891,1.4726563    l0.8867188,0.8852539l0.5888672,0.2958984l0.2949219,0.2944336h0.8857422c0.5888672,0.2944336,1.1787109,0.2944336,1.4726563,0    l1.1787109-0.590332h0.5917969h0.2939453l0.8837891-0.2949219c0.5898438,0,1.1816406-0.2944336,1.4755859-0.590332    l0.5888672-0.2944336V24h0.5898438L436.25,23.4111328h0.2949219l0.5888672-0.8862305v-0.2949219l0.296875-0.8847656v-0.8837891    c0-1.4741211-0.5917969-2.359375-1.7695313-2.949707h-1.1806641h-0.2949219l-0.2949219-0.2944336h-1.7695313l-0.8837891,0.2944336    h-0.8837891l-0.2949219,0.2944336l-2.0644531,1.1811523L427.7001953,19.2817383L427.7001953,19.2817383z"/>
		<path fill-rule="evenodd" clip-rule="evenodd" fill="#160966" d="M466.0322266,54.0771484h0.2949219v0.2958984    c0,0.5893555,0.296875,0.8852539,0.5917969,1.1796875c0.5888672,0.2944336,1.4726563,0.5888672,2.359375,0.2944336l0,0    c0.5888672-0.2944336,0.8837891-0.8847656,0.8837891-1.1796875v-0.590332v-0.2944336l-1.1816406-0.8837891l-0.5888672-0.590332    h-0.8837891l-0.2939453-0.2944336l-0.2949219,0.5888672l-0.2949219,0.2958984l-0.5917969,0.8837891V54.0771484    L466.0322266,54.0771484z"/>
		<path fill-rule="evenodd" clip-rule="evenodd" fill="#160966" d="M472.5205078,77.9633789l-0.2939453,0.2939453h-0.2949219    l-0.5888672,0.2949219c-0.5917969,0-0.8867188,0.2949219-0.8867188,1.1806641v1.1787109l0.2949219,0.2939453h0.296875v0.2949219    l0.2949219,0.296875l0.8837891,0.2949219h0.2939453l2.0654297-0.2949219h0.2939453    c0.5888672-0.5917969,0.8837891-1.4746094,0.8837891-2.3583984V79.144043H475.46875v-0.5917969l-1.7666016-0.5888672h-0.5917969    l-0.5898438-0.2949219V77.9633789L472.5205078,77.9633789z"/>
		<path fill-rule="evenodd" clip-rule="evenodd" fill="#160966" d="M438.3144531,111.5805664l-0.5888672-0.5898438h-0.2949219    l0.2949219-0.5917969v-0.2939453l-0.2949219-0.2949219h-0.296875v-0.2939453L436.25,108.9262695l-1.7695313-0.2939453h-1.7675781    v0.2939453h-1.1806641c-0.5898438-0.2939453-1.1787109,0-1.7705078,0.8837891    c-0.2919922,0.2949219-0.5888672,0.5888672-0.8837891,0.2949219h-0.2939453h-0.8837891l-0.8867188-0.2949219v0.2949219    l-0.8837891,0.8857422l-0.2939453,0.5898438l-0.5898438,0.2939453c0.2949219,0.2949219,0.5898438,0.2949219,0.5898438,0.2949219    v0.2949219v0.2939453l-0.5898438,0.2978516v0.2910156v0.2978516c0,0.2939453,0.2949219,0.5888672,0.5898438,0.8837891h0.2939453    v-0.2949219l0.2949219,0.2949219v1.1806641h1.1777344v0.2949219l-0.2939453,1.1777344l1.1806641,0.2949219l0.2949219,0.2939453    h0.5888672l0.8857422,0.2978516l1.7675781,0.2939453h0.2949219l0.8857422-0.8857422l2.0654297-1.4726563l0.5888672-0.2949219    h0.2939453v-0.2949219l0.8837891-0.296875l1.1816406-0.2949219l0.5888672-0.2939453h0.2939453v-0.2949219l0.8867188,0.2949219    h0.8837891l0.2949219-1.1816406v-0.2910156l-1.1787109-0.8867188h-0.5888672l-0.2978516,0.5888672l-0.5888672,0.2978516    l-0.2939453-0.2978516h0.2939453V111.5805664L438.3144531,111.5805664z"/>
		<path fill-rule="evenodd" clip-rule="evenodd" fill="#160966" d="M392.9023438,24.8837891    c1.1806641,2.0644531,2.3583984,2.949707,3.8339844,3.2441406l2.9482422,0.2944336h0.5888672v0.2949219h2.0654297    l2.3583984,0.2958984h0.8867188l1.1777344,0.2944336v0.5888672l0.2949219-0.2944336l0.2949219,0.2944336l1.1806641,0.5908203    l0.2949219,0.2944336h0.8828125l0.2949219,0.2944336h0.296875l2.0625,0.2958984l0.296875,0.2944336h0.2949219l0.5888672,0.2949219    l1.1787109,0.2944336l0.5917969,0.8862305c-0.2978516,0.293457-0.5917969,0.5893555-1.1816406,0.5893555l-2.9482422-0.5893555    l-1.4755859-0.2973633l-1.7695313-0.2929688l-0.8837891-0.2958984h-1.1777344l-1.1816406-0.2944336h-2.0644531v-0.2949219    h-4.1259766l-0.8867188,0.2949219h-0.2949219l-1.7695313,0.590332l-1.1787109,0.2929688l-0.5917969,0.5908203L392.3125,34.6147461    l-2.6533203,2.6552734v0.2944336l-0.2949219,0.2944336l-1.1806641,2.0634766l-0.5888672,1.1806641l-1.4726563,1.4741211    l-0.8867188,0.5893555l-0.5888672,0.590332l-1.1816406,0.5893555l-0.2939453,0.590332h-0.2949219l-3.8320313,4.7167969    l-0.8857422,0.8852539l-1.1787109,0.8847656l-1.7695313,1.1796875h-1.7705078l-0.5888672-0.2944336l-1.7675781-0.2944336    l-0.5917969-0.2949219h-0.8837891l-0.5917969-0.2958984l-1.1777344-0.2944336l-0.8837891-0.2944336h-0.5917969    l-1.7675781-0.2958984l-0.5888672-0.2949219h-1.4755859l-1.1787109-0.2944336h-2.0664063l-0.2949219-0.2958984h-2.6533203    l-0.2949219-0.2929688h-0.8837891l-2.0644531-0.2958984h-4.4238281l-1.4726563,0.2958984l-2.6533203,0.5888672h-0.2978516    v0.2944336h-0.2939453l-0.8837891,0.2949219c-1.4755859,0.8847656-2.0654297,2.0644531-2.0654297,3.2441406l0,0v0.2944336    l0.2949219,0.2958984v0.2944336l1.4755859,1.4741211l1.1787109,0.8852539l1.1806641,2.3588867l1.1777344,2.0649414    l0.8867188,1.4726563v0.2958984h0.2949219c0.5888672,0.2944336,1.1777344,0.8847656,2.0615234,1.7700195l1.4755859,1.4726563    v0.2958984l0.5888672,0.2944336l1.4755859,1.1796875l0.2949219,0.8852539l0.5888672,0.2944336v0.5888672h0.296875    l0.5888672,0.2958984c0.2949219,0.5893555,0.5898438,0.8852539,0.8837891,0.8852539l0.5898438,0.5888672l0.8857422,0.5893555    v0.2958984h0.2949219l1.1777344,0.8837891v0.5908203l-0.2939453,1.7685547v0.5917969    c-0.2949219,0.5888672-0.5898438,1.4726563-0.5898438,2.3564453l0,0l-0.8828125,1.4755859v0.8828125l-0.2978516,0.5917969    l-0.2939453,0.8837891v0.2949219l-0.2949219,0.8837891l0.2949219,1.1806641v0.2949219h0.2939453h-0.2939453v2.3583984    l0.2939453,2.359375v0.2949219l-0.2939453,0.2939453h0.2939453l0.2978516,0.5898438l0.2939453,0.8857422v0.8837891    l0.2949219,0.5888672l1.1777344,2.6572266l0.8867188,1.1777344l0.8837891,0.8837891v0.296875l0.5888672,0.2949219    l1.1806641,1.7675781v0.8857422l-0.2939453,0.8837891v0.2949219l0.8837891,0.5917969l0.5888672,0.2919922l1.1806641,0.296875    h0.2949219l1.1777344,0.5888672l0.8867188,1.1787109l0.5888672,0.8867188l1.4726563,1.4726563v0.296875h0.2978516    l0.2939453,0.2949219l0.5898438,0.8837891h0.2939453l1.1806641,0.8828125h0.2949219v0.2949219l1.1787109,0.5917969h0.2939453    l2.9511719,0.5888672l0.2949219,0.2949219l1.7666016-0.2949219l0.8867188,0.2949219v0.2949219h1.1777344l1.1816406-0.2949219    h1.7666016l2.0654297-0.2949219l1.7695313-0.5888672h0.5888672l0.2949219,1.1787109l0.5917969,1.4746094l0.5888672,0.8837891    l0.8837891,2.0644531l4.1289063,5.0136719l0.2949219,0.5888672l0.2949219-0.2949219v0.2949219l0.2939453,0.296875v0.2919922    l1.4755859,0.8867188l0.5888672,0.5888672l1.4755859,0.2949219l1.1787109,0.8857422l0.2939453,0.2949219h0.8867188    l0.5888672,0.2939453v0.2949219l2.0644531,0.2949219l1.4736328,0.2939453l0.296875,0.2949219l0.2949219-0.2949219h0.5888672    l0.2939453,0.2949219l1.1787109-0.2949219c0.8867188,0,1.7695313-0.2939453,2.0644531-0.5888672    c0.5888672-0.2949219,0.8867188-0.8837891,1.1806641-1.4726563c0.5898438-0.8867188,0.8837891-2.0673828,0.8837891-3.2451172    v-0.5898438v-1.4755859l-0.5888672-1.4726563l-0.5888672-0.2939453c-0.8867188,0-1.4755859,0.5888672-2.0644531,1.7666016    l-0.2949219,0.5898438v0.5917969l-0.5917969,1.4726563l-0.5888672,1.1806641l-1.1787109,0.5888672h-0.2939453    l-0.2949219,0.2949219h-1.1806641l-1.7705078-0.8837891h-0.5888672l-1.1806641-0.5917969l-0.8837891-0.5888672    c-0.2949219-0.2949219-1.1787109-0.5888672-2.0644531-1.4726563l-1.1787109-0.5917969l-1.1806641-1.4726563    c-1.4726563-2.0654297-2.6533203-3.5380859-2.9482422-4.4238281l-0.2949219-0.5898438l-0.2939453-0.2939453l-0.5898438-1.4755859    c-0.296875-0.8837891-0.5888672-1.7705078-0.5888672-2.0644531l1.7675781-2.9482422v-0.2949219l0.2949219-0.5888672    l0.2939453-1.1806641v-0.5898438l-0.2939453-0.8857422l-0.2949219-0.2919922v-0.296875l-0.2949219-0.2949219l-0.5888672,0.2949219    l-1.4755859,0.5888672l-0.5888672,0.296875l-0.2949219-1.1806641l-0.2939453-1.7675781v-0.296875l-0.2949219-0.5888672    l0.2949219-0.2949219l-0.5898438-1.4755859h0.2949219l-0.2949219-0.5888672l0.2949219-0.2949219l-0.2949219-0.2949219    l-0.296875-2.9482422l-0.2949219-2.0644531l0.2949219-0.5888672l-0.5888672-2.9511719v-0.5888672l0.2939453-0.2949219h-0.2939453    c-0.2949219-0.2939453-0.2949219-1.1777344-0.2949219-2.3583984l0,0h0.2949219l0.2939453,0.2939453h0.2949219l1.4755859,0.2949219    l1.4726563,0.5917969l2.3613281,0.2949219l1.4736328,0.2939453l0.2939453,0.2949219h1.4755859l1.7705078,0.2939453h0.8837891    l4.4228516,0.5898438h0.8837891l0.5898438,0.2939453l0.296875-0.2939453h1.1777344l0.8837891,0.2939453h1.4755859    l1.1806641,0.2978516h1.4736328v0.2939453L413.25,88.8754883c0.2949219,0.2939453,0.8837891,0.5888672,1.1787109,0.2939453    h0.2949219l0.2939453,0.2949219h4.4238281v0.2949219h1.7705078l0.2939453,0.5888672l0.2949219-0.2949219l0.8837891-0.2939453    h0.5917969l1.1777344,0.2939453h2.0644531l0.5898438,0.2949219l-0.5898438,1.1806641l-0.5888672,0.8837891l-0.2939453,0.2949219    l-0.5898438,0.8828125h-0.5917969v0.2978516l-0.8837891,1.7675781l-2.6533203,2.6533203l-0.2949219,0.5917969    l-0.5917969,0.5888672l-0.5888672,0.8837891l-1.4726563,0.8867188l-0.5917969,0.2939453v0.2949219h-0.2949219    l-1.7666016,1.7675781l-0.5917969,0.296875l-1.1787109,0.8837891h-0.5888672l-2.0644531,1.4755859l0,0l-1.1816406,0.8837891    l-0.2939453,0.2939453h-0.5888672v0.2949219l-2.0654297,0.8867188l-1.4746094,0.5888672l-0.5898438,0.2949219    l-4.1259766,1.1777344h-0.2978516l-2.0615234,0.296875l-0.5917969-0.296875v1.1806641h0.5917969l0.2949219,0.2949219    l5.6015625-0.5888672l1.7705078-0.2949219l2.3583984-0.8867188l1.4726563-0.5888672l2.9511719-2.0644531h0.2949219    l1.4726563-1.1777344l1.4755859-0.8867188l0.8837891-0.5888672c1.1806641-0.2949219,2.0644531-0.8837891,2.6533203-1.7675781    v-0.296875l4.4238281-4.1269531l1.7705078-1.7705078l0.8828125-1.1806641l3.5400391-5.0126953l0.5898438-0.5888672h6.1904297    l1.1816406-0.2949219h5.8964844l0.2939453-0.2939453h0.8867188l2.0644531-0.2949219l0.5888672-0.2949219l0.2949219,0.2949219    l0.2949219-0.2949219l2.0644531-0.5917969l1.4755859-0.2939453h0.2910156l2.0673828-1.1787109l2.9482422-1.7695313    l0.2949219-0.2949219c1.1787109-1.1806641,1.7675781-2.359375,2.0644531-3.2431641l0.5888672-0.5917969v-0.2939453    l0.2949219-2.0644531l-0.5888672-2.0644531l-0.2949219-0.8837891l-0.8857422-1.7685547l-2.0625-2.0639648l-0.8867188-0.590332    l-0.5888672-0.590332l-2.9511719-2.0644531l-0.5888672-0.293457l-0.8837891-0.2958984l-1.1806641-0.8847656h-0.2919922    l-0.8857422-0.2949219l-0.2949219-0.2944336l-0.8837891-0.590332h-0.2949219l-0.8857422-0.2944336l-1.4726563-0.8837891    l-0.5917969-0.590332v-2.359375l0.2939453-2.0644531h0.2978516l0.8837891-2.6538086l0.8828125-1.4741211l1.7705078-2.359375    c1.1806641-1.4736328,2.0644531-3.2441406,2.6533203-5.0126953l0.2949219-0.2944336l-0.2949219-0.2958984l0.2949219-1.4741211    v-0.8852539l0.2949219-1.7685547l1.1806641-1.7700195h-0.2978516l0.2978516-0.2944336v-0.5893555    c0-1.4741211-0.5888672-2.6533203-1.7705078-3.2441406L448.9296875,35.5l-0.8837891-0.8852539l-1.1787109-0.5888672    c-0.5917969-0.8837891-1.1806641-1.1811523-2.0644531-0.8837891l-2.3583984-0.2973633h-2.0654297l-2.6533203-0.8833008    h-11.2070313l-3.5371094,0.8833008l-0.5888672,0.2973633l-2.0644531-1.4755859l-1.1806641-0.8847656l-0.2949219-0.2944336    c-0.2949219,0-0.8837891-0.2949219-1.7705078-0.5908203v-0.2944336l-4.1259766-1.4741211l-1.1806641-0.5893555    c0,0,0,0-0.2949219-0.2958984h-0.2949219l-2.0644531-0.5888672l-0.2939453-0.2944336v0.2944336    c-0.2949219,0-0.8867188-0.2944336-1.7705078-0.8847656l0,0v-0.2949219l-1.7695313-0.590332L402.9306641,24v-0.2958984h-0.2978516    l-0.8837891-0.2929688l-1.1777344-0.5908203h-0.5917969v-0.2954102h-0.2949219l-1.1777344-0.5893555    c-2.6542969-0.2944336-4.4238281,0-5.3105469,0.8847656L392.9023438,24v0.2944336v0.2949219V24.8837891L392.9023438,24.8837891z     M401.4550781,33.7314453h1.1777344h2.9511719l0.5888672,0.2944336h0.2949219v0.2944336l0.5888672-0.2944336h0.2949219    l-0.5898438,0.5888672h-0.2939453L404.1083984,35.5l-1.7695313,0.2944336l-0.5898438,0.2958984l-1.1777344,0.2944336    l-0.5917969,0.2949219l-1.4726563,0.590332l-0.8867188,0.5888672l-0.8837891,0.2949219l-1.1806641,0.2958984l-0.5888672,0.5888672    h-0.2949219l-1.7695313,0.8837891l1.1806641-1.7685547l1.1777344-1.4741211l1.4755859-1.4741211V35.5l0.8837891-0.5893555    l0.2949219-0.2958984h0.296875v-0.2944336l0.5888672-0.2944336l1.7705078-0.2944336H401.4550781L401.4550781,33.7314453z     M393.7851563,45.230957l1.4755859-0.8847656l0.5917969-0.2949219h0.8837891l1.1787109-0.590332h0.296875l1.1787109-0.5888672    h0.2939453l0.8867188-0.2949219h0.2919922l2.3613281-0.590332v-0.2944336h0.2949219l0.8837891-0.2944336l1.1806641-0.2949219    h2.3564453l0.8867188-0.2944336h0.5888672l0.2939453,0.2944336l0.2949219-0.2944336h5.0126953v-0.2958984h0.5917969v0.2958984    h0.2949219c1.4726563,1.1782227,2.9482422,1.4741211,4.7177734,1.1782227v-0.2944336h0.2949219l1.7675781-0.2944336    l1.4755859,0.8847656l0.8857422,0.8837891c1.4726563,1.4755859,2.3564453,2.9482422,2.6542969,3.8330078v0.2958984    l0.5888672,3.2431641c0,1.7700195-0.5888672,3.8344727-1.4755859,5.8989258l-0.2949219,0.5893555l-0.8828125,0.8847656h-1.4755859    l-1.4755859-0.2958984l-2.3564453-0.5888672l-2.65625-0.5893555l-3.5380859-0.590332h-1.4726563l-2.359375-0.5888672h-2.0644531    l-3.8339844-0.5908203h-1.1787109l-2.6533203-0.2944336h-0.8867188l-0.8837891-0.2958984h-1.4755859l-1.4726563,0.2958984    h-0.5917969l-1.7675781-0.2958984l-4.4228516-0.2944336l-0.2949219-0.590332l0.5888672-2.0634766l-0.2939453-0.2944336v-0.2958984    l0.5888672-1.1782227l0.2949219-1.1796875l0.2939453-0.2958984h-0.2939453V47.590332l0.2939453-0.2949219v-0.8847656    l1.4755859-0.5893555h0.8837891L393.7851563,45.230957L393.7851563,45.230957z M384.9404297,51.1289063l0.2949219,0.2944336    c-0.2949219,0.8852539-1.1787109,1.769043-2.0644531,2.359375h-2.0644531l-1.7675781-0.590332l1.7675781-1.4731445    l1.4755859-0.590332C383.4648438,50.5385742,384.0566406,50.5385742,384.9404297,51.1289063L384.9404297,51.1289063z     M379.9277344,57.0268555l1.7705078,0.2944336l1.1777344,0.590332l-0.5888672,3.5390625l-0.2949219,1.1791992v1.4741211    l-0.2939453,0.8852539l0.2939453,1.1782227v1.1796875l-0.2939453,2.6533203v0.8852539l0.2939453,1.1806641l-0.2939453,2.0639648    l0.2939453,0.8828125l-0.2939453,0.5908203l-0.2949219,1.4755859l0.2949219,0.2949219l-0.2949219,0.5888672    c0,0.8837891-0.296875,1.4755859-0.5888672,1.4755859l-1.4755859-0.2949219l-1.4755859-0.5917969l-1.1777344-0.5888672V77.668457    h-0.2949219l-1.4755859-0.2939453l-0.2949219-0.2949219l-1.4746094-0.5888672l-0.8837891-0.8867188V75.309082l0.2939453-0.8847656    v-0.2939453l-2.0644531-0.8857422l-1.1777344-0.2944336h-1.7705078l-0.2939453-0.2944336l0.2939453-0.8852539l0.8837891-0.8847656    l1.7705078-3.5385742l0.2939453-0.2949219v-0.2944336l0.5917969-0.8847656L371.375,65.2822266v-0.2929688l0.8867188-0.8852539    l0.5888672-1.1806641l2.359375-3.8320313l0.2939453-0.2958984v-0.2944336h0.2949219l1.7695313-0.8852539l1.4755859-0.8847656    L379.9277344,57.0268555L379.9277344,57.0268555z M397.9150391,58.5009766L397.9150391,58.5009766l0.296875,0.2944336h1.4726563    l0.5888672-0.5888672l0.5898438-0.2949219l2.3613281,0.2949219l0.5888672,0.2944336l1.7705078,0.590332l0.5888672-0.2958984    l1.1787109-0.2944336h0.5888672l0.8867188,0.2944336v0.2958984l3.5371094,1.4741211v-0.2958984h1.7695313l1.4755859,0.2958984    l0.5888672,0.2944336l0.2949219,0.2949219l1.4755859,0.5888672c0.5888672,0.590332,1.4726563,0.8862305,2.9482422,0.590332l0,0    l0.5888672-0.2944336h0.2949219h0.2949219l0.8857422,0.8837891c1.4726563,1.4755859,2.6542969,2.065918,3.8320313,1.7700195    c0.5888672,0,1.1806641,0.2958984,1.4755859,0.5888672l0.2949219,0.2958984l0.2939453-0.2958984v0.2958984l0.8837891,0.2949219    h1.1806641l0.5898438,0.2944336l0.8857422,0.590332l0.2949219,0.2944336l0.8837891,0.5908203l1.1806641,1.4741211v2.0644531    l-0.296875,2.6538086v0.5888672l-0.2949219,1.1796875l-0.2949219,1.4755859l-0.5888672,0.8837891l-0.2949219,1.1806641    l-0.8857422,2.0615234v0.2949219l-0.2949219,0.5917969l-0.2939453,0.8837891l-2.0625,4.1289063l-0.5917969,0.5888672    l-0.5888672,0.2949219h-2.6533203l-4.4238281-0.2949219l-2.0644531-0.2939453l-3.8320313-0.2949219l-3.2460938-0.5888672    h-2.9482422l-0.2939453-0.2949219v0.2949219l-0.8867188-0.2949219h-2.6533203l-1.4736328-0.296875l-0.2939453-0.2949219    h-2.0644531l-0.8837891-0.2939453h-1.7705078l-1.1806641-0.2949219l-0.5888672-0.5888672h-1.1787109l-0.296875-0.2949219    h-1.1787109l-1.4746094-0.5888672l-1.1787109-0.296875v-0.2949219l-0.2949219,0.2949219l-0.5888672-0.2949219    l-1.4755859-0.2949219l-1.7695313-0.8837891l-0.2949219-0.5917969v-0.5888672l-0.2949219-0.2939453V80.027832    l-0.2939453-0.5888672v-4.4257813l0.2939453-5.3056641v-0.8862305l0.2949219-2.0634766l-0.2949219-0.590332l0.2949219-2.9482422    l0.2949219-2.359375c0.2939453-1.4741211,0.5888672-2.6533203,0.8857422-3.2441406h1.1787109h5.0126953L397.9150391,58.5009766    L397.9150391,58.5009766z M349.2587891,50.8344727l2.0644531-0.2958984l2.9511719,0.590332h3.8320313l0.2949219,0.2944336    l0.2939453-0.2944336l-0.2939453,0.2944336h2.3583984l0.8837891,0.2958984h1.4755859l0.5888672,0.2949219h1.1816406    l1.1777344,0.2944336l1.4755859,0.590332h1.7705078v0.293457h-0.2978516l-1.4726563,0.2954102l-2.0644531,0.5893555    l-4.4238281,1.4755859l-0.2949219,0.2944336h-0.5888672l-0.2939453,0.2944336L358.9902344,56.4375v0.293457l-0.5888672,0.2958984    l-1.1787109,1.1796875l-0.2939453,0.5888672l-1.1816406,1.1796875h-0.2939453v0.2944336l-0.5898438,0.8852539    l-0.8857422,1.7685547l-0.2949219,0.2958984l-1.4755859-1.4755859l-1.4726563-1.1782227l-2.9482422-2.6538086    l-2.9482422-2.3588867l-0.5917969-0.2944336l-0.5888672-1.1811523v-0.2944336l2.0644531-2.0634766h0.2949219l1.7695313-0.590332    h0.2949219l0.8837891-0.2944336H349.2587891L349.2587891,50.8344727z M369.6074219,57.0268555v0.2944336l-0.5917969,1.7700195    l-0.2939453,0.5893555l-1.1787109,1.1791992l-0.5888672,1.1796875l-0.5917969,0.590332v0.293457l-0.8837891,1.1806641    l-1.1806641,1.1782227v0.2958984l-0.5898438,0.8837891L362.5302734,67.9375    c-0.2949219,0.8837891-0.8867188,1.1796875-1.1787109,1.1796875l-1.1806641-0.5893555v-0.2958984L359.8769531,67.9375    l-1.7705078-1.1796875l-0.2949219-0.590332l-0.5888672-0.2944336V65.578125l0.5888672-0.8847656l0.2949219-0.8852539    l0.8837891-1.1782227l2.3613281-2.3603516c0.5898438-0.8837891,1.1787109-1.1782227,1.4736328-1.1782227h0.2939453    l2.0644531-0.8847656l0.8837891-0.2949219h0.5917969c0.8837891,0,1.7675781-0.2958984,2.3564453-0.8847656H369.6074219    L369.6074219,57.0268555z M364.0058594,77.668457l0.2919922-0.2939453l0.296875-0.2949219l0.5888672,0.2949219    l1.1787109,0.2939453l0.8867188,0.2949219l0.8828125,0.5888672l1.4755859,0.8867188h0.5898438    c0.5888672,0,0.8857422,0.2939453,1.1777344,0.5888672l0.296875,0.2949219h0.2949219l0.5888672,0.2939453    c0.5898438,0.2949219,1.1787109,0.5888672,1.4755859,0.5888672l1.7675781,0.8867188h0.8867188l0.5888672,0.5888672h0.2939453    l2.9482422,0.5898438l0.8867188,0.296875l0.8837891,0.5888672v1.1787109l0.2949219,3.5400391v0.8837891l0.2939453,1.7695313    l-0.2939453,0.5888672l0.5888672,0.5898438v0.5888672h-0.2949219v0.2939453l0.5888672,1.7705078l0.2978516,1.1777344v0.8867188    l0.2939453,0.2949219l0.2949219,1.1806641l-0.2949219,0.2949219l0.2949219,0.2939453l0.5888672,2.9482422v0.2949219h0.2949219    v1.1806641l0.8867188,1.7675781v0.5917969l0.2939453,1.1777344l0.2949219,0.2949219v0.2949219h-0.2949219l-0.8857422,0.296875    l-5.0136719,1.1787109h-1.1777344l-1.1806641-0.2949219l-1.4726563-0.2949219l-0.2949219-0.2939453l-1.7705078-0.2949219    l-1.1806641-0.5917969l-1.4726563-1.7675781l-0.8837891-1.1806641l-0.8857422-0.8837891v-0.296875l-0.5898438-0.8837891    v-0.5888672h-0.5917969l-0.5888672-0.2949219l-0.2949219-0.2949219l-0.5888672-1.1806641l-1.4755859-1.4726563    c-1.1777344-0.8867188-1.7695313-1.7705078-2.0615234-2.6533203l0,0l-0.8867188-1.1816406l-0.5888672-0.8837891    l-0.2949219-0.5917969v-0.2939453l-0.5917969-2.0644531v-0.2949219l-0.2919922-0.2949219v-3.5371094l0.2919922-2.359375    l0.5917969-2.9482422v-0.296875l1.1787109-3.2431641L364.0058594,77.668457L364.0058594,77.668457z M441.8525391,41.1030273    l0.5917969,1.1796875v0.2944336v1.1796875l-0.2949219,0.2944336l0.2949219,0.2949219v0.2958984l-0.2949219,0.2944336    l0.5888672,0.8847656v0.8837891l0.2949219,0.2944336v1.1811523l-0.2949219,1.7685547l-1.4755859,0.5893555    c-0.8837891-1.1782227-2.0615234-1.4741211-3.2421875-1.1782227l0,0l-1.4755859,0.8833008l-0.8837891,0.5908203    l-1.4755859-0.8852539l-0.2949219-0.2958984l-0.8837891-3.5385742h-0.2939453l-0.2949219-0.293457    c-0.5917969-0.590332-0.8857422-0.8847656-0.8857422-1.1791992l0.2939453-0.5908203v-0.2944336h-0.2939453v-1.7700195    l-0.2949219-0.8837891v-0.590332c0.2949219-0.8837891,1.1806641-1.1796875,3.2431641-1.1796875h0.5917969l0.5888672,0.2958984    h0.2939453l3.8349609,0.5893555l1.4726563,0.2944336L441.8525391,41.1030273L441.8525391,41.1030273z M433.890625,84.7456055    l2.0644531-5.6015625l0.5898438-1.7695313l0.2939453-1.1816406l0.2949219-0.5888672l0.296875-1.4736328l0.2949219-0.5908203    v-1.1796875l0.2949219-0.8837891v-0.590332l0.2939453-0.2944336h-0.2939453l1.1806641-0.2949219h2.9482422l2.0615234,0.2949219    h0.8867188l0.2949219,0.2944336l2.6533203,0.8847656l1.1806641,0.2958984l1.4726563,0.8837891l1.1816406,0.5893555h0.2910156    l0.8867188,0.5908203l0.8837891,0.8828125l0.296875,0.5908203v0.2949219h0.2949219l0.8837891,1.7695313v0.5888672    l-0.5888672,2.9482422h-0.2949219l-0.2949219,0.8867188l-0.296875,0.2949219l-0.2949219,0.5888672h-0.2939453    l-0.2949219,0.5917969v0.2919922l-0.2949219-0.2919922l-2.0644531,1.7675781h-0.2939453l-0.8867188,0.5888672    l-1.7675781,0.5917969h-0.2939453l-2.359375,0.5888672l-1.7705078,0.2949219l-1.4746094,0.2939453h-3.5380859    l-4.4238281,0.5898438l-1.1777344-0.2949219h-0.5917969l0.5917969-0.8837891l0.8837891-1.4755859L433.890625,84.7456055    L433.890625,84.7456055z"/>
	</g>
</g>
</svg>