<svg xmlns="http://www.w3.org/2000/svg" viewBox="0 0 178.81 54.75"><defs><style>.cls-1{fill:#00a651;}.cls-1,.cls-2,.cls-3{fill-rule:evenodd;}.cls-2{fill:#ffcb05;}.cls-3{fill:#fff;}</style></defs><title>hattrick</title><g id="Layer_2" data-name="Layer 2"><g id="Layer_1-2" data-name="Layer 1"><polygon class="cls-1" points="0 0 178.81 0 178.81 54.75 0 54.75 0 0 0 0"/><path class="cls-2" d="M122.94,7.54l.27,2.31.27,2.31h4.85l-2.26,1.43L123.81,15l.27,2.31.27,2.31-1.66-1.43L121,16.78l-2.26,1.42-2.26,1.43,1.23-2.31L119,15l-1.67-1.42-1.66-1.43h4.85l1.23-2.31c.41-.76.82-1.54,1.23-2.31Z"/><path class="cls-3" d="M21.16,25h6l-3,14.57C23,44.8,24.83,47.32,29,47.21l4.41-21.6c.53-4.17-1.36-5.22-4.83-5H22.05l1.81-8.94H17.59l-7,34.57h6.26L21.16,25ZM145.59,46.21h-.07l0,.12h-6.16l0-.12h0l7-34.57h6.27l-.06.28h0l-3.26,17h4.92l.76-3.78A4.29,4.29,0,0,1,159.18,21l9-.13L167.43,25l-6.15-.06-.75,4c3.17.19,5.56,2.64,5,5.34l-2.65,12.8c-2.26-.34-5.83-2.6-5.09-6.17l1.48-7.27H148.13l-2.54,12.57ZM38.63,25.1l1-4.25,15.12,0c2.58.22,3.2,2,2.62,5.91L53.31,46.45,38.12,46.2c-2.93-.42-3.9-2.35-3-6.15l1.47-7.29c.8-2.38,2.88-3.72,6.69-3.76l7.29-.13c.29-1.25.58-2.51.88-3.77Zm9.29,16.83H42.27L44,33.27h5.65l-1.76,8.66Zm47.43,4.4h6.31L106,25.1h6.52l.86-4.14h-8.79q-3.83.38-5.15,5.27l-4.05,20.1Zm16.49-.25L117,20.83c4.6.21,6,2.35,4.89,6.91l-3.73,18.34Zm17.78-4h6.83l-1.13,4.39h-9.18c-2.8,0-3.09-3.51-2.37-6.78l2.63-13.44q1.32-4.89,5.15-5.27h8.79l-.87,4.14H133l-3.33,17ZM75.08,11.79l-1.7,8.92H84.43l.91-4.65c.46-3,3.24-4.69,7-4.27l-1.7,8.92H97.4L96.52,25H89.81L86.4,42.06h7l-1.13,4.39H83.07c-2.8,0-3.09-3.51-2.38-6.78L83.59,25H72.42L69,42.06h6.9l-1.13,4.39H65.62c-2.8,0-3.09-3.51-2.38-6.78L66.13,25h-6L61,20.71h6.13L68,16.06c.46-3,3.24-4.69,7-4.27Z"/></g></g></svg>