<svg xmlns="http://www.w3.org/2000/svg" viewBox="0 0 126.49 63.86"><defs><style>.cls-1{fill:#05bdc9;}.cls-2{fill:#010101;}.cls-3{fill:#c70363;}.cls-4{fill:#fbac06;}.cls-5{fill:#03bdc9;}.cls-6{fill:#8a7b14;}</style></defs><title>itv</title><g id="Layer_2" data-name="Layer 2"><g id="Layer_1-2" data-name="Layer 1"><path class="cls-1" d="M6.22.31C11.93-1.33,18.14,3.69,16.6,9.73c-.09,8.46-13.93,9.5-16.21,1.8C-.9,7,1,1.06,6.22.31Z"/><path class="cls-2" d="M35.56,7.49C38.82,3.18,47,3.59,51,6.79c1.46,5,.37,10.44.57,15.6,4.79.44,9.61.11,14.42.23.1,3.45.1,6.9,0,10.34-4.78-.05-9.67.49-14.34-.86,0,2.88.2,5.76,0,8.63a25.71,25.71,0,0,1-9.05,16.53,36.67,36.67,0,0,1-7-11.12c-.36-12.85-.34-25.8,0-38.65Z"/><path class="cls-3" d="M75,29.83c1.28-8.24,16.89-12,17.4-1.21,0,7.37-.75,15-4.35,21.56a74.56,74.56,0,0,1-8.82-11.49C77.54,35.87,75.72,33,75,29.83Z"/><path class="cls-4" d="M116.45,22.16c3.52-.14,6.83,1.1,10,2.39-2.29,12.11-8.92,23.17-15.07,33.78-2.93,6.07-11.31,6.79-16.55,3.54-3.11-3-4.84-7.08-7.61-10.35.18-.34.55-1,.74-1.34,3.6-6.57,4.39-14.19,4.35-21.56,5.52,6,8.21,14,12.66,20.72,5.62-8.13,8.46-17.85,11.44-27.18Z"/><path class="cls-5" d="M.2,22.73c5.32-.61,10.7-.14,16.05-.34,1.29,8.88-1,18.12,1.29,26.85,3.7,7.88,16.33,5,18-3.1a36.67,36.67,0,0,0,7,11.12l-.23.22C34.71,64.34,23,65,13.52,62.17A17.54,17.54,0,0,1,.33,46.73c-.36-8-.1-16-.13-24Z"/><path class="cls-6" d="M79.18,38.69A74.56,74.56,0,0,0,88,50.18c-.19.33-.56,1-.74,1.34-9.13,15.11-31.61,15.4-44.95,6l.23-.22a25.71,25.71,0,0,0,9.05-16.53c-1.35,12.85,16.45,17.19,24.17,9,2.75-3,3.44-7.11,3.42-11Z"/></g></g></svg>