<?xml version="1.0" encoding="UTF-8" standalone="no"?>
<!DOCTYPE svg PUBLIC "-//W3C//DTD SVG 20010904//EN" "http://www.w3.org/TR/2001/REC-SVG-20010904/DTD/svg10.dtd">
<svg version="1.0" xmlns="http://www.w3.org/2000/svg" width="511.000000pt" height="106.000000pt" viewBox="0 0 511.000000 106.000000" preserveAspectRatio="xMidYMid meet">
<metadata>
Created by potrace 1.11, written by Peter Selinger 2001-2013
</metadata>
<g transform="translate(0.000000,106.000000) scale(0.100000,-0.100000)" fill="#000000" stroke="none">
<path d="M100 997 l-85 -53 -3 -433 c-1 -249 2 -431 7 -429 5 1 45 26 89 53 l81 50 1 433 c0 237 -1 432 -3 432 -2 0 -41 -24 -87 -53z"/>
<path d="M2100 983 c-67 -23 -102 -49 -128 -91 l-27 -47 0 -385 0 -385 125 0 125 0 3 333 2 333 76 -3 75 -3 2 -330 2 -330 125 0 125 0 3 333 2 333 76 -3 75 -3 2 -330 2 -330 125 0 125 0 3 380 c2 378 2 381 -20 425 -25 49 -70 84 -127 100 -37 10 -742 13 -771 3z"/>
<path d="M3170 530 l0 -460 308 0 c169 0 346 4 394 10 182 19 277 101 278 238 0 130 -86 214 -245 238 l-50 7 60 17 c105 29 142 55 170 123 46 110 -17 228 -143 267 -59 18 -94 20 -418 20 l-354 0 0 -460z m650 0 l0 -210 -195 0 -195 0 0 210 0 210 195 0 195 0 0 -210z"/>
<path d="M4390 983 c-67 -23 -102 -49 -128 -91 l-27 -47 -3 -280 c-4 -307 2 -365 46 -417 14 -17 47 -40 72 -52 42 -19 66 -21 403 -24 l357 -4 0 126 0 126 -305 0 -305 0 0 210 0 210 305 0 305 0 0 125 0 125 -352 -1 c-194 0 -360 -3 -368 -6z"/>
<path d="M1322 907 l-83 -52 -2 -423 c-1 -232 0 -421 3 -420 3 2 43 26 88 53 l81 50 1 423 c0 232 -1 422 -2 422 -2 0 -40 -24 -86 -53z"/>
<path d="M420 485 l0 -335 88 55 87 54 0 263 0 262 -75 18 c-41 9 -81 17 -87 18 -10 0 -13 -73 -13 -335z"/>
<path d="M830 406 l0 -325 85 52 84 52 1 252 0 253 -27 6 c-47 10 -107 25 -125 30 -17 5 -18 -15 -18 -320z"/>
</g>
</svg>