<?xml version="1.0" encoding="utf-8"?>
<!-- Generator: Adobe Illustrator 22.1.0, SVG Export Plug-In . SVG Version: 6.00 Build 0)  -->
<svg version="1.1" id="Layer_1" xmlns="http://www.w3.org/2000/svg" xmlns:xlink="http://www.w3.org/1999/xlink" x="0px" y="0px"
	 viewBox="0 0 280.8 234" style="enable-background:new 0 0 280.8 234;" xml:space="preserve">
<style type="text/css">
	.st0{fill:#231F20;}
</style>
<title>sony</title>
<g id="Layer_2_1_">
	<g id="Layer_1-2">
		<path class="st0" d="M67.6,195.5c6.6,3.1,14.1,3.6,21.1,1.5c2.9-1,5-3.5,5.4-6.6c0-2.4-1.4-4.7-3.5-5.8c-6.2-1.6-12.6-2.8-19-3.4
			c-0.7-0.2-1.1-0.8-1.1-1.5c0-2.8,5.8-3.1,9.3-2.8c3.5,0.2,8.5,1.1,10,5.2h3.1v-7.4h-3.2v1.5l-1.1-0.5c-7.3-3.6-16-3-22.8,1.5
			c-1.8,1.5-2.3,4-1.2,6.1c3.4,6.2,11.7,4.9,17.9,6c1.9,0,3.7,0,4.9,1.7c0.5,0.9,0.2,1.9-0.6,2.5c-4.3,2-9.2,2.2-13.6,0.6
			c-2.3-0.7-5.3-2.6-5.7-5.2h-3.1v8.8h3.2L67.6,195.5L67.6,195.5z"/>
		<polygon class="st0" points="185.6,188.5 185.6,194.1 181.8,194.1 181.8,197 197.1,197 197.1,194.1 193,194.1 193,188.1 
			202.7,177.7 206.6,177.7 206.6,174.8 194.2,174.8 194.2,177.7 196.7,177.7 190.5,184.3 185.2,177.7 187.7,177.7 187.7,174.8 
			172.4,174.7 172.4,177.7 176.6,177.7 185.6,188.5 		"/>
		<path class="st0" d="M135.1,174.7h10.7l15,13v-10h-3.6v-3h12.5v3h-4V197h-4.4c-5.9-4.8-11.5-10-17.4-14.7v11.7h3.8v3h-12.5v-3h3.8
			v-16.2h-3.8v-3L135.1,174.7z"/>
		<path class="st0" d="M115.1,198.3c9.5,0,17.2-5.6,17.2-12.6s-8.1-12.6-17.2-12.6S98,178.8,98,185.7
			C98,192.6,106.1,198.3,115.1,198.3z M115.1,177c4.9-0.5,9.3,3.2,9.8,8.1c0.5,4.9-3.2,9.3-8.1,9.8c-0.6,0.1-1.1,0.1-1.7,0
			c-4.9,0.5-9.3-3.2-9.8-8.1c-0.5-4.9,3.2-9.3,8.1-9.8C114,176.9,114.6,176.9,115.1,177z"/>
		<polygon class="st0" points="183.6,211.2 183.2,211.1 183.6,211.1 183.6,211.2 		"/>
		<path class="st0" d="M70.2,211.5V207h2.3c2.7,0,3.9,0.7,3.9,2.3c0,1.5-1.1,2.2-4,2.2L70.2,211.5z M70.2,212.9h3.6
			c1.2,0.2,2.3,0.2,3.5,0c1.6-0.3,2.8-1.6,2.9-3.2c0-1.1-0.6-2.1-1.5-2.8c-1.5-0.9-3.2-1.3-4.9-1.1h-9.8v1.5h1.1
			c1.3,0,1.5,0,1.5,1.5v8.1c0,1.2,0,1.4-1.5,1.4h-1.1v1.5h8.1v-1.5h-0.6c-1.3,0-1.5,0-1.5-1.4v-3.4L70.2,212.9z"/>
		<path class="st0" d="M91,217.6h-0.8c-1.3,0-1.5,0-1.5-1.4v-8.1c0-1.2,0-1.4,1.5-1.4H91v-1.5h-8.1v1.5h0.8c1.3,0,1.5,0,1.5,1.4v8.1
			c0,1.3,0,1.4-1.5,1.4h-0.8v1.5H91V217.6z"/>
		<path class="st0" d="M108.6,205.6h-2.1l-0.6,1.5l-1-0.7c-1.2-0.8-2.6-1.1-4-1.1c-4-0.4-7.6,2.4-8.1,6.4c0,0.2,0,0.4,0,0.6
			c0,4.3,3.3,7.1,8.5,7.1c1,0.1,1.9,0.1,2.9,0c1-0.2,2-0.7,2.8-1.5c1.1-0.9,1.7-2.3,1.6-3.7h-2.1c-0.1,0.7-0.4,1.4-0.7,2
			c-1,1.3-2.5,2-4.1,1.8c-3.1,0-4.7-1.7-4.7-5.2s1.5-5.5,4.9-5.5c1.2,0,2.4,0.4,3.4,1.1c0.8,0.7,1.3,1.6,1.5,2.7h1.9v-5.3
			L108.6,205.6z"/>
		<path class="st0" d="M111.3,205.6v5.6h1.9v-0.5c0-2.4,1.5-3.6,4.5-3.6v9.2c0,1.3,0,1.4-1.5,1.4h-0.6v1.5h8.1v-1.5h-0.8
			c-1.4,0-1.5,0-1.5-1.4V207c3.2,0,4.5,1.2,4.6,4.1h1.9v-5.6H111.3z"/>
		<path class="st0" d="M129.7,207L129.7,207c1.3,0,1.5,0,1.5,1.4v5.3c-0.1,1.1,0.1,2.1,0.5,3.1c0.7,1.7,3.2,2.6,6.6,2.6
			c1.7,0.1,3.4-0.3,4.9-1.1c0.7-0.3,1.2-0.8,1.5-1.5c0.1-0.5,0.1-1,0-1.5v-7c0-1.2,0-1.4,1.5-1.4h0.6v-1.5h-6.2v1.5h0.6
			c1.3,0,1.5,0,1.5,1.4v5.3c0,1.9,0,2.3-0.6,2.8c-0.9,0.8-2,1.1-3.2,1.1c-1.2,0.1-2.3-0.3-3.2-1.1c-0.6-0.6-0.7-1-0.7-2.8v-5.3
			c0-1.2,0-1.4,1.5-1.4h1.1v-1.5h-8.1v1.5L129.7,207z"/>
		<path class="st0" d="M155.5,211.3V207h2.8c2.5,0,3.6,0.6,3.6,2.2c0,1.5-1,2.1-3.6,2.1H155.5z M155.5,212.8h2.4
			c0.7,0,1.4,0.2,1.9,0.6c0.7,0.5,0.9,0.9,0.9,2.9s1.2,3.1,3.7,3.1s3.4-0.9,3.4-3.2v-1h-1.8v1.1c0,1,0,1.3-0.8,1.3s-0.8,0-0.9-0.8
			v-1.4c0-1.1-0.6-2.1-1.6-2.6c-0.7-0.2-1.3-0.3-2-0.2c1-0.1,2-0.4,2.9-0.7c1.4-0.6,2.1-1.4,2.1-2.6c0-1.3-0.8-2.4-2-2.8
			c-1.1-0.5-2.3-0.7-3.6-0.6h-10.8v1.5h1.1c1.2,0,1.4,0,1.5,1.4v8.1c0,1.2,0,1.4-1.5,1.4h-1.1v1.5h8.1v-1.5H157
			c-1.3,0-1.5,0-1.5-1.4v-4.2L155.5,212.8z"/>
		<path class="st0" d="M186.3,205.6h-16.2v1.5h0.6c1.1,0,1.3,0,1.5,0.8v8.1c0,1.3,0,1.4-1.5,1.4h-0.5v1.5h16.2v-5.4h-2.1v1
			c0,0.7-0.2,1.4-0.7,1.9c-0.7,0.9-1.5,1.1-3.6,1.1h-4.5v-4.8h1.5c1.9,0,2.5,0.7,2.5,2.9h1.9v-7h-1.9l0,0c0,1.8-0.6,2.4-2.2,2.4
			h-1.5v-4.4h4.5c2,0,3,0,3.6,1.3c0.5,0.8,0.7,1.8,0.6,2.8h2v-5.5L186.3,205.6z"/>
		<path class="st0" d="M203.9,205.6h-1.5l-0.8,1.2l-1-0.6c-1.3-0.6-2.8-0.9-4.2-0.9c-4,0-6.4,1.6-6.4,4.2c0,0.7,0.2,1.3,0.6,1.9
			c0.6,1,1.7,1.4,4.4,1.8l5.3,1c1.2,0,1.9,0.9,1.9,1.7s-1.4,1.9-3.6,1.9c-1.6,0-3.1-0.4-4.5-1.3c-1.1-0.7-1.8-1.8-1.9-3.1h-1.9v5.8
			h1.9l0.6-1.5l0.9,0.7c1.5,0.7,3.2,1.1,4.9,1.1c4,0,6.5-1.6,6.5-4.2c-0.1-1.6-1.2-3.1-2.8-3.5c-1.7-0.6-3.5-1-5.3-1.1
			c-3.2-0.5-3.9-0.8-3.9-1.9c0-1.1,1.3-1.9,3.3-1.9s5.2,1.4,5.7,3.9h1.8C203.9,210.7,203.9,205.6,203.9,205.6z"/>
		<path class="st0" d="M94.2,96.8c-3.4,6.8-2.3,7.3,0,9.9c0.2,0.7,0.2,1.5,0,2.3v42.3l-8.1,4.1v-99l8.1-3.8v40.5
			c0.2,1.2,0.2,2.3,0,3.5V96.8z"/>
		<polygon class="st0" points="75.2,61.3 82.9,57.8 82.9,157 75.1,160.7 75.2,61.3 		"/>
		<polygon class="st0" points="63.5,66.7 71.5,63.2 71.5,162.1 63.5,166.1 63.5,66.7 		"/>
		<path class="st0" d="M199.9,48.4c0,11.7,2.4,51.6,2.3,52.3l-4.9,2.3c0,0,1.5-26,1.9-51.9c0.4-10.8-2.6-46.9-2.6-46.9l4.7-2.3
			c0,0-1.6,42-1.6,46.5H199.9z"/>
		<path class="st0" d="M188.8,53.5c-0.4,6.1,2.1,52.5,2.1,52.5c-1.6,0.6-4.9,2.3-4.9,2.3s1.5-49,1.5-52.7
			C187,44,184.3,9.9,184.3,9.9l6.4-3C190.7,6.9,189.1,48.8,188.8,53.5z"/>
		<path class="st0" d="M177,66.7c0,9,2.8,44.6,2.8,44.6l-5.4,2.7c0,0,1.1-37.5,1.2-50.2c0-10.3-3.2-48-3.2-48
			c2.1-1.2,4.3-2.2,6.6-3.1C178.8,12.7,176.4,56.5,177,66.7z"/>
		<path class="st0" d="M164.6,71.6c0,4.9,3.1,45.3,3.1,45.3s-6.2,2.8-6.3,3.1c0-1.5,1.5-42.3,1.5-49.9c0-7.6-3.2-48.6-3.2-48.6
			l6.7-3.4c0,0-1.7,42.9-1.9,53.2V71.6z"/>
		<path class="st0" d="M152.2,77.8c0,8.8,3,45.1,3,45.1l-6.6,3.1l0,0c0,0,1.8-43.9,1.5-50.7S146.6,28,146.6,28l7.7-3.8
			C154.3,24.9,151.8,62.7,152.2,77.8L152.2,77.8z"/>
		<path class="st0" d="M139.9,76.8c0,18.8,3.4,51.6,3.4,51.6l-8.8,4.1c0,0,3.7-41,3.2-51.1c0-11.8-3.9-46.4-3.9-47.5
			c2.8-1.5,5.7-2.8,8.6-4.1C142.4,30,139.8,67.8,139.9,76.8z"/>
		<path class="st0" d="M128.3,58.6c-2.6,20.6-2.2,41.4,1.2,61.9l1.5,13.3l-9.4,4.4l0,0v-16.7c3.4-20.3,3.4-41,0-61.3V39.5l9.6-4.4
			L128.3,58.6z"/>
		<path class="st0" d="M118.7,60.5c-4.5,20-4.5,40.8,0,60.8v18.8l-9.2,4.2v-31.1c3.3-12.6,3.5-25.8,0.5-38.4V45l8.7-4
			C118.7,41.1,118.7,60.5,118.7,60.5z"/>
		<path class="st0" d="M106.4,76.1c-3.5,12.1-3.5,25,0,37.1v32.9l-8.8,4.1v-42.1c-0.2-0.9-0.2-1.7,0-2.6c3.2-4.4,3.6-6.6,0.6-10.1
			c-0.5-0.6-1-0.8-0.9-1.6V51l8.9-4.1l0,0L106.4,76.1L106.4,76.1z"/>
		<path class="st0" d="M206.9,205.7v0.9h1.5v4.6h1.5v-4.6h1.5v-0.9H206.9z M212,205.7v5.5h1.3v-2.8c0,0,0-1.1,0-1.6l0,0l0,0v0.8v1
			l0.8,2.8h1.1l0.8-2.8l0,0c0-0.3,0-0.5,0-0.8c0-0.2,0-0.5,0-0.7l0,0v4.5h1.3V206h-2l-0.6,1.9l0,0c0,0,0,1.1,0,1.5v0.4l0,0l0,0
			c0-0.2,0-0.5,0-0.7c0-0.4,0-0.8,0-1.1l0,0l-0.5-1.6L212,205.7z"/>
		<path class="st0" d="M69.5,228.2h-0.9c0,0.6-0.3,1-1,1c-0.7,0-1.1-0.5-1.1-1.4s0-1.5,1.1-1.5c0.5,0,0.9,0.4,1,0.8h0.9
			c-0.1-0.9-0.9-1.6-1.9-1.5c-1.1,0-2.1,0.8-2.1,1.9c0,0.1,0,0.2,0,0.3c-0.1,1.1,0.7,2.1,1.9,2.2c0.1,0,0.2,0,0.3,0
			C68.6,230.1,69.5,229.3,69.5,228.2C69.5,228.3,69.5,228.3,69.5,228.2z M67.6,224.9c1.6,0.3,2.7,1.8,2.5,3.4
			c-0.2,1.3-1.2,2.3-2.5,2.5c-1.6,0-2.8-1.3-2.8-2.9C64.7,226.3,66,225,67.6,224.9C67.6,224.9,67.6,224.9,67.6,224.9L67.6,224.9z
			 M67.6,224.2c-2,0-3.6,1.7-3.6,3.7c-0.3,2,1.1,3.8,3.1,4.1c2,0.3,3.8-1.1,4.1-3.1c0.1-0.4,0.1-0.7,0-1.1
			C71.2,225.9,69.6,224.2,67.6,224.2C67.6,224.2,67.6,224.2,67.6,224.2z"/>
		<path class="st0" d="M92.9,229.2L92.9,229.2c0,1.5,0.6,2.1,1.9,2.1c1,0.1,1.9-0.5,2-1.5c0-0.2,0-0.4,0-0.5c0-0.7-0.3-1.4-1-1.8
			h-0.6c-0.7,0-1-0.6-1-1.2c0-0.5,0.3-0.9,0.8-1c0,0,0.1,0,0.1,0c0.6,0,0.8,0,0.9,1.1H97c0-1.2-0.6-1.9-1.8-1.9
			c-1,0-1.8,0.7-1.9,1.7c0,0.1,0,0.2,0,0.3c-0.1,0.9,0.5,1.7,1.4,1.9h0.6c0.6,0.1,0.9,0.6,0.9,1.2c0,0.6,0,1.1-1,1.1s-1,0-1-1.4
			h-1.3V229.2z"/>
		<path class="st0" d="M98.4,228.7c0-1.9,0-2.4,1-2.4s0.9,0.6,0.9,2.4c0,1.9,0,2.4-1,2.4S98.4,230.5,98.4,228.7z M97.5,228.7
			c0,2.3,0.6,3.2,1.9,3.2c0.7,0,1.4-0.4,1.5-1.1c0.1-0.7,0.1-1.4,0-2.1c0.2-0.7,0.2-1.4,0-2.1c-0.2-0.6-0.8-1-1.5-1
			c-0.6,0-1.2,0.3-1.5,0.9c0,0.3,0,0.5,0,0.8c0,0.5,0,1,0,1.5H97.5z"/>
		<path class="st0" d="M101.8,225.2v6.2h0.8V228c0-0.6,0-1.2,0-1.8l0,0c0.1,0.6,0.3,1.3,0.5,1.9l0,0l1.1,3.1h1.1V225h-0.8v3.7
			c0,0.6,0,1.1,0,1.7l0,0c-0.1-0.7-0.2-1.5-0.4-2.2l-1.1-3H101.8z"/>
		<path class="st0" d="M105.8,225.2l1.4,3.7v2.4h0.9v-2.7l1.4-3.7h-0.9l-0.7,1.9v0.5c0,0.1,0,0.3,0,0.4l0,0c0-0.1,0-0.3,0-0.4
			c0-0.2,0-0.3,0-0.5l-0.7-1.9L105.8,225.2z"/>
		<path class="st0" d="M112.9,225.2h0.5c0.8,0,1.1,0,1.1,1.2s0,1.2-1.1,1.2h-0.5V225.2z M112.1,224.4v7h1v-2.7h0.7
			c1.3,0,1.9-0.6,1.9-2c0.1-0.6-0.1-1.2-0.6-1.6c-0.4-0.4-0.9-0.6-1.5-0.5L112.1,224.4z"/>
		<polygon class="st0" points="116.2,225.2 117,225.2 117,231.4 116.2,231.4 116.2,225.2 		"/>
		<path class="st0" d="M120.2,229.2c0,1.1,0,1.5-0.8,1.5s-0.6,0-0.8-0.7c0-0.5,0-1.1,0-1.6c0-1.9,0-2.5,0.9-2.5s0.8,0.4,0.8,1.3h0.8
			c0-1.4-0.5-2-1.6-2c-0.6,0-1.2,0.3-1.5,0.8c-0.2,0.8-0.2,1.6,0,2.4c-0.1,0.7-0.1,1.4,0,2c0.2,0.7,0.8,1.1,1.5,1.1
			c0.5,0.1,0.9-0.2,1.2-0.6c0.3-0.5,0.5-1,0.5-1.6L120.2,229.2L120.2,229.2z"/>
		<polygon class="st0" points="121.5,225.2 121.5,226.1 122.8,226.1 122.8,231.4 123.6,231.4 123.6,226.1 124.9,226.1 124.9,225.2 
			121.5,225.2 		"/>
		<path class="st0" d="M125.3,225.2v4.2c-0.2,0.5-0.2,1,0,1.5c0.3,0.4,0.8,0.6,1.3,0.6c0.6,0.3,1.4,0,1.7-0.6c0,0,0-0.7,0-1.5v-4.1
			h-0.8v4.1c0,1.1,0,1.4-0.8,1.4s-0.8,0-0.8-1.4v-4.1H125.3z"/>
		<path class="st0" d="M130.3,226h0.6c0.7,0,1,0,1,1c0,1,0,1.1-1,1.1h-0.6V226z M129.5,225.2v6.2h0.8v-2.7h0.6c0.8,0,0.9,0,1,1.2
			v0.6c-0.1,0.3-0.1,0.6,0,0.9h1c0,0,0,0,0-0.9v-0.6c0-0.3,0-0.6,0-1c-0.2-0.3-0.6-0.4-1-0.2c0.6,0,0.9-0.6,0.9-1.5
			c0.1-0.4,0.1-0.8,0-1.2c0,0-0.6-0.4-1.2-0.4L129.5,225.2z"/>
		<polygon class="st0" points="133.6,225.2 133.6,231.4 136.6,231.4 136.6,230.6 134.4,230.6 134.4,228.6 136.4,228.6 136.4,227.8 
			134.4,227.8 134.4,226.1 136.5,226.1 136.5,225.2 133.6,225.2 		"/>
		<path class="st0" d="M137,229.5L137,229.5c0,1.3,0.6,1.9,1.7,1.9c1,0.1,1.8-0.7,1.9-1.6c0.1-0.8-0.5-1.6-1.3-1.8h-0.6
			c-0.6,0-0.8-0.6-0.8-1.1s0-0.9,0.7-0.9s0.7,0,0.7,1h0.9c0.1-0.8-0.5-1.5-1.3-1.6c-0.1,0-0.2,0-0.3,0c-0.8,0-1.6,0.6-1.6,1.4
			c0,0.1,0,0.2,0,0.3c-0.1,0.8,0.4,1.5,1.2,1.7h0.5c0.6,0,0.8,0.5,0.8,1s0,1-0.9,1c-0.9,0-0.8,0-0.8-1.2L137,229.5L137,229.5z"/>
		<polygon class="st0" points="143.3,224.4 143.3,231.4 146.7,231.4 146.7,230.4 144.2,230.4 144.2,228.2 146.4,228.2 146.4,227.3 
			144.2,227.3 144.2,225.3 146.5,225.3 146.5,224.4 143.3,224.4 		"/>
		<path class="st0" d="M147.3,225.2v6.2h0.8V228c0-0.6,0-1.2,0-1.8l0,0c0.1,0.6,0.3,1.3,0.5,1.9l0,0l1.1,3.1h1.1V225h-0.8v3.7
			c0,0.6,0,1.1,0,1.7l0,0c-0.1-0.7-0.3-1.5-0.6-2.2l-1.1-3L147.3,225.2z"/>
		<polygon class="st0" points="151.3,225.2 151.3,226.1 152.6,226.1 152.6,231.4 153.5,231.4 153.5,226.1 154.8,226.1 154.8,225.2 
			151.3,225.2 		"/>
		<polygon class="st0" points="155.3,225.2 155.3,231.4 158.2,231.4 158.2,230.6 156.1,230.6 156.1,228.6 158,228.6 158,227.8 
			156.1,227.8 156.1,226.1 158.2,226.1 158.2,225.2 155.3,225.2 		"/>
		<path class="st0" d="M159.7,226h1.1c0.5,0,0.9,0.3,1,0.8c0,0.1,0,0.1,0,0.2c0,0.7,0,1.1-1.1,1.1h-0.6v-2H159.7z M158.9,225.2v6.2
			h0.8v-2.7h0.6c0.8,0,1,0,1,1.2v0.6c0,0.3,0,0.6,0,0.9h1c0,0,0,0,0-0.9v-0.6c0-0.3,0-0.6,0-1c0,0,0-0.5-0.7-0.6
			c-0.7-0.1,0.9-0.6,0.9-1.5c0-0.4-0.1-0.9-0.4-1.2c0,0-0.6-0.4-1.2-0.4L158.9,225.2z"/>
		<polygon class="st0" points="162.4,225.2 162.4,226.1 163.7,226.1 163.7,231.4 164.6,231.4 164.6,226.1 165.8,226.1 165.8,225.2 
			162.4,225.2 		"/>
		<path class="st0" d="M167.3,225.9L167.3,225.9c0,0.2,0,0.4,0,0.6v0.7l0.4,1.8h-1.3v-1.8l0,0c0-0.2,0-0.3,0-0.5c0-0.2,0-0.4,0-0.6
			L167.3,225.9z M166.8,225.2l-1.5,6.2h0.9v-1.5h1.5v1.5h0.9l-1.5-6.2H166.8z"/>
		<polygon class="st0" points="169.7,225.2 170.6,225.2 170.6,231.4 169.7,231.4 169.7,225.2 		"/>
		<path class="st0" d="M171.5,225.2v6.2h0.8V228c0-0.6,0-1.3,0-1.8l0,0c0.1,0.6,0.3,1.3,0.6,1.9l0,0l1.1,3.1h1.1V225h-0.8v3.7
			c0,0.6,0,1.3,0,1.7l0,0c-0.1-0.7-0.4-1.5-0.6-2.2l-1-3L171.5,225.2z"/>
		<path class="st0" d="M175.8,225.2v6.2h1.1V226l0,0l0,0v1v0.8l0,0l0.7,3.2h0.7l0.7-3.2l0,0c0.1-0.6,0.1-1.2,0-1.9l0,0v5.4h0.8v-6.2
			h-1.3l-0.6,2.7l0,0c0,0,0,1.1,0,1.5c0,0.2,0,0.4,0,0.6l0,0v-0.4c0-0.3,0-0.5,0-0.8c0-0.4,0-0.9,0-1.3V227l-1.1-1.8H175.8z"/>
		<polygon class="st0" points="181.3,225.2 181.3,231.4 184.3,231.4 184.3,230.6 182.2,230.6 182.2,228.6 184.1,228.6 184.1,227.8 
			182.2,227.8 182.2,226.1 184.3,226.1 184.3,225.2 181.3,225.2 		"/>
		<path class="st0" d="M185.1,225.2v6.2h0.8V228c0-0.6,0-1.2,0-1.8l0,0c0.1,0.6,0.3,1.3,0.6,1.9l0,0l1.1,3.1h1V225h-0.8v5.2l0,0
			c-0.2-0.7-0.3-1.5-0.6-2.2l-1.1-3L185.1,225.2z"/>
		<polygon class="st0" points="189,225.2 189,226.1 190.3,226.1 190.3,231.4 191.1,231.4 191.1,226.1 192.4,226.1 192.4,225.2 
			189,225.2 		"/>
		<polygon class="st0" points="194.8,224.4 195.8,224.4 195.8,231.4 194.8,231.4 194.8,224.4 		"/>
		<path class="st0" d="M196.7,225.2v6.2h0.8V228c0-0.6,0-1.2,0-1.8l0,0c0.1,0.6,0.2,1.3,0.5,1.9l0,0l1.1,3.1h1.1V225h-0.8v3.7
			c0,0.6,0,1.1,0,1.7l0,0c-0.1-0.7-0.3-1.5-0.6-2.2l-1.1-3L196.7,225.2z"/>
		<path class="st0" d="M203.5,229.2c0,1.1,0,1.5-0.8,1.5c-0.8,0-0.6,0-0.8-0.7c-0.2-0.7,0-1,0-1.6c0-1.9,0-2.5,0.9-2.5
			s0.8,0.4,0.8,1.3h0.8c0-1.4-0.5-2-1.6-2c-0.6,0-1.2,0.3-1.5,0.8c-0.2,0.8-0.2,1.6,0,2.4c-0.1,0.7-0.1,1.4,0,2
			c0.2,0.7,0.8,1.1,1.5,1.1c0.5,0.1,0.9-0.2,1.2-0.6c0.3-0.5,0.5-1,0.5-1.6h-0.9L203.5,229.2z"/>
		<polygon class="st0" points="204.7,230.3 205.5,230.3 205.5,231.4 204.7,231.4 204.7,230.3 		"/>
		<path class="st0" d="M76.8,230.7h-2.8l0.5-0.6l0.7-0.9l0.6-0.9c0.5-0.5,0.8-1.3,0.8-2c0.1-0.9-0.5-1.7-1.3-1.9c-0.1,0-0.3,0-0.4,0
			c-0.5,0-1,0.1-1.3,0.5c-0.3,0.4-0.5,0.9-0.5,1.5h1c0-0.9,0-1.2,0.8-1.2s0.9,0,0.9,1.1c-0.1,0.8-0.4,1.5-0.9,2.1l-0.9,1.1l-0.6,0.9
			l0,0v0.7h3.7v-0.7L76.8,230.7z"/>
		<path class="st0" d="M78.3,226.9c0-1.4,0-1.8,0.9-1.8s1,0.4,1,1.7v1.9c0,1.4,0,1.7-1,1.7c-1,0-0.9,0-0.9-1.8v-2.1V226.9z
			 M81.1,226.9c0-1.8-0.5-2.4-1.9-2.4c-0.6,0-1.2,0.2-1.5,0.6c-0.2,0.6-0.2,1.3,0,1.9v1.8c0,1.3,0,1.5,0,1.9c0.4,0.5,1,0.7,1.6,0.6
			c0.6,0,1.1-0.2,1.5-0.6c0-0.4,0-0.5,0-1.7v-2.3L81.1,226.9z"/>
		<path class="st0" d="M82.9,226.9c0-1.4,0-1.8,1-1.8c1,0,0.9,0.4,0.9,1.7v1.9c0,1.4,0,1.7-1,1.7s-0.9,0-0.9-1.8v-2.1V226.9z
			 M85.7,226.9c0-1.8-0.5-2.4-1.9-2.4c-0.6,0-1.1,0.2-1.5,0.6c-0.2,0.6-0.2,1.3,0,1.9v1.8c0,1.3,0,1.5,0,1.9c0,0.4,0.8,0.6,1.5,0.6
			c0.6,0,1.2-0.2,1.5-0.6c0-0.4,0-0.5,0-1.7v-2.3L85.7,226.9z"/>
		<path class="st0" d="M87.8,226.9c0-1.4,0-1.8,1-1.8c1,0,0.9,0.4,0.9,1.7v1.9c0,1.4,0,1.7-1,1.7c-1,0-0.9,0-0.9-1.7v-2.1V226.9z
			 M90.7,226.9c0-1.8-0.5-2.4-1.9-2.4c-0.6,0-1.1,0.2-1.5,0.6c-0.2,0.6-0.2,1.3,0,1.9v1.8c0,1.3,0,1.5,0,1.9c0,0.4,0.8,0.6,1.5,0.6
			c0.6,0,1.2-0.2,1.5-0.6c0-0.4,0-0.5,0-1.7v-2.3L90.7,226.9z"/>
	</g>
</g>
</svg>
