<?xml version="1.0" encoding="utf-8"?>
<!-- Generator: Adobe Illustrator 22.1.0, SVG Export Plug-In . SVG Version: 6.00 Build 0)  -->
<svg version="1.1" id="Layer_1" xmlns="http://www.w3.org/2000/svg" xmlns:xlink="http://www.w3.org/1999/xlink" x="0px" y="0px"
	 viewBox="0 0 246 227.3" style="enable-background:new 0 0 246 227.3;" xml:space="preserve">
<style type="text/css">
	.st0{fill:#0072BC;}
</style>
<title>talpa</title>
<g id="Layer_2_1_">
	<g id="Laag_1">
		<path class="st0" d="M99.4,17.8c0,9.8-8,17.8-17.8,17.8c-9.8,0-17.8-8-17.8-17.8S71.8,0,81.6,0c0,0,0,0,0,0
			C91.5,0,99.4,8,99.4,17.8z M81.7,40.5c-9.8,0-17.8,8-17.8,17.8s8,17.8,17.8,17.8s17.8-8,17.8-17.8c0,0,0,0,0,0
			C99.4,48.5,91.5,40.5,81.7,40.5z M81.7,81.5c-9.8,0-17.8,8-17.8,17.8c0,9.8,8,17.8,17.8,17.8s17.8-8,17.8-17.8c0,0,0,0,0,0
			C99.4,89.5,91.5,81.5,81.7,81.5L81.7,81.5z M123,0c-9.8,0-17.8,8-17.8,17.8s8,17.8,17.8,17.8s17.8-8,17.8-17.8l0,0
			C140.8,8,132.8,0,123,0z M164.3,35.5c9.8,0,17.8-8,17.8-17.8S174.2,0,164.3,0s-17.8,8-17.8,17.8S154.5,35.5,164.3,35.5L164.3,35.5
			z M123,40.5c-9.8,0-17.8,8-17.8,17.8c0,9.8,8,17.8,17.8,17.8s17.8-8,17.8-17.8c0,0,0,0,0,0C140.8,48.5,132.8,40.5,123,40.5
			C123,40.5,123,40.5,123,40.5L123,40.5z M164.3,40.5c-9.8,0-17.8,8-17.8,17.8s8,17.8,17.8,17.8c9.8,0,17.8-8,17.8-17.8
			C182.1,48.5,174.2,40.5,164.3,40.5C164.4,40.5,164.4,40.5,164.3,40.5L164.3,40.5z M123,81.5c-9.8,0-17.8,8-17.8,17.8
			s8,17.8,17.8,17.8s17.8-8,17.8-17.8c0,0,0,0,0,0C140.8,89.5,132.8,81.5,123,81.5C123,81.5,123,81.5,123,81.5L123,81.5z M123,122.3
			c-9.8,0-17.8,8-17.8,17.8s8,17.8,17.8,17.8c9.8,0,17.8-8,17.8-17.8c0,0,0-0.1,0-0.1C140.8,130.2,132.8,122.3,123,122.3L123,122.3z
			 M164.3,81.5c-9.8,0-17.8,8-17.8,17.8s8,17.8,17.8,17.8c9.8,0,17.8-8,17.8-17.8l0,0C182.2,89.5,174.2,81.5,164.3,81.5
			C164.4,81.5,164.4,81.5,164.3,81.5L164.3,81.5z"/>
		<path class="st0" d="M113.4,188.7v25.9c0.1,1.7,1.6,3.1,3.3,3c1.6-0.1,2.9-1.4,3-3v-25.9c0.1-1.7-1.2-3.2-3-3.3
			c-1.7-0.1-3.2,1.2-3.3,3C113.4,188.5,113.4,188.6,113.4,188.7z"/>
		<path class="st0" d="M99.7,196.7l-0.3,0.5l-0.4-0.4c-1.6-1.3-3.5-1.9-5.5-1.9c-6.3,0-11.4,5.1-11.4,11.4s5.1,11.4,11.4,11.4
			c2,0.1,4-0.6,5.5-1.9l0.4-0.4l0.3,0.5c0.5,1.1,1.6,1.7,2.8,1.7c1.7,0,3.1-1.4,3.1-3.1v-16.5c0-1.7-1.4-3.1-3.2-3.1
			C101.3,195,100.2,195.6,99.7,196.7z M88.4,206.4c0-3.1,2.6-5.6,5.6-5.6c3.1,0,5.6,2.6,5.6,5.6c0,3.1-2.5,5.6-5.6,5.6
			C90.9,212,88.4,209.5,88.4,206.4C88.4,206.4,88.4,206.4,88.4,206.4z"/>
		<path class="st0" d="M173,196.7l-0.2,0.5l-0.4-0.4c-1.6-1.3-3.5-1.9-5.5-1.9c-6.3,0-11.4,5.1-11.4,11.4s5.1,11.4,11.4,11.4
			c2,0.1,4-0.6,5.5-1.9l0.4-0.4l0.2,0.5c0.8,1.6,2.7,2.2,4.2,1.5c1.1-0.5,1.8-1.7,1.8-2.9v-16.5c0-1.7-1.4-3.2-3.1-3.2
			C174.7,194.9,173.6,195.6,173,196.7z M161.8,206.4c0-3.1,2.5-5.6,5.6-5.6c3.1,0,5.6,2.5,5.6,5.6c0,3.1-2.5,5.6-5.6,5.6
			C164.3,212,161.8,209.5,161.8,206.4C161.8,206.4,161.8,206.4,161.8,206.4z"/>
		<path class="st0" d="M134.1,196.8l-0.4,0.4l-0.3-0.5c-0.7-1.6-2.6-2.3-4.2-1.5c-1.1,0.5-1.9,1.7-1.8,3v26.1c0,1.7,1.4,3.2,3.2,3.2
			s3.2-1.4,3.2-3.2l0,0v-8.5l0.7,0.5c1.5,1.1,3.3,1.6,5.1,1.6c6.3,0,11.4-5.1,11.4-11.4s-5.1-11.4-11.4-11.4
			C137.6,194.9,135.7,195.5,134.1,196.8z M133.5,206.3c0-3.1,2.5-5.6,5.6-5.6c3.1,0,5.6,2.5,5.6,5.6c0,3.1-2.5,5.6-5.6,5.6
			C136,212,133.5,209.5,133.5,206.3C133.5,206.4,133.5,206.4,133.5,206.3L133.5,206.3z"/>
		<path class="st0" d="M76.9,195.4h-3.6v-6.7c0.1-1.7-1.2-3.2-3-3.3c-1.7-0.1-3.2,1.2-3.3,3c0,0.1,0,0.2,0,0.4v25.9
			c0.1,1.7,1.6,3.1,3.3,3c1.6-0.1,2.9-1.4,3-3v-13.4h3.6c1.6,0,2.9-1.3,2.9-2.9C79.8,196.7,78.5,195.4,76.9,195.4
			C76.9,195.4,76.9,195.4,76.9,195.4z"/>
	</g>
</g>
</svg>
