<svg id="Layer_1" data-name="Layer 1" xmlns="http://www.w3.org/2000/svg" viewBox="0 0 228.99 300"><defs><style>.cls-1{fill:#ed1c24;}.cls-2{fill:#231f20;}.cls-3{fill:#ed2024;}</style></defs><title>cats-digital-marketing</title><g id="Layer_2" data-name="Layer 2"><g id="Layer_1-2" data-name="Layer 1-2"><path class="cls-1" d="M161.45,168.56a7.38,7.38,0,0,0-1.87.24c-2.23.43-4.46.78-6.66,1.3a44.65,44.65,0,0,0-12.54,5,19.31,19.31,0,0,0-4.74,3.84,12.89,12.89,0,0,0-3.41,7.37,7.48,7.48,0,0,0,1.47,5.31,8.53,8.53,0,0,0,2.7,2.37,31.91,31.91,0,0,0,5.35,2.37c2.07.69,4.15,1.26,6.17,2a14.81,14.81,0,0,1,4.43,2.37,6.87,6.87,0,0,1,2.37,3.84,9,9,0,0,1-1.14,6.75,12.74,12.74,0,0,1-3,3.41,23.32,23.32,0,0,1-4.74,3,46.76,46.76,0,0,1-10.33,3.62,39.69,39.69,0,0,1-7.25,1.24h-2.68q-4.23.07-8.44-.27a39.46,39.46,0,0,1-7-1.23,19.49,19.49,0,0,1-6.23-2.82,10.58,10.58,0,0,1-4.27-6.11,21.38,21.38,0,0,1-.52-4.36,69.9,69.9,0,0,1,.5-9.7q.6-5.22,1.64-10.42a15,15,0,0,1,.83-2.87,2.67,2.67,0,0,1,2.25-1.68l3.67-.45c2.16-.24,4.34-.43,6.52-.55a35.47,35.47,0,0,1,5,0,13,13,0,0,0,3.36-.14,8.13,8.13,0,0,0,3.51-1.42,3.35,3.35,0,0,0,1.07-1.26,1.29,1.29,0,0,0-.43-1.73,5,5,0,0,0-1.49-.71,12.39,12.39,0,0,0-6.59-.14,46.43,46.43,0,0,1-6,1.09l-5.78.66a6.27,6.27,0,0,1-1.73,0,1.46,1.46,0,0,1-1.31-1.33,4.92,4.92,0,0,1,0-.94,8,8,0,0,1,.57-2.37c1.23-3.68,2.68-7.26,4.15-10.83,1.8-4.34,3.58-8.68,5.64-12.9a4.25,4.25,0,0,0,.21-.49,2.55,2.55,0,0,0-.73-2.71,4.36,4.36,0,0,0-1.45-.9,7.4,7.4,0,0,0-5.4,0,9.65,9.65,0,0,0-5.12,4.74,19.54,19.54,0,0,0-1.68,4.74c-.93,4.24-1.47,8.37-2.14,12.52-.33,2-.66,4-1,6a5.08,5.08,0,0,1-1.94,3.1,13.52,13.52,0,0,1-2.06,1.31,29.05,29.05,0,0,1-4.13,1.68,20,20,0,0,1-2.72.76,1.57,1.57,0,0,1-2-1,1.68,1.68,0,0,1-.07-.5,10.58,10.58,0,0,1,0-1.78,15.62,15.62,0,0,0,0-2.37,10.31,10.31,0,0,0-7.82-8.62,18,18,0,0,0-6.38-.22,45,45,0,0,0-12.13,3.44,8.7,8.7,0,0,0-3.56,2.82,2.21,2.21,0,0,0-.38.73.62.62,0,0,0,.3.82.46.46,0,0,0,.23.06,2.48,2.48,0,0,0,.94,0,11.81,11.81,0,0,0,2.92-1.14,21.36,21.36,0,0,1,11-2.25,12.92,12.92,0,0,1,6.28,2A8.53,8.53,0,0,1,78.15,175a6.51,6.51,0,0,1,1.23,3.25A5.36,5.36,0,0,1,77,183a9.31,9.31,0,0,1-2.37,1.21c-3.11,1.14-6.19,2.37-9.2,3.7a57.24,57.24,0,0,0-9.78,5.49,24.18,24.18,0,0,0-4.53,4.1,12.4,12.4,0,0,0-2.37,4.2,6,6,0,0,0-.24,3,4.54,4.54,0,0,0,3.15,3.56,10.07,10.07,0,0,0,4,.54,36,36,0,0,0,5.76-.82,70.1,70.1,0,0,0,14.22-4.89,2.29,2.29,0,0,1,.71-.28V203a14.89,14.89,0,0,1-1.82,7.42,8.92,8.92,0,0,0-.5,1.09,3.88,3.88,0,0,0-.28,1.21,1.68,1.68,0,0,0,1.38,1.93,1.43,1.43,0,0,0,.46,0h.43a4.63,4.63,0,0,0,1-.26,13.18,13.18,0,0,0,3.13-1.8A4.4,4.4,0,0,0,82,209.14c0-2.37.31-4.6.52-6.88.34-4,.71-8,1.21-12.06a16.15,16.15,0,0,1,.64-3.15,3.64,3.64,0,0,1,3.13-2.56c1.94-.24,3.89-.24,5.83-.31a1.5,1.5,0,0,1,1.59,1.4v.12a6.5,6.5,0,0,1-.17,2,133.63,133.63,0,0,0-2.58,14.74,37.22,37.22,0,0,0,0,8.44,18.76,18.76,0,0,0,1.52,5.55,16,16,0,0,0,6.49,7,28.78,28.78,0,0,0,7.11,3.08,40.57,40.57,0,0,0,11.07,1.42,63.76,63.76,0,0,0,14.69-1.78,54.24,54.24,0,0,0,13.58-5,39.42,39.42,0,0,0,7.82-5.36,19.45,19.45,0,0,0,4.58-5.74,11.86,11.86,0,0,0,.78-9.21,9.48,9.48,0,0,0-6.07-6.38,26.11,26.11,0,0,0-2.75-.78c-1.89-.48-3.81-.85-5.71-1.42a20.41,20.41,0,0,1-5.1-2.37,5.75,5.75,0,0,1-2.77-3.84,6.14,6.14,0,0,1,.59-3.77,11.73,11.73,0,0,1,2.37-3.41,23.85,23.85,0,0,1,5.31-4,17.14,17.14,0,0,1,7.42-2.37,9,9,0,0,1,6.56,1.64,1.05,1.05,0,0,0,1.48,0,1,1,0,0,0,.16-.2,9.45,9.45,0,0,0,1.54-2.59,2.79,2.79,0,0,0,.17-1,1.72,1.72,0,0,0-1.58-1.83ZM77.77,194.8a12.3,12.3,0,0,1-4.32,5.76A26.61,26.61,0,0,1,67,204a20.66,20.66,0,0,1-5.73,1.47,8.72,8.72,0,0,1-4-.4,5.83,5.83,0,0,1-2.7-2A4,4,0,0,1,54,199.3a7.41,7.41,0,0,1,1.66-2.77,17.29,17.29,0,0,1,3.83-3.25,41.49,41.49,0,0,1,11.85-5.14,13.73,13.73,0,0,1,2.85-.36,7.59,7.59,0,0,1,1.51.17,3.09,3.09,0,0,1,2.49,2.65A8,8,0,0,1,77.77,194.8Z"/><path class="cls-1" d="M70.82,217.81a1.28,1.28,0,0,0-1.65-.74,1.17,1.17,0,0,0-.34.2,11.92,11.92,0,0,1-2.37,1c-.66.21-1.32.42-2,.59A87.69,87.69,0,0,1,44,221.63,53,53,0,0,1,30,220a39.55,39.55,0,0,1-10.92-4.41,24.76,24.76,0,0,1-7.59-6.78,17.4,17.4,0,0,1-3.41-10.62A41.08,41.08,0,0,1,9.73,187a47,47,0,0,1,15.78-23.54,47.58,47.58,0,0,1,16.59-8.55,54.62,54.62,0,0,1,11.37-2.37,42.93,42.93,0,0,1,6.31-.19,25.77,25.77,0,0,1,4.19.59,20.24,20.24,0,0,1,4.17,1.54,16.75,16.75,0,0,0,2.16.86,2.37,2.37,0,0,0,2.77-.93,17.64,17.64,0,0,0,2.63-4.62,15.32,15.32,0,0,0,.79-2.37,1,1,0,0,0-.67-1.23,3.92,3.92,0,0,0-1.25-.33,24.29,24.29,0,0,0-3.06-.26,78.94,78.94,0,0,0-12.77.47,69.48,69.48,0,0,0-13.23,2.77A66.53,66.53,0,0,0,6.36,180.1a54.31,54.31,0,0,0-5,11.43A31.12,31.12,0,0,0,.6,206.74a18.68,18.68,0,0,0,5.93,10.45,34.93,34.93,0,0,0,2.79,2.23,42.14,42.14,0,0,0,12,5.55,56.59,56.59,0,0,0,16,2.37H47.38l5.24-.14c5.1-.19,10.22-.48,15.31-.83a8.89,8.89,0,0,0,2.18-.31,2.1,2.1,0,0,0,1.54-1.78,4.82,4.82,0,0,0,0-.76,16.58,16.58,0,0,0-.12-3.15A7.35,7.35,0,0,0,70.82,217.81Z"/><path class="cls-2" d="M113.58,254.71V242.08c0-.17,0-.24-.26-.24h-1.07a.75.75,0,0,0-.88.55c-1.47,3.43-3,6.82-4.45,10.28v-.14c-.81-2.18-1.8-4.27-2.68-6.4-.55-1.33-1.14-2.63-1.68-3.93,0-.15,0-.36-.36-.36h-1.66a.19.19,0,0,0-.21.16v13.09a.18.18,0,0,0,.16.21h1.14c.17,0,.24,0,.22-.26v-9.81a3,3,0,0,1,0-1h0V244a.75.75,0,0,1,.18.48,6.66,6.66,0,0,0,.5,1.28c1.31,3.05,2.66,6.09,4,9.14a.59.59,0,0,0,.73.41.6.6,0,0,0,.41-.41l1-2.7c1.11-2.53,2.2-5.07,3.29-7.61l.12-.49h0v.75a2.75,2.75,0,0,1,0,.81v8.44c0,.38-.16.85,0,1.09s.76,0,1.16,0,.31,0,.31-.31A1.14,1.14,0,0,1,113.58,254.71Z"/><path class="cls-2" d="M211.76,241.84h-1.25v11.21a.33.33,0,0,1-.22-.26l-3.69-5.95c-.95-1.54-1.92-3.08-2.9-4.74a.42.42,0,0,0-.45-.4h-1.54c-.16,0-.26,0-.26.24v13c0,.19,0,.26.29.26h.9c.31,0,.38,0,.38-.4V245a4,4,0,0,1,0-1.09c.19,0,.23.14.23.28l.5.86,5.81,9.19a3.07,3.07,0,0,0,.69,1c.35.21.85,0,1.28,0s.64,0,.64-.64V242.13C212.05,241.91,212,241.84,211.76,241.84Z"/><path class="cls-2" d="M7.1,242.36a7.71,7.71,0,0,0-2.37-.49H.63c-.57,0-.5,0-.5.52V255c0,.21,0,.4.28.38a34.08,34.08,0,0,0,4.74,0,6.16,6.16,0,0,0,5.36-4.58,8.26,8.26,0,0,0,0-5A5,5,0,0,0,7.1,242.36Zm1.63,8.06a4.75,4.75,0,0,1-4.24,3.37H2.12c-.78,0-.43,0-.43-.43v-9.65c0-.3,0-.42.41-.42H3.42a7.55,7.55,0,0,1,2.37.23,4,4,0,0,1,3.08,3.11,7.17,7.17,0,0,1-.09,3.79Z"/><path class="cls-2" d="M141.66,249.12h0L142,249a3.47,3.47,0,0,0,2.37-3.25,3.35,3.35,0,0,0-2.66-3.65,6.24,6.24,0,0,0-1.3-.14H137c-.45,0-.45,0-.45.45a.6.6,0,0,0,0,.19v12.54c0,.21,0,.28.26.28h.83c.45,0,.47,0,.47-.45v-4c0-.38-.19-.9,0-1.14s.76,0,1.14,0a2.35,2.35,0,0,1,1.82.86,7.46,7.46,0,0,1,.74,1.09l2,3.39a.39.39,0,0,0,.35.37,10,10,0,0,0,1.73,0L143.11,251A4.4,4.4,0,0,0,141.66,249.12Zm-1.4-1h-1.85c-.26,0-.35,0-.33-.35v-4.15c0-.17,0-.33.24-.31a16.25,16.25,0,0,1,2.61,0,2,2,0,0,1,1.84,1.92,2.37,2.37,0,0,1-1.32,2.54A3.55,3.55,0,0,1,140.26,248.12Z"/><path class="cls-2" d="M229,248.62c0-.28,0-.36-.38-.36h-3c-1,0-1.09,0-1,1.14,0,.24,0,.33.35.33H227c.27,0,.41,0,.38.36v3a.51.51,0,0,1-.38.52,5.91,5.91,0,0,1-2.63.43,4.35,4.35,0,0,1-4-3.18,7,7,0,0,1-.17-3.81,4.76,4.76,0,0,1,3.72-3.89,6.53,6.53,0,0,1,4.34.62,1.16,1.16,0,0,0,.57.21v-1.28c0-.47,0-.47-.5-.66a8.11,8.11,0,0,0-3.55-.5,6.29,6.29,0,0,0-5.6,3.6,7.85,7.85,0,0,0-.16,6.76,5.32,5.32,0,0,0,3.29,3.13,8.19,8.19,0,0,0,6.38-.48.4.4,0,0,0,.26-.47C229,252.22,229,250.44,229,248.62Z"/><path class="cls-2" d="M35.11,248.26h-3c-.33,0-.75-.14-1,0s0,.67,0,1,0,.38.36.38h2.08c.69,0,.41,0,.41.43v2.84a.62.62,0,0,1-.45.66,5.9,5.9,0,0,1-2.63.36,4.21,4.21,0,0,1-3.94-2.85,6.62,6.62,0,0,1-.14-4.74,4.76,4.76,0,0,1,4-3.22,6.73,6.73,0,0,1,2.37.12,8.25,8.25,0,0,1,2.14.85v-1.35c0-.52,0-.52-.48-.69a8.24,8.24,0,0,0-3.55-.49,6.34,6.34,0,0,0-5.83,4.1,7.87,7.87,0,0,0,0,5.92A5.41,5.41,0,0,0,28.88,255a8.08,8.08,0,0,0,6.35-.45.49.49,0,0,0,.26-.47v-5.43C35.53,248.34,35.37,248.26,35.11,248.26Z"/><path class="cls-2" d="M68.57,242.91c-.14-.33-.19-.76-.43-1s-.71,0-1.09,0-.52,0-.68.49l-4.74,12.45c0,.16-.19.3,0,.52h1.11c.57,0,.5.12.71-.48.33-1,.69-1.92,1-2.86a.56.56,0,0,1,.64-.45h4.6a.57.57,0,0,1,.62.45c.33,1,.71,2,1.06,3a.47.47,0,0,0,.55.38h1.3a1.91,1.91,0,0,0-.21-.81Zm.9,7.11H65.18a.85.85,0,0,1,0-.5c.59-1.64,1.19-3.29,1.76-4.93a2.46,2.46,0,0,1,.23-.73c.1-.26,0-.19,0-.19v.19l2.14,6a.15.15,0,0,1,.16.16v0Z"/><path class="cls-2" d="M126.23,242.86c-.12-.33-.14-.76-.42-1s-.69,0-1,0-.54,0-.73.52l-4.74,12.35c0,.17-.22.33,0,.59h.95c.85,0,.66.12.92-.66s.64-1.82,1-2.73c0-.23.19-.4.5-.4h4.74c.28,0,.37,0,.47.36.24.71.5,1.42.78,2.11s.14,1.09.59,1.28a2.88,2.88,0,0,0,1.54,0,1,1,0,0,0-.16-.67ZM122.82,250c.66-2.11,1.52-4.15,2.16-6.26v0a4,4,0,0,0,.3,1.06l1.66,4.74a.7.7,0,0,0,.19.55Z"/><path class="cls-2" d="M154.93,248.69c-.43-.47-.4-.33,0-.78l4.74-5.57c0-.14.33-.24.31-.5h-1.33a.89.89,0,0,0-.85.4l-4.39,5.24a.93.93,0,0,1-.35.36,1,1,0,0,1,0-.6v-4.36c0-.33.14-.75,0-1s-.64,0-1,0-.52,0-.52.52v11.85c0,1.28,0,1.28,1.3,1.16.19,0,.28,0,.28-.26v-6.3l2,2.37,3,3.63c.15.19.27.38.57.35h1.83a1.52,1.52,0,0,0-.36-.52Z"/><path class="cls-2" d="M173,254.12c0-.19,0-.29-.28-.29H168c-.41,0-.43,0-.43-.42v-3.82c0-.4,0-.43.43-.43h3.38c.93,0,.93,0,.93-.9,0-.54,0-.54-.55-.54H168c-.42,0-.45,0-.45-.4v-3.63c0-.33.12-.4.41-.4h3.74c1,0,1,0,1-1,0-.5,0-.5-.47-.5h-5.78c-.45,0-.45,0-.45.45v12.56c0,.45,0,.45.45.45h5.47c1.09,0,1.09,0,1-1.11C173,254.17,173,254.14,173,254.12Z"/><path class="cls-2" d="M58.14,241.84H50.63c-.33,0-.76-.14-1,0s0,.69,0,1,.12.36.38.36H53c.45,0,.45,0,.45.45v10.4c0,.36-.14.81,0,1s.76,0,1.14,0,.4,0,.4-.36v-11c0-.5,0-.5.52-.5h2.37c1,0,1,0,.92-.95C58.69,241.79,58.76,241.84,58.14,241.84Z"/><path class="cls-2" d="M186.66,241.84h-8.55a.24.24,0,0,0-.26.21v1a.23.23,0,0,0,.21.26h3.2c.29,0,.4,0,.36.38V255c0,.26,0,.38.33.36h.66c.57,0,.57.11.57-.57v-11c0-.43,0-.43.43-.43h3.08c.54,0,.28,0,.28-.28v-.9C187,241.89,186.88,241.82,186.66,241.84Z"/><path class="cls-2" d="M85.3,253.83h-4c-.85,0-.85,0-.85-.83V242.13c0-.22,0-.29-.29-.29h-.83c-.47,0-.47,0-.47.5v12.44c0,.52,0,.52.5.52h5.83c.52,0,.52,0,.54-.5v-.47C85.66,253.83,85.66,253.83,85.3,253.83Z"/><path class="cls-2" d="M194.32,241.94c-.24-.26-.66,0-1,0s-.52,0-.52.52v12.65c0,.22,0,.29.28.29h1c.24,0,.31,0,.31-.31a2.74,2.74,0,0,1-.07-.5V242.93C194.32,242.6,194.46,242.17,194.32,241.94Z"/><path class="cls-2" d="M18,241.84h-.78c-.24,0-.33,0-.31.31v12.06c0,.36-.14.76,0,1s.66,0,1,0,.52,0,.52-.52V242.36C18.54,241.84,18.54,241.84,18,241.84Z"/><path class="cls-2" d="M43.47,241.84a5.24,5.24,0,0,1-1,0c-.23,0-.31,0-.28.31v12.09c0,.33-.14.75,0,1s.66,0,1,0,.47,0,.47-.5V242.2Q43.86,241.81,43.47,241.84Z"/><path class="cls-2" d="M210.46,252.22v-9.79a1.72,1.72,0,0,1,0-.64c-.24.17,0,.41,0,.6v10.35C210.62,252.72,210.46,252.46,210.46,252.22Z"/><path class="cls-2" d="M112,244.4a.61.61,0,0,1-.15.24c.22.33,0,.71.12,1.06A8,8,0,0,0,112,244.4Z"/><path class="cls-2" d="M101.66,244.19h0c.14.33,0,.68,0,1a1.31,1.31,0,0,1,.14-.73.35.35,0,0,1-.14-.31Z"/><path class="cls-2" d="M203,244.31a1.47,1.47,0,0,0,0,.66v-.81C202.92,244,203,244.21,203,244.31Z"/><path class="cls-2" d="M67.27,243.9Z"/><path class="cls-3" d="M222.05,179,196.14,153l-.26-.29c0-.14-.21-.14-.33,0l-.26.24L169.22,179a.94.94,0,0,0-.35.52l3.41,3.3L169,186.34l.37.42,25.93,26.07.24.26a.2.2,0,0,0,.29.06.09.09,0,0,0,.06-.06l.26-.26,26.07-26.07a.89.89,0,0,0,.34-.52L219.13,183l3.44-3.46Zm-.31,7.35-26.07,26.18q-13-13.08-26.07-26.07l3.25-3,22.87,23,22.89-23.06ZM173,182.9c7.56-7.58,15.07-15.14,22.63-22.77l22.61,22.77-22.61,22.78Zm45.43-.4a1.91,1.91,0,0,0-.28-.4q-11-11.06-22-22.16c-.5-.5-.5-.5-1,0l-21.87,22.13a2.74,2.74,0,0,0-.36.48l-3.17-3.11,26.07-26.21,26.06,26.07Z"/><path class="cls-3" d="M202,156.33c.26.27.38,0,.55,0l4.9-4.92s0-.12.19-.27L202.42,146c-.28-.29-.4,0-.54,0l-4.74,4.74a1.2,1.2,0,0,0-.24.26l.12.16Zm-3.58-6,3.53-3.58c.19-.19.34-.26.57,0,1.45,1.44,2.94,2.89,4.34,4.26a.5.5,0,0,1-.21.48l-4.06,4.05c-.33.33-.28.4-.64,0l-4.17-4.15a.45.45,0,0,1-.16-.31C197.8,150.84,198.11,150.58,198.37,150.32Z"/><path class="cls-3" d="M204.08,158.11l.17.24c1.66,1.66,3.32,3.32,4.95,5,.24.24.36.14.55,0l4.74-4.88.19-.24v-.14c-1.66-1.66-3.32-3.32-5-5-.21-.22-.35-.24-.56,0l-2.37,2.37Zm5-4.31c.33-.31.33-.31.64,0,1.38,1.37,2.73,2.77,4.13,4.15.18.19.23.28,0,.52l-4.2,4.17c-.17.19-.26.24-.47,0l-4.32-4.31v-.17a1.37,1.37,0,0,1,.17-.17Z"/><path class="cls-3" d="M223.37,166.67h0c-1.68,1.68-3.34,3.39-5,5.05-.22.23,0,.35,0,.52l3.81,3.84,1.16,1.18,5.45-5.35Zm0,10a.25.25,0,0,1-.21-.18L219,172.33c-.41-.4-.31-.35,0-.69l4.05-4.07.28-.26.19.16,4.29,4.17c.19.19.26.31,0,.53Z"/><path class="cls-3" d="M215.86,160.13l-4.74,4.74c-.38.38-.4.33,0,.71l4.74,4.74s.17.23.24.14l5.38-5.31-5.36-5.36C216,159.9,215.94,160,215.86,160.13Zm.31,9.62-4.74-4.58,4.69-4.62,4.74,4.74Z"/><path class="cls-3" d="M218.26,159.15l3.17,3.23c.17.16.26.14.43,0,1-1.09,2-2.21,3-3.3.19-.19.14-.3,0-.47-1.14-1.07-2.25-2.16-3.44-3.29-.16.21-.38.42-.59.66l-2.51,2.7C218.18,158.82,218,158.94,218.26,159.15Zm.68-.42c.86-.9,1.69-1.83,2.52-2.73.92.9,1.8,1.76,2.7,2.59.16.16.21.28,0,.49-.79.83-1.57,1.69-2.37,2.54-.19.19-.31.19-.48,0l-2.37-2.37C218.8,159,218.78,158.89,218.94,158.73Z"/><path class="cls-3" d="M216.79,157.19l3.31-3.63a35.79,35.79,0,0,0-3.6-3.58l-3.22,3.46c-.17.17-.19.26,0,.43ZM214,153.42c.79-.85,1.59-1.71,2.37-2.58.15-.15.24-.17.38,0l2.51,2.53c.17.14,0,.26,0,.38l-2.53,2.75L214,153.87C213.82,153.7,213.85,153.59,214,153.42Z"/><path class="cls-3" d="M226.38,152c.17-.19,0-.28,0-.42L224,149.18c-.14-.17-.26-.17-.42,0-.81.9-1.64,1.77-2.37,2.65l2.84,2.75Zm-4.55-.19,1.95-2.1c.35.35.71.66,1,1s.78.64,1,1.14l-1,1.09-.9,1Z"/><path class="cls-3" d="M196.05,198.64h0q7.84-7.89,15.66-15.81a1,1,0,0,0,.41-.47l-16.59-16.59a1.68,1.68,0,0,0-.48.4L179.39,182l-.17.17c-.21.17-.26.33,0,.52l.26.26,7.28,7.32,8.39,8.47C195.69,199,195.65,199,196.05,198.64Z"/></g></g></svg>