<svg id="Layer_1" data-name="Layer 1" xmlns="http://www.w3.org/2000/svg" viewBox="0 0 214.32 300"><defs><style>.cls-1{fill:#ed1c24;}</style></defs><title>cats-advertising</title><g id="Layer_2" data-name="Layer 2"><g id="Layer_1-2" data-name="Layer 1-2"><path class="cls-1" d="M67.91,217.92c-2.81,1.9-19.5,5.34-31.28,3.89-19-2.4-28.58-12.15-28.63-22.39a45.5,45.5,0,0,1,18.36-35.69c11-8.32,26.64-11.18,36.28-9.62,4.68.76,7.51,4.26,9.59,1.7a18,18,0,0,0,3.3-6.4c.45-1.37.32-2.13-3.41-2.26a75.06,75.06,0,0,0-30.24,4.1A66.33,66.33,0,0,0,8.54,177.31c-6.85,10.86-10.8,21.83-7.15,32.93s20.25,17.07,32.82,17.46c13.41.53,30.42-.71,32.42-.84s4-.1,4.27-2.45,0-8.39-2.9-6.4"/><path class="cls-1" d="M158.28,169.84a54.46,54.46,0,0,0-19.57,6.4c-8.28,5-10.91,14.4-3.84,18.46s17.69,3.63,18.44,11.5c1.19,12.68-23.48,17.08-27.19,17s-25.34,1.62-27.75-11c-1.13-6.12.51-17.56,1.84-24,.83-4,2-4,3.82-4.27a94.62,94.62,0,0,1,14.08-.81c4.68.43,8.11-1.58,8.18-3.43s-5.4-3-8.9-1.82a97.16,97.16,0,0,1-12.1,1.75c-1.41.15-2.57-.21-2.14-2.86s8.15-21.38,10.07-25.1-3.35-5.61-7-4.27-5.75,4.27-6.94,9.61c-1.13,4.78-2.58,16.45-3.27,18.82s-4,4.27-9.52,5.81c-2.86.85-3.2-.32-3.15-3.27a10.28,10.28,0,0,0-5.57-9.71c-6.73-3.61-19.77,1.9-21,2.58a8,8,0,0,0-3.22,3.23c-.28.94.88,1.51,4.48-.34s11.38-3.91,17.08,0c4.61,3.07,4.71,9-1,11.05s-17.08,6.3-22.82,12.44-4.4,12.81,5,11.89a64.61,64.61,0,0,0,19.21-5.91,15.74,15.74,0,0,1-1.75,7.53c-1.94,3.33-.25,5.28,2.88,3.76s4.27-2.82,4.42-5,1.35-17,2-20.43,2.13-4,5-4.08l4.16-.17c1.75,0,1.9,1.65,1.6,3.06a107,107,0,0,0-2.88,20.46c.21,8.54,3.84,14.26,14.07,17.72s28.34,1.79,40.82-5.25,13.73-14.32,12.47-19c-2.67-9.77-11.59-6.29-19.53-11.41-4.27-2.8-4.06-8.37,3.56-13.64s13.94-3.52,15.43-2.14,2.14,0,3.12-1.66.79-4.27-2.54-3.48M69.54,203.3c-6.9,3.54-12.64,4.08-15.35.79-3.31-4,2-9.09,8.54-12.16s13.7-5.21,14.53-.43c.47,2.62-.47,8-7.79,11.8"/><path class="cls-1" d="M201.09,151H201v9.65a.09.09,0,0,1-.07.12h-1.76V147.13c0-.13,0-.15.15-.13h2.56l2.13,8.05h0V147h1.65a.13.13,0,0,1,.13.13v13.49a.15.15,0,0,1-.13.14H203.7a.18.18,0,0,1-.2-.12s-2.58-9.65-2.58-9.67"/><path class="cls-1" d="M166,147.13h3.48a4.32,4.32,0,0,1,.88.1,3.43,3.43,0,0,1,1.07.52,1.74,1.74,0,0,1,.42.51,2.88,2.88,0,0,1,.41,1.17,23.82,23.82,0,0,1,0,2.39,3.08,3.08,0,0,1-.56,1.65,1.39,1.39,0,0,1-.4.4l-.34.19v.13l.27.15a2.36,2.36,0,0,1,.6.62,2.16,2.16,0,0,1,.36,1v3.93a3,3,0,0,0,.15.85c0,.13,0,.15-.13.15h-1.45a.17.17,0,0,1-.17-.13V156.6a1.59,1.59,0,0,0-.4-1,1.06,1.06,0,0,0-.43-.26,2.62,2.62,0,0,0-.79,0h-.58v5.27c0,.24,0,.26-.25.26h-1.79v-.13Zm2.14,6h1.09a1,1,0,0,0,.79-.58,1.86,1.86,0,0,0,.17-.9v-.91a3.83,3.83,0,0,0,0-1.07,1,1,0,0,0-1-.71h-1v4.08"/><path class="cls-1" d="M140,147.06h4.14a.86.86,0,0,1,.32,0,2.19,2.19,0,0,1,.58.19,2.29,2.29,0,0,1,.77.54,2.66,2.66,0,0,1,.68,1.24,5.7,5.7,0,0,1,.15,1.43V158a3.06,3.06,0,0,1-.64,1.69,2.24,2.24,0,0,1-.79.64l-.53.21a4.5,4.5,0,0,1-1,.15H140.2a.13.13,0,0,1-.13-.15Zm2.14,11.63h1.06a1.22,1.22,0,0,0,.6,0,.85.85,0,0,0,.47-.46,2.25,2.25,0,0,0,.26-.71v-7.21a1.63,1.63,0,0,0-.17-.79.85.85,0,0,0-.52-.54,13,13,0,0,0-1.53,0,.15.15,0,0,0-.15.15Z"/><path class="cls-1" d="M207.92,150.76a7.92,7.92,0,0,1,0-1.54,2.84,2.84,0,0,1,.84-1.6,2.45,2.45,0,0,1,1.13-.64,5.54,5.54,0,0,1,.91-.13h.84a3,3,0,0,1,1.7.68,2.78,2.78,0,0,1,.77,1.15,4.64,4.64,0,0,1,.19.82,6,6,0,0,1,0,1v.9s0,.13-.12.13h-1.82v-.86a4.69,4.69,0,0,0,0-.53,1.7,1.7,0,0,0-.25-1,1,1,0,0,0-.6-.34,1.51,1.51,0,0,0-.79,0,.91.91,0,0,0-.51.47,2.07,2.07,0,0,0-.15.92v7.68a1.1,1.1,0,0,0,.77,1.05,2.35,2.35,0,0,0,.53,0h.36a1,1,0,0,0,.54-.68,3.24,3.24,0,0,0,0-.88v-2.13c0-.13,0-.17-.2-.17h-.7a.2.2,0,0,1,0-.11v-1.71a.13.13,0,0,1,.13-.13h2.77v4.4a5.06,5.06,0,0,1-.13,1.17,3.17,3.17,0,0,1-.49,1.11,2.62,2.62,0,0,1-1,.84,3.54,3.54,0,0,1-.9.25,4.43,4.43,0,0,1-1.15,0,3.13,3.13,0,0,1-1.66-.62,2.52,2.52,0,0,1-.64-.74,3.08,3.08,0,0,1-.35-1,5.7,5.7,0,0,1,0-1.43Z"/><path class="cls-1" d="M153.67,160.66a.13.13,0,0,1-.15.13h-3.14l-2.13-13.54h2.26l1.58,10.95h.13l1.45-11.07h1.77Z"/><path class="cls-1" d="M186.77,157.24v-.49a.12.12,0,0,1,.08-.13h1.84v1.26a1.13,1.13,0,0,0,.19.62.9.9,0,0,0,.71.43,2,2,0,0,0,.6,0,.86.86,0,0,0,.45-.28,1.27,1.27,0,0,0,.29-.72v-.67a3.1,3.1,0,0,0-.29-.89,5,5,0,0,0-.43-.6c0-.19-.26-.38-.26-.51s-.68-.66-1-1a7.63,7.63,0,0,1-1.3-1.48,4,4,0,0,1-.56-1.28,4.68,4.68,0,0,1,0-1.9,3.37,3.37,0,0,1,.32-1.53,2.28,2.28,0,0,1,1.2-1,3.44,3.44,0,0,1,1.15-.26,4.72,4.72,0,0,1,1.3,0,2.56,2.56,0,0,1,1.05.7,2.7,2.7,0,0,1,.76,1.13,3.92,3.92,0,0,1,.24,1.35,4.68,4.68,0,0,1,0,.53c0,.11,0,.15-.15.15h-1.71c-.13,0-.15,0-.15-.17v-.87a1,1,0,0,0-.62-.81,1.34,1.34,0,0,0-.4,0,1,1,0,0,0-.62.12,1.48,1.48,0,0,0-.26.24,1.36,1.36,0,0,0-.25.83,2.59,2.59,0,0,0,.19,1.2,3.23,3.23,0,0,0,.64,1c.43.49.92.91,1.39,1.36a13.17,13.17,0,0,1,1.06,1.13,7.48,7.48,0,0,1,.54.84,4.61,4.61,0,0,1,.38,2.64,3.44,3.44,0,0,1-.57,1.67,2.64,2.64,0,0,1-1.31.94,3.38,3.38,0,0,1-1,.17h-.81a3.34,3.34,0,0,1-.92-.22,2.46,2.46,0,0,1-1.39-1.28,2.91,2.91,0,0,1-.34-1.19v-1"/><path class="cls-1" d="M157.77,160.68s0,.13.13,0h5.63a.11.11,0,0,0,.13-.08v-1.76h-3.59a.15.15,0,0,1-.15-.17v-3.84h2.67c.17,0,.21,0,.19-.19v-1.73h-2.71a.13.13,0,0,1-.13-.15v-3.65c0-.13,0-.15.15-.15h3.4c.13,0,.15,0,.15-.13v-1.68h-5.7Z"/><path class="cls-1" d="M176.7,149c0-.1,0-.12-.13-.12h-2.13v-1.73H181a.12.12,0,0,1,.12.12v1.63c0,.13,0,.19-.17.19h-2a.13.13,0,0,0-.13.13v11.44a.15.15,0,0,1-.15.15h-1.9Z"/><path class="cls-1" d="M196.93,160.66H195V147.13a.13.13,0,0,1,.13-.13H197c.1,0,.12,0,.12.15Z"/><path class="cls-1" d="M185.15,160.66h-1.92V147h1.88a.13.13,0,0,1,.13.15Z"/><path class="cls-1" d="M138.47,160.7l-2.13-13.53h-3.1a.16.16,0,0,0-.15.13L131,160.81h1.94l.37-2.39h2.6l.34,2.37h2.14m-4.89-4.27,1-6.77h.13l1,6.75Z"/></g></g></svg>