<svg id="Layer_1" data-name="Layer 1" xmlns="http://www.w3.org/2000/svg" viewBox="0 0 274.5 300"><defs><style>.cls-1{fill:#ed1c24;}.cls-2{fill:#fff;}</style></defs><title>viva-tv</title><g id="Layer_2" data-name="Layer 2"><g id="Layer_1-2" data-name="Layer 1-2"><g id="_Group_" data-name=" Group "><path id="_Path_" data-name=" Path " class="cls-1" d="M274.5,167.21a23.26,23.26,0,1,0-23.26,23.26h0a23.23,23.23,0,0,0,23.23-23.24Z"/><g id="_Group_2" data-name=" Group 2"><path id="_Path_2" data-name=" Path 2" class="cls-1" d="M52,159.1c-10.26,0-12.21,6-15.27,10.4L25.18,186.77,18.35,159.1H0l11.57,46.54c2.46,8.31,9.22,7.79,9.22,7.79,4.66,0,8.17-2.46,11.35-7.13l31.23-47.2Z"/><path id="_Path_3" data-name=" Path 3" class="cls-1" d="M147.42,159.1c-10.26,0-12.33,6-15.26,10.4l-11.52,17.27-6.83-27.67H95.45L107,205.64c2.47,8.31,9.23,7.79,9.23,7.79,4.66,0,8.16-2.46,11.34-7.13l31.23-47.2Z"/><path id="_Path_4" data-name=" Path 4" class="cls-1" d="M212.86,159.1c-8.36,0-9.67,6.14-11,10.4s-10.21,36.14-10.21,36.14c5.82,8.31,12.33,7.79,12.33,7.79,4.69,0,7.18-2.46,8.44-7.13l11.81-47.2Z"/><path id="_Path_5" data-name=" Path 5" class="cls-1" d="M80.38,159.1c-10.26,0-12.33,6-15.29,10.4L40,205.64c2.47,8.31,9.23,7.79,9.23,7.79,4.66,0,8.16-2.46,11.32-7.13l31.22-47.2Z"/><g id="_Group_3" data-name=" Group 3"><path id="_Compound_Path_" data-name=" Compound Path " class="cls-1" d="M149.47,189.06a33.07,33.07,0,0,1,32.71-31.12c16.5,0,26.07,10.8,25.58,24.88A33.11,33.11,0,0,1,175,214.05C158.55,214.05,149,203.17,149.47,189.06Zm45.71-5.62c.24-6.27-4.27-10.26-11.15-10.26a16.6,16.6,0,0,0-16.13,15.19c-.25,6.37,4.26,10.39,11.15,10.39A16.64,16.64,0,0,0,195.18,183.44Z"/></g></g><g id="_Group_4" data-name=" Group 4"><polygon id="_Path_6" data-name=" Path 6" class="cls-2" points="236.44 162.75 250.72 162.75 251.24 159.19 236.94 159.19 236.44 162.75"/><polygon id="_Path_7" data-name=" Path 7" class="cls-2" points="241.97 161.59 239.87 175.89 243.45 175.89 245.52 161.59 241.97 161.59"/><polygon id="_Path_8" data-name=" Path 8" class="cls-2" points="254 175.89 252.87 159.27 256.42 159.27 257.56 175.89 254 175.89"/><polygon id="_Path_9" data-name=" Path 9" class="cls-2" points="263.18 159.27 254.47 175.89 258.32 175.89 267 159.27 263.18 159.27"/></g></g></g></g></svg>