<svg id="Layer_1" data-name="Layer 1" xmlns="http://www.w3.org/2000/svg" viewBox="0 0 225 300"><defs><style>.cls-1{fill:#ed1651;}.cls-2{fill:#231f20;}</style></defs><title>viva-network</title><g id="Layer_2" data-name="Layer 2"><g id="Layer_1-2" data-name="Layer 1-2"><g id="_Group_" data-name=" Group "><path id="_Path_" data-name=" Path " class="cls-1" d="M52.14,163.82c-10.28,0-12.33,6-15.31,10.4L25.28,191.69l-6.85-27.87H0l11.62,46.66c2.46,8.36,9.25,7.82,9.25,7.82,4.68,0,8.19-2.46,11.37-7.13l31.32-47.35Z"/><path id="_Path_2" data-name=" Path 2" class="cls-1" d="M148,163.82c-10.28,0-12.33,6-15.31,10.4,0,0-8.37,12.63-11.55,17.47l-6.95-27.87H95.78l11.61,46.66c2.47,8.36,9.25,7.82,9.25,7.82,4.69,0,8.19-2.46,11.37-7.13l31.33-47.35Z"/><path id="_Path_3" data-name=" Path 3" class="cls-1" d="M80.66,163.82c-10.31,0-12.34,6-15.35,10.4l-25.2,36.26c2.46,8.36,9.25,7.82,9.25,7.82,4.68,0,8.18-2.46,11.39-7.13l31.33-47.35Z"/><path id="_Compound_Path_" data-name=" Compound Path " class="cls-1" d="M213.58,163.82a9.86,9.86,0,0,0-10.16,7.59c-4.34-5.42-11.42-8.78-20.65-8.78A33.16,33.16,0,0,0,150,193.83c-.49,14.24,9.1,25.06,25.56,25.06A32.45,32.45,0,0,0,194.27,213a13.89,13.89,0,0,0,10.45,5.35c4.69,0,7.18-2.46,8.44-7.13L225,163.82Zm-33.94,39.81c-6.91,0-11.42-4-11.17-10.39a16.64,16.64,0,0,1,16.18-15.34c6.9,0,11.44,4,11.17,10.29A16.63,16.63,0,0,1,179.64,203.63Z"/><path id="_Path_4" data-name=" Path 4" class="cls-2" d="M24.1,233.1,17.27,227a5.44,5.44,0,0,0-.79-.49,2.2,2.2,0,0,0-.69-.25h-.32c-.52,0-1.41.22-1.41,1.58v9.49h2.79v-6.93l6.53,5.9.57.49h0l.39.25a2.74,2.74,0,0,0,.82.32h.34c.52,0,1.39-.2,1.39-1.56v-9.54H24.1Z"/><path id="_Path_5" data-name=" Path 5" class="cls-2" d="M46.59,226.52a2.67,2.67,0,0,0-1.06.66,2.32,2.32,0,0,0-.64,1,3.22,3.22,0,0,0-.22,1.19v.84a2.94,2.94,0,0,0,.52,1.67,2.74,2.74,0,0,0-.52,1.61v.86a3.54,3.54,0,0,0,.2,1.16,2.56,2.56,0,0,0,.64,1,3.43,3.43,0,0,0,1.06.66,4.23,4.23,0,0,0,1.5.22H57.5v-2.76H48.07a.56.56,0,0,1-.47-.17.67.67,0,0,1-.14-.49c0-.55.19-.7.47-.72H57.5v-2.76H48.07a.61.61,0,0,1-.47-.18.78.78,0,0,1-.14-.54.71.71,0,0,1,.14-.49.62.62,0,0,1,.47-.15H57.5v-2.81H48.07A3.78,3.78,0,0,0,46.59,226.52Z"/><polygon id="_Path_6" data-name=" Path 6" class="cls-2" points="75.28 229.06 80.29 229.06 80.29 237.34 83.1 237.34 83.1 229.06 88.11 229.06 88.11 226.27 75.28 226.27 75.28 229.06"/><path id="_Path_7" data-name=" Path 7" class="cls-2" d="M116.3,233.2l-2.71-6.93H111l-2.72,6.93-2.71-6.93h-3l3.48,9.17a4.37,4.37,0,0,0,.45.72,2.91,2.91,0,0,0,.49.62,2.66,2.66,0,0,0,.54.39,1.16,1.16,0,0,0,.59.2h.4a1.78,1.78,0,0,0,1.08-.54,4,4,0,0,0,1-1.43l1.78-4.59,1.8,4.61a4.26,4.26,0,0,0,.93,1.33,1.83,1.83,0,0,0,1.14.62h.2a1.78,1.78,0,0,0,1.08-.54,4.37,4.37,0,0,0,1.06-1.43l3.5-9.13H119Z"/><path id="_Compound_Path_2" data-name=" Compound Path 2" class="cls-2" d="M143.18,226.27h-.54a6.79,6.79,0,0,0-4.66,1.38,5.3,5.3,0,0,0-1.53,4.22,7.59,7.59,0,0,0,.35,2.46,4,4,0,0,0,1.15,1.76,5,5,0,0,0,2,1,11,11,0,0,0,2.74.29h.57a10.77,10.77,0,0,0,2.71-.29,4.58,4.58,0,0,0,2-1,3.94,3.94,0,0,0,1.16-1.76,7.07,7.07,0,0,0,.37-2.46,5.42,5.42,0,0,0-1.55-4.22A6.83,6.83,0,0,0,143.18,226.27Zm3.38,5.6a2.47,2.47,0,0,1-.74,2,4.17,4.17,0,0,1-2.69.66h-.44a4.09,4.09,0,0,1-2.66-.66,2.5,2.5,0,0,1-.77-2.08,2.67,2.67,0,0,1,.77-2.09,4,4,0,0,1,2.66-.69h.49a3.89,3.89,0,0,1,2.62.71A2.64,2.64,0,0,1,146.56,231.87Z"/><path id="_Path_8" data-name=" Path 8" class="cls-2" d="M177.59,233a3.06,3.06,0,0,0,1.06-.66,2.93,2.93,0,0,0,.89-2.12v-.94a3.22,3.22,0,0,0-.22-1.19,2.85,2.85,0,0,0-.67-1,2.81,2.81,0,0,0-1.06-.54,3.72,3.72,0,0,0-1.48-.25h-9.37v2.79h9.45c.37,0,.59,0,.59.66s-.25.72-.59.72h-9.45v6.9h2.79V233.2h2.76l4.27,4.14h3.75l-4.12-4.14A4.17,4.17,0,0,0,177.59,233Z"/><polygon id="_Path_9" data-name=" Path 9" class="cls-2" points="205.44 231.84 210.84 226.27 207.17 226.27 203.12 230.44 200.14 230.44 200.14 226.27 197.35 226.27 197.35 237.34 200.14 237.34 200.14 233.2 202.9 233.2 207.17 237.34 210.92 237.34 205.44 231.84"/></g></g></g></svg>